<svg xmlns="http://www.w3.org/2000/svg" viewBox="0 0 707 553" preserveAspectRatio="xMidYMid meet">
<g transform="translate(0,553) scale(0.1,-0.1)" fill="currentColor" stroke="none">
<path d="M3747 5515 c-74 -26 -117 -88 -117 -169 0 -69 19 -103 114 -196 47
-46 86 -89 86 -95 0 -5 -213 -223 -473 -483 l-473 -473 -44 16 c-25 9 -104 32
-176 50 -509 131 -1078 54 -1543 -209 -563 -319 -951 -897 -1036 -1541 -19
-149 -19 -411 0 -560 90 -684 519 -1289 1132 -1594 293 -146 544 -209 878
-218 210 -6 356 8 539 52 753 178 1340 759 1536 1519 45 177 63 327 63 531 -1
241 -28 416 -99 643 l-27 83 474 477 474 478 100 -97 c79 -76 109 -99 144
-109 149 -40 275 105 216 248 -21 49 -327 358 -380 383 -51 23 -99 24 -150 0
-51 -23 -1241 -1220 -1261 -1268 -22 -51 -17 -94 22 -194 87 -226 113 -355
121 -594 6 -192 -7 -328 -48 -487 -91 -361 -302 -693 -584 -919 -703 -565
-1705 -502 -2325 148 -328 343 -495 784 -477 1258 13 343 105 627 292 909 247
370 643 634 1095 728 67 14 153 21 290 25 170 5 211 2 320 -16 136 -23 247
-54 382 -107 103 -40 140 -42 195 -11 23 12 302 286 646 633 535 540 606 615
617 653 12 45 7 89 -16 131 -7 14 -91 102 -186 196 -202 200 -226 213 -321
179z"/>
<path d="M3955 4212 c-135 -65 -165 -225 -61 -328 76 -77 175 -83 264 -17 52
39 75 94 70 174 -3 58 -8 74 -34 106 -42 51 -83 73 -146 79 -39 4 -63 0 -93
-14z"/>
<path d="M1235 3465 c-204 -146 -308 -252 -431 -436 -151 -226 -242 -497 -262
-777 -47 -667 308 -1287 903 -1577 208 -101 411 -152 646 -162 548 -23 1052
229 1378 689 l82 117 -41 98 c-126 294 -290 536 -485 714 -132 119 -247 197
-556 374 -232 133 -415 252 -539 351 -177 142 -367 354 -514 572 -38 56 -74
102 -80 102 -6 0 -51 -29 -101 -65z m337 -865 c105 -29 164 -149 123 -247 -33
-79 -97 -117 -186 -111 -70 5 -122 41 -150 102 -46 102 1 213 107 251 48 17
59 18 106 5z m939 -285 c117 -61 73 -245 -58 -245 -86 0 -133 47 -133 136 0
41 5 51 39 85 32 33 45 39 80 39 23 0 55 -7 72 -15z m-853 -518 c77 -51 117
-156 92 -247 -16 -61 -89 -134 -150 -150 -100 -27 -203 16 -252 105 -62 112
-17 254 97 307 60 28 159 21 213 -15z m767 -201 c55 -25 109 -80 133 -135 8
-20 15 -65 16 -101 1 -137 -97 -245 -233 -257 -235 -22 -372 251 -217 434 67
80 201 106 301 59z"/>
<path d="M3555 3483 c-68 -36 -97 -82 -97 -153 0 -58 21 -101 69 -137 31 -24
46 -28 99 -28 70 0 102 17 142 75 34 51 31 134 -7 187 -47 66 -140 91 -206 56z"/>
<path d="M6520 3371 c-208 -64 -236 -334 -45 -434 83 -43 201 -21 266 50 66
71 83 179 41 259 -51 98 -168 153 -262 125z"/>
<path d="M2135 3296 c-16 -7 -41 -26 -55 -41 -21 -22 -25 -37 -25 -85 0 -48 4
-63 25 -85 122 -133 315 19 216 170 -17 26 -74 55 -108 55 -12 -1 -36 -7 -53
-14z"/>
<path d="M2830 3141 c-253 -54 -299 -400 -68 -515 104 -52 254 -26 323 56 52
62 69 108 69 188 0 62 -5 84 -27 126 -55 107 -183 169 -297 145z"/>
<path d="M5071 2988 c-241 -38 -388 -285 -310 -521 100 -306 514 -364 696 -98
51 73 73 143 73 226 0 243 -220 432 -459 393z"/>
<path d="M6623 1872 c-92 -33 -163 -106 -194 -200 -17 -51 -7 -179 18 -227 30
-58 90 -114 151 -142 46 -22 64 -24 135 -21 91 4 132 20 195 74 124 106 131
316 14 437 -82 86 -211 118 -319 79z"/>
</g>
</svg>
