<svg xmlns="http://www.w3.org/2000/svg" width="1024" height="1024" viewBox="0 0 1024 1024" version="1.1">
	<path fill-opacity="0.137" d="M 201.250 511.417 C 201.387 663.446, 201.759 788.092, 202.075 788.408 C 202.933 789.266, 449.907 789.427, 450.763 788.570 C 451.169 788.165, 451.601 663.446, 451.725 511.417 L 451.949 235 326.474 235 L 200.999 235 201.250 511.417 M 480.593 501.250 C 480.644 647.688, 480.756 772.325, 480.843 778.222 L 481 788.944 512.001 789.222 L 543.001 789.500 543.048 682.500 C 543.074 623.650, 543.069 546.700, 543.037 511.500 C 543.005 476.300, 542.984 399.688, 542.990 341.250 L 543 235 511.750 235 L 480.500 235 480.593 501.250 M 572 512 L 572 789 697.250 789 L 822.500 789 822.248 527.750 C 822.109 384.063, 821.997 259.413, 821.998 250.750 L 822 235 697 235 L 572 235 572 512 M 310.364 290.424 C 288.122 295.512, 270.174 309.691, 260.054 330.169 C 254.062 342.296, 252.041 350.824, 252.017 364.090 C 251.960 395.960, 271.991 423.583, 302.773 434.080 C 311.708 437.126, 313.518 437.400, 325 437.433 C 333.799 437.458, 339.424 436.955, 344 435.733 C 370.934 428.542, 393.574 405.850, 399.104 380.500 C 400.993 371.840, 400.720 352.965, 398.592 345 C 394.467 329.568, 385.393 315.515, 373.396 305.982 C 359.100 294.621, 346.851 290.161, 328 289.453 C 320.258 289.162, 314.495 289.480, 310.364 290.424 M 685 289.635 C 666.839 293.075, 648.713 304.366, 637.417 319.273 C 626.638 333.496, 622.550 347.280, 623.260 367 C 623.664 378.201, 624.066 380.439, 627.135 388.535 C 635.528 410.676, 652.525 427.195, 674.500 434.569 C 684.831 438.036, 700.973 438.946, 711.678 436.666 C 727.294 433.340, 739.029 426.934, 750.481 415.481 C 759.480 406.483, 763.965 399.551, 767.655 388.942 C 777.279 361.268, 770.005 330.475, 749.007 310 C 739.840 301.062, 733.049 296.828, 721.261 292.704 C 713.541 290.003, 711.015 289.611, 700 289.400 C 693.125 289.269, 686.375 289.374, 685 289.635 M 316.452 316.334 C 297.217 321.245, 283.405 334.868, 279.384 352.896 C 273.423 379.621, 290.731 405.476, 318.028 410.624 C 350.128 416.678, 378.018 389.718, 373.883 356.631 C 371.796 339.928, 359.098 324.226, 342.782 318.173 C 335.530 315.483, 323.168 314.619, 316.452 316.334 M 690.575 316.169 C 676.764 317.565, 660.859 328.451, 654.608 340.787 C 642.978 363.737, 650.035 390.371, 671.405 404.184 C 677.895 408.378, 682.206 409.820, 691.895 411.038 C 709.669 413.272, 728.978 403.748, 738.421 388.090 C 743.493 379.678, 745.180 373.685, 745.199 364 C 745.218 354.641, 743.982 348.862, 740.498 342.017 C 731.139 323.629, 712.458 313.957, 690.575 316.169" stroke="none" fill="currentColor" fill-rule="evenodd"/>
	<path fill-opacity="0.209" d="M 202 512 L 202 789 326.500 789 L 451 789 451 512 L 451 235 326.500 235 L 202 235 202 512 M 481 512 L 481 789 512 789 L 543 789 543 512 L 543 235 512 235 L 481 235 481 512 M 572.777 237.750 C 572.655 239.262, 572.542 363.912, 572.527 514.750 L 572.500 788.999 697.250 789 L 822 789 822 512 L 822 235 697.500 235 L 573 235 572.777 237.750 M 687.500 289.094 C 667.486 292.082, 649.820 302.483, 637.885 318.304 C 626.875 332.900, 622.699 345.299, 622.665 363.500 C 622.641 376.222, 624.304 383.788, 629.589 395 C 639.355 415.717, 659.071 431.765, 680.658 436.567 C 692.017 439.095, 710.067 438.218, 720.500 434.634 C 732.357 430.559, 741.376 424.799, 751.103 415.088 C 758.303 407.900, 760.458 404.951, 764.325 397 C 779.013 366.791, 772.548 331.775, 748.020 308.701 C 731.887 293.524, 708.523 285.955, 687.500 289.094 M 307.871 290.847 C 285.672 297.046, 269.190 310.545, 259.457 330.500 C 253.739 342.223, 251.772 350.839, 251.806 364 C 251.897 399.064, 274.320 427.367, 308.930 436.105 C 320.801 439.102, 337.060 438.485, 348.500 434.603 C 360.938 430.383, 370.407 424.530, 379.468 415.462 C 393.541 401.379, 399.793 387.277, 400.731 367.500 C 401.438 352.617, 399.555 343.635, 392.872 330 C 388.498 321.077, 386.502 318.287, 379.584 311.426 C 370.242 302.161, 360.940 296.280, 349.500 292.407 C 338.692 288.747, 318.149 287.977, 307.871 290.847 M 314.618 317.112 C 296.508 321.364, 281.548 338.123, 278.977 357.038 C 277.004 371.557, 281.317 384.804, 291.646 395.948 C 301.931 407.044, 313.636 411.604, 329.683 410.765 C 337.581 410.353, 339.922 409.784, 346.413 406.702 C 364.042 398.330, 374 382.505, 374 362.863 C 374 342.114, 359.972 323.395, 340.068 317.585 C 334.162 315.861, 320.990 315.616, 314.618 317.112 M 684.912 317.445 C 671.890 321.037, 660.327 330.484, 654.547 342.253 C 646.452 358.734, 647.496 374.699, 657.681 390.196 C 665.761 402.489, 678.425 409.749, 693.500 410.728 C 708.377 411.695, 721.213 407.005, 731 397.028 C 757.061 370.458, 745.162 326.831, 709.307 317.492 C 702.475 315.712, 691.270 315.691, 684.912 317.445" stroke="none" fill="currentColor" fill-rule="evenodd"/>
	<path fill-opacity="0.431" d="M 202 512 L 202 789 326.500 789 L 451 789 451 512 L 451 235 326.500 235 L 202 235 202 512 M 481 511.986 L 481 789 512.002 789 L 543.004 789 542.752 512.250 L 542.500 235.500 511.750 235.236 L 481 234.971 481 511.986 M 573 512.004 L 573 789.008 697.250 788.754 L 821.500 788.500 821.752 511.750 L 822.004 235 697.502 235 L 573 235 573 512.004 M 316.500 288.648 C 285.370 293.648, 261.692 314.811, 253.385 345.058 C 250.988 353.788, 250.940 373.038, 253.295 382 C 254.234 385.575, 257.085 392.741, 259.632 397.925 C 263.384 405.565, 265.799 408.898, 272.380 415.521 C 285.418 428.642, 299.944 435.795, 318.197 438.084 C 354.870 442.682, 393.095 414.904, 400.098 378.565 C 401.571 370.923, 401.261 353.938, 399.512 346.396 C 397.488 337.666, 391.464 325.030, 385.707 317.436 C 376.664 305.508, 360.281 294.791, 345.136 290.896 C 337.519 288.938, 322.187 287.734, 316.500 288.648 M 684.075 289.019 C 660.022 294.111, 640.408 309.128, 629.548 330.769 C 624.690 340.449, 622.931 347.670, 622.308 360.500 C 621.868 369.559, 622.148 373.062, 623.892 380.352 C 630.301 407.131, 652.145 429.817, 677.943 436.489 C 693.217 440.439, 708.460 439.501, 723.993 433.655 C 735.017 429.507, 742.723 424.392, 752.019 415.053 C 765.706 401.304, 772.250 384.758, 772.213 364 C 772.170 340.064, 762.996 320.142, 745.257 305.465 C 737.820 299.311, 725.526 292.768, 717 290.426 C 710.318 288.590, 690.169 287.729, 684.075 289.019 M 314.773 317.491 C 300.829 321.026, 290.300 329.555, 283.877 342.516 C 280.228 349.880, 279.701 351.847, 279.248 359.782 C 278.931 365.337, 279.219 370.781, 280.007 374.119 C 287.680 406.659, 325.736 421.341, 353.500 402.472 C 361.131 397.287, 368.096 388.151, 371.139 379.340 C 374.424 369.824, 374.400 355.127, 371.085 346.676 C 366.255 334.360, 355.382 323.570, 343.104 318.906 C 335.867 316.157, 322.642 315.496, 314.773 317.491 M 689.536 317.124 C 674.745 319.251, 660.926 329.630, 654.296 343.593 C 651.023 350.484, 650.619 352.256, 650.244 361.373 C 649.748 373.416, 651.573 380.505, 657.448 389.356 C 665.591 401.624, 676.689 408.349, 691.723 410.127 C 699.221 411.014, 701.771 410.923, 707.105 409.578 C 717.473 406.965, 725.190 402.642, 731.335 396.005 C 749.010 376.913, 749.078 349.514, 731.496 331.081 C 720.620 319.679, 705.875 314.774, 689.536 317.124" stroke="none" fill="currentColor" fill-rule="evenodd"/>
	<path fill-opacity="0.455" d="M 202.034 512.250 L 202.095 788.500 325.910 788.500 L 449.724 788.500 450.318 762.500 C 450.645 748.200, 450.898 623.888, 450.880 486.250 L 450.848 236 326.411 236 L 201.973 236 202.034 512.250 M 204.525 254.922 C 203.843 257.069, 204.519 259, 205.952 259 C 207.484 259, 207.793 256.437, 206.478 254.639 C 205.250 252.960, 205.143 252.975, 204.525 254.922 M 315.500 286.139 C 315.902 287.187, 314.812 287.480, 310.761 287.414 C 305.164 287.323, 298.896 289.556, 299.592 291.394 C 299.822 292.002, 297.954 293.344, 295.441 294.376 C 288.996 297.021, 277.220 304.993, 272.545 309.874 C 269.811 312.729, 268.035 313.829, 266.795 313.435 C 265.808 313.122, 265 313.346, 265 313.933 C 265 314.520, 265.698 315, 266.551 315 C 267.770 315, 267.581 315.694, 265.665 318.250 C 261.337 324.024, 256.809 332.924, 254.507 340.186 C 253.270 344.086, 252.036 346.652, 251.765 345.888 C 251.493 345.125, 251.696 343.674, 252.216 342.664 C 252.736 341.655, 252.901 340.567, 252.581 340.248 C 252.261 339.928, 252 340.178, 252 340.802 C 252 341.426, 251.320 341.676, 250.489 341.357 C 249.365 340.926, 249.152 341.233, 249.659 342.553 C 250.122 343.761, 249.970 344.099, 249.181 343.612 C 248.425 343.144, 248.229 343.434, 248.618 344.448 C 248.946 345.302, 248.744 346, 248.169 346 C 247.594 346, 247.192 346.900, 247.275 348 C 247.358 349.100, 247.806 350, 248.272 350 C 248.737 350, 248.859 350.419, 248.543 350.931 C 248.226 351.443, 248.494 352.187, 249.138 352.585 C 249.869 353.037, 250.041 352.876, 249.595 352.155 C 249.203 351.520, 249.359 351, 249.941 351 C 250.523 351, 251 350.250, 251 349.333 C 251 348.417, 251.150 347.854, 251.333 348.083 C 251.516 348.313, 251.404 354.463, 251.083 361.751 C 250.762 369.040, 250.838 375.002, 251.250 375.001 C 251.662 375.001, 251.971 376.238, 251.937 377.750 C 251.876 380.393, 251.838 380.413, 250.969 378.250 C 249.855 375.478, 249.383 375.427, 248.710 378.001 C 248.377 379.275, 248.578 379.761, 249.263 379.337 C 249.928 378.926, 250.112 379.265, 249.745 380.223 C 249.313 381.347, 249.641 381.645, 250.936 381.307 C 252.364 380.933, 252.965 381.807, 253.932 385.670 C 256.161 394.566, 263.942 407.726, 271.622 415.588 C 287.732 432.079, 307.422 439.846, 330.414 438.780 C 353.495 437.710, 376.385 424.479, 389.500 404.628 C 392.303 400.385, 395.222 397.046, 396.143 397.030 C 397.047 397.013, 398.045 396.325, 398.362 395.500 C 399.057 393.687, 397.862 393.538, 396.173 395.227 C 395.203 396.197, 395.182 395.777, 396.071 393.227 C 396.689 391.452, 397.588 390, 398.066 390 C 398.545 390, 398.678 390.675, 398.362 391.500 C 398.045 392.325, 398.213 393, 398.735 393 C 399.257 393, 400.205 391.260, 400.842 389.134 C 402.263 384.389, 402.271 384, 400.941 384 C 400.359 384, 400.094 384.342, 400.352 384.761 C 400.611 385.180, 400.127 386.417, 399.277 387.511 C 397.735 389.494, 397.733 389.494, 398.463 387.500 C 400.061 383.132, 401.933 370.096, 401.980 363 C 402.016 357.664, 402.318 355.933, 403.028 357 C 403.767 358.112, 403.969 357.531, 403.808 354.750 C 403.574 350.707, 402.081 349.549, 401.875 353.250 C 401.806 354.488, 401.394 353.475, 400.958 351 C 400.523 348.525, 400.403 345.656, 400.691 344.625 C 400.986 343.568, 400.796 343.008, 400.256 343.342 C 399.728 343.668, 398.729 342.037, 398.034 339.717 C 396.772 335.502, 391.635 324.968, 388.279 319.715 C 386.715 317.267, 386.681 316.806, 388 315.900 C 389.127 315.125, 388.880 315.046, 387.008 315.579 C 384.767 316.217, 384.655 316.120, 385.899 314.621 C 387.106 313.167, 387.069 313.036, 385.613 313.595 C 384.460 314.037, 382.321 312.702, 378.709 309.286 C 375.830 306.563, 370.893 302.621, 367.737 300.526 C 364.582 298.431, 362 296.132, 362 295.417 C 362 294.703, 361.555 293.843, 361.011 293.507 C 360.443 293.156, 360.278 293.561, 360.623 294.459 C 361.058 295.595, 360.781 295.853, 359.611 295.404 C 358.725 295.064, 358 294.171, 358 293.419 C 358 291.633, 352.331 288.655, 351.498 290.004 C 350.944 290.900, 352.259 291.433, 354.250 291.118 C 354.663 291.053, 355 291.498, 355 292.107 C 355 292.752, 354.270 292.932, 353.250 292.537 C 347.117 290.165, 334.320 288.004, 326 287.937 C 319.756 287.886, 317.186 287.565, 318.500 287 C 319.600 286.527, 319.974 286.109, 319.332 286.070 C 318.689 286.032, 317.447 285.725, 316.570 285.389 C 315.492 284.975, 315.146 285.217, 315.500 286.139 M 303.250 289.780 C 302.012 289.977, 301 290.588, 301 291.137 C 301 292.013, 304.744 291.433, 305.917 290.376 C 306.688 289.680, 305.516 289.418, 303.250 289.780 M 274.607 304.582 C 273.668 307.028, 273.872 307.351, 275.500 306 C 277.162 304.620, 277.490 303, 276.107 303 C 275.616 303, 274.941 303.712, 274.607 304.582 M 271.614 306.816 C 271.200 307.485, 270.330 307.728, 269.681 307.356 C 269.031 306.984, 268.838 307.052, 269.252 307.509 C 269.666 307.965, 269.256 309.164, 268.342 310.175 C 265.740 313.050, 267.558 313.491, 270.555 310.712 C 272.032 309.342, 273.044 307.631, 272.803 306.910 C 272.467 305.901, 272.193 305.879, 271.614 306.816 M 381.570 309.887 C 381.269 310.374, 381.652 311.296, 382.422 311.935 C 383.380 312.731, 384.026 312.766, 384.470 312.049 C 384.826 311.472, 384.390 311, 383.500 311 C 382.610 311, 382.160 310.550, 382.500 310 C 382.840 309.450, 382.893 309, 382.618 309 C 382.343 309, 381.871 309.399, 381.570 309.887 M 326 317.222 C 326 317.650, 328.212 318, 330.917 318 C 333.621 318, 336.062 318.461, 336.342 319.025 C 336.621 319.589, 336.736 319.476, 336.596 318.775 C 336.322 317.401, 326 315.888, 326 317.222 M 310.423 319.363 C 302.091 322.461, 298.208 325.030, 292.115 331.472 C 280.795 343.441, 276.765 359.882, 281.114 376.351 C 282.027 379.808, 282.263 380.022, 283.415 378.448 C 284.584 376.849, 284.795 376.973, 285.797 379.847 C 287.051 383.446, 288.427 384.150, 287.562 380.750 C 286.995 378.522, 287.001 378.523, 288.181 380.826 C 289.119 382.655, 289.102 383.319, 288.103 383.937 C 287.125 384.541, 287.195 384.861, 288.408 385.326 C 289.344 385.685, 289.901 386.930, 289.780 388.393 C 289.667 389.748, 289.214 390.632, 288.772 390.359 C 288.329 390.085, 288.272 389.330, 288.644 388.681 C 289.016 388.031, 288.955 387.831, 288.509 388.234 C 288.063 388.638, 287.066 388.188, 286.294 387.234 C 285.057 385.707, 285.034 385.795, 286.100 387.974 C 289.301 394.518, 304.329 407.151, 306.970 405.518 C 307.537 405.168, 308 405.385, 308 406 C 308 406.615, 308.450 406.840, 309 406.500 C 309.550 406.160, 310 406.434, 310 407.108 C 310 407.782, 310.296 408.037, 310.658 407.675 C 311.020 407.313, 311.847 407.458, 312.497 407.997 C 314.295 409.490, 327.846 410.642, 333.650 409.796 C 336.482 409.383, 340.982 408.118, 343.650 406.985 C 346.317 405.851, 347.488 405.124, 346.251 405.368 C 345.014 405.612, 343.750 405.404, 343.442 404.906 C 343.134 404.408, 343.281 404, 343.770 404 C 344.782 404, 353.822 398.203, 355.831 396.265 C 356.562 395.559, 357.575 395.237, 358.081 395.550 C 359.400 396.365, 359.213 397.043, 357.750 396.750 C 357.063 396.612, 356.612 397.063, 356.750 397.750 C 356.976 398.879, 355.757 399.435, 353.750 399.118 C 353.337 399.053, 353 399.606, 353 400.347 C 353 401.088, 351.988 402.183, 350.750 402.780 C 349.512 403.376, 349.022 403.895, 349.660 403.932 C 351.652 404.049, 360.870 396.149, 364.502 391.213 C 368.809 385.362, 372.025 377.091, 372.553 370.511 L 372.955 365.500 371.919 369.750 C 371.349 372.087, 370.431 374, 369.879 374 C 368.274 374, 369.846 366.792, 371.861 364.914 C 373.431 363.452, 373.564 362.350, 372.870 356.580 C 370.815 339.510, 356.237 322.625, 340 318.508 L 337.500 317.875 340 319.954 L 342.500 322.033 340 321.209 C 338.625 320.755, 336.476 320.462, 335.225 320.557 C 333.974 320.652, 332.710 320.340, 332.416 319.865 C 332.122 319.389, 330.334 319, 328.441 319 C 326.548 319, 325 318.550, 325 318 C 325 316.249, 316.715 317.024, 310.423 319.363 M 295.971 328.535 C 294.245 330.615, 295.534 331.608, 297.460 329.683 C 298.315 328.827, 298.613 327.879, 298.121 327.575 C 297.629 327.271, 296.662 327.703, 295.971 328.535 M 292.269 332.261 C 291.251 333.577, 289.866 337, 290.351 337 C 291.335 337, 294.768 331.974, 294.076 331.547 C 293.609 331.258, 292.795 331.580, 292.269 332.261 M 447.188 369.210 C 447.261 371.250, 447.699 372.686, 448.161 372.401 C 449.279 371.710, 449.201 368.863, 448.012 367 C 447.314 365.905, 447.091 366.502, 447.188 369.210 M 367.459 376.067 C 366.370 377.829, 367.518 378.076, 369.573 376.521 C 371.265 375.241, 371.294 375.060, 369.809 375.032 C 368.879 375.014, 367.821 375.480, 367.459 376.067 M 259.054 404.900 C 257.848 407.152, 258.701 410.303, 260.256 409.341 C 260.832 408.986, 261.857 409.451, 262.533 410.377 C 263.479 411.670, 263.881 411.753, 264.270 410.737 C 264.549 410.011, 264.167 408.581, 263.420 407.560 C 262.298 406.026, 261.796 405.924, 260.531 406.974 C 259.564 407.777, 259 407.850, 259 407.172 C 259 406.582, 259.733 405.689, 260.628 405.188 C 261.682 404.598, 261.877 404.042, 261.179 403.610 C 260.586 403.244, 259.629 403.824, 259.054 404.900 M 376.131 421.342 C 375.519 422.080, 375.351 423.052, 375.759 423.501 C 376.166 423.951, 375.818 424.077, 374.985 423.781 C 373.313 423.187, 366.229 428.563, 367.288 429.622 C 367.653 429.987, 368.648 429.707, 369.499 429.001 C 370.817 427.907, 370.959 427.996, 370.459 429.609 C 370.137 430.649, 370.557 430.327, 371.393 428.893 C 372.230 427.460, 373.983 425.586, 375.290 424.729 C 376.597 423.873, 377.667 422.459, 377.667 421.586 C 377.667 419.658, 377.545 419.638, 376.131 421.342 M 279.333 427.671 C 279.333 428.355, 280.608 429.194, 282.167 429.537 C 283.725 429.879, 285 430.600, 285 431.138 C 285 431.677, 284.438 431.827, 283.750 431.472 C 283.063 431.117, 283.618 431.734, 284.984 432.844 C 286.780 434.303, 287.676 434.534, 288.219 433.681 C 288.776 432.804, 288.973 432.830, 288.985 433.785 C 288.997 434.787, 289.470 434.819, 291.135 433.928 C 292.739 433.069, 292.948 432.586, 291.976 431.985 C 291.264 431.545, 290.004 431.445, 289.177 431.762 C 288.197 432.138, 287.924 431.932, 288.395 431.170 C 288.829 430.468, 288.495 430, 287.559 430 C 286.702 430, 286 429.550, 286 429 C 286 428.450, 285.663 428.053, 285.250 428.118 C 283.427 428.406, 281.922 427.935, 282.368 427.214 C 282.635 426.782, 282.061 426.429, 281.093 426.429 C 280.125 426.429, 279.333 426.988, 279.333 427.671 M 336.304 439.719 C 334.023 440.004, 333.266 440.531, 333.661 441.559 C 333.965 442.352, 334.642 443, 335.166 443 C 335.690 443, 335.840 442.550, 335.500 442 C 335.140 441.418, 336.137 441, 337.882 441 C 339.532 441, 341.160 440.550, 341.500 440 C 341.840 439.450, 341.529 439.072, 340.809 439.160 C 340.089 439.248, 338.062 439.500, 336.304 439.719 M 321.705 440.796 C 323.017 441.630, 330.897 441.436, 331.785 440.548 C 332.087 440.247, 329.671 440.007, 326.417 440.015 C 323.163 440.024, 321.042 440.375, 321.705 440.796 M 203.765 770.447 C 203.511 771.780, 203.677 773.462, 204.136 774.185 C 205.070 775.658, 205.100 775.601, 205.447 771.715 C 205.759 768.214, 204.390 767.182, 203.765 770.447" stroke="none" fill="currentColor" fill-rule="evenodd"/>
</svg>