<svg xmlns="http://www.w3.org/2000/svg" width="1024" height="1024" viewBox="0 0 1024 1024" version="1.1">
	<path fill-opacity="0.263" d="M 493 114.122 C 441.384 120.057, 395.591 147.729, 367.463 189.982 C 333.403 241.147, 328.950 304.339, 355.516 359.500 C 377.360 404.856, 419.365 439.263, 467.845 451.511 C 562.616 475.453, 657.290 419.438, 680.837 325.491 C 683.852 313.462, 685.116 303.828, 685.493 290 C 687.312 223.209, 650.080 161.636, 589.500 131.249 C 560.115 116.509, 525.566 110.377, 493 114.122 M 327 553.981 L 327 616.962 329.250 617.479 C 331.731 618.050, 338.473 619.458, 425 637.485 C 457.725 644.303, 490.469 651.111, 497.765 652.614 L 511.031 655.347 526.765 652.100 C 535.419 650.314, 576.841 641.686, 618.812 632.926 C 660.784 624.167, 695.322 617, 695.562 617 C 695.803 617, 696 588.641, 696 553.981 L 696 490.962 693.750 491.494 C 690.730 492.208, 599.948 511.172, 552 521.105 C 525.464 526.602, 512.412 528.893, 510 528.478 C 508.075 528.147, 466.764 519.578, 418.199 509.438 C 369.633 499.297, 329.246 491, 328.449 491 C 327.199 491, 327 499.656, 327 553.981 M 228.242 739.750 L 228.500 801.500 306.750 801.756 L 385 802.012 385 832.006 L 385 862 520 862 L 655 862 655 832.007 L 655 802.014 725.250 801.757 L 795.500 801.500 795.758 739.750 L 796.015 678 512 678 L 227.985 678 228.242 739.750 M 819.761 784.250 L 819.500 825.500 749.250 825.757 L 679 826.014 679 855.013 L 679 884.012 794.250 883.756 L 909.500 883.500 909.765 854.750 L 910.031 826 885.015 826 L 860 826 860 784.500 L 860 743 840.011 743 L 820.022 743 819.761 784.250 M 164 810 L 164 826 145.485 826 L 126.969 826 127.235 854.750 L 127.500 883.500 244 883.500 L 360.500 883.500 360.500 854.679 L 360.500 825.858 282.250 825.963 L 204 826.068 204 810.034 L 204 794 184 794 L 164 794 164 810" stroke="none" fill="currentColor" fill-rule="evenodd"/>
	<path fill-opacity="0.356" d="M 500 113.616 C 489.803 114.544, 473.944 117.264, 465.500 119.534 C 418.098 132.278, 377.094 166.535, 355.514 211.425 C 332.789 258.693, 332.822 311.458, 355.604 358.988 C 391.212 433.276, 474.128 471.667, 555.212 451.411 C 569.272 447.898, 577.888 444.614, 592 437.388 C 637.975 413.847, 670.896 370.546, 682.199 318.749 C 684.153 309.797, 684.436 305.590, 684.436 285.500 C 684.436 260.650, 683.359 252.769, 677.362 233.727 C 658.050 172.407, 603.948 125.850, 540 115.523 C 530.247 113.947, 508.010 112.888, 500 113.616 M 327 554 C 327 588.650, 327.265 617, 327.589 617 C 327.913 617, 358.175 623.282, 394.839 630.961 C 472.318 647.187, 510.147 655, 511.230 655 C 511.654 655, 512 626.714, 512 592.142 L 512 529.285 504.250 527.694 C 495.774 525.955, 462.753 519.049, 381.696 502.064 C 352.653 495.979, 328.466 491, 327.946 491 C 327.361 491, 327 515.078, 327 554 M 228.390 707.750 C 228.635 723.563, 228.873 751.013, 228.918 768.750 L 229 801 307 801 L 385 801 385 831.500 L 385 862 520 862 L 655 862 655 831.500 L 655 801 725 801 L 795 801 795 740 L 795 679 511.472 679 L 227.943 679 228.390 707.750 M 820.005 784.750 L 820 826 749.500 826 L 679 826 679 854.500 L 679 883 794 883 L 909 883 909 854.500 L 909 826 883.942 826 L 858.884 826 859.067 784.750 L 859.250 743.500 839.630 743.500 L 820.010 743.500 820.005 784.750 M 164.885 808.250 C 164.821 816.087, 164.709 823.175, 164.635 824 C 164.521 825.265, 161.557 825.543, 145.750 825.772 L 127 826.044 127 854.522 L 127 883 244 883 L 361 883 361 854.500 L 361 826 282.500 826 L 204 826 204 810 L 204 794 184.500 794 L 165 794 164.885 808.250" stroke="none" fill="currentColor" fill-rule="evenodd"/>
	<path fill-opacity="0.058" d="M 485.500 115.562 C 447.651 121.673, 416.388 137.610, 389.499 164.499 C 374.737 179.260, 366.075 191.278, 357.061 209.500 C 344.291 235.314, 339.018 257.328, 339.006 284.872 C 338.983 336.653, 361.814 384.509, 402.500 417.961 C 457.001 462.773, 537.272 469.044, 599.194 433.328 C 610.971 426.534, 622.081 417.996, 633.322 407.097 C 679.928 361.914, 696.500 295.618, 676.841 233 C 672.803 220.139, 661.448 197.455, 653.613 186.601 C 627.662 150.648, 589.498 125.817, 546.500 116.912 C 533.178 114.153, 498.921 113.394, 485.500 115.562 M 328 553.974 L 328 616.711 338.250 618.799 C 343.887 619.947, 361.325 623.580, 377 626.873 C 409.976 633.798, 477.990 647.960, 495.500 651.547 C 502.100 652.899, 508.516 654.238, 509.758 654.523 L 512.015 655.042 511.758 592.282 L 511.500 529.523 446 515.806 C 409.975 508.262, 368.688 499.647, 354.250 496.662 L 328 491.236 328 553.974 M 229.201 738.750 C 229.312 771.612, 229.556 795.013, 229.743 790.750 C 229.931 786.487, 230.515 783, 231.042 783 C 231.569 783, 232 782.352, 232 781.559 C 232 779.244, 234.022 778.648, 235.415 780.553 C 236.120 781.517, 237.215 781.985, 237.848 781.594 C 239.653 780.479, 239.206 779.198, 236.750 778.443 C 233.916 777.572, 230.714 774.295, 231.951 773.531 C 232.462 773.214, 233.808 773.950, 234.940 775.166 C 236.073 776.382, 237 776.842, 237 776.189 C 237 775.535, 237.675 775, 238.500 775 C 240.200 775, 240.511 773.434, 238.997 772.498 C 238.417 772.140, 238.340 771.166, 238.814 770.189 C 239.540 768.690, 239.594 767.855, 239.125 765.326 C 239.056 764.955, 237.988 765.582, 236.750 766.718 C 235.049 768.281, 233.951 768.575, 232.250 767.925 C 231.012 767.452, 230.007 766.712, 230.015 766.282 C 230.039 765.056, 231.964 762.380, 232.016 763.500 C 232.042 764.050, 232.694 763.667, 233.465 762.650 C 234.267 761.592, 235.379 761.116, 236.062 761.538 C 236.929 762.074, 236.804 762.530, 235.607 763.200 C 234.700 763.708, 234.207 764.526, 234.511 765.018 C 235.363 766.397, 237.744 765.088, 238.308 762.929 C 238.589 761.855, 238.393 761.257, 237.867 761.582 C 237.311 761.926, 237.149 760.997, 237.475 759.334 C 237.881 757.262, 237.804 757.020, 237.188 758.434 C 236.646 759.677, 236.099 759.970, 235.656 759.253 C 235.277 758.640, 233.850 758.341, 232.484 758.589 C 229.566 759.118, 229.555 759.081, 231.496 755.364 C 232.850 752.772, 232.832 752.381, 231.305 751.250 C 229.723 750.078, 229.723 750, 231.309 750 C 233.397 750, 233.445 749.302, 231.491 747.348 C 229.813 745.670, 230.346 744, 232.559 744 C 233.352 744, 234.007 744.788, 234.015 745.750 C 234.028 747.202, 234.187 747.252, 234.949 746.048 C 236.269 743.961, 235.142 742.740, 232.383 743.267 C 230.417 743.643, 230 743.310, 230 741.361 C 230 740.063, 230.502 739, 231.117 739 C 231.816 739, 231.971 738.160, 231.530 736.750 C 230.130 732.268, 231.199 728.086, 233 731 C 233.490 731.793, 234.186 732.148, 234.546 731.788 C 235.733 730.600, 233.811 728.816, 231.887 729.319 C 230.713 729.626, 230 729.293, 230 728.438 C 230 727.626, 230.615 727.299, 231.500 727.638 C 232.541 728.038, 233 727.569, 233 726.107 C 233 724.513, 233.623 724, 235.559 724 C 237.010 724, 237.851 723.567, 237.500 723 C 237.160 722.450, 237.344 722, 237.910 722 C 238.475 722, 238.695 721.212, 238.400 720.250 C 238.104 719.288, 238.528 719.619, 239.343 720.987 C 240.158 722.356, 240.612 723.818, 240.353 724.237 C 240.094 724.657, 240.310 725, 240.834 725 C 241.358 725, 242.054 724.302, 242.382 723.448 C 242.723 722.558, 242.555 722.157, 241.989 722.507 C 241.445 722.843, 241 722.641, 241 722.059 C 241 721.477, 241.354 721, 241.787 721 C 242.220 721, 242.672 719.538, 242.792 717.750 C 242.956 715.308, 242.764 714.873, 242.020 716 C 241.241 717.180, 241.027 716.921, 241.015 714.781 C 241.004 712.779, 240.605 712.214, 239.500 712.638 C 238.480 713.030, 238 712.584, 238 711.245 C 238 709.738, 238.587 709.339, 240.496 709.549 C 241.868 709.700, 243.288 709.343, 243.650 708.757 C 244.039 708.128, 243.836 707.984, 243.155 708.405 C 242.457 708.836, 241.940 708.402, 241.848 707.309 C 241.764 706.314, 241.646 704.969, 241.585 704.321 C 241.410 702.456, 240.351 701.843, 240.167 703.500 C 240.075 704.325, 239.925 705.652, 239.833 706.449 C 239.711 707.514, 238.850 707.210, 236.583 705.303 C 233.442 702.660, 232.491 700.298, 234.750 700.750 C 235.528 700.906, 236 699.867, 236 698 C 236 695.910, 235.512 695, 234.392 695 C 233.175 695, 232.936 695.609, 233.411 697.500 C 233.925 699.548, 233.673 700, 232.019 700 C 229.709 700, 229.447 698.996, 231.250 697.053 C 232.250 695.976, 232.250 695.848, 231.250 696.412 C 230.305 696.946, 230 695.516, 230 690.559 C 230 683.950, 230.485 683.213, 234.373 683.922 C 234.853 684.010, 234.994 683.426, 234.686 682.624 C 234.372 681.805, 234.838 680.892, 235.749 680.543 C 238.571 679.460, 360.376 680.132, 361.750 681.238 C 362.602 681.925, 363 681.895, 363 681.147 C 363 680.390, 363.774 680.344, 365.500 681 C 367.062 681.594, 368 681.596, 368 681.007 C 368 680.419, 445.802 680.053, 574.574 680.035 C 756.233 680.009, 781.328 680.186, 782.638 681.495 C 783.498 682.355, 783.795 683.516, 783.342 684.242 C 781.409 687.336, 782.073 688.209, 785.824 687.508 C 787.846 687.131, 789.184 687.140, 788.798 687.530 C 787.754 688.582, 790.836 691.277, 792.397 690.678 C 793.422 690.284, 793.774 691.569, 793.876 696.081 C 793.950 699.336, 793.742 702, 793.415 702 C 793.088 702, 792.003 700.991, 791.004 699.757 C 788.919 697.182, 785.816 696.803, 784.820 699 C 784.330 700.082, 784.121 699.874, 784.070 698.250 C 784.032 697.013, 783.523 696, 782.941 696 C 782.359 696, 782.161 695.549, 782.502 694.997 C 782.872 694.398, 782.191 694.167, 780.811 694.423 C 779.540 694.658, 778.177 694.885, 777.781 694.926 C 777.386 694.967, 777.315 695.657, 777.623 696.460 C 778.027 697.513, 777.606 697.809, 776.113 697.522 C 774.974 697.302, 773.723 697.639, 773.334 698.269 C 772.220 700.071, 772.038 704, 773.068 704 C 775.224 704, 775.485 703.794, 775.182 702.328 C 775.003 701.463, 775.403 700.968, 776.094 701.198 C 776.771 701.424, 777.443 702.413, 777.588 703.396 C 777.732 704.379, 777.587 704.920, 777.265 704.598 C 776.621 703.955, 773.389 708.107, 773.724 709.147 C 773.838 709.504, 773.038 709.561, 771.945 709.275 C 770.563 708.914, 770.253 708.400, 770.928 707.587 C 771.606 706.770, 771.336 706.376, 770.030 706.277 C 769.002 706.200, 767.905 706.804, 767.592 707.620 C 767.279 708.436, 767.437 708.848, 767.943 708.535 C 768.449 708.222, 769.497 708.871, 770.271 709.977 C 771.046 711.083, 771.977 711.690, 772.340 711.327 C 772.703 710.964, 773 710.999, 773 711.405 C 773 711.811, 772.238 712.898, 771.306 713.821 C 769.720 715.393, 769.653 715.391, 770.262 713.782 C 770.620 712.837, 770.370 711.729, 769.708 711.319 C 767.958 710.238, 764.618 710.340, 763.765 711.500 C 762.372 713.396, 763.006 714.067, 765.121 712.935 C 766.363 712.271, 766.982 712.221, 766.614 712.815 C 766.270 713.373, 766.553 714.093, 767.244 714.415 C 768.252 714.884, 768.252 715.116, 767.244 715.585 C 766.553 715.907, 766.242 716.582, 766.553 717.085 C 766.864 717.588, 766.611 718, 765.992 718 C 765.299 718, 765.124 717.184, 765.538 715.882 C 766.027 714.341, 765.840 713.898, 764.855 714.257 C 764.110 714.528, 763.624 715.290, 763.775 715.949 C 763.926 716.609, 763.598 716.869, 763.045 716.528 C 762.493 716.187, 761.179 716.369, 760.126 716.933 C 758.727 717.681, 757.914 717.601, 757.114 716.637 C 756.511 715.910, 756.313 715.020, 756.675 714.658 C 757.037 714.296, 756.782 714, 756.108 714 C 755.434 714, 755.160 713.550, 755.500 713 C 755.840 712.450, 755.641 712, 755.059 712 C 754.477 712, 754 711.325, 754 710.500 C 754 709.675, 753.587 709, 753.082 709 C 752.577 709, 751.339 708.720, 750.332 708.377 C 748.978 707.917, 749.092 708.196, 750.767 709.445 C 752.013 710.376, 752.774 711.556, 752.458 712.068 C 751.653 713.370, 749 713.236, 749 711.893 C 749 711.269, 749.764 711.057, 750.750 711.406 C 752.080 711.878, 751.990 711.604, 750.374 710.263 C 749.205 709.293, 748.335 707.584, 748.441 706.464 C 748.571 705.093, 748.041 704.429, 746.817 704.429 C 744.825 704.429, 744.531 705.089, 745.871 706.550 C 746.350 707.073, 747.033 708.737, 747.390 710.250 C 748.133 713.404, 748.822 713.270, 731.750 713.273 C 726.388 713.274, 722 713.573, 722 713.937 C 722 714.302, 722.515 715.115, 723.144 715.744 C 724.003 716.603, 723.753 716.748, 722.144 716.327 C 720.965 716.019, 720 715.171, 720 714.442 C 720 712.114, 718.327 711.981, 715.879 714.116 C 713.788 715.938, 713.734 716.148, 715.434 715.845 C 716.810 715.599, 717.543 716.220, 717.980 718 C 718.522 720.215, 718.674 720.288, 719.308 718.637 C 719.871 717.172, 720.322 717.022, 721.422 717.935 C 722.512 718.840, 723.114 718.700, 724.160 717.298 C 725.867 715.008, 732.211 714.772, 733.180 716.963 C 733.750 718.252, 733.871 718.218, 733.930 716.750 C 734.011 714.728, 735.100 714.500, 736.758 716.158 C 737.634 717.034, 738.289 717.005, 739.458 716.035 C 740.712 714.994, 741 714.996, 741 716.049 C 741 716.760, 741.745 718.165, 742.655 719.171 C 744.212 720.892, 744.176 721, 742.048 721 C 740.320 721, 739.942 721.406, 740.446 722.720 C 740.809 723.665, 740.798 724.131, 740.421 723.755 C 740.045 723.378, 738.830 723.556, 737.722 724.149 C 735.952 725.096, 735.774 724.971, 736.260 723.113 C 736.629 721.702, 736.346 721, 735.406 721 C 734.633 721, 734 720.464, 734 719.809 C 734 719.154, 733.385 719.459, 732.633 720.487 C 731.318 722.285, 731.167 722.258, 728.698 719.789 C 726.591 717.682, 726.024 717.496, 725.541 718.753 C 725.218 719.596, 725.189 720.522, 725.476 720.810 C 725.764 721.098, 726 720.776, 726 720.095 C 726 719.228, 726.449 719.306, 727.500 720.357 C 728.325 721.182, 729 722.056, 729 722.298 C 729 723.315, 724.433 722.395, 723.689 721.229 C 723.242 720.530, 722.342 720.290, 721.689 720.695 C 720.051 721.712, 715.629 721.731, 714.910 720.725 C 714.586 720.271, 713.379 719.829, 712.229 719.742 C 711.079 719.656, 710.359 719.228, 710.628 718.792 C 711.701 717.057, 709.442 718.153, 706.593 720.750 C 704.934 722.263, 704.177 722.712, 704.911 721.750 C 705.871 720.490, 705.914 720, 705.063 720 C 704.384 720, 704.201 719.468, 704.633 718.750 C 705.184 717.833, 704.952 717.850, 703.762 718.814 C 702.870 719.537, 702.310 721.012, 702.518 722.091 C 702.725 723.170, 702.509 723.815, 702.037 723.523 C 701.122 722.957, 701.220 720.447, 702.196 719.471 C 702.518 719.148, 702.544 717.972, 702.253 716.858 C 701.918 715.580, 701.464 715.249, 701.024 715.961 C 700.640 716.583, 698.452 717.196, 696.163 717.324 C 693.004 717.501, 691.992 717.188, 691.968 716.028 C 691.943 714.836, 691.614 714.926, 690.468 716.441 C 689.661 717.509, 689 718.055, 689 717.656 C 689 717.256, 688.087 717.418, 686.972 718.015 C 685.857 718.612, 685.251 719.597, 685.627 720.205 C 686.002 720.812, 685.897 721.054, 685.393 720.743 C 684.890 720.432, 683.609 720.812, 682.548 721.589 C 681.123 722.630, 681.005 723, 682.096 723 C 682.909 723, 683.646 723.953, 683.734 725.118 C 683.880 727.062, 683.789 727.094, 682.632 725.512 C 681.688 724.220, 680.429 723.914, 677.620 724.292 C 672.657 724.961, 672.269 725.550, 675.949 726.832 C 679.992 728.242, 679.876 729.112, 675.801 727.943 C 673.499 727.283, 672.378 727.372, 671.801 728.263 C 671.185 729.214, 670.773 729.153, 670.015 728 C 669.357 726.997, 669.026 726.914, 669.015 727.750 C 669.007 728.438, 668.212 729.014, 667.250 729.032 C 665.650 729.061, 665.663 729.187, 667.401 730.502 C 669.530 732.114, 671.385 732.014, 674.871 730.101 C 676.296 729.319, 676.970 729.239, 676.562 729.900 C 675.967 730.862, 677.122 731.419, 679.154 731.150 C 679.514 731.103, 680.356 731.725, 681.027 732.532 C 682.033 733.744, 681.875 734, 680.122 734 C 678.955 734, 678 733.534, 678 732.965 C 678 731.793, 673.925 733.646, 672.841 735.312 C 672.432 735.940, 671.551 735.694, 670.519 734.662 C 668.713 732.856, 667.535 732.438, 668.457 733.931 C 668.774 734.443, 668.568 735.149, 668 735.500 C 667.432 735.851, 667.197 736.510, 667.478 736.964 C 668.750 739.022, 664.876 738.626, 662.332 736.438 C 660.775 735.099, 659.076 734.002, 658.559 734.001 C 658.041 734.001, 658.419 734.586, 659.399 735.303 C 660.995 736.470, 661.020 736.739, 659.634 737.889 C 658.784 738.595, 657.618 738.882, 657.044 738.527 C 656.467 738.171, 655.993 738.691, 655.985 739.691 C 655.973 741.063, 655.765 741.178, 655.124 740.166 C 654.435 739.079, 654.173 739.107, 653.708 740.318 C 652.702 742.939, 654.158 742.981, 657.505 740.428 C 660.062 738.478, 660.880 738.246, 661.304 739.349 C 661.647 740.244, 662.928 740.630, 664.825 740.409 C 668.821 739.943, 670.703 742.162, 669.168 745.530 C 667.886 748.344, 666.487 748.712, 665.624 746.462 C 665.288 745.587, 665.673 744.679, 666.517 744.355 C 668.445 743.615, 668.433 742, 666.500 742 C 665.675 742, 665 742.436, 665 742.969 C 665 743.501, 664.212 743.684, 663.250 743.374 C 661.952 742.957, 661.842 743.056, 662.824 743.760 C 663.922 744.548, 663.922 744.951, 662.824 746.128 C 660.553 748.562, 661.043 749.500, 664.583 749.500 C 666.463 749.500, 668 749.130, 668 748.679 C 668 748.227, 668.675 748.532, 669.500 749.357 C 671.197 751.054, 671.514 754, 670 754 C 669.450 754, 668.775 754, 668.500 754 C 667.609 754, 664 757.971, 664 758.952 C 664 759.476, 665.191 758.801, 666.646 757.452 C 669.473 754.832, 671 754.344, 671 756.059 C 671 756.641, 670.597 756.869, 670.105 756.565 C 669.612 756.260, 668.914 756.783, 668.552 757.725 C 668.190 758.668, 668.214 759.119, 668.605 758.728 C 668.996 758.337, 670.006 758.576, 670.850 759.259 C 672.107 760.276, 672.231 760.246, 671.537 759.095 C 670.952 758.125, 671.060 757.919, 671.886 758.430 C 672.544 758.836, 672.809 760.028, 672.475 761.078 C 671.997 762.584, 672.235 762.847, 673.599 762.324 C 674.754 761.880, 675.094 762.039, 674.623 762.801 C 674.189 763.503, 674.915 764.192, 676.509 764.592 C 679.172 765.260, 679.651 767.951, 677.249 768.751 C 676.483 769.006, 676.219 768.593, 676.567 767.685 C 676.880 766.869, 676.625 765.887, 676.001 765.501 C 675.341 765.093, 674.656 765.601, 674.364 766.715 C 673.921 768.411, 672.987 768.613, 666.248 768.470 C 661.658 768.373, 657.642 768.823, 656.138 769.603 C 654.766 770.315, 653.204 770.626, 652.667 770.294 C 652.126 769.960, 652.009 770.205, 652.405 770.845 C 652.862 771.586, 652.320 772, 650.892 772 C 648.260 772, 648.837 772.891, 651.844 773.470 C 653.007 773.694, 653.856 773.399, 653.730 772.814 C 653.603 772.229, 654.063 771.544, 654.750 771.292 C 655.438 771.040, 656 771.347, 656 771.976 C 656 772.604, 656.450 772.840, 657 772.500 C 657.550 772.160, 658 772.344, 658 772.909 C 658 773.474, 656.763 774.607, 655.250 775.428 C 653.737 776.249, 653.137 776.938, 653.917 776.960 C 654.696 776.982, 655.028 777.305, 654.655 777.679 C 653.443 778.890, 662.951 783.732, 665.561 783.233 C 667.270 782.906, 668 783.216, 668 784.267 C 668 786.191, 666.145 786.583, 657.252 786.537 C 653.266 786.517, 650.003 786.788, 650.002 787.139 C 650.001 787.490, 651.913 788.700, 654.250 789.826 L 658.500 791.875 654.559 791.276 C 651.033 790.739, 650.770 790.839, 652.059 792.228 C 653.087 793.334, 653.711 793.452, 654.235 792.639 C 654.639 792.013, 654.976 792.936, 654.985 794.691 C 654.993 796.446, 654.543 798.165, 653.984 798.510 C 653.425 798.856, 653.226 799.557, 653.543 800.069 C 653.889 800.629, 681.385 801, 722.528 801 C 780.066 801, 790.854 800.782, 790.411 799.629 C 790.122 798.875, 790.673 797.470, 791.636 796.506 C 793.305 794.838, 793.423 794.844, 794.124 796.627 C 794.528 797.657, 794.891 771.612, 794.930 738.750 L 795 679 512 679 L 229 679 229.201 738.750 M 239.574 687.667 C 239.222 688.584, 239.399 689.799, 239.967 690.367 C 240.678 691.078, 241 690.557, 241 688.700 C 241 685.615, 240.501 685.253, 239.574 687.667 M 237.002 687.500 C 236.917 688.050, 236.702 689.247, 236.525 690.160 C 236.339 691.121, 236.995 692.027, 238.084 692.312 C 239.570 692.700, 239.787 692.456, 239.118 691.152 C 238.652 690.243, 238.020 688.825, 237.714 688 C 237.408 687.175, 237.088 686.950, 237.002 687.500 M 730.756 689.664 C 731.447 689.943, 731.715 690.652, 731.352 691.240 C 730.961 691.872, 731.163 692.017, 731.845 691.595 C 732.480 691.203, 733 691.434, 733 692.108 C 733 692.782, 733.236 693.098, 733.524 692.810 C 734.542 691.791, 732.762 689.001, 731.143 689.079 C 730.096 689.129, 729.956 689.342, 730.756 689.664 M 741.015 689.750 C 741.024 690.163, 741.467 691.175, 742 692 C 742.704 693.090, 742.974 693.142, 742.985 692.191 C 742.993 691.471, 743.445 691.157, 743.989 691.493 C 744.555 691.843, 744.723 691.442, 744.382 690.552 C 743.786 689, 740.986 688.333, 741.015 689.750 M 770.500 690 C 769.400 690.473, 769.089 690.891, 769.809 690.930 C 770.529 690.968, 770.835 691.457, 770.490 692.016 C 770.144 692.575, 769.443 692.774, 768.931 692.457 C 768.419 692.141, 768 692.343, 768 692.906 C 768 694.626, 764.034 696.273, 762.652 695.126 C 760.884 693.659, 757.707 694.390, 757.422 696.330 C 757.232 697.622, 757.716 697.858, 759.589 697.388 C 761.159 696.994, 762 697.213, 762 698.014 C 762 698.982, 762.320 698.979, 763.500 698 C 764.699 697.005, 765.311 697.013, 766.547 698.039 C 767.431 698.773, 767.682 699.578, 767.133 699.918 C 766.567 700.268, 766.809 701.335, 767.720 702.506 C 768.949 704.088, 769.146 704.142, 768.672 702.766 C 768.344 701.812, 768.710 699.787, 769.486 698.266 C 770.983 695.333, 772.229 691.758, 771.979 691.112 C 771.897 690.898, 772.430 690.343, 773.165 689.877 C 774.872 688.795, 773.115 688.876, 770.500 690 M 786.469 691.050 C 785.646 692.382, 789.090 695.067, 790.489 694.185 C 791.045 693.834, 790.707 693.390, 789.738 693.198 C 788.769 693.006, 788.213 692.464, 788.504 691.993 C 788.795 691.523, 788.606 690.875, 788.085 690.553 C 787.564 690.231, 786.837 690.455, 786.469 691.050 M 717.500 692.727 C 718.600 693, 719.865 693.857, 720.311 694.633 C 721.345 696.427, 723.100 695.424, 722.349 693.468 C 722.004 692.569, 720.569 692.045, 718.643 692.116 C 716.507 692.195, 716.141 692.391, 717.500 692.727 M 241.250 694.698 C 238.912 695.506, 237 696.790, 237 697.552 C 237 698.369, 237.612 698.702, 238.492 698.365 C 239.342 698.039, 240.247 698.479, 240.596 699.391 C 240.934 700.269, 241.639 700.723, 242.165 700.398 C 242.690 700.074, 242.350 699.245, 241.408 698.557 C 240.209 697.680, 240.042 697.092, 240.849 696.594 C 241.482 696.202, 242 696.378, 242 696.985 C 242 697.591, 242.787 697.955, 243.750 697.794 C 244.915 697.598, 245.606 698.246, 245.817 699.733 C 246.056 701.416, 246.735 701.917, 248.567 701.765 C 251.044 701.560, 251.730 700.569, 250.094 699.558 C 249.596 699.250, 249.439 698.038, 249.746 696.865 C 250.148 695.328, 249.912 694.864, 248.902 695.204 C 248.131 695.463, 247.050 695.125, 246.500 694.453 C 245.716 693.495, 244.580 693.548, 241.250 694.698 M 262.258 694.811 C 262.912 695.599, 263.574 695.777, 263.761 695.216 C 263.945 694.664, 264.974 694.442, 266.048 694.723 C 267.147 695.010, 268 694.732, 268 694.085 C 268 693.398, 266.614 693.031, 264.545 693.170 C 261.698 693.362, 261.295 693.651, 262.258 694.811 M 738.250 696.055 C 737.013 697.574, 736.032 699.420, 736.070 700.158 C 736.109 700.896, 736.527 700.600, 737 699.500 C 737.473 698.400, 737.891 698.026, 737.930 698.668 C 737.968 699.311, 738.301 700.622, 738.670 701.582 C 739.179 702.908, 738.999 703.122, 737.920 702.472 C 736.744 701.763, 736.718 701.885, 737.767 703.181 C 738.464 704.042, 738.754 705.479, 738.410 706.373 C 738.067 707.268, 738.236 708, 738.786 708 C 740.400 708, 741.019 705.181, 739.997 702.491 C 739.476 701.121, 739.318 700, 739.647 700 C 739.976 700, 739.627 699.241, 738.872 698.313 C 737.671 696.835, 737.718 696.707, 739.250 697.281 C 740.212 697.642, 741 697.564, 741 697.107 C 741 696.053, 745.844 696.939, 746.579 698.128 C 746.881 698.617, 746.087 699.420, 744.814 699.913 C 742.691 700.736, 742.761 700.805, 745.661 700.755 C 748.062 700.714, 748.683 700.336, 748.241 699.186 C 747.862 698.198, 748.067 697.923, 748.830 698.395 C 749.474 698.793, 750 698.673, 750 698.129 C 750 697.504, 751.111 697.458, 753.019 698.006 C 754.871 698.537, 755.815 698.510, 755.460 697.936 C 755.142 697.421, 755.385 697, 756 697 C 756.615 697, 756.826 696.528, 756.470 695.951 C 756.027 695.235, 755.376 695.273, 754.411 696.074 C 753.441 696.879, 753 696.904, 753 696.154 C 753 695.547, 752.261 695.346, 751.336 695.701 C 750.153 696.155, 749.900 695.971, 750.461 695.063 C 751.028 694.145, 750.723 693.946, 749.375 694.354 C 744.873 695.717, 741.984 695.797, 741.261 694.579 C 740.702 693.635, 739.902 694.028, 738.250 696.055 M 289.015 695.250 C 289.005 696.426, 289.738 696.974, 291.250 696.921 C 292.753 696.868, 293.002 696.653, 292 696.271 C 291.175 695.957, 290.169 695.205, 289.765 694.600 C 289.312 693.922, 289.025 694.171, 289.015 695.250 M 297 694.906 C 297 696.178, 297.818 696.619, 301.750 697.462 C 304.212 697.990, 305 697.816, 305 696.747 C 305 695.891, 304.114 695.411, 302.750 695.530 C 301.512 695.638, 299.712 695.322, 298.750 694.828 C 297.665 694.271, 297 694.301, 297 694.906 M 664.750 694.721 C 663.237 694.948, 662 695.523, 662 696 C 662 696.477, 660.763 696.647, 659.250 696.378 C 656.770 695.936, 656.676 696.018, 658.295 697.213 C 659.282 697.942, 660.160 699.467, 660.245 700.603 C 660.418 702.901, 662.629 703.409, 663.426 701.333 C 663.707 700.600, 663.324 700, 662.576 700 C 661.827 700, 660.931 699.261, 660.584 698.359 C 660.074 697.030, 660.226 696.943, 661.380 697.900 C 662.469 698.804, 662.898 698.806, 663.197 697.909 C 663.440 697.180, 664.430 697.002, 665.809 697.439 C 667.190 697.878, 667.746 698.589, 667.280 699.322 C 666.868 699.970, 666.521 701.400, 666.510 702.500 C 666.495 703.936, 665.856 704.466, 664.245 704.380 C 663.010 704.314, 662 704.624, 662 705.068 C 662 705.512, 662.788 705.873, 663.750 705.871 C 664.712 705.868, 666.850 706.073, 668.500 706.326 C 670.150 706.579, 671.793 706.317, 672.152 705.743 C 672.562 705.087, 673.820 705.500, 675.543 706.855 C 678.744 709.373, 681.502 708.156, 680.407 704.708 C 679.883 703.055, 680.101 702.824, 681.635 703.408 C 683.057 703.950, 683.224 703.840, 682.337 702.946 C 680.742 701.338, 678.787 702.754, 679.500 705.001 C 679.951 706.422, 679.661 706.724, 678.213 706.346 C 676.362 705.861, 675.938 703.527, 677.302 701.321 C 677.690 700.692, 676.228 701.038, 674.052 702.089 C 668.978 704.540, 668.477 704.498, 668.237 701.591 C 668.015 698.905, 670.412 698.587, 672.174 701.070 C 672.940 702.150, 673.011 702.010, 672.461 700.500 C 672.060 699.400, 671.765 697.712, 671.804 696.750 C 671.844 695.788, 671.490 695, 671.020 695 C 670.549 695, 669.564 694.845, 668.832 694.655 C 668.099 694.465, 666.263 694.495, 664.750 694.721 M 673.923 694.250 C 672.832 697.818, 674.004 702.421, 675.421 700.128 C 675.804 699.508, 675.641 699, 675.059 699 C 674.477 699, 674 698.565, 674 698.032 C 674 697.476, 676.803 697.195, 680.601 697.372 C 686.375 697.640, 686.909 697.521, 684.858 696.424 C 683.087 695.476, 682.332 695.454, 681.772 696.335 C 681.241 697.169, 681.026 697.114, 681.015 696.143 C 681.007 695.363, 680.376 695.026, 679.532 695.349 C 678.725 695.659, 677.798 695.482, 677.473 694.956 C 676.959 694.125, 674.134 693.562, 673.923 694.250 M 601.243 697.512 C 602.591 698.983, 603.256 699.144, 604.176 698.224 C 604.831 697.569, 604.998 696.688, 604.546 696.267 C 604.095 695.845, 603.519 696.081, 603.266 696.792 C 602.898 697.824, 602.473 697.835, 601.153 696.847 C 599.791 695.828, 599.807 695.945, 601.243 697.512 M 690.537 696.939 C 690.218 697.456, 690.866 697.810, 691.978 697.727 C 693.090 697.643, 694 697.220, 694 696.787 C 694 695.681, 691.240 695.803, 690.537 696.939 M 609.015 697.750 C 609.052 699.528, 610.762 701.194, 611.434 700.107 C 611.810 699.498, 611.529 698.993, 610.809 698.985 C 609.858 698.974, 609.910 698.704, 611 698 C 612.282 697.172, 612.246 697.028, 610.750 697.015 C 609.788 697.007, 609.007 697.337, 609.015 697.750 M 292.079 700.750 C 292.025 702.970, 291.514 704, 290.466 704 C 289.427 704, 289.923 704.970, 292 707 C 293.688 708.650, 295.616 709.993, 296.284 709.985 C 297.196 709.973, 297.182 709.768, 296.231 709.164 C 295.305 708.576, 295.617 708.008, 297.386 707.061 C 299.790 705.774, 302 706.252, 302 708.059 C 302 708.577, 301.100 709, 300 709 C 298.900 709, 298 709.372, 298 709.827 C 298 710.282, 299.377 710.452, 301.060 710.204 C 303.082 709.908, 303.947 709.305, 303.611 708.429 C 303.331 707.699, 303.938 706.837, 304.959 706.513 C 305.980 706.189, 307.068 705.266, 307.376 704.462 C 308.055 702.693, 306.851 702.549, 305.200 704.200 C 304.267 705.133, 304 705.089, 304 704 C 304 702.911, 303.733 702.867, 302.800 703.800 C 301.399 705.201, 295.606 705.446, 296.457 704.069 C 296.774 703.557, 296.575 702.856, 296.016 702.510 C 295.457 702.165, 295 702.674, 295 703.641 C 295 704.913, 294.698 705.098, 293.907 704.307 C 293.117 703.517, 293.145 702.598, 294.007 700.987 C 294.663 699.761, 294.743 699.041, 294.185 699.386 C 293.627 699.730, 292.943 699.447, 292.664 698.756 C 292.386 698.065, 292.122 698.962, 292.079 700.750 M 591.739 699.400 C 590.083 700.657, 590.079 700.819, 591.681 702.118 C 592.637 702.894, 593.073 702.982, 592.676 702.319 C 592.286 701.670, 592.394 700.875, 592.915 700.553 C 593.436 700.231, 594.132 700.405, 594.463 700.940 C 594.794 701.475, 595.730 701.657, 596.545 701.344 C 597.359 701.032, 598.597 701.251, 599.296 701.831 C 600.006 702.420, 601.152 702.524, 601.890 702.068 C 602.817 701.495, 602.882 701.045, 602.107 700.566 C 601.498 700.190, 600.586 700.138, 600.081 700.450 C 599.575 700.763, 598.482 700.339, 597.652 699.509 C 595.811 697.668, 594.063 697.636, 591.739 699.400 M 730 698.972 C 730 700.464, 733.066 702.334, 733.992 701.408 C 734.536 700.864, 733.917 700.036, 732.450 699.344 C 731.102 698.708, 730 698.541, 730 698.972 M 778.564 698.769 C 778.324 699.009, 778.567 700.362, 779.105 701.775 C 780.199 704.654, 779.548 707.457, 778.007 706.504 C 777.453 706.162, 777 706.569, 777 707.410 C 777 709.691, 779.936 708.184, 780.448 705.640 C 781.632 699.759, 781.608 698.333, 780.329 698.333 C 779.598 698.333, 778.804 698.530, 778.564 698.769 M 284 700.607 C 284 701.625, 283.450 702.003, 282.500 701.638 C 281.138 701.116, 280.870 701.510, 281.066 703.750 C 281.102 704.163, 281.822 704.357, 282.666 704.183 C 283.510 704.009, 283.950 704.271, 283.644 704.766 C 283.338 705.262, 283.736 705.667, 284.528 705.667 C 285.579 705.667, 285.683 705.323, 284.915 704.397 C 284.175 703.506, 284.190 702.514, 284.966 701.064 C 285.703 699.686, 285.726 699, 285.035 699 C 284.466 699, 284 699.723, 284 700.607 M 654.035 699.500 C 654.146 700.050, 654.150 700.725, 654.044 701 C 653.135 703.360, 653.251 705.763, 654.274 705.727 C 657.403 705.619, 658.667 706.113, 658.667 707.444 C 658.667 708.239, 658.404 708.861, 658.083 708.826 C 655.812 708.581, 652.786 709.119, 653.336 709.670 C 654.683 711.016, 664.942 710.775, 666.109 709.369 C 667.458 707.743, 667.408 707.736, 663.224 708.936 C 661.179 709.522, 660.179 709.519, 660.545 708.927 C 661.551 707.300, 659.922 703.816, 658.425 704.390 C 657.231 704.848, 654.164 701.158, 654.914 700.167 C 655.053 699.983, 654.867 699.533, 654.500 699.167 C 654.133 698.800, 653.924 698.950, 654.035 699.500 M 750.015 699.750 C 750.024 700.163, 750.450 701.163, 750.963 701.974 C 751.576 702.943, 751.485 703.745, 750.697 704.318 C 749.938 704.870, 750.231 704.970, 751.500 704.592 C 753.399 704.025, 753.409 704.066, 751.687 705.404 C 749.998 706.716, 750.089 706.861, 753.008 707.502 C 754.732 707.880, 755.899 708.434, 755.601 708.732 C 755.303 709.030, 755.949 710.524, 757.037 712.051 C 758.419 713.993, 758.651 714.950, 757.806 715.231 C 756.868 715.544, 756.866 715.799, 757.799 716.376 C 758.460 716.784, 759 716.641, 759 716.059 C 759 715.477, 760.013 714.984, 761.250 714.965 L 763.500 714.929 761.115 713.607 C 759.575 712.753, 759.132 712.036, 759.865 711.583 C 760.489 711.198, 761 711.449, 761 712.141 C 761 713.081, 761.288 713.112, 762.136 712.264 C 763.796 710.604, 761.282 708.463, 756.652 707.594 C 753.491 707.001, 753.054 706.640, 754.049 705.441 C 754.962 704.341, 754.965 704, 754.063 704 C 753.414 704, 753.203 703.480, 753.595 702.845 C 754.038 702.130, 753.870 701.962, 753.155 702.405 C 752.124 703.042, 751.551 701.847, 751.882 699.750 C 751.947 699.337, 751.550 699, 751 699 C 750.450 699, 750.007 699.337, 750.015 699.750 M 613.204 701.254 C 612.188 702.478, 612.350 702.709, 614.158 702.614 C 615.355 702.551, 616.518 701.825, 616.743 701 C 617.076 699.780, 616.974 699.755, 616.197 700.863 C 615.479 701.888, 615.141 701.923, 614.834 701.003 C 614.535 700.105, 614.103 700.171, 613.204 701.254 M 621.647 701.523 C 622.161 702.862, 621.998 703.117, 621.015 702.510 C 620.134 701.965, 619.930 702.077, 620.405 702.845 C 621.238 704.194, 624 704.407, 624 703.122 C 624 702.640, 623.315 701.676, 622.477 700.981 C 621.190 699.913, 621.061 699.996, 621.647 701.523 M 271.600 702.600 C 271.244 703.527, 271.189 704.522, 271.476 704.810 C 271.764 705.098, 272 704.822, 272 704.198 C 272 703.569, 272.780 703.314, 273.750 703.626 C 274.782 703.958, 275.090 703.837, 274.500 703.333 C 273.950 702.862, 273.218 702.125, 272.874 701.695 C 272.529 701.265, 271.956 701.673, 271.600 702.600 M 787.269 702.922 C 787.358 704.108, 788.101 704.793, 789.207 704.709 C 791.423 704.543, 791.567 702.431, 789.418 701.607 C 787.174 700.746, 787.108 700.786, 787.269 702.922 M 364 702.378 C 364 702.585, 364.675 703.315, 365.500 704 C 366.729 705.020, 367 704.951, 367 703.622 C 367 702.730, 366.325 702, 365.500 702 C 364.675 702, 364 702.170, 364 702.378 M 594 704.481 C 594 705.199, 594.788 706.117, 595.750 706.522 C 598.059 707.492, 601.958 707.741, 601.429 706.884 C 601.199 706.513, 601.759 705.923, 602.673 705.572 C 603.920 705.094, 604.049 704.649, 603.191 703.791 C 602.333 702.933, 601.568 703.081, 600.127 704.385 C 598.757 705.625, 598.091 705.772, 597.800 704.899 C 597.240 703.220, 594 702.865, 594 704.481 M 761.229 704.104 C 761.623 705.892, 764.374 708.750, 765.250 708.282 C 766.541 707.593, 766.024 706.564, 763.448 704.688 C 761.939 703.589, 761.065 703.359, 761.229 704.104 M 242.531 704.950 C 242.208 705.472, 242.760 706.336, 243.758 706.870 C 245.217 707.651, 245.571 707.465, 245.571 705.921 C 245.571 703.929, 243.559 703.286, 242.531 704.950 M 374.762 704.707 C 376.006 704.946, 377.806 704.937, 378.762 704.687 C 379.718 704.437, 378.700 704.241, 376.500 704.252 C 374.300 704.263, 373.518 704.468, 374.762 704.707 M 589 705.746 C 587.075 706.613, 585.105 707.362, 584.622 707.411 C 584.139 707.460, 583.024 708.584, 582.144 709.909 C 580.799 711.936, 580.779 712.234, 582.022 711.784 C 582.835 711.490, 583.381 710.724, 583.236 710.082 C 583.042 709.228, 583.497 709.196, 584.927 709.961 C 586.511 710.809, 587.177 710.585, 588.441 708.781 C 589.298 707.557, 590 706.912, 590 707.349 C 590 707.786, 590.729 707.414, 591.619 706.524 C 593.940 704.203, 593.026 703.932, 589 705.746 M 725 705.059 C 725 705.641, 724.581 705.859, 724.069 705.543 C 723.557 705.226, 722.856 705.425, 722.510 705.984 C 722.162 706.546, 722.801 707, 723.941 707 C 725.105 707, 726 706.348, 726 705.500 C 726 704.675, 725.775 704, 725.500 704 C 725.225 704, 725 704.477, 725 705.059 M 730.490 705.016 C 730.144 705.575, 729.410 705.753, 728.857 705.412 C 728.024 704.897, 728.479 705.987, 730.726 709.893 C 730.850 710.108, 731.648 709.707, 732.500 709 C 733.352 708.293, 734.337 708.004, 734.691 708.357 C 735.044 708.711, 734.782 709, 734.108 709 C 733.434 709, 733.156 709.444, 733.491 709.986 C 734.163 711.072, 737.502 710.832, 738.724 709.609 C 739.151 709.182, 738.825 708.983, 738 709.167 C 737.077 709.372, 736.553 708.827, 736.639 707.750 C 736.715 706.788, 736.351 706, 735.830 706 C 735.309 706, 735.206 705.438, 735.602 704.750 C 735.998 704.063, 735.058 704.625, 733.513 706 C 730.718 708.487, 730.706 708.489, 731.258 706.250 C 731.847 703.859, 731.525 703.342, 730.490 705.016 M 683 706.972 C 683 708.023, 683.563 709.206, 684.250 709.601 C 684.938 709.997, 685.166 709.952, 684.759 709.502 C 684.351 709.052, 684.475 708.133, 685.034 707.459 C 685.752 706.594, 685.602 706.061, 684.526 705.648 C 683.486 705.249, 683 705.672, 683 706.972 M 743 706.711 C 743 707.787, 743.675 708.667, 744.500 708.667 C 745.325 708.667, 746 708.347, 746 707.956 C 746 707.565, 745.325 706.685, 744.500 706 C 743.254 704.966, 743 705.086, 743 706.711 M 288.498 708.006 C 287.670 710.615, 288.345 711.467, 290.347 710.342 C 291.610 709.632, 291.635 709.215, 290.511 707.681 C 289.242 705.948, 289.146 705.963, 288.498 708.006 M 692 707.250 C 692 708.029, 692.688 708.667, 693.528 708.667 C 695.257 708.667, 695.001 706.834, 693.188 706.229 C 692.534 706.011, 692 706.471, 692 707.250 M 720.333 707.523 C 720.333 708.255, 721.158 709.070, 722.167 709.333 C 723.175 709.597, 724 709.513, 724 709.147 C 724 708.781, 723.175 707.966, 722.167 707.336 C 720.734 706.441, 720.333 706.482, 720.333 707.523 M 668 709 C 667.051 710.773, 667.240 711, 669.656 711 C 672.292 711, 672.318 710.948, 670.441 709.426 C 669.374 708.560, 669.132 708.180, 669.905 708.580 C 670.828 709.059, 671.065 708.914, 670.595 708.155 C 669.614 706.567, 669.236 706.690, 668 709 M 692.729 710.604 C 691.423 711.910, 691.954 712.560, 694.500 712.771 C 695.875 712.884, 697 712.484, 697 711.882 C 697 711.279, 696.354 711.034, 695.565 711.337 C 694.775 711.640, 693.978 711.435, 693.794 710.881 C 693.609 710.328, 693.130 710.203, 692.729 710.604 M 679.382 712.878 C 679.491 714.376, 682.804 716.529, 683.669 715.665 C 684.507 714.826, 682.748 712.167, 681.063 711.727 C 679.852 711.410, 679.303 711.786, 679.382 712.878 M 296.500 713.004 C 294.300 713.429, 291.700 713.626, 290.723 713.441 C 289.746 713.256, 289.215 713.538, 289.542 714.069 C 289.870 714.599, 290.526 714.793, 291 714.500 C 291.474 714.207, 292.145 714.426, 292.492 714.986 C 292.913 715.669, 293.844 715.634, 295.311 714.880 C 297.115 713.953, 297.280 713.987, 296.250 715.078 C 294.418 717.015, 294.721 718.422, 296.571 716.571 C 298.102 715.041, 299.386 714.717, 303.500 714.820 C 305.150 714.861, 305.194 714.781, 303.750 714.362 C 302.788 714.082, 302 713.436, 302 712.927 C 302 712.417, 301.663 712.052, 301.250 712.115 C 300.837 712.178, 298.700 712.578, 296.500 713.004 M 598.420 712.645 C 598.733 713.275, 598.288 714.059, 597.431 714.388 C 596.574 714.717, 596.143 715.422, 596.472 715.955 C 596.842 716.554, 597.973 716.581, 599.433 716.026 C 600.732 715.532, 602.008 715.342, 602.270 715.604 C 602.532 715.865, 603.005 715.088, 603.322 713.876 C 603.853 711.845, 603.772 711.800, 602.278 713.294 C 600.784 714.787, 600.548 714.781, 599.255 713.207 C 598.483 712.268, 598.107 712.015, 598.420 712.645 M 273.687 714.298 C 273.957 714.737, 274.925 715.022, 275.839 714.933 C 279.180 714.605, 279.648 715.051, 279.325 718.250 L 278.997 721.500 280.249 718.412 C 281.357 715.676, 281.814 715.410, 284.257 716.077 C 286.145 716.593, 286.802 716.489, 286.343 715.745 C 285.920 715.062, 286.269 714.889, 287.285 715.279 C 288.404 715.709, 288.732 715.465, 288.356 714.485 C 287.946 713.418, 286.027 713.125, 280.506 713.286 C 276.486 713.404, 273.418 713.859, 273.687 714.298 M 364.414 714.637 C 364.736 715.477, 365 716.338, 365 716.550 C 365 716.763, 365.675 716.678, 366.500 716.362 C 368.713 715.512, 368.322 713.450, 365.914 713.269 C 364.424 713.156, 363.996 713.547, 364.414 714.637 M 370.583 713.866 C 370.288 714.343, 370.892 715.497, 371.924 716.431 C 373.094 717.490, 374.039 717.745, 374.433 717.109 C 374.780 716.547, 375.837 716.363, 376.782 716.700 C 377.727 717.037, 377.304 716.342, 375.842 715.156 C 373.004 712.853, 371.445 712.471, 370.583 713.866 M 583.935 714.046 C 583.444 714.346, 583.933 715.354, 585.021 716.286 C 586.110 717.218, 587 717.549, 587 717.022 C 587 716.494, 587.629 716.304, 588.399 716.600 C 589.168 716.895, 590.095 716.656, 590.458 716.068 C 590.821 715.481, 590.566 715, 589.892 715 C 589.218 715, 588.956 714.711, 589.309 714.357 C 590.203 713.463, 593.103 716.024, 592.430 717.113 C 592.129 717.601, 592.359 718, 592.941 718 C 594.432 718, 594.260 715.460, 592.679 714.149 C 591.370 713.062, 585.653 712.995, 583.935 714.046 M 651.076 714.592 C 651.575 715.193, 651.687 715.980, 651.325 716.342 C 650.963 716.704, 651.443 717, 652.392 717 C 653.341 717, 653.898 716.644, 653.629 716.209 C 653.360 715.774, 654.684 715.598, 656.570 715.818 C 659.838 716.200, 661.226 714.876, 659 713.500 C 658.450 713.160, 657.993 713.471, 657.985 714.191 C 657.975 715.001, 657.689 715.114, 657.235 714.488 C 656.831 713.932, 655.076 713.482, 653.335 713.488 C 651.162 713.496, 650.454 713.842, 651.076 714.592 M 662.234 715.215 C 661.977 716.197, 661.369 717, 660.883 717 C 660.398 717, 659.993 717.788, 659.985 718.750 C 659.972 720.246, 659.828 720.282, 659 719 C 658.247 717.834, 658.027 718.123, 658.015 720.294 C 658.006 721.942, 657.487 723.021, 656.750 722.925 C 653.674 722.526, 650.935 723.086, 651.500 724 C 652.605 725.787, 650.134 725.054, 648.974 723.250 C 648.243 722.113, 648.006 722.026, 648.297 723 C 648.598 724.008, 647.985 724.546, 646.428 724.641 C 644.796 724.740, 643.987 724.149, 643.691 722.641 C 643.317 720.730, 643.250 720.768, 643.066 723 C 642.897 725.039, 642.731 725.174, 642.161 723.734 C 641.532 722.144, 641.162 722.244, 638.441 724.734 C 636.780 726.255, 635.866 727.163, 636.410 726.750 C 637.744 725.739, 639.244 725.796, 638.603 726.833 C 638.320 727.292, 638.736 727.667, 639.528 727.667 C 640.563 727.667, 640.678 727.317, 639.936 726.422 C 639.301 725.658, 639.267 724.953, 639.847 724.595 C 640.701 724.067, 642.465 726.666, 642.214 728.083 C 642.158 728.404, 642.741 728.667, 643.512 728.667 C 644.282 728.667, 644.680 728.292, 644.397 727.833 C 644.114 727.375, 645.146 726.997, 646.691 726.994 C 648.236 726.990, 650.804 726.307, 652.399 725.476 C 653.993 724.645, 655.535 724.201, 655.825 724.491 C 656.609 725.276, 661 720.866, 661 719.294 C 661 718.548, 661.672 717.679, 662.494 717.364 C 663.316 717.048, 663.692 716.311, 663.330 715.725 C 662.911 715.047, 663.306 714.904, 664.417 715.330 C 665.377 715.698, 667.051 715.377, 668.138 714.616 C 669.966 713.335, 669.838 713.240, 666.407 713.331 C 663.743 713.402, 662.569 713.932, 662.234 715.215 M 685.315 715.532 C 684.113 716.778, 683.401 718.067, 683.732 718.398 C 684.063 718.729, 683.898 719, 683.367 719 C 682.835 719, 681.955 718.555, 681.412 718.012 C 680.761 717.361, 680.367 717.784, 680.256 719.249 C 680.138 720.814, 680.336 721.074, 680.923 720.124 C 681.594 719.039, 681.843 719.028, 682.190 720.069 C 682.455 720.864, 683.711 719.934, 685.450 717.654 C 688.670 713.433, 688.587 712.141, 685.315 715.532 M 710.872 714.692 C 709.940 715.842, 709.901 716.143, 710.750 715.633 C 711.588 715.129, 712 715.560, 712 716.941 C 712 718.955, 713.050 719.616, 714.286 718.381 C 714.626 718.040, 714.247 717.104, 713.443 716.300 C 712.639 715.496, 712.237 714.425, 712.550 713.919 C 713.516 712.356, 712.321 712.907, 710.872 714.692 M 644.500 715 C 645.600 715.473, 645.920 715.891, 645.211 715.930 C 644.158 715.987, 644.158 716.255, 645.211 717.389 C 646.114 718.363, 646.707 718.448, 647.193 717.673 C 648.102 716.222, 646.195 713.981, 644.128 714.070 C 642.875 714.124, 642.961 714.339, 644.500 715 M 742.695 715.639 C 741.627 716.707, 741.871 718.198, 743 717.500 C 743.550 717.160, 744 717.359, 744 717.941 C 744 719.630, 746.723 719.165, 747.416 717.359 C 747.929 716.022, 747.778 715.940, 746.604 716.914 C 745.461 717.862, 744.977 717.782, 744.275 716.528 C 743.788 715.657, 743.077 715.257, 742.695 715.639 M 771.733 716.914 C 771.433 718.060, 771.548 719.221, 771.989 719.493 C 773.139 720.204, 773.959 717.552, 773.046 716.075 C 772.505 715.200, 772.116 715.449, 771.733 716.914 M 636.676 717.250 C 637.112 717.938, 637.476 718.913, 637.485 719.417 C 637.493 719.921, 638.063 720.521, 638.750 720.750 C 640.499 721.333, 640.309 719.452, 638.429 717.571 C 636.545 715.688, 635.571 715.510, 636.676 717.250 M 294.267 720.890 C 294.360 722.130, 294.923 722.583, 295.904 722.207 C 296.922 721.816, 297.014 721.505, 296.193 721.231 C 295.530 721.010, 295.242 720.418, 295.553 719.915 C 295.864 719.412, 295.669 719, 295.121 719 C 294.573 719, 294.188 719.851, 294.267 720.890 M 281.367 720.750 C 281.780 721.438, 281.641 722, 281.059 722 C 280.477 722, 280 722.505, 280 723.122 C 280 723.929, 280.397 723.916, 281.411 723.074 C 282.279 722.353, 283.051 722.273, 283.417 722.866 C 283.745 723.396, 283.548 724.059, 282.981 724.340 C 282.414 724.620, 282.484 724.747, 283.138 724.621 C 283.791 724.495, 284.443 723.587, 284.588 722.604 C 284.732 721.621, 284.588 721.079, 284.267 721.400 C 283.946 721.720, 282.994 721.424, 282.150 720.741 C 280.926 719.751, 280.768 719.753, 281.367 720.750 M 289.441 721.445 C 291.751 723.296, 293 723.432, 293 721.833 C 293 721.192, 292.716 720.951, 292.369 721.298 C 292.021 721.645, 290.784 721.471, 289.619 720.910 C 287.559 719.918, 287.554 719.933, 289.441 721.445 M 673.500 721 C 673.840 721.550, 673.641 722, 673.059 722 C 672.477 722, 672 722.450, 672 723 C 672 724.926, 674.576 723.980, 674.725 722 C 674.808 720.900, 674.427 720, 673.879 720 C 673.331 720, 673.160 720.450, 673.500 721 M 364.531 721.950 C 364.163 722.545, 363.474 722.793, 363 722.500 C 362.526 722.207, 361.810 722.537, 361.409 723.234 C 361.008 723.930, 361.048 724.166, 361.498 723.759 C 361.948 723.351, 362.867 723.475, 363.541 724.034 C 364.412 724.757, 364.952 724.568, 365.407 723.382 C 366.156 721.431, 365.507 720.370, 364.531 721.950 M 274.667 722.667 C 273.486 723.847, 273.951 724.850, 275.980 725.494 C 277.069 725.839, 277.856 726.637, 277.730 727.265 C 277.603 727.894, 277.950 728.436, 278.500 728.470 C 279.050 728.503, 280.063 728.888, 280.750 729.324 C 281.555 729.835, 282 729.563, 282 728.559 C 282 727.702, 281.663 727.109, 281.250 727.242 C 280.262 727.561, 276.283 724.735, 276.218 723.667 C 276.140 722.395, 275.409 721.924, 274.667 722.667 M 693.231 724.392 C 692.263 726.516, 692.397 726.750, 694.578 726.750 C 697.318 726.750, 697.497 726.238, 695.621 723.767 C 694.399 722.159, 694.228 722.204, 693.231 724.392 M 690.265 726.250 C 690.134 728.900, 690.266 729.130, 690.982 727.500 C 692.112 724.923, 692.211 723, 691.213 723 C 690.780 723, 690.353 724.462, 690.265 726.250 M 685.260 726.198 C 685.172 727.361, 685.812 728, 687.062 728 C 688.313 728, 689 727.313, 689 726.062 C 689 723.559, 685.449 723.688, 685.260 726.198 M 236.499 726.664 C 236.691 727.674, 236.935 728.725, 237.042 729 C 237.149 729.275, 237.213 729.750, 237.183 730.055 C 237.154 730.361, 238.563 731.135, 240.315 731.775 C 243.276 732.858, 243.359 732.831, 241.500 731.399 C 240.400 730.552, 239.595 729.494, 239.710 729.048 C 239.826 728.603, 239.073 727.471, 238.036 726.533 C 236.254 724.920, 236.171 724.927, 236.499 726.664 M 740.702 726.667 C 740.984 727.400, 741.953 727.964, 742.857 727.921 C 743.904 727.871, 744.044 727.658, 743.244 727.336 C 742.553 727.057, 742.196 726.493, 742.450 726.081 C 742.704 725.670, 742.300 725.333, 741.551 725.333 C 740.803 725.333, 740.421 725.933, 740.702 726.667 M 752.869 726.342 C 753.481 727.080, 753.649 728.052, 753.241 728.502 C 752.834 728.952, 753.063 728.997, 753.750 728.601 C 755.553 727.564, 755.288 725, 753.378 725 C 752.134 725, 752.015 725.313, 752.869 726.342 M 775.736 726.598 C 774.313 728.020, 777.508 732.422, 779.202 731.375 C 780.621 730.498, 780.051 729.151, 777.985 728.495 C 776.877 728.144, 776.229 727.438, 776.544 726.928 C 777.186 725.891, 776.658 725.675, 775.736 726.598 M 352.600 728.599 C 352.245 729.525, 352.706 729.880, 354.010 729.681 C 356.849 729.247, 357.366 728.329, 355.104 727.738 C 353.951 727.436, 352.909 727.794, 352.600 728.599 M 682 728.941 C 682 729.459, 682.450 730.160, 683 730.500 C 683.550 730.840, 684 730.656, 684 730.090 C 684 729.525, 684.788 729.316, 685.750 729.626 C 687.227 730.101, 687.266 730.020, 686 729.110 C 684.142 727.773, 682 727.683, 682 728.941 M 658 730.541 C 658 731.743, 658.414 731.849, 659.933 731.036 C 661.541 730.175, 662.230 730.514, 664.042 733.058 C 665.239 734.740, 666.440 735.894, 666.710 735.623 C 666.981 735.352, 666.057 733.895, 664.657 732.385 C 661.733 729.232, 658 728.198, 658 730.541 M 691.250 730.662 C 689.255 731.467, 689.803 733.715, 692.144 734.327 C 693.662 734.724, 693.977 734.577, 693.222 733.822 C 692.636 733.236, 692.394 732.136, 692.685 731.378 C 693.248 729.911, 693.188 729.880, 691.250 730.662 M 270.603 732.167 C 270.886 732.625, 270.529 733.007, 269.809 733.015 C 268.858 733.026, 268.910 733.296, 270 734 C 272.138 735.381, 272.571 735.241, 272.571 733.167 C 272.571 732.158, 272.013 731.333, 271.330 731.333 C 270.647 731.333, 270.320 731.708, 270.603 732.167 M 744 732.469 C 744 733.361, 744.587 733.712, 745.494 733.364 C 746.316 733.048, 746.740 732.388, 746.435 731.895 C 745.563 730.483, 744 730.851, 744 732.469 M 764 732.500 C 764 733.325, 763.550 734, 763 734 C 762.450 734, 762 734.410, 762 734.912 C 762 736.705, 765.348 735.292, 766.134 733.167 C 766.727 731.564, 766.553 731, 765.468 731 C 764.660 731, 764 731.675, 764 732.500 M 629.015 733.191 C 628.994 735.537, 630.656 736.339, 631.419 734.351 C 631.764 733.451, 631.811 732.478, 631.524 732.190 C 631.236 731.902, 630.993 732.304, 630.985 733.083 C 630.972 734.250, 630.798 734.235, 630 733 C 629.165 731.707, 629.029 731.734, 629.015 733.191 M 767 735.500 C 765.708 736.875, 765.128 738, 765.711 738 C 766.293 738, 767.507 736.875, 768.408 735.500 C 769.309 734.125, 769.889 733, 769.697 733 C 769.506 733, 768.292 734.125, 767 735.500 M 633.015 734.691 C 632.990 736.628, 634.388 736.921, 636.452 735.411 C 637.514 734.635, 637.873 734, 637.250 734 C 636.627 734, 635.810 734.498, 635.434 735.107 C 634.957 735.878, 634.490 735.803, 633.890 734.857 C 633.315 733.949, 633.026 733.894, 633.015 734.691 M 772.671 735.584 C 773.005 736.455, 773.558 736.792, 773.901 736.334 C 774.243 735.875, 774.931 735.163, 775.428 734.750 C 775.926 734.337, 775.372 734, 774.198 734 C 772.661 734, 772.233 734.443, 772.671 735.584 M 586 738.713 C 586 739.421, 586.702 740, 587.559 740 C 588.416 740, 588.864 739.588, 588.553 739.085 C 588.242 738.582, 588.553 737.953, 589.244 737.687 C 589.935 737.421, 589.487 737.254, 588.250 737.315 C 587.013 737.376, 586 738.005, 586 738.713 M 624.208 738.676 C 623.216 739.074, 623.187 739.520, 624.081 740.597 C 624.721 741.369, 625.695 742, 626.245 742 C 626.855 742, 626.811 741.477, 626.131 740.658 C 625.519 739.920, 625.313 739.020, 625.675 738.658 C 626.415 737.918, 626.087 737.922, 624.208 738.676 M 691.015 740.215 C 691.027 741.905, 691.258 742.141, 691.904 741.122 C 692.384 740.364, 693.277 740.053, 693.888 740.431 C 694.500 740.809, 695 740.882, 695 740.594 C 695 740.306, 694.100 739.589, 693 739 C 691.270 738.074, 691.002 738.238, 691.015 740.215 M 631.303 740.792 C 630.644 741.210, 630.431 742.080, 630.829 742.724 C 631.304 743.492, 632.059 743.574, 633.026 742.963 C 634.112 742.276, 634.155 742.027, 633.191 742.015 C 632.471 742.007, 632.160 741.550, 632.500 741 C 633.233 739.813, 632.926 739.760, 631.303 740.792 M 682.015 741.250 C 681.997 743.387, 684.564 743.579, 685.362 741.500 C 685.678 740.675, 685.501 740, 684.969 740 C 684.436 740, 683.993 740.563, 683.985 741.250 C 683.974 742.083, 683.646 742, 683 741 C 682.172 739.718, 682.028 739.754, 682.015 741.250 M 263 741.631 C 263 741.795, 263.954 742.440, 265.121 743.065 C 266.611 743.862, 267.039 743.873, 266.562 743.100 C 266.188 742.495, 266.321 742, 266.858 742 C 267.394 742, 268.013 742.540, 268.233 743.199 C 268.499 743.997, 268.830 743.886, 269.221 742.866 C 269.679 741.674, 269.053 741.333, 266.405 741.333 C 264.532 741.333, 263 741.468, 263 741.631 M 820 784.993 L 820 825.986 749.831 826.243 L 679.663 826.500 679.834 854.500 L 680.006 882.500 794.503 882.754 L 909 883.008 909 854.504 L 909 826 884 826 L 859 826 859 785 L 859 744 839.500 744 L 820 744 820 784.993 M 585.618 747.448 C 585.993 748.425, 587.379 748.968, 589.357 748.914 L 592.500 748.828 589.828 748.021 C 588.359 747.578, 586.677 746.918, 586.090 746.555 C 585.435 746.151, 585.253 746.496, 585.618 747.448 M 646.639 746.694 C 645.513 747.820, 645.954 749, 647.500 749 C 648.325 749, 649 748.577, 649 748.059 C 649 746.798, 647.438 745.895, 646.639 746.694 M 622 747.987 C 622 748.529, 620.425 749.631, 618.500 750.436 C 616.575 751.240, 615 752.033, 615 752.199 C 615 752.365, 616.580 752.500, 618.511 752.500 C 620.927 752.500, 621.871 752.106, 621.538 751.238 C 621.215 750.398, 621.798 750.098, 623.277 750.342 C 624.499 750.543, 624.938 750.516, 624.250 750.281 C 623.563 750.046, 623 749.410, 623 748.868 C 623 748.326, 623.520 748.203, 624.155 748.595 C 624.870 749.038, 625.038 748.870, 624.595 748.155 C 623.723 746.743, 622 746.632, 622 747.987 M 259 749.954 C 256.729 750.534, 256.676 750.660, 258.420 751.330 C 259.553 751.765, 260.631 751.598, 261.049 750.921 C 261.558 750.098, 261.911 750.159, 262.300 751.137 C 262.642 751.997, 262.871 752.061, 262.921 751.309 C 263.033 749.618, 261.878 749.218, 259 749.954 M 320.667 749.667 C 319.386 750.947, 320.012 752.235, 321.367 751.110 C 322.408 750.247, 323.037 750.340, 324 751.500 C 324.813 752.480, 325.665 752.693, 326.383 752.097 C 326.997 751.587, 327.950 751.094, 328.500 751.002 C 330.500 750.665, 330.279 750, 328.167 750 C 326.975 750, 326 750.520, 326 751.155 C 326 751.846, 325.265 751.645, 324.171 750.655 C 322.150 748.826, 321.649 748.685, 320.667 749.667 M 745.211 750.538 C 744.133 751.759, 744.230 752, 745.794 752 C 746.824 752, 747.667 751.325, 747.667 750.500 C 747.667 748.632, 746.880 748.645, 745.211 750.538 M 738.143 750.890 C 737.292 751.430, 737.165 751.984, 737.803 752.378 C 739.174 753.226, 742.130 752.019, 741.435 750.895 C 740.749 749.784, 739.891 749.783, 738.143 750.890 M 594.683 753.384 C 594.355 754.238, 594.487 755.183, 594.975 755.484 C 596.250 756.273, 597.011 754.635, 596.073 753.118 C 595.452 752.114, 595.148 752.172, 594.683 753.384 M 792 757.333 C 792 759.900, 792.455 762, 793.012 762 C 793.638 762, 793.775 760.379, 793.373 757.750 C 792.481 751.926, 792 751.780, 792 757.333 M 247.459 755.067 C 247.096 755.653, 247.071 756.404, 247.402 756.735 C 247.733 757.067, 247.360 758.049, 246.573 758.919 C 245.786 759.788, 245.081 760.950, 245.006 761.500 C 244.930 762.050, 244.111 762.401, 243.184 762.279 C 242.239 762.155, 242.051 762.302, 242.756 762.615 C 243.447 762.920, 243.715 763.695, 243.352 764.335 C 242.988 764.976, 244.029 764.256, 245.665 762.736 C 247.300 761.216, 248.931 760.264, 249.288 760.621 C 249.645 760.978, 249.690 760.197, 249.388 758.885 C 249.086 757.573, 248.801 755.938, 248.753 755.250 C 248.647 753.720, 248.320 753.674, 247.459 755.067 M 639.139 756.033 C 637.841 757.115, 637.188 758, 637.689 758 C 638.190 758, 639.140 757.460, 639.800 756.800 C 640.733 755.867, 641 755.954, 641 757.193 C 641 758.069, 641.675 759.045, 642.500 759.362 C 643.325 759.678, 644 759.475, 644 758.910 C 644 758.344, 644.375 758.114, 644.833 758.397 C 645.292 758.680, 645.667 758.241, 645.667 757.421 C 645.667 756.486, 644.890 756.037, 643.583 756.215 C 642.340 756.385, 641.601 755.996, 641.750 755.250 C 642.070 753.649, 641.962 753.681, 639.139 756.033 M 313.919 755.640 C 315.259 756.317, 314.088 759, 312.452 759 C 310.300 759, 309.952 760.571, 312.069 760.730 C 313.131 760.810, 314 760.516, 314 760.077 C 314 759.637, 315.120 759.491, 316.488 759.753 C 317.857 760.015, 318.771 760.562, 318.519 760.970 C 318.267 761.378, 319.146 761.504, 320.473 761.250 C 322.530 760.857, 322.717 760.520, 321.742 758.959 C 321.114 757.953, 320.135 757.416, 319.567 757.767 C 317.543 759.019, 314.987 758.676, 315.244 757.187 C 315.385 756.373, 314.926 755.582, 314.225 755.429 C 313.524 755.275, 313.386 755.370, 313.919 755.640 M 618.015 755.691 C 618.007 756.346, 618.450 757.160, 619 757.500 C 619.550 757.840, 620 759.018, 620 760.118 C 620 761.318, 619.560 761.846, 618.900 761.438 C 618.127 760.961, 618.138 761.389, 618.935 762.879 C 619.560 764.046, 620.617 764.964, 621.285 764.921 C 622.194 764.862, 622.184 764.715, 621.244 764.336 C 620.553 764.057, 620.220 763.453, 620.504 762.993 C 621.525 761.342, 621.734 756.047, 620.754 756.652 C 620.216 756.984, 619.384 756.636, 618.904 755.878 C 618.330 754.972, 618.025 754.908, 618.015 755.691 M 303 758 C 302.207 758.490, 301.890 759.223, 302.296 759.629 C 302.701 760.035, 303.558 759.842, 304.200 759.200 C 305.711 757.689, 304.868 756.846, 303 758 M 613.875 757.500 C 613.806 757.775, 613.687 758.337, 613.610 758.750 C 613.533 759.163, 613.115 760.057, 612.683 760.739 C 612.142 761.590, 612.381 761.791, 613.448 761.382 C 615.263 760.685, 615.506 762.094, 613.856 763.744 C 612.997 764.603, 613.309 764.756, 615.106 764.357 C 617.004 763.937, 617.189 764.049, 616 764.898 C 615.074 765.559, 614.956 765.975, 615.691 765.985 C 617.334 766.006, 618.257 764.277, 617.014 763.508 C 616.345 763.095, 616.327 762.258, 616.962 761.071 C 618.121 758.905, 617.388 757.914, 615.238 758.739 C 614.205 759.135, 613.918 758.942, 614.395 758.170 C 614.793 757.526, 614.866 757, 614.559 757 C 614.252 757, 613.944 757.225, 613.875 757.500 M 634 759 C 634.589 760.100, 635.184 761, 635.322 761 C 635.461 761, 635.642 760.100, 635.725 759 C 635.813 757.837, 635.259 757, 634.403 757 C 633.240 757, 633.155 757.421, 634 759 M 650 757.647 C 650 758.223, 648.987 759.201, 647.750 759.821 C 645.698 760.848, 645.764 760.893, 648.500 760.333 C 652.305 759.554, 652.638 759.238, 651.183 757.783 C 650.446 757.046, 650 756.994, 650 757.647 M 604 759 C 603.175 759.533, 602.950 759.991, 603.500 760.016 C 604.050 760.042, 603.626 760.724, 602.559 761.532 C 601.491 762.339, 601.041 763.007, 601.559 763.015 C 602.076 763.024, 601.825 763.467, 601 764 C 599.718 764.828, 599.754 764.972, 601.250 764.985 C 602.212 764.993, 603 764.325, 603 763.500 C 603 762.675, 603.675 762, 604.500 762 C 605.325 762, 606 761.495, 606 760.878 C 606 760.136, 606.594 760.215, 607.750 761.110 C 609.175 762.214, 609.146 762.050, 607.595 760.233 C 606.547 759.005, 605.647 758.007, 605.595 758.015 C 605.543 758.024, 604.825 758.467, 604 759 M 323.971 762.044 C 322.929 763.492, 321.822 763.919, 320.175 763.506 C 318.196 763.011, 318.047 763.137, 319.175 764.357 C 319.904 765.145, 320.933 765.527, 321.462 765.205 C 321.991 764.883, 323.904 764.719, 325.712 764.841 C 328.964 765.060, 330.080 763.785, 327.845 762.405 C 327.130 761.962, 326.962 762.130, 327.405 762.845 C 327.862 763.585, 327.323 764, 325.904 764 C 323.753 764, 323.742 763.943, 325.500 762 C 326.495 760.900, 326.890 760, 326.376 760 C 325.862 760, 324.780 760.920, 323.971 762.044 M 286.116 762.128 C 285.977 764.077, 287.610 765.515, 291 766.429 C 293.402 767.077, 293.424 767.043, 291.559 765.552 C 290.467 764.679, 290.165 764, 290.868 764 C 291.555 764, 291.839 763.549, 291.498 762.997 C 291.085 762.329, 290.257 762.327, 289.012 762.994 C 287.551 763.775, 287.046 763.613, 286.689 762.246 C 286.302 760.769, 286.214 760.751, 286.116 762.128 M 298.429 763.096 C 298.429 764.895, 298.881 765.119, 301.625 764.673 C 303.383 764.388, 305.098 764.432, 305.436 764.770 C 305.775 765.108, 307 765.530, 308.160 765.707 C 309.941 765.978, 310.073 765.793, 309.012 764.514 C 307.409 762.583, 308.391 762.534, 310.307 764.449 C 311.573 765.715, 311.993 765.715, 313.628 764.447 C 315.182 763.242, 315.210 763.096, 313.798 763.586 C 312.862 763.911, 311.512 763.805, 310.798 763.350 C 308.978 762.191, 302.650 762.296, 301.765 763.500 C 301.350 764.065, 301.024 763.738, 301.015 762.750 C 301.007 761.788, 300.421 761, 299.714 761 C 299.007 761, 298.429 761.943, 298.429 763.096 M 254.276 763.980 C 254.194 765.069, 254.492 766.186, 254.939 766.462 C 255.385 766.738, 255.750 765.847, 255.750 764.482 C 255.750 761.543, 254.492 761.115, 254.276 763.980 M 659.585 762.748 C 659.293 763.040, 659.294 763.666, 659.586 764.139 C 660.286 765.272, 664 765.253, 664 764.117 C 664 763.089, 660.369 761.964, 659.585 762.748 M 681.985 765.750 C 681.972 767.246, 681.828 767.282, 681 766 C 680.172 764.718, 680.028 764.754, 680.015 766.250 C 680.006 767.320, 680.753 768, 681.938 768 C 683.259 768, 683.828 767.364, 683.725 766 C 683.540 763.542, 682.006 763.322, 681.985 765.750 M 323.721 767.715 C 324.133 768.789, 323.949 769.087, 323.170 768.605 C 322.526 768.207, 322 768.359, 322 768.941 C 322 769.523, 322.337 770.037, 322.750 770.081 C 327.402 770.585, 329.305 770.370, 329.718 769.294 C 329.988 768.588, 330.682 768.303, 331.259 768.660 C 331.916 769.066, 332.007 768.820, 331.502 768.003 C 330.873 766.986, 330.369 767.117, 329.222 768.599 C 327.827 770.401, 327.780 770.370, 328.325 768 C 328.873 765.619, 328.831 765.593, 327.450 767.441 C 326.653 768.509, 326 768.894, 326 768.298 C 326 767.702, 325.348 766.964, 324.551 766.658 C 323.533 766.267, 323.286 766.582, 323.721 767.715 M 600.064 767.423 C 599.396 768.228, 597.822 768.654, 596.441 768.404 C 595.099 768.160, 594 768.420, 594 768.980 C 594 770.164, 591.800 769.912, 590.862 768.622 C 589.908 767.309, 587.782 768.989, 588.390 770.575 C 588.680 771.330, 588.148 772.395, 587.208 772.943 C 585.659 773.846, 585.686 773.952, 587.500 774.081 C 588.600 774.160, 591.075 774.393, 593 774.601 C 594.925 774.809, 595.961 774.634, 595.303 774.213 C 594.644 773.792, 594.419 772.976, 594.803 772.401 C 596.050 770.528, 598.824 770.083, 600.049 771.559 C 601.003 772.709, 600.929 773, 599.681 773 C 598.822 773, 597.794 773.563, 597.399 774.250 C 597.003 774.938, 597.036 775.178, 597.471 774.785 C 597.907 774.392, 599.054 774.494, 600.021 775.011 C 601.409 775.754, 601.900 775.491, 602.352 773.762 C 602.669 772.552, 602.382 771.191, 601.712 770.720 C 600.980 770.206, 601.391 770.120, 602.750 770.502 C 605.286 771.215, 605.563 770.326, 603.608 767.750 C 601.999 765.630, 601.583 765.592, 600.064 767.423 M 642.341 767.344 C 641.977 767.980, 642.048 768.166, 642.498 767.759 C 642.948 767.351, 643.880 767.485, 644.569 768.057 C 645.327 768.686, 646.050 768.728, 646.400 768.162 C 646.718 767.648, 646.083 766.993, 644.990 766.708 C 643.896 766.422, 642.704 766.708, 642.341 767.344 M 792.068 769.050 C 792.131 772.290, 792.202 772.361, 793.235 770.217 C 794.048 768.530, 794.031 767.631, 793.167 766.767 C 792.278 765.878, 792.016 766.420, 792.068 769.050 M 317.572 767.884 C 317.260 768.389, 315.654 768.708, 314.002 768.593 C 312.351 768.479, 311 768.749, 311 769.193 C 311 769.637, 311.927 770, 313.059 770 C 314.191 770, 314.859 770.419, 314.543 770.931 C 314.226 771.443, 314.494 772.187, 315.138 772.585 C 315.843 773.021, 316.042 772.877, 315.638 772.224 C 315.269 771.627, 315.494 770.813, 316.138 770.415 C 316.828 769.988, 317.042 770.123, 316.660 770.741 C 316.162 771.547, 317.901 773, 319.364 773 C 319.474 773, 319.655 771.897, 319.767 770.550 C 319.977 768.004, 318.561 766.284, 317.572 767.884 M 240.506 768.990 C 240.237 769.425, 241.251 770.584, 242.759 771.565 C 245.208 773.159, 245.351 773.168, 244.107 771.650 C 241.666 768.672, 243.781 768.662, 246.584 771.639 C 248.760 773.949, 249.053 774.067, 248.104 772.250 C 247.070 770.269, 247.173 770, 248.965 770 C 250.084 770, 250.999 769.663, 250.998 769.250 C 250.995 768.236, 241.124 767.991, 240.506 768.990 M 293.374 769.532 C 293.767 770.556, 293.118 771.385, 291.421 772.030 C 290.023 772.562, 289.158 773.447, 289.499 773.998 C 290.406 775.465, 292.572 775.221, 294.009 773.489 C 295.120 772.151, 295.416 772.180, 296.600 773.739 C 297.842 775.375, 297.939 775.341, 297.968 773.250 C 298.001 770.957, 300.350 770.139, 301.510 772.016 C 301.856 772.575, 302.548 772.779, 303.049 772.470 C 304.434 771.614, 301.775 768, 299.759 768 C 298.792 768, 298 768.540, 298 769.200 C 298 770.133, 297.733 770.133, 296.800 769.200 C 295.057 767.457, 292.666 767.688, 293.374 769.532 M 303.629 769.477 C 303.951 770.315, 304.503 771.034, 304.857 771.077 C 305.211 771.119, 306.290 771.304, 307.255 771.489 C 308.220 771.673, 308.756 771.414, 308.446 770.912 C 308.136 770.410, 308.385 770, 309 770 C 309.615 770, 309.840 769.550, 309.500 769 C 309.160 768.450, 308.207 768, 307.382 768 C 306.546 768, 306.183 768.487, 306.562 769.100 C 307.045 769.882, 306.635 769.875, 305.143 769.077 C 303.400 768.144, 303.144 768.211, 303.629 769.477 M 605.710 769.687 C 606.027 770.512, 606.988 770.821, 608.118 770.462 C 609.200 770.119, 610 770.344, 610 770.992 C 610 771.611, 609.581 771.859, 609.069 771.543 C 608.557 771.226, 607.813 771.494, 607.415 772.138 C 606.963 772.869, 607.124 773.041, 607.845 772.595 C 608.530 772.173, 609 772.517, 609 773.441 C 609 775.187, 610.552 775.534, 611.500 774 C 611.840 773.450, 611.656 773, 611.090 773 C 610.525 773, 610.303 772.375, 610.596 771.611 C 610.906 770.803, 611.945 770.434, 613.079 770.731 C 614.525 771.109, 614.878 770.845, 614.443 769.712 C 614.035 768.649, 612.533 768.203, 609.520 768.248 C 606.272 768.298, 605.315 768.659, 605.710 769.687 M 617 769 C 615.787 769.784, 615.931 769.972, 617.750 769.985 C 618.987 769.993, 620 769.550, 620 769 C 620 767.747, 618.939 767.747, 617 769 M 284.405 769.845 C 284.860 770.582, 284.283 771.042, 282.809 771.116 C 280.952 771.209, 280.864 771.326, 282.356 771.710 C 284.681 772.308, 286.696 770.548, 284.933 769.458 C 284.132 768.964, 283.945 769.101, 284.405 769.845 M 663.116 771.106 C 662.005 772.299, 660.640 772.895, 659.970 772.481 C 659.085 771.934, 659.128 771.533, 660.143 770.890 C 661.189 770.228, 661.084 770.027, 659.683 770.015 C 658.331 770.004, 658.024 770.502, 658.487 771.958 C 658.907 773.284, 658.477 774.309, 657.154 775.136 C 656.079 775.807, 655.427 776.949, 655.705 777.672 C 655.982 778.396, 656.620 778.735, 657.121 778.425 C 657.622 778.115, 657.746 777.398, 657.396 776.831 C 656.963 776.131, 657.359 776.119, 658.629 776.792 C 659.658 777.338, 663.258 777.712, 666.629 777.625 C 671.214 777.506, 672.636 777.785, 672.272 778.733 C 672.005 779.430, 670.511 780, 668.952 780 C 667.393 780, 665.844 780.443, 665.509 780.985 C 665.129 781.600, 666.103 781.729, 668.106 781.329 C 670.704 780.809, 671.145 780.954, 670.434 782.094 C 669.237 784.011, 668.983 786.129, 670.026 785.484 C 670.494 785.195, 671.341 785.755, 671.908 786.729 C 672.844 788.337, 672.942 788.299, 672.970 786.323 C 672.986 785.126, 672.438 783.954, 671.750 783.719 C 671.063 783.484, 671.625 783.481, 673 783.712 C 675.424 784.119, 675.440 784.087, 673.502 782.648 C 672.402 781.831, 671.864 780.802, 672.306 780.361 C 672.747 779.919, 673.523 780.220, 674.030 781.029 C 674.667 782.047, 674.824 781.473, 674.538 779.169 C 674.071 775.401, 674.729 773, 676.229 773 C 676.843 773, 676.782 773.558, 676.074 774.411 C 675.260 775.392, 675.227 776.022, 675.968 776.480 C 676.553 776.842, 676.774 777.557, 676.457 778.069 C 676.141 778.581, 676.584 779, 677.441 779 C 679.302 779, 679.525 777.354, 677.750 776.720 C 675.635 775.965, 677.715 774.775, 679.925 775.476 C 681.138 775.861, 682 776.988, 682 778.190 C 682 779.749, 682.310 779.988, 683.284 779.180 C 683.989 778.594, 685.152 778.476, 685.866 778.917 C 686.769 779.475, 686.031 780.172, 683.450 781.202 C 680.682 782.306, 680.151 782.844, 681.367 783.311 C 682.265 783.655, 683 783.533, 683 783.038 C 683 782.544, 684.013 781.995, 685.250 781.820 C 686.742 781.608, 687.614 780.695, 687.838 779.109 C 688.094 777.297, 687.804 776.861, 686.639 777.308 C 685.582 777.714, 685.276 777.445, 685.658 776.449 C 685.964 775.652, 685.689 775, 685.048 775 C 684.407 775, 684.141 775.419, 684.457 775.931 C 684.774 776.443, 684.575 777.144, 684.016 777.490 C 683.457 777.835, 683 777.439, 683 776.609 C 683 775.779, 682.212 774.593, 681.250 773.974 C 679.583 772.903, 679.583 772.875, 681.250 773.393 C 682.397 773.750, 683 773.404, 683 772.389 C 683 771.189, 682.325 770.989, 680 771.500 C 678.186 771.898, 677 771.753, 677 771.131 C 677 770.432, 676.042 770.438, 674.001 771.149 C 672.280 771.749, 671.285 772.652, 671.665 773.267 C 672.095 773.963, 671.655 774.103, 670.414 773.667 C 668.558 773.016, 668.559 773.041, 670.441 774.498 C 671.509 775.324, 671.873 776, 671.250 776 C 670.627 776, 669.821 775.519, 669.458 774.932 C 669.095 774.344, 668.168 774.105, 667.399 774.400 C 664.899 775.360, 665.920 774.020, 669.250 771.971 C 671.861 770.364, 672.063 770.034, 670.276 770.293 C 669.052 770.470, 667.740 770.927, 667.359 771.308 C 666.978 771.688, 666.012 772, 665.211 772 C 664.030 772, 663.990 771.717, 665 770.500 C 666.898 768.213, 665.346 768.713, 663.116 771.106 M 642.500 771 C 641.400 771.473, 640.801 771.891, 641.168 771.930 C 641.536 771.968, 642.473 772.244, 643.252 772.543 C 644.095 772.867, 644.667 772.463, 644.667 771.543 C 644.667 770.694, 644.629 770.032, 644.583 770.070 C 644.538 770.109, 643.600 770.527, 642.500 771 M 299 773.500 C 299 774.325, 299.450 775, 300 775 C 300.550 775, 301 774.325, 301 773.500 C 301 772.675, 300.550 772, 300 772 C 299.450 772, 299 772.675, 299 773.500 M 304.412 772.750 C 304.820 773.471, 304.564 774.006, 303.809 774.015 C 302.827 774.027, 302.862 774.259, 303.946 774.946 C 304.837 775.509, 306.115 775.474, 307.274 774.853 C 308.309 774.299, 309.773 774.083, 310.527 774.372 C 311.399 774.707, 311.704 774.391, 311.364 773.506 C 310.978 772.501, 310.195 772.356, 308.542 772.984 C 307.044 773.554, 305.814 773.448, 304.980 772.677 C 303.997 771.768, 303.867 771.785, 304.412 772.750 M 622 773.648 C 622 774.456, 621.555 774.843, 621.011 774.507 C 620.445 774.157, 620.277 774.558, 620.618 775.448 C 620.946 776.302, 621.642 777, 622.166 777 C 622.690 777, 622.871 776.601, 622.570 776.113 C 622.044 775.262, 624.252 772.762, 625.092 773.259 C 625.316 773.391, 625.374 773.299, 625.221 773.054 C 624.492 771.889, 622 772.348, 622 773.648 M 661.548 773.589 C 659.476 775.104, 660.302 775.329, 663.434 774.102 C 664.497 773.686, 664.942 773.082, 664.423 772.761 C 663.903 772.440, 662.609 772.812, 661.548 773.589 M 283.494 774.009 C 283.152 774.564, 283.127 775.825, 283.440 776.811 C 283.753 777.798, 283.347 779.481, 282.536 780.552 C 281.709 781.647, 281.050 781.952, 281.032 781.250 C 281.014 780.563, 280.045 780, 278.878 780 C 277.184 780, 276.987 780.279, 277.903 781.383 C 278.791 782.453, 278.691 782.905, 277.462 783.376 C 276.588 783.712, 276.134 784.408, 276.453 784.924 C 276.772 785.440, 276.506 786.187, 275.862 786.585 C 275.081 787.068, 274.961 786.873, 275.500 786 C 276.047 785.115, 275.919 784.932, 275.106 785.435 C 274.226 785.979, 274.197 786.533, 275 787.500 C 276.440 789.235, 274.855 790.175, 273.310 788.502 C 272.656 787.793, 272.206 787.053, 272.310 786.857 C 272.415 786.660, 271.712 787.269, 270.750 788.208 C 268.631 790.276, 268.544 791, 270.412 791 C 271.188 791, 271.726 791.662, 271.607 792.471 C 271.346 794.248, 270 795.766, 270 794.283 C 270 792.682, 266.211 792.041, 265.045 793.445 C 264.480 794.127, 264.238 794.980, 264.509 795.342 C 264.779 795.704, 264.704 795.779, 264.342 795.509 C 263.980 795.238, 263.155 795.456, 262.509 795.993 C 261.698 796.666, 261.333 796.508, 261.333 795.484 C 261.333 794.668, 261.537 794.204, 261.786 794.452 C 262.272 794.938, 265.490 792.021, 265.515 791.071 C 265.524 790.757, 265.877 789.955, 266.300 789.289 C 267.136 787.975, 262.264 788.079, 258.500 789.457 C 257.384 789.865, 256.942 789.816, 257.500 789.344 C 258.568 788.443, 259.317 786, 258.526 786 C 258.265 786, 257.353 787.350, 256.500 789 C 255.647 790.650, 254.484 792, 253.915 792 C 253.347 792, 253.162 791.547, 253.504 790.993 C 253.847 790.439, 253.426 789.717, 252.569 789.388 C 251.712 789.059, 251.306 788.275, 251.667 787.645 C 252.028 787.015, 251.208 787.513, 249.847 788.750 C 248.485 789.987, 246.725 790.993, 245.936 790.985 C 244.729 790.972, 244.740 790.807, 246 789.954 C 247.113 789.201, 246.790 789.104, 244.750 789.578 C 243.057 789.971, 242 789.803, 242 789.140 C 242 788.547, 241.353 788.311, 240.563 788.614 C 239.773 788.917, 239.360 789.775, 239.646 790.520 C 239.939 791.283, 240.860 791.607, 241.756 791.263 C 242.938 790.810, 243.182 791.084, 242.705 792.326 C 241.921 794.369, 242.875 797.195, 244.093 796.442 C 244.579 796.142, 244.709 796.594, 244.382 797.448 C 244.054 798.302, 242.597 799.081, 241.143 799.180 C 239.689 799.279, 241.875 799.622, 246 799.941 C 257.622 800.840, 360.472 801.139, 359.604 800.270 C 358.772 799.437, 358.486 799.414, 343.302 798.952 C 337.467 798.775, 333.345 798.251, 333.669 797.727 C 333.980 797.224, 335.317 797.019, 336.641 797.272 C 337.965 797.525, 339.289 797.342, 339.583 796.866 C 339.877 796.390, 341.018 796, 342.118 796 C 343.264 796, 343.840 795.550, 343.467 794.947 C 343.110 794.368, 342.324 794.059, 341.721 794.260 C 340.090 794.803, 337.272 791.727, 337.819 790 C 338.204 788.786, 338.037 788.739, 336.947 789.750 C 336.206 790.438, 334.903 790.993, 334.050 790.985 C 332.681 790.971, 332.675 790.844, 334 789.890 C 335.248 788.993, 335.192 788.911, 333.668 789.406 C 332.661 789.733, 331.622 790, 331.359 790 C 331.097 790, 331.113 790.373, 331.395 790.829 C 331.954 791.735, 329.779 791.585, 326.250 790.475 C 325.012 790.085, 324 789.383, 324 788.915 C 324 788.446, 323.251 788.350, 322.336 788.701 C 321.157 789.154, 320.901 788.970, 321.457 788.070 C 322.091 787.044, 321.787 787.044, 319.871 788.069 C 318.567 788.767, 317.275 789.218, 317 789.070 C 316.725 788.923, 315.712 788.381, 314.750 787.866 C 313.607 787.255, 313 787.289, 313 787.965 C 313 788.534, 312.523 789, 311.941 789 C 311.359 789, 311.203 788.480, 311.595 787.845 C 312.021 787.156, 311.871 786.961, 311.224 787.362 C 310.627 787.731, 309.855 787.574, 309.508 787.014 C 309.110 786.369, 308.248 786.332, 307.163 786.913 C 306.087 787.489, 304.755 787.442, 303.587 786.789 C 302.147 785.983, 301.905 786.037, 302.517 787.028 C 303.087 787.950, 302.915 788.063, 301.905 787.433 C 300.309 786.438, 284.690 785.769, 281.209 786.547 C 279.949 786.828, 279.169 787.464, 279.475 787.960 C 279.782 788.456, 279.506 789.187, 278.862 789.585 C 278.164 790.017, 277.958 789.877, 278.352 789.240 C 278.715 788.652, 278.447 787.943, 277.756 787.664 C 276.810 787.283, 276.800 787.138, 277.719 787.079 C 278.389 787.036, 278.678 786.325, 278.362 785.500 C 277.847 784.159, 278.981 783.523, 281.250 783.882 C 281.663 783.947, 282 783.499, 282 782.887 C 282 782.218, 283.199 781.949, 285.002 782.214 C 287.905 782.640, 287.955 782.581, 286.539 780.419 C 285.253 778.457, 285.253 778.035, 286.537 776.969 C 287.342 776.301, 287.968 775.023, 287.930 774.128 C 287.876 772.875, 287.661 772.961, 287 774.500 C 286.265 776.210, 286.130 776.246, 286.070 774.750 C 285.993 772.838, 284.486 772.404, 283.494 774.009 M 639.401 773.765 C 638.137 774.611, 637.906 778.176, 639.167 777.397 C 639.625 777.114, 640 776.271, 640 775.524 C 640 774.778, 640.563 773.940, 641.250 773.662 C 641.938 773.385, 642.050 773.129, 641.500 773.094 C 640.950 773.059, 640.006 773.361, 639.401 773.765 M 321.487 776.107 C 321.950 777.313, 321.454 777.622, 319.293 777.471 C 317.436 777.341, 317.259 777.419, 318.767 777.706 C 320.184 777.975, 320.768 778.579, 320.325 779.318 C 319.896 780.033, 320.267 779.972, 321.264 779.164 C 323.151 777.634, 325 778.385, 325 780.681 C 325 782.005, 325.247 782.040, 326.610 780.909 C 327.891 779.845, 327.942 779.489, 326.860 779.159 C 326.112 778.932, 324.463 777.801, 323.194 776.646 C 321.597 775.191, 321.073 775.026, 321.487 776.107 M 591.882 775.750 C 591.816 776.163, 591.824 776.859, 591.897 777.297 C 591.971 777.736, 591.462 778.020, 590.766 777.929 C 590.070 777.838, 588.905 777.816, 588.179 777.882 C 586.355 778.045, 588.558 780.203, 592.772 782.382 C 595.506 783.796, 595.866 783.814, 595.366 782.512 C 595.047 781.680, 594.047 780.970, 593.143 780.932 C 591.960 780.884, 592.137 780.557, 593.778 779.767 C 596.367 778.520, 596.195 776.336, 593.546 776.817 C 592.510 777.005, 592.068 776.700, 592.459 776.067 C 592.821 775.480, 592.866 775, 592.559 775 C 592.252 775, 591.947 775.337, 591.882 775.750 M 240.500 777.066 C 239.400 777.502, 238.838 777.947, 239.250 778.055 C 239.662 778.162, 240.450 778.362, 241 778.500 C 241.550 778.638, 242.113 778.864, 242.250 779.003 C 242.387 779.142, 243.512 779.361, 244.750 779.491 C 246.170 779.640, 247 779.185, 247 778.256 C 247 777.294, 246.423 777.007, 245.330 777.427 C 244.411 777.779, 243.399 777.664, 243.080 777.170 C 242.761 776.677, 241.600 776.630, 240.500 777.066 M 302.570 776.887 C 302.269 777.374, 302.692 778.329, 303.511 779.009 C 304.750 780.038, 305 779.889, 305 778.122 C 305 775.977, 303.579 775.254, 302.570 776.887 M 306.977 777.051 C 305.689 777.879, 305.686 778.119, 306.952 778.934 C 307.751 779.448, 308.763 779.646, 309.202 779.375 C 310.455 778.601, 310.135 780.008, 308.741 781.402 C 308.049 782.094, 306.811 782.478, 305.991 782.254 C 304.861 781.946, 304.808 782.065, 305.773 782.747 C 306.474 783.242, 308.432 783.443, 310.125 783.195 C 312.171 782.895, 312.771 782.477, 311.916 781.948 C 310.877 781.306, 310.900 780.800, 312.031 779.326 C 312.803 778.322, 313.035 777.838, 312.548 778.252 C 312.061 778.666, 310.941 778.351, 310.058 777.553 C 308.965 776.563, 307.984 776.403, 306.977 777.051 M 609.522 776.812 C 609.240 777.094, 607.440 777.265, 605.523 777.193 C 603.013 777.099, 601.747 777.603, 601.003 778.994 C 600.435 780.056, 599.398 780.706, 598.699 780.438 C 597.927 780.142, 597.363 780.837, 597.259 782.213 C 597.160 783.529, 597.395 783.979, 597.821 783.290 C 598.303 782.510, 599.056 782.424, 600.026 783.037 C 600.837 783.550, 602.400 783.946, 603.500 783.917 C 605.358 783.868, 605.340 783.788, 603.250 782.780 C 602.013 782.183, 601 781.287, 601 780.788 C 601 780.290, 601.520 780.203, 602.155 780.595 C 602.870 781.038, 603.038 780.870, 602.595 780.155 C 602.148 779.431, 602.619 779, 603.859 779 C 604.947 779, 606.622 778.699, 607.582 778.330 C 608.599 777.940, 609.080 778.062, 608.733 778.622 C 608.406 779.152, 609.114 779.658, 610.307 779.748 C 611.978 779.874, 612.141 779.705, 611.016 779.010 C 609.125 777.841, 610.204 776.757, 612.414 777.606 C 613.363 777.969, 613.873 778.888, 613.569 779.681 C 613.205 780.628, 613.437 780.845, 614.261 780.330 C 616.777 778.759, 618.027 779.081, 616.983 781.032 C 616.067 782.743, 613.421 782.997, 611.147 781.591 C 610.681 781.303, 610.343 782.823, 610.394 784.968 C 610.482 788.602, 610.606 788.761, 612.221 787.300 C 613.173 786.438, 613.731 785.374, 613.460 784.935 C 613.189 784.497, 613.494 783.813, 614.138 783.415 C 614.897 782.946, 615.040 783.126, 614.545 783.927 C 614.005 784.801, 614.472 785.066, 616.141 784.831 C 617.691 784.614, 618.406 784.954, 618.225 785.824 C 618.069 786.576, 618.431 786.852, 619.062 786.461 C 619.863 785.967, 619.870 785.470, 619.087 784.687 C 617.500 783.100, 617.746 782.300, 620 781.710 C 621.100 781.423, 622 780.709, 622 780.125 C 622 779.541, 621.251 779.350, 620.336 779.701 C 619.421 780.053, 618.923 779.926, 619.231 779.420 C 620.171 777.873, 617.697 776.505, 613.767 776.399 C 611.714 776.344, 609.804 776.530, 609.522 776.812 M 275 778.031 C 275 778.564, 274.463 778.888, 273.806 778.750 C 273.144 778.611, 272.588 779.612, 272.556 781 C 272.515 782.852, 273.018 783.500, 274.500 783.500 C 275.911 783.500, 276.404 782.942, 276.173 781.606 C 275.993 780.565, 276.369 779.390, 277.007 778.996 C 277.820 778.493, 277.693 778.096, 276.584 777.671 C 275.713 777.336, 275 777.499, 275 778.031 M 293.764 777.570 C 293.419 777.914, 293.362 778.781, 293.637 779.497 C 293.912 780.212, 293.656 781.095, 293.068 781.458 C 292.462 781.832, 291.993 781.335, 291.985 780.309 C 291.972 778.821, 291.806 778.758, 291.051 779.952 C 289.850 781.851, 290.573 782.908, 292.950 782.729 C 294.001 782.650, 294.665 782.267, 294.424 781.878 C 294.184 781.489, 294.512 780.996, 295.154 780.782 C 295.954 780.515, 296.017 779.853, 295.354 778.669 C 294.824 777.720, 294.108 777.226, 293.764 777.570 M 296 777.777 C 296 778.205, 296.659 779.496, 297.465 780.646 C 298.270 781.796, 298.742 782.925, 298.512 783.154 C 298.283 783.384, 298.941 783.571, 299.974 783.571 C 301.008 783.571, 301.658 783.256, 301.420 782.871 C 301.182 782.486, 301.553 781.943, 302.244 781.664 C 303.217 781.272, 303.206 781.140, 302.191 781.079 C 301.471 781.036, 301.161 780.549, 301.501 779.998 C 301.842 779.447, 300.939 778.547, 299.495 777.998 C 296.334 776.796, 296 776.775, 296 777.777 M 570.886 777.250 C 570.310 778.513, 570.284 783, 570.852 783 C 571.255 783, 571.566 781.650, 571.544 780 C 571.509 777.384, 571.274 776.400, 570.886 777.250 M 580.015 777.185 C 580.007 777.562, 580.427 778.994, 580.950 780.368 C 581.624 782.142, 581.552 783.008, 580.700 783.354 C 580.020 783.631, 580.233 783.876, 581.191 783.921 C 582.121 783.964, 583.114 783.625, 583.397 783.167 C 583.680 782.708, 585.393 782.551, 587.203 782.816 C 590.160 783.251, 590.356 783.134, 589.133 781.661 C 588.385 780.759, 587.262 780.342, 586.637 780.732 C 584.593 782.008, 581.999 782.015, 582.252 780.743 C 582.388 780.060, 582.886 779.219, 583.357 778.875 C 583.828 778.531, 583.715 777.942, 583.107 777.566 C 582.498 777.190, 581.993 777.471, 581.985 778.191 C 581.974 779.142, 581.704 779.090, 581 778 C 580.467 777.175, 580.024 776.808, 580.015 777.185 M 573 779.059 C 573 779.641, 573.412 779.864, 573.915 779.553 C 574.418 779.242, 575.010 779.530, 575.231 780.193 C 575.485 780.954, 575.874 780.772, 576.285 779.699 C 576.763 778.455, 576.410 778, 574.969 778 C 573.886 778, 573 778.477, 573 779.059 M 644.416 780.631 C 644.696 782.536, 645.515 783.123, 648.329 783.432 C 650.500 783.670, 650.686 783.470, 649.726 781.934 C 648.372 779.765, 644.137 778.726, 644.416 780.631 M 347 784 C 346.207 784.490, 345.890 785.223, 346.296 785.629 C 346.701 786.035, 347.558 785.842, 348.200 785.200 C 349.711 783.689, 348.868 782.846, 347 784 M 247.470 785.048 C 247.218 785.457, 247.707 786.057, 248.558 786.384 C 249.443 786.724, 249.843 786.555, 249.493 785.989 C 248.712 784.725, 249.628 784.731, 252.005 786.003 C 253.264 786.677, 254.085 786.671, 254.508 785.986 C 254.855 785.426, 255.557 785.226, 256.069 785.543 C 256.581 785.859, 257 785.754, 257 785.309 C 256.999 784.289, 248.090 784.045, 247.470 785.048 M 630.500 785 C 630.160 785.550, 630.246 786.007, 630.691 786.015 C 631.136 786.024, 630.838 786.449, 630.029 786.961 C 629.220 787.473, 628.882 788.216, 629.279 788.612 C 630.236 789.570, 630.972 788.739, 631.474 786.135 C 631.914 783.850, 631.505 783.374, 630.500 785 M 638.835 784.673 C 636.849 785.199, 635.692 787.692, 637.046 788.529 C 637.644 788.898, 637.588 789.902, 636.895 791.196 C 636.140 792.608, 635.554 792.897, 635.063 792.101 C 634.209 790.720, 631.007 791.706, 630.985 793.357 C 630.976 793.986, 630.533 793.825, 630 793 C 629.296 791.910, 629.026 791.858, 629.015 792.809 C 629.006 793.578, 628.484 793.816, 627.750 793.387 C 627.063 792.985, 627.276 793.544, 628.224 794.628 C 629.867 796.507, 629.843 796.692, 627.724 798.550 L 625.500 800.500 628.250 800.816 C 631.325 801.170, 631.942 803.421, 629.250 804.464 C 627.591 805.108, 627.590 805.209, 629.234 806.420 C 630.188 807.123, 630.706 807.960, 630.386 808.281 C 630.065 808.602, 630.747 808.617, 631.901 808.316 C 633.248 807.963, 634 808.238, 634 809.083 C 634 810.050, 634.296 810.104, 635.113 809.287 C 636.375 808.025, 635.357 805.661, 633.931 806.543 C 633.419 806.859, 633 806.416, 633 805.559 C 633 804.702, 633.337 804.014, 633.750 804.031 C 634.873 804.078, 638.244 809, 637.154 809 C 636.637 809, 635.936 809.725, 635.596 810.611 C 635.165 811.735, 635.410 812.057, 636.406 811.674 C 637.192 811.373, 638.097 811.810, 638.418 812.646 C 638.739 813.482, 639.563 813.963, 640.251 813.714 C 640.938 813.465, 642.279 813.939, 643.231 814.768 C 644.714 816.060, 645.208 816.077, 646.673 814.888 C 647.812 813.964, 648.133 813.918, 647.633 814.750 C 646.718 816.273, 648.422 816.380, 651.066 814.965 C 652.943 813.960, 653 814.427, 652.985 830.715 C 652.975 841.026, 652.556 848.079, 651.898 849 C 651.044 850.196, 650.931 850.028, 651.340 848.171 C 651.722 846.441, 651.487 845.983, 650.427 846.390 C 649.642 846.691, 649 846.501, 649 845.969 C 649 845.436, 648.663 845.053, 648.250 845.118 C 646.275 845.430, 645.651 844.872, 647 844 C 648.178 843.239, 647.936 843.027, 645.872 843.015 C 644.427 843.007, 642.689 843.670, 642.009 844.489 C 641.329 845.308, 640.328 845.703, 639.783 845.366 C 639.238 845.029, 639.530 845.880, 640.432 847.256 C 641.929 849.541, 641.933 849.812, 640.473 850.372 C 639.593 850.710, 639.158 851.446, 639.506 852.009 C 639.854 852.572, 640.466 852.830, 640.867 852.582 C 641.268 852.335, 642.249 852.587, 643.048 853.142 C 644.151 853.910, 644.200 854.274, 643.250 854.659 C 641.472 855.381, 641.692 857.056, 643.474 856.371 C 644.799 855.863, 648 858.016, 648 859.414 C 648 859.721, 633.938 860.097, 616.750 860.251 L 585.500 860.530 619.750 860.765 L 654 861 654 831.098 L 654 801.196 651.085 800.179 C 649.482 799.621, 647.873 799.461, 647.509 799.824 C 647.146 800.188, 646.995 799.138, 647.174 797.493 C 647.419 795.244, 647.127 794.586, 646 794.848 C 640.445 796.137, 639.754 796.083, 640.394 794.415 C 640.746 793.497, 640.464 792.042, 639.767 791.181 C 639.013 790.250, 638.960 789.892, 639.637 790.297 C 640.262 790.672, 641.338 790.298, 642.028 789.466 C 643.074 788.206, 643.009 788.059, 641.641 788.584 C 639.877 789.261, 639.342 787.524, 641 786.500 C 642.163 785.782, 642.355 783.945, 641.250 784.116 C 640.837 784.180, 639.751 784.430, 638.835 784.673 M 576.500 786.055 C 575.400 786.497, 574.893 786.891, 575.372 786.930 C 575.852 786.968, 575.676 787.686, 574.980 788.524 C 574.284 789.362, 574.004 790.337, 574.357 790.691 C 574.711 791.044, 575 790.881, 575 790.327 C 575 788.493, 579.388 787.120, 580.714 788.539 C 581.652 789.543, 581.435 790.135, 579.704 791.299 C 578.492 792.114, 577.871 793.164, 578.325 793.632 C 578.779 794.100, 579.589 793.700, 580.125 792.742 C 580.661 791.784, 581.738 791, 582.517 791 C 583.568 791, 583.720 790.417, 583.103 788.750 C 582.645 787.513, 581.872 786.493, 581.385 786.485 C 580.898 786.476, 580.050 786.195, 579.500 785.860 C 578.950 785.525, 577.600 785.612, 576.500 786.055 M 589.561 786.098 C 589.911 786.666, 589.121 786.880, 587.656 786.614 C 586.080 786.328, 584.951 786.686, 584.608 787.580 C 584.247 788.520, 584.751 789, 586.097 789 C 587.216 789, 588.937 789.431, 589.922 789.958 C 591.255 790.672, 592.260 790.406, 593.856 788.919 C 595.035 787.821, 596 786.640, 596 786.294 C 596 785.949, 595.741 785.926, 595.425 786.242 C 595.108 786.558, 593.525 786.437, 591.905 785.973 C 590.044 785.439, 589.182 785.485, 589.561 786.098 M 699.399 787.453 C 699.895 789.428, 699.755 789.966, 698.886 789.429 C 698.148 788.973, 697.954 789.116, 698.378 789.802 C 698.755 790.413, 699.648 790.689, 700.362 790.415 C 702.018 789.779, 701.764 785.755, 700.030 785.177 C 699.060 784.853, 698.895 785.446, 699.399 787.453 M 360.719 787.839 C 359.847 788.889, 360.027 789.105, 361.554 788.839 C 363.532 788.494, 363.649 788.943, 362.505 792.500 C 361.987 794.111, 362.128 794.056, 363.233 792.219 C 363.987 790.964, 364.990 790.289, 365.461 790.719 C 365.933 791.148, 366.036 790.712, 365.691 789.750 C 365.283 788.613, 365.557 788, 366.474 788 C 367.377 788, 367.737 788.769, 367.474 790.135 C 367.248 791.310, 367.333 792.001, 367.663 791.670 C 367.993 791.340, 369.216 791.535, 370.381 792.102 C 372.082 792.931, 372.007 792.731, 370 791.089 C 367.558 789.092, 367.551 789.044, 369.667 789.022 C 370.858 789.010, 372.040 789.563, 372.292 790.250 C 372.646 791.217, 373.061 791.184, 374.125 790.103 C 374.994 789.221, 375.040 788.966, 374.250 789.412 C 373.492 789.840, 373 789.528, 373 788.618 C 373 786.456, 371.150 785.630, 369.456 787.036 C 368.655 787.701, 368 787.852, 368 787.372 C 368 785.978, 361.941 786.366, 360.719 787.839 M 598.685 787.489 C 597.066 788.672, 597.083 788.788, 598.940 789.274 C 601.269 789.883, 603.843 787.537, 601.734 786.728 C 601.009 786.450, 599.637 786.792, 598.685 787.489 M 645 787 C 645 787.550, 644.888 788.295, 644.750 788.655 C 644.612 789.015, 645.290 789.425, 646.255 789.567 C 647.220 789.709, 647.756 789.414, 647.446 788.912 C 647.136 788.410, 647.471 787.993, 648.191 787.985 C 649.142 787.974, 649.090 787.704, 648 787 C 646.061 785.747, 645 785.747, 645 787 M 770.909 787.077 C 769.884 787.727, 770.249 787.974, 772.250 787.985 C 775.236 788.001, 775.774 787.511, 773.659 786.700 C 772.922 786.417, 771.684 786.587, 770.909 787.077 M 283.655 789.251 C 283.940 789.711, 283.668 790.695, 283.052 791.438 C 281.541 793.258, 284.579 796.343, 287.206 795.656 C 288.373 795.351, 288.965 795.606, 288.729 796.313 C 288.517 796.949, 287.131 797.563, 285.649 797.677 C 283.911 797.810, 283.195 797.494, 283.631 796.787 C 284.025 796.150, 283.850 795.974, 283.214 796.368 C 282.612 796.740, 281.305 796.223, 280.310 795.218 C 278.528 793.420, 275.916 792.807, 276.088 794.227 C 276.549 798.055, 277.432 799.046, 280.373 799.037 C 282.093 799.032, 284.625 799.035, 286 799.044 C 310.132 799.206, 317.322 798.978, 318.486 798.012 C 319.408 797.246, 320.023 797.228, 320.470 797.951 C 321.297 799.290, 332 799.335, 332 798 C 332 797.450, 330.875 797, 329.500 797 C 328.125 797, 327.112 796.595, 327.250 796.100 C 327.387 795.605, 327.050 795.200, 326.500 795.200 C 325.950 795.200, 325.624 795.638, 325.775 796.174 C 325.926 796.710, 325.569 796.851, 324.981 796.488 C 324.393 796.125, 323.171 796.429, 322.264 797.164 C 321.358 797.899, 320.871 798.050, 321.183 797.500 C 321.495 796.950, 321.388 795.600, 320.945 794.500 C 320.206 792.664, 320.135 792.652, 320.070 794.357 C 320.024 795.584, 319.491 796.019, 318.500 795.638 C 317.675 795.322, 317 795.400, 317 795.813 C 317 796.950, 312.186 797.110, 311.497 795.996 C 311.137 795.412, 309.897 795.677, 308.403 796.656 C 306.281 798.046, 305.544 798.094, 303.456 796.977 C 302.107 796.254, 301.216 795.450, 301.477 795.189 C 301.738 794.928, 302.597 795.251, 303.387 795.906 C 304.365 796.718, 305.028 796.763, 305.470 796.049 C 305.826 795.472, 305.589 795, 304.942 795 C 304.272 795, 303.984 794.168, 304.273 793.065 C 304.571 791.923, 304.188 790.902, 303.338 790.576 C 302.545 790.272, 302.097 790.355, 302.343 790.761 C 302.589 791.168, 302.186 792.058, 301.448 792.740 C 300.585 793.537, 299.884 793.621, 299.484 792.974 C 299.142 792.420, 298.443 792.226, 297.931 792.543 C 297.419 792.859, 297 792.416, 297 791.559 C 297 790.702, 297.563 789.971, 298.250 789.937 C 298.938 789.902, 298.436 789.447, 297.135 788.926 C 295.324 788.201, 294.003 788.453, 291.498 790.001 C 288.397 791.918, 284.366 791.835, 285.575 789.879 C 285.885 789.378, 286.627 789.269, 287.224 789.638 C 287.849 790.025, 288.023 789.847, 287.635 789.218 C 287.264 788.618, 286.101 788.192, 285.050 788.271 C 283.999 788.350, 283.371 788.791, 283.655 789.251 M 306.669 790.274 C 306.961 790.747, 307.439 790.894, 307.732 790.602 C 308.024 790.309, 309.076 790.506, 310.071 791.038 C 311.307 791.699, 312.105 791.639, 312.594 790.848 C 313.021 790.157, 312.872 789.961, 312.224 790.362 C 311.627 790.731, 310.873 790.604, 310.549 790.080 C 310.226 789.556, 309.101 789.192, 308.050 789.271 C 306.999 789.350, 306.377 789.802, 306.669 790.274 M 687.750 789.706 C 688.987 789.944, 691.013 789.944, 692.250 789.706 C 693.487 789.467, 692.475 789.272, 690 789.272 C 687.525 789.272, 686.513 789.467, 687.750 789.706 M 291.513 790.979 C 291.180 791.518, 291.454 792.980, 292.123 794.229 C 292.791 795.478, 293.228 796.714, 293.094 796.975 C 292.960 797.236, 293.402 797.634, 294.077 797.859 C 294.893 798.131, 295.117 797.554, 294.745 796.133 C 294.438 794.958, 294.595 794.249, 295.093 794.558 C 295.592 794.866, 296 794.599, 296 793.965 C 296 793.331, 294.988 792.543, 293.750 792.213 C 291.506 791.614, 291.506 791.611, 294 790.906 C 296.299 790.256, 296.324 790.191, 294.309 790.100 C 293.104 790.045, 291.846 790.441, 291.513 790.979 M 680.715 791.301 C 679.967 793.251, 682.438 793.718, 683.595 791.845 C 684.017 791.163, 683.872 790.961, 683.240 791.352 C 682.652 791.715, 681.990 791.470, 681.769 790.807 C 681.515 790.046, 681.126 790.228, 680.715 791.301 M 677 792.108 C 677 792.806, 675.980 792.980, 674.250 792.578 C 672.737 792.227, 671.950 792.290, 672.500 792.720 C 673.050 793.149, 673.607 794.625, 673.737 796 C 673.943 798.167, 673.835 798.264, 672.926 796.729 C 671.800 794.828, 670 795.267, 670 797.442 C 670 799.106, 674.346 799.980, 678.921 799.238 C 681.812 798.769, 682.077 798.539, 680.457 797.906 C 678.810 797.262, 678.946 797.129, 681.309 797.070 C 682.941 797.029, 683.859 797.419, 683.500 798 C 683.122 798.611, 684.656 799, 687.441 799 C 691.333 799, 692 798.708, 692 797 C 692 794.808, 690.532 794.330, 689.405 796.155 C 688.962 796.870, 689.130 797.038, 689.845 796.595 C 690.480 796.203, 691 796.359, 691 796.941 C 691 797.523, 689.875 798, 688.500 798 C 687.080 798, 686.108 797.480, 686.250 796.797 C 686.411 796.023, 684.894 795.521, 682 795.388 C 675.423 795.088, 675.341 795.057, 677.250 793.608 C 679.198 792.130, 679.522 791, 678 791 C 677.450 791, 677 791.499, 677 792.108 M 777 793.214 C 777 794.196, 777.342 795, 777.759 795 C 778.177 795, 779.021 794.196, 779.634 793.214 C 780.556 791.738, 780.424 791.429, 778.875 791.429 C 777.742 791.429, 777 792.135, 777 793.214 M 373.565 794.352 C 372.055 795.752, 371.086 797.331, 371.414 797.860 C 372.087 798.949, 364.597 800.487, 363.106 799.565 C 362.574 799.236, 361.856 799.425, 361.510 799.984 C 361.097 800.652, 365.093 800.978, 373.191 800.937 C 381.277 800.895, 384.755 800.573, 383.328 799.998 C 381.769 799.369, 381.307 798.540, 381.694 797.061 C 382.110 795.471, 381.761 795, 380.166 795 C 379.030 795, 377.697 794.281, 377.206 793.403 C 376.425 792.007, 375.966 792.127, 373.565 794.352 M 768.834 792.876 C 769.898 793.551, 769.831 793.851, 768.502 794.361 C 766.150 795.263, 765.781 795.164, 766.595 793.845 C 767.029 793.144, 766.871 792.962, 766.192 793.381 C 765.394 793.875, 765.375 794.729, 766.126 796.377 C 766.902 798.080, 768.068 798.716, 770.588 798.811 C 772.465 798.881, 774 798.590, 774 798.162 C 774 797.735, 772.627 797.480, 770.949 797.597 C 769.005 797.731, 768.045 797.389, 768.304 796.654 C 768.527 796.019, 769.900 795.630, 771.355 795.788 C 774.718 796.154, 774.773 794.673, 771.453 793.161 C 768.501 791.816, 766.884 791.640, 768.834 792.876 M 755 793.918 C 755 794.930, 758.891 797.455, 759.488 796.831 C 759.662 796.649, 758.723 795.691, 757.402 794.703 C 756.081 793.715, 755 793.362, 755 793.918 M 165 810 L 165 826 146.500 826 L 128 826 128 854.500 L 128 883 244 883 L 360 883 360 854.500 L 360 826 282 826 L 204 826 204 810 L 204 794 184.500 794 L 165 794 165 810 M 584 796.417 C 584 797.196, 583.438 798.060, 582.750 798.338 C 582.003 798.639, 582.205 798.874, 583.250 798.921 C 584.360 798.971, 585 798.268, 585 797 C 585 795.900, 584.775 795, 584.500 795 C 584.225 795, 584 795.638, 584 796.417 M 693.657 797.453 C 693.384 798.164, 694.550 798.696, 696.703 798.841 C 699.177 799.007, 700.067 798.701, 699.764 797.788 C 699.226 796.171, 694.253 795.898, 693.657 797.453 M 760.410 796.963 C 759.910 797.449, 758.150 798.038, 756.500 798.273 C 754.378 798.575, 754.890 798.744, 758.250 798.850 C 760.862 798.933, 763 798.577, 763 798.059 C 763 796.630, 761.436 795.968, 760.410 796.963 M 386.256 830.417 C 386.465 856.022, 386.716 860.393, 388 860.743 C 389.282 861.093, 389.291 861.007, 388.064 860.152 C 386.983 859.400, 386.906 858.818, 387.750 857.801 C 388.367 857.058, 389.033 855.241, 389.231 853.763 C 389.429 852.285, 389.875 850.791, 390.223 850.444 C 390.571 850.096, 390.671 851.316, 390.447 853.156 C 390.128 855.767, 390.238 856.062, 390.949 854.500 C 391.450 853.400, 391.891 851.277, 391.930 849.781 C 391.982 847.760, 391.615 847.210, 390.500 847.638 C 389.537 848.008, 389 847.618, 389 846.548 C 389 845.632, 388.550 845.160, 388 845.500 C 386.530 846.408, 386.679 819.487, 388.157 817.121 C 388.899 815.932, 390.033 815.457, 391.325 815.795 C 392.908 816.209, 393.197 815.956, 392.680 814.609 C 392.319 813.667, 392.433 813.150, 392.934 813.459 C 393.436 813.769, 393.740 812.634, 393.610 810.936 C 393.481 809.239, 392.892 807.546, 392.303 807.175 C 391.714 806.804, 391.061 805.600, 390.852 804.500 C 390.643 803.400, 389.804 802.500, 388.986 802.500 C 388.169 802.500, 387.165 802.050, 386.756 801.500 C 386.348 800.950, 386.123 813.963, 386.256 830.417 M 630.500 823.945 C 629.400 824.388, 628.163 824.554, 627.750 824.316 C 627.337 824.077, 627 824.374, 627 824.975 C 627 825.611, 628.151 825.879, 629.750 825.616 C 631.263 825.368, 632.837 825.127, 633.250 825.082 C 633.663 825.037, 634 824.550, 634 824 C 634 822.841, 633.273 822.830, 630.500 823.945 M 630.733 829.382 C 631.067 831.132, 631.687 831.633, 633.070 831.271 C 634.573 830.878, 634.748 830.398, 633.941 828.890 C 632.460 826.123, 630.177 826.474, 630.733 829.382 M 628.112 832.193 C 626.935 834.076, 626.995 834.523, 628.578 835.680 C 631.164 837.571, 632.475 835.785, 630.820 832.626 L 629.461 830.032 628.112 832.193 M 639.250 838.662 C 637.589 839.333, 637.648 841, 639.333 841 C 640.067 841, 640.667 840.325, 640.667 839.500 C 640.667 838.675, 640.629 838.036, 640.583 838.079 C 640.538 838.122, 639.938 838.385, 639.250 838.662 M 630.500 840 C 630.143 840.577, 631.070 840.994, 632.691 840.985 C 634.872 840.973, 635.165 840.753, 634 840 C 632.079 838.758, 631.267 838.758, 630.500 840 M 413.250 860.689 C 414.212 860.941, 415.788 860.941, 416.750 860.689 C 417.712 860.438, 416.925 860.232, 415 860.232 C 413.075 860.232, 412.288 860.438, 413.250 860.689 M 422.750 860.723 C 424.538 860.945, 427.462 860.945, 429.250 860.723 C 431.038 860.502, 429.575 860.320, 426 860.320 C 422.425 860.320, 420.962 860.502, 422.750 860.723 M 440.250 860.735 C 442.863 860.941, 447.137 860.941, 449.750 860.735 C 452.363 860.529, 450.225 860.360, 445 860.360 C 439.775 860.360, 437.637 860.529, 440.250 860.735 M 499.299 860.745 C 504.139 860.929, 511.789 860.928, 516.299 860.743 C 520.810 860.558, 516.850 860.408, 507.500 860.409 C 498.150 860.410, 494.460 860.562, 499.299 860.745 M 562.762 860.707 C 564.006 860.946, 565.806 860.937, 566.762 860.687 C 567.718 860.437, 566.700 860.241, 564.500 860.252 C 562.300 860.263, 561.518 860.468, 562.762 860.707" stroke="none" fill="currentColor" fill-rule="evenodd"/>
	<path fill-opacity="0.544" d="M 493 115.039 C 433.050 122.332, 383.621 156.785, 357.480 209.500 C 344.750 235.172, 339.661 256.369, 339.594 284 C 339.534 308.418, 342.912 326.335, 351.848 349 C 364.853 381.986, 392.456 414.161, 423.106 432.062 C 447.838 446.506, 475.555 454.494, 505 455.664 C 535.937 456.893, 562.258 451.353, 589.212 437.941 C 631.609 416.843, 662.429 380.880, 676.910 335.611 C 687.426 302.733, 687.077 264.983, 675.949 231.660 C 672.130 220.224, 662.670 200.729, 656.462 191.500 C 645.203 174.763, 628.665 157.774, 611.912 145.736 C 593.002 132.147, 565.685 120.733, 542 116.526 C 530.871 114.549, 503.784 113.727, 493 115.039 M 328 553.933 C 328 612.048, 328.108 615.898, 329.750 616.393 C 330.712 616.684, 336.900 618.043, 343.500 619.414 C 350.100 620.784, 369.675 624.879, 387 628.512 C 404.325 632.146, 422.775 635.976, 428 637.024 C 433.225 638.072, 441.775 639.864, 447 641.005 C 459.135 643.657, 509.594 654, 510.394 654 C 510.728 654, 511 626.109, 511 592.019 L 511 530.038 508.750 529.526 C 501.892 527.963, 483.241 524.027, 437.500 514.488 C 409.450 508.639, 373.724 501.186, 358.109 497.926 C 342.494 494.667, 329.331 492, 328.859 492 C 328.387 492, 328 519.870, 328 553.933 M 820.761 785.250 L 820.500 826.500 750.250 826.757 L 680 827.014 680 855.007 L 680 883.001 793.896 882.991 C 890.966 882.983, 907.873 882.774, 908.334 881.572 C 908.631 880.797, 908.916 868.201, 908.967 853.581 L 909.060 827 884.030 827 L 859 827 859 785.500 L 859 744 840.011 744 L 821.022 744 820.761 785.250 M 165 811 L 165 827 146.500 827 L 128 827 128 854.984 L 128 882.967 244 882.992 L 360 883.016 360 854.758 L 360 826.500 281.750 826.500 L 203.500 826.500 203.225 810.750 L 202.949 795 183.975 795 L 165 795 165 811" stroke="none" fill="currentColor" fill-rule="evenodd"/>
</svg>