<svg xmlns="http://www.w3.org/2000/svg" width="1024" height="1024" viewBox="0 0 1024 1024" version="1.1">
	<path fill-opacity="0.165" d="M 715.500 128.987 C 710.238 130.127, 599.511 150.494, 479 172.489 C 425.925 182.176, 374.400 191.629, 364.500 193.496 C 338.908 198.321, 235.635 217.384, 209.500 222.106 C 195.645 224.609, 185.853 226.899, 183.051 228.291 C 177.530 231.033, 173.479 236.061, 171.860 242.183 C 170.516 247.264, 169.537 240.967, 186.527 336.500 C 193.784 377.309, 206.872 451.536, 212.005 481 C 216.447 506.499, 219.913 526.045, 231.420 590.500 C 260.656 754.266, 258.799 744.848, 262.779 749.522 C 265.778 753.045, 270.556 755.892, 275.224 756.938 C 280.333 758.083, 285.977 757.082, 551.500 707.927 C 560.300 706.298, 588.200 701.170, 613.500 696.531 C 638.800 691.892, 680.425 684.228, 706 679.501 C 731.575 674.774, 767.350 668.210, 785.500 664.915 C 803.650 661.620, 819.850 658.404, 821.500 657.768 C 828.667 655.003, 834.135 648.418, 835.509 640.896 C 835.957 638.446, 834.523 628.199, 831.031 608.896 C 824.988 575.493, 794.045 404.581, 790.495 385 C 789.149 377.575, 785.318 356.200, 781.982 337.500 C 778.646 318.800, 772.582 285.050, 768.506 262.500 C 764.429 239.950, 757.891 203.725, 753.975 182 C 746.132 138.481, 745.437 136.303, 737.785 131.239 C 734.407 129.003, 732.426 128.487, 726.590 128.322 C 722.691 128.212, 717.700 128.511, 715.500 128.987 M 657.263 185.514 C 638.065 189.685, 623.155 205.722, 619.794 225.815 C 616.497 245.526, 627.813 266.786, 646.265 275.549 C 665.905 284.876, 686.678 281.507, 701.613 266.572 C 720.495 247.690, 720.432 217.395, 701.471 198.434 C 694.440 191.403, 685.797 186.770, 676.566 185.084 C 669.101 183.720, 665.110 183.809, 657.263 185.514 M 263 258.615 L 228.500 264.959 225.250 268.465 C 222.959 270.936, 222.001 272.934, 222.004 275.235 C 222.008 278.354, 233.384 344.342, 234.635 348.500 C 235.549 351.539, 238.139 354.123, 241.840 355.689 C 244.932 356.997, 247.908 356.610, 281.840 350.483 C 306.243 346.076, 319.336 343.279, 321 342.117 C 322.375 341.157, 324.331 338.699, 325.347 336.655 L 327.194 332.940 320.504 296.720 C 316.825 276.799, 313.089 259.270, 312.201 257.766 C 310.211 254.394, 305.296 251.956, 300.849 252.135 C 299.007 252.209, 281.975 255.125, 263 258.615 M 486.597 283.139 C 441.742 288.894, 400.520 309.682, 369.417 342.229 C 354.866 357.456, 345.862 370.347, 335.870 390.259 C 303.510 454.745, 311.039 535.462, 354.859 593.829 C 358.738 598.996, 360.001 601.381, 359.139 601.914 C 358.467 602.330, 355.123 603.169, 351.708 603.780 C 348.294 604.391, 333.800 606.960, 319.500 609.489 C 305.200 612.018, 292.209 614.594, 290.632 615.214 C 287.034 616.627, 284.009 621.475, 284.004 625.834 C 284.001 628.651, 287.469 649.478, 294.496 688.832 C 296.265 698.738, 298.210 702.397, 302.883 704.615 C 306.115 706.149, 307.012 706.143, 315.927 704.534 C 321.192 703.584, 337.861 700.606, 352.968 697.917 C 378.553 693.361, 380.627 692.835, 383.223 690.239 C 388.637 684.824, 388.584 683.866, 380.458 640.606 C 378.506 630.215, 377.042 621.091, 377.204 620.331 C 377.397 619.429, 379.654 620.753, 383.711 624.149 C 401.186 638.776, 427.548 653.817, 448.079 660.874 C 503.392 679.888, 568.961 671.494, 617.500 639.186 C 642.963 622.238, 667.548 596.139, 679.914 572.932 C 682.275 568.500, 684.422 565.089, 684.685 565.352 C 684.948 565.614, 684.672 569.130, 684.072 573.165 C 680.219 599.071, 698.541 623.247, 724.855 626.979 C 753.501 631.042, 779 608.917, 779 580 C 779 561.054, 769.184 545.152, 752.334 536.803 C 744.689 533.015, 742.997 532.568, 734.801 532.176 C 718.521 531.398, 706.863 535.761, 696.440 546.534 L 690.380 552.797 694.668 540.980 C 703.306 517.173, 707.230 487.858, 705.171 462.522 C 703.034 436.236, 697.153 414.335, 686.045 391.301 C 657.939 333.014, 602.456 292.693, 537.687 283.485 C 526.480 281.892, 497.829 281.697, 486.597 283.139 M 496.500 304.983 C 462 308.025, 429.905 320.659, 403.733 341.501 C 352.288 382.469, 328.961 446.754, 342.076 511.419 C 355.609 578.151, 408.735 630.709, 477.190 645.089 C 493.259 648.465, 521.402 648.906, 538.271 646.047 C 621.961 631.861, 682.841 560.659, 682.980 476.801 C 683.056 431.788, 666.725 390.445, 636.500 359.133 C 614.215 336.046, 591.800 321.818, 563.178 312.591 C 543.150 306.135, 517.123 303.165, 496.500 304.983 M 541.357 440.042 C 530.340 441.570, 519.690 448.642, 514.758 457.704 C 504.792 476.014, 511.721 499.322, 529.771 508.208 C 536.051 511.300, 537.100 511.500, 547 511.500 C 556.914 511.500, 557.943 511.303, 564.271 508.187 C 567.972 506.365, 571 504.285, 571 503.563 C 571 502.554, 568.564 497.523, 565.545 492.297 C 565.480 492.186, 563.145 493.224, 560.355 494.605 C 557.564 495.986, 552.760 497.376, 549.679 497.694 C 544.900 498.187, 543.258 497.871, 538.508 495.548 C 530.791 491.772, 527.013 485.337, 527.031 476 C 527.045 469.077, 529.203 462.845, 532.645 459.788 C 533.706 458.847, 536.772 457.104, 539.459 455.915 C 545.469 453.257, 553.477 453.672, 559.958 456.979 C 563.459 458.765, 564.442 458.927, 565.176 457.840 C 566.354 456.095, 571 447.184, 571 446.670 C 571 445.749, 558.647 440.827, 555.226 440.384 C 547.419 439.374, 546.362 439.348, 541.357 440.042 M 382 476 L 382 511 390 511 L 398 511 398 499.613 L 398 488.227 408.250 487.809 C 416.279 487.482, 419.408 486.918, 422.692 485.205 C 430.139 481.321, 434.017 474.069, 433.978 464.101 C 433.950 456.915, 431.417 451.369, 426.077 446.798 C 420.400 441.939, 415.783 441, 397.557 441 L 382 441 382 476 M 449.627 475.235 C 442.132 494.106, 436 509.892, 436 510.314 C 436 510.736, 439.676 510.950, 444.169 510.790 L 452.337 510.500 454.807 503.750 L 457.276 497 471.057 497 L 484.837 497 487.024 503.572 C 488.227 507.186, 489.766 510.357, 490.444 510.617 C 491.122 510.877, 495.080 510.957, 499.239 510.795 L 506.801 510.500 493.006 476 L 479.211 441.500 471.232 441.212 L 463.254 440.923 449.627 475.235 M 581 476.088 L 581 511.176 588.750 510.855 L 596.500 510.533 597 494.694 L 597.500 478.855 610.229 494.927 L 622.959 511 632.479 511 C 637.716 511, 642 510.783, 642 510.517 C 642 510.251, 635.445 501.882, 627.434 491.918 C 614.453 475.774, 613.022 473.623, 614.281 472.151 C 620.124 465.320, 632.267 450.792, 635.861 446.335 L 640.222 440.925 630.407 441.212 L 620.593 441.500 609.047 455.785 L 597.500 470.070 597.223 455.535 L 596.947 441 588.973 441 L 581 441 581 476.088 M 398 464.475 L 398 475.219 405.437 474.843 C 414.617 474.379, 418 471.964, 418 465.873 C 418 457.732, 414.826 454.935, 404.774 454.216 L 398 453.731 398 464.475 M 466.725 470.757 C 464.649 476.666, 462.849 481.950, 462.725 482.500 C 462.496 483.518, 476.252 484.501, 478.523 483.629 C 479.380 483.301, 478.529 479.782, 475.617 471.598 C 473.353 465.236, 471.275 460.027, 471 460.023 C 470.725 460.018, 468.801 464.848, 466.725 470.757 M 141.479 784.035 C 141.127 784.603, 140.970 810.253, 141.131 841.035 L 141.422 897 511.711 897 L 882 897 882 840 L 882 783 512.059 783 C 258.282 783, 141.917 783.325, 141.479 784.035" stroke="none" fill="currentColor" fill-rule="evenodd"/>
	<path fill-opacity="0.192" d="M 675.500 136.650 C 650.750 141.281, 592.475 152.010, 546 160.494 C 394.118 188.218, 379.873 190.829, 347.500 196.889 C 308.970 204.102, 217.220 221.023, 200.500 223.999 C 184.794 226.795, 178.940 229.448, 175.093 235.514 C 173.474 238.067, 171.873 241.808, 171.534 243.828 C 171.133 246.226, 172.505 256.345, 175.491 273 C 181.049 304.006, 214.301 492.105, 222.603 539.500 C 223.952 547.200, 230.236 582.525, 236.567 618 C 242.898 653.475, 249.879 692.625, 252.081 705 C 259.456 746.459, 259.380 746.181, 264.661 751.197 C 268.455 754.801, 273.987 757, 279.260 757 C 284.160 757, 320.269 750.473, 525.500 712.491 C 562.350 705.671, 608.475 697.165, 628 693.589 C 770.804 667.430, 821.332 657.880, 823.873 656.565 C 830.745 653.012, 836.895 641.807, 835.476 635.425 C 835.241 634.366, 833.215 623.150, 830.974 610.500 C 828.733 597.850, 819.930 549.025, 811.411 502 C 796.056 417.234, 787.683 370.804, 782.019 339 C 780.402 329.925, 776.155 306.300, 772.579 286.500 C 769.004 266.700, 761.783 226.650, 756.533 197.500 C 751.283 168.350, 746.265 142.852, 745.381 140.837 C 741.970 133.060, 733.831 127.909, 725.282 128.116 C 722.652 128.179, 700.250 132.020, 675.500 136.650 M 657 185.098 C 645.653 187.314, 632.475 196.840, 626.105 207.430 C 609.433 235.150, 624.204 271.307, 655.535 279.467 C 681.540 286.241, 709.284 269.282, 714.866 243.201 C 720.353 217.563, 704.727 192.113, 679.458 185.531 C 673.095 183.874, 664.152 183.701, 657 185.098 M 263 258.411 C 228.526 264.762, 225.356 265.728, 223.154 270.561 C 221.354 274.512, 221.712 278.458, 226.075 302.782 C 231.314 331.989, 233.985 347.316, 233.993 348.215 C 234.012 350.224, 240.499 356.002, 243.326 356.529 C 247.651 357.334, 317.115 344.636, 321.026 342.325 C 325.892 339.451, 327.484 334.788, 326.243 327.042 C 323.273 308.500, 313.874 259.633, 312.943 257.894 C 311.135 254.516, 305.921 251.997, 301 252.124 C 298.525 252.188, 281.425 255.017, 263 258.411 M 493.564 282.080 C 463.181 284.969, 431.737 295.582, 406.627 311.422 C 393.438 319.742, 381.628 329.553, 368.851 342.805 C 342.763 369.865, 325.590 403.664, 318.377 442.146 C 316.244 453.527, 315.412 486.211, 316.938 498.710 C 321.328 534.692, 334.382 567.239, 355.699 595.349 C 358.138 598.567, 359.933 601.401, 359.686 601.647 C 359.282 602.051, 316.340 609.970, 298.275 612.972 C 290.183 614.316, 286.472 616.626, 284.388 621.614 C 283.145 624.590, 283.478 627.514, 287.988 653.197 C 295.746 697.376, 295.830 697.815, 297.011 700.021 C 298.488 702.780, 303.871 705.994, 307 705.985 C 312.767 705.969, 379.942 693.268, 382.245 691.759 C 383.596 690.874, 385.487 688.493, 386.448 686.468 C 388.509 682.124, 388.655 683.388, 381.910 647.059 C 379.209 632.516, 377 620.214, 377 619.722 C 377 619.230, 380.533 621.774, 384.851 625.375 C 410.648 646.892, 440.486 661.074, 474.784 668.119 C 489.058 671.052, 520.472 671.784, 536.394 669.556 C 563.134 665.813, 588.466 656.926, 611.500 643.208 C 637.723 627.589, 664.292 600.370, 680.274 572.750 C 685.006 564.574, 685.041 564.540, 684.274 569 C 682.808 577.524, 683.491 588.179, 685.950 595.145 C 696.600 625.311, 731.877 637.128, 758.511 619.449 C 765.655 614.707, 770.273 609.234, 774.730 600.223 C 777.992 593.632, 778.374 591.977, 778.788 582.653 C 779.496 566.753, 776.053 557.239, 765.579 546.154 C 756.123 536.145, 745.594 531.763, 731 531.763 C 716.314 531.763, 705.446 536.470, 695.445 547.162 C 692.831 549.957, 691.047 551.401, 691.480 550.371 C 691.912 549.342, 693.969 543.550, 696.050 537.500 C 708.334 501.782, 709.094 458.312, 698.080 421.390 C 673.825 340.079, 601.640 284.497, 516.509 281.581 C 509.354 281.336, 499.029 281.561, 493.564 282.080 M 488.500 306.044 C 467.626 309.217, 452.400 313.800, 435.500 321.994 C 390.304 343.908, 357.754 383.074, 344.486 431.506 C 339.051 451.348, 337.448 479.579, 340.547 500.872 C 352.878 585.593, 425.468 648.130, 511.301 647.980 C 584.720 647.852, 650.794 600.063, 673.934 530.353 C 681.501 507.560, 684.070 486.706, 682.156 463.630 C 680.048 438.212, 674.528 418.563, 663.460 397.084 C 639.997 351.547, 595.502 318.249, 544.299 307.911 C 535.907 306.216, 529.154 305.663, 514 305.431 C 503.275 305.266, 491.800 305.542, 488.500 306.044 M 537.024 440.539 C 519.522 445.448, 509.046 460.239, 510.212 478.397 C 511.051 491.481, 518.634 503.227, 529.750 508.666 C 534.038 510.764, 537.192 511.474, 543.764 511.819 C 554.047 512.358, 561.209 510.887, 567.392 506.967 L 572.039 504.020 569.005 498.010 C 567.336 494.704, 565.735 492, 565.446 492 C 565.157 492, 563.177 492.889, 561.046 493.977 C 543.977 502.685, 527.044 493.733, 527.044 476 C 527.044 465.652, 532.422 458.132, 541.787 455.387 C 548.048 453.551, 553.406 454.186, 560.087 457.555 L 564.674 459.869 568.087 453.478 C 571.457 447.168, 571.475 447.069, 569.500 445.566 C 562.610 440.323, 546.620 437.847, 537.024 440.539 M 382 475.921 L 382 511 390 511 L 398 511 398 500 C 398 491.874, 398.327 488.996, 399.250 488.986 C 416.174 488.803, 423.338 486.796, 428.644 480.753 C 432.936 475.864, 434.278 471.173, 433.844 462.576 C 433.394 453.671, 430.399 448.494, 423.272 444.305 C 418.586 441.551, 418.170 441.494, 400.250 441.171 L 382 440.841 382 475.921 M 462.018 443.250 C 461.266 445.052, 446.571 481.931, 436.915 506.250 L 435.029 511 443.794 511 L 452.559 511 455.052 504.250 L 457.545 497.500 471 497.500 L 484.455 497.500 486.948 504.250 L 489.441 511 498.328 511 C 506.376 511, 507.152 510.835, 506.552 509.250 C 506.187 508.288, 499.952 492.547, 492.695 474.272 L 479.500 441.044 471.229 441.022 C 463.586 441.002, 462.886 441.171, 462.018 443.250 M 581 476 L 581 511 589 511 L 597 511 597 495.500 C 597 486.975, 597.337 480.030, 597.750 480.066 C 598.163 480.102, 603.889 487.077, 610.476 495.566 L 622.452 511 632.226 511 C 637.602 511, 642 510.721, 642 510.381 C 642 510.040, 635.700 501.883, 628 492.254 C 620.300 482.625, 614.012 474.241, 614.027 473.623 C 614.042 473.005, 619.460 466.200, 626.067 458.500 C 632.674 450.800, 638.528 443.712, 639.075 442.750 C 639.994 441.134, 639.323 441.003, 630.285 441.039 L 620.500 441.077 609 455.255 L 597.500 469.433 597.223 455.216 L 596.945 441 588.973 441 L 581 441 581 476 M 398.214 464.735 L 398.500 474.470 402.500 474.384 C 412.138 474.178, 413.138 473.953, 415.667 471.424 C 417.905 469.186, 418.174 468.239, 417.720 464.207 C 416.932 457.215, 413.850 455, 404.908 455 L 397.928 455 398.214 464.735 M 467.113 470.755 C 465.250 476.115, 463.514 481.063, 463.256 481.750 C 462.904 482.687, 464.845 483, 471 483 C 477.144 483, 479.101 482.685, 478.765 481.750 C 478.519 481.063, 476.783 476.113, 474.908 470.752 C 473.034 465.390, 471.275 461.005, 471 461.007 C 470.725 461.008, 468.976 465.395, 467.113 470.755 M 142 840 L 142 897 512 897 L 882 897 882 840 L 882 783 512 783 L 142 783 142 840" stroke="none" fill="currentColor" fill-rule="evenodd"/>
	<path fill-opacity="0.430" d="M 710 130.555 C 696.198 133.295, 661.445 139.734, 591 152.603 C 479.207 173.024, 439.116 180.340, 418.500 184.077 C 406.400 186.271, 377.375 191.637, 354 196.002 C 316.339 203.035, 252.016 214.932, 202.594 224.006 C 193.296 225.713, 184.454 227.748, 182.945 228.529 C 176.217 232.008, 170.517 242.436, 171.642 249.207 C 171.852 250.468, 174.470 265.225, 177.461 282 C 180.452 298.775, 188.564 344.675, 195.488 384 C 214.945 494.511, 225.423 553.761, 233.507 599 C 237.587 621.825, 245.008 663.388, 249.999 691.362 C 258.956 741.564, 260.364 747.308, 264.662 751.195 C 267.544 753.802, 275.146 756.954, 278.611 756.978 C 282.489 757.005, 343.974 745.828, 548 708.005 C 577.425 702.550, 613.875 695.840, 629 693.093 C 644.125 690.347, 680.800 683.602, 710.500 678.103 C 740.200 672.605, 777.100 665.797, 792.500 662.976 C 823.412 657.311, 826.508 656.213, 831.456 649.160 C 836.259 642.313, 835.808 637.310, 825.140 579 C 808.954 490.531, 796.392 421.232, 785.077 358 C 775.896 306.689, 758.830 211.981, 748.502 155.021 C 745.725 139.712, 743.376 135.139, 736.270 131.210 C 730.237 127.875, 724.249 127.726, 710 130.555 M 651.893 186.320 C 636.910 191.732, 626.068 202.838, 620.970 218 C 618.114 226.492, 618.567 241.480, 621.938 250.044 C 626.687 262.109, 638.336 273.603, 650.496 278.220 C 659.189 281.521, 676.889 281.468, 685.324 278.116 C 698.684 272.806, 709.944 260.579, 714.112 246.857 C 716.874 237.764, 716.414 223.548, 713.074 214.808 C 708.513 202.870, 697.250 191.577, 685.243 186.903 C 680.962 185.236, 676.827 184.574, 669 184.301 C 659.873 183.982, 657.636 184.246, 651.893 186.320 M 300 251.649 C 262.395 257.932, 229.047 264.428, 227 265.869 C 225.625 266.837, 223.675 269.288, 222.667 271.317 C 220.854 274.963, 220.868 275.198, 223.878 292.252 C 232.442 340.762, 234.048 349.220, 235.045 351.083 C 236.661 354.104, 242.038 356.995, 246 356.974 C 251.045 356.947, 318.306 344.442, 320.915 343.045 C 324.011 341.389, 326.992 336.084, 326.996 332.224 C 327.001 328.127, 315.272 263.459, 313.869 259.849 C 311.866 254.693, 305.238 250.774, 300 251.649 M 487 282.560 C 415.695 291.625, 355.239 338.186, 329.035 404.218 C 303.501 468.560, 313.863 540.532, 356.878 597.621 L 359.983 601.741 356.741 602.285 C 323.703 607.826, 290.501 614.281, 288.588 615.534 C 286.039 617.204, 283 622.631, 283 625.512 C 283 626.452, 284.104 633.359, 285.454 640.861 C 286.804 648.362, 289.519 663.725, 291.486 675 C 295.534 698.194, 296.109 700.072, 300.206 703.520 C 304.207 706.886, 307.072 706.757, 332.858 702.046 C 344.761 699.872, 360.125 697.145, 367 695.987 C 373.875 694.829, 380.534 693.209, 381.798 692.387 C 385.012 690.295, 387.992 685.059, 387.994 681.500 C 387.995 678.858, 378.899 627.475, 377.288 621.022 C 376.756 618.893, 377.501 619.287, 382.584 623.823 C 408.054 646.548, 445.947 664.030, 481.795 669.593 C 496.242 671.834, 524.868 671.843, 539 669.609 C 581.718 662.858, 619.063 643.897, 649.509 613.500 C 661.787 601.242, 673.488 585.854, 680.686 572.500 L 683.920 566.500 683.333 575 C 682.253 590.650, 687.227 604.143, 697.791 614.219 C 726.393 641.501, 773.426 625.668, 779.096 586.848 C 784.364 550.784, 749.062 521.713, 714.717 533.831 C 708.334 536.084, 697.408 543.419, 694.015 547.731 C 692.467 549.699, 692.041 549.922, 692.544 548.500 C 703.004 518.932, 706 502.746, 706 475.811 C 706 401.159, 663.995 334.058, 596.596 301.042 C 562.637 284.407, 523.879 277.871, 487 282.560 M 492.500 306.027 C 438.228 312.178, 390.982 342.292, 363.109 388.500 C 336.280 432.979, 331.720 490.372, 351.116 539.444 C 372.127 592.599, 419.835 632.492, 476.192 644.030 C 496.500 648.188, 522.235 648.545, 541.369 644.935 C 604.751 632.977, 656.373 587.114, 674.892 526.310 C 680.695 507.259, 681.466 501.485, 681.484 477 C 681.498 457.448, 681.199 453.015, 679.204 443.166 C 674.553 420.212, 665.483 398.420, 652.748 379.603 C 643.940 366.590, 621.570 344.468, 607.890 335.244 C 587.469 321.475, 564.963 312.173, 542 308.011 C 528.787 305.616, 504.660 304.649, 492.500 306.027 M 534.287 440.936 C 523.451 444.921, 515.798 452.328, 511.672 462.824 C 509.544 468.239, 509.131 480.331, 510.864 486.500 C 513.912 497.348, 522.914 507.072, 533.230 510.658 C 540.955 513.343, 554.744 513.121, 562 510.195 C 565.025 508.975, 568.623 507.110, 569.995 506.050 L 572.490 504.122 569.217 497.487 C 567.418 493.837, 565.620 491.019, 565.223 491.224 C 554.848 496.566, 552.687 497.213, 546.523 496.821 C 538.872 496.333, 533.542 493.089, 529.980 486.750 C 526.772 481.043, 526.592 471.239, 529.589 465.500 C 534.689 455.734, 547.242 452.217, 558.538 457.389 C 561.675 458.825, 564.390 460, 564.572 460 C 564.754 460, 566.564 457.029, 568.594 453.398 C 572.762 445.946, 572.982 446.478, 564 442.294 C 556.429 438.767, 541.979 438.106, 534.287 440.936 M 381 475.500 L 381 511 390 511 L 399 511 399 500 L 399 489 406.341 489 C 419.303 489, 427.865 484.933, 432.249 476.692 C 434.034 473.336, 434.471 470.905, 434.440 464.500 C 434.396 455.255, 433.115 452.144, 427.124 446.731 C 421.065 441.257, 415.404 440, 396.818 440 L 381 440 381 475.500 M 462.689 440.711 C 462.026 441.809, 435 509.958, 435 510.533 C 435 510.790, 439.011 511, 443.913 511 L 452.825 511 455.212 504.750 L 457.598 498.500 471.045 498.500 L 484.492 498.500 486.617 504.500 L 488.742 510.500 497.871 510.788 C 504.815 511.006, 506.990 510.767, 506.957 509.788 C 506.934 509.079, 500.746 493.200, 493.207 474.500 L 479.500 440.500 471.333 440.211 C 466.841 440.052, 462.952 440.277, 462.689 440.711 M 580.524 440.961 C 580.171 441.533, 579.979 457.525, 580.099 476.500 L 580.316 511 589.132 511 L 597.948 511 598.224 496.056 L 598.500 481.112 609.914 495.650 C 616.192 503.646, 621.849 510.389, 622.485 510.633 C 623.122 510.877, 628.046 510.947, 633.429 510.788 L 643.216 510.500 628.527 492.200 L 613.839 473.900 616.372 470.700 C 617.765 468.940, 623.834 461.652, 629.859 454.504 C 635.885 447.357, 640.604 441.169, 640.348 440.754 C 640.092 440.339, 635.649 440, 630.475 440 L 621.068 440 609.784 453.834 L 598.500 467.667 598 454.084 L 597.500 440.500 589.333 440.211 C 584.444 440.038, 580.909 440.339, 580.524 440.961 M 399 464.384 L 399 474 405.365 474 C 414.095 474, 417 471.779, 417 465.102 C 417 458.242, 414.077 455.727, 405.468 455.179 L 399 454.767 399 464.384 M 466.871 472.554 L 463.241 483 471.077 483 L 478.914 483 475.392 473.250 C 473.456 467.887, 471.563 463.187, 471.186 462.804 C 470.809 462.421, 468.867 466.808, 466.871 472.554 M 142 840.501 L 142 897.003 511.750 896.751 L 881.500 896.500 881.786 843.500 C 881.944 814.350, 881.811 789.038, 881.491 787.250 L 880.909 784 511.455 784 L 142 784 142 840.501" stroke="none" fill="currentColor" fill-rule="evenodd"/>
	<path fill-opacity="0.449" d="M 715.500 130.039 C 710.421 131.081, 597.173 152.029, 578.500 155.381 C 570.800 156.764, 541.100 162.173, 512.500 167.401 C 483.900 172.630, 441.825 180.315, 419 184.479 C 396.175 188.644, 365.800 194.258, 351.500 196.956 C 337.200 199.653, 309.300 204.842, 289.500 208.485 C 269.700 212.129, 246.525 216.420, 238 218.021 C 229.475 219.622, 214.625 222.324, 205 224.026 C 185.835 227.414, 180.469 229.385, 176.602 234.455 C 172.101 240.356, 171.362 245.469, 173.387 256.691 C 174.361 262.086, 176.428 273.700, 177.980 282.500 C 179.531 291.300, 186.898 332.925, 194.350 375 C 212.678 478.479, 220.310 521.742, 225.577 552 C 228.019 566.025, 230.669 580.875, 231.468 585 C 232.266 589.125, 238.811 625.800, 246.011 666.500 C 253.211 707.200, 259.840 742.226, 260.741 744.335 C 264.397 752.888, 274.217 757.706, 284.500 755.992 C 289.936 755.086, 323.563 748.962, 353 743.519 C 363.175 741.637, 391.075 736.500, 415 732.104 C 438.925 727.708, 487.975 718.656, 524 711.990 C 560.025 705.323, 605.250 696.985, 624.500 693.461 C 643.750 689.937, 670.525 685.008, 684 682.509 C 697.475 680.010, 726.950 674.577, 749.500 670.437 C 811.141 659.119, 820.690 657.212, 823.827 655.589 C 828.173 653.342, 832.498 647.865, 833.910 642.820 C 835.287 637.903, 835.020 636.226, 817.605 540.500 C 800.786 448.049, 797.926 432.222, 781.019 338 C 774.850 303.624, 762.012 232.395, 752.982 182.450 C 749.198 161.523, 745.601 143.073, 744.988 141.450 C 741.248 131.554, 729.771 127.113, 715.500 130.039 M 656.335 184.423 C 644.862 187.205, 632.083 196.266, 626.245 205.758 C 620.467 215.152, 618.657 221.553, 618.683 232.500 C 618.718 247.956, 623.587 259.015, 634.725 268.943 C 654.912 286.935, 684.279 285.917, 702.846 266.582 C 721.075 247.598, 721.361 218.415, 703.507 199.202 C 691.230 185.992, 673.182 180.337, 656.335 184.423 M 263.353 257.507 C 241.770 261.496, 228.230 264.458, 226.552 265.558 C 223.321 267.675, 221 271.925, 221 275.724 C 221 277.277, 222.119 284.836, 223.488 292.524 C 224.856 300.211, 227.598 315.950, 229.580 327.500 C 233.523 350.468, 234.762 353.710, 240.661 356.510 C 244.841 358.493, 244.616 358.515, 271 353.519 C 281.175 351.593, 296.025 348.850, 304 347.425 C 320.753 344.431, 324.143 342.812, 326.484 336.680 C 328.001 332.708, 327.978 331.747, 326.116 321.470 C 317.921 276.233, 314.780 260.475, 313.443 257.890 C 311.330 253.804, 306.373 250.987, 301.500 251.102 C 299.300 251.154, 282.134 254.036, 263.353 257.507 M 486.597 282.076 C 464.571 285.102, 445.033 290.910, 426.028 300.082 C 411.499 307.094, 403.675 311.857, 392.199 320.676 C 387.633 324.184, 383.401 326.748, 382.794 326.373 C 382.181 325.994, 381.971 326.144, 382.322 326.712 C 383.028 327.854, 379.717 331.289, 378.669 330.502 C 378.301 330.226, 378.227 330.302, 378.504 330.671 C 378.781 331.040, 374.985 335.427, 370.068 340.421 C 355.040 355.681, 345.682 368.811, 334.956 389.686 C 315.362 427.817, 309.797 477.174, 320.115 521.299 C 326.245 547.511, 339.056 574.906, 354.702 595.257 C 357.737 599.205, 358.715 601.159, 357.814 601.475 C 357.091 601.729, 347.275 603.560, 336 605.544 C 284.652 614.579, 290.028 613.302, 286.324 617.344 C 282.163 621.884, 282.067 624.809, 285.462 643.757 C 286.816 651.316, 289.514 666.454, 291.456 677.398 C 293.448 688.616, 295.767 698.649, 296.772 700.398 C 297.753 702.104, 300.278 704.347, 302.383 705.383 C 306.154 707.237, 306.389 707.233, 318.355 705.109 C 371.736 695.630, 380.112 693.972, 382.489 692.415 C 383.926 691.473, 385.806 689.342, 386.667 687.678 C 389.242 682.698, 389.128 681.638, 381.890 643.146 C 379.682 631.401, 378.020 621.647, 378.196 621.471 C 378.372 621.294, 381.213 623.384, 384.508 626.115 C 414.676 651.113, 452.050 666.969, 490.500 671.079 C 503.768 672.498, 529.764 671.742, 542.500 669.568 C 576.711 663.728, 609.549 648.632, 635.500 626.815 C 652.993 612.108, 669.616 592.710, 679.572 575.385 C 682.203 570.806, 683.788 568.758, 683.353 570.500 C 682.031 575.784, 682.605 587.292, 684.475 593 C 687.587 602.501, 691.079 608.303, 697.413 614.500 C 712.555 629.315, 733.854 632.696, 752.987 623.324 C 782.298 608.966, 789.258 570.128, 766.780 546.361 C 756.721 535.725, 745.781 531, 731.213 531 C 717.165 531, 707.531 534.682, 697.826 543.759 L 693.123 548.158 696.567 538.522 C 698.462 533.223, 701.117 523.400, 702.469 516.693 C 711.380 472.487, 706.124 430.672, 686.593 390.377 C 660.184 335.892, 610.615 297.643, 549.186 284.350 C 539.126 282.173, 534.438 281.773, 515.500 281.475 C 503.400 281.284, 490.393 281.555, 486.597 282.076" stroke="none" fill="currentColor" fill-rule="evenodd"/>
</svg>