<svg xmlns="http://www.w3.org/2000/svg" width="1024" height="1024" viewBox="0 0 1024 1024" version="1.1">
	<path fill-opacity="0.271" d="M 508.500 71.143 C 506.850 71.592, 501.675 75.161, 497 79.074 C 473.755 98.533, 442.877 114.428, 409.871 123.927 C 390.629 129.464, 366.281 133.583, 341 135.580 C 331.089 136.362, 327.775 137.954, 325.484 143.035 C 323.594 147.226, 323.136 143.606, 333.515 206.500 C 336.510 224.650, 341.678 256.150, 344.999 276.500 C 348.320 296.850, 351.765 316.875, 352.655 321 C 364.322 375.064, 412.855 425.126, 480 452.357 C 487.425 455.368, 497.620 459.015, 502.656 460.460 L 511.812 463.089 524.656 458.924 C 597.811 435.206, 653.665 384.026, 668.574 327.052 C 670.859 318.317, 677.095 281.990, 688.496 211 C 691.013 195.325, 694.181 175.623, 695.536 167.217 C 700.201 138.279, 699.457 137.053, 675.994 135.047 C 643.291 132.250, 612.884 125.501, 588.079 115.532 C 565.839 106.594, 542.409 93.070, 528.119 80.924 C 516.179 70.775, 513.948 69.663, 508.500 71.143 M 445.001 221.123 C 438.692 223.639, 435 229.580, 435 237.216 C 435 243.989, 437.534 248.827, 442.604 251.734 C 449.365 255.610, 460.527 254.189, 463.741 249.044 C 464.776 247.385, 464.641 246.862, 462.852 245.609 C 460.947 244.274, 460.466 244.335, 457.900 246.232 C 452.508 250.218, 445.349 248.363, 442.436 242.223 C 437.554 231.937, 448.003 222.045, 457.580 227.886 C 460.472 229.649, 460.797 229.662, 462.873 228.096 L 465.084 226.428 462.792 224.281 C 458.441 220.205, 450.734 218.837, 445.001 221.123 M 539.476 221.396 C 534.355 223.627, 532.383 230.791, 535.750 234.929 C 536.712 236.112, 540.413 238.133, 543.972 239.419 C 551.859 242.269, 553.501 244.304, 550.139 247.063 C 547.162 249.506, 545.397 249.497, 540.526 247.013 C 536.905 245.167, 536.500 245.143, 534.818 246.665 C 529.528 251.452, 546.086 256.592, 553.855 252.575 C 556.578 251.167, 559 247.320, 559 244.403 C 559 241.476, 556.057 237.268, 553.297 236.249 C 551.759 235.681, 548.362 234.455, 545.750 233.525 C 541.942 232.170, 541 231.376, 541 229.524 C 541 228.254, 541.712 226.941, 542.582 226.607 C 545.398 225.526, 550.502 225.963, 552.651 227.468 C 554.534 228.787, 554.923 228.743, 556.472 227.031 C 558.583 224.698, 557.782 223.225, 553.410 221.398 C 549.257 219.663, 543.456 219.662, 539.476 221.396 M 623.405 221.848 C 615.265 225.656, 611.836 236.618, 616.181 244.941 C 619.404 251.114, 622.763 253.283, 629.898 253.799 C 640.854 254.591, 648 247.866, 648 236.762 C 648 230.773, 645.728 226.334, 640.791 222.678 C 636.907 219.800, 628.626 219.405, 623.405 221.848 M 375 237.500 L 375 254 386 254 L 397 254 397 251 L 397 248 389 248 L 381 248 381 244.107 C 381 239.533, 381.895 239, 389.582 239 C 394.695 239, 395 238.859, 395 236.500 C 395 234.071, 394.800 234, 388 234 L 381 234 381 230 L 381 226 389 226 C 396.867 226, 397 225.958, 397 223.500 L 397 221 386 221 L 375 221 375 237.500 M 403 221.469 C 403 221.727, 405.025 225.068, 407.500 228.894 C 409.975 232.720, 412 236.113, 412 236.434 C 412 236.755, 409.535 240.839, 406.522 245.509 L 401.045 254 404.772 253.991 C 408.228 253.983, 408.781 253.546, 412.360 247.991 C 414.483 244.696, 416.363 242, 416.538 242 C 416.712 242, 418.495 244.700, 420.500 248 C 423.975 253.720, 424.331 254, 428.131 254 C 431.047 254, 431.920 253.664, 431.382 252.750 C 430.977 252.063, 428.446 248.214, 425.757 244.197 L 420.867 236.894 425.913 228.947 L 430.958 221 427.189 221 C 423.722 221, 423.186 221.401, 420.500 226 C 418.894 228.750, 417.263 231, 416.876 231 C 416.488 231, 414.787 228.750, 413.095 226 C 410.347 221.534, 409.643 221, 406.509 221 C 404.579 221, 403 221.211, 403 221.469 M 471.534 227.252 C 471.552 230.688, 471.665 238.113, 471.784 243.750 L 472 254 482 254 L 492 254 492 251 L 492 248 485 248 L 478 248 478 234.500 L 478 221 474.750 221.002 L 471.500 221.003 471.534 227.252 M 498.171 234.079 L 498.500 247.159 502.235 250.579 C 505.552 253.616, 506.595 254, 511.535 254 C 523.324 254, 526 250.028, 526 232.532 L 526 221 523 221 L 520 221 520 231.453 C 520 237.202, 519.488 243.030, 518.862 244.403 C 517.332 247.761, 512.589 249.392, 509.151 247.743 C 505.051 245.777, 504.031 242.501, 504.015 231.250 L 504 221 500.921 221 L 497.841 221 498.171 234.079 M 566 237.563 L 566 254.127 568.969 253.813 L 571.937 253.500 572.469 237.250 L 573 221 569.500 221 L 566 221 566 237.563 M 579 221.804 C 579 222.247, 581.700 229.535, 585 238 C 588.300 246.465, 591 253.528, 591 253.696 C 591 253.863, 592.688 254, 594.750 253.999 L 598.500 253.999 604.645 237.749 L 610.791 221.500 607.750 221.176 C 604.035 220.780, 603.997 220.839, 599.324 234.250 C 597.264 240.162, 595.279 245, 594.912 245 C 594.546 245, 592.335 239.600, 590 233 L 585.754 221 582.377 221 C 580.520 221, 579 221.362, 579 221.804 M 625.750 227.080 C 623.143 228.599, 621 233.402, 621 237.728 C 621 247.174, 631.807 251.921, 638.370 245.357 C 643.110 240.618, 642.341 231.453, 636.883 227.631 C 634.284 225.810, 628.427 225.521, 625.750 227.080 M 300 310.701 C 286.653 312.154, 267.602 319.478, 254.877 328.047 C 246.723 333.538, 233.560 346.690, 228.094 354.809 C 222.506 363.107, 217.722 373.414, 214.310 384.500 L 211.541 393.500 211.224 450.849 C 211.044 483.498, 211.286 508.047, 211.786 507.849 C 212.268 507.657, 225.330 496.925, 240.812 484 L 268.960 460.500 268.980 433.960 C 269.002 404.353, 269.704 399.479, 275.292 390.138 C 281.273 380.141, 292.751 372.257, 304.480 370.088 C 307.718 369.490, 317.006 369, 325.121 369 L 339.875 369 337.047 362.750 C 331.052 349.495, 324.243 327.091, 322.459 314.750 L 321.773 310 312.636 310.160 C 307.611 310.248, 301.925 310.492, 300 310.701 M 700.476 313.750 C 698.046 328.570, 690.808 351.399, 683.356 367.750 C 682.914 368.720, 686.160 369, 697.844 369 C 715.064 369, 720.956 369.968, 729.757 374.243 C 741.992 380.185, 750.807 392.247, 752.965 406 C 753.526 409.575, 754.023 423.525, 754.069 437 L 754.154 461.500 780.135 483 C 794.425 494.825, 807.465 505.564, 809.112 506.864 L 812.107 509.229 811.746 452.364 C 811.399 397.683, 811.301 395.182, 809.197 387.206 C 801.573 358.305, 781.525 333.764, 754.500 320.251 C 742.900 314.450, 722.909 310.018, 708.295 310.006 L 701.091 310 700.476 313.750 M 308.459 403.880 C 303.527 406.120, 299.426 410.807, 298.044 415.781 C 297.350 418.280, 297.017 481.354, 297.028 608 C 297.043 789.351, 297.114 796.652, 298.896 800.500 C 301.158 805.386, 305.365 809.348, 309.899 810.864 C 312.391 811.697, 366.121 812, 511.181 812 C 728.100 812, 712.815 812.423, 719.274 806.237 C 725.308 800.457, 725.002 811.225, 724.978 605.568 C 724.957 424.862, 724.884 417.343, 723.110 413.500 C 720.876 408.659, 717.710 405.612, 712.768 403.548 C 709.768 402.294, 704.424 402, 684.653 402 L 660.241 402 656.370 406.729 C 651.079 413.194, 639.961 424.224, 630.970 431.928 C 626.862 435.449, 623.350 438.705, 623.167 439.164 C 622.983 439.624, 637.271 440, 654.917 440 L 687 440 687 607 L 687 774 511 774 L 335 774 335 607 L 335 440 367.500 440 C 385.375 440, 399.990 439.663, 399.979 439.250 C 399.967 438.837, 398.279 437.310, 396.229 435.857 C 390.301 431.654, 371.793 413.713, 367.069 407.590 L 362.757 402 337.628 402.022 C 315.414 402.041, 312.031 402.257, 308.459 403.880 M 239.250 509.767 L 211 533.387 211 589.244 L 211 645.102 214.250 642.592 C 216.037 641.212, 228.975 630.482, 243 618.748 L 268.500 597.414 268.758 541.707 C 268.901 511.068, 268.676 486.033, 268.258 486.073 C 267.841 486.114, 254.787 496.776, 239.250 509.767 M 754 541.846 L 754 597.837 782.077 621.168 C 797.519 634.001, 810.569 644.650, 811.077 644.833 C 811.634 645.034, 812 623.151, 812 589.656 L 812 534.145 785.290 511.822 C 770.599 499.545, 757.549 488.680, 756.290 487.677 L 754 485.855 754 541.846 M 495.500 495.043 C 467.442 498.734, 441.765 511.830, 422.196 532.431 C 409.744 545.539, 401.441 559.506, 395.503 577.329 C 380.695 621.780, 392.939 671.052, 426.748 703.061 C 457.460 732.139, 499.912 743.075, 541.310 732.573 C 586.328 721.153, 620.295 685.500, 630.613 638.838 C 632.849 628.728, 632.882 605.281, 630.677 593.957 C 623.089 554.991, 598.527 522.849, 563.500 506.052 C 543.042 496.241, 517.648 492.130, 495.500 495.043 M 251.799 636.283 C 243.163 643.552, 230.482 654.225, 223.617 660 C 211.568 670.137, 211.134 670.638, 211.054 674.500 C 210.809 686.243, 204.871 700.138, 196.225 709.203 C 187.718 718.122, 178.278 722.309, 161.750 724.494 C 157.707 725.029, 157.005 725.448, 157.033 727.311 C 157.083 730.700, 164.541 781.875, 165.061 782.394 C 165.314 782.647, 169.341 782.197, 174.010 781.394 C 199.046 777.090, 217.561 768.162, 233.877 752.527 C 250.298 736.791, 259.979 720.729, 265.219 700.526 C 267.061 693.426, 267.370 688.488, 267.900 657.749 C 268.230 638.636, 268.275 623.013, 268 623.032 C 267.725 623.051, 260.434 629.014, 251.799 636.283 M 754 650.039 C 754 664.361, 754.481 680.393, 755.069 685.666 C 759.868 728.707, 789.212 764.307, 830.626 777.333 C 837.130 779.379, 854.010 782.982, 857.162 782.997 C 857.526 782.999, 858.082 781.313, 858.397 779.250 C 861.533 758.710, 866 727.788, 866 726.617 C 866 725.561, 864.371 724.971, 860.250 724.532 C 851.747 723.627, 839.554 719.475, 833.396 715.387 C 820.621 706.907, 812.018 690.957, 811.993 675.701 L 811.986 671.500 794.743 656.937 C 769.988 636.029, 755.335 624, 754.621 624 C 754.279 624, 754 635.718, 754 650.039 M 297.459 843.250 C 297.196 843.938, 297.097 869.025, 297.240 899 L 297.500 953.500 511 953.500 L 724.500 953.500 724.777 900 C 724.929 870.575, 724.808 845.487, 724.508 844.250 L 723.962 842 510.950 842 C 341.462 842, 297.839 842.255, 297.459 843.250" stroke="none" fill="currentColor" fill-rule="evenodd"/>
	<path fill-opacity="0.064" d="M 500.897 76.197 C 478.389 95.281, 456.218 108.043, 427.216 118.607 C 403.215 127.349, 372.566 133.514, 342.642 135.617 C 331.265 136.417, 327.217 138.398, 325.342 144.084 C 324.012 148.116, 322.981 141.120, 341.095 250.937 C 353.910 328.632, 355.206 334.377, 364.056 352.711 C 380.777 387.351, 415.768 420.480, 458.676 442.297 C 478.861 452.560, 504.151 462, 511.461 462 C 515.544 462, 529.071 457.659, 543.854 451.604 C 604.250 426.867, 650.357 382.868, 665.979 335.063 C 670.065 322.561, 673.812 301.512, 690.021 200 C 691.733 189.275, 694.229 173.769, 695.567 165.542 C 698.430 147.940, 698.505 145.878, 696.434 141.872 C 694.333 137.810, 690.329 136.353, 679 135.527 C 615.827 130.920, 561.029 110.282, 522.533 76.600 C 517.869 72.519, 516.128 71.623, 512.113 71.237 C 507.473 70.791, 507.055 70.976, 500.897 76.197 M 374.667 220.667 C 373.837 221.496, 373.806 248.672, 374.630 251.750 C 375.209 253.909, 375.676 254, 386.117 254 L 397 254 397 251.042 L 397 248.084 389.250 247.792 L 381.500 247.500 381.500 244 L 381.500 240.500 388.485 240 C 395.132 239.524, 395.472 239.379, 395.485 237 C 395.499 234.617, 395.172 234.477, 388.500 234 L 381.500 233.500 381.500 230 L 381.500 226.500 389.250 226.208 L 397 225.916 397 222.958 L 397 220 386.167 220 C 380.208 220, 375.033 220.300, 374.667 220.667 M 402.590 221.250 C 402.980 221.938, 405.287 225.737, 407.718 229.694 L 412.137 236.887 407.245 244.194 C 404.555 248.212, 402.023 252.063, 401.618 252.750 C 401.080 253.664, 401.956 254, 404.880 254 C 408.694 254, 409.050 253.721, 412.636 247.910 C 416.782 241.194, 416.298 241.110, 421.225 249.409 C 423.750 253.662, 424.250 254, 428.011 254 C 432.651 254, 432.835 254.813, 425.653 243.582 L 421.228 236.664 425.702 229.685 C 431.680 220.359, 431.658 220.483, 427.262 220.599 C 423.828 220.689, 423.238 221.145, 420.500 225.831 C 418.850 228.655, 417.258 230.973, 416.961 230.982 C 416.665 230.992, 414.923 228.525, 413.089 225.500 C 409.955 220.329, 409.520 220, 405.819 220 C 402.958 220, 402.076 220.342, 402.590 221.250 M 442.500 222.426 C 437.993 225.138, 435.573 228.749, 434.587 234.235 C 431.898 249.189, 448.657 260.097, 461.267 251.599 C 465.320 248.868, 465.762 246.746, 462.626 245.067 C 460.466 243.912, 459.909 244.007, 457.900 245.878 C 455.133 248.456, 449.435 248.694, 446.117 246.369 C 442.482 243.823, 440.739 238.681, 441.967 234.122 C 443.251 229.354, 445.717 227.082, 450.439 226.316 C 453.308 225.851, 454.793 226.210, 457.124 227.934 C 459.921 230.001, 460.284 230.044, 462.529 228.573 C 465.571 226.580, 464.922 224.886, 460.068 222.158 C 454.760 219.175, 447.724 219.282, 442.500 222.426 M 471.667 220.667 C 471.300 221.033, 471 228.683, 471 237.667 L 471 254 481.500 254 L 492 254 492 251 L 492 248 485 248 L 478 248 478 234 L 478 220 475.167 220 C 473.608 220, 472.033 220.300, 471.667 220.667 M 498 232.486 C 498 241.805, 498.396 245.866, 499.517 248.033 C 503.800 256.315, 520.161 256.447, 524.365 248.233 C 525.269 246.468, 525.895 241.071, 526.132 233 L 526.500 220.500 523 220.500 L 519.500 220.500 519.216 232.458 C 518.898 245.887, 517.990 248, 512.536 248 C 506.283 248, 505.555 246.537, 505 232.834 L 504.500 220.500 501.250 220.187 L 498 219.873 498 232.486 M 538.775 221.559 C 535.371 223.406, 534 225.905, 534 230.260 C 534 234.724, 536.984 237.450, 544.737 240.069 C 550.995 242.182, 552.900 244.211, 550.895 246.627 C 549.328 248.515, 541.955 248.357, 539.125 246.375 C 536.958 244.857, 536.679 244.877, 534.878 246.678 C 532.975 248.581, 532.981 248.634, 535.380 250.887 C 540.692 255.878, 552.878 255.513, 557.026 250.240 C 559.469 247.133, 559.574 241.927, 557.250 239.071 C 556.288 237.888, 552.587 235.867, 549.028 234.581 C 541.827 231.979, 539.878 230.057, 541.930 227.584 C 543.538 225.646, 548.621 225.583, 552 227.458 C 554.172 228.664, 554.730 228.639, 556.250 227.268 C 558.696 225.063, 558.466 224.255, 554.750 221.989 C 550.840 219.605, 542.775 219.388, 538.775 221.559 M 566 237.216 L 566 254 569.524 254 L 573.048 254 572.774 237.250 L 572.500 220.500 569.250 220.466 L 566 220.432 566 237.216 M 578.705 220.750 C 578.478 221.162, 580.589 227.400, 583.396 234.612 C 586.203 241.823, 589.023 249.136, 589.663 250.862 C 590.697 253.652, 591.264 254, 594.767 254 L 598.707 254 604.864 237.750 C 608.250 228.813, 611.016 221.275, 611.010 221 C 611.005 220.725, 609.427 220.500, 607.504 220.500 C 603.678 220.500, 604.495 218.973, 596.931 240.250 C 596.198 242.313, 595.281 244, 594.894 244 C 594.507 244, 592.286 238.600, 589.959 232 L 585.728 220 582.423 220 C 580.605 220, 578.932 220.338, 578.705 220.750 M 623.379 221.437 C 621.663 222.184, 618.963 224.493, 617.379 226.570 C 614.864 229.867, 614.500 231.198, 614.500 237.099 C 614.500 244.639, 616.079 247.727, 621.990 251.750 C 628.487 256.172, 640.572 254.133, 645.286 247.819 C 649.506 242.167, 649.407 231.607, 645.085 226.329 C 640.243 220.416, 630.678 218.260, 623.379 221.437 M 625.856 227.462 C 621.352 230.001, 619.715 237.615, 622.510 243.020 C 625.560 248.917, 633.224 249.930, 638.077 245.077 C 640.531 242.622, 641 241.349, 641 237.133 C 641 233.366, 640.437 231.457, 638.748 229.494 C 635.961 226.253, 629.740 225.273, 625.856 227.462 M 299.500 311.142 C 258.553 316.343, 224.661 346.522, 213.746 387.500 C 211.716 395.124, 211.599 398.147, 211.254 451.750 C 210.913 504.819, 211.156 510.792, 213.499 507.001 C 213.839 506.452, 226.435 495.663, 241.490 483.026 L 268.864 460.050 269.182 430.719 L 269.500 401.389 273.226 393.854 C 279.036 382.104, 289.149 373.758, 301.460 370.552 C 305.634 369.465, 312.173 369, 323.277 369 L 339.135 369 338.441 366.750 C 338.059 365.512, 337.091 363.212, 336.289 361.637 C 331.991 353.193, 325.803 332.607, 321.444 312.250 C 320.995 310.153, 320.469 310.009, 313.731 310.126 C 309.754 310.196, 303.350 310.653, 299.500 311.142 M 701.508 311.250 C 701.272 311.938, 699.896 317.865, 698.451 324.421 C 695.543 337.611, 691.558 349.671, 686.399 360.891 C 684.529 364.956, 683 368.443, 683 368.641 C 683 368.838, 690.105 369, 698.790 369 C 716.066 369, 722.914 370.196, 731.072 374.636 C 738.253 378.544, 742.911 382.794, 747.078 389.242 C 753.080 398.529, 754 404.589, 754 434.855 L 754 460.814 782.066 484.157 C 797.502 496.996, 810.552 507.650, 811.066 507.833 C 812.329 508.284, 812.275 411.034, 811.006 400 C 808.286 376.352, 798.164 356.045, 780.829 339.457 C 763.167 322.556, 743.795 313.564, 719.500 310.989 C 707.124 309.677, 702.023 309.751, 701.508 311.250 M 309.655 403.459 C 304.998 405.119, 301.639 408.134, 299.556 412.523 C 298.165 415.455, 298 436.035, 298 606.933 C 298 766.097, 298.228 798.610, 299.364 801.329 C 301.127 805.547, 306.073 809.673, 310.939 810.984 C 313.548 811.686, 378.485 811.936, 512.643 811.760 L 710.500 811.500 714.500 809.409 C 716.879 808.166, 719.605 805.532, 721.227 802.909 L 723.953 798.500 724.045 607.382 C 724.146 396.661, 724.613 411.791, 717.856 406.770 C 711.979 402.403, 709.080 401.997, 684.101 402.045 L 660.500 402.091 653.360 410.385 C 647.017 417.754, 633.430 430.678, 625.750 436.650 C 624.237 437.826, 623 439.073, 623 439.421 C 623 439.769, 637.400 439.930, 655.001 439.777 L 687.001 439.500 687.001 606.750 L 687 774 511 774 L 335 774 335 607 L 335 440 366.250 439.882 C 383.438 439.816, 397.880 439.831, 398.344 439.913 C 400.166 440.236, 398.163 438.069, 390.110 431.004 C 380.127 422.246, 370.120 412.111, 365.699 406.281 L 362.500 402.062 338 402.075 C 319.812 402.084, 312.509 402.441, 309.655 403.459 M 239.622 509.750 L 211.075 533.500 211.038 589.260 L 211 645.020 229.250 629.833 C 239.287 621.481, 252.338 610.615, 258.250 605.688 L 269 596.729 269 541.364 C 269 510.914, 268.813 486, 268.584 486 C 268.355 486, 255.322 496.688, 239.622 509.750 M 754 541.750 L 754 597.520 780.780 619.762 C 795.510 631.995, 808.560 642.704, 809.780 643.559 L 812 645.113 812 589.721 L 812 534.329 783 510.154 L 754 485.980 754 541.750 M 501 494.641 C 445.702 499.757, 400.994 540.287, 391.407 593.990 C 389.465 604.872, 389.471 626.007, 391.419 637.010 C 400.369 687.542, 442.019 727.915, 492.434 734.928 C 554.816 743.604, 611.781 706.216, 628.703 645.491 C 631.317 636.113, 631.486 634.304, 631.468 616 C 631.451 598.955, 631.162 595.410, 629.172 587.843 C 623.131 564.861, 614.057 548.342, 598.568 532.129 C 576.054 508.561, 548.544 496.161, 515.467 494.673 C 509.985 494.426, 503.475 494.412, 501 494.641 M 723.286 849.500 C 723.294 852.250, 723.488 853.256, 723.718 851.736 C 723.947 850.216, 723.941 847.966, 723.704 846.736 C 723.467 845.506, 723.279 846.750, 723.286 849.500" stroke="none" fill="currentColor" fill-rule="evenodd"/>
	<path fill-opacity="0.523" d="M 505.219 73.250 C 503.526 74.487, 497.722 79.008, 492.321 83.296 C 463.897 105.861, 428.657 121.515, 387.441 129.882 C 374.537 132.502, 366.252 133.592, 336.329 136.604 C 330.460 137.194, 326.517 140.094, 325.370 144.660 C 324.961 146.293, 325.604 153.627, 326.891 161.995 C 331.529 192.145, 352.059 315.780, 353.481 322.121 C 366.535 380.345, 422.784 433.541, 497.279 458.114 C 503.758 460.251, 510.124 462, 511.427 462 C 512.729 462, 519.282 460.165, 525.989 457.923 C 585.632 437.981, 635.367 398.863, 657.479 354.500 C 668.367 332.656, 669.112 329.071, 690.034 198 C 691.746 187.275, 694.261 171.575, 695.622 163.110 C 696.984 154.646, 697.818 146.446, 697.475 144.887 C 697.133 143.329, 695.534 140.944, 693.922 139.588 C 690.773 136.939, 691.077 136.995, 666.664 134.550 C 610.958 128.971, 560.446 109.266, 525.760 79.582 C 514.943 70.325, 510.917 69.084, 505.219 73.250 M 447.123 220.002 C 437.509 222.272, 431.461 234.150, 435.064 243.685 C 439.263 254.799, 454.328 258.648, 462.750 250.759 C 465.654 248.039, 465.599 246.230, 462.571 244.850 C 460.553 243.931, 459.683 244.104, 457.436 245.872 C 450.895 251.017, 442 245.904, 442 237 C 442 232.522, 443.947 229.253, 447.664 227.489 C 451.209 225.807, 453.765 226.112, 457.873 228.707 C 459.840 229.951, 460.651 229.990, 462.623 228.934 C 463.930 228.235, 465 227.133, 465 226.486 C 465 224.675, 461.538 221.954, 457.316 220.449 C 453.025 218.918, 451.918 218.870, 447.123 220.002 M 542.209 219.987 C 535.635 221.539, 532.162 226.931, 534.050 232.652 C 535.277 236.369, 536.893 237.527, 544.987 240.491 C 548.587 241.809, 550.597 243.146, 550.835 244.380 C 551.603 248.372, 544.010 249.369, 539.551 245.862 L 536.832 243.723 534.777 245.778 C 532.018 248.538, 533.030 250.658, 538.235 253.020 C 548.262 257.571, 559 253.120, 559 244.412 C 559 239.578, 555.813 236.434, 548.417 233.972 C 541.384 231.632, 539.530 229.548, 542.529 227.355 C 544.965 225.574, 547.448 225.644, 551.597 227.613 C 554.893 229.177, 555.054 229.154, 556.906 226.868 C 559.102 224.156, 558.886 223.498, 555.187 221.627 C 551.459 219.741, 546.113 219.065, 542.209 219.987 M 625.655 220.459 C 618.057 223.168, 614 228.943, 614 237.049 C 614 243.681, 616.356 248.546, 621.085 251.675 C 628.729 256.733, 638.828 255.377, 644.886 248.477 C 652.846 239.411, 648.067 223.333, 636.453 220.109 C 631.490 218.731, 630.402 218.766, 625.655 220.459 M 374 237 L 374 254 386 254 L 398 254 398 251 L 398 248 390 248 L 382 248 382 244 L 382 240 389.063 240 L 396.127 240 395.813 236.750 L 395.500 233.500 388.748 233.500 L 381.996 233.500 381.998 230.250 L 382 227 389.500 227 L 397 227 397 223.500 L 397 220 385.500 220 L 374 220 374 237 M 402 220.777 C 402 221.205, 402.615 222.443, 403.367 223.527 C 404.118 224.612, 406.340 228.021, 408.303 231.103 L 411.874 236.706 406.437 244.827 C 403.447 249.294, 401 253.185, 401 253.474 C 401 253.763, 402.795 254, 404.990 254 C 408.717 254, 409.220 253.637, 412.631 248.500 C 414.640 245.475, 416.419 243, 416.586 243 C 416.752 243, 418.368 245.475, 420.178 248.500 C 423.344 253.793, 423.628 254, 427.734 254 C 430.080 254, 432 253.799, 432 253.554 C 432 253.308, 429.750 249.595, 427 245.304 C 424.250 241.012, 422 237.167, 422 236.760 C 422 236.353, 423.939 232.978, 426.310 229.260 C 428.680 225.542, 430.956 221.938, 431.369 221.250 C 431.922 220.327, 430.981 220, 427.769 220 C 423.606 220, 423.295 220.214, 420.500 225 C 418.894 227.750, 417.263 230, 416.876 230 C 416.488 230, 414.787 227.750, 413.095 225 C 410.230 220.343, 409.743 220, 406.009 220 C 403.804 220, 402 220.350, 402 220.777 M 471 237 L 471 254 482 254 L 493 254 493 251 C 493 247.760, 492.253 247.540, 482.750 247.980 L 479 248.153 479 234.076 L 479 220 475 220 L 471 220 471 237 M 497.206 233.045 C 497.601 244, 497.994 246.523, 499.659 248.795 C 505.587 256.882, 518.452 256.821, 524.429 248.678 C 526.217 246.241, 526.548 244.092, 526.850 232.928 L 527.201 220 523.100 220 L 519 220 519 232 C 519 242.667, 518.778 244.222, 517 246 C 514.297 248.703, 510.428 248.518, 507.455 245.545 C 505.132 243.223, 505 242.470, 505 231.545 L 505 220 500.867 220 L 496.735 220 497.206 233.045 M 565.892 226.750 C 565.832 230.463, 565.646 238.113, 565.478 243.750 L 565.171 254 569.086 254 L 573 254 573 237 L 573 220 569.500 220 L 566 220 565.892 226.750 M 578.534 222.188 C 578.923 223.460, 581.775 231.153, 584.871 239.285 L 590.500 254.069 594.907 253.785 L 599.315 253.500 603.063 243.500 C 605.125 238, 607.969 230.437, 609.383 226.694 L 611.953 219.887 607.851 220.194 L 603.749 220.500 600.080 230.500 C 598.063 236, 596.049 241.400, 595.604 242.500 C 594.973 244.064, 593.865 241.885, 590.522 232.500 L 586.246 220.500 582.036 220.188 C 578.046 219.893, 577.863 219.997, 578.534 222.188 M 627 227.279 C 623.432 229.062, 620.798 234.684, 621.510 239 C 622.201 243.189, 626.990 248, 630.469 248 C 641.428 248, 645.282 232.209, 635.460 227.548 C 631.537 225.687, 630.267 225.646, 627 227.279 M 291 312.959 C 254.078 320.859, 224.351 349.475, 214.211 386.881 L 211.603 396.500 211.233 452.393 L 210.864 508.287 217.182 502.999 C 220.657 500.091, 233.512 489.341, 245.750 479.112 L 268 460.512 268.020 437.006 C 268.031 424.078, 268.486 410.350, 269.031 406.500 C 271.405 389.730, 283.183 375.866, 299.339 370.823 C 304.021 369.361, 308.529 369, 322.089 369 C 331.390 369, 339 368.837, 339 368.638 C 339 368.439, 337.693 365.394, 336.095 361.870 C 330.027 348.486, 326.076 335.386, 321.434 313.250 C 320.979 311.080, 320.579 311.003, 310.231 311.070 C 303.910 311.112, 296.007 311.888, 291 312.959 M 699.197 322.120 C 696.553 335.180, 691.587 350.696, 686.586 361.520 L 683.130 369 699.976 369 C 713.701 369, 717.950 369.351, 722.909 370.895 C 735.104 374.690, 744.810 383.157, 750.335 394.820 L 753.500 401.500 754 431.122 L 754.500 460.744 782.215 483.872 C 797.458 496.592, 810.194 507, 810.517 507 C 810.841 507, 810.956 481.238, 810.774 449.750 L 810.444 392.500 807.672 383.562 C 798.597 354.299, 776.881 330.195, 749.079 318.526 C 738.031 313.888, 728.414 311.876, 714.500 311.289 L 701.500 310.740 699.197 322.120 M 335 402.967 C 306.582 403.561, 305.767 403.748, 300.954 410.772 L 298.500 414.353 298.242 605.845 L 297.985 797.337 300.088 801.683 C 301.496 804.590, 303.600 806.854, 306.446 808.521 L 310.701 811.015 511.678 810.757 L 712.656 810.500 716.437 807.616 C 718.516 806.030, 721.059 802.880, 722.087 800.616 C 723.891 796.643, 723.957 789.913, 723.978 606.718 C 724.002 400.120, 724.377 413.427, 718.373 407.814 C 713.574 403.326, 711.340 403, 685.407 403 L 660.944 403 648.572 415.750 C 641.767 422.762, 633.465 430.750, 630.123 433.500 L 624.047 438.500 655.773 439 L 687.500 439.500 687.753 607.253 L 688.006 775.006 511.253 774.753 L 334.500 774.500 334.500 701.500 C 334.500 661.350, 334.613 585.869, 334.750 533.764 L 335 439.028 366.556 438.764 L 398.112 438.500 387.037 428.711 C 380.946 423.328, 372.736 415.115, 368.794 410.461 C 364.852 405.808, 361.373 402.098, 361.063 402.217 C 360.753 402.336, 349.025 402.674, 335 402.967 M 239.244 510.544 L 211 534.087 211 589.166 C 211 643.489, 211.027 644.225, 212.941 642.872 C 214.008 642.117, 226.810 631.600, 241.390 619.500 L 267.898 597.500 267.949 542.250 C 267.977 511.863, 267.885 487, 267.744 487 C 267.603 487, 254.778 497.595, 239.244 510.544 M 754.058 542.215 L 754.116 597.500 777.123 616.500 C 789.777 626.950, 802.579 637.452, 805.573 639.838 L 811.017 644.176 810.759 588.900 L 810.500 533.625 784 511.305 C 769.425 499.029, 756.712 488.522, 755.750 487.957 C 754.092 486.984, 754.003 489.829, 754.058 542.215 M 489.922 496.552 C 463.869 501.270, 443.350 512.205, 424.500 531.416 C 408.009 548.223, 399.671 562.990, 393.245 586.770 C 390.835 595.692, 390.618 598.079, 390.639 615.500 C 390.659 632.711, 390.903 635.403, 393.231 644.085 C 399.726 668.309, 410.040 686.175, 426.737 702.127 C 437.152 712.076, 445.713 718.030, 458.138 723.965 C 480.190 734.499, 504.262 738.076, 528.687 734.449 C 573.820 727.748, 611.573 696.221, 625.988 653.195 C 640.214 610.733, 628.630 562.494, 596.524 530.500 C 577.630 511.672, 553.752 499.576, 528.566 496.072 C 518.205 494.631, 499.227 494.867, 489.922 496.552" stroke="none" fill="currentColor" fill-rule="evenodd"/>
	<path fill-opacity="0.349" d="M 502.886 75.507 C 480.392 93.491, 470.543 99.937, 451.522 109.124 C 421.031 123.851, 386.405 132.742, 346.500 136.091 C 331.058 137.387, 328.608 138.300, 326.399 143.587 C 324.753 147.527, 324.124 143.029, 339.041 234 C 355.040 331.572, 355.656 334.351, 365.760 354.500 C 372.691 368.322, 390.115 391.866, 392.938 391.225 C 393.604 391.074, 393.901 391.351, 393.598 391.842 C 392.948 392.893, 396.356 396.235, 397.331 395.502 C 397.699 395.226, 397.771 395.304, 397.491 395.676 C 397.211 396.048, 397.959 397.392, 399.153 398.663 C 400.948 400.574, 401.601 400.760, 402.913 399.738 C 404.284 398.669, 404.330 398.718, 403.249 400.104 C 402.183 401.470, 402.775 402.440, 407.249 406.656 C 415.468 414.402, 427.755 423.269, 429.109 422.433 C 429.822 421.992, 430.048 422.113, 429.666 422.732 C 428.792 424.145, 431.614 426.356, 433.111 425.432 C 433.839 424.981, 434.047 425.114, 433.642 425.771 C 432.999 426.810, 441.396 432.268, 456 440.301 C 471.018 448.562, 504.542 461.213, 511.350 461.189 C 518.464 461.163, 544.860 451.202, 565.050 440.925 C 584.707 430.918, 620.156 405.680, 618.444 402.910 C 618.118 402.382, 618.447 402.074, 619.176 402.225 C 619.904 402.376, 620.388 401.938, 620.250 401.250 C 620.113 400.563, 620.563 400.113, 621.250 400.250 C 621.938 400.388, 622.376 399.904, 622.225 399.176 C 622.074 398.447, 622.351 398.099, 622.842 398.402 C 624.049 399.148, 627.199 395.552, 626.252 394.509 C 625.838 394.052, 625.987 393.956, 626.582 394.295 C 628.780 395.545, 642.030 379.746, 651.428 364.668 C 657.464 354.983, 665.090 337.067, 667.885 326 C 669.824 318.325, 673.920 294.462, 685.905 221 C 688.104 207.525, 690.852 190.200, 692.013 182.500 C 693.175 174.800, 694.772 164.729, 695.562 160.119 C 698.089 145.390, 697.112 140.465, 691.201 138.140 C 689.716 137.555, 682.200 136.578, 674.500 135.968 C 640.494 133.275, 606.169 124.916, 578 112.467 C 560.912 104.916, 540.297 92.417, 528.746 82.606 C 517.158 72.763, 515.915 72, 511.458 72 C 508.172 72, 506.327 72.755, 502.886 75.507 M 385.750 219.747 L 374 220.063 374 237.532 L 374 255 386 255 L 398 255 398 251 L 398 247 390 247 L 382 247 382.063 243.750 C 382.121 240.800, 382.210 240.708, 383.031 242.750 C 384.152 245.538, 385.423 245.726, 384.710 242.999 C 384.422 241.898, 384.563 241.230, 385.024 241.515 C 385.485 241.800, 386.144 241.575, 386.490 241.016 C 386.835 240.457, 389.116 240, 391.559 240 C 395.968 240, 396 239.975, 396 236.500 L 396 233 389 233 L 382 233 382 230 L 382 227 390 227 L 398 227 398 223 C 398 220.800, 397.887 219.097, 397.750 219.215 C 397.613 219.333, 392.212 219.573, 385.750 219.747 M 400.618 220.552 C 400.291 221.406, 400.375 221.886, 400.805 221.620 C 401.236 221.354, 403.736 224.665, 406.362 228.977 L 411.137 236.818 406.437 243.886 C 403.852 247.774, 401.346 250.714, 400.868 250.419 C 400.391 250.123, 400 249.657, 400 249.382 C 400 249.107, 400.445 249.157, 400.989 249.493 C 401.555 249.843, 401.723 249.442, 401.382 248.552 C 400.388 245.962, 399.067 246.814, 399.290 249.903 C 399.407 251.524, 399.941 252.543, 400.500 252.211 C 401.050 251.884, 400.882 252.377, 400.128 253.308 C 398.872 254.856, 399.193 255, 403.900 255 C 408.938 255, 409.105 254.904, 412.019 250.309 C 413.655 247.729, 415.672 245.519, 416.502 245.397 C 417.331 245.275, 417.756 245.586, 417.446 246.088 C 417.136 246.590, 417.299 247, 417.808 247 C 418.317 247, 419.925 248.800, 421.381 251 C 423.831 254.702, 424.371 255, 428.621 255 C 434.020 255, 434.008 254.848, 427.948 245.924 C 424.403 240.703, 424.028 239.658, 425.174 238.194 C 426.351 236.691, 426.313 236.646, 424.839 237.799 C 421.195 240.647, 422.144 236.749, 426.967 229.053 C 429.735 224.636, 432 220.792, 432 220.511 C 432 220.230, 430.016 220, 427.592 220 C 423.455 220, 423.008 220.277, 420.342 224.498 C 418.779 226.972, 417.151 228.997, 416.725 228.998 C 416.299 228.999, 414.745 227.003, 413.271 224.563 C 411.797 222.123, 409.670 219.879, 408.545 219.577 C 404.737 218.554, 401.219 218.986, 400.618 220.552 M 443.223 221.119 C 434.921 225.228, 431.045 237.385, 435.370 245.749 C 439.479 253.695, 451.101 257.418, 459.441 253.461 C 464.358 251.128, 466.790 247.495, 465.171 244.902 C 463.900 242.867, 464.822 242.356, 466.804 243.996 C 467.466 244.544, 467.374 244.266, 466.600 243.378 C 464.686 241.183, 462.421 242.553, 464.184 244.839 C 465.264 246.239, 465.142 246.225, 463.404 244.750 C 460.761 242.507, 459.832 242.548, 457.732 245 C 455.192 247.967, 448.067 247.765, 445.135 244.643 C 440.744 239.969, 441.741 230.815, 446.945 228.030 C 450.020 226.383, 454.518 226.833, 457.362 229.070 L 459.994 231.140 463.063 228.955 L 466.132 226.770 463.816 224.290 C 458.509 218.607, 450.720 217.408, 443.223 221.119 M 518.718 230.226 C 519.068 244.153, 518.222 246.370, 512.390 246.800 C 506.351 247.245, 505.675 245.849, 505.178 231.908 L 504.753 220 500.877 220 L 497 220 497 231.935 C 497 238.499, 497.410 244.949, 497.912 246.268 C 498.442 247.662, 498.454 249.260, 497.942 250.083 C 497.288 251.133, 496.890 250.659, 496.405 248.250 C 495.685 244.676, 494.507 243.922, 494.283 246.892 C 494.094 249.407, 498.422 253.360, 501.798 253.754 C 514.062 255.188, 517.540 255.053, 520.810 253.017 C 525.821 249.897, 527 245.900, 527 232.032 L 527 220 524.082 220 C 522.477 220, 520.550 219.764, 519.799 219.476 C 518.687 219.050, 518.487 221.033, 518.718 230.226 M 539.946 219.913 C 539.091 220.445, 537.519 220.752, 536.453 220.596 C 535.387 220.440, 533.162 221.065, 531.508 221.985 C 528.998 223.381, 528.448 224.372, 528.186 227.965 C 527.889 232.031, 529.197 235.137, 530.610 233.724 C 531.180 233.153, 532.038 228.736, 532.255 225.250 C 532.298 224.563, 532.735 224, 533.226 224 C 533.716 224, 533.797 223.480, 533.405 222.845 C 532.932 222.082, 533.134 221.965, 534 222.500 C 534.787 222.987, 535.066 222.915, 534.698 222.321 C 534.363 221.778, 534.717 221.333, 535.485 221.333 C 536.535 221.333, 536.400 221.948, 534.941 223.802 C 532.146 227.356, 532.457 232.188, 535.739 236.173 C 537.246 238.003, 537.787 239.050, 536.942 238.500 C 536.097 237.950, 536.277 238.298, 537.342 239.273 C 538.545 240.375, 540.031 240.808, 541.265 240.416 C 542.616 239.987, 543.024 240.152, 542.541 240.933 C 542.042 241.741, 542.670 241.897, 544.666 241.459 C 546.907 240.968, 547.186 241.074, 546 241.964 C 544.729 242.918, 544.805 243.065, 546.500 242.930 C 547.600 242.842, 549.063 242.822, 549.750 242.885 C 551.276 243.025, 551.407 245.631, 549.934 246.541 C 547.929 247.780, 541.957 247.202, 539.393 245.522 C 536.979 243.940, 536.705 243.948, 534.665 245.661 C 533.474 246.661, 532.315 247.593, 532.089 247.733 C 531.326 248.207, 535.477 252.195, 538.198 253.602 C 542.139 255.640, 550.864 255.380, 554.580 253.115 C 556.274 252.082, 558.214 249.721, 558.892 247.868 C 559.570 246.016, 560.998 242.700, 562.065 240.500 C 563.132 238.300, 564.004 235.938, 564.003 235.250 C 563.999 233.665, 561.299 233.604, 560.774 235.177 C 560.535 235.896, 559.854 236.028, 559.026 235.516 C 558.280 235.055, 555.808 234.569, 553.534 234.435 C 547.524 234.084, 542.092 231.590, 542.416 229.333 C 542.782 226.784, 549.039 226.324, 552.499 228.592 C 555.023 230.245, 555.156 230.224, 556.802 227.899 C 559.071 224.693, 558.967 224.064, 555.763 221.673 C 552.716 219.397, 542.585 218.270, 539.946 219.913 M 577.481 220.947 C 577.780 221.801, 580.832 229.829, 584.263 238.787 L 590.500 255.075 594.926 254.787 L 599.352 254.500 605.638 238 C 609.096 228.925, 611.942 221.162, 611.962 220.750 C 611.983 220.338, 610.029 220, 607.621 220 L 603.242 220 599.410 231 C 597.303 237.050, 595.285 242, 594.926 242 C 594.566 242, 592.573 237.162, 590.496 231.250 C 588.419 225.338, 586.220 220.163, 585.609 219.750 C 584.999 219.338, 582.798 219.089, 580.719 219.198 C 577.780 219.351, 577.059 219.741, 577.481 220.947 M 623.223 220.661 C 610.022 227.167, 609.948 246.751, 623.099 253.551 C 629.984 257.112, 641.548 254.252, 646.097 247.864 C 648.482 244.514, 649.765 236.183, 648.606 231.565 C 647.716 228.019, 642.145 221.958, 638.298 220.351 C 633.968 218.542, 627.241 218.680, 623.223 220.661 M 470.007 230.750 C 470.011 236.662, 470.301 244.537, 470.652 248.250 L 471.289 255 482.145 255 L 493 255 493 251 L 493 247 486 247 L 479 247 479 233.500 L 479 220 474.500 220 L 470 220 470.007 230.750 M 565 237.557 L 565 255.115 569.139 254.807 L 573.278 254.500 573.389 244.417 C 573.497 234.640, 573.586 234.260, 576.341 231.890 L 579.182 229.447 577.021 226.973 L 574.861 224.500 575.434 227.189 C 575.749 228.668, 575.545 230.163, 574.979 230.513 C 574.413 230.863, 574.015 230.778, 574.094 230.324 C 574.172 229.871, 574.184 227.363, 574.118 224.750 L 574 220 569.500 220 L 565 220 565 237.557 M 480 232 C 480 235.483, 480.311 238.023, 480.690 237.643 C 481.399 236.935, 481.157 226.831, 480.414 226.083 C 480.186 225.854, 480 228.517, 480 232 M 626.229 227.669 C 624.104 228.524, 622 233.663, 622 237.996 C 622 243.748, 625.352 247, 631.280 247 C 636.331 247, 639.369 244.466, 640.449 239.354 C 641.259 235.518, 639.006 229.608, 636.150 228.080 C 634.090 226.978, 628.521 226.747, 626.229 227.669 M 556.734 235.685 C 556.478 236.133, 557.050 237.762, 558.004 239.304 C 559.598 241.881, 559.781 241.947, 560.261 240.111 C 560.791 238.083, 557.629 234.115, 556.734 235.685 M 540.741 243.155 C 541.424 243.996, 541.777 244.889, 541.527 245.140 C 541.276 245.391, 542.578 245.697, 544.419 245.822 C 546.391 245.954, 547.969 245.523, 548.257 244.774 C 548.572 243.951, 547.817 243.475, 546.123 243.428 C 544.680 243.389, 542.600 242.967, 541.500 242.491 C 539.789 241.751, 539.679 241.847, 540.741 243.155 M 560.607 246.582 C 560.273 247.452, 560.036 249.139, 560.079 250.332 C 560.122 251.524, 560.386 251.935, 560.664 251.244 C 560.943 250.553, 561.501 250.192, 561.904 250.441 C 562.308 250.690, 562.443 249.568, 562.206 247.947 C 561.712 244.581, 561.458 244.365, 560.607 246.582 M 498.500 251 C 498.160 251.550, 498.021 252.034, 498.191 252.077 C 501.484 252.892, 502.044 252.758, 500.933 251.420 C 499.532 249.732, 499.308 249.693, 498.500 251 M 296.460 312.448 C 258.446 318.356, 226.853 346.396, 215.276 384.500 L 212.541 393.500 212.224 450.499 L 211.907 507.497 215.912 503.586 C 218.115 501.435, 219.641 499.229, 219.304 498.683 C 218.964 498.133, 219.196 498.003, 219.825 498.392 C 221.708 499.555, 244.423 480.494, 243.307 478.687 C 242.960 478.127, 243.196 478.003, 243.845 478.404 C 244.525 478.824, 249.726 475.156, 256.500 469.479 L 268 459.840 268 433.630 C 268 405.883, 268.653 400.522, 273.088 391.827 C 276.053 386.015, 283.348 378.541, 289.998 374.501 C 298.180 369.531, 305.863 368.032, 323.250 368.015 C 331.363 368.007, 338 367.757, 338 367.460 C 338 367.163, 337.125 365.205, 336.055 363.108 C 332.792 356.712, 324.284 330.060, 322.373 320.250 L 320.571 311 312.536 311.099 C 308.116 311.153, 300.882 311.760, 296.460 312.448 M 701.566 313.250 C 696.724 336.338, 694.300 344.548, 687.985 359.250 L 684.226 368 698.476 368 C 706.314 368, 715.151 368.452, 718.114 369.005 C 730.583 371.333, 743.994 381.135, 749.457 391.915 C 754.076 401.031, 754.964 408.041, 754.983 435.575 L 755 460.650 763.210 467.492 C 767.726 471.255, 772.001 474.333, 772.710 474.333 C 773.420 474.333, 773.779 474.554, 773.509 474.825 C 773.238 475.095, 773.511 475.910, 774.114 476.637 C 774.892 477.575, 775.741 477.674, 777.044 476.976 C 778.310 476.299, 779.100 476.353, 779.594 477.152 C 780.038 477.870, 779.871 478.038, 779.155 477.595 C 778.481 477.179, 778 477.498, 778 478.361 C 778 480.363, 795.835 495.220, 797.215 494.367 C 797.817 493.995, 798.034 494.137, 797.697 494.681 C 797.361 495.226, 800.244 498.269, 804.104 501.445 L 811.122 507.219 810.760 451.360 C 810.406 396.761, 810.345 395.308, 808.095 387 C 803.500 370.040, 795.239 355.522, 782.631 342.248 C 766.387 325.148, 745.044 314.674, 721.211 312.108 C 705.168 310.380, 702.131 310.557, 701.566 313.250 M 332.226 365.603 C 331.293 366.602, 331.456 366.841, 332.994 366.726 C 334.069 366.645, 335.142 366.073, 335.379 365.456 C 335.965 363.927, 333.693 364.033, 332.226 365.603 M 265.165 489.324 C 263.964 490.602, 263.323 492.025, 263.741 492.485 C 264.158 492.944, 263.968 493.016, 263.319 492.644 C 262.298 492.059, 225.232 521.881, 215.250 531.319 L 212 534.392 212 588.896 C 212 632.499, 212.250 643.150, 213.250 642.150 C 213.938 641.462, 214.510 640.360, 214.522 639.700 C 214.535 639.040, 215.210 638.604, 216.022 638.730 C 216.835 638.857, 219.975 636.717, 223 633.975 C 226.025 631.233, 228.050 629.105, 227.500 629.245 C 226.950 629.385, 226.387 629.163, 226.250 628.750 C 225.686 627.059, 226.081 626.822, 227.500 628 C 228.691 628.989, 229.306 628.991, 230.489 628.009 C 231.308 627.329, 231.688 626.305, 231.334 625.732 C 230.975 625.151, 231.171 624.988, 231.777 625.362 C 232.374 625.731, 233.456 625.186, 234.182 624.151 C 234.907 623.116, 235.869 622.247, 236.320 622.220 C 236.771 622.193, 240.514 619.402, 244.637 616.018 C 250.318 611.355, 251.877 609.557, 251.075 608.591 C 249.793 607.045, 250.670 605.936, 252.592 606.674 C 253.360 606.968, 253.734 607.725, 253.424 608.355 C 253.113 608.985, 254.766 607.475, 257.097 605 C 259.428 602.525, 260.939 601.175, 260.455 602 C 259.972 602.825, 261.471 602, 263.788 600.166 L 268 596.832 268 541.916 C 268 511.712, 267.853 487, 267.674 487 C 267.495 487, 266.366 488.046, 265.165 489.324 M 755 542.799 L 755 597.770 757.750 599.607 C 759.263 600.618, 760.837 601.345, 761.250 601.222 C 761.662 601.100, 761.947 601.338, 761.882 601.750 C 761.578 603.673, 762.163 603.983, 764.121 602.935 C 765.380 602.262, 765.985 602.215, 765.611 602.820 C 765.265 603.381, 766.110 604.728, 767.490 605.814 C 768.871 606.900, 770 608.139, 770 608.568 C 770 608.997, 768.875 608.292, 767.500 607 C 766.125 605.708, 765 604.922, 765 605.254 C 765 605.585, 769.782 609.825, 775.627 614.676 C 782.862 620.680, 787.014 623.460, 788.636 623.384 C 790.367 623.304, 790.749 623.598, 790.033 624.460 C 788.782 625.968, 790.680 628.060, 792.622 627.315 C 793.426 627.006, 794 627.429, 794 628.329 C 794 629.879, 808.987 642.839, 809.015 641.314 C 809.024 640.866, 809.467 641.175, 810 642 C 810.632 642.979, 810.975 624.520, 810.985 588.899 L 811 534.299 805.438 529.899 C 802.379 527.480, 799.421 525.624, 798.864 525.775 C 798.307 525.926, 798.106 525.638, 798.417 525.134 C 799.025 524.150, 794.044 520.392, 792.676 520.802 C 792.222 520.938, 792.115 520.623, 792.437 520.101 C 793.167 518.921, 787.543 514.790, 786.554 515.780 C 786.158 516.176, 785.983 515.986, 786.167 515.358 C 786.485 514.265, 781.401 509.672, 763.250 494.654 L 755 487.827 755 542.799 M 255.913 602.282 C 255.039 602.952, 254.327 604.288, 254.329 605.250 C 254.331 606.212, 254.446 606.888, 254.583 606.750 C 254.721 606.612, 254.758 606.210, 254.667 605.855 C 254.575 605.500, 255.357 604.263, 256.405 603.105 C 258.524 600.764, 258.324 600.431, 255.913 602.282 M 807.458 638.917 C 807.586 639.788, 808.092 640.500, 808.582 640.500 C 809.072 640.500, 809.610 639.788, 809.778 638.917 C 809.945 638.046, 809.440 637.333, 808.654 637.333 C 807.869 637.333, 807.330 638.046, 807.458 638.917" stroke="none" fill="currentColor" fill-rule="evenodd"/>
</svg>