<svg xmlns="http://www.w3.org/2000/svg" width="1024" height="1024" viewBox="0 0 1024 1024" version="1.1">
	<path fill-opacity="0.176" d="M 522 117.481 L 522 182.962 524.250 183.394 C 525.487 183.632, 530.775 184.337, 536 184.961 C 555.651 187.306, 575.095 192.843, 593 201.193 C 598.971 203.977, 601.946 204.882, 603 204.234 C 603.825 203.727, 606.750 200.051, 609.500 196.065 C 612.250 192.079, 621.288 179.297, 629.584 167.659 C 637.881 156.022, 647.106 143.080, 650.084 138.899 C 653.063 134.719, 657.662 128.194, 660.304 124.399 C 662.947 120.605, 667.784 113.675, 671.052 109 C 674.321 104.325, 676.994 100.050, 676.992 99.500 C 676.986 98.230, 673.613 96.283, 657.500 88.247 C 627.066 73.068, 591.338 61.211, 560 55.890 C 554.057 54.880, 527.929 52.052, 524.250 52.020 L 522 52 522 117.481 M 302 142.624 C 297.325 146.774, 288.100 154.734, 281.500 160.313 C 274.900 165.893, 265 174.518, 259.500 179.481 C 254 184.443, 246.152 191.428, 242.061 195.002 C 230.311 205.265, 228.583 206.916, 229.075 207.408 C 230.138 208.471, 367.001 208.315, 366.997 207.250 C 366.996 206.838, 362.609 200.923, 357.247 194.107 C 346.700 180.697, 338.287 169.790, 322.143 148.597 C 316.446 141.118, 311.496 135.018, 311.143 135.039 C 310.789 135.061, 306.675 138.474, 302 142.624 M 801 285 C 801 326.959, 801.328 346, 802.051 346 C 802.628 346, 806.566 344.676, 810.801 343.058 C 815.035 341.440, 824.800 337.812, 832.500 334.995 C 860.445 324.774, 865.975 322.490, 865.987 321.165 C 865.998 320.053, 859.541 309.878, 851.922 299 C 850.958 297.625, 844.461 287.725, 837.483 277 C 814.862 242.233, 802.581 224, 801.782 224 C 801.352 224, 801 251.450, 801 285 M 296 259.038 C 285.848 259.613, 282.460 260.831, 277.589 265.657 C 272.110 271.086, 272 271.961, 272 309.968 L 272 345 286 345 L 300 345 300.088 332.250 C 300.136 325.238, 300.100 312.404, 300.009 303.731 L 299.842 287.962 322.671 288.231 L 345.500 288.500 346 316.500 L 346.500 344.500 360 344.500 L 373.500 344.500 373.500 308.835 L 373.500 273.170 370.463 268.850 C 366.379 263.040, 361.945 260.248, 355.700 259.552 C 348.431 258.742, 307.459 258.389, 296 259.038 M 413.728 260.303 C 408.578 261.938, 403.399 266.297, 400.985 271.030 C 399.068 274.786, 398.986 276.601, 399.237 309.736 L 399.500 344.500 413.500 344.500 L 427.500 344.500 427.584 316.500 L 427.669 288.500 450.334 288.231 L 473 287.962 473 315.874 C 473 340.404, 473.192 343.860, 474.582 344.393 C 475.452 344.727, 481.743 345, 488.563 345 C 500.588 345, 500.979 344.932, 501.523 342.750 C 501.831 341.512, 501.952 325.650, 501.792 307.500 L 501.500 274.500 499 270.044 C 497.625 267.594, 494.550 264.219, 492.166 262.544 L 487.831 259.500 452.666 259.303 C 427.628 259.162, 416.414 259.450, 413.728 260.303 M 539.155 260.027 C 533.553 260.842, 528.544 264.053, 524.565 269.380 C 522.580 272.036, 522.489 273.557, 522.214 308.572 L 521.929 345 535.949 345 L 549.969 345 550.234 316.750 L 550.500 288.500 572.750 288.231 L 595 287.962 595.138 295.731 C 595.214 300.004, 595.551 312.725, 595.888 324 L 596.500 344.500 610.224 344.778 L 623.948 345.056 624.631 342.335 C 625.592 338.505, 624.166 275.567, 623.051 272.635 C 621.547 268.678, 615.794 262.812, 611.509 260.865 C 607.886 259.219, 604.469 259.054, 576 259.147 C 558.675 259.203, 542.095 259.599, 539.155 260.027 M 661.030 261.788 C 657.061 263.786, 654.807 265.771, 652.816 269.021 L 650.072 273.500 649.701 305.500 C 649.498 323.100, 649.542 339.200, 649.801 341.277 L 650.271 345.055 663.885 344.777 L 677.500 344.500 677.766 316.231 L 678.031 287.962 700.266 288.231 L 722.500 288.500 722.766 316.750 L 723.031 345 736.997 345 L 750.962 345 751.611 342.414 C 751.968 340.992, 751.950 324.943, 751.571 306.750 C 751.049 281.731, 750.546 273.023, 749.505 271.011 C 747.385 266.910, 740.563 261.250, 736.321 260.072 C 733.978 259.422, 719.733 259.015, 699.500 259.022 L 666.500 259.034 661.030 261.788 M 188.398 273.750 C 185.253 279.113, 178.113 291.150, 172.530 300.500 C 160.326 320.941, 156.523 327.856, 157.142 328.475 C 158.296 329.630, 212.736 342.471, 219.500 343.184 L 222.500 343.500 222.779 310.500 C 222.933 292.350, 222.831 276.563, 222.552 275.418 C 222.216 274.033, 220.614 272.878, 217.773 271.970 C 215.423 271.218, 209.762 269.118, 205.194 267.302 C 200.626 265.486, 196.264 264, 195.502 264 C 194.740 264, 191.543 268.387, 188.398 273.750 M 272 397.540 C 272 431.092, 272.112 433.299, 273.998 436.995 C 276.273 441.455, 281.451 445.950, 286.239 447.620 C 288.545 448.425, 299.603 448.612, 324 448.259 C 361.292 447.720, 361.956 447.625, 367.817 442.024 C 373.788 436.319, 374.081 434.075, 373.776 396.500 L 373.500 362.500 359.500 362.500 L 345.500 362.500 345.483 391 L 345.466 419.500 322.983 419.500 L 300.500 419.500 300.234 391.549 C 300.035 370.717, 299.653 363.398, 298.734 362.814 C 298.055 362.383, 291.762 362.024, 284.750 362.015 L 272 362 272 397.540 M 399.022 396.750 C 399.047 435.867, 399.133 436.398, 406.520 442.884 C 413.907 449.369, 413.745 449.349, 451.840 448.612 C 482.913 448.012, 486.538 447.766, 489.935 446.033 C 494.434 443.738, 499.679 438.007, 500.736 434.232 C 501.156 432.729, 501.500 415.975, 501.500 397 L 501.500 362.500 487.500 362.500 L 473.500 362.500 473.235 391.250 L 472.969 420 450.485 420 L 428 420 427.892 414.250 C 427.833 411.087, 427.853 398.947, 427.938 387.270 C 428.037 373.672, 427.703 365.314, 427.011 364.020 C 426.008 362.147, 424.951 362, 412.465 362 L 399 362 399.022 396.750 M 522.694 362.639 C 522.312 363.021, 522.010 378.896, 522.022 397.917 C 522.042 429.740, 522.196 432.834, 523.945 436.688 C 526.101 441.437, 532.385 446.488, 538.026 448.007 C 540.431 448.655, 553.949 448.742, 576.287 448.254 L 610.830 447.500 615.110 444.491 C 617.705 442.667, 620.397 439.525, 621.945 436.513 L 624.500 431.545 624.165 397.540 C 623.981 378.837, 623.617 363.190, 623.356 362.767 C 623.095 362.345, 616.864 362, 609.508 362 C 596.708 362, 596.106 362.092, 595.453 364.147 C 595.079 365.327, 594.936 378.265, 595.136 392.897 L 595.500 419.500 572.765 419.769 L 550.031 420.037 549.765 391.269 L 549.500 362.500 536.444 362.222 C 529.264 362.070, 523.076 362.257, 522.694 362.639 M 649.768 385.750 C 649.621 398.813, 649.725 415.386, 650 422.580 C 650.474 434.976, 650.646 435.852, 653.284 439.308 C 654.815 441.314, 658.037 444.109, 660.443 445.519 L 664.818 448.083 700.159 448.170 C 723.419 448.227, 736.422 447.887, 738.198 447.173 C 739.681 446.577, 742.716 444.444, 744.942 442.433 C 751.536 436.476, 751.843 434.308, 751.384 396.935 C 751.165 379.096, 750.989 363.938, 750.993 363.250 C 750.998 362.309, 747.537 362, 737 362 L 723 362 723 391.019 L 723 420.038 700.750 419.769 L 678.500 419.500 677.961 391 C 677.664 375.325, 677.327 362.387, 677.211 362.250 C 677.095 362.113, 670.933 362, 663.518 362 L 650.036 362 649.768 385.750 M 888 410.049 C 883.875 412.227, 873.750 417.438, 865.500 421.631 C 857.250 425.824, 840.825 434.316, 829 440.503 C 808.515 451.221, 797.859 456.744, 761.500 475.491 C 752.700 480.028, 736.950 488.158, 726.500 493.558 C 716.050 498.957, 706.491 503.853, 705.259 504.438 C 704.026 505.022, 703.160 505.940, 703.334 506.477 C 703.735 507.712, 721.182 516.651, 798.500 555.232 C 832.600 572.248, 863.425 587.721, 867 589.617 C 878.048 595.474, 894.153 603, 895.640 603 C 896.851 603, 897.037 589.060, 896.927 506.250 C 896.857 453.038, 896.507 408.733, 896.150 407.795 C 895.577 406.292, 894.613 406.558, 888 410.049 M 127.010 509.500 C 127.033 593.446, 127.245 608, 128.443 608 C 129.216 608, 147.995 598.853, 170.174 587.673 C 217.298 563.919, 234.264 555.225, 301.100 520.585 C 317.673 511.996, 321.805 509.530, 321 508.708 C 320.520 508.217, 313.673 504.709, 242.500 468.486 C 169.485 431.326, 129.010 411, 128.027 411 C 127.308 411, 126.991 441.706, 127.010 509.500 M 487 500.490 C 417.184 510.928, 359.652 564.485, 346.046 631.704 C 342.675 648.362, 341.648 669.790, 343.527 684.317 C 345.385 698.684, 347.092 706.604, 350.681 717.500 C 353.126 724.926, 358.592 737.953, 361.137 742.421 C 361.738 743.478, 363.364 746.403, 364.749 748.921 C 379.675 776.055, 405.925 800.349, 437.708 816.445 C 471.376 833.494, 518.677 837.640, 557.796 826.971 C 597.926 816.026, 633.713 789.294, 655.840 753.736 C 672.122 727.569, 679.754 701.868, 680.704 670 C 681.457 644.758, 678.381 627.362, 669.035 604 C 659.353 579.802, 646.862 562.030, 625.626 542.242 C 612.923 530.405, 588.202 515.636, 569.500 508.711 C 561.609 505.789, 542.693 501.425, 531.767 500.006 C 521.696 498.698, 497.217 498.962, 487 500.490 M 679.075 543.845 C 675.286 551.677, 675.066 550.677, 683.278 562.887 C 692.698 576.894, 703.287 601.623, 707.304 619 C 708.130 622.575, 709.284 627.583, 709.867 630.129 C 711.856 638.810, 713.271 662.338, 712.656 676.500 C 711.500 703.090, 704.738 728.718, 692.083 754.468 C 680.676 777.679, 667.057 795.817, 647.386 814 L 639.272 821.500 696.386 821.784 L 753.500 822.068 755.500 819.391 C 767.525 803.299, 778.464 788.363, 788 775.016 C 794.325 766.163, 805.085 751.401, 811.910 742.210 C 818.736 733.020, 828.687 719.398, 834.024 711.939 C 839.361 704.480, 847.862 692.780, 852.916 685.939 C 857.970 679.098, 863.901 671.025, 866.097 668 C 868.293 664.975, 873.482 657.860, 877.628 652.189 C 881.775 646.518, 884.959 641.343, 884.704 640.689 C 884.212 639.425, 875.981 635.076, 829 611.253 C 812.775 603.026, 796.575 594.721, 793 592.799 C 784.331 588.137, 761.994 576.537, 737.500 563.977 C 726.500 558.336, 714.125 551.921, 710 549.721 C 696.148 542.335, 685.143 537, 683.759 537 C 683.004 537, 680.896 540.080, 679.075 543.845 M 318.500 550.106 C 311.350 553.993, 301.675 559.078, 297 561.405 C 292.325 563.733, 284.225 567.911, 279 570.689 C 273.775 573.468, 263.650 578.790, 256.500 582.515 C 249.350 586.240, 239.900 591.182, 235.500 593.497 C 231.100 595.812, 220.300 601.436, 211.500 605.995 C 202.700 610.554, 195.050 614.608, 194.500 615.003 C 193.950 615.399, 182.250 621.482, 168.500 628.520 C 140.386 642.911, 140 643.126, 140 644.409 C 140 644.919, 143.937 650.603, 148.750 657.039 C 153.562 663.475, 163.350 676.722, 170.500 686.477 C 201.928 729.357, 262.753 811.195, 270.262 820.703 L 276.024 828 333.512 828 C 392.609 828, 394.799 827.853, 389.078 824.281 C 382.999 820.484, 361.206 799.640, 357.074 793.669 C 356.248 792.476, 354.524 790.375, 353.242 789 C 348.899 784.341, 336.294 764.549, 331.268 754.499 C 314.871 721.712, 307.258 680.100, 311.438 646.115 C 314.099 624.478, 316.461 614.763, 323.513 596.451 C 328.530 583.425, 332.199 576.018, 338.299 566.599 L 342.770 559.697 339.801 554.599 C 335.847 547.806, 332.614 543.011, 332 543.027 C 331.725 543.034, 325.650 546.220, 318.500 550.106 M 256.242 930.748 L 256.500 992.500 410.500 992.201 C 495.200 992.036, 610.291 991.923, 666.258 991.951 L 768.015 992 767.758 930.750 L 767.500 869.500 511.742 869.248 L 255.985 868.996 256.242 930.748" stroke="none" fill="currentColor" fill-rule="evenodd"/>
	<path fill-opacity="0.253" d="M 522.377 53.464 C 522.160 54.034, 522.098 83.300, 522.241 118.500 L 522.500 182.500 528 183.301 C 558.512 187.743, 571.477 191.157, 591.125 199.924 C 601.509 204.558, 602.433 204.800, 603.688 203.213 C 604.433 202.271, 609.166 195.650, 614.207 188.500 C 619.247 181.350, 630.119 166.050, 638.367 154.500 C 673.055 105.923, 677.177 99.746, 675.799 98.406 C 673.224 95.903, 644.062 82.062, 627.956 75.699 C 601.909 65.409, 578.232 59.057, 551 55.054 C 538.196 53.173, 522.815 52.318, 522.377 53.464 M 301.255 143.750 C 296.398 148.012, 289.547 153.975, 286.029 157 C 264.975 175.104, 231.584 204.575, 230.128 206.338 C 228.851 207.884, 233.526 208, 297.378 208 C 343.897 208, 366 207.667, 366 206.968 C 366 206.400, 358.937 196.837, 350.304 185.718 C 341.671 174.598, 330.616 160.325, 325.736 154 C 312.085 136.306, 311.834 136, 310.932 136 C 310.466 136, 306.112 139.488, 301.255 143.750 M 801.513 259.168 C 800.712 297.196, 801.099 343.436, 802.228 344.563 C 802.628 344.962, 808.928 343.127, 816.228 340.484 C 834.198 333.978, 865.145 322.189, 865.693 321.641 C 865.937 321.397, 861.312 313.840, 855.416 304.848 C 849.520 295.857, 842.203 284.675, 839.157 280 C 836.111 275.325, 829.123 264.750, 823.628 256.500 C 818.133 248.250, 811.412 238.125, 808.692 234 C 805.973 229.875, 803.408 226.126, 802.992 225.668 C 802.576 225.210, 801.910 240.285, 801.513 259.168 M 282.542 262.275 C 280.364 263.508, 277.214 266.464, 275.542 268.843 L 272.500 273.169 272.213 308.613 L 271.927 344.057 285.713 343.778 L 299.500 343.500 300 315.500 C 300.462 289.649, 300.634 287.506, 302.250 287.583 C 303.212 287.629, 313.443 287.742, 324.984 287.833 L 345.968 288 346.234 315.750 L 346.500 343.500 360 343.500 L 373.500 343.500 373.764 311.051 C 373.984 284.054, 373.771 277.825, 372.495 273.985 C 370.818 268.937, 365.159 262.743, 360.685 261.060 C 358.892 260.385, 344.914 260.006, 322.185 260.016 C 287.075 260.033, 286.436 260.069, 282.542 262.275 M 411.236 261.654 C 406.271 264.102, 401.328 269.758, 399.996 274.516 C 399.144 277.556, 398.901 288.114, 399.150 311.144 L 399.500 343.500 413.250 343.778 L 427 344.056 427 315.997 C 427 291.875, 427.212 287.856, 428.512 287.357 C 429.344 287.038, 439.807 287.164, 451.762 287.638 L 473.500 288.500 473.766 316.250 L 474.032 344 487.552 344 L 501.072 344 500.786 308.091 L 500.500 272.183 497.405 268.341 C 495.703 266.229, 492.553 263.495, 490.405 262.266 C 486.562 260.068, 485.928 260.033, 450.500 260.039 C 419.446 260.045, 414.052 260.267, 411.236 261.654 M 533.056 262.252 C 530.713 263.491, 527.380 266.459, 525.648 268.849 L 522.500 273.194 522.214 308.597 L 521.927 344 535.964 344 L 550 344 550 316 L 550 288 573 288 L 596 288 596 316 L 596 344 610 344 L 624 344 624 309.960 C 624 278.400, 623.861 275.650, 622.088 272.210 C 619.737 267.649, 614.451 262.481, 610.685 261.061 C 608.894 260.386, 595.035 260, 572.592 260 C 537.925 260, 537.241 260.039, 533.056 262.252 M 662.007 261.593 C 657.464 263.563, 654.261 266.612, 651.903 271.210 C 650.141 274.646, 650 277.476, 650 309.460 L 650 344 663.364 344 L 676.727 344 677.434 333.448 C 677.823 327.645, 677.823 315.117, 677.434 305.608 C 676.849 291.288, 676.966 288.248, 678.114 287.909 C 678.876 287.684, 689.374 287.725, 701.442 288 L 723.383 288.500 723.607 315.889 C 723.743 332.483, 724.219 343.519, 724.814 343.889 C 725.354 344.225, 731.467 344.362, 738.398 344.193 L 751 343.886 751 309.655 C 751 276.145, 750.953 275.330, 748.750 270.962 C 747.296 268.078, 744.780 265.351, 741.637 263.250 L 736.774 260 701.137 260.039 C 671.573 260.072, 664.905 260.336, 662.007 261.593 M 189.055 273.250 C 186.094 278.337, 177.927 292.193, 170.906 304.040 C 163.885 315.886, 157.996 326.186, 157.820 326.928 C 157.595 327.876, 160.766 329.126, 168.500 331.139 C 182.058 334.668, 211.992 341.568, 217.763 342.495 L 222.026 343.180 221.763 308.529 L 221.500 273.878 208.500 268.950 C 201.350 266.239, 195.261 264.016, 194.969 264.010 C 194.677 264.005, 192.015 268.163, 189.055 273.250 M 272 397.407 C 272 416.361, 272.420 432.974, 272.933 434.324 C 274.372 438.108, 279.898 443.907, 284.115 446.059 C 287.660 447.867, 290.229 448, 321.710 447.994 C 341.868 447.991, 357 447.572, 359.219 446.956 C 364.053 445.613, 368.538 441.776, 371.294 436.624 C 373.417 432.655, 373.512 431.285, 373.814 400.072 C 373.986 382.237, 373.865 366.599, 373.545 365.322 C 372.971 363.036, 372.751 363, 359.481 363 L 346 363 346 391.500 L 346 420 323.016 420 L 300.031 420 299.766 391.750 L 299.500 363.500 285.750 363.222 L 272 362.944 272 397.407 M 399.199 397.221 C 399.576 435.146, 399.896 437.210, 406.231 442.541 C 412.571 447.876, 413.577 448, 450.426 448 L 484.607 448 489.919 445.353 C 493.703 443.468, 496.060 441.398, 498.115 438.157 L 501 433.608 501 398.304 L 501 363 487.500 363 L 474 363 473.855 369.750 C 473.775 373.462, 473.828 386.288, 473.973 398.250 L 474.237 420 450.634 420 L 427.031 420 426.766 391.750 L 426.500 363.500 412.680 363.221 L 398.859 362.943 399.199 397.221 M 522 397.032 C 522 434.079, 522.169 435.367, 527.803 441.376 C 533.788 447.758, 535.084 447.954, 571.568 447.978 C 609.672 448.003, 612.422 447.596, 618.335 441.051 C 620.292 438.885, 622.373 435.329, 622.960 433.149 C 623.642 430.616, 623.932 417.325, 623.764 396.342 L 623.500 363.500 609.750 363.222 L 596 362.944 596 391.472 L 596 420 573 420 L 550 420 550 393.082 C 550 378.277, 549.727 365.452, 549.393 364.582 C 548.881 363.248, 546.683 363, 535.393 363 L 522 363 522 397.032 M 650 397.532 C 650 435.433, 650.106 436.217, 656.012 441.861 C 662.342 447.910, 663.883 448.109, 702 447.789 C 734.742 447.515, 736.704 447.394, 740.500 445.411 C 742.700 444.262, 745.850 441.411, 747.500 439.076 L 750.500 434.831 750.786 398.915 L 751.072 363 737.676 363 L 724.280 363 723.694 377.250 C 723.372 385.087, 723.313 397.913, 723.563 405.750 L 724.018 420 701.153 420 L 678.289 420 677.652 413.250 C 677.301 409.538, 677.011 396.712, 677.007 384.750 L 677 363 663.500 363 L 650 363 650 397.532 M 892.450 407.882 C 891.928 408.367, 882.500 413.372, 871.500 419.004 C 847.653 431.214, 825.137 442.875, 815.500 448.007 C 803.760 454.259, 782.881 465.035, 753.500 480.007 C 738.100 487.855, 722.800 495.729, 719.500 497.506 C 716.200 499.283, 711.073 501.961, 708.108 503.457 L 702.715 506.178 707.108 508.703 C 712.664 511.897, 894.572 603, 895.393 603 C 895.727 603, 896 558.900, 896 505 C 896 404.318, 896.009 404.577, 892.450 407.882 M 128 510 C 128 563.900, 128.261 608, 128.580 608 C 129.120 608, 204.669 569.851, 235 554.262 C 242.425 550.446, 260.650 541.096, 275.500 533.484 C 290.350 525.872, 306.042 517.699, 310.372 515.322 C 314.701 512.945, 318.612 511, 319.063 511 C 323.119 511, 317.872 507.520, 299.764 498.199 C 225.721 460.088, 130.496 412, 129.070 412 C 128.317 412, 128 441.045, 128 510 M 490.909 500.428 C 451.755 505.442, 415.985 523.458, 388.825 551.846 C 366.450 575.233, 351.211 604.765, 345.403 636 C 343.277 647.430, 342.468 673.369, 343.866 685.228 C 347.070 712.392, 358.973 742.203, 375.718 765 C 378.748 769.125, 386.464 777.695, 392.864 784.045 C 409.167 800.221, 426.469 811.428, 452 822.350 C 457.024 824.499, 473.941 828.655, 485.543 830.591 C 499.070 832.849, 526.237 832.860, 538.903 830.615 C 563.318 826.285, 584.647 818.220, 603.500 806.188 C 639.885 782.966, 667.276 744.405, 676.441 703.500 C 681.368 681.512, 682.162 662.889, 679.046 642.369 C 674.754 614.101, 665.025 590.399, 648.634 568.276 C 625.290 536.770, 592.558 514.580, 555.399 505.069 C 534.578 499.740, 510.058 497.976, 490.909 500.428 M 680.280 542.250 C 678.766 545.138, 677.212 548.251, 676.826 549.169 C 676.351 550.298, 678.062 553.853, 682.117 560.169 C 694.102 578.830, 704.253 602.612, 708.509 622 C 709.415 626.125, 711.093 637.375, 712.238 647 C 714.103 662.670, 714.201 665.980, 713.171 678.647 C 709.710 721.201, 697.688 752.717, 670.692 790 C 668.502 793.025, 660.632 801.462, 653.204 808.750 L 639.699 822 696.600 821.948 L 753.500 821.897 764.587 806.698 C 770.685 798.339, 780.810 784.354, 787.087 775.620 C 793.364 766.886, 803.335 753.161, 809.244 745.120 C 815.154 737.079, 824.562 724.200, 830.152 716.500 C 835.742 708.800, 845.111 695.975, 850.972 688 C 883.630 643.563, 885.405 641.072, 884.832 640.499 C 884.237 639.904, 869.505 632.300, 834 614.263 C 816.125 605.183, 798.350 596.072, 794.500 594.017 C 786.505 589.749, 765.408 578.780, 743.500 567.500 C 735.250 563.252, 718.555 554.652, 706.400 548.388 C 694.245 542.125, 684.015 537, 683.667 537 C 683.319 537, 681.795 539.362, 680.280 542.250 M 323 548.157 C 312.402 553.894, 298.196 561.341, 278.500 571.486 C 269.150 576.302, 258.800 581.713, 255.500 583.510 C 252.200 585.308, 237.575 592.975, 223 600.549 C 208.425 608.123, 190.650 617.411, 183.500 621.190 C 176.350 624.968, 163.898 631.406, 155.830 635.496 C 147.761 639.586, 140.920 643.320, 140.628 643.794 C 140.335 644.267, 144.461 650.515, 149.798 657.677 C 155.134 664.840, 164.225 677.156, 170 685.047 C 188.815 710.756, 218.409 750.741, 247.123 789.250 L 275.271 827 333.136 827 C 364.961 827, 391 826.816, 391 826.591 C 391 826.366, 388.037 823.854, 384.415 821.007 C 364.248 805.159, 346.011 783.073, 333.108 758.873 C 307.285 710.442, 303.039 651.693, 321.637 600.162 C 325.850 588.490, 333.966 571.807, 338.606 565.280 C 340.473 562.654, 342 560.192, 342 559.807 C 342 558.801, 334.859 546.736, 333.383 545.250 C 331.668 543.522, 331.448 543.584, 323 548.157 M 256 931 L 256 992 512 992 L 768 992 768 931 L 768 870 512 870 L 256 870 256 931" stroke="none" fill="currentColor" fill-rule="evenodd"/>
	<path fill-opacity="0.592" d="M 523 118 L 523 183 526.921 183 C 534.287 183, 559.484 187.894, 571 191.562 C 577.325 193.576, 586.728 197.199, 591.896 199.612 C 597.064 202.025, 601.645 204, 602.077 204 C 602.509 204, 605.461 200.288, 608.637 195.750 C 611.812 191.213, 625.439 171.975, 638.918 153 C 677.530 98.643, 676.669 99.970, 674.408 98.268 C 671.381 95.988, 645.905 83.366, 636.271 79.372 C 610.914 68.860, 584.050 60.949, 560.500 57.058 C 548.940 55.148, 530.357 53, 525.394 53 L 523 53 523 118 M 301.500 144.157 C 297.100 148.069, 286.939 156.946, 278.921 163.885 C 250.420 188.546, 231.495 205.292, 231.167 206.140 C 230.983 206.615, 260.909 207, 298 207 C 342.305 207, 365.053 206.660, 364.833 206.001 C 364.650 205.451, 359.775 198.859, 354 191.353 C 321.432 149.018, 312.248 137.484, 310.946 137.276 C 310.151 137.149, 305.900 140.246, 301.500 144.157 M 802 285.500 C 802 318.225, 802.124 345, 802.275 345 C 802.426 345, 809.064 342.595, 817.025 339.654 C 852.269 326.639, 865 321.656, 865 320.875 C 865 320.415, 862.812 316.767, 860.138 312.769 C 857.464 308.771, 850.120 297.625, 843.818 288 C 821.080 253.275, 802.879 226, 802.444 226 C 802.200 226, 802 252.775, 802 285.500 M 285.637 261.440 C 280.929 263.149, 276.656 267.099, 274.422 271.807 C 272.966 274.874, 272.761 279.328, 272.833 306.414 C 272.879 323.511, 272.935 338.976, 272.958 340.780 L 273 344.060 285.750 343.780 L 298.500 343.500 298.766 315.250 L 299.031 287 323 287 L 346.969 287 347.234 315.250 L 347.500 343.500 360.286 343.626 L 373.072 343.751 372.786 308.460 L 372.500 273.169 369.500 268.924 C 367.850 266.589, 364.700 263.738, 362.500 262.589 C 358.697 260.603, 356.804 260.489, 324 260.269 C 296.459 260.085, 288.721 260.321, 285.637 261.440 M 415.692 261.175 C 409.583 262.033, 404.342 265.973, 401.868 271.566 C 400.111 275.537, 399.992 278.316, 400.237 309.674 L 400.500 343.500 413.234 343.780 L 425.969 344.060 426.234 315.780 L 426.500 287.500 450.129 287.232 L 473.757 286.964 474.365 289.232 C 474.699 290.479, 474.979 303.087, 474.986 317.250 L 475 343 481.250 343.007 C 484.688 343.011, 490.538 343.301, 494.250 343.652 L 501 344.289 500.978 310.395 C 500.954 272.994, 500.778 271.806, 494.376 265.803 C 488.270 260.077, 486.806 259.883, 452.175 260.205 C 434.754 260.367, 418.337 260.804, 415.692 261.175 M 546.840 260.899 C 534.617 261.479, 534.049 261.606, 530.410 264.553 C 523.378 270.249, 523.164 271.277, 522.691 301.500 C 522.459 316.350, 522.499 332, 522.779 336.279 L 523.290 344.058 535.895 343.779 L 548.500 343.500 548.766 315.232 L 549.031 286.964 572.766 287.232 L 596.500 287.500 597 315.500 L 597.500 343.500 610.250 343.780 L 623 344.060 623 309.226 L 623 274.392 620.121 269.852 C 618.538 267.356, 615.500 264.230, 613.371 262.907 C 609.564 260.540, 609.084 260.498, 584.500 260.399 C 570.750 260.344, 553.803 260.569, 546.840 260.899 M 663.625 261.439 C 661.493 262.215, 658.236 264.317, 656.387 266.109 C 650.136 272.168, 649.916 273.752, 650.224 310.500 L 650.500 343.500 663.500 343.500 L 676.500 343.500 676.766 315.250 L 677.031 287 700.500 287 L 723.969 287 724.234 315.250 L 724.500 343.500 737.750 343.779 L 751 344.058 751 310.497 C 751 273.959, 750.817 272.578, 745.197 266.661 C 739.309 260.462, 739.713 260.522, 702 260.263 C 674.331 260.074, 666.733 260.306, 663.625 261.439 M 183.536 283.764 C 177.505 294.069, 169.264 308.058, 165.221 314.852 C 161.178 321.645, 158.106 327.439, 158.394 327.727 C 159.179 328.513, 183.364 334.600, 201.443 338.564 C 210.212 340.486, 218.425 342.319, 219.693 342.638 L 222 343.217 222 309.144 C 222 277.712, 221.864 274.999, 220.250 274.144 C 217.430 272.652, 196.743 264.999, 195.571 265.014 C 194.982 265.022, 189.566 273.459, 183.536 283.764 M 272.441 364.092 C 272.241 364.417, 272.196 380.016, 272.341 398.755 L 272.604 432.826 275.552 437.585 C 277.472 440.685, 280.037 443.157, 282.907 444.672 C 287.281 446.982, 287.584 447, 322.689 447 C 350.556 447, 358.747 446.707, 361.282 445.619 C 365.448 443.832, 370.427 438.412, 371.866 434.101 C 372.622 431.834, 373 419.422, 373 396.851 L 373 363 361.250 363.015 C 354.788 363.024, 348.945 363.383, 348.266 363.814 C 347.347 364.398, 346.965 371.717, 346.766 392.549 L 346.500 420.500 322.750 420.768 L 299 421.036 299 392.574 L 299 364.111 285.902 363.806 C 278.698 363.638, 272.641 363.766, 272.441 364.092 M 481 363.923 L 474.500 364.500 474.500 392.500 L 474.500 420.500 450.500 420.500 L 426.500 420.500 426.234 392.250 L 425.969 364 412.984 364 L 400 364 400 397.788 C 400 430.856, 400.048 431.670, 402.250 435.980 C 403.488 438.402, 406.229 441.760, 408.341 443.442 L 412.183 446.500 447.841 446.809 C 471.453 447.014, 484.752 446.752, 487.205 446.033 C 492.366 444.520, 496.894 440.414, 499.115 435.231 C 500.838 431.212, 501 427.921, 501 396.917 L 501 363 494.250 363.173 C 490.538 363.268, 484.575 363.605, 481 363.923 M 724.654 363.679 C 724.295 364.039, 724 377.083, 724 392.667 L 724 421 700.500 421 L 677 421 677 392.500 L 677 364 663.463 364 L 649.925 364 650.213 398.250 C 650.539 437.183, 650.627 437.638, 658.925 443.500 L 663.172 446.500 700.993 446.500 L 738.814 446.500 742.657 443.436 C 750.443 437.227, 750.500 436.899, 750.500 398.209 L 750.500 363.918 737.904 363.471 C 730.977 363.226, 725.014 363.319, 724.654 363.679 M 522.991 367.750 C 522.986 369.813, 522.787 384.744, 522.548 400.931 L 522.113 430.363 524.675 435.779 C 526.570 439.783, 528.430 441.951, 531.814 444.097 L 536.392 447 572.380 447 C 607.010 447, 608.534 446.920, 612.750 444.879 C 615.388 443.602, 618.200 441.144, 619.816 438.704 L 622.500 434.650 622.786 399.325 L 623.073 364 610.036 364 L 597 364 597 392.500 L 597 421 573 421 L 549 421 549 392.500 L 549 364 536 364 L 523 364 522.991 367.750 M 854.500 428.324 C 833.050 439.459, 806.950 453.002, 796.500 458.419 C 786.050 463.835, 772.100 471.077, 765.500 474.510 C 747.868 483.683, 721.713 497.125, 712.091 501.958 L 703.681 506.183 709.091 509.181 C 721.748 516.197, 894.155 602.022, 894.796 601.626 C 895.739 601.043, 895.185 407.989, 894.240 408.039 C 893.833 408.060, 875.950 417.188, 854.500 428.324 M 128 509.500 C 128 574.786, 128.335 607, 129.015 607 C 130.407 607, 251.529 545.528, 299.500 520.475 C 306.100 517.029, 313.442 513.201, 315.815 511.969 C 318.188 510.738, 319.763 509.403, 319.315 509.003 C 318.313 508.109, 291.947 494.561, 240 468.246 C 218.275 457.241, 184.416 440.084, 164.758 430.119 C 145.100 420.153, 128.787 412, 128.508 412 C 128.229 412, 128 455.875, 128 509.500 M 487 501.473 C 476.228 503.263, 460.540 507.319, 451.500 510.653 C 442.664 513.911, 424.163 523.560, 415.948 529.193 C 395.148 543.457, 373.348 567.512, 362.655 588 C 333.974 642.950, 337.332 706.684, 371.612 758 C 425.165 838.166, 538.376 856.406, 615.312 797.264 C 639.552 778.631, 659.578 751.399, 670.293 722.500 C 677.933 701.897, 681.675 675.700, 679.907 655.197 C 676.147 611.581, 660.915 578.619, 630.590 548.477 C 614.073 532.060, 596.446 520.530, 574.500 511.788 C 563.997 507.604, 558.194 505.902, 544.500 502.990 C 531.351 500.194, 499.727 499.359, 487 501.473 M 679.805 544.441 L 676.629 550.883 681.427 558.098 C 715.746 609.710, 723.407 675.439, 701.941 734.104 C 690.723 764.762, 673.653 790.460, 649.866 812.500 C 645.117 816.900, 641.180 820.831, 641.116 821.236 C 641.052 821.641, 666.149 821.943, 696.886 821.907 L 752.772 821.840 772.561 794.670 C 804.208 751.220, 849.915 688.634, 870.674 660.328 C 878.003 650.334, 884 641.709, 884 641.161 C 884 640.614, 872.638 634.446, 858.750 627.456 C 844.862 620.466, 829 612.388, 823.500 609.507 C 818 606.625, 805.400 600.097, 795.500 595 C 785.600 589.904, 773 583.373, 767.500 580.487 C 762 577.602, 749.625 571.194, 740 566.247 C 730.375 561.300, 714.114 552.921, 703.865 547.627 C 693.616 542.332, 684.724 538, 684.106 538 C 683.487 538, 681.552 540.899, 679.805 544.441 M 325.991 547.213 C 320.886 550.056, 295.981 563.073, 259 582.226 C 250.475 586.642, 240.350 591.938, 236.500 593.997 C 232.650 596.055, 222.750 601.237, 214.500 605.512 C 206.250 609.787, 197.250 614.511, 194.500 616.010 C 191.750 617.509, 179.150 624.034, 166.500 630.510 C 153.850 636.986, 142.907 642.830, 142.182 643.496 C 141.112 644.479, 144.337 649.413, 159.245 669.604 C 169.355 683.297, 185.227 704.850, 194.516 717.500 C 236.526 774.710, 275.106 826.104, 276.421 826.607 C 277.014 826.834, 302.889 826.902, 333.920 826.760 L 390.341 826.500 382.920 820.532 C 349.597 793.732, 323.703 752.122, 314.441 710.491 C 308.466 683.632, 308.291 651.767, 313.969 624.500 C 318.241 603.982, 328.052 580.186, 338.852 564.149 L 341.782 559.798 337.861 552.996 C 335.704 549.255, 333.386 545.735, 332.710 545.174 C 331.838 544.451, 329.886 545.043, 325.991 547.213 M 256.242 930.750 L 256.500 991.500 512 991.500 L 767.500 991.500 767.758 930.750 L 768.015 870 512 870 L 255.985 870 256.242 930.750" stroke="none" fill="currentColor" fill-rule="evenodd"/>
	<path fill-opacity="0.157" d="M 523.990 71.750 C 523.984 81.513, 523.872 110.246, 523.740 135.603 L 523.500 181.706 532.500 182.889 C 537.450 183.540, 545.013 184.777, 549.306 185.638 C 553.600 186.499, 557.988 186.975, 559.058 186.695 C 560.170 186.404, 560.746 186.602, 560.403 187.157 C 560.033 187.756, 561.278 187.907, 563.652 187.553 C 565.851 187.225, 566.738 187.314, 565.721 187.762 C 564.426 188.333, 567.074 189.577, 575.463 192.338 C 581.798 194.423, 587.506 195.805, 588.146 195.410 C 588.833 194.985, 589.041 195.125, 588.654 195.751 C 588.081 196.678, 599.746 203, 602.031 203 C 602.474 203, 603.818 201.413, 605.016 199.473 C 606.215 197.534, 607.714 195.396, 608.348 194.723 C 608.982 194.051, 611.339 190.800, 613.586 187.500 C 615.834 184.200, 620.874 177, 624.787 171.500 C 637.170 154.094, 638.506 152.049, 638.225 150.937 C 638.074 150.340, 638.412 150.136, 638.975 150.485 C 639.539 150.833, 640 150.726, 640 150.248 C 640 149.769, 640.788 148.488, 641.750 147.401 C 642.712 146.314, 644.436 144.092, 645.581 142.462 C 646.725 140.833, 649.352 137.086, 651.418 134.136 C 653.484 131.186, 655.349 127.395, 655.562 125.711 C 655.959 122.569, 657.703 120.699, 659.309 121.691 C 659.819 122.006, 659.920 121.213, 659.542 119.875 C 659.013 118.010, 659.102 117.822, 659.953 119 C 660.904 120.317, 661.159 120.292, 662.040 118.799 C 662.592 117.864, 663.597 116.502, 664.272 115.772 C 666.606 113.252, 670 108.077, 670 107.040 C 670 106.468, 670.353 106, 670.784 106 C 672.124 106, 675.269 99.865, 674.360 99.025 C 671.992 96.836, 657.633 89.927, 656.420 90.392 C 655.649 90.688, 655.131 90.384, 655.262 89.714 C 655.394 89.043, 654.520 88.533, 653.309 88.573 C 652.104 88.613, 651.204 88.163, 651.309 87.573 C 651.414 86.983, 650.510 86.533, 649.300 86.574 C 648.090 86.615, 647.313 86.303, 647.573 85.882 C 648.913 83.714, 601.684 66.568, 583 62.440 C 558.619 57.053, 538.481 54, 527.326 54 L 524 54 523.990 71.750 M 670.629 99.477 C 670.951 100.315, 671.841 101, 672.607 101 C 674.560 101, 674.341 100.253, 672.023 99.012 C 670.409 98.149, 670.153 98.234, 670.629 99.477 M 311.515 139.281 C 312.481 140.811, 313.522 141.811, 313.830 141.503 C 314.137 141.196, 313.347 139.944, 312.074 138.722 L 309.759 136.500 311.515 139.281 M 299.226 147.070 C 294.152 151.508, 290 155.403, 290 155.725 C 290 156.047, 290.900 155.495, 292 154.500 C 293.932 152.752, 294.072 152.755, 296.105 154.595 C 297.263 155.643, 298.388 156.387, 298.605 156.250 C 299.821 155.480, 302 156.194, 302 157.362 C 302 158.253, 301.048 158.623, 299.250 158.431 C 296.643 158.152, 296.601 158.212, 298.441 159.569 C 300.130 160.814, 300.163 161, 298.691 161 C 297.761 161, 297 161.505, 297 162.122 C 297 162.929, 296.603 162.916, 295.589 162.074 C 294.624 161.273, 293.973 161.235, 293.530 161.951 C 293.174 162.528, 293.296 163, 293.802 163 C 294.309 163, 294.486 164.238, 294.196 165.750 C 293.906 167.262, 293.475 167.919, 293.237 167.208 C 292.902 166.205, 292.487 166.181, 291.379 167.101 C 290.594 167.752, 289.666 168, 289.318 167.651 C 288.969 167.303, 288.193 167.423, 287.592 167.919 C 286.900 168.490, 285.400 167.939, 283.500 166.415 C 281.233 164.598, 280.928 164.009, 282.250 164.005 C 283.212 164.002, 284 164.408, 284 164.906 C 284 165.404, 285.091 165.297, 286.424 164.668 C 287.988 163.930, 288.441 163.272, 287.700 162.815 C 287.069 162.425, 286.238 162.615, 285.853 163.238 C 285.338 164.071, 284.758 164.044, 283.665 163.137 C 282.428 162.110, 280.854 163.072, 274.291 168.864 C 266.372 175.854, 265.093 178.279, 267.413 181.908 C 268.111 182.999, 267.842 183.192, 266.216 182.767 C 264.372 182.285, 264.262 182.446, 265.300 184.109 C 265.950 185.149, 267.273 186, 268.241 186 C 269.208 186, 270 186.439, 270 186.975 C 270 187.555, 269.087 187.629, 267.750 187.158 C 266.512 186.723, 264.150 186.681, 262.500 187.065 C 260.070 187.631, 259.934 187.786, 261.785 187.882 C 263.849 187.989, 263.950 188.218, 262.829 190.250 C 261.805 192.106, 261.526 192.209, 261.237 190.835 C 260.857 189.033, 258 187.440, 258 189.031 C 258 189.564, 257.137 190, 256.083 190 C 255.029 190, 253.990 190.530, 253.774 191.177 C 253.559 191.824, 252.840 192.019, 252.179 191.610 C 251.357 191.102, 252.326 189.568, 255.238 186.769 C 263.071 179.236, 257.481 183.378, 244.802 194.500 L 232.262 205.500 265.131 205.763 C 283.209 205.908, 312.842 205.908, 330.982 205.763 L 363.964 205.500 356.732 195.789 C 352.754 190.448, 349.111 186.060, 348.635 186.039 C 348.159 186.018, 348.447 187.033, 349.274 188.296 C 350.659 190.410, 350.627 190.602, 348.867 190.735 C 347.817 190.814, 347.204 190.480, 347.505 189.992 C 348.238 188.805, 343.924 189.676, 342.623 190.977 C 342.061 191.539, 340.565 192, 339.300 192 C 338.035 192, 337 192.525, 337 193.167 C 337 193.808, 336.711 194.044, 336.357 193.691 C 336.004 193.337, 336.225 192.434, 336.849 191.682 C 337.472 190.931, 337.701 190.034, 337.356 189.689 C 337.011 189.345, 337.690 189.248, 338.865 189.474 C 340.039 189.700, 341.045 189.574, 341.099 189.193 C 341.848 183.966, 341.630 182.983, 339.846 183.549 C 338.229 184.062, 338.119 183.818, 338.961 181.602 C 339.668 179.742, 339.560 178.703, 338.553 177.696 C 337.799 176.942, 337.499 175.811, 337.886 175.184 C 338.364 174.412, 339.050 174.682, 340.016 176.022 C 340.800 177.110, 341.815 178, 342.272 178 C 342.729 178, 340.346 174.512, 336.976 170.250 C 333.607 165.988, 328.634 159.620, 325.925 156.101 C 323.216 152.581, 321 150.021, 321 150.411 C 321 150.801, 322.579 153.189, 324.510 155.717 C 326.440 158.245, 327.810 160.524, 327.553 160.781 C 327.296 161.038, 325.597 160.370, 323.777 159.296 C 320.465 157.342, 317.435 157.277, 318.614 159.185 C 319.022 159.845, 318.559 159.834, 317.287 159.154 C 315.767 158.340, 315.333 158.429, 315.333 159.554 C 315.333 160.854, 316.294 161.397, 318.155 161.150 C 318.515 161.102, 319.080 161.767, 319.410 162.627 C 319.913 163.938, 319.503 163.892, 316.866 162.345 C 314.572 160.999, 313.627 159.634, 313.374 157.300 C 313.184 155.541, 313.541 153.784, 314.168 153.396 C 314.870 152.962, 315.034 153.135, 314.595 153.845 C 314.173 154.530, 314.517 155, 315.441 155 C 317.322 155, 317.446 153.850, 315.750 152.141 C 314.748 151.131, 314.847 151.014, 316.250 151.548 C 318.109 152.255, 318.714 150.559, 316.984 149.490 C 316.425 149.144, 316.240 148.421, 316.573 147.882 C 316.947 147.277, 317.781 147.399, 318.755 148.201 C 319.628 148.920, 319.286 147.899, 317.988 145.914 C 315.716 142.437, 315.490 142.342, 310.572 142.801 L 305.500 143.274 307.405 141.137 C 310.907 137.208, 308.528 138.934, 299.226 147.070 M 345 192.796 C 345 193.905, 345.751 194.571, 347 194.571 C 348.100 194.571, 349 194.543, 349 194.508 C 349 194.473, 348.100 193.674, 347 192.732 C 345.108 191.112, 345 191.115, 345 192.796 M 335.540 197.347 C 334.350 198.217, 334.081 198.932, 334.779 199.364 C 335.375 199.732, 336.149 199.568, 336.500 199 C 336.851 198.432, 337.552 198.223, 338.058 198.536 C 338.563 198.848, 338.709 198.406, 338.382 197.552 C 337.663 195.678, 337.808 195.689, 335.540 197.347 M 343.272 197.330 C 343.765 198.828, 348 199.490, 348 198.070 C 348 197.481, 347.663 196.966, 347.250 196.923 C 346.837 196.881, 345.687 196.692, 344.693 196.504 C 343.651 196.306, 343.050 196.655, 343.272 197.330 M 338 202 C 338 202.550, 339.152 203, 340.559 203 C 342.010 203, 342.851 202.567, 342.500 202 C 342.160 201.450, 341.009 201, 339.941 201 C 338.873 201, 338 201.450, 338 202 M 260.810 203.728 C 259.974 204.736, 260.214 204.955, 261.879 204.701 C 264.891 204.241, 266.527 202.429, 263.930 202.429 C 262.808 202.429, 261.404 203.014, 260.810 203.728 M 805.255 239.750 C 805.201 252.699, 804.693 253.811, 804 242.500 C 803.663 237, 803.300 257.587, 803.194 288.250 C 803.074 322.556, 803.362 344, 803.941 344 C 805.498 344, 806.104 342.213, 804.756 341.595 C 804.065 341.278, 804.451 341.250, 805.614 341.533 C 807.703 342.042, 818.259 338.536, 847.409 327.649 C 862.156 322.142, 865.792 320.224, 863.250 319.292 C 862.563 319.040, 862 318.365, 862 317.793 C 862 317.220, 860.155 313.995, 857.900 310.626 C 855.235 306.642, 853.224 304.602, 852.150 304.792 C 850.844 305.023, 850.785 304.891, 851.867 304.160 C 852.992 303.401, 852.879 302.726, 851.234 300.368 C 850.133 298.791, 844.378 290.075, 838.444 281 C 832.511 271.925, 827.284 264.350, 826.828 264.167 C 826.373 263.983, 826 263.429, 826 262.934 C 826 261.709, 811.710 239.956, 811.225 240.442 C 811.012 240.655, 811.361 241.806, 812 243 C 812.639 244.194, 812.839 245.470, 812.444 245.836 C 812.049 246.201, 811.524 245.935, 811.278 245.244 C 811.031 244.553, 810.418 244.242, 809.915 244.553 C 809.412 244.864, 809 244.641, 809 244.059 C 809 243.477, 808.438 243.113, 807.750 243.250 C 807.063 243.387, 806.545 242.938, 806.600 242.250 C 806.655 241.563, 806.768 240.100, 806.850 239 C 807.034 236.542, 808.970 236.325, 809.079 238.750 C 809.122 239.713, 809.366 239.995, 809.620 239.377 C 810.002 238.449, 806.380 231, 805.547 231 C 805.407 231, 805.276 234.938, 805.255 239.750 M 297.199 261.744 C 301.984 261.927, 310.084 261.928, 315.199 261.746 C 320.315 261.564, 316.400 261.414, 306.500 261.413 C 296.600 261.412, 292.415 261.561, 297.199 261.744 M 338.250 261.689 C 339.212 261.941, 340.788 261.941, 341.750 261.689 C 342.712 261.438, 341.925 261.232, 340 261.232 C 338.075 261.232, 337.288 261.438, 338.250 261.689 M 352.064 262.005 C 356.224 262.404, 360.612 263.257, 361.814 263.900 C 363.016 264.544, 364 264.807, 364 264.484 C 364 262.929, 356.433 261.014, 350.782 261.140 L 344.500 261.280 352.064 262.005 M 422.750 261.740 C 426.188 261.936, 431.813 261.936, 435.250 261.740 C 438.688 261.545, 435.875 261.385, 429 261.385 C 422.125 261.385, 419.313 261.545, 422.750 261.740 M 447.789 261.741 C 451.248 261.937, 456.648 261.936, 459.789 261.738 C 462.930 261.540, 460.100 261.380, 453.500 261.382 C 446.900 261.384, 444.330 261.546, 447.789 261.741 M 476.768 261.725 C 478.565 261.947, 481.265 261.943, 482.768 261.715 C 484.271 261.486, 482.800 261.304, 479.500 261.310 C 476.200 261.315, 474.971 261.502, 476.768 261.725 M 561.296 261.744 C 565.583 261.932, 572.333 261.931, 576.296 261.742 C 580.258 261.552, 576.750 261.399, 568.500 261.400 C 560.250 261.401, 557.008 261.556, 561.296 261.744 M 586.768 261.725 C 588.565 261.947, 591.265 261.943, 592.768 261.715 C 594.271 261.486, 592.800 261.304, 589.500 261.310 C 586.200 261.315, 584.971 261.502, 586.768 261.725 M 602 261.975 C 605.575 262.339, 609.737 263.157, 611.250 263.793 C 612.763 264.430, 614 264.714, 614 264.424 C 614 262.974, 606.387 261.018, 601.282 261.157 L 595.500 261.315 602 261.975 M 665 261.935 C 663.625 262.340, 667 262.485, 672.500 262.257 C 678 262.029, 682.950 261.689, 683.500 261.500 C 685.542 260.801, 667.405 261.227, 665 261.935 M 696.750 261.706 C 697.987 261.944, 700.013 261.944, 701.250 261.706 C 702.487 261.467, 701.475 261.272, 699 261.272 C 696.525 261.272, 695.513 261.467, 696.750 261.706 M 730 261.901 C 733.025 262.234, 737.525 263.568, 740 264.864 C 743.976 266.947, 744.294 266.994, 742.734 265.264 C 740.462 262.746, 734.455 260.960, 728.884 261.147 C 724.614 261.290, 724.643 261.310, 730 261.901 M 493.186 266.504 C 496.095 269.748, 497.849 273.504, 499.023 279 C 499.759 282.449, 499.771 282.456, 499.863 279.500 C 499.988 275.466, 496.913 269.062, 493.382 266.004 L 490.500 263.507 493.186 266.504 M 527.144 268.327 C 523.323 272.931, 523 276.176, 523 309.968 L 523 343 532.750 342.792 L 542.500 342.585 533.250 342.255 L 524 341.925 524 310.085 C 524 277.652, 524.203 275.567, 528.034 268.750 C 529.196 266.682, 528.703 266.448, 527.144 268.327 M 745.017 267.527 C 745.008 268.093, 745.673 269.516, 746.496 270.690 C 747.318 271.865, 748.428 275.227, 748.963 278.163 L 749.934 283.500 749.502 278.151 C 749.261 275.156, 748.182 271.415, 747.052 269.651 C 745.942 267.918, 745.026 266.962, 745.017 267.527 M 827 268.393 C 827 269.159, 827.685 270.049, 828.523 270.371 C 829.766 270.847, 829.851 270.591, 828.988 268.977 C 827.747 266.659, 827 266.440, 827 268.393 M 652.787 271.250 C 651.899 272.806, 651.468 278.589, 651.390 290 L 651.277 306.500 651.900 290 C 652.293 279.579, 652.992 272.671, 653.797 271.250 C 654.497 270.012, 654.845 269, 654.570 269 C 654.295 269, 653.493 270.012, 652.787 271.250 M 401.975 272.565 C 401.439 273.976, 401.049 276.338, 401.110 277.815 C 401.188 279.733, 401.459 279.281, 402.060 276.235 C 402.523 273.889, 403.175 271.526, 403.509 270.985 C 403.844 270.443, 403.855 270, 403.534 270 C 403.213 270, 402.512 271.154, 401.975 272.565 M 370.081 273.691 C 370.037 274.896, 370.450 276.160, 371 276.500 C 371.633 276.891, 372 289.010, 372 309.559 L 372 342 360.570 342 C 349.511 342, 349.125 341.927, 348.706 339.750 C 348.334 337.821, 348.253 337.892, 348.136 340.250 L 348 343 360.500 343 L 373 343 372.955 310.250 C 372.920 284.676, 372.609 276.843, 371.536 274.500 C 370.342 271.892, 370.152 271.786, 370.081 273.691 M 620.558 274.500 C 620.943 276.150, 621.682 277.950, 622.200 278.500 C 622.793 279.130, 622.883 278.390, 622.442 276.500 C 622.057 274.850, 621.318 273.050, 620.800 272.500 C 620.207 271.870, 620.117 272.610, 620.558 274.500 M 217.696 274.098 C 218.904 274.736, 220.074 276.437, 220.296 277.879 C 220.648 280.162, 220.720 280.082, 220.850 277.250 C 220.933 275.462, 220.587 274, 220.082 274 C 219.577 274, 218.339 273.761, 217.332 273.469 C 216.155 273.128, 216.285 273.353, 217.696 274.098 M 273.428 300 C 273.428 312.375, 273.571 317.438, 273.747 311.250 C 273.922 305.063, 273.922 294.938, 273.747 288.750 C 273.571 282.563, 273.428 287.625, 273.428 300 M 317.292 285.742 C 321.027 285.935, 326.877 285.934, 330.292 285.739 C 333.706 285.545, 330.650 285.387, 323.500 285.389 C 316.350 285.390, 313.556 285.550, 317.292 285.742 M 553.776 285.733 C 556.128 285.945, 559.728 285.942, 561.776 285.727 C 563.824 285.512, 561.900 285.339, 557.500 285.343 C 553.100 285.346, 551.424 285.522, 553.776 285.733 M 580.250 285.716 C 581.763 285.945, 584.237 285.945, 585.750 285.716 C 587.263 285.487, 586.025 285.300, 583 285.300 C 579.975 285.300, 578.737 285.487, 580.250 285.716 M 691.206 285.741 C 694.895 285.932, 701.195 285.934, 705.206 285.743 C 709.218 285.553, 706.200 285.396, 698.500 285.395 C 690.800 285.393, 687.518 285.549, 691.206 285.741 M 219.782 316.001 C 219.627 330.301, 219.838 342.001, 220.250 342.001 C 220.662 342, 221 330.300, 221 316 C 221 301.700, 220.790 290, 220.532 290 C 220.275 290, 219.938 301.700, 219.782 316.001 M 598.365 299.500 C 598.368 305, 598.536 307.122, 598.738 304.216 C 598.941 301.311, 598.939 296.811, 598.734 294.216 C 598.528 291.622, 598.363 294, 598.365 299.500 M 424.252 299.500 C 424.263 301.700, 424.468 302.482, 424.707 301.238 C 424.946 299.994, 424.937 298.194, 424.687 297.238 C 424.437 296.282, 424.241 297.300, 424.252 299.500 M 749.310 302.500 C 749.315 305.800, 749.502 307.029, 749.725 305.232 C 749.947 303.435, 749.943 300.735, 749.715 299.232 C 749.486 297.729, 749.304 299.200, 749.310 302.500 M 348.413 318.500 C 348.414 328.400, 348.564 332.315, 348.746 327.199 C 348.928 322.084, 348.927 313.984, 348.744 309.199 C 348.561 304.415, 348.412 308.600, 348.413 318.500 M 725.397 316 C 725.397 323.975, 725.553 327.238, 725.743 323.250 C 725.932 319.262, 725.932 312.738, 725.743 308.750 C 725.553 304.762, 725.397 308.025, 725.397 316 M 401.227 323.250 L 401 343 405.250 342.832 L 409.500 342.664 405.771 342.273 L 402.043 341.882 401.748 322.691 L 401.454 303.500 401.227 323.250 M 675.300 310 C 675.300 313.025, 675.487 314.262, 675.716 312.750 C 675.945 311.238, 675.945 308.762, 675.716 307.250 C 675.487 305.738, 675.300 306.975, 675.300 310 M 297.385 319 C 297.385 325.875, 297.545 328.688, 297.740 325.250 C 297.936 321.813, 297.936 316.188, 297.740 312.750 C 297.545 309.313, 297.385 312.125, 297.385 319 M 273.209 332.750 L 273 343 279.250 342.811 L 285.500 342.622 279.786 342.262 L 274.071 341.902 273.745 332.201 L 273.419 322.500 273.209 332.750 M 651.209 332.750 L 651 343 663.750 342.784 L 676.500 342.568 664.286 342.253 L 652.072 341.939 651.745 332.220 L 651.419 322.500 651.209 332.750 M 749.286 333.500 C 749.294 336.250, 749.488 337.256, 749.718 335.736 C 749.947 334.216, 749.941 331.966, 749.704 330.736 C 749.467 329.506, 749.279 330.750, 749.286 333.500 M 598.189 336.750 L 598 343 606.250 342.799 L 614.500 342.598 606.799 342.258 L 599.097 341.918 598.738 336.209 L 598.378 330.500 598.189 336.750 M 194 336 C 197.419 337.095, 200.048 337.095, 197.500 336 C 196.400 335.527, 194.600 335.154, 193.500 335.170 C 191.892 335.194, 191.990 335.356, 194 336 M 207 338.954 C 207.825 339.513, 209.363 339.976, 210.417 339.985 C 212.975 340.005, 212.177 339.433, 208.500 338.610 C 206.309 338.120, 205.905 338.213, 207 338.954 M 213.442 340.094 C 213.134 340.592, 214.034 341, 215.441 341 C 218.505 341, 218.753 340.430, 216.001 339.711 C 214.902 339.423, 213.750 339.596, 213.442 340.094 M 499.449 340.951 C 498.926 341.474, 495.123 342.060, 490.999 342.252 L 483.500 342.603 492.250 342.801 C 499.449 342.965, 501 342.734, 501 341.500 C 501 339.748, 500.743 339.657, 499.449 340.951 M 725.015 341.250 C 725.003 342.635, 725.783 342.969, 728.750 342.850 C 732.151 342.714, 732.221 342.659, 729.503 342.260 C 727.855 342.018, 726.174 341.298, 725.769 340.660 C 725.290 339.907, 725.025 340.114, 725.015 341.250 M 420 342 L 415.500 342.700 420.250 342.850 C 422.863 342.932, 425 342.550, 425 342 C 425 341.450, 424.887 341.068, 424.750 341.150 C 424.613 341.233, 422.475 341.615, 420 342 M 618.250 342.689 C 619.212 342.941, 620.788 342.941, 621.750 342.689 C 622.712 342.438, 621.925 342.232, 620 342.232 C 618.075 342.232, 617.288 342.438, 618.250 342.689 M 273.222 388.250 L 273.444 412.500 273.972 389 C 274.456 367.474, 274.646 365.512, 276.239 365.637 C 277.196 365.712, 277.732 365.375, 277.430 364.887 C 277.129 364.399, 276.009 364, 274.941 364 C 273.067 364, 273.008 364.836, 273.222 388.250 M 289 364.993 C 289 365.540, 290.688 365.877, 292.750 365.743 L 296.500 365.500 297.093 370.500 L 297.686 375.500 297.843 369.750 L 298 364 293.500 364 C 291.025 364, 289 364.447, 289 364.993 M 348.116 366.250 C 348.198 367.846, 348.362 368.009, 348.678 366.810 C 348.923 365.881, 350.333 364.936, 351.812 364.710 C 354.239 364.340, 354.184 364.285, 351.250 364.150 C 348.471 364.022, 348.017 364.326, 348.116 366.250 M 370.863 365.335 C 371.610 366.235, 372.063 377.091, 372.250 398.585 L 372.529 430.500 372.765 397.250 C 372.978 367.149, 372.846 364, 371.378 364 C 370.138 364, 370.016 364.315, 370.863 365.335 M 401.160 368.750 C 401.294 372.740, 401.383 372.940, 401.716 370 C 401.934 368.075, 402.848 365.938, 403.747 365.250 C 405.209 364.133, 405.149 364, 403.191 364 C 401.221 364, 401.016 364.480, 401.160 368.750 M 423.015 364.750 C 423.024 365.163, 423.411 366.100, 423.876 366.834 C 424.565 367.921, 424.827 367.893, 425.292 366.682 C 425.606 365.864, 425.593 364.927, 425.264 364.598 C 424.424 363.757, 422.997 363.853, 423.015 364.750 M 523.292 396.500 C 523.241 414.650, 523.492 430.545, 523.850 431.823 C 524.459 434.001, 524.318 382.614, 523.678 369.500 C 523.517 366.200, 523.344 378.350, 523.292 396.500 M 546.755 366.500 C 547.018 367.875, 547.406 369, 547.617 369 C 547.827 369, 548 367.875, 548 366.500 C 548 365.125, 547.612 364, 547.139 364 C 546.665 364, 546.492 365.125, 546.755 366.500 M 651.252 367.500 C 651.263 369.700, 651.468 370.482, 651.707 369.238 C 651.946 367.994, 651.937 366.194, 651.687 365.238 C 651.437 364.282, 651.241 365.300, 651.252 367.500 M 674.776 368.250 C 675.319 375.255, 675.761 375.853, 675.884 369.750 C 675.948 366.587, 675.651 364, 675.224 364 C 674.797 364, 674.595 365.913, 674.776 368.250 M 725.015 365.750 C 725.025 366.914, 725.282 367.105, 725.782 366.319 C 726.195 365.669, 728.550 364.960, 731.016 364.744 L 735.500 364.349 730.250 364.175 C 725.845 364.028, 725.002 364.282, 725.015 365.750 M 746.690 364.698 C 748.149 364.981, 749.016 366.020, 749.290 367.812 C 749.660 370.239, 749.715 370.184, 749.850 367.250 C 749.986 364.305, 749.742 364.013, 747.250 364.136 C 744.985 364.248, 744.886 364.347, 746.690 364.698 M 749.382 384.500 C 749.384 391.100, 749.546 393.670, 749.741 390.211 C 749.937 386.752, 749.936 381.352, 749.738 378.211 C 749.540 375.070, 749.380 377.900, 749.382 384.500 M 547.415 393 C 547.415 403.175, 547.564 407.337, 547.745 402.250 C 547.927 397.162, 547.927 388.837, 547.745 383.750 C 547.564 378.662, 547.415 382.825, 547.415 393 M 651.422 395 C 651.422 406.275, 651.568 410.887, 651.746 405.250 C 651.924 399.613, 651.924 390.387, 651.746 384.750 C 651.568 379.113, 651.422 383.725, 651.422 395 M 598.392 392 C 598.392 399.425, 598.549 402.462, 598.742 398.750 C 598.934 395.038, 598.934 388.962, 598.742 385.250 C 598.549 381.538, 598.392 384.575, 598.392 392 M 424.349 390 C 424.349 394.675, 424.522 396.587, 424.732 394.250 C 424.943 391.913, 424.943 388.087, 424.732 385.750 C 424.522 383.413, 424.349 385.325, 424.349 390 M 725.389 401.500 C 725.390 408.650, 725.550 411.444, 725.742 407.708 C 725.935 403.973, 725.934 398.123, 725.739 394.708 C 725.545 391.294, 725.387 394.350, 725.389 401.500 M 297.349 406 C 297.349 410.675, 297.522 412.587, 297.732 410.250 C 297.943 407.913, 297.943 404.087, 297.732 401.750 C 297.522 399.413, 297.349 401.325, 297.349 406 M 401.411 415 C 401.411 424.625, 401.561 428.563, 401.745 423.750 C 401.928 418.938, 401.928 411.063, 401.745 406.250 C 401.561 401.438, 401.411 405.375, 401.411 415 M 621.370 417 C 621.370 422.775, 621.535 425.137, 621.737 422.250 C 621.939 419.363, 621.939 414.637, 621.737 411.750 C 621.535 408.863, 621.370 411.225, 621.370 417 M 675.252 415.500 C 675.263 417.700, 675.468 418.482, 675.707 417.238 C 675.946 415.994, 675.937 414.194, 675.687 413.238 C 675.437 412.282, 675.241 413.300, 675.252 415.500 M 129 509.625 C 129 562.631, 129.364 606, 129.809 606 C 130.254 606, 131.491 605.288, 132.559 604.418 C 134.216 603.068, 134.244 602.917, 132.750 603.387 C 131.787 603.690, 131 603.449, 131 602.852 C 131 602.216, 132.102 601.978, 133.663 602.276 C 135.634 602.653, 140.354 600.768, 151.819 595.028 C 160.340 590.761, 166.904 587.058, 166.406 586.799 C 165.908 586.540, 166.099 586.479, 166.832 586.664 C 167.565 586.849, 178.140 581.895, 190.332 575.656 C 225.862 557.473, 225.279 557.802, 223.817 556.785 C 222.909 556.154, 223.152 556.051, 224.600 556.454 C 227.019 557.129, 241.400 550.457, 240.537 549.060 C 240.240 548.580, 240.831 548.404, 241.850 548.671 C 242.868 548.937, 244.352 548.505, 245.148 547.710 C 245.943 546.914, 247.697 545.928, 249.047 545.518 C 250.396 545.108, 252.850 543.969, 254.500 542.988 C 256.150 542.007, 267.850 535.931, 280.499 529.485 C 303.778 517.622, 308.434 515, 306.223 515 C 305.550 515, 305 514.325, 305 513.500 C 305 512.147, 306.187 511.556, 308.250 511.882 C 309.570 512.090, 309.055 510.765, 307.250 509.308 C 305.637 508.007, 305.676 507.945, 307.750 508.516 C 309.065 508.877, 310 508.691, 310 508.067 C 310 507.480, 309.295 507, 308.433 507 C 307.353 507, 307.051 506.414, 307.462 505.118 C 308.104 503.097, 305.663 501.472, 303.755 502.651 C 303.082 503.067, 302.989 502.826, 303.502 501.997 C 304.106 501.020, 303.762 500.829, 302.155 501.249 C 300.759 501.614, 300.232 501.434, 300.663 500.737 C 301.088 500.049, 300.708 499.898, 299.612 500.319 C 298.628 500.696, 298.147 500.571, 298.485 500.024 C 299.271 498.753, 289.261 493.735, 287.713 494.624 C 287.046 495.007, 286.831 494.955, 287.234 494.509 C 288.469 493.145, 284.707 490.998, 283.230 492.224 C 282.287 493.007, 282.077 492.920, 282.426 491.891 C 282.987 490.234, 243.831 470.351, 240.788 470.749 C 239.741 470.885, 239.150 470.567, 239.475 470.041 C 240.234 468.813, 234.254 465.689, 232.461 466.377 C 231.676 466.678, 231.297 466.391, 231.562 465.698 C 232.133 464.212, 226.485 461.582, 224.869 462.581 C 224.156 463.022, 223.957 462.879, 224.364 462.220 C 225.222 460.831, 202.492 449.578, 200.862 450.585 C 200.128 451.039, 199.959 450.876, 200.410 450.146 C 201.394 448.554, 187.265 441.809, 184.532 442.567 C 182.975 442.999, 182.836 442.900, 183.936 442.142 C 185.024 441.392, 181.418 439.191, 169.043 433.052 C 160.062 428.597, 153.341 425.721, 154.107 426.663 C 155.340 428.178, 155.290 428.296, 153.668 427.687 C 152.661 427.309, 150.861 426.984, 149.668 426.965 L 147.500 426.929 149.704 425.704 C 151.782 424.549, 151.496 424.272, 144.704 420.869 C 140.742 418.884, 135.588 416.358, 133.250 415.256 L 129 413.251 129 509.625 M 130 417.557 C 130 419.844, 130.203 419.965, 132.250 418.900 C 133.488 418.256, 134.614 417.638, 134.754 417.527 C 134.894 417.416, 133.882 416.811, 132.504 416.184 C 130.193 415.131, 130 415.237, 130 417.557 M 499.946 417.250 C 499.785 420.981, 498.139 433.783, 497.599 435.500 C 497.254 436.600, 497.695 435.937, 498.579 434.027 C 500.190 430.548, 501.857 416, 500.644 416 C 500.290 416, 499.976 416.563, 499.946 417.250 M 273.149 423.500 C 273.144 427.350, 273.495 431.400, 273.929 432.500 C 274.366 433.608, 274.523 430.933, 274.281 426.500 C 273.714 416.105, 273.160 414.636, 273.149 423.500 M 749.320 425 C 749.320 428.575, 749.502 430.038, 749.723 428.250 C 749.945 426.462, 749.945 423.538, 749.723 421.750 C 749.502 419.962, 749.320 421.425, 749.320 425 M 447.250 422.735 C 449.863 422.941, 454.137 422.941, 456.750 422.735 C 459.363 422.529, 457.225 422.360, 452 422.360 C 446.775 422.360, 444.637 422.529, 447.250 422.735 M 712.264 422.718 C 713.784 422.947, 716.034 422.941, 717.264 422.704 C 718.494 422.467, 717.250 422.279, 714.500 422.286 C 711.750 422.294, 710.744 422.488, 712.264 422.718 M 154.682 428.651 C 153.730 429.603, 157.190 431.864, 158.708 431.282 C 159.419 431.009, 160 430.329, 160 429.771 C 160 429.157, 159.442 429.218, 158.589 429.926 C 157.721 430.647, 156.949 430.727, 156.583 430.134 C 156.255 429.604, 156.553 428.943, 157.244 428.664 C 158.071 428.331, 157.959 428.131, 156.917 428.079 C 156.046 428.036, 155.040 428.293, 154.682 428.651 M 652.039 433.018 C 651.990 434.907, 656.726 442, 658.036 442 C 658.566 442, 658.063 441.063, 656.917 439.917 C 655.771 438.771, 654.214 436.408, 653.456 434.667 C 652.698 432.925, 652.061 432.183, 652.039 433.018 M 660.581 443.981 C 661.121 444.521, 663.123 445.217, 665.031 445.527 L 668.500 446.092 664.500 444.561 C 659.772 442.752, 659.279 442.679, 660.581 443.981 M 288.561 446.100 C 290.815 446.983, 302.610 447.277, 301.763 446.429 C 301.449 446.116, 297.914 445.742, 293.907 445.600 C 289.839 445.455, 287.478 445.676, 288.561 446.100 M 478.768 445.725 C 480.565 445.947, 483.265 445.943, 484.768 445.715 C 486.271 445.486, 484.800 445.304, 481.500 445.310 C 478.200 445.315, 476.971 445.502, 478.768 445.725 M 542.352 446.250 C 542.094 446.663, 544.834 447, 548.441 447 C 552.048 447, 555 446.620, 555 446.155 C 555 445.116, 543.007 445.206, 542.352 446.250 M 588.250 445.735 C 590.862 445.941, 595.138 445.941, 597.750 445.735 C 600.362 445.529, 598.225 445.360, 593 445.360 C 587.775 445.360, 585.638 445.529, 588.250 445.735 M 727 445.981 C 727 446.572, 728.889 446.714, 731.750 446.340 C 738.212 445.494, 738.365 445, 732.167 445 C 729.325 445, 727 445.441, 727 445.981 M 497.500 501.189 C 473.777 503.798, 441.467 512.900, 442.708 516.625 C 442.916 517.249, 441.849 517.485, 440.027 517.217 C 438.204 516.950, 437 517.216, 437 517.887 C 437 518.499, 436.298 519, 435.441 519 C 434.517 519, 434.173 519.470, 434.595 520.155 C 435.031 520.859, 434.870 521.038, 434.184 520.614 C 432.752 519.729, 428.478 521.884, 418.842 528.350 C 414.631 531.177, 411.438 533.899, 411.747 534.399 C 412.056 534.900, 411.872 535.039, 411.338 534.709 C 408.878 533.189, 380.365 559.902, 381.444 562.715 C 381.737 563.479, 381.567 563.850, 381.065 563.540 C 380.563 563.230, 379.275 564.219, 378.203 565.738 C 376.685 567.887, 376.497 568.883, 377.354 570.222 C 378.161 571.484, 378.150 572.250, 377.315 573.085 C 375.633 574.767, 373.569 573.225, 375.074 571.411 C 375.782 570.558, 375.843 570, 375.229 570 C 374.345 570, 372.641 572.926, 373.001 573.826 C 373.073 574.005, 372.171 574.984, 370.998 576.002 C 368.196 578.432, 356 602.494, 356 605.593 C 356 606.917, 355.498 608, 354.883 608 C 354.235 608, 353.965 609.036, 354.239 610.470 C 354.499 611.828, 354.378 612.734, 353.972 612.482 C 352.547 611.602, 349.024 623.375, 346.633 637 C 343.452 655.134, 343.844 684.095, 347.480 699.500 C 351.972 718.536, 355.464 728.449, 357.282 727.326 C 357.939 726.920, 358.101 727.295, 357.709 728.315 C 357.362 729.219, 357.944 731.655, 359.003 733.729 C 360.061 735.803, 361.602 739.075, 362.427 741 C 367.431 752.669, 383.066 774.075, 393.350 783.336 C 395.083 784.896, 398.300 787.833, 400.500 789.862 C 406.032 794.965, 415.802 802.357, 420 804.616 C 421.925 805.652, 423.725 806.784, 424 807.130 C 424.870 808.227, 448.434 820, 449.760 820 C 450.457 820, 451.809 820.412, 452.764 820.915 C 455.443 822.328, 467.441 825.734, 478.500 828.221 C 487.363 830.214, 491.172 830.465, 512 830.428 C 538.236 830.383, 544.173 829.505, 566.108 822.429 C 584.099 816.625, 598.629 808.868, 615.316 796.160 C 625.132 788.684, 644 769.686, 644 767.277 C 644 766.575, 644.394 766, 644.875 766 C 647.284 766, 662.481 740.697, 661.542 738.250 C 661.257 737.505, 661.410 737.136, 661.884 737.428 C 663.424 738.380, 671.612 718.394, 674.350 707 C 681.256 678.263, 681.030 650.581, 673.666 623 C 670.363 610.632, 668.445 605.453, 667.257 605.701 C 666.729 605.811, 666.521 604.725, 666.796 603.287 C 667.208 601.132, 666.994 600.788, 665.582 601.330 C 664.195 601.863, 663.997 601.585, 664.542 599.868 C 664.990 598.455, 664.850 597.975, 664.119 598.427 C 663.449 598.841, 663.239 598.541, 663.578 597.656 C 665.177 593.491, 641.089 556.591, 638.013 558.492 C 637.532 558.789, 636.813 558.506, 636.415 557.862 C 635.963 557.131, 636.124 556.959, 636.845 557.405 C 642.448 560.867, 626.179 544.007, 617.500 537.356 C 615.300 535.670, 612.825 534.512, 612 534.782 C 611.175 535.053, 610.816 534.934, 611.202 534.518 C 612.125 533.525, 610.725 532.219, 603.500 527.331 C 593.689 520.693, 583.376 515.890, 580.241 516.498 C 578.181 516.898, 577.981 516.821, 579.434 516.188 C 580.770 515.606, 581.001 515.119, 580.184 514.613 C 579.533 514.211, 578.588 514.136, 578.085 514.447 C 577.582 514.758, 577.020 514.577, 576.835 514.044 C 576.445 512.918, 561.494 507.462, 554.964 506.064 C 539.821 502.820, 534.995 502.020, 524.824 501.068 C 512.280 499.893, 509.164 499.906, 497.500 501.189 M 314 508 C 314.825 508.533, 315.012 508.976, 314.417 508.985 C 313.821 508.993, 313.333 509.675, 313.333 510.500 C 313.333 512.315, 313.179 512.307, 316.368 510.653 L 318.965 509.305 316.436 508.153 C 313.368 506.755, 311.934 506.665, 314 508 M 469.572 507.750 C 470.069 508.163, 470.757 508.875, 471.099 509.334 C 471.442 509.792, 471.995 509.455, 472.329 508.584 C 472.767 507.443, 472.339 507, 470.802 507 C 469.628 507, 469.074 507.337, 469.572 507.750 M 714 510.414 C 714 511.198, 721.283 515.072, 722.189 514.770 C 722.703 514.599, 721.071 513.461, 718.562 512.242 C 716.053 511.023, 714 510.201, 714 510.414 M 682.013 542 C 680.747 544.475, 679.101 547.433, 678.356 548.573 C 677.131 550.449, 677.475 551.334, 681.981 557.874 C 686.984 565.137, 699.166 588.605, 702.290 597 C 714.266 629.178, 717.745 665.426, 712.029 698.474 C 710.890 705.059, 710.216 711.120, 710.532 711.943 C 710.847 712.766, 710.770 713.103, 710.360 712.693 C 709.215 711.548, 706.802 722.056, 707.904 723.385 C 708.494 724.096, 708.313 725.419, 707.409 727.003 L 705.984 729.500 706.527 726.500 C 706.825 724.850, 706.122 725.975, 704.965 729 C 703.807 732.025, 702.454 735.400, 701.958 736.500 C 701.461 737.600, 700.153 740.854, 699.049 743.732 C 697.946 746.609, 695.435 752.158, 693.468 756.064 C 690.639 761.681, 690.138 763.461, 691.068 764.582 C 691.912 765.598, 691.927 766, 691.122 766 C 690.505 766, 690 765.460, 690 764.800 C 690 763.891, 689.719 763.881, 688.842 764.758 C 687.966 765.634, 688.026 766.335, 689.092 767.645 C 690.334 769.170, 690.299 769.299, 688.795 768.736 C 687.465 768.238, 685.509 770.451, 679.905 778.799 C 675.954 784.684, 671.837 790.479, 670.756 791.676 C 669.579 792.979, 669.097 794.383, 669.556 795.176 C 669.976 795.904, 669.940 796.154, 669.475 795.732 C 668.459 794.808, 646.893 816.019, 647.633 817.215 C 647.916 817.674, 647.778 817.929, 647.324 817.783 C 646.871 817.636, 645.387 818.300, 644.027 819.258 C 641.665 820.923, 644.018 821, 697.162 821 L 752.770 821 754.552 818.281 C 755.532 816.785, 756.333 814.985, 756.333 814.281 C 756.333 813.576, 756.537 813.204, 756.786 813.452 C 757.514 814.181, 758.754 812.598, 775.276 789.841 C 790.189 769.299, 792.321 766.065, 790.011 767.493 C 789.434 767.850, 789.284 767.424, 789.651 766.468 C 790.041 765.450, 790.526 765.234, 790.935 765.895 C 791.482 766.780, 797.829 758.732, 812.581 738.447 C 814.211 736.205, 814.547 734.942, 813.845 733.687 C 813.140 732.428, 813.309 731.819, 814.488 731.366 C 815.367 731.029, 816.353 731.020, 816.679 731.346 C 817.895 732.561, 842.363 698.390, 841.636 696.493 C 841.268 695.535, 841.605 695.295, 842.715 695.721 C 843.789 696.133, 844.087 695.949, 843.605 695.170 C 843.190 694.498, 843.454 694, 844.225 694 C 844.964 694, 846.311 692.763, 847.217 691.250 C 848.124 689.737, 849.578 687.600, 850.448 686.500 C 858.764 675.990, 864.130 667.781, 863.595 666.386 C 863.152 665.232, 863.407 664.942, 864.501 665.362 C 865.725 665.832, 865.891 665.411, 865.346 663.223 C 864.757 660.855, 864.869 660.665, 866.206 661.766 C 867.525 662.852, 868.755 661.641, 874.839 653.266 C 878.741 647.895, 882.383 642.973, 882.932 642.329 C 883.643 641.495, 883.004 640.617, 880.716 639.287 C 874.493 635.667, 870.166 633.999, 868.580 634.608 C 867.404 635.059, 867.142 634.794, 867.596 633.611 C 868.343 631.663, 866.038 631.431, 863.998 633.250 C 862.819 634.301, 862.792 634.240, 863.824 632.867 C 864.819 631.543, 864.762 631.123, 863.526 630.648 C 862.686 630.326, 861.212 630.316, 860.250 630.626 C 858.937 631.048, 858.834 630.950, 859.838 630.231 C 860.815 629.531, 857.716 627.552, 848.338 622.887 C 841.277 619.374, 834.686 616.612, 833.692 616.749 C 832.697 616.885, 832.132 616.595, 832.436 616.103 C 833.181 614.899, 830.425 613.926, 828.250 614.626 C 826.878 615.067, 826.801 614.974, 827.896 614.195 C 828.997 613.411, 828.576 612.835, 825.896 611.459 C 824.028 610.501, 817.800 607.291, 812.056 604.326 C 806.311 601.361, 801 599.170, 800.254 599.456 C 799.507 599.743, 799.168 599.536, 799.501 598.998 C 799.834 598.459, 798.395 597.227, 796.303 596.259 C 794.211 595.292, 792.275 594.275, 792 594 C 790.861 592.861, 769 581.951, 769 582.521 C 769 582.863, 768.293 582.436, 767.429 581.571 C 766.564 580.707, 765.439 580, 764.929 580 C 763.676 580, 763.746 581.707, 765.025 582.342 C 765.589 582.621, 765.476 582.723, 764.775 582.567 C 764.074 582.412, 763.564 581.537, 763.642 580.622 C 763.799 578.793, 753.591 573.517, 751.908 574.557 C 751.381 574.882, 751.074 574.553, 751.225 573.824 C 751.406 572.953, 750.579 572.562, 748.808 572.680 C 746.801 572.815, 746.261 572.484, 746.685 571.380 C 747.132 570.214, 746.640 570.017, 744.376 570.455 C 742.794 570.761, 742.094 570.736, 742.820 570.399 C 743.829 569.931, 743.711 569.490, 742.320 568.530 C 738.104 565.620, 711.134 552.199, 710.592 552.741 C 710.266 553.067, 710 552.808, 710 552.167 C 710 551.525, 709.298 551, 708.441 551 C 707.562 551, 707.178 551.480, 707.562 552.100 C 708 552.809, 707.399 552.760, 705.871 551.964 C 702.450 550.182, 702.133 549.643, 705 550.488 C 709.549 551.828, 705.855 549.322, 696.283 544.573 C 691.213 542.058, 686.638 540, 686.116 540 C 685.594 540, 684.975 539.438, 684.741 538.750 C 684.507 538.063, 683.280 539.525, 682.013 542 M 337.452 555.700 C 338.303 557.461, 339.007 559.711, 339.015 560.700 C 339.028 562.177, 339.195 562.240, 339.946 561.054 C 340.900 559.545, 340.302 557.925, 337.525 554.500 C 336.020 552.645, 336.015 552.731, 337.452 555.700 M 290.559 566.532 C 288.063 568.420, 288.989 568.408, 292.636 566.506 C 294.211 565.685, 294.825 565.024, 294 565.038 C 293.175 565.052, 291.626 565.724, 290.559 566.532 M 311.232 630 C 311.232 631.925, 311.438 632.712, 311.689 631.750 C 311.941 630.788, 311.941 629.212, 311.689 628.250 C 311.438 627.288, 311.232 628.075, 311.232 630 M 308.320 671 C 308.320 674.575, 308.502 676.038, 308.723 674.250 C 308.945 672.462, 308.945 669.538, 308.723 667.750 C 308.502 665.962, 308.320 667.425, 308.320 671 M 309.252 688.500 C 309.263 690.700, 309.468 691.482, 309.707 690.238 C 309.946 688.994, 309.937 687.194, 309.687 686.238 C 309.437 685.282, 309.241 686.300, 309.252 688.500 M 194.568 716.500 C 198 721, 198.671 721.007, 195.759 716.512 C 194.517 714.594, 193.140 713.019, 192.699 713.012 C 192.259 713.006, 193.100 714.575, 194.568 716.500 M 663.519 730.939 C 663.146 732.115, 662.376 732.732, 661.758 732.350 C 661.043 731.908, 660.894 732.280, 661.330 733.418 C 661.699 734.378, 662.018 735.464, 662.039 735.832 C 662.061 736.199, 662.743 734.969, 663.554 733.099 C 664.366 731.228, 664.840 729.507, 664.607 729.273 C 664.373 729.040, 663.884 729.790, 663.519 730.939 M 361 801.659 C 361 802.205, 362.238 803.742, 363.750 805.076 L 366.500 807.500 364 804.500 C 362.625 802.850, 361.387 801.313, 361.250 801.083 C 361.113 800.854, 361 801.113, 361 801.659 M 273.033 821.595 C 273.015 822.197, 273.844 823.454, 274.876 824.387 C 276.399 825.766, 278.324 826.021, 285.126 825.746 L 293.500 825.407 285.160 825.204 C 277.873 825.026, 276.584 824.716, 274.944 822.750 C 273.911 821.513, 273.052 820.993, 273.033 821.595 M 377 825 L 368.500 825.627 377.809 825.814 C 383.805 825.934, 386.898 825.644, 386.500 825 C 386.160 824.450, 385.796 824.084, 385.691 824.186 C 385.586 824.289, 381.675 824.655, 377 825 M 318.250 825.746 C 324.163 825.923, 333.837 825.923, 339.750 825.746 C 345.663 825.569, 340.825 825.425, 329 825.425 C 317.175 825.425, 312.337 825.569, 318.250 825.746 M 257.349 882 C 257.349 886.675, 257.522 888.587, 257.732 886.250 C 257.943 883.913, 257.943 880.087, 257.732 877.750 C 257.522 875.413, 257.349 877.325, 257.349 882 M 766.392 888 C 766.392 895.425, 766.549 898.462, 766.742 894.750 C 766.934 891.038, 766.934 884.962, 766.742 881.250 C 766.549 877.538, 766.392 880.575, 766.392 888 M 257.272 895 C 257.272 897.475, 257.467 898.487, 257.706 897.250 C 257.944 896.013, 257.944 893.987, 257.706 892.750 C 257.467 891.513, 257.272 892.525, 257.272 895 M 257.382 924.500 C 257.384 931.100, 257.546 933.670, 257.741 930.211 C 257.937 926.752, 257.936 921.352, 257.738 918.211 C 257.540 915.070, 257.380 917.900, 257.382 924.500 M 766.447 946 C 766.447 963.875, 766.582 971.188, 766.748 962.250 C 766.914 953.313, 766.914 938.688, 766.748 929.750 C 766.582 920.813, 766.447 928.125, 766.447 946 M 257.389 978.500 C 257.390 985.650, 257.550 988.444, 257.742 984.708 C 257.935 980.973, 257.934 975.123, 257.739 971.708 C 257.545 968.294, 257.387 971.350, 257.389 978.500 M 766 988.934 C 766 989.447, 764.763 990.055, 763.250 990.284 C 760.690 990.671, 760.725 990.711, 763.750 990.850 C 766.039 990.956, 767 990.556, 767 989.500 C 767 988.675, 766.775 988, 766.500 988 C 766.225 988, 766 988.420, 766 988.934 M 432.250 990.689 C 433.212 990.941, 434.788 990.941, 435.750 990.689 C 436.712 990.438, 435.925 990.232, 434 990.232 C 432.075 990.232, 431.288 990.438, 432.250 990.689 M 441.250 990.728 C 443.313 990.944, 446.688 990.944, 448.750 990.728 C 450.813 990.513, 449.125 990.336, 445 990.336 C 440.875 990.336, 439.188 990.513, 441.250 990.728 M 534.264 990.718 C 535.784 990.947, 538.034 990.941, 539.264 990.704 C 540.494 990.467, 539.250 990.279, 536.500 990.286 C 533.750 990.294, 532.744 990.488, 534.264 990.718 M 737.287 990.740 C 740.469 990.939, 745.419 990.937, 748.287 990.736 C 751.154 990.535, 748.550 990.372, 742.500 990.374 C 736.450 990.376, 734.104 990.541, 737.287 990.740" stroke="none" fill="currentColor" fill-rule="evenodd"/>
</svg>