<svg xmlns="http://www.w3.org/2000/svg" width="1024" height="1024" viewBox="0 0 1024 1024" version="1.1">
	<path fill-opacity="0.137" d="M 860 326.041 C 854.775 326.457, 846 327.083, 840.500 327.431 C 801.338 329.908, 670.045 339.026, 650.246 340.643 L 642.992 341.236 640.426 349.868 C 639.015 354.616, 637.015 361.200, 635.981 364.500 C 634.947 367.800, 632.028 377.925, 629.495 387 C 626.962 396.075, 622.026 412.950, 618.526 424.500 C 615.027 436.050, 609.146 455.625, 605.458 468 C 601.771 480.375, 597.480 494.759, 595.924 499.964 C 594.367 505.169, 593.298 509.632, 593.548 509.881 C 594.096 510.429, 623.784 508.324, 718 501.055 C 730.041 500.126, 742.973 499.229, 806.500 494.916 C 815.850 494.281, 823.687 493.591, 823.915 493.383 C 824.143 493.174, 831.451 468.140, 840.154 437.752 C 848.857 407.363, 857.970 375.750, 860.405 367.500 C 866.125 348.121, 872 327.039, 872 325.896 C 872 325.403, 871.438 325.064, 870.750 325.143 C 870.063 325.221, 865.225 325.625, 860 326.041 M 332.860 355.110 C 295.745 359.900, 261.671 380.476, 239.562 411.449 C 231.838 422.270, 226.820 432.186, 222.341 445.477 C 216.736 462.111, 215.528 470.226, 215.636 490.500 C 215.725 507.114, 215.964 509.387, 218.737 520.011 C 222.296 533.646, 226.696 545.012, 231.946 554.132 C 251.010 587.255, 282.636 611.107, 318.839 619.665 C 333.346 623.095, 359.018 623.995, 373 621.565 C 409.706 615.187, 442.184 594.164, 462.710 563.500 C 486.101 528.556, 491.790 483.745, 477.852 444.237 C 458.656 389.825, 406.868 353.416, 349.678 354.126 C 344.080 354.196, 336.512 354.639, 332.860 355.110 M 330.597 380.607 C 271.094 391.352, 232.388 445.924, 241.482 506.252 C 247.679 547.365, 276.751 580.621, 318 593.784 C 343.162 601.813, 372.133 600.063, 395.524 589.102 C 445.971 565.461, 470.317 514.542, 456.892 460.750 C 446.695 419.892, 411.772 387.950, 369.119 380.470 C 358.745 378.650, 341.083 378.713, 330.597 380.607 M 183.250 391.760 L 136 392.020 136 507.510 L 136 623 205 623 C 242.950 623, 273.992 622.663, 273.983 622.250 C 273.973 621.837, 270.939 619.700, 267.240 617.500 C 245.116 604.341, 223.306 580.069, 211.530 555.500 C 205.422 542.756, 202.351 533.628, 199.472 519.661 C 194.441 495.256, 195.336 469.777, 202.026 446.919 C 205.984 433.397, 216.023 412.944, 224.479 401.173 C 228.165 396.044, 231.027 391.769, 230.840 391.673 C 230.653 391.578, 209.238 391.617, 183.250 391.760 M 470.648 393.250 C 471.069 393.938, 473.274 396.975, 475.548 400 C 488.303 416.967, 498.588 441.120, 502.375 463 C 508.625 499.109, 500.954 538.685, 481.732 569.500 C 471.183 586.411, 453.543 604.433, 437.194 615 C 431.663 618.575, 427.107 621.837, 427.069 622.250 C 427.031 622.663, 481.900 623, 549 623 L 671 623 671 597.500 L 671 572 687.750 571.917 C 703.104 571.842, 717.070 571.537, 722.767 571.153 L 725.034 571 724.767 545.750 L 724.500 520.500 718.500 520.733 C 711.649 521, 631.005 526.090, 593.255 528.639 C 579.370 529.577, 567.770 530.103, 567.476 529.809 C 567.182 529.515, 569.164 521.900, 571.880 512.887 C 574.596 503.874, 581.614 480.075, 587.476 460 C 593.337 439.925, 600.128 416.912, 602.566 408.859 C 605.005 400.807, 607 393.720, 607 393.109 C 607 392.308, 587.987 392, 538.441 392 C 483.852 392, 470.038 392.255, 470.648 393.250 M 762.873 517.684 C 757.020 521.316, 754.929 528.792, 757.892 535.490 C 761.448 543.527, 771.651 546.209, 778.419 540.885 C 786.010 534.914, 785.567 522.756, 777.580 517.886 C 773.766 515.560, 766.457 515.459, 762.873 517.684 M 807.299 517.960 C 795.772 524.988, 800.971 543.044, 814.580 543.250 C 819.437 543.323, 822.835 541.441, 826.355 536.726 C 828.858 533.374, 828.988 526.158, 826.612 522.531 C 822.530 516.301, 813.518 514.168, 807.299 517.960 M 849.898 518.280 C 845.887 520.971, 843.454 527.277, 844.427 532.461 C 845.803 539.796, 854.618 545.049, 862.088 542.986 C 873.280 539.896, 875.578 523.982, 865.701 517.960 C 861.218 515.226, 854.238 515.368, 849.898 518.280 M 780.687 556.805 L 778 559.609 778 575.805 L 778 592 734 592 L 690 592 690 619 L 690 646 734 646 L 778 646 778 662.944 C 778 679.192, 778.095 679.999, 780.304 682.567 C 782.062 684.611, 783.582 685.272, 786.711 685.354 C 790.307 685.448, 791.599 684.788, 797.157 680.017 C 800.646 677.023, 806.425 671.804, 810 668.420 C 813.575 665.036, 825.275 654.249, 836 644.450 C 846.725 634.651, 856.285 625.478, 857.243 624.066 C 859.042 621.419, 859.455 618.350, 858.388 615.569 C 857.894 614.283, 809.646 570.095, 794.710 557.250 C 789.687 552.930, 784.555 552.768, 780.687 556.805" stroke="none" fill="currentColor" fill-rule="evenodd"/>
	<path fill-opacity="0.450" d="M 842.500 327.582 C 832.050 328.307, 812.925 329.613, 800 330.484 C 787.075 331.355, 763.900 332.942, 748.500 334.012 C 733.100 335.081, 713.525 336.431, 705 337.010 C 696.475 337.590, 684.100 338.483, 677.500 338.993 C 670.900 339.504, 660.488 340.219, 654.363 340.582 L 643.226 341.243 635.481 367.871 C 628.191 392.936, 615.144 436.982, 600.458 486.102 C 596.906 497.983, 594 508.188, 594 508.780 C 594 509.467, 595.894 509.695, 599.250 509.410 C 602.138 509.165, 617.775 508.057, 634 506.948 C 650.225 505.838, 674.300 504.053, 687.500 502.981 C 709.198 501.219, 759.387 497.686, 801.500 494.956 C 810.300 494.385, 818.923 493.699, 820.661 493.431 C 824.394 492.854, 821.945 500.134, 842.449 428.662 C 850.470 400.702, 858.397 373.252, 860.063 367.662 C 861.730 362.073, 864.837 351.200, 866.968 343.500 C 869.100 335.800, 871.152 328.712, 871.529 327.750 C 872.357 325.635, 870.708 325.625, 842.500 327.582 M 338 354.580 C 336.625 354.828, 331.225 355.755, 326 356.640 C 290.607 362.636, 257.990 384.149, 237.402 415.073 C 221.171 439.455, 213.099 471.649, 215.934 500.698 C 219.056 532.681, 230.887 558.396, 253.084 581.441 C 278.319 607.641, 308.622 621.229, 345.084 622.693 C 366.087 623.537, 382.609 620.792, 400.933 613.415 C 442.484 596.688, 472.816 560.350, 482.666 515.500 C 484.791 505.824, 485.560 481.257, 484.059 470.991 C 479.470 439.603, 466.601 414.232, 444.082 392.174 C 420.106 368.689, 388.486 355.450, 354.108 354.503 C 346.623 354.297, 339.375 354.332, 338 354.580 M 339.910 379.114 C 322.476 380.527, 303.140 387.412, 287.907 397.632 C 263.792 413.811, 246.585 440.227, 241.417 469 C 239.800 478.002, 239.612 497.995, 241.060 507 C 243.613 522.881, 252.269 542.648, 262.515 556 C 282.523 582.072, 316.955 599, 349.979 599 C 385.054 599, 418.631 582.276, 439.271 554.528 C 454.695 533.792, 462.073 509.275, 460.646 483.500 C 459.129 456.085, 448.949 432.268, 430.572 413.138 C 406.459 388.036, 375.092 376.265, 339.910 379.114 M 136 507.500 L 136 623 205 623 C 242.950 623, 274 622.840, 274 622.645 C 274 622.450, 269.837 619.578, 264.750 616.263 C 241.492 601.107, 224.083 581.410, 211.930 556.500 C 201.321 534.756, 197.208 518.291, 196.318 494 C 195.030 458.814, 205.202 425.908, 225.676 399.035 L 231.036 392 183.518 392 L 136 392 136 507.500 M 475.871 399.907 C 481.926 408.074, 490.791 424.551, 495.344 436.103 C 502.022 453.047, 505.672 476.136, 504.655 495 C 503.035 525.033, 494.912 550.080, 479.179 573.553 C 467.353 591.197, 455.703 602.792, 436.829 615.702 C 431.842 619.113, 427.516 622.151, 427.215 622.452 C 426.913 622.753, 481.642 623, 548.833 623 L 671 623 671 597.238 L 671 571.476 674.750 571.420 C 676.813 571.389, 688.745 571.282, 701.267 571.182 L 724.034 571 723.767 545.750 L 723.500 520.500 720.500 520.760 C 718.850 520.903, 695.675 522.374, 669 524.029 C 642.325 525.685, 608.350 527.892, 593.500 528.934 C 578.650 529.976, 566.440 530.755, 566.368 530.665 C 566.295 530.574, 568.401 523.300, 571.048 514.500 C 573.694 505.700, 579.970 484.550, 584.993 467.500 C 590.017 450.450, 597.023 426.755, 600.563 414.844 C 604.104 402.933, 607 392.920, 607 392.594 C 607 392.267, 576.177 392, 538.504 392 L 470.008 392 475.871 399.907 M 763.299 517.960 C 758.716 520.753, 756.673 525.246, 757.251 531.259 C 757.913 538.145, 761.890 542.091, 768.843 542.759 C 775.566 543.405, 780.210 540.636, 782.511 534.610 C 787.109 522.570, 774.153 511.341, 763.299 517.960 M 808.062 517.827 C 806.188 518.832, 803.832 521.188, 802.827 523.062 C 796.509 534.844, 809.188 547.608, 821.094 541.451 C 830.378 536.651, 830.148 522.145, 820.717 517.670 C 816.161 515.508, 812.297 515.556, 808.062 517.827 M 852.418 516.969 C 851.274 517.432, 849.136 519.238, 847.668 520.982 C 844.171 525.138, 843.882 533.310, 847.088 537.385 C 853.599 545.663, 866.812 544.480, 870.658 535.276 C 875.334 524.084, 863.699 512.405, 852.418 516.969 M 783.357 554.992 C 778.618 556.904, 778 559.353, 778 576.223 L 778 592 734 592 L 690 592 690 618.500 L 690 645 734 645 L 778 645 778 662.545 C 778 679.841, 778.035 680.126, 780.455 682.545 C 784.461 686.552, 789.612 685.953, 795.609 680.785 C 801.335 675.850, 819.684 659.162, 829 650.416 C 832.575 647.060, 840 640.265, 845.500 635.314 C 851 630.364, 856 625.681, 856.612 624.907 C 858.744 622.210, 858.979 618.464, 857.220 615.215 C 855.459 611.961, 793.730 555.878, 790.580 554.669 C 788.334 553.807, 786.038 553.910, 783.357 554.992" stroke="none" fill="currentColor" fill-rule="evenodd"/>
	<path fill-opacity="0.455" d="M 772.264 333.718 C 773.784 333.947, 776.034 333.941, 777.264 333.704 C 778.494 333.467, 777.250 333.279, 774.500 333.286 C 771.750 333.294, 770.744 333.488, 772.264 333.718 M 755.250 334.689 C 756.212 334.941, 757.788 334.941, 758.750 334.689 C 759.712 334.438, 758.925 334.232, 757 334.232 C 755.075 334.232, 754.288 334.438, 755.250 334.689 M 726.762 336.707 C 728.006 336.946, 729.806 336.937, 730.762 336.687 C 731.718 336.437, 730.700 336.241, 728.500 336.252 C 726.300 336.263, 725.518 336.468, 726.762 336.707 M 696.750 338.706 C 697.987 338.944, 700.013 338.944, 701.250 338.706 C 702.487 338.467, 701.475 338.272, 699 338.272 C 696.525 338.272, 695.513 338.467, 696.750 338.706 M 684.250 339.689 C 685.212 339.941, 686.788 339.941, 687.750 339.689 C 688.712 339.438, 687.925 339.232, 686 339.232 C 684.075 339.232, 683.288 339.438, 684.250 339.689 M 667.750 340.706 C 668.987 340.944, 671.013 340.944, 672.250 340.706 C 673.487 340.467, 672.475 340.272, 670 340.272 C 667.525 340.272, 666.513 340.467, 667.750 340.706 M 647.365 341.727 C 643.652 342.065, 643.166 342.421, 642.608 345.212 C 642.266 346.921, 642.214 348.548, 642.493 348.826 C 642.772 349.105, 643 348.638, 643 347.789 C 643 345.699, 645.349 343.895, 648.522 343.547 C 649.962 343.389, 651.649 342.751, 652.270 342.130 C 652.892 341.508, 652.972 341.079, 652.450 341.175 C 651.928 341.271, 649.639 341.519, 647.365 341.727 M 653.638 342.500 C 653.322 343.325, 653.499 344, 654.031 344 C 654.564 344, 655 343.576, 655 343.057 C 655 342.539, 656.913 341.943, 659.250 341.732 L 663.500 341.349 658.857 341.175 C 655.533 341.050, 654.050 341.426, 653.638 342.500 M 862.088 346.901 C 858.896 348.602, 858.799 348.797, 860.588 349.918 C 861.920 350.752, 862.121 351.275, 861.252 351.641 C 860.456 351.975, 860.237 353.095, 860.648 354.732 C 861.060 356.377, 860.923 357.070, 860.264 356.663 C 859.628 356.270, 859.214 357.549, 859.180 360.014 C 859.117 364.573, 860.463 365.345, 861.336 361.250 C 861.659 359.738, 862.808 355.462, 863.891 351.750 C 864.973 348.038, 865.778 345.019, 865.679 345.042 C 865.581 345.065, 863.965 345.902, 862.088 346.901 M 339.791 355.164 C 313.222 356.810, 285.199 368.185, 263.553 386.109 C 240.629 405.092, 225.256 430.677, 218.507 461.075 C 215.903 472.805, 215.380 497.612, 217.473 510.140 C 226.872 566.391, 269.320 609.582, 326 620.567 C 338.659 623.021, 362.964 623.067, 375.210 620.662 C 401.907 615.417, 427.068 602.044, 446 583.038 C 485.883 542.997, 496.184 481.380, 471.501 430.500 C 465.075 417.255, 457.897 406.986, 447.474 396.126 C 419.113 366.578, 382.199 352.536, 339.791 355.164 M 633.179 377.789 C 630.517 387.504, 630.510 387.753, 632.976 385.521 C 634.063 384.538, 634.780 383.453, 634.568 383.111 C 634.357 382.768, 635.029 380.751, 636.062 378.627 C 637.666 375.329, 637.752 374.405, 636.650 372.301 C 635.421 369.956, 635.253 370.223, 633.179 377.789 M 335.500 379.059 C 298.453 384.047, 265.045 408.648, 249.433 442.440 C 237.833 467.546, 236.188 497.988, 245.027 524 C 248.526 534.298, 256.754 549.268, 263.653 557.891 C 277.966 575.780, 300.006 589.802, 323.825 596.173 C 333.691 598.812, 356.815 599.784, 367.809 598.023 C 404.942 592.074, 438.742 565.594, 453.039 531.251 C 458.530 518.061, 460.160 509.922, 460.701 493 C 461.125 479.707, 460.887 476.006, 459.030 467.008 C 449.948 423.021, 415.879 389.345, 371 379.996 C 363.474 378.428, 344.006 377.914, 335.500 379.059 M 136 507 L 136 622 204.200 622 C 241.710 622, 271.973 621.627, 271.450 621.171 C 270.928 620.715, 266.450 617.707, 261.500 614.486 C 249.092 606.413, 230.443 587.650, 221.714 574.457 C 204.319 548.166, 195.902 520.368, 195.838 489 C 195.771 455.593, 205.788 424.882, 225.058 399.424 C 227.776 395.832, 230 392.693, 230 392.447 C 230 392.201, 208.850 392, 183 392 L 136 392 136 507 M 471 392.494 C 471 392.766, 473.741 396.686, 477.091 401.204 C 487.635 415.425, 497.487 437.732, 502.136 457.911 C 505.050 470.558, 505.750 496.082, 503.587 510.765 C 499.792 536.518, 490.428 559.389, 475.241 580 C 466.727 591.555, 450.883 606.627, 438.658 614.802 L 427.893 622 549.197 622.001 L 670.500 622.001 670.500 596.751 L 670.500 571.500 697.250 571.234 L 724 570.967 724 545.984 C 724 521.589, 723.952 521, 721.981 521 C 720.871 521, 706.358 521.883, 689.731 522.963 C 673.104 524.042, 655.900 525.160, 651.500 525.445 C 647.100 525.731, 626.239 527.124, 605.142 528.541 C 584.045 529.958, 566.604 530.937, 566.383 530.716 C 566.162 530.495, 567.520 525.181, 569.401 518.907 C 571.281 512.633, 576.872 493.775, 581.824 477 C 600.615 413.347, 606.086 394.940, 606.641 393.493 C 607.146 392.178, 599.091 392, 539.107 392 C 501.648 392, 471 392.222, 471 392.494 M 849.212 398.032 C 847.770 400.341, 847.697 401, 848.883 401 C 849.688 401, 851.254 396.921, 850.672 396.339 C 850.536 396.203, 849.879 396.964, 849.212 398.032 M 622.987 413.250 C 621.726 417.238, 620.136 422.612, 619.453 425.192 C 618.275 429.643, 618.306 429.826, 620.041 428.742 C 621.047 428.114, 621.605 427.170, 621.281 426.645 C 620.956 426.120, 621.214 426.014, 621.853 426.409 C 622.492 426.804, 623.719 426.424, 624.579 425.564 C 625.439 424.704, 625.701 424, 625.160 424 C 624.012 424, 624.163 422.131, 625.481 420.018 C 625.989 419.202, 626.463 417.748, 626.534 416.785 C 626.634 415.437, 626.357 415.288, 625.332 416.140 C 624.417 416.899, 624 416.912, 624 416.181 C 624 415.597, 624.397 414.873, 624.882 414.573 C 625.665 414.089, 626.321 406, 625.577 406 C 625.413 406, 624.247 409.262, 622.987 413.250 M 839 434.500 C 838.340 436.499, 838.038 438.371, 838.327 438.661 C 838.617 438.950, 839.325 437.483, 839.900 435.400 C 841.258 430.481, 840.558 429.780, 839 434.500 M 608.636 461.290 C 606.009 470.549, 605.292 474.581, 607.055 470.186 C 607.565 468.913, 608.437 468.152, 608.992 468.495 C 609.546 468.838, 610 468.679, 610 468.142 C 610 467.606, 609.438 466.940, 608.750 466.662 C 608.063 466.385, 608.400 466.115, 609.500 466.064 C 611.164 465.985, 611.248 465.807, 610 465 C 609.175 464.467, 608.987 464.024, 609.583 464.015 C 610.179 464.007, 610.726 463.438, 610.798 462.750 C 611.695 454.176, 611.855 452, 611.588 452 C 611.415 452, 610.087 456.181, 608.636 461.290 M 829.935 465.671 C 829.376 467.140, 829.067 469.053, 829.249 469.921 C 829.430 470.790, 830.075 469.587, 830.683 467.250 C 831.919 462.493, 831.489 461.584, 829.935 465.671 M 823.020 488.963 C 822.402 490.116, 821.357 490.691, 820.485 490.356 C 819.668 490.042, 819 490.253, 819 490.823 C 819 491.394, 817.987 492.056, 816.750 492.294 C 815.511 492.533, 816.365 492.789, 818.652 492.864 C 822.417 492.987, 822.902 492.720, 823.850 490 C 825.038 486.593, 824.588 486.032, 823.020 488.963 M 598.679 494.501 C 596.006 503.306, 595.693 504.754, 596.807 503.147 C 597.553 502.072, 598.201 502.037, 599.958 502.978 C 602.451 504.312, 604.251 503.403, 601.971 501.961 C 600.684 501.147, 600.687 501.027, 602 501 C 603.224 500.975, 603.250 500.811, 602.143 500.110 C 601.268 499.555, 601.155 499.022, 601.824 498.609 C 603.039 497.858, 604.369 499.593, 603.570 500.886 C 603.269 501.374, 603.917 502.007, 605.011 502.293 C 606.105 502.579, 607 502.405, 607 501.906 C 607 501.408, 606.495 501, 605.878 501 C 605.136 501, 605.208 500.455, 606.090 499.392 C 607.224 498.025, 607.138 497.574, 605.521 496.392 C 604.474 495.626, 602.974 495, 602.186 495 C 600.968 495, 600.959 494.748, 602.128 493.308 C 602.904 492.351, 602.988 491.923, 602.321 492.323 C 601.580 492.768, 601.024 492.191, 600.821 490.766 C 600.601 489.213, 599.928 490.387, 598.679 494.501 M 789.750 494.706 C 790.987 494.944, 793.013 494.944, 794.250 494.706 C 795.487 494.467, 794.475 494.272, 792 494.272 C 789.525 494.272, 788.513 494.467, 789.750 494.706 M 771.250 495.716 C 772.763 495.945, 775.237 495.945, 776.750 495.716 C 778.263 495.487, 777.025 495.300, 774 495.300 C 770.975 495.300, 769.737 495.487, 771.250 495.716 M 730.250 498.716 C 731.763 498.945, 734.237 498.945, 735.750 498.716 C 737.263 498.487, 736.025 498.300, 733 498.300 C 729.975 498.300, 728.737 498.487, 730.250 498.716 M 716.264 499.718 C 717.784 499.947, 720.034 499.941, 721.264 499.704 C 722.494 499.467, 721.250 499.279, 718.500 499.286 C 715.750 499.294, 714.744 499.488, 716.264 499.718 M 646.409 504.147 C 646.119 504.616, 648.459 505, 651.608 505 C 654.757 505, 657.146 504.825, 656.917 504.611 C 655.999 503.753, 646.901 503.351, 646.409 504.147 M 604.122 504.878 C 601.328 506.699, 604.186 507.999, 610.809 507.921 C 614.489 507.878, 616.935 507.614, 616.244 507.336 C 615.553 507.057, 615.248 506.408, 615.566 505.893 C 615.884 505.378, 614.874 505.030, 613.322 505.118 C 611.770 505.206, 609.375 504.986, 608 504.629 C 606.625 504.272, 604.880 504.384, 604.122 504.878 M 762.306 519.625 C 760.763 521.068, 760.353 521.631, 761.396 520.875 C 762.438 520.119, 764.463 518.974, 765.896 518.331 C 767.657 517.541, 767.952 517.136, 766.806 517.081 C 765.874 517.037, 763.849 518.181, 762.306 519.625 M 850.774 518.744 C 847.950 520.495, 846.336 523, 848.031 523 C 848.564 523, 849 522.564, 849 522.031 C 849 521.499, 849.788 521.316, 850.750 521.626 C 852.116 522.065, 852.195 521.972, 851.111 521.199 C 850.004 520.411, 850.310 519.891, 852.611 518.645 C 854.200 517.784, 855.050 517.074, 854.500 517.067 C 853.950 517.059, 852.273 517.814, 850.774 518.744 M 822.867 520.092 C 823.480 520.968, 823.697 521.970, 823.348 522.318 C 822.999 522.667, 823.425 523.226, 824.294 523.559 C 825.163 523.893, 825.646 524.758, 825.369 525.482 C 825.091 526.205, 825.344 527.095, 825.932 527.458 C 828.130 528.816, 826.917 524.023, 824.375 521.306 C 822.932 519.763, 822.253 519.216, 822.867 520.092 M 802.500 525 C 802.125 526.183, 802.042 527.376, 802.317 527.651 C 802.592 527.926, 803.125 527.183, 803.500 526 C 803.875 524.817, 803.958 523.624, 803.683 523.349 C 803.408 523.074, 802.875 523.817, 802.500 525 M 868.533 534.951 C 867.483 536.514, 866.028 537.564, 865.300 537.285 C 864.414 536.945, 864.181 537.309, 864.596 538.389 C 865.156 539.848, 864.100 540.490, 861.750 540.118 C 861.337 540.053, 861 540.450, 861 541 C 861 544.180, 868.510 539.420, 870.103 535.230 C 871.437 531.719, 870.783 531.603, 868.533 534.951 M 779.055 536.186 C 778.544 537.459, 778.098 538.094, 778.063 537.597 C 778.029 537.100, 777.167 537.655, 776.148 538.829 C 775.130 540.003, 774.005 540.672, 773.648 540.315 C 773.292 539.958, 773 540.192, 773 540.833 C 773 542.281, 773.287 542.282, 776.439 540.846 C 779.503 539.450, 782.414 535.374, 780.980 534.488 C 780.432 534.149, 779.565 534.913, 779.055 536.186 M 805.721 536.715 C 806.133 537.789, 805.949 538.087, 805.170 537.605 C 803.406 536.515, 803.766 537.566, 805.692 539.128 C 806.842 540.060, 807.143 540.099, 806.633 539.250 C 806.220 538.563, 806.359 538, 806.941 538 C 808.509 538, 808.226 536.301, 806.551 535.658 C 805.533 535.267, 805.286 535.582, 805.721 536.715 M 808 539.559 C 808 540.416, 808.450 540.840, 809 540.500 C 809.550 540.160, 810 540.434, 810 541.108 C 810 541.782, 810.236 542.098, 810.524 541.810 C 811.271 541.063, 809.960 538, 808.893 538 C 808.402 538, 808 538.702, 808 539.559 M 781.455 557.455 C 780.105 558.805, 779.052 560.717, 779.116 561.705 C 779.224 563.375, 779.264 563.378, 779.689 561.750 C 780.222 559.712, 781.611 559.450, 782.338 561.250 C 782.741 562.250, 782.858 562.250, 782.921 561.250 C 782.964 560.563, 783.675 560, 784.500 560 C 785.325 560, 786 559.550, 786 559 C 786 558.450, 786.675 558, 787.500 558 C 788.325 558, 789.004 558.337, 789.008 558.750 C 789.012 559.163, 790.138 560.020, 791.509 560.656 C 792.880 561.293, 793.750 561.405, 793.442 560.906 C 793.134 560.408, 793.653 560, 794.596 560 C 796.173 560, 796.163 559.837, 794.468 557.965 C 793.455 556.845, 792.012 556.165, 791.261 556.453 C 790.510 556.741, 790.171 556.532, 790.507 555.989 C 790.867 555.407, 789.634 555, 787.514 555 C 785.020 555, 783.153 555.756, 781.455 557.455 M 779 569.500 C 779 572.158, 779.298 574.035, 779.662 573.671 C 780.424 572.909, 780.312 565.979, 779.525 565.192 C 779.236 564.903, 779 566.842, 779 569.500 M 691.150 598.750 C 691.232 601.913, 691.487 603.263, 691.716 601.750 C 691.945 600.237, 692.553 599, 693.066 599 C 693.580 599, 693.947 598.663, 693.882 598.250 C 693.365 594.979, 694.180 594.349, 699.226 594.119 C 707.068 593.761, 706.347 593, 698.167 593 L 691 593 691.150 598.750 M 851 609.755 C 851 610.305, 851.675 611.315, 852.500 612 C 853.337 612.694, 854 612.803, 854 612.245 C 854 611.695, 853.325 610.685, 852.500 610 C 851.663 609.306, 851 609.197, 851 609.755 M 691.125 632.250 L 691 645 701.750 644.825 C 707.663 644.729, 710.550 644.476, 708.167 644.264 C 705.299 644.008, 703.990 643.467, 704.298 642.666 C 704.627 641.809, 703.190 641.462, 699.381 641.478 C 694.961 641.496, 693.978 641.187, 693.875 639.750 C 693.806 638.788, 693.605 635.862, 693.427 633.250 C 693.249 630.638, 692.687 626.475, 692.177 624 C 691.406 620.254, 691.229 621.637, 691.125 632.250 M 851.407 625.917 C 850.026 627.211, 849.870 627.227, 850.551 626 C 851.269 624.707, 851.150 624.690, 849.692 625.872 C 848.761 626.627, 848 627.891, 848 628.681 C 848 629.565, 847.518 629.829, 846.750 629.367 C 845.943 628.882, 845.999 629.231, 846.911 630.354 C 848.221 631.968, 848.595 631.825, 852.161 628.343 C 854.272 626.281, 856 624.535, 856 624.464 C 856 623.658, 852.703 624.701, 851.407 625.917 M 742.492 644.028 L 719.500 644.557 749 644.642 C 765.225 644.689, 777.600 644.583, 776.500 644.406 C 771.606 643.619, 763.975 643.535, 742.492 644.028 M 714.250 644.689 C 715.212 644.941, 716.788 644.941, 717.750 644.689 C 718.712 644.438, 717.925 644.232, 716 644.232 C 714.075 644.232, 713.288 644.438, 714.250 644.689 M 822.980 648.524 C 821.110 650.778, 822.195 651.038, 824.425 648.871 C 825.484 647.842, 825.876 647, 825.297 647 C 824.719 647, 823.676 647.686, 822.980 648.524 M 829 648 C 829 648.550, 828.663 648.888, 828.250 648.750 C 827.837 648.612, 827.397 648.846, 827.271 649.270 C 826.831 650.751, 824.493 652.786, 823.750 652.336 C 823.337 652.086, 823 652.610, 823 653.500 C 823 654.390, 822.550 654.840, 822 654.500 C 821.450 654.160, 821 654.679, 821 655.653 C 821 656.928, 822.402 656.044, 826 652.500 C 831.366 647.215, 831.522 647, 830 647 C 829.450 647, 829 647.450, 829 648 M 779.165 660.500 C 779.239 664.900, 779.491 667.227, 779.724 665.671 C 780.002 663.815, 780.610 663.020, 781.491 663.358 C 783.038 663.952, 784.421 661.387, 784.063 658.588 C 783.820 656.682, 781.014 653.118, 780.985 654.679 C 780.976 655.130, 780.533 654.825, 780 654 C 779.335 652.971, 779.073 655.012, 779.165 660.500 M 803.490 672.016 C 803.144 672.575, 802.443 672.774, 801.931 672.457 C 801.419 672.141, 801 672.546, 801 673.358 C 801 674.169, 800.438 675.034, 799.750 675.280 C 799.063 675.525, 798.758 676.008, 799.073 676.353 C 799.388 676.697, 800.935 675.634, 802.510 673.990 C 804.085 672.345, 805.092 671, 804.746 671 C 804.401 671, 803.835 671.457, 803.490 672.016 M 779.030 678.527 C 778.983 680.115, 781.977 684, 783.248 684 C 783.872 684, 783.677 683.438, 782.815 682.750 C 781.954 682.063, 780.756 680.600, 780.155 679.500 C 779.553 678.400, 779.047 677.962, 779.030 678.527" stroke="none" fill="currentColor" fill-rule="evenodd"/>
	<path fill-opacity="0.181" d="M 347.280 355.736 C 349.909 355.943, 353.959 355.940, 356.280 355.731 C 358.601 355.521, 356.450 355.352, 351.500 355.355 C 346.550 355.358, 344.651 355.530, 347.280 355.736 M 276.250 377.115 C 272.841 379.298, 271.738 380.764, 274.750 379.108 C 277.044 377.847, 280.639 375.068, 280 375.049 C 279.725 375.040, 278.038 375.970, 276.250 377.115 M 427 379.364 C 427 379.639, 428.350 380.825, 430 382 C 431.650 383.175, 433 383.911, 433 383.636 C 433 383.361, 431.650 382.175, 430 381 C 428.350 379.825, 427 379.089, 427 379.364 M 320 381.046 C 318.905 381.787, 319.309 381.880, 321.500 381.390 C 325.177 380.567, 325.975 379.995, 323.417 380.015 C 322.363 380.024, 320.825 380.487, 320 381.046 M 472.951 394.750 C 474.313 397.082, 478.989 402.648, 478.995 401.944 C 478.998 401.639, 477.852 399.839, 476.450 397.944 L 473.899 394.500 477.700 393.892 C 481.493 393.285, 481.491 393.284, 476.715 393.142 C 472.417 393.014, 472.034 393.178, 472.951 394.750 M 592 393.558 C 595.687 394.360, 606 394.548, 606 393.814 C 606 393.366, 602.513 393.052, 598.250 393.116 C 593.987 393.180, 591.175 393.379, 592 393.558 M 250.437 399.250 L 247.500 402.500 250.750 399.563 C 252.537 397.948, 254 396.485, 254 396.313 C 254 395.540, 253.175 396.221, 250.437 399.250 M 603.684 397.382 C 603.308 398.362, 603.029 399.914, 603.063 400.832 C 603.105 401.937, 603.453 401.685, 604.092 400.086 C 604.623 398.758, 604.902 397.206, 604.712 396.636 C 604.522 396.067, 604.059 396.403, 603.684 397.382 M 229.162 430.543 C 227.487 434.220, 227.807 435.005, 229.618 431.662 C 230.464 430.100, 230.969 428.636, 230.741 428.407 C 230.512 428.179, 229.802 429.140, 229.162 430.543 M 483.232 476 C 483.232 477.925, 483.438 478.712, 483.689 477.750 C 483.941 476.788, 483.941 475.212, 483.689 474.250 C 483.438 473.288, 483.232 474.075, 483.232 476 M 238.320 488 C 238.320 491.575, 238.502 493.038, 238.723 491.250 C 238.945 489.462, 238.945 486.538, 238.723 484.750 C 238.502 482.962, 238.320 484.425, 238.320 488 M 461.252 502.500 C 461.263 504.700, 461.468 505.482, 461.707 504.238 C 461.946 502.994, 461.937 501.194, 461.687 500.238 C 461.437 499.282, 461.241 500.300, 461.252 502.500 M 432 564.500 C 429.571 566.975, 427.809 569, 428.084 569 C 428.359 569, 430.571 566.975, 433 564.500 C 435.429 562.025, 437.191 560, 436.916 560 C 436.641 560, 434.429 562.025, 432 564.500 M 272 568.500 C 274.987 571.525, 277.657 574, 277.932 574 C 278.207 574, 275.987 571.525, 273 568.500 C 270.013 565.475, 267.343 563, 267.068 563 C 266.793 563, 269.013 565.475, 272 568.500 M 669.310 576.500 C 669.315 579.800, 669.502 581.029, 669.725 579.232 C 669.947 577.435, 669.943 574.735, 669.715 573.232 C 669.486 571.729, 669.304 573.200, 669.310 576.500 M 449.946 577.750 L 446.500 581.500 450.250 578.054 C 453.740 574.846, 454.460 574, 453.696 574 C 453.529 574, 451.842 575.688, 449.946 577.750 M 362.250 599.689 C 363.212 599.941, 364.788 599.941, 365.750 599.689 C 366.712 599.438, 365.925 599.232, 364 599.232 C 362.075 599.232, 361.288 599.438, 362.250 599.689 M 669 613.945 L 669 620.890 664.250 621.265 L 659.500 621.640 664.750 621.820 L 670 622 670 614.500 C 670 610.375, 669.775 607, 669.500 607 C 669.225 607, 669 610.125, 669 613.945 M 383 617.500 C 380.525 618.217, 379.400 618.813, 380.500 618.825 C 381.600 618.837, 384.300 618.253, 386.500 617.528 C 391.679 615.821, 388.872 615.799, 383 617.500 M 261.500 621.067 L 253.500 621.633 262.750 621.817 C 267.837 621.917, 272 621.823, 272 621.607 C 272 620.688, 269.015 620.534, 261.500 621.067 M 145.750 621.732 C 148.088 621.943, 151.912 621.943, 154.250 621.732 C 156.588 621.522, 154.675 621.349, 150 621.349 C 145.325 621.349, 143.412 621.522, 145.750 621.732 M 439.750 621.737 C 442.637 621.939, 447.363 621.939, 450.250 621.737 C 453.137 621.535, 450.775 621.370, 445 621.370 C 439.225 621.370, 436.863 621.535, 439.750 621.737 M 482.750 621.740 C 486.188 621.936, 491.813 621.936, 495.250 621.740 C 498.688 621.545, 495.875 621.385, 489 621.385 C 482.125 621.385, 479.313 621.545, 482.750 621.740 M 503.750 621.706 C 504.988 621.944, 507.012 621.944, 508.250 621.706 C 509.488 621.467, 508.475 621.272, 506 621.272 C 503.525 621.272, 502.512 621.467, 503.750 621.706 M 529.292 621.742 C 533.027 621.935, 538.877 621.934, 542.292 621.739 C 545.706 621.545, 542.650 621.387, 535.500 621.389 C 528.350 621.390, 525.556 621.550, 529.292 621.742" stroke="none" fill="currentColor" fill-rule="evenodd"/>
</svg>