<svg xmlns="http://www.w3.org/2000/svg" width="1024" height="1024" viewBox="0 0 1024 1024" version="1.1">
	<path fill-opacity="0.173" d="M 97.941 97 C 97.909 97.550, 97.882 100.700, 97.882 104 C 97.882 107.300, 97.909 131.825, 97.941 158.500 L 98 207 153.500 207 L 209 207 209 151.500 L 209 96 153.500 96 C 117.206 96, 97.980 96.346, 97.941 97 M 817.675 96.658 C 817.304 97.030, 817 122.012, 817 152.175 L 817 207.017 872.750 206.758 L 928.500 206.500 928.500 151.500 L 928.500 96.500 873.425 96.242 C 843.134 96.100, 818.046 96.287, 817.675 96.658 M 286.240 149.250 L 286.500 196.500 513 196.500 L 739.500 196.500 739.760 149.226 L 740.020 101.953 722.760 102.226 L 705.500 102.500 705.872 115.750 L 706.244 129 698.151 129 L 690.058 129 689.779 115.750 L 689.500 102.500 671.250 102.227 L 653 101.955 653 115.477 L 653 129 645 129 L 637 129 637 115.500 L 637 102 618.500 102 L 600 102 600 115.500 L 600 129 592 129 L 584 129 584 115.500 L 584 102 565.500 102 L 547 102 547 115.500 L 547 129 539 129 L 531 129 531 115.500 L 531 102 512.500 102 L 494 102 494 115.500 L 494 129 486.500 129 L 479 129 479 115.500 L 479 102 460.500 102 L 442 102 442 115.500 L 442 129 434 129 L 426 129 426 115.500 L 426 102 407.500 102 L 389 102 389 115.500 L 389 129 381.064 129 L 373.128 129 373.233 124.750 C 373.291 122.412, 373.262 116.338, 373.169 111.250 L 373 102 354.500 102 L 336 102 336 115.500 L 336 129 327.909 129 L 319.818 129 320.015 117.250 C 320.124 110.787, 320.165 104.713, 320.106 103.750 C 320.009 102.156, 318.483 102, 302.990 102 L 285.980 102 286.240 149.250 M 462.587 238.980 C 462.366 239.816, 462.334 258.275, 462.518 280 C 462.701 301.725, 462.884 323.887, 462.925 329.250 L 463 339 513.009 339 L 563.018 339 562.759 288.448 L 562.500 237.897 512.745 237.678 C 468.940 237.485, 462.941 237.641, 462.587 238.980 M 257.458 261.250 C 257.195 261.938, 257.096 284.325, 257.240 311 L 257.500 359.500 307.750 359.759 L 358 360.018 358 310.009 L 358 260 307.969 260 C 268.866 260, 257.833 260.273, 257.458 261.250 M 668 310 L 668 360 718 360 L 768 360 768 310 L 768 260 718 260 L 668 260 668 310 M 100.226 307.740 L 100.500 324.500 114.254 324.778 L 128.008 325.056 127.815 332.501 L 127.623 339.946 114.061 340.223 L 100.500 340.500 100.500 358.500 L 100.500 376.500 114.211 376.778 L 127.921 377.056 127.711 384.501 L 127.500 391.947 114 392.223 L 100.500 392.500 100.500 410.500 L 100.500 428.500 114 429 L 127.500 429.500 127.500 436.751 L 127.500 444.001 113.727 444.001 L 99.955 444 100.227 462.250 L 100.500 480.500 113.750 480.779 L 127 481.058 127 488.529 L 127 496 113.477 496 L 99.955 496 100.227 514.250 L 100.500 532.500 114.171 532.778 L 127.842 533.055 127.463 540.278 L 127.084 547.500 113.542 547.778 L 100 548.056 100 566.528 L 100 585 113.977 585 L 127.954 585 127.526 592.250 L 127.098 599.500 113.527 599.778 L 99.955 600.057 100.228 618.278 L 100.500 636.500 114 637 L 127.500 637.500 127.500 644.751 L 127.500 652.001 113.727 652.001 L 99.955 652 100.227 670.250 L 100.500 688.500 114.250 688.778 L 128 689.056 128 696.528 L 128 704 114 704 L 100 704 100 720.892 C 100 737.586, 100.026 737.789, 102.250 738.310 C 105.994 739.188, 192.405 739.084, 193.752 738.200 C 194.750 737.546, 194.953 692.121, 194.752 514.440 L 194.500 291.500 147.226 291.240 L 99.952 290.980 100.226 307.740 M 831.466 293.240 C 831.203 293.933, 831.103 393.500, 831.244 514.500 L 831.500 734.500 877.500 734.500 L 923.500 734.500 923.500 513.500 L 923.500 292.500 877.722 292.240 C 841.633 292.035, 831.844 292.246, 831.466 293.240 M 488.840 367.543 C 457.941 372.356, 428.510 387.523, 405.892 410.290 C 382.444 433.891, 368.407 462.496, 363.955 495.749 C 362.280 508.257, 363.254 533.607, 365.866 545.500 C 371.091 569.289, 383.642 595.073, 397.995 611.500 C 404.356 618.780, 417.398 631.178, 421.984 634.305 C 424.468 635.998, 426.650 637.747, 426.833 638.192 C 427.017 638.636, 427.611 639, 428.153 639 C 428.696 639, 431.021 640.266, 433.320 641.813 C 445.982 650.334, 464.026 657.375, 483.978 661.581 C 493.612 663.611, 498.270 664, 512.978 663.999 C 532.742 663.998, 544.220 662.259, 560.173 656.849 C 599.110 643.642, 629.720 616.716, 646.965 580.500 C 654.410 564.865, 656.260 559.675, 659.619 545 C 661.866 535.183, 662.690 503.719, 660.993 492.500 C 652.047 433.345, 607.493 384.655, 549 370.110 C 532.036 365.892, 506.447 364.800, 488.840 367.543 M 236 515.009 L 236 565.018 286.250 564.759 L 336.500 564.500 336.759 514.750 L 337.019 465 286.509 465 L 236 465 236 515.009 M 689 515 L 689 565 739.500 565 L 790 565 790 515 L 790 465 739.500 465 L 689 465 689 515 M 257.458 671.250 C 257.195 671.938, 257.096 694.325, 257.240 721 L 257.500 769.500 307.750 769.759 L 358 770.018 358 720.009 L 358 670 307.969 670 C 268.866 670, 257.833 670.273, 257.458 671.250 M 668 720 L 668 770 718 770 L 768 770 768 720 L 768 670 718 670 L 668 670 668 720 M 462.665 690.741 C 462.409 691.158, 462.448 714.112, 462.752 741.750 L 463.303 792 513.161 792 L 563.018 792 562.759 741.250 L 562.500 690.500 512.815 690.241 C 485.488 690.098, 462.920 690.323, 462.665 690.741 M 97.996 823.750 C 97.993 826.913, 97.965 849.075, 97.933 873 C 97.900 896.925, 97.902 919.538, 97.937 923.250 L 98 930 153.500 930 L 209 930 209 874 L 209 818 153.500 818 L 98 818 97.996 823.750 M 817.242 873.742 L 817.500 929.500 873 929.500 L 928.500 929.500 928.500 874 L 928.500 818.500 872.742 818.242 L 816.983 817.983 817.242 873.742 M 290 881 L 290 928 513 928 L 736 928 736 881 L 736 834 513 834 L 290 834 290 881" stroke="none" fill="currentColor" fill-rule="evenodd"/>
	<path fill-opacity="0.175" d="M 98.417 96.917 C 98.188 97.146, 98 122.012, 98 152.175 L 98 207.017 153.250 206.758 L 208.500 206.500 208.500 151.500 L 208.500 96.500 153.667 96.500 C 123.509 96.500, 98.646 96.688, 98.417 96.917 M 818.959 97.026 C 818.490 97.315, 817.996 122.065, 817.861 152.026 L 817.614 206.500 872.807 206.758 L 928 207.017 928 151.572 L 928 96.126 873.905 96.313 C 844.153 96.416, 819.427 96.737, 818.959 97.026 M 286.667 102.667 C 286.300 103.033, 286 124.183, 286 149.667 L 286 196 512.393 196 C 710.995 196, 738.855 195.819, 739.352 194.525 C 740.095 192.590, 740.100 105.423, 739.357 103.488 C 738.884 102.254, 735.988 102, 722.421 102 L 706.056 102 705.778 115.750 L 705.500 129.500 697.750 129.792 C 691.987 130.009, 689.963 129.753, 689.854 128.792 C 689.436 125.077, 689.244 120.569, 689.128 111.750 L 689 102 671 102 L 653 102 653 115.500 L 653 129 645.029 129 L 637.058 129 636.779 115.750 L 636.500 102.500 618.278 102.228 L 600.057 101.955 599.778 115.728 L 599.500 129.500 592 129.500 L 584.500 129.500 584 116 L 583.500 102.500 565.500 102.500 L 547.500 102.500 547 116 L 546.500 129.500 539 129.500 L 531.500 129.500 531.222 115.728 L 530.943 101.955 512.722 102.228 L 494.500 102.500 494.500 115.751 L 494.500 129.002 487.250 129.001 C 483.262 129, 479.702 128.999, 479.337 128.997 C 478.972 128.995, 478.758 123.483, 478.860 116.747 C 478.963 110.011, 478.665 103.927, 478.199 103.226 C 477.555 102.256, 473.182 102.017, 459.926 102.226 L 442.500 102.500 442.222 115.641 L 441.943 128.781 438.856 129.235 C 437.157 129.484, 433.682 129.645, 431.134 129.594 L 426.500 129.500 426 116 L 425.500 102.500 407.845 102.227 L 390.190 101.955 389.598 111.227 C 389.272 116.327, 389.117 122.525, 389.253 125 L 389.500 129.500 381.500 129.500 L 373.500 129.500 373.222 115.750 L 372.944 102 355 102 L 337.056 102 336.778 115.750 L 336.500 129.500 328.500 129.500 L 320.500 129.500 320.222 115.750 L 319.944 102 303.638 102 C 294.671 102, 287.033 102.300, 286.667 102.667 M 463 288.500 L 463 339 513 339 L 563 339 563 288.500 L 563 238 513 238 L 463 238 463 288.500 M 258 310.009 L 258 360.019 307.750 359.759 L 357.500 359.500 357.759 309.750 L 358.019 260 308.009 260 L 258 260 258 310.009 M 668.241 309.750 L 668.500 359.500 718 359.500 L 767.500 359.500 767.759 309.750 L 768.019 260 718 260 L 667.981 260 668.241 309.750 M 100.667 291.667 C 100.300 292.033, 100 299.428, 100 308.099 C 100 326.806, 98.665 325.398, 115.889 324.861 L 127.500 324.500 127.790 332.750 L 128.081 341 114.017 341 L 99.954 341 100.227 358.750 L 100.500 376.500 113 376.675 C 119.875 376.771, 126.063 376.883, 126.750 376.925 C 127.640 376.978, 128 379.307, 128 385 L 128 393 114 393 L 100 393 100 410.500 L 100 428 114 428 L 128 428 128 435.972 L 128 443.944 114.250 444.222 L 100.500 444.500 100.227 462.250 L 99.954 480 113.977 480 L 128 480 128 487.972 L 128 495.944 114.250 496.222 L 100.500 496.500 100.227 514.222 L 99.954 531.943 113.727 532.222 L 127.500 532.500 127.792 540.222 L 128.083 547.943 114.292 548.222 L 100.500 548.500 100.227 566.142 L 99.955 583.784 108.888 584.491 C 113.801 584.880, 119.201 584.895, 120.888 584.525 C 127.023 583.177, 128 584.278, 128 592.539 L 128 599.944 114.250 600.222 L 100.500 600.500 100.227 618.250 L 99.954 636 113.977 636 L 128 636 128 644 L 128 652 115.582 652 C 108.752 652, 102.452 652.273, 101.582 652.607 C 100.223 653.128, 100 655.669, 100 670.607 L 100 688 114.040 688 L 128.081 688 127.790 696.250 L 127.500 704.500 115.500 704.682 C 108.900 704.782, 102.701 704.894, 101.725 704.932 C 100.089 704.995, 99.972 706.272, 100.225 721.250 L 100.500 737.500 147.250 737.760 L 194 738.020 194 514.510 L 194 291 147.667 291 C 122.183 291, 101.033 291.300, 100.667 291.667 M 832.248 513.250 L 832.500 734.500 877.209 734.760 C 920.622 735.013, 921.949 734.964, 922.960 733.074 C 924.410 730.366, 924.238 295.008, 922.787 293.250 C 921.989 292.284, 911.562 292, 876.875 292 L 831.996 292 832.248 513.250 M 497 367.065 C 465.745 369.373, 433.570 384.276, 408.656 407.987 C 401.338 414.951, 390.370 428.322, 385.267 436.500 C 376.241 450.964, 368.830 470.329, 365.365 488.500 C 362.994 500.938, 363.044 528, 365.463 541 C 367.699 553.022, 373.931 571.917, 378.951 581.904 C 389.812 603.504, 410.313 626.714, 429.500 639.131 C 446.237 649.963, 462.109 656.563, 482.500 661.171 C 494.070 663.786, 521.821 664.795, 532.884 663.004 C 580.185 655.345, 617.727 630.368, 641.112 591 C 651.908 572.825, 657.105 558.085, 661.084 534.355 C 662.810 524.067, 661.703 496.123, 659.100 484.275 C 651.228 448.435, 631.387 417.434, 602.397 395.677 C 597.769 392.204, 592.299 388.461, 590.241 387.359 C 588.184 386.257, 584.463 384.216, 581.974 382.823 C 568.651 375.366, 545.646 368.691, 527.500 367.017 C 515.477 365.907, 512.614 365.912, 497 367.065 M 236 514.491 L 236 564 286.509 564 L 337.019 564 336.759 514.750 L 336.500 465.500 286.250 465.241 L 236 464.982 236 514.491 M 689 514.491 L 689 564 739.509 564 L 790.019 564 789.759 514.750 L 789.500 465.500 739.250 465.241 L 689 464.982 689 514.491 M 258 720.009 L 258 770.019 307.750 769.759 L 357.500 769.500 357.759 719.750 L 358.019 670 308.009 670 L 258 670 258 720.009 M 668 720.009 L 668 770.019 717.750 769.759 L 767.500 769.500 767.759 719.750 L 768.019 670 718.009 670 L 668 670 668 720.009 M 463 741 L 463 791 513 791 L 563 791 563 741 L 563 691 513 691 L 463 691 463 741 M 98.462 819.241 C 98.197 819.934, 98.097 845.025, 98.240 875 L 98.500 929.500 153.500 929.500 L 208.500 929.500 208.500 874 L 208.500 818.500 153.722 818.241 C 110.432 818.037, 98.843 818.247, 98.462 819.241 M 817.635 818.781 C 817.052 819.725, 816.989 925.865, 817.570 928 C 817.927 929.312, 824.733 929.485, 871.739 929.382 C 901.308 929.317, 926.063 929.204, 926.750 929.132 C 927.733 929.028, 928 917.163, 928 873.500 L 928 818 873.059 818 C 842.841 818, 817.901 818.352, 817.635 818.781 M 290.240 880.750 L 290.500 927.500 513 927.500 L 735.500 927.500 735.760 880.750 L 736.020 834 513 834 L 289.980 834 290.240 880.750" stroke="none" fill="currentColor" fill-rule="evenodd"/>
	<path fill-opacity="0.609" d="M 98.241 151.750 L 98.500 206.500 153.250 206.759 L 208 207.017 208 152.009 L 208 97 152.991 97 L 97.983 97 98.241 151.750 M 818 152.009 L 818 207.017 872.750 206.759 L 927.500 206.500 927.759 151.750 L 928.017 97 873.009 97 L 818 97 818 152.009 M 289.250 102.682 L 287 103.139 287 149.570 L 287 196 513.010 196 L 739.020 196 738.760 149.250 L 738.500 102.500 731.500 102.174 C 727.650 101.995, 720.337 102.150, 715.250 102.518 L 706 103.187 706 116.593 L 706 130 697.528 130 L 689.056 130 688.778 116.250 L 688.500 102.500 678 102.184 C 672.225 102.011, 664.237 102.161, 660.250 102.520 L 653 103.171 653 116.626 L 653 130.081 644.750 129.790 L 636.500 129.500 636 116 L 635.500 102.500 621 102.204 C 613.025 102.041, 605.007 102.179, 603.181 102.512 L 599.862 103.116 600.094 116.308 L 600.326 129.500 591.913 129.500 L 583.500 129.500 583.219 116.540 C 583.064 109.411, 582.509 103.314, 581.985 102.991 C 581.461 102.667, 576.638 102.496, 571.266 102.610 C 565.895 102.724, 558.476 102.859, 554.779 102.909 L 548.058 103 547.779 116.250 L 547.500 129.500 539.278 129.790 L 531.057 130.080 530.778 116.290 L 530.500 102.500 515 102.214 C 506.475 102.056, 498.488 102.177, 497.250 102.483 C 495.055 103.024, 495 103.370, 495 116.519 L 495 130 486.500 130 L 478 130 478 116.559 C 478 109.166, 477.663 102.940, 477.250 102.723 C 476.837 102.505, 468.975 102.531, 459.778 102.780 L 443.056 103.233 442.778 116.367 L 442.500 129.500 434 129.500 L 425.500 129.500 425 116 L 424.500 102.500 407.500 102.500 L 390.500 102.500 390.222 116.250 L 389.944 130 381.500 130 L 373.056 130 372.778 116.250 L 372.500 102.500 355 102.500 L 337.500 102.500 337.222 116.250 L 336.944 130 328.472 130 L 320 130 320 116.567 C 320 104.618, 319.807 103.084, 318.250 102.672 C 315.993 102.074, 292.201 102.083, 289.250 102.682 M 463.241 288.241 L 463.500 338.500 513 338.500 L 562.500 338.500 562.500 288.500 L 562.500 238.500 512.741 238.241 L 462.981 237.981 463.241 288.241 M 258 309.500 L 258 359 307.341 359 L 356.681 359 357.282 310.310 C 357.613 283.531, 357.658 261.256, 357.383 260.810 C 357.107 260.365, 334.634 260, 307.441 260 L 258 260 258 309.500 M 668.667 260.667 C 668.300 261.033, 668 283.313, 668 310.176 L 668 359.019 717.750 358.759 L 767.500 358.500 767.255 322 C 767.120 301.925, 767.007 279.762, 767.005 272.750 L 767 260 718.167 260 C 691.308 260, 669.033 260.300, 668.667 260.667 M 101 308 L 101 324 114.500 324 L 128 324 128 332.500 L 128 341 114.500 341 L 101 341 101 358.500 L 101 376 114.500 376 L 128 376 128 384.500 L 128 393 114.500 393 L 101 393 101 410.500 L 101 428 114.500 428 L 128 428 128 436.500 L 128 445 114.500 445 L 101 445 101 462.500 L 101 480 114.500 480 L 128 480 128 488.500 L 128 497 114.500 497 L 101 497 101 514.500 L 101 532 114.500 532 L 128 532 128 540.500 L 128 549 113.875 549 L 99.750 549 100.375 552.125 C 100.719 553.844, 101 561.719, 101 569.625 L 101 584 114.500 584 L 128 584 128 592.500 L 128 601 114.500 601 L 101 601 101 618.500 L 101 636 114.500 636 L 128 636 128 644.472 L 128 652.944 114.335 653.222 L 100.670 653.500 100.722 670.500 L 100.774 687.500 114.387 687.778 L 128 688.056 128 696.500 L 128 704.944 114.497 705.222 C 107.071 705.375, 100.996 705.837, 100.997 706.250 C 100.999 706.663, 101 713.975, 101 722.500 L 101 738 147.500 738 L 194 738 194 515 L 194 292 147.500 292 L 101 292 101 308 M 832 513.500 L 832 734 877.500 734 L 923 734 923 513.500 L 923 293 877.500 293 L 832 293 832 513.500 M 493.500 367.616 C 460.365 372.443, 432.160 386.092, 409.139 408.442 C 395.750 421.440, 387.427 432.602, 380.016 447.500 C 367.935 471.785, 363.997 488.278, 364.021 514.500 C 364.041 536.683, 367.010 552.052, 375.105 571.887 C 387.288 601.739, 407.389 625.135, 435.628 642.330 C 461.934 658.348, 494.775 665.983, 525.293 663.175 C 577.248 658.395, 621.237 628.883, 645.368 582.617 C 656.608 561.067, 661.546 539.956, 661.419 514 C 661.298 489.192, 656.585 469.463, 645.598 447.769 C 625.908 408.890, 590.728 381.288, 547 370.409 C 537.775 368.114, 534.072 367.760, 516.500 367.488 C 505.500 367.318, 495.150 367.375, 493.500 367.616 M 737.250 465.742 L 689 466.019 689 515.010 L 689 564 739.009 564 L 789.019 564 788.759 514.764 C 788.533 471.796, 788.309 465.523, 787 465.496 C 786.175 465.478, 763.788 465.589, 737.250 465.742 M 236.240 514.750 L 236.500 563.500 286.250 563.759 L 336 564.019 336 515.009 L 336 466 285.990 466 L 235.981 466 236.240 514.750 M 258 719.491 L 258 769 307.434 769 L 356.867 769 357.194 758.750 C 357.374 753.112, 357.517 730.950, 357.511 709.500 L 357.500 670.500 307.750 670.241 L 258 669.981 258 719.491 M 668 719.500 L 668 769.019 717.750 768.759 L 767.500 768.500 767.500 719.500 L 767.500 670.500 717.750 670.241 L 668 669.981 668 719.500 M 463 741 L 463 791 512.500 791 L 562 791 562 741 L 562 691 512.500 691 L 463 691 463 741 M 98 874 L 98 929 153 929 L 208 929 208 874 L 208 819 153 819 L 98 819 98 874 M 818 874 L 818 929 873 929 L 928 929 928 874 L 928 819 873 819 L 818 819 818 874 M 290.667 834.667 C 290.300 835.033, 290 855.959, 290 881.169 L 290 927.004 512.750 926.752 L 735.500 926.500 735.397 917.500 C 735.340 912.550, 735.228 891.737, 735.147 871.250 L 735 834 513.167 834 C 391.158 834, 291.033 834.300, 290.667 834.667" stroke="none" fill="currentColor" fill-rule="evenodd"/>
	<path fill-opacity="0.971" d="M 99 151.500 L 99 206 153.500 206 L 208 206 208 151.500 L 208 97 153.500 97 L 99 97 99 151.500 M 818 151.509 L 818 206.017 872.632 205.759 L 927.263 205.500 927.644 162 C 927.854 138.075, 927.745 113.662, 927.403 107.750 L 926.781 97 872.391 97 L 818 97 818 151.509 M 287.524 112.250 C 287.159 117.338, 287.005 138.150, 287.180 158.500 L 287.500 195.500 512.615 195.752 L 737.731 196.004 738.229 189.050 C 738.502 185.225, 738.498 164.300, 738.219 142.548 L 737.712 103 722.385 103 L 707.058 103 706.779 116.250 L 706.500 129.500 697.500 129.500 L 688.500 129.500 688.221 116.250 L 687.942 103 670.971 103 L 654 103 654 116.500 L 654 130 645 130 L 636 130 636 116.500 L 636 103 618.500 103 L 601 103 601 116.500 L 601 130 592 130 L 583 130 583 116.500 L 583 103 565.500 103 L 548 103 548 116.500 L 548 130 539 130 L 530 130 530 116.500 L 530 103 512.750 102.998 L 495.500 102.996 495.474 107.748 C 495.459 110.362, 495.347 116.455, 495.224 121.289 L 495 130.078 486.334 129.789 L 477.669 129.500 477.904 116.250 L 478.140 103 460.570 103 L 443 103 443 116.500 L 443 130 434 130 L 425 130 425 116.500 L 425 103 407.500 103 L 390 103 390 116.500 L 390 130 381 130 L 372 130 372 116.500 L 372 103 354.500 103 L 337 103 337 116.500 L 337 130 328 130 L 319 130 319 116.500 L 319 103 303.593 103 L 288.187 103 287.524 112.250 M 463.923 238.250 C 463.881 238.387, 463.788 260.775, 463.716 288 L 463.585 337.500 512.792 337.759 L 562 338.019 562 288.009 L 562 238 513 238 C 486.050 238, 463.966 238.113, 463.923 238.250 M 258.739 309.750 L 258.978 358.500 307.989 358.759 L 357 359.019 357 310.009 L 357 261 307.750 261 L 258.500 261 258.739 309.750 M 668.393 262.582 C 668.727 263.452, 669 285.502, 669 311.582 L 669 359 718 359 L 767 359 767 310 L 767 261 717.393 261 C 672.569 261, 667.845 261.153, 668.393 262.582 M 101 308 L 101 324 115.039 324 L 129.078 324 128.789 332.750 L 128.500 341.500 114.750 341.778 L 101 342.056 101 359 L 101 375.944 114.750 376.222 L 128.500 376.500 128.500 385 L 128.500 393.500 114.750 393.778 L 101 394.056 101 411 L 101 427.944 114.630 428.222 L 128.260 428.500 128.380 436.500 L 128.500 444.500 117.500 445.280 C 111.450 445.709, 105.263 445.899, 103.750 445.703 L 101 445.346 101 462.673 L 101 480 114.500 480 L 128 480 128 488.500 L 128 497 114.500 497 L 101 497 101 514.472 L 101 531.944 114.750 532.222 L 128.500 532.500 128.500 540.500 L 128.500 548.500 114.750 548.778 L 101 549.056 101 566.028 L 101 583 113.800 583 C 122.422 583, 126.992 583.392, 127.800 584.200 C 129.393 585.793, 129.393 599.207, 127.800 600.800 C 126.992 601.608, 122.422 602, 113.800 602 L 101 602 101 618.972 L 101 635.944 114.750 636.222 L 128.500 636.500 128.753 644.274 C 128.997 651.801, 128.924 652.079, 126.437 653.024 C 125.025 653.561, 118.724 654, 112.435 654 L 101 654 101 671.048 L 101 688.097 113.473 687.404 C 122.917 686.879, 126.317 687.018, 127.473 687.978 C 129.381 689.561, 129.641 702.959, 127.800 704.800 C 126.992 705.608, 122.422 706, 113.800 706 L 101 706 101 721.500 L 101 737 147 737 C 183.070 737, 193.026 736.730, 193.119 735.750 C 193.185 735.063, 193.178 637.750, 193.105 519.500 C 193.031 401.250, 192.978 301.688, 192.986 298.250 L 193 292 147 292 L 101 292 101 308 M 833 513.510 L 833 734.021 877.693 733.760 L 922.386 733.500 922.344 706.500 C 922.321 691.650, 922.234 592.538, 922.151 486.250 L 922 293 877.500 293 L 833 293 833 513.510 M 497.500 367.571 C 470.161 371.271, 449.696 378.717, 429.500 392.312 C 382.502 423.951, 357.720 478.812, 365.496 534 C 367.609 548.995, 368.365 552.140, 372.918 564.897 C 380.379 585.804, 391.321 603.309, 406.466 618.569 C 429.689 641.967, 454.950 655.212, 487.500 661.060 C 506.287 664.435, 531.272 663.306, 552 658.145 C 558.647 656.490, 575.524 649.737, 583 645.741 C 619.486 626.238, 648.149 589.213, 657.120 550 C 660.853 533.680, 662.318 505.854, 660.051 494.326 C 659.529 491.672, 658.618 487.008, 658.026 483.962 C 654.900 467.858, 646.478 448.028, 636.113 432.371 C 625.145 415.803, 605.534 397.255, 588.923 387.740 C 573.659 378.997, 555.829 372.280, 540.500 369.498 C 531.977 367.952, 503.965 366.696, 497.500 367.571 M 237 515.107 C 237 559.475, 237.153 564.155, 238.582 563.607 C 239.452 563.273, 261.727 563, 288.082 563 L 336 563 336 514.500 L 336 466 286.500 466 L 237 466 237 515.107 M 689.855 508.750 C 689.660 532.263, 689.647 554.200, 689.826 557.500 L 690.152 563.500 739.576 563.500 L 788.999 563.500 789 514.750 L 789 466 739.605 466 L 690.209 466 689.855 508.750 M 306.750 670.760 L 259 671.019 259 720.010 L 259 769 308.009 769 L 357.019 769 356.759 719.833 C 356.591 687.965, 356.148 670.637, 355.500 670.583 C 354.950 670.537, 333.012 670.617, 306.750 670.760 M 669 720 L 669 769 718 769 L 767 769 767 720 L 767 671 718 671 L 669 671 669 720 M 463.809 691.750 C 463.639 692.163, 463.621 714.663, 463.769 741.750 L 464.037 791 513.019 791 L 562 791 562 741 L 562 691 513.059 691 C 486.141 691, 463.979 691.337, 463.809 691.750 M 99 874 L 99 929 153.500 929 L 208 929 208 874 L 208 819 153.500 819 L 99 819 99 874 M 818 874 L 818 929.017 872.750 928.759 L 927.500 928.500 927.500 874 L 927.500 819.500 872.750 819.241 L 818 818.983 818 874 M 291 881 L 291 927 513 927 L 735 927 735 881 L 735 835 513 835 L 291 835 291 881" stroke="none" fill="currentColor" fill-rule="evenodd"/>
</svg>