<svg xmlns="http://www.w3.org/2000/svg" width="1024" height="1024" viewBox="0 0 1024 1024" version="1.1">
	<path fill-opacity="0.196" d="M 206.500 203.459 C 179.979 229.434, 176.674 233.012, 178 234.308 C 185.867 241.998, 380.985 400.102, 415.630 426.859 L 423.760 433.138 432.853 423.931 C 438.715 417.996, 441.689 414.272, 441.223 413.450 C 440.484 412.147, 422.557 391.095, 348.500 304.570 C 325.400 277.581, 294.144 240.874, 279.043 222.999 C 263.942 205.125, 248.450 186.787, 244.616 182.250 C 240.783 177.713, 237.389 174.017, 237.073 174.038 C 236.758 174.059, 223 187.299, 206.500 203.459 M 764.839 199.250 C 753.127 213.137, 737.010 232.165, 729.022 241.534 C 721.035 250.902, 703.250 271.793, 689.500 287.957 C 675.750 304.121, 645.786 339.196, 622.914 365.902 L 581.329 414.457 590.699 423.827 L 600.069 433.197 608.284 426.876 C 625.916 413.311, 690.222 361.622, 742.500 318.995 C 750.200 312.716, 763.700 301.743, 772.500 294.609 C 785.025 284.456, 844.681 235.308, 847 233.231 C 847.617 232.679, 788.154 174, 786.979 174 C 786.514 174, 776.551 185.363, 764.839 199.250 M 417.564 354.750 C 418.550 356.262, 422.566 361.550, 426.487 366.500 C 430.408 371.450, 438.694 381.913, 444.900 389.750 C 451.106 397.587, 456.412 404, 456.692 404 C 456.971 404, 462.217 402.005, 468.350 399.567 C 481.958 394.157, 492.062 391.959, 506.500 391.270 C 524.821 390.395, 543.383 393.958, 559.645 401.472 L 566.990 404.865 587.245 379.358 C 598.385 365.329, 607.650 353.435, 607.833 352.926 C 608.036 352.362, 570.515 352, 511.968 352 L 415.770 352 417.564 354.750 M 298 386.441 C 298 400.975, 298.380 410.117, 298.999 410.499 C 299.549 410.839, 315.861 417.115, 335.249 424.446 C 354.637 431.777, 371.288 438.099, 372.250 438.495 C 373.869 439.160, 373.999 438.141, 373.985 424.857 C 373.976 416.961, 373.639 410.021, 373.235 409.435 C 372.831 408.849, 368.450 405.949, 363.500 402.992 C 358.550 400.034, 341.966 389.826, 326.646 380.307 C 311.327 370.788, 298.614 363, 298.396 363 C 298.178 363, 298 373.548, 298 386.441 M 703 376.660 C 691.175 384.057, 674.413 394.387, 665.750 399.615 L 650 409.120 650 424.167 C 650 438.101, 650.129 439.162, 651.750 438.505 C 653.230 437.906, 685.758 425.522, 717 413.664 L 725.500 410.438 725.769 387.538 C 725.917 374.943, 725.692 364.317, 725.269 363.925 C 724.846 363.532, 714.825 369.263, 703 376.660 M 501 409.035 C 491.887 410.073, 477.736 414.092, 470.693 417.642 C 443.957 431.116, 426.366 453.068, 419.308 481.763 C 416.738 492.213, 416.980 513.099, 419.802 524.377 C 434.299 582.317, 498.120 612.914, 551.618 587.571 C 563.140 582.113, 568.407 578.507, 577.565 569.809 C 590.531 557.492, 599.928 541.444, 604.213 524.301 C 607.281 512.026, 607.261 493.160, 604.168 480.623 C 597.222 452.477, 578.123 429.312, 551.648 416.923 C 537.887 410.483, 516.933 407.220, 501 409.035 M 273.544 446.789 C 273.245 447.088, 273 469.983, 273 497.667 C 273 546.198, 273.067 548, 274.873 548 C 276.730 548, 317.662 541.437, 373.500 532.185 C 389.450 529.543, 402.426 526.957, 402.335 526.440 C 399.629 511.045, 399.661 493.056, 402.416 480 C 403.171 476.425, 403.637 473.339, 403.452 473.142 C 403.268 472.945, 390.153 470.100, 374.308 466.820 C 301.050 451.654, 274.047 446.286, 273.544 446.789 M 738.500 448.673 C 734.650 449.479, 707.425 455.056, 678 461.068 C 648.575 467.079, 623.447 472.242, 622.159 472.541 C 620.601 472.902, 620.009 473.582, 620.389 474.572 C 620.703 475.391, 621.722 481.335, 622.653 487.780 C 624.101 497.806, 624.181 501.328, 623.205 512.152 C 622.578 519.111, 621.938 525.389, 621.783 526.104 C 621.583 527.022, 624.581 527.927, 632 529.189 C 659.421 533.853, 747.537 548, 749.163 548 C 750.921 548, 751 545.837, 751 497.500 L 751 447 748.250 447.104 C 746.737 447.161, 742.350 447.867, 738.500 448.673 M 335.262 565.824 L 298.024 578.500 298.012 601.857 C 298.002 621.064, 298.240 625.122, 299.351 624.696 C 300.094 624.411, 308.981 619.366, 319.101 613.486 C 329.220 607.606, 345.712 598.048, 355.750 592.246 L 374 581.697 374 567.348 C 374 559.457, 373.663 553.033, 373.250 553.074 C 372.837 553.115, 355.743 558.852, 335.262 565.824 M 650 567.316 L 650 581.633 686.250 602.768 C 706.188 614.392, 723.296 624.201, 724.269 624.565 C 725.933 625.189, 726.022 623.859, 725.769 601.966 L 725.500 578.704 704 571.317 C 692.175 567.253, 675.348 561.470, 666.608 558.464 C 657.867 555.459, 650.554 553, 650.358 553 C 650.161 553, 650 559.442, 650 567.316 M 391.253 584.817 C 348.473 613.113, 201.826 709.082, 172.033 728.281 L 159.958 736.061 168.991 747.781 C 173.959 754.226, 185.265 769.063, 194.115 780.750 C 202.965 792.438, 210.510 802, 210.882 802 C 211.254 802, 219.445 794.462, 229.084 785.250 C 238.724 776.038, 254.225 761.300, 263.531 752.500 C 291.655 725.906, 318.772 700.140, 353.496 667.020 C 371.648 649.706, 396.625 625.896, 409 614.108 C 421.375 602.321, 433.053 591.189, 434.951 589.371 L 438.401 586.065 431.367 578.783 C 427.499 574.777, 423.531 570.263, 422.552 568.750 C 421.572 567.237, 420.484 566.030, 420.135 566.067 C 419.786 566.104, 406.789 574.542, 391.253 584.817 M 599.728 570.803 C 597.748 573.386, 593.848 577.733, 591.063 580.462 C 588.279 583.192, 586 585.727, 586 586.097 C 586 586.760, 609.174 608.891, 721.974 715.951 C 753.585 745.953, 786.854 777.587, 795.904 786.250 C 804.955 794.913, 812.660 802, 813.028 802 C 813.396 802, 820.245 793.337, 828.249 782.750 C 836.253 772.163, 847.343 757.650, 852.894 750.500 C 858.444 743.350, 862.986 737.050, 862.986 736.500 C 862.986 735.950, 854.327 729.892, 843.743 723.037 C 824.829 710.787, 789.851 687.941, 736.500 652.988 C 721.650 643.259, 700.500 629.447, 689.500 622.295 C 678.500 615.143, 655.550 600.073, 638.500 588.807 C 621.450 577.542, 606.562 567.825, 605.415 567.215 C 603.570 566.234, 602.915 566.647, 599.728 570.803 M 341 710.647 C 333.204 713.188, 331.516 714.746, 314.684 734.944 C 301.722 750.496, 228.886 836.920, 219.226 848.210 C 217.161 850.623, 218.108 853.325, 224.445 863.108 C 233.543 877.154, 238.335 878.036, 259.788 869.618 C 376.820 823.694, 491.028 809.975, 609.500 827.609 C 662.979 835.569, 715.308 849.939, 767.748 871.066 C 787.159 878.885, 789.899 878.093, 800.400 861.621 L 807.184 850.978 797.706 839.739 C 792.493 833.558, 781.145 820.175, 772.488 810 C 754.209 788.514, 702.276 726.746, 696.550 719.679 C 691.408 713.334, 686.082 710.593, 679 710.647 C 663.403 710.765, 653.204 725.597, 658.499 740.462 C 659.275 742.641, 659.805 744.528, 659.678 744.656 C 659.550 744.783, 657.658 744.493, 655.473 744.011 C 639.634 740.514, 596.184 735.132, 565.500 732.867 C 543.294 731.227, 479.132 731.204, 458 732.828 C 427.211 735.195, 378.036 741.443, 365.563 744.573 L 363.001 745.217 364.978 740.858 C 368.784 732.471, 366.832 722.934, 359.935 716.225 C 355.373 711.786, 345.987 709.021, 341 710.647" stroke="none" fill="currentColor" fill-rule="evenodd"/>
	<path fill-opacity="0.151" d="M 206.681 203.661 C 190.281 219.942, 177.231 233.589, 177.681 233.988 C 178.706 234.896, 220.223 268.932, 237 282.617 C 243.875 288.225, 260.975 302.174, 275 313.615 C 313.847 345.302, 395.087 410.534, 419.707 429.807 L 423.915 433.100 427.707 428.897 C 429.793 426.585, 433.847 422.451, 436.716 419.710 L 441.931 414.728 439.892 412.114 C 437.581 409.150, 431.153 401.612, 360.921 319.500 C 333.165 287.050, 296.765 244.300, 280.030 224.500 C 237.997 174.767, 237.791 174.527, 237.108 174.279 C 236.774 174.158, 223.082 187.380, 206.681 203.661 M 782.374 178.750 C 780.247 181.363, 767.055 197, 753.058 213.500 C 739.061 230, 722.653 249.350, 716.595 256.500 C 698.089 278.343, 661.497 321.217, 620.771 368.772 C 599.447 393.671, 582 414.222, 582 414.440 C 582 414.659, 586.093 418.931, 591.096 423.934 L 600.192 433.029 616.346 420.284 C 638.189 403.051, 703.436 350.541, 730.500 328.415 C 742.600 318.523, 761.050 303.499, 771.500 295.029 C 781.950 286.559, 803.262 269.056, 818.860 256.134 L 847.220 232.640 817.360 203.371 C 800.937 187.273, 787.217 174.079, 786.870 174.051 C 786.524 174.023, 784.501 176.137, 782.374 178.750 M 298.454 387.204 L 298.770 410.407 333.635 423.533 C 352.811 430.752, 369.512 437.201, 370.750 437.864 L 373 439.070 373 424.125 L 373 409.180 362.750 402.882 C 357.113 399.417, 340.682 389.252, 326.238 380.291 C 311.794 371.331, 299.562 364, 299.057 364 C 298.515 364, 298.267 373.532, 298.454 387.204 M 716 368.834 C 711.875 371.473, 696.125 381.217, 681 390.489 C 665.875 399.761, 652.685 408.038, 651.688 408.884 C 650.076 410.253, 649.905 411.943, 650.135 424.290 C 650.384 437.702, 650.460 438.143, 652.446 437.688 C 653.576 437.429, 668 432.063, 684.500 425.763 C 701 419.463, 716.862 413.475, 719.750 412.457 L 725 410.605 725 387.302 C 725 374.486, 724.663 364.008, 724.250 364.018 C 723.837 364.028, 720.125 366.195, 716 368.834 M 493 410.499 C 462.264 417.387, 438.610 436.011, 426.119 463.156 C 416.771 483.471, 414.989 503.564, 420.566 525.768 C 428.679 558.068, 454.589 584.066, 487.802 593.233 C 494.141 594.983, 498.413 595.370, 512 595.429 C 526.356 595.491, 529.526 595.203, 536.395 593.213 C 563.863 585.257, 585.107 567.431, 597.783 541.701 C 611.105 514.659, 608.664 478.124, 591.810 452.306 C 579.034 432.736, 560.830 419.134, 538.421 412.416 C 530.858 410.148, 527.217 409.688, 514.500 409.392 C 503.871 409.144, 497.606 409.466, 493 410.499 M 273 497.500 C 273 531.210, 273.340 548, 274.022 548 C 274.986 548, 327.109 539.605, 377.227 531.378 C 389.726 529.326, 400.447 527.342, 401.050 526.969 C 401.843 526.479, 401.849 524.152, 401.073 518.573 C 399.598 507.965, 399.786 493.073, 401.515 483.500 C 403.389 473.132, 403.388 473.127, 400.750 472.523 C 388.875 469.807, 276.498 447, 274.989 447 C 273.030 447, 273 447.759, 273 497.500 M 705.500 455.629 C 682.950 460.285, 654.908 466.052, 643.185 468.445 C 631.462 470.838, 621.640 473.027, 621.359 473.308 C 621.078 473.589, 621.616 478.697, 622.554 484.659 C 623.860 492.962, 624.096 498.309, 623.562 507.500 C 623.178 514.100, 622.783 521.285, 622.682 523.466 L 622.500 527.432 655 532.704 C 672.875 535.603, 701.414 540.246, 718.420 543.021 C 742.978 547.029, 749.513 547.803, 750.180 546.784 C 750.943 545.617, 750.952 490.993, 750.195 459.750 C 749.923 448.520, 749.684 447.010, 748.193 447.083 C 747.262 447.128, 728.050 450.974, 705.500 455.629 M 371 553.925 C 370.175 554.358, 353.643 560.064, 334.261 566.606 L 299.022 578.500 299.011 601.695 L 299 624.889 307.250 620.078 C 311.788 617.432, 328.100 607.965, 343.500 599.039 C 358.900 590.114, 371.850 582.481, 372.279 582.077 C 372.707 581.673, 372.932 574.997, 372.779 567.240 C 372.538 555.076, 372.294 553.246, 371 553.925 M 650.765 566.928 C 650.461 575.985, 650.674 580.892, 651.405 581.678 C 652.007 582.326, 668.475 592.163, 688 603.538 C 707.525 614.913, 723.837 624.422, 724.250 624.669 C 724.663 624.916, 724.999 614.629, 724.997 601.809 L 724.994 578.500 703.747 571.361 C 692.061 567.435, 675.462 561.777, 666.861 558.789 L 651.221 553.357 650.765 566.928 M 400.364 579.201 C 389.439 586.402, 376 595.226, 370.500 598.809 C 365 602.393, 340.250 618.600, 315.500 634.825 C 217.451 699.103, 203.719 708.074, 182.777 721.536 C 170.829 729.216, 161.041 735.864, 161.027 736.310 C 161.012 736.755, 164.383 741.480, 168.517 746.810 C 172.651 752.139, 183.723 766.625, 193.121 779 C 202.519 791.375, 210.554 801.500, 210.977 801.500 C 211.400 801.500, 220.466 793.158, 231.123 782.962 C 241.780 772.765, 259.050 756.343, 269.500 746.467 C 316.592 701.963, 414.482 608.672, 426.664 596.687 L 437.829 585.703 433.122 581.102 C 430.533 578.571, 426.572 574.162, 424.321 571.304 L 420.228 566.109 400.364 579.201 M 594.554 576.655 L 585.607 586.221 591.062 591.361 C 594.061 594.187, 614.287 613.400, 636.008 634.055 C 677.718 673.720, 696.378 691.437, 756.998 748.934 C 777.622 768.495, 798.671 788.515, 803.775 793.423 C 809.135 798.577, 813.405 801.956, 813.884 801.423 C 814.341 800.915, 819.599 793.975, 825.568 786 C 831.537 778.025, 842.436 763.676, 849.788 754.113 C 860.817 739.768, 862.923 736.502, 861.828 735.440 C 861.098 734.733, 845.650 724.517, 827.500 712.740 C 809.350 700.962, 779.200 681.278, 760.500 668.997 C 741.800 656.717, 711.875 637.142, 694 625.498 C 676.125 613.854, 648.825 595.929, 633.334 585.664 C 617.843 575.399, 604.793 567.020, 604.334 567.044 C 603.875 567.069, 599.474 571.394, 594.554 576.655 M 337.153 712.067 C 332.903 713.770, 330.405 716.394, 311.934 738.557 C 301.876 750.626, 276.626 780.617, 255.823 805.203 C 235.021 829.790, 218 850.428, 218 851.065 C 218 852.844, 227.537 868.221, 230.167 870.683 C 236.524 876.633, 241.651 876.331, 260.784 868.880 C 326.231 843.393, 391.119 827.842, 456.500 821.974 C 476.312 820.196, 526.513 819.610, 547.500 820.912 C 622.193 825.546, 688.446 840.067, 758 867.050 C 779.601 875.430, 782.525 876.312, 786.333 875.597 C 790.801 874.759, 793.733 871.724, 800.617 860.814 C 804.972 853.912, 806.054 851.450, 805.377 849.982 C 804.894 848.936, 787.798 828.375, 767.384 804.290 C 746.971 780.206, 721.771 750.409, 711.384 738.076 C 700.998 725.743, 691.269 714.747, 689.763 713.641 C 686.357 711.137, 676.708 710.281, 671.451 712.016 C 666.004 713.814, 659.660 720.572, 658.062 726.278 C 656.608 731.473, 657.177 737.507, 659.554 742.105 C 660.378 743.697, 660.828 745, 660.555 745 C 660.282 745, 652.058 743.680, 642.280 742.066 C 597.486 734.673, 559.857 731.720, 510.500 731.721 C 462.884 731.723, 424.795 734.855, 378.864 742.549 C 370.814 743.897, 363.940 745, 363.588 745 C 363.236 745, 363.622 743.697, 364.446 742.105 C 369.870 731.616, 365.167 717.706, 354.571 712.893 C 350.188 710.902, 341.132 710.473, 337.153 712.067" stroke="none" fill="currentColor" fill-rule="evenodd"/>
	<path fill-opacity="0.546" d="M 781.500 180.397 C 770.144 194.239, 673.350 307.995, 614.638 376.500 L 582.071 414.500 590.765 423.250 C 595.546 428.063, 599.772 432, 600.155 432 C 601.316 432, 652.950 390.982, 704 349.507 C 766.641 298.614, 778.859 288.630, 810.433 262.540 C 829.096 247.118, 844.846 234.174, 845.433 233.775 C 846.485 233.060, 806.336 191.948, 793 180.085 L 786.500 174.302 781.500 180.397 M 207 203.946 C 177.634 232.701, 177.509 232.841, 179.500 234.775 C 180.600 235.844, 188.025 242.048, 196 248.562 C 203.975 255.077, 220.175 268.326, 232 278.006 C 243.825 287.686, 264.525 304.607, 278 315.609 C 323.198 352.512, 413.711 425.084, 420.145 429.580 L 423.790 432.127 432.418 423.382 C 437.163 418.572, 440.923 414.298, 440.773 413.883 C 440.479 413.072, 422.009 391.375, 351.500 309.013 C 326.750 280.103, 291.008 238.123, 272.073 215.725 C 253.137 193.326, 237.387 175.013, 237.073 175.030 C 236.758 175.046, 223.225 188.058, 207 203.946 M 299.231 387.062 L 299.500 410.264 334.500 423.517 C 353.750 430.806, 370.288 437.095, 371.250 437.492 C 372.869 438.160, 373 437.140, 372.995 423.857 L 372.990 409.500 363.245 403.554 C 357.885 400.284, 341.800 390.357, 327.500 381.493 C 313.200 372.630, 300.929 365.036, 300.231 364.618 C 299.218 364.012, 299.017 368.530, 299.231 387.062 M 689 385.950 C 669.475 398.021, 652.920 408.258, 652.210 408.699 C 651.233 409.306, 650.991 412.921, 651.210 423.629 L 651.500 437.757 669.500 430.867 C 679.400 427.077, 695.600 420.990, 705.500 417.340 C 715.400 413.690, 723.846 410.402, 724.269 410.033 C 724.692 409.664, 724.917 399.156, 724.769 386.682 L 724.500 364.002 689 385.950 M 497 410.163 C 468.862 414.131, 441.057 434.082, 428.245 459.500 C 420.225 475.412, 417.429 488.663, 418.276 506.750 C 418.947 521.083, 421.519 531.311, 427.519 543.500 C 436.711 562.177, 451.452 576.803, 470.362 586.010 C 485.108 593.189, 495.186 595.433, 512.500 595.394 C 528.753 595.357, 538.140 593.351, 551.673 587.023 C 562.445 581.987, 567.873 578.197, 577.390 569.068 C 597.371 549.902, 606.953 526.009, 605.692 498.500 C 604.526 473.044, 595.698 453.299, 577.526 435.500 C 556.677 415.078, 527.423 405.874, 497 410.163 M 274 497.406 C 274 544.889, 274.102 547.791, 275.750 547.437 C 276.712 547.230, 284.925 545.895, 294 544.469 C 325.012 539.595, 401.375 526.958, 401.685 526.648 C 401.855 526.478, 401.481 523.675, 400.853 520.419 C 399.187 511.778, 399.478 490.898, 401.388 482 C 402.274 477.875, 402.999 474.213, 402.999 473.861 C 403 473.510, 401.313 472.917, 399.250 472.544 C 397.188 472.170, 378.175 468.272, 357 463.880 C 316.586 455.499, 274.981 447, 274.364 447 C 274.164 447, 274 469.683, 274 497.406 M 705.500 456.030 C 681.850 460.905, 653.275 466.769, 642 469.062 C 630.725 471.354, 621.361 473.355, 621.191 473.507 C 621.021 473.660, 621.584 477.483, 622.441 482.003 C 624.197 491.258, 624.498 511.389, 623.016 520.438 C 622.481 523.705, 622.197 526.530, 622.384 526.718 C 622.765 527.098, 631.718 528.585, 699.500 539.522 C 725.350 543.694, 747.288 547.338, 748.250 547.621 C 749.900 548.106, 750 545.256, 750 497.567 C 750 469.755, 749.663 447.037, 749.250 447.083 C 748.837 447.128, 729.150 451.154, 705.500 456.030 M 335.500 566.456 L 299.500 578.771 299.231 601.386 C 299.083 613.824, 299.124 624, 299.322 624 C 299.649 624, 311.377 617.250, 357.250 590.661 L 373 581.532 373 567.766 C 373 560.195, 372.663 554.032, 372.250 554.070 C 371.837 554.109, 355.300 559.682, 335.500 566.456 M 651 567.748 L 651 581.632 655.250 583.990 C 657.587 585.287, 666.475 590.473, 675 595.515 C 701.215 611.020, 723.713 624, 724.372 624 C 724.718 624, 725 613.932, 725 601.627 L 725 579.254 690.250 567.251 C 671.138 560.650, 654.487 554.937, 653.250 554.557 L 651 553.865 651 567.748 M 385.500 589.348 C 271.312 664.275, 178.870 724.698, 163.197 734.653 L 160.894 736.116 164.197 740.495 C 187.518 771.412, 210.355 801, 210.897 801 C 211.272 801, 223.057 790.087, 237.085 776.750 C 251.113 763.413, 274.713 741.025, 289.530 727 C 304.346 712.975, 341.152 677.932, 371.321 649.126 C 401.489 620.321, 428.714 594.387, 431.820 591.496 L 437.468 586.239 430.769 579.138 C 427.085 575.233, 423.328 570.904, 422.420 569.519 C 421.513 568.133, 420.484 567.009, 420.135 567.019 C 419.786 567.030, 404.200 577.078, 385.500 589.348 M 599.786 571.728 C 597.773 574.353, 593.889 578.693, 591.154 581.373 L 586.182 586.246 595.341 594.924 C 600.378 599.697, 622.500 620.717, 644.500 641.636 C 692.413 687.193, 697.689 692.205, 747.008 739 C 768.166 759.075, 791.469 781.237, 798.792 788.250 C 806.116 795.262, 812.478 801, 812.931 801 C 813.384 801, 818.392 794.813, 824.059 787.250 C 832.085 776.539, 856.723 744.284, 862.166 737.360 C 862.786 736.571, 854.342 730.572, 834.781 717.904 C 819.227 707.830, 789.400 688.361, 768.500 674.639 C 747.600 660.917, 717.225 641.052, 701 630.494 C 684.775 619.936, 656.680 601.510, 638.567 589.547 C 620.453 577.584, 605.141 567.608, 604.539 567.377 C 603.937 567.145, 601.798 569.104, 599.786 571.728 M 336.381 712.859 C 333.166 714.362, 327.796 720.134, 311.928 739.143 C 300.745 752.539, 275.599 782.380, 256.048 805.457 C 236.496 828.533, 219.903 848.234, 219.172 849.236 C 218.028 850.808, 218.221 851.710, 220.574 855.780 C 233.122 877.478, 236.094 878.314, 263 867.703 C 321.982 844.444, 387.169 828.436, 447 822.520 C 483.472 818.913, 537.279 818.919, 574.298 822.535 C 639.978 828.949, 706.832 845.511, 768.297 870.594 C 780.715 875.661, 787.048 876.323, 791.279 872.996 C 793.583 871.183, 804.037 855.672, 805.468 851.944 C 805.847 850.955, 802.769 846.559, 796.726 839.459 C 772.777 811.319, 724.699 754.431, 708.765 735.379 C 689.730 712.619, 687.703 710.975, 678.730 711.022 C 670.977 711.062, 661.692 717.338, 659.061 724.315 C 657.279 729.041, 657.776 737.640, 660.092 742.181 L 662.184 746.281 659.842 745.643 C 648.697 742.604, 600.458 736.212, 570.500 733.804 C 549.041 732.080, 473.526 732.078, 453 733.802 C 429.981 735.735, 397.667 739.702, 379 742.887 C 369.925 744.435, 362.369 745.601, 362.209 745.477 C 362.050 745.353, 362.896 743.596, 364.090 741.571 C 367.102 736.467, 366.971 728.362, 363.776 722.154 C 358.980 712.833, 345.916 708.401, 336.381 712.859" stroke="none" fill="currentColor" fill-rule="evenodd"/>
</svg>