<svg xmlns="http://www.w3.org/2000/svg" width="1024" height="1024" viewBox="0 0 1024 1024" version="1.1">
	<path fill-opacity="0.165" d="M 396.381 204.913 C 383.894 208.299, 374.270 213.644, 339.500 236.502 C 312.679 254.135, 305.745 259.664, 300.454 267.636 C 293.428 278.221, 291.808 284.316, 291.055 303 C 290.039 328.192, 288.779 329.472, 263.966 330.505 C 235.643 331.684, 196.027 335.569, 186.686 338.085 C 175.132 341.196, 164.903 349.708, 159.919 360.360 C 156.072 368.581, 152.756 382.052, 148.936 404.983 C 143.474 437.771, 145.068 449.675, 156.565 461.966 C 162.108 467.892, 169.574 471.550, 182.390 474.621 C 198.659 478.519, 203.137 480.047, 205.641 482.550 C 210.224 487.133, 208.801 491.082, 196.968 506.603 C 188.084 518.257, 183.700 526.776, 181.945 535.800 C 177.426 559.040, 192.257 585.081, 215.632 594.949 C 228.211 600.259, 238.186 601.378, 264 600.375 C 325.685 597.977, 335.410 599.568, 377.500 618.941 C 412.488 635.046, 420.938 637.379, 444.500 637.435 C 462.806 637.479, 468.528 636.346, 481.500 630.115 C 497.121 622.610, 504.417 614.685, 514.462 594.315 C 525.445 572.041, 533.409 563.848, 548.928 558.857 C 558.551 555.762, 574.227 555.983, 592.500 559.472 C 645.754 569.640, 660.543 571.544, 679 570.608 C 693.426 569.876, 703.011 568.065, 710.335 564.686 C 727.404 556.810, 738.151 539.451, 738.307 519.500 C 738.457 500.474, 734.434 493.478, 707.548 466 C 687.278 445.285, 683.299 439.964, 681.700 431.439 C 680.188 423.382, 685.295 415.640, 694.999 411.277 C 698.023 409.918, 715.123 405.053, 732.999 400.467 C 771.482 390.595, 783.492 387.132, 807.442 379.004 C 828.737 371.778, 833.380 369.406, 840.065 362.338 C 859.625 341.656, 852.565 307.056, 826.274 294.745 C 820.617 292.097, 818.016 291.509, 810.500 291.180 C 798.039 290.634, 789.119 292.889, 724.811 312.848 C 654.893 334.547, 640.437 337.653, 630.459 333.120 C 625.077 330.676, 621.597 326.329, 616.925 316.216 C 609.545 300.242, 601.259 291.103, 588.259 284.598 C 575.709 278.318, 559.757 277.474, 546.677 282.397 C 537.932 285.689, 533.232 289.020, 523.417 298.880 C 516.741 305.587, 514.790 307, 512.206 307 C 507.487 307, 505.393 303.943, 503.047 293.627 C 497.895 270.967, 489.714 258.477, 462.031 231 C 445.330 214.423, 438.531 209.547, 427 205.879 C 417.619 202.895, 405.261 202.505, 396.381 204.913 M 780.500 464.869 C 775.227 467.274, 769.387 473.419, 767.381 478.671 C 764.829 485.356, 765.789 495.506, 769.549 501.588 C 774.779 510.048, 779.709 512.457, 796.935 514.972 C 817.292 517.943, 833.401 534.434, 838.548 557.572 C 841.151 569.273, 840.223 589.801, 836.611 600.390 C 831.498 615.382, 823.269 625.773, 812.193 631.226 C 805.897 634.325, 804.954 634.500, 794.500 634.500 C 784.051 634.500, 783.102 634.325, 776.820 631.232 C 768.571 627.171, 760.755 618.992, 756.230 609.685 C 752.019 601.025, 746.715 595.730, 740.022 593.507 C 721.768 587.444, 703.677 601.030, 705.220 619.643 C 706.553 635.710, 727.371 661.848, 749 674.609 C 787.847 697.530, 837.384 687.802, 865.809 651.671 C 876.364 638.253, 883.289 623.875, 887.805 606 C 890.238 596.367, 890.457 593.849, 890.450 575.500 C 890.443 557.092, 890.230 554.682, 887.778 545.223 C 884.621 533.044, 879.873 521.698, 873.292 510.613 C 866.778 499.639, 851.287 484.179, 840.222 477.608 C 819.905 465.543, 792.047 459.601, 780.500 464.869 M 593 591.053 C 569.158 593.423, 548.917 604.111, 532.898 622.788 C 526.716 629.996, 518.588 646.081, 515.863 656.500 C 512.830 668.101, 512.841 687.366, 515.887 698.933 C 520.315 715.741, 527.918 728.808, 540.138 740.611 C 552.207 752.267, 565.698 759.755, 581.671 763.663 C 592.051 766.202, 611.156 765.990, 622.290 763.212 C 676.251 749.748, 704.911 690.592, 681.457 641.089 C 665.497 607.403, 630.077 587.367, 593 591.053 M 373.430 657.978 C 341.806 662.466, 314.316 683.989, 302.537 713.487 C 289.641 745.781, 296.396 782.215, 319.921 807.247 C 328.884 816.784, 336.993 822.720, 348.279 828.010 C 371.883 839.071, 400.305 839.312, 423.389 828.647 C 438.308 821.754, 452.249 810.219, 460.955 797.565 C 472.639 780.584, 478.636 756.714, 476.129 737.168 C 471.283 699.384, 444.993 669.190, 408.920 659.979 C 399.473 657.567, 382.907 656.633, 373.430 657.978 M 153.951 724.331 C 144.887 726.837, 139.246 731.827, 135.072 741.028 C 133.167 745.230, 133.043 747.508, 133.022 778.712 C 132.996 817.437, 133.333 819.297, 141.810 827.225 C 150.402 835.262, 151.774 835.500, 189.500 835.500 L 222.500 835.500 228.182 832.710 C 234.619 829.549, 239.316 824.704, 242.394 818.051 C 244.405 813.706, 244.500 811.961, 244.500 779.500 C 244.500 745.899, 244.472 745.439, 242.137 740.273 C 239.502 734.446, 233.113 727.998, 227.317 725.318 C 223.955 723.763, 219.625 723.524, 191 723.313 C 167.313 723.138, 157.266 723.414, 153.951 724.331" stroke="none" fill="currentColor" fill-rule="evenodd"/>
	<path fill-opacity="0.432" d="M 401.757 203.982 C 387.408 206.555, 376.132 212.526, 338.500 237.478 C 305.272 259.510, 299.876 264.875, 293.769 281.952 C 292.238 286.236, 291.639 291.301, 291.143 304.177 C 290.578 318.843, 290.251 321.194, 288.435 323.677 C 284.376 329.228, 280.608 330.194, 259.640 331.064 C 224.598 332.518, 191.581 336.314, 181.645 340.032 C 175.086 342.486, 165.262 350.968, 161.529 357.400 C 156.958 365.276, 153.410 379.414, 148.464 409.465 C 143.769 437.984, 145.923 450.966, 157.232 462.312 C 163.121 468.220, 169.802 471.368, 183.205 474.550 C 200.002 478.537, 203.759 479.878, 205.957 482.672 C 208.341 485.704, 208.583 489.987, 206.585 493.800 C 205.807 495.285, 201.961 500.550, 198.040 505.500 C 184.766 522.255, 179.649 536.784, 181.950 551.186 C 185.711 574.730, 201.292 591.438, 225.846 598.256 C 232.867 600.206, 235.484 600.354, 257.500 600.044 C 315.338 599.232, 320.695 599.362, 331.941 601.858 C 345.782 604.929, 356.492 608.927, 380.315 619.917 C 412.098 634.579, 422.242 637.301, 445 637.274 C 469.524 637.245, 484.219 631.821, 498.517 617.519 C 505.818 610.217, 507.289 608.025, 514.973 593 C 521.978 579.302, 524.437 575.479, 529.455 570.489 C 536.576 563.407, 543.751 559.583, 554.030 557.391 C 564.398 555.179, 575.938 556.039, 601.500 560.927 C 647.779 569.777, 665.087 571.672, 684.426 570.006 C 704.377 568.288, 714.730 564.157, 724.344 554.078 C 734.348 543.590, 738.527 531.709, 737.737 516 C 736.860 498.540, 732.473 491.147, 709.555 468.500 C 700.650 459.700, 691.761 450.475, 689.802 448 C 681.474 437.476, 679.285 428.555, 683.181 421.008 C 687.480 412.681, 692.230 410.693, 732.500 400.365 C 781.492 387.800, 816.425 376.927, 829.295 370.237 C 851.245 358.827, 857.647 330.879, 843.272 309.222 C 836.203 298.572, 824.442 292.140, 810.500 291.297 C 803.361 290.866, 800.616 291.301, 785 295.338 C 775.375 297.827, 747.763 305.964, 723.639 313.420 C 671.068 329.670, 650.627 335, 640.880 335 C 628.281 335, 624.668 332.082, 615.850 314.786 C 609.029 301.406, 602.653 293.690, 593.542 287.790 C 577.110 277.148, 553.733 276.846, 537.500 287.065 C 534.750 288.796, 528.675 293.928, 524 298.469 C 514.976 307.236, 512.301 308.767, 509.048 307.026 C 506.146 305.473, 504.551 301.798, 502.089 291 C 499.523 279.741, 494.076 268.152, 486.815 258.500 C 479.171 248.339, 450.657 219.569, 442.578 213.865 C 431.353 205.941, 414.112 201.766, 401.757 203.982 M 780.500 465.309 C 767.749 471.527, 762.476 485.950, 768.366 498.500 C 772.955 508.277, 779.432 512.459, 792.238 513.915 C 815.915 516.605, 831.911 531.120, 838.619 556 C 841.207 565.599, 840.959 585.885, 838.124 596.423 C 829.923 626.913, 804.832 642.392, 779.172 632.792 C 771.451 629.903, 761.303 620.038, 756.489 610.742 C 749.419 597.089, 743.060 592.548, 731 592.543 C 722.692 592.539, 718.861 594.004, 713.162 599.362 C 707.644 604.551, 705.561 609.515, 705.552 617.500 C 705.545 623.646, 706.010 625.415, 709.366 632 C 716.522 646.038, 727.690 659.114, 741 669.036 C 758.879 682.363, 783.744 688.973, 804.925 686.028 C 837.540 681.494, 862.459 662.906, 878.025 631.500 C 896.519 594.189, 895.121 548.320, 874.413 512.988 C 857.935 484.871, 826.254 465.083, 795 463.387 C 786.374 462.918, 785.040 463.095, 780.500 465.309 M 583.663 592.569 C 565.229 596.686, 552.200 603.817, 539.009 617.009 C 528.071 627.946, 522.817 636.404, 517.893 651 C 515.080 659.341, 514.632 662.165, 514.220 674.141 C 513.856 684.712, 514.138 689.550, 515.472 695.641 C 522.979 729.913, 549.355 756.376, 583.155 763.546 C 593.843 765.813, 610.850 765.583, 621.694 763.024 C 632.803 760.402, 648.464 752.741, 657 745.753 C 679.755 727.124, 692.420 696.689, 689.028 668.789 C 684.679 633.023, 660.373 604.382, 625.464 593.888 C 616.079 591.066, 593.571 590.357, 583.663 592.569 M 375.906 657.991 C 355.231 660.542, 337.022 669.228, 322.639 683.400 C 303.715 702.046, 293.865 729.708, 296.838 755.855 C 301.084 793.194, 326.139 822.650, 362.648 833.224 C 369.376 835.173, 372.789 835.496, 386.500 835.480 C 405.348 835.459, 410.392 834.364, 425.638 826.982 C 450.183 815.099, 466.369 795.561, 473.663 769.015 C 475.820 761.164, 476.570 740.412, 475.014 731.634 C 468.932 697.324, 442.749 668.868, 409.570 660.508 C 399.044 657.856, 385.317 656.830, 375.906 657.991 M 149.500 726.358 C 142.576 729.597, 136.496 736.487, 134.499 743.357 C 133.145 748.014, 132.943 753.872, 133.198 781.184 C 133.490 812.459, 133.574 813.661, 135.799 818.500 C 138.955 825.363, 144.375 830.622, 150.747 833.006 C 155.681 834.853, 158.528 834.998, 189.288 834.978 C 220.492 834.957, 222.770 834.833, 226.972 832.928 C 234.185 829.656, 237.632 826.423, 240.915 819.854 L 244 813.681 244 780.018 C 244 742.515, 243.724 740.542, 237.443 733.205 C 235.547 730.989, 231.658 728.012, 228.801 726.588 L 223.607 724 189.054 724.010 C 154.934 724.019, 154.437 724.049, 149.500 726.358" stroke="none" fill="currentColor" fill-rule="evenodd"/>
	<path fill-opacity="0.396" d="M 396 205.532 C 383.738 208.925, 374.460 214.137, 338.502 237.836 C 311.089 255.903, 303.193 262.712, 298.209 272.586 C 293.087 282.732, 291.836 288.740, 291.578 304.437 C 291.184 328.324, 289.425 329.917, 262.092 331.161 C 227.152 332.751, 191.391 336.759, 182.510 340.082 C 172.025 344.005, 162.957 353.154, 158.956 363.847 C 154.725 375.154, 147.886 409.934, 146.407 427.667 C 145.224 441.861, 149.347 454.309, 157.872 462.284 C 164.704 468.674, 169.235 470.685, 186.565 475.016 C 194.946 477.111, 202.950 479.576, 204.351 480.494 C 205.752 481.413, 207.394 483.663, 207.999 485.496 C 209.506 490.062, 208.015 493.206, 198.515 505.500 C 186.176 521.466, 182.034 531.264, 182.012 544.540 C 181.988 558.782, 187.401 571.494, 197.964 582.001 C 214.332 598.282, 233.226 602.456, 276.885 599.437 C 320 596.455, 338.611 599.949, 377.751 618.378 C 408.972 633.078, 423.276 637.006, 445.500 636.979 C 464.519 636.957, 476.685 633.558, 489.884 624.581 C 499.763 617.862, 505.557 610.536, 513.678 594.500 C 522.490 577.098, 527.551 570.133, 534.998 565.160 C 546.278 557.628, 550.456 556.528, 567.500 556.600 C 581.091 556.657, 584.708 557.094, 606 561.252 C 644.613 568.791, 650.186 569.477, 672.500 569.445 C 694.475 569.413, 701.333 568.332, 711.779 563.250 C 729.662 554.550, 740.705 531.740, 737.195 510.750 C 734.823 496.568, 731.187 491.169, 708.105 467.552 C 686.261 445.202, 682.368 439.906, 681.328 431.120 C 680.560 424.638, 681.359 421.799, 685.174 417.454 C 690.910 410.922, 696.757 408.818, 737.624 398.586 C 776.333 388.894, 821.653 374.719, 830.534 369.527 C 836.499 366.040, 843.735 357.791, 847.058 350.690 C 858.545 326.143, 842.310 296.377, 814.997 291.905 C 803.353 289.998, 791.525 292.854, 721.702 314.429 C 659.386 333.685, 642.720 337.582, 633.604 335.029 C 626.263 332.974, 622.653 329.082, 616.367 316.448 C 609.511 302.667, 603.593 295.060, 595.340 289.420 C 586.043 283.067, 579.215 280.823, 567.429 280.246 C 550.239 279.405, 538.700 284.187, 525.500 297.620 C 521.100 302.097, 516.517 306.265, 515.316 306.880 C 508.838 310.201, 505.549 306.516, 501.816 291.756 C 496.372 270.237, 489.099 259.151, 463.510 233.371 C 440.210 209.897, 431.732 205.128, 412 204.398 C 404.620 204.125, 399.866 204.462, 396 205.532 M 782.878 464.563 C 777.441 466.237, 770.778 472.290, 768.388 477.726 C 765.864 483.467, 766.085 493.478, 768.862 499.215 C 773.246 508.272, 779.722 511.906, 795 513.885 C 811.970 516.083, 825.502 526.089, 833.548 542.388 C 839.636 554.722, 841.328 563.285, 840.683 578.500 C 839.568 604.803, 829.200 623.802, 811.347 632.257 C 805.046 635.242, 803.703 635.500, 794.500 635.500 C 785.310 635.500, 783.949 635.239, 777.698 632.278 C 768.620 627.978, 760.661 619.886, 755.292 609.498 C 750.505 600.236, 748.342 597.940, 741.488 594.848 C 724.889 587.362, 705.782 599.284, 705.867 617.075 C 705.922 628.443, 714.410 643.494, 728.962 658.026 C 747.406 676.445, 765.625 684.680, 790.239 685.724 C 807.704 686.465, 820.137 683.896, 835 676.473 C 861.589 663.194, 882.603 632.796, 888.558 599 C 890.568 587.591, 890.525 562.989, 888.476 552.188 C 879.454 504.625, 846.565 471.262, 802 464.461 C 790.576 462.718, 788.837 462.727, 782.878 464.563 M 586.342 592.409 C 558.370 597.761, 535.384 614.632, 523.546 638.500 C 517.536 650.616, 515.017 660.179, 514.326 673.500 C 513.039 698.332, 521.731 721.420, 538.894 738.754 C 555.155 755.177, 573.913 763.546, 597 764.679 C 622.326 765.922, 643.685 757.988, 661.778 740.618 C 679.756 723.358, 689 702.095, 689 678 C 689 655.402, 680.868 635.220, 665.115 618.719 C 653.334 606.379, 641.517 599.179, 625.297 594.458 C 614.315 591.261, 597.077 590.354, 586.342 592.409 M 370.831 658.963 C 337.693 664.979, 311.216 687.805, 301.191 719 C 298.080 728.679, 297 736.169, 297 748.055 C 297 771.334, 306.105 793.081, 322.752 809.566 C 343.512 830.122, 373.386 839.574, 401.868 834.596 C 430.007 829.679, 455.338 810.490, 467.457 784.911 C 473.612 771.919, 475.324 763.572, 475.335 746.500 C 475.343 733.068, 475.064 730.581, 472.663 722.703 C 463.409 692.344, 440.610 669.582, 410.762 660.902 C 402.681 658.552, 379.339 657.419, 370.831 658.963 M 151.969 725.511 C 145.694 727.480, 139.641 732.994, 136.311 739.776 L 133.500 745.500 133.500 779.022 L 133.500 812.543 136.843 819.333 C 140.697 827.162, 145.460 831.206, 153.620 833.578 C 157.949 834.836, 164.519 835.051, 191.184 834.802 L 223.500 834.500 228.590 831.814 C 234.267 828.819, 239.120 823.803, 241.752 818.213 C 243.312 814.899, 243.500 810.734, 243.500 779.500 C 243.500 746.114, 243.404 744.292, 241.412 739.989 C 238.896 734.554, 234.228 729.703, 228.634 726.711 C 224.625 724.567, 223.469 724.494, 190.500 724.295 C 163.456 724.132, 155.573 724.380, 151.969 725.511" stroke="none" fill="currentColor" fill-rule="evenodd"/>
</svg>