<svg xmlns="http://www.w3.org/2000/svg" width="1024" height="1024" viewBox="0 0 1024 1024" version="1.1">
	<path fill-opacity="0.137" d="M 486.583 223.068 C 472.322 224.331, 451.577 227.903, 437 231.607 C 423.026 235.157, 408.039 239.764, 406.776 240.898 C 406.378 241.255, 407.391 243.562, 409.027 246.024 C 413.550 252.829, 417.933 264.175, 419.260 272.512 C 419.919 276.654, 420.950 280, 421.569 280 C 422.184 280, 425.345 279.081, 428.593 277.958 C 461.486 266.588, 511.463 261.741, 546.663 266.506 C 563.635 268.804, 586.937 274.295, 599.639 278.990 C 602.465 280.034, 605.053 280.614, 605.389 280.278 C 605.725 279.942, 606 278.261, 606 276.543 C 606 269.298, 612.469 251.767, 618.020 243.973 C 620.474 240.525, 620.565 240.595, 608.500 236.659 C 572.504 224.914, 525.241 219.646, 486.583 223.068 M 348.845 237.021 C 336.274 239.144, 322.871 249.348, 317.130 261.169 C 302.149 292.013, 325.691 326.947, 359.975 324.748 C 377.420 323.630, 392.007 312.866, 398.206 296.541 C 400.072 291.628, 400.499 288.539, 400.492 280 C 400.485 270.269, 400.249 269.003, 397.277 262.712 C 393.468 254.650, 385.070 245.444, 378.029 241.612 C 372.866 238.802, 361.699 235.961, 356.500 236.135 C 354.850 236.190, 351.405 236.589, 348.845 237.021 M 661.470 237.082 C 643.971 239.255, 628.681 253.770, 624.947 271.754 C 621.316 289.243, 628.859 307.738, 643.618 317.534 C 654.640 324.851, 669.324 327.028, 681.661 323.177 C 707.595 315.082, 720.165 285.100, 707.852 260.707 C 701.951 249.017, 688.586 238.940, 677.068 237.495 C 674.556 237.180, 671.375 236.789, 670 236.627 C 668.625 236.465, 664.787 236.670, 661.470 237.082 M 289.319 313.750 C 267.312 337.937, 248.161 367.309, 235.692 396 C 230.362 408.264, 221.922 430.806, 220.615 436.269 L 219.952 439.038 242.093 438.769 L 264.233 438.500 268.663 427 C 280.494 396.287, 300.945 362.983, 321.250 341.365 L 326.073 336.230 319.493 330.995 C 312.193 325.186, 305.476 317.422, 301.270 309.934 C 299.746 307.221, 298.226 305.002, 297.890 305.001 C 297.555 305, 293.698 308.938, 289.319 313.750 M 722.763 312.415 C 718.358 319.140, 707.662 330.443, 702.091 334.261 L 699.681 335.911 704.591 341.566 C 730.792 371.745, 748.991 402.113, 758.936 432.250 L 761.163 439 783.082 439 C 801.118 439, 805 438.754, 805 437.611 C 805 435.422, 797.603 414.583, 792.571 402.595 C 779.544 371.559, 756.324 334.998, 735.903 313.369 C 727.167 304.116, 728.153 304.187, 722.763 312.415 M 396 328.072 C 392.425 330.780, 385.534 335.057, 380.687 337.577 L 371.874 342.159 373.643 344.830 C 374.616 346.298, 377.703 351.100, 380.503 355.500 C 391.805 373.258, 406.395 395, 407.011 395 C 408.426 395, 437 375.273, 437 374.296 C 437 373.268, 403.780 323.002, 403.149 323.075 C 402.792 323.116, 399.575 325.365, 396 328.072 M 604.979 348.619 C 595.614 362.772, 588.300 374.663, 588.726 375.043 C 590.491 376.617, 617.880 395, 618.462 395 C 619.322 395, 653.001 343.831, 652.995 342.532 C 652.993 341.964, 649.280 339.605, 644.745 337.288 C 640.210 334.971, 633.800 331.120, 630.500 328.731 C 627.200 326.341, 623.939 324.049, 623.253 323.636 C 622.392 323.118, 616.735 330.852, 604.979 348.619 M 499.491 376.046 C 479.096 377.852, 456.560 385.393, 439.414 396.149 C 403.185 418.876, 380.765 452.851, 374.513 494.500 C 370.701 519.896, 375.148 549.143, 386.379 572.537 C 393.779 587.952, 399.940 596.928, 410.977 608.377 C 438.119 636.527, 467.204 649.895, 507 652.510 C 538.687 654.591, 574.072 643.170, 600 622.491 C 608.258 615.905, 621.280 602.165, 627.424 593.554 C 638.313 578.295, 647.374 556.046, 650.455 537 C 653.423 518.658, 652.014 493.981, 646.976 476.053 C 634.707 432.389, 600.206 396.556, 556.496 382.078 C 539.716 376.521, 518.946 374.323, 499.491 376.046 M 220.453 590.250 C 233.767 632.940, 248.668 662.580, 273.115 695 C 281.423 706.017, 296.447 723.022, 297.837 722.980 C 298.201 722.969, 299.850 720.639, 301.500 717.802 C 304.898 711.960, 317.849 698.353, 322.750 695.476 C 324.538 694.427, 326 693.182, 326 692.710 C 326 692.238, 323.596 689.297, 320.658 686.176 C 306.476 671.106, 291.110 648.409, 280.023 626.157 C 273.553 613.170, 266.890 597.396, 265.448 591.650 L 264.783 589 242.423 589 C 224.994 589, 220.149 589.276, 220.453 590.250 M 756.924 600.750 C 746.248 629.963, 727.193 661.268, 704.848 686.304 C 701.508 690.047, 698.939 693.224, 699.138 693.365 C 699.337 693.506, 701.857 695.099, 704.738 696.907 C 710.927 700.790, 718.449 708.762, 723.715 717.020 C 725.797 720.284, 727.950 722.819, 728.500 722.654 C 730.048 722.187, 745.344 704.549, 753.102 694.285 C 774.539 665.923, 795.016 625.950, 804.347 594.250 L 805.892 589 783.555 589 L 761.218 589 756.924 600.750 M 396.580 648.295 C 391.131 656.658, 383.391 668.536, 379.381 674.691 L 372.090 685.881 380.795 691.081 C 385.583 693.941, 392.334 698.243, 395.798 700.640 C 399.262 703.038, 402.455 705, 402.895 705 C 403.864 705, 437 655.644, 437 654.202 C 437 653.354, 430.091 648.551, 408.993 634.731 L 406.487 633.089 396.580 648.295 M 604.791 642.320 C 597.251 647.369, 590.322 651.970, 589.394 652.544 C 587.918 653.457, 589.864 656.822, 604.863 679.294 C 614.299 693.432, 622.295 705, 622.633 705 C 622.970 705, 626.003 703.041, 629.373 700.646 C 632.743 698.251, 639.325 694.142, 644 691.515 C 648.675 688.888, 652.660 686.601, 652.855 686.432 C 653.523 685.852, 625.422 641.719, 620.500 635.619 L 618.500 633.140 604.791 642.320 M 660.715 705.014 C 658.083 705.471, 653.033 707.200, 649.492 708.857 C 621.688 721.868, 615.318 758.157, 636.991 780.070 C 645.105 788.274, 653.527 792.110, 664.842 792.755 C 679.795 793.608, 689.679 790.131, 699.465 780.577 C 712.815 767.544, 716.505 746.475, 708.474 729.142 C 705.868 723.517, 697.617 714.162, 692.438 710.961 C 684.403 705.996, 670.297 703.351, 660.715 705.014 M 343.776 706.426 C 332.744 709.588, 321.809 718.902, 316.971 729.259 C 306.292 752.118, 315.442 778.092, 337.965 788.858 C 344.463 791.964, 346.614 792.478, 354.571 792.826 C 371.751 793.578, 385.116 786.845, 394.035 772.945 C 408.874 749.822, 399.019 717.537, 374.174 707.882 C 367.098 705.132, 350.984 704.360, 343.776 706.426 M 419.187 759.412 C 417.495 767.823, 414.280 775.214, 408.482 784.028 C 405.458 788.624, 403.325 792.716, 403.742 793.122 C 405.203 794.546, 432.217 802.948, 443.303 805.427 C 470.499 811.508, 491.417 813.443, 522.317 812.735 C 541.064 812.305, 548.370 811.704, 560.500 809.595 C 579.621 806.269, 596.682 802.095, 610 797.483 C 615.775 795.483, 621.264 793.610, 622.199 793.320 C 623.612 792.882, 623.086 791.735, 619.065 786.488 C 613.161 778.786, 609.417 771.067, 607.286 762.204 C 606.399 758.517, 605.568 755.358, 605.438 755.184 C 605.308 755.010, 600.094 756.459, 593.851 758.402 C 578.740 763.107, 568.332 765.508, 551.500 768.170 C 531.236 771.376, 496.935 771.370, 475.080 768.157 C 458.954 765.787, 438.164 760.868, 426.855 756.746 L 420.211 754.325 419.187 759.412" stroke="none" fill="currentColor" fill-rule="evenodd"/>
	<path fill-opacity="0.437" d="M 492 222.988 C 478.031 224.119, 465.655 225.775, 453.500 228.139 C 442.208 230.336, 415.652 237.355, 409.847 239.678 L 406.014 241.211 407.879 243.856 C 413.149 251.330, 417.648 262.484, 419.433 272.500 C 420.309 277.420, 421.099 279.456, 422.090 279.352 C 422.865 279.271, 429.125 277.556, 436 275.540 C 462.768 267.694, 484.001 264.718, 513.500 264.678 C 543.244 264.637, 566.082 268.064, 593.118 276.625 C 605.438 280.526, 605.945 280.423, 605.998 274 C 606.038 269.135, 611.061 255.184, 615.388 247.921 C 617.374 244.585, 619 241.499, 619 241.061 C 619 239.319, 589.614 231.039, 571 227.535 C 548.668 223.331, 513.067 221.282, 492 222.988 M 344.500 238.348 C 329.827 243.199, 318.429 254.615, 314.455 268.440 C 311.793 277.700, 312.792 290.822, 316.814 299.415 C 322.944 312.517, 335.895 321.934, 350.996 324.271 C 368.352 326.958, 386.864 317.788, 395.217 302.367 C 407.523 279.648, 399.088 252.566, 376.182 241.245 C 369.220 237.804, 367.959 237.520, 358.591 237.282 C 352.231 237.120, 347.021 237.514, 344.500 238.348 M 656.618 238.112 C 640.670 241.856, 627.501 257.088, 624.729 274.996 C 621.385 296.602, 635.722 317.786, 657.535 323.467 C 677.791 328.743, 698.332 319.247, 707.711 300.270 C 711.087 293.439, 711.477 291.804, 711.831 282.999 C 712.311 271.038, 710.684 264.749, 704.844 256.004 C 696.680 243.778, 683.328 236.901, 668.145 237.100 C 663.940 237.156, 658.753 237.611, 656.618 238.112 M 288.434 315.057 C 265.448 341.014, 247.220 369.580, 234.159 400.116 C 230.067 409.682, 220 437.028, 220 438.575 C 220 438.809, 229.831 439, 241.847 439 L 263.695 439 267.914 427.992 C 279.114 398.771, 295.401 371.480, 317.073 345.617 L 325.355 335.734 322.428 333.645 C 316.153 329.168, 307.659 320.250, 303.271 313.534 C 300.744 309.665, 298.382 306.155, 298.022 305.734 C 297.663 305.313, 293.348 309.508, 288.434 315.057 M 724.912 309.750 C 719.195 319.276, 708.888 330.054, 700.143 335.653 C 699.946 335.778, 702.880 339.396, 706.662 343.691 C 721.465 360.501, 734.974 379.981, 744.493 398.240 C 750.399 409.567, 758.921 429.762, 760.533 436.250 L 761.217 439 783.108 439 C 795.149 439, 805 438.641, 805 438.203 C 805 436.869, 797.438 414.984, 794.218 407 C 783.445 380.285, 767.903 353.486, 749.274 329.500 C 741.541 319.544, 729.273 306, 727.988 306 C 727.534 306, 726.150 307.688, 724.912 309.750 M 396.500 328.200 C 392.650 330.924, 385.759 335.195, 381.187 337.692 C 375.999 340.525, 373.058 342.710, 373.364 343.505 C 374.183 345.641, 404.074 391.380, 405.845 393.208 C 407.399 394.812, 408.399 394.301, 422.218 384.833 C 435.111 375.999, 436.812 374.518, 435.940 372.888 C 435.393 371.865, 427.870 360.277, 419.222 347.138 L 403.500 323.247 396.500 328.200 M 605.959 347.593 C 597.061 361.007, 589.718 372.723, 589.640 373.628 C 589.550 374.688, 594.135 378.463, 602.500 384.218 C 609.650 389.137, 616.243 393.567, 617.152 394.064 C 618.528 394.815, 621.677 390.609, 635.949 368.962 C 645.378 354.661, 652.813 342.507, 652.472 341.955 C 652.131 341.402, 648.622 339.331, 644.676 337.351 C 640.729 335.372, 634.043 331.379, 629.818 328.478 L 622.137 323.204 605.959 347.593 M 491.863 377.072 C 461.641 381.511, 432.752 396.732, 411.073 419.639 C 386.210 445.911, 373.760 477.284, 373.906 513.300 C 374.058 550.795, 386.374 582.477, 410.759 608.101 C 432.395 630.837, 460.382 645.761, 490.290 650.512 C 503.037 652.537, 524.496 652.510, 536.827 650.454 C 571.336 644.699, 603.351 625.031, 624.866 596.369 C 660.352 549.094, 660.901 482.133, 626.199 433.614 C 619.034 423.596, 605.915 410.296, 595.443 402.433 C 579.718 390.627, 556.895 380.909, 537.074 377.582 C 526.955 375.884, 501.879 375.601, 491.863 377.072 M 221 590.498 C 221 593.680, 229.326 616.766, 235.649 631.115 C 249.017 661.454, 270.694 694.663, 291.757 717.071 L 297.692 723.386 301.233 717.851 C 307.153 708.595, 316.472 699.322, 325.857 693.346 C 326.054 693.221, 323.120 689.604, 319.338 685.309 C 298.057 661.141, 279.359 629.990, 268.132 600 L 264.201 589.500 242.600 589.230 C 223.721 588.995, 221 589.155, 221 590.498 M 757.138 600.750 C 750.729 618.050, 741.294 636.729, 731.252 652 C 722.345 665.544, 708.900 682.947, 703.102 688.437 C 701.396 690.052, 700.001 691.852, 700.002 692.437 C 700.003 693.022, 702.013 694.770, 704.470 696.322 C 710.250 699.973, 721.918 712.485, 725.051 718.390 C 726.396 720.926, 727.760 723, 728.083 723 C 729.241 723, 745.522 703.867, 753.926 692.629 C 768.506 673.132, 781.243 651.263, 791.502 628.111 C 796.173 617.568, 805 592.893, 805 590.377 C 805 589.250, 801.050 589, 783.245 589 L 761.491 589 757.138 600.750 M 389.569 659.469 C 380.370 673.477, 373.096 685.346, 373.404 685.844 C 373.712 686.343, 377.235 688.682, 381.232 691.042 C 385.229 693.402, 391.799 697.547, 395.831 700.252 C 399.864 702.957, 403.294 705.020, 403.454 704.835 C 404.888 703.185, 437 654.599, 437 654.079 C 437 653.413, 407.800 634, 406.797 634 C 406.521 634, 398.768 645.461, 389.569 659.469 M 603.250 643.596 C 595.413 648.781, 589 653.513, 589 654.111 C 589 655.027, 619.816 701.937, 621.970 704.299 C 622.370 704.739, 626.254 702.675, 630.599 699.713 C 634.945 696.752, 641.200 692.833, 644.500 691.006 C 653.656 685.935, 653.392 686.525, 649.367 680.153 C 634.972 657.367, 619.334 634.031, 618.500 634.093 C 617.950 634.134, 611.087 638.410, 603.250 643.596 M 344.892 706.449 C 329.640 710.656, 317.099 723.819, 313.918 738.960 C 313.287 741.962, 312.962 748.058, 313.196 752.505 C 314.385 775.169, 333.666 793, 356.984 793 C 389.813 793, 411.026 757.454, 395.896 727.796 C 390.847 717.898, 378.847 708.587, 367.885 706.060 C 361.978 704.698, 350.541 704.892, 344.892 706.449 M 654.762 706.879 C 643.127 710.726, 634.485 718.134, 629.032 728.937 C 616.406 753.948, 630.222 784.712, 657.185 791.628 C 664.851 793.594, 676.081 793.053, 683.732 790.349 C 713.455 779.845, 722.101 739.971, 699.546 717.416 C 691.240 709.110, 683.268 705.796, 670.500 705.340 C 662.647 705.059, 659.268 705.390, 654.762 706.879 M 418.815 762.003 C 416.775 770.461, 412.368 779.663, 406.892 786.898 C 403.757 791.041, 403.131 792.465, 404.162 793.110 C 406.555 794.605, 429.232 801.724, 440 804.360 C 470.628 811.856, 508.733 814.755, 540 811.968 C 554.520 810.674, 576.159 806.827, 590.867 802.926 C 602.043 799.961, 621.733 793.601, 622.687 792.647 C 622.954 792.379, 621.346 789.849, 619.114 787.025 C 613.701 780.177, 608.247 768.881, 606.788 761.500 C 606.136 758.200, 605.541 755.386, 605.465 755.247 C 605.390 755.108, 602.667 755.927, 599.414 757.065 C 588.420 760.915, 563.575 766.802, 550.500 768.656 C 532.748 771.174, 492.652 771.184, 476 768.675 C 460.373 766.321, 443.590 762.477, 431.123 758.396 C 425.415 756.528, 420.690 755.003, 420.623 755.007 C 420.555 755.011, 419.742 758.159, 418.815 762.003" stroke="none" fill="currentColor" fill-rule="evenodd"/>
	<path fill-opacity="0.492" d="M 482.500 224.128 C 463.401 225.948, 438.187 231.142, 417.500 237.518 C 406.115 241.026, 406.354 240.685, 410.469 247.518 C 414.982 255.014, 417.821 262.543, 419.733 272.092 L 421.253 279.684 431.623 276.393 C 444.571 272.284, 460.912 268.623, 476.500 266.338 C 495.078 263.616, 535.051 263.846, 552.811 266.777 C 568.695 269.399, 583.517 272.950, 595.538 277.013 C 600.381 278.650, 604.396 279.879, 604.460 279.745 C 604.523 279.610, 605.322 275.675, 606.236 271 C 607.416 264.960, 609.467 259.380, 613.324 251.719 C 619.568 239.315, 620.139 240.644, 606.847 236.617 C 586.985 230.599, 563.890 226.027, 543.144 224.008 C 531.002 222.826, 495.420 222.897, 482.500 224.128 M 345.024 238.603 C 318.764 245.660, 305.393 275.937, 317.726 300.417 C 320.756 306.431, 328.804 315.109, 334.386 318.381 C 351.863 328.622, 375.364 325.178, 389.009 310.374 C 410.954 286.566, 399.574 246.633, 368.540 238.552 C 361.197 236.640, 352.257 236.659, 345.024 238.603 M 657.500 238.411 C 637.988 243.254, 624.909 260.211, 624.894 280.687 C 624.888 289.356, 626.192 294.630, 630.224 302.237 C 638.261 317.400, 657.305 326.822, 674.503 324.144 C 697.966 320.491, 713.229 301.285, 711.737 277.290 C 710.067 250.436, 684.087 231.813, 657.500 238.411 M 290.024 313.750 C 267.795 337.867, 247.410 369.829, 233.738 402 C 228.736 413.770, 221 435.370, 221 437.566 C 221 438.749, 223.685 439, 236.353 439 C 244.798 439, 254.444 438.714, 257.789 438.364 L 263.872 437.728 268.570 425.614 C 280.057 395.995, 297.022 368.296, 319.346 342.716 C 322.602 338.985, 325.094 335.805, 324.883 335.649 C 312.624 326.566, 306.126 319.759, 301.130 310.764 C 299.684 308.160, 298.200 306.022, 297.833 306.014 C 297.467 306.006, 293.953 309.488, 290.024 313.750 M 724.318 311.250 C 720.245 318.039, 711.298 327.877, 704.973 332.520 L 699.987 336.180 706.114 342.840 C 728.555 367.236, 747.450 398.455, 758.565 429.500 L 761.787 438.500 783.393 438.684 C 795.277 438.785, 805 438.764, 805 438.637 C 805 437.379, 796.265 413.030, 792.701 404.351 C 779.324 371.783, 759.770 340.793, 735.218 313.250 C 731.663 309.262, 728.465 306, 728.111 306 C 727.757 306, 726.050 308.363, 724.318 311.250 M 395.123 329.393 C 391.066 332.297, 384.428 336.380, 380.373 338.466 C 376.318 340.553, 373 342.415, 373 342.603 C 373 343.233, 405.182 392.483, 406.350 393.639 C 407.213 394.494, 410.996 392.334, 421.500 384.989 C 429.626 379.307, 435.448 374.568, 435.377 373.694 C 435.232 371.927, 404.092 323.973, 403.143 324.057 C 402.790 324.088, 399.180 326.490, 395.123 329.393 M 605.500 348.541 C 596.700 361.964, 589.500 373.408, 589.500 373.971 C 589.500 374.535, 596.025 379.458, 604 384.913 L 618.500 394.829 634.820 370.165 C 643.796 356.599, 651.568 344.723, 652.092 343.774 C 652.899 342.312, 651.932 341.489, 645.772 338.400 C 641.773 336.394, 634.977 332.333, 630.670 329.376 C 626.364 326.419, 622.539 324.030, 622.170 324.068 C 621.802 324.105, 614.300 335.118, 605.500 348.541 M 491.599 377.577 C 440.095 385.585, 396.972 421.463, 381.115 469.500 C 376.374 483.862, 374.895 492.455, 374.316 509 C 373.689 526.917, 375.701 541.834, 380.878 557.646 C 392.012 591.647, 417.110 620.434, 450.456 637.450 C 480.406 652.732, 519.220 656.174, 552.463 646.495 C 596.032 633.810, 631.388 599.544, 644.842 556.964 C 649.806 541.254, 651.298 531.265, 651.261 514 C 651.211 491.037, 646.776 471.534, 637.276 452.500 C 625.641 429.187, 604.499 406.891, 581.500 393.680 C 555.722 378.872, 522.056 372.842, 491.599 377.577 M 221 590.017 C 221 592.291, 229.295 615.634, 234 626.599 C 244.053 650.028, 256.373 671.477, 271.623 692.101 C 280.928 704.685, 295.939 722.023, 297.467 721.952 C 298.035 721.926, 300.075 719.397, 302 716.332 C 305.938 710.063, 317.315 698.109, 321.947 695.372 C 323.626 694.380, 325 693.172, 325 692.688 C 325 692.203, 322.306 688.867, 319.014 685.274 C 299.222 663.675, 279.774 631.441, 268.469 601.500 C 266.392 596, 264.257 590.938, 263.724 590.250 C 262.484 588.650, 221 588.424, 221 590.017 M 760.901 591.750 C 760.324 593.263, 758.259 598.775, 756.311 604 C 747.292 628.195, 729.416 658.014, 710.372 680.629 C 703.830 688.398, 700.134 693.545, 700.912 693.804 C 704.750 695.083, 715.194 704.541, 720.569 711.605 C 723.961 716.063, 726.997 720.338, 727.315 721.105 C 727.713 722.065, 730.105 720.169, 734.993 715.019 C 761.914 686.652, 788.519 641.018, 801.444 601.037 C 803.400 594.987, 805 589.804, 805 589.518 C 805 589.233, 795.314 589, 783.475 589 L 761.950 589 760.901 591.750 M 390 659.198 C 380.925 673.030, 373.368 684.664, 373.208 685.051 C 373.047 685.438, 377.997 688.797, 384.208 692.516 C 390.418 696.234, 397.137 700.562, 399.138 702.133 L 402.776 704.990 414.189 688.245 C 433.720 659.589, 436.997 654.241, 435.684 653.169 C 434.174 651.937, 407.034 633.992, 406.729 634.024 C 406.603 634.037, 399.075 645.365, 390 659.198 M 604.082 643.521 C 596.153 648.735, 589.451 653.215, 589.190 653.476 C 588.670 653.996, 593.505 661.548, 611.062 687.637 L 622.625 704.819 630.562 699.353 C 634.928 696.348, 641.538 692.244, 645.250 690.234 C 648.962 688.224, 652 686.219, 652 685.779 C 652 684.488, 619.574 633.964, 618.782 634.020 C 618.627 634.031, 612.012 638.306, 604.082 643.521 M 346.103 706.547 C 334.945 708.967, 323.059 718.084, 317.915 728.167 C 306.733 750.085, 315.787 777.986, 337.357 788.080 C 355.541 796.589, 375.292 793.093, 388.280 779.065 C 394.900 771.914, 397.605 766.568, 399.631 756.632 C 403.486 737.733, 393.654 717.600, 376.692 709.660 C 366.714 704.989, 357.573 704.058, 346.103 706.547 M 657.251 706.545 C 642.634 710.481, 631.590 720.707, 626.974 734.579 C 625.153 740.050, 624.843 742.848, 625.169 750.843 C 625.506 759.117, 626.017 761.468, 628.733 767.259 C 641.358 794.176, 675.881 801.197, 697.968 781.339 C 709.424 771.039, 714.567 753.852, 710.924 738.042 C 705.602 714.951, 680.576 700.264, 657.251 706.545 M 420.546 756.349 C 420.372 756.982, 419.490 760.354, 418.585 763.842 C 416.583 771.561, 413.181 778.497, 407.390 786.667 L 403.018 792.833 417.259 797.384 C 434.584 802.921, 443.956 805.285, 459 807.913 C 510.055 816.832, 561.786 813.062, 610.182 796.895 C 624.249 792.195, 623.718 792.853, 618.567 786.529 C 616.141 783.551, 612.811 778.277, 611.167 774.807 C 608.448 769.073, 607.436 765.981, 605.576 757.728 C 605.058 755.431, 604.642 755.121, 603.151 755.919 C 600.417 757.382, 578.472 763.731, 570.038 765.498 C 538.288 772.151, 505.606 773.181, 473.500 768.538 C 460.951 766.723, 436.667 760.935, 427.232 757.510 C 422.871 755.928, 420.762 755.561, 420.546 756.349" stroke="none" fill="currentColor" fill-rule="evenodd"/>
	<path fill-opacity="0.142" d="M 504.789 223.741 C 508.248 223.937, 513.648 223.936, 516.789 223.738 C 519.930 223.540, 517.100 223.380, 510.500 223.382 C 503.900 223.384, 501.330 223.546, 504.789 223.741 M 487.250 224.716 C 488.762 224.945, 491.238 224.945, 492.750 224.716 C 494.262 224.487, 493.025 224.300, 490 224.300 C 486.975 224.300, 485.738 224.487, 487.250 224.716 M 537.250 224.689 C 538.212 224.941, 539.788 224.941, 540.750 224.689 C 541.712 224.438, 540.925 224.232, 539 224.232 C 537.075 224.232, 536.288 224.438, 537.250 224.689 M 477.762 225.707 C 479.006 225.946, 480.806 225.937, 481.762 225.687 C 482.718 225.437, 481.700 225.241, 479.500 225.252 C 477.300 225.263, 476.518 225.468, 477.762 225.707 M 545.750 225.706 C 546.987 225.944, 549.013 225.944, 550.250 225.706 C 551.487 225.467, 550.475 225.272, 548 225.272 C 545.525 225.272, 544.513 225.467, 545.750 225.706 M 554.762 226.707 C 556.006 226.946, 557.806 226.937, 558.762 226.687 C 559.718 226.437, 558.700 226.241, 556.500 226.252 C 554.300 226.263, 553.518 226.468, 554.762 226.707 M 440.170 231.675 C 436.689 232.499, 434.018 233.352, 434.236 233.569 C 434.811 234.144, 447.230 231.904, 449 230.906 C 451.329 229.594, 447.585 229.920, 440.170 231.675 M 579.550 230.864 C 580.789 231.991, 589.234 234.025, 592.193 233.910 C 593.462 233.860, 591.350 232.970, 587.500 231.933 C 579.560 229.792, 578.166 229.605, 579.550 230.864 M 414.500 239 C 411.750 240.015, 410.063 240.880, 410.750 240.922 C 411.438 240.965, 412.007 241.787, 412.015 242.750 C 412.025 243.850, 412.303 244.083, 412.765 243.377 C 413.169 242.759, 415.250 241.072, 417.390 239.627 C 421.906 236.576, 421.378 236.462, 414.500 239 M 606.847 238.867 C 609.452 241.127, 609.623 242.162, 607.250 241.306 C 606.078 240.884, 606.353 241.488, 608.084 243.136 C 609.934 244.898, 610.466 246.150, 609.957 247.548 C 609.567 248.622, 609.754 250.149, 610.374 250.942 C 610.993 251.735, 611.050 252.117, 610.500 251.791 C 609.917 251.446, 609.468 252.632, 609.424 254.633 C 609.352 257.855, 609.576 257.632, 613.044 251.043 C 615.077 247.179, 617.265 243.385, 617.906 242.613 C 618.866 241.456, 617.971 240.836, 612.842 239.104 C 605.179 236.516, 604.086 236.473, 606.847 238.867 M 342.617 239.987 C 339.381 241.020, 336.231 242.369, 335.617 242.985 C 335.003 243.601, 336.221 243.386, 338.323 242.508 C 340.426 241.630, 343.035 241.194, 344.121 241.539 C 345.207 241.883, 346.721 241.647, 347.484 241.013 C 348.247 240.380, 350.138 239.481, 351.686 239.017 L 354.500 238.172 351.500 238.140 C 349.850 238.122, 345.853 238.953, 342.617 239.987 M 673.500 238.839 C 676.205 240.014, 684.926 241.108, 683 240.030 C 682.175 239.568, 679.250 238.915, 676.500 238.580 C 673.309 238.190, 672.223 238.284, 673.500 238.839 M 373.601 241.843 C 376.121 244.190, 379.452 246.007, 381.184 245.978 C 383.024 245.947, 378.122 242.281, 374.538 241.008 C 371.600 239.965, 371.592 239.972, 373.601 241.843 M 647.652 242.615 C 644.986 244.003, 643.030 245.363, 643.305 245.639 C 643.776 246.109, 649.687 243.314, 653 241.054 C 655.834 239.121, 652.496 240.095, 647.652 242.615 M 691.304 245.371 C 693.363 247.430, 694.855 249.426, 694.619 249.807 C 694.384 250.188, 695.512 250.500, 697.127 250.500 L 700.063 250.500 696.782 247.820 C 694.977 246.345, 692.164 244.349, 690.530 243.383 C 687.774 241.754, 687.830 241.896, 691.304 245.371 M 408.834 244.293 C 409.568 245.181, 411.657 248.695, 413.478 252.102 L 416.788 258.297 416.470 253.593 C 416.148 248.815, 414.496 245.576, 412.887 246.570 C 412.399 246.871, 412 246.750, 412 246.300 C 412 245.849, 410.988 244.851, 409.750 244.080 C 407.711 242.810, 407.625 242.830, 408.834 244.293 M 327.162 249.606 C 322.794 253.931, 322.363 254.584, 325.277 252.467 C 327.355 250.957, 329.338 250.005, 329.685 250.352 C 330.593 251.259, 333.090 248.954, 332.403 247.843 C 332.087 247.331, 332.372 246.257, 333.036 245.456 C 335.973 241.918, 332.323 244.496, 327.162 249.606 M 391.978 257.443 C 392.513 258.849, 392.682 260, 392.353 260 C 392.024 260, 392.373 260.761, 393.128 261.692 C 394.204 263.019, 394.215 263.212, 393.176 262.587 C 392.100 261.940, 392.081 262.157, 393.074 263.747 C 394.614 266.213, 398 268.432, 398 266.975 C 398 265.439, 393.204 256.244, 392.022 255.514 C 391.340 255.092, 391.325 255.726, 391.978 257.443 M 630.611 259.250 C 628.070 263.615, 625.684 271.376, 628.012 267.705 C 629.671 265.087, 634.052 255, 633.530 255 C 633.285 255, 631.971 256.913, 630.611 259.250 M 317.023 263.250 C 315.997 265.587, 314.897 269.300, 314.578 271.500 C 313.909 276.104, 314.422 275.127, 317.596 265.750 C 320.164 258.165, 319.851 256.803, 317.023 263.250 M 706.415 261.500 C 706.676 263.371, 707.951 266.811, 710.121 271.500 C 710.836 273.046, 710.910 272.818, 710.446 270.500 C 709.730 266.919, 706.014 258.621, 706.415 261.500 M 480.444 263.890 C 480.171 264.162, 478.948 264.526, 477.724 264.698 C 476.501 264.870, 474.262 265.194, 472.750 265.418 C 471.238 265.642, 470 265.472, 470 265.039 C 470 264.607, 468.477 264.984, 466.616 265.876 C 464.755 266.769, 463.292 267.574, 463.366 267.665 C 463.440 267.756, 469.125 267.045, 476 266.086 C 485.383 264.776, 487.557 264.223, 484.719 263.868 C 482.640 263.608, 480.716 263.617, 480.444 263.890 M 527.750 263.723 C 529.538 263.945, 532.462 263.945, 534.250 263.723 C 536.038 263.502, 534.575 263.320, 531 263.320 C 527.425 263.320, 525.962 263.502, 527.750 263.723 M 538.879 264.279 C 539.362 264.762, 541.049 264.995, 542.628 264.798 C 545.272 264.468, 545.202 264.399, 541.751 263.921 C 539.601 263.623, 538.376 263.776, 538.879 264.279 M 605.500 267 C 605.120 268.729, 605.018 270.351, 605.273 270.606 C 605.528 270.861, 606.024 269.632, 606.375 267.875 C 607.209 263.707, 606.401 262.899, 605.500 267 M 554.950 266.575 C 559.047 267.322, 562.566 267.767, 562.769 267.564 C 563.356 266.977, 553.180 264.989, 550.201 265.108 C 548.715 265.168, 550.852 265.828, 554.950 266.575 M 441.856 271.477 C 441.593 271.740, 440.506 272.129, 439.439 272.342 C 436.643 272.901, 430.840 275.173, 431.225 275.558 C 431.405 275.738, 435.141 274.817, 439.526 273.511 C 443.922 272.202, 446.341 271.105, 444.917 271.068 C 443.496 271.031, 442.119 271.215, 441.856 271.477 M 586.423 273.488 C 594.370 275.995, 597.988 276.325, 591.801 273.980 C 587.003 272.160, 585.884 271.866, 582 271.405 C 580.075 271.176, 582.065 272.114, 586.423 273.488 M 625.125 282.625 C 624.952 286.951, 626.061 292, 627.184 292 C 627.698 292, 627.812 291.504, 627.437 290.899 C 627.063 290.293, 626.418 287.481, 626.003 284.649 C 625.485 281.107, 625.211 280.475, 625.125 282.625 M 399 283.833 C 399 286.589, 399.028 286.415, 398.005 289.982 C 397.529 291.642, 397.516 293, 397.976 293 C 398.974 293, 400.470 283.136, 399.603 282.269 C 399.271 281.938, 399 282.642, 399 283.833 M 316.035 295.290 C 315.988 296.356, 319.918 304, 320.514 304 C 320.774 304, 320.799 302.988, 320.568 301.750 C 320.337 300.512, 320.115 299.087, 320.074 298.583 C 320.033 298.079, 319.686 297.981, 319.302 298.365 C 318.918 298.749, 318.034 298.036, 317.337 296.781 C 316.641 295.527, 316.055 294.855, 316.035 295.290 M 707.162 297.543 C 705.487 301.220, 705.807 302.005, 707.618 298.662 C 708.464 297.100, 708.969 295.636, 708.741 295.407 C 708.512 295.179, 707.802 296.140, 707.162 297.543 M 386.750 310.598 C 381.527 315.629, 380.412 317.467, 384.777 313.853 C 387.411 311.671, 392.522 305.987, 391.826 306.012 C 391.647 306.018, 389.363 308.082, 386.750 310.598 M 637 310.381 C 640.562 314.242, 647.541 319.724, 645.259 316.869 C 644.576 316.015, 644.238 315.020, 644.509 314.658 C 644.779 314.296, 644.708 314.217, 644.352 314.482 C 643.376 315.206, 639.951 310.888, 640.630 309.790 C 640.954 309.266, 640.339 308.986, 639.263 309.169 C 638.187 309.351, 636.451 308.844, 635.404 308.043 C 634.357 307.242, 635.075 308.294, 637 310.381 M 292.086 312.382 L 289.672 315.500 292.533 312.780 C 294.106 311.284, 295.193 309.881, 294.947 309.662 C 294.701 309.443, 293.414 310.667, 292.086 312.382 M 731 310.671 C 731 311.948, 734.838 315.495, 735.502 314.831 C 735.772 314.562, 734.869 313.286, 733.496 311.996 C 732.123 310.707, 731 310.110, 731 310.671 M 721.713 315.974 C 717.315 321.866, 716.921 323.258, 720.764 319.327 C 723.064 316.974, 726.600 311, 725.692 311 C 725.546 311, 723.756 313.238, 721.713 315.974 M 696.009 313.489 C 695.329 314.308, 694.374 314.731, 693.887 314.430 C 693.399 314.129, 693 314.304, 693 314.820 C 693 315.335, 691.650 316.317, 690 317 C 688.350 317.683, 687 318.667, 687 319.185 C 687 320.379, 694.504 316.205, 696.679 313.803 C 697.576 312.811, 698.070 312, 697.777 312 C 697.485 312, 696.689 312.670, 696.009 313.489 M 301.032 314.250 C 301.014 315.212, 301.525 316, 302.167 316 C 302.808 316, 303.088 316.245, 302.788 316.545 C 302.488 316.845, 304.888 319.613, 308.122 322.697 C 311.355 325.781, 314 328.856, 314 329.530 C 314 331.102, 316.677 333.328, 318.992 333.681 C 320.026 333.839, 317.505 330.672, 313.060 326.228 C 308.808 321.977, 304.370 317.150, 303.197 315.500 C 301.621 313.284, 301.055 312.957, 301.032 314.250 M 330 314.462 C 330 315.018, 337.628 320, 338.480 320 C 338.766 320, 339 319.523, 339 318.941 C 339 318.359, 338.581 318.141, 338.069 318.457 C 337.557 318.774, 336.854 318.572, 336.506 318.009 C 335.781 316.837, 330 313.685, 330 314.462 M 357.500 323 L 353.500 323.716 358 323.740 C 360.475 323.753, 363.850 323.420, 365.500 323 L 368.500 322.237 365 322.260 C 363.075 322.273, 359.700 322.606, 357.500 323 M 660.900 323.304 C 661.345 323.747, 664.362 323.966, 667.604 323.792 L 673.500 323.475 666.796 322.987 C 663.108 322.719, 660.455 322.862, 660.900 323.304 M 619.796 327.758 C 618.444 329.816, 616.475 332.839, 615.419 334.476 L 613.500 337.452 616.147 335.476 C 617.603 334.389, 618.587 333.159, 618.334 332.743 C 618.080 332.327, 618.689 331.731, 619.687 331.420 C 620.684 331.109, 622.325 330.410, 623.333 329.867 C 624.658 329.153, 625.837 329.318, 627.583 330.463 C 628.912 331.334, 630 331.795, 630 331.488 C 630 331.181, 631.013 331.451, 632.250 332.087 C 635.259 333.635, 633.593 332.129, 627.377 327.682 L 622.255 324.017 619.796 327.758 M 621.113 327.651 C 620.089 329.899, 620.146 330.158, 621.549 329.620 C 622.437 329.279, 623.352 329, 623.582 329 C 623.812 329, 624 328.352, 624 327.559 C 624 324.957, 622.316 325.011, 621.113 327.651 M 396.601 329.068 C 394.457 330.681, 393.359 332, 394.160 332 C 395.768 332, 397.893 330.433, 399.922 327.750 C 401.687 325.415, 401.206 325.606, 396.601 329.068 M 707.306 331.592 L 704.500 334.183 707.750 332.024 C 710.727 330.045, 711.697 329, 710.556 329 C 710.311 329, 708.849 330.166, 707.306 331.592 M 405.770 330.563 C 405.016 331.317, 411.954 340.886, 413.307 340.957 C 414.229 341.006, 411.532 336.201, 408.513 332.414 C 407.392 331.008, 406.158 330.175, 405.770 330.563 M 707.025 342.750 C 710.471 346.738, 713.520 350, 713.801 350 C 714.081 350, 713.564 349.176, 712.653 348.169 C 711.741 347.162, 711.297 346.037, 711.664 345.669 C 712.032 345.301, 711.833 345, 711.222 345 C 710.610 345, 708.006 342.863, 705.435 340.250 C 702.285 337.051, 702.804 337.867, 707.025 342.750 M 269.149 340.012 C 267.934 341.656, 267.352 343, 267.855 343 C 268.896 343, 272.371 338.038, 271.759 337.426 C 271.538 337.205, 270.364 338.369, 269.149 340.012 M 642 337.463 C 642 337.736, 643.913 338.929, 646.250 340.114 C 648.587 341.299, 650.831 342.771, 651.235 343.384 C 651.754 344.173, 651.974 344.138, 651.985 343.267 C 651.993 342.589, 649.750 340.894, 647 339.500 C 644.250 338.106, 642 337.190, 642 337.463 M 755.454 340.750 C 757.398 344.301, 759.537 347, 760.408 347 C 760.787 347, 759.703 344.975, 758 342.500 C 754.552 337.489, 753.136 336.516, 755.454 340.750 M 315.545 343.545 C 314.145 344.945, 313 346.708, 313 347.462 C 313 348.216, 312.438 349.034, 311.750 349.280 C 311.063 349.525, 310.742 349.992, 311.038 350.318 C 311.334 350.643, 313.496 348.679, 315.843 345.954 C 320.258 340.830, 320.038 339.053, 315.545 343.545 M 645 351.165 C 643.625 352.320, 642.636 353.726, 642.803 354.291 C 642.969 354.855, 642.735 355.583, 642.282 355.908 C 641.383 356.555, 638.815 362, 639.410 362 C 639.612 362, 641.611 359.075, 643.852 355.500 C 646.094 351.925, 647.831 349.015, 647.714 349.033 C 647.596 349.052, 646.375 350.011, 645 351.165 M 600.603 357.250 C 597.684 361.761, 596.987 363.282, 598.758 361.276 C 601.529 358.135, 606.545 350, 605.711 350 C 605.481 350, 603.183 353.262, 600.603 357.250 M 384.095 359.250 C 386.366 362.962, 388.308 366, 388.411 366 C 388.514 366, 388.416 364.441, 388.194 362.535 C 387.971 360.629, 387.415 359.167, 386.958 359.285 C 386.501 359.403, 384.740 357.925, 383.046 356 C 380.332 352.915, 380.456 353.301, 384.095 359.250 M 423 357.390 C 423 357.604, 424.607 359.516, 426.571 361.640 L 430.142 365.500 427.438 361.250 C 425.181 357.702, 423 355.805, 423 357.390 M 296.336 369.803 C 292.634 375.407, 291.741 377, 292.299 377 C 292.953 377, 300.188 365.855, 299.792 365.459 C 299.598 365.265, 298.043 367.219, 296.336 369.803 M 729.603 371.750 C 732.183 375.738, 734.462 379, 734.667 379 C 735.579 379, 730.856 371.170, 728.031 368 C 725.659 365.338, 726.035 366.236, 729.603 371.750 M 776.433 373.500 C 778.474 377.350, 780.631 380.950, 781.228 381.500 C 782.542 382.712, 775.153 368.919, 773.728 367.500 C 773.175 366.950, 774.393 369.650, 776.433 373.500 M 248.725 372.250 C 247.370 374.587, 245.505 378.075, 244.582 380 C 241.741 385.924, 245.638 380.527, 249.095 373.750 C 252.522 367.033, 252.292 366.100, 248.725 372.250 M 590.015 373.679 C 590.007 374.328, 592.025 376.225, 594.500 377.895 C 598.089 380.318, 599 380.602, 599 379.299 C 599 378.401, 598.713 377.953, 598.363 378.304 C 597.711 378.956, 592.089 375.437, 590.765 373.548 C 590.275 372.848, 590.026 372.892, 590.015 373.679 M 627.313 378.533 C 626.110 379.906, 624.855 381.882, 624.524 382.924 C 624.193 383.967, 623.265 385.365, 622.461 386.032 C 621.658 386.699, 621 387.751, 621 388.369 C 621 389.433, 627.059 381.502, 629.113 377.750 C 630.425 375.353, 629.898 375.581, 627.313 378.533 M 490.892 378.068 C 487.808 378.522, 482.858 379.551, 479.892 380.355 C 474.796 381.738, 474.692 381.828, 478 381.992 C 479.925 382.088, 482.625 382.317, 484 382.500 C 487.052 382.907, 490.195 382.125, 489.571 381.115 C 489.319 380.707, 490.678 380.496, 492.591 380.647 C 494.504 380.798, 495.816 380.512, 495.507 380.011 C 495.198 379.511, 496.644 378.816, 498.722 378.469 C 500.800 378.121, 502.950 377.684, 503.500 377.497 C 505.423 376.845, 496.450 377.251, 490.892 378.068 M 523.250 377.716 C 524.763 377.945, 527.237 377.945, 528.750 377.716 C 530.263 377.487, 529.025 377.300, 526 377.300 C 522.975 377.300, 521.737 377.487, 523.250 377.716 M 533.250 378.689 C 534.212 378.941, 535.788 378.941, 536.750 378.689 C 537.712 378.438, 536.925 378.232, 535 378.232 C 533.075 378.232, 532.288 378.438, 533.250 378.689 M 399.632 383.020 C 401.095 385.232, 402.470 386.863, 402.687 386.646 C 403.311 386.022, 398.904 379, 397.887 379 C 397.384 379, 398.169 380.809, 399.632 383.020 M 424.189 381.039 C 421.045 383.967, 421.493 384.497, 425 382 C 426.650 380.825, 428 379.669, 428 379.432 C 428 378.401, 426.211 379.155, 424.189 381.039 M 564.053 387.314 C 569.409 391.069, 582.665 396.668, 583.714 395.619 C 584.198 395.135, 566.428 386.469, 563 385.517 C 560.930 384.942, 561.111 385.251, 564.053 387.314 M 453.500 389.412 C 446.891 392.449, 435.812 399.352, 439 398.447 C 440.375 398.057, 442.850 396.786, 444.500 395.623 C 446.150 394.459, 447.725 393.587, 448 393.684 C 448.629 393.906, 459 388.006, 459 387.427 C 459 386.863, 459.224 386.783, 453.500 389.412 M 278.813 399.250 C 276.629 403.158, 273.952 409.285, 274.283 409.617 C 274.459 409.792, 276.038 407.025, 277.792 403.468 C 280.808 397.351, 281.522 394.403, 278.813 399.250 M 747.705 402.472 C 749.182 405.482, 750.557 407.776, 750.762 407.571 C 751.211 407.122, 746.167 397, 745.494 397 C 745.234 397, 746.229 399.462, 747.705 402.472 M 789.479 399.750 C 789.860 400.712, 791.077 403.894, 792.184 406.819 C 793.290 409.744, 794.396 411.937, 794.642 411.691 C 795.169 411.164, 790.020 398, 789.287 398 C 789.011 398, 789.098 398.788, 789.479 399.750 M 232.025 407.232 C 227.994 417.421, 227.440 419.242, 229.385 415.908 C 231.296 412.635, 236.149 399.815, 235.662 399.328 C 235.461 399.128, 233.825 402.684, 232.025 407.232 M 596.802 405.175 C 598.069 406.586, 599.175 408.668, 599.260 409.801 C 599.345 410.934, 599.772 411.641, 600.208 411.372 C 600.643 411.102, 601 411.610, 601 412.500 C 601 413.390, 601.470 413.828, 602.044 413.473 C 603.328 412.679, 606.185 414.892, 605.437 416.102 C 605.140 416.583, 605.594 416.709, 606.448 416.382 C 607.302 416.054, 608 416.201, 608 416.708 C 608 417.215, 609.688 418.391, 611.750 419.323 C 615.237 420.897, 615.043 420.589, 609 414.939 C 600.890 407.356, 593.324 401.300, 596.802 405.175 M 414.477 417.107 C 410.089 421.566, 407.512 424.608, 408.750 423.866 C 409.988 423.125, 411 422.177, 411 421.759 C 411 421.342, 411.730 421, 412.622 421 C 414.012 421, 414.052 421.251, 412.903 422.750 C 412.165 423.712, 412.798 423.397, 414.310 422.048 C 415.822 420.699, 416.837 419.019, 416.567 418.313 C 416.010 416.862, 419.353 414.686, 420.452 415.785 C 420.845 416.178, 421.017 415.825, 420.833 415 C 420.650 414.175, 420.967 413.581, 421.538 413.679 C 422.109 413.778, 422.666 412.765, 422.777 411.429 C 422.887 410.093, 422.860 409, 422.715 409 C 422.571 409, 418.864 412.648, 414.477 417.107 M 758.006 425.397 C 758.003 425.891, 758.960 428.928, 760.134 432.147 L 762.268 438 770.384 437.799 L 778.500 437.598 770.814 437.258 L 763.128 436.918 761.955 433.362 C 760.613 429.296, 758.015 424.057, 758.006 425.397 M 800.078 427.128 C 800.035 428.023, 800.675 430.371, 801.500 432.346 C 802.325 434.320, 803 436.123, 803 436.352 C 803 436.580, 797.747 436.823, 791.327 436.890 C 784.907 436.957, 779.432 437.235, 779.160 437.506 C 778.889 437.778, 784.367 438, 791.333 438 C 800.841 438, 803.981 437.688, 803.922 436.750 C 803.784 434.524, 800.158 425.447, 800.078 427.128 M 264.028 432.426 C 263.463 433.913, 263 435.529, 263 436.017 C 263 436.505, 260.188 437.064, 256.750 437.260 L 250.500 437.615 257.082 437.807 L 263.664 438 264.800 434.301 C 266.132 429.959, 265.526 428.487, 264.028 432.426 M 222.261 434.500 L 221.187 438 228.844 437.840 C 233.055 437.752, 234.925 437.523, 233 437.330 C 223.751 436.406, 222.944 436.073, 223.601 433.453 C 224.542 429.704, 223.478 430.535, 222.261 434.500 M 626.999 438.317 C 628.484 442.490, 630.006 445.094, 632.585 447.875 C 633.854 449.244, 634.695 450.685, 634.452 451.077 C 634.210 451.470, 634.713 452.059, 635.570 452.388 C 637.347 453.071, 632.006 442.725, 628.248 438.207 L 625.995 435.500 626.999 438.317 M 390.830 448.279 C 387.705 453.737, 384.856 460.403, 386.248 459 C 387.348 457.891, 395.119 442.785, 394.769 442.435 C 394.562 442.228, 392.789 444.858, 390.830 448.279 M 645.024 476.083 C 645.038 476.863, 645.453 479.300, 645.948 481.500 C 646.442 483.700, 647.100 487.075, 647.410 489 C 647.720 490.925, 648.390 493.850, 648.901 495.500 C 650.566 500.885, 650.079 495.009, 648.042 485.139 C 646.263 476.519, 644.965 472.622, 645.024 476.083 M 376.051 492.089 C 375.322 496.813, 374.977 501.313, 375.284 502.089 C 375.591 502.865, 375.878 502.060, 375.921 500.299 C 375.964 498.539, 376.485 494.837, 377.078 492.073 C 377.671 489.308, 377.980 486.249, 377.766 485.273 C 377.552 484.298, 376.780 487.365, 376.051 492.089 M 374.300 515 C 374.300 518.025, 374.487 519.263, 374.716 517.750 C 374.945 516.237, 374.945 513.763, 374.716 512.250 C 374.487 510.738, 374.300 511.975, 374.300 515 M 647.678 538.344 C 646.675 544.309, 646.054 549.387, 646.297 549.630 C 647.014 550.348, 650.214 532.554, 649.842 529.918 C 649.654 528.588, 648.680 532.380, 647.678 538.344 M 379 549.448 C 379 551.208, 384.372 566.264, 384.684 565.380 C 384.902 564.764, 384.359 562.289, 383.479 559.880 C 382.598 557.471, 381.434 554.038, 380.892 552.250 C 380.054 549.488, 379 547.927, 379 549.448 M 636.314 574.750 C 635.972 575.712, 635.503 576.950, 635.272 577.500 C 635.041 578.050, 635.560 577.626, 636.426 576.559 C 637.998 574.620, 638.473 573, 637.469 573 C 637.176 573, 636.657 573.788, 636.314 574.750 M 630.978 583.696 C 627.882 588.578, 626.909 591.993, 629.610 588.500 C 631.663 585.845, 635.185 579, 634.498 579 C 634.200 579, 632.616 581.113, 630.978 583.696 M 397.604 590.724 C 398.592 592.497, 401.128 595.872, 403.240 598.224 C 405.351 600.576, 406.503 601.487, 405.799 600.250 C 405.095 599.013, 404.177 598, 403.759 598 C 403.342 598, 402.983 597.438, 402.962 596.750 C 402.942 596.063, 401.323 593.700, 399.366 591.500 C 396.026 587.746, 395.918 587.698, 397.604 590.724 M 222.076 591.750 C 222.118 592.712, 222.799 595.075, 223.589 597 L 225.026 600.500 224.528 597.200 C 224.246 595.331, 224.427 594.146, 224.946 594.467 C 225.450 594.778, 226.144 594.575, 226.490 594.016 C 226.835 593.457, 226.566 593, 225.892 593 C 225.218 593, 224.901 592.765, 225.188 592.478 C 225.475 592.191, 229.038 591.688, 233.105 591.361 C 237.172 591.033, 240.688 590.593, 240.917 590.382 C 241.146 590.172, 236.983 590, 231.667 590 C 223.098 590, 222.009 590.199, 222.076 591.750 M 244.083 590.374 C 244.313 590.580, 247.618 591.042, 251.429 591.400 C 255.240 591.759, 258.881 592.487, 259.521 593.017 C 260.161 593.548, 260.980 593.687, 261.342 593.325 C 261.704 592.963, 262 593.126, 262 593.687 C 262 594.249, 263.125 595.922, 264.500 597.405 C 267.455 600.594, 267.439 600.644, 265.406 594.678 L 263.812 590 253.739 590 C 248.199 590, 243.854 590.168, 244.083 590.374 M 761.109 592.250 C 759.385 596.857, 759.036 599.465, 760.607 596 C 762.686 591.414, 762.347 591.638, 768.311 590.913 L 773.500 590.282 767.725 590.141 C 762.588 590.016, 761.858 590.248, 761.109 592.250 M 795.500 590.674 C 802.339 591.528, 803.114 591.918, 802.022 593.959 C 801.460 595.009, 801.034 596.686, 801.076 597.684 C 801.119 598.719, 801.732 597.994, 802.500 596 C 804.730 590.210, 804.566 589.985, 798.250 590.150 C 795.087 590.232, 793.850 590.468, 795.500 590.674 M 612.652 608.439 C 611.310 609.781, 609.939 610.606, 609.606 610.273 C 609.273 609.939, 609 610.403, 609 611.302 C 609 612.350, 608.457 612.729, 607.489 612.357 C 606.350 611.920, 606.149 612.236, 606.676 613.639 C 607.314 615.339, 607.212 615.371, 605.495 614 C 604.209 612.973, 603.867 612.918, 604.413 613.824 C 604.914 614.656, 604.335 616.121, 602.855 617.769 C 600.775 620.083, 600.968 620.026, 604.500 617.280 C 608.994 613.785, 616.758 606, 615.748 606 C 615.387 606, 613.993 607.098, 612.652 608.439 M 272.493 616 C 272.892 617.925, 273.282 619.950, 273.360 620.500 C 273.437 621.050, 274.279 622.221, 275.232 623.102 C 276.184 623.982, 276.744 624.923, 276.476 625.191 C 276.207 625.459, 276.901 626.505, 278.017 627.516 C 279.626 628.971, 279.298 627.708, 276.437 621.426 C 272.241 612.213, 271.494 611.185, 272.493 616 M 230.590 617 C 231.506 620.475, 233.920 624.827, 233.918 623 C 233.917 622.175, 233.020 619.925, 231.924 618 C 230.426 615.369, 230.095 615.121, 230.590 617 M 426.190 621.183 C 428.769 623.558, 432.369 626.317, 434.190 627.315 L 437.500 629.130 434.038 626.065 C 432.134 624.379, 430.221 623, 429.788 623 C 429.354 623, 428.993 622.212, 428.985 621.250 C 428.972 619.754, 428.828 619.718, 428 621 C 427.467 621.825, 427.010 622.050, 426.984 621.500 C 426.958 620.950, 425.714 619.683, 424.219 618.683 C 422.723 617.684, 423.610 618.809, 426.190 621.183 M 748.264 623.870 C 746.531 627.791, 745.307 631, 745.543 631 C 746.374 631, 752.107 618.821, 751.762 617.787 C 751.570 617.211, 749.996 619.948, 748.264 623.870 M 572.651 636.689 C 567.784 639.135, 564.032 641.365, 564.312 641.646 C 564.740 642.073, 582.650 633.630, 583.917 632.403 C 585.472 630.897, 580.144 632.924, 572.651 636.689 M 403.272 639.817 C 402.065 641.843, 400.116 645.075, 398.940 647 L 396.803 650.500 398.984 648.037 C 401.626 645.055, 406.395 637.062, 405.855 636.522 C 405.642 636.309, 404.480 637.791, 403.272 639.817 M 411.394 639.172 C 410.962 639.870, 411.137 640.034, 411.845 639.595 C 412.521 639.178, 413 639.501, 413 640.374 C 413 641.711, 415.258 642.979, 418.750 643.600 C 420.734 643.954, 420.264 643.440, 416.048 640.651 C 413.331 638.853, 411.877 638.391, 411.394 639.172 M 459 640.811 C 460.727 641.902, 474.050 646.438, 478.500 647.450 C 481.325 648.092, 481.384 648.046, 479.511 646.655 C 478.417 645.842, 477.180 645.389, 476.761 645.648 C 476.342 645.906, 476 645.633, 476 645.039 C 476 644.435, 474.902 644.160, 473.500 644.414 C 472.125 644.664, 471 644.541, 471 644.141 C 471 643.506, 465.641 641.726, 459.500 640.320 C 457.925 639.960, 457.819 640.064, 459 640.811 M 245.052 649.103 C 247.293 653.560, 249.356 656.977, 249.637 656.696 C 249.918 656.416, 249.421 654.781, 248.533 653.064 C 247.645 651.346, 247.231 649.435, 247.614 648.816 C 247.998 648.195, 247.864 647.966, 247.316 648.305 C 246.770 648.642, 245.321 647.137, 244.097 644.959 C 240.213 638.048, 240.821 640.689, 245.052 649.103 M 623.755 644.500 C 624.018 645.875, 624.631 647, 625.117 647 C 625.602 647, 626 647.564, 626 648.253 C 626 648.943, 627.457 650.855, 629.237 652.503 L 632.474 655.500 630.568 652.500 C 626.754 646.497, 623.729 642, 623.506 642 C 623.380 642, 623.492 643.125, 623.755 644.500 M 289 646.327 C 289 647.845, 292.296 653.515, 293.635 654.300 C 294.386 654.740, 295 655.682, 295 656.395 C 295 657.107, 295.971 658.547, 297.157 659.595 C 298.594 660.864, 298.049 659.496, 295.524 655.500 C 290.379 647.357, 289 645.418, 289 646.327 M 778.421 650.545 C 776.956 653.045, 776.006 655.340, 776.311 655.645 C 776.616 655.949, 778.028 653.904, 779.450 651.099 C 782.655 644.773, 782.008 644.424, 778.421 650.545 M 594.750 650.130 C 589.870 653.321, 589.288 654.402, 591.046 657 C 591.805 658.123, 591.906 657.832, 591.446 655.844 C 590.975 653.814, 591.262 653.049, 592.665 652.596 C 594.472 652.013, 600.973 647.095, 600 647.048 C 599.725 647.034, 597.362 648.421, 594.750 650.130 M 532.490 648.852 C 531.909 649.419, 524.142 650.068, 515.252 650.292 C 510.715 650.406, 507.002 650.899, 507.002 651.386 C 507 652.531, 527.330 651.229, 536.500 649.497 L 543.500 648.176 538.176 648.338 C 535.248 648.427, 532.689 648.658, 532.490 648.852 M 730.579 654.579 C 728.531 657.664, 727.044 660.378, 727.276 660.609 C 727.507 660.841, 729.373 658.506, 731.421 655.421 C 733.469 652.336, 734.956 649.622, 734.724 649.391 C 734.493 649.159, 732.627 651.494, 730.579 654.579 M 498.264 650.718 C 499.784 650.947, 502.034 650.941, 503.264 650.704 C 504.494 650.467, 503.250 650.279, 500.500 650.286 C 497.750 650.294, 496.744 650.488, 498.264 650.718 M 432.833 652.291 C 433.607 653.229, 433.900 654.866, 433.531 656.202 C 432.916 658.430, 432.944 658.441, 434.448 656.559 C 436.466 654.034, 436.421 653.743, 433.750 652.080 C 431.711 650.810, 431.625 650.830, 432.833 652.291 M 427.619 665.433 C 426.178 667.322, 425 669.165, 425 669.529 C 425 669.893, 424.030 671.611, 422.844 673.346 C 421.659 675.081, 421.388 675.825, 422.243 675 C 423.971 673.332, 431.299 662, 430.649 662 C 430.423 662, 429.059 663.545, 427.619 665.433 M 385.802 666.750 C 384.447 668.813, 382.509 671.850, 381.495 673.500 L 379.652 676.500 381.702 674.500 C 383.788 672.465, 389.571 663, 388.728 663 C 388.474 663, 387.157 664.688, 385.802 666.750 M 640 668.943 C 640 670.616, 644.048 676.804, 645.509 677.365 C 646.333 677.681, 645.651 675.837, 643.877 672.954 C 640.841 668.020, 640 667.150, 640 668.943 M 602.631 674.500 C 606.439 680.235, 607.383 681.203, 606.289 678.250 C 605.216 675.355, 600.797 669, 599.857 669 C 599.374 669, 600.623 671.475, 602.631 674.500 M 713.500 677.702 C 708.649 683.689, 707.503 685.823, 711.460 681.500 C 714.760 677.895, 717.526 674, 716.785 674 C 716.628 674, 715.150 675.666, 713.500 677.702 M 266.055 683.581 C 268.869 687.751, 271.438 690.896, 271.764 690.569 C 272.091 690.243, 271.377 688.649, 270.179 687.028 C 268.981 685.407, 268 683.628, 268 683.075 C 268 682.017, 262.474 676, 261.503 676 C 261.193 676, 263.241 679.412, 266.055 683.581 M 758.455 683.765 C 757.299 684.578, 752.820 692, 753.486 692 C 753.716 692, 755.297 689.975, 757 687.500 C 760.139 682.938, 760.330 682.447, 758.455 683.765 M 373.638 684.777 C 373.374 685.204, 374.585 686.370, 376.329 687.368 L 379.500 689.181 377.076 686.591 C 374.383 683.713, 374.317 683.678, 373.638 684.777 M 317.032 685.547 C 317.049 686.071, 317.697 687.336, 318.471 688.358 C 319.562 689.798, 319.611 690.504, 318.689 691.503 C 318.035 692.211, 317.123 692.561, 316.663 692.282 C 316.202 692.003, 315.961 693.063, 316.126 694.638 C 316.291 696.213, 316.010 698.176, 315.501 699.001 C 314.768 700.188, 319.538 696.929, 324.249 693.024 C 324.660 692.682, 323.198 690.646, 320.999 688.499 C 318.799 686.351, 317.014 685.023, 317.032 685.547 M 642.861 690.056 C 641.005 691.673, 640.928 691.894, 642.500 691.090 C 645.892 689.355, 647.554 688.031, 646.361 688.015 C 645.734 688.007, 644.159 688.925, 642.861 690.056 M 410.171 691.097 C 408.275 694.134, 409.416 694.541, 411.388 691.531 C 412.300 690.139, 412.694 689, 412.264 689 C 411.833 689, 410.892 689.944, 410.171 691.097 M 700.089 692.412 C 700.315 692.633, 702.859 694.397, 705.741 696.333 C 709.776 699.043, 710.596 699.341, 709.305 697.630 C 708.383 696.407, 705.839 694.642, 703.653 693.709 C 701.466 692.775, 699.863 692.191, 700.089 692.412 M 616.860 695.694 C 618.135 698.125, 620 699.622, 620 698.214 C 620 697.717, 619.035 696.453, 617.854 695.405 C 615.724 693.513, 615.717 693.515, 616.860 695.694 M 391 695.483 C 391 695.715, 392.981 697.267, 395.401 698.932 C 399.305 701.618, 399.743 701.732, 399.274 699.940 C 398.984 698.830, 398.502 698.165, 398.204 698.463 C 397.906 698.761, 396.951 698.397, 396.081 697.654 C 394.411 696.228, 391 694.771, 391 695.483 M 628.359 698.923 C 624.876 701.047, 622.361 704, 625.629 702.128 C 628.032 700.752, 632.654 697.050, 632 697.026 C 631.725 697.016, 630.087 697.869, 628.359 698.923 M 307.750 706.484 C 306.238 707.815, 305 709.228, 305 709.623 C 305 710.019, 304.255 711.165, 303.345 712.171 C 302.435 713.177, 301.914 714, 302.188 714 C 302.463 714, 304.584 711.750, 306.903 709 C 311.610 703.418, 311.768 702.947, 307.750 706.484 M 662.711 706.003 C 654.981 706.993, 653.931 708.302, 661.423 707.610 C 664.675 707.310, 667.800 706.600, 668.368 706.032 C 668.936 705.464, 669.197 705.059, 668.950 705.131 C 668.702 705.203, 665.895 705.596, 662.711 706.003 M 719.559 709.377 C 721.685 711.920, 723.579 714, 723.768 714 C 724.820 714, 720.144 707.669, 718.106 706.334 C 716.324 705.166, 716.703 705.960, 719.559 709.377 M 352.663 706.931 C 354.952 707.305, 359.002 707.309, 361.663 706.939 C 365.547 706.400, 364.728 706.266, 357.500 706.259 C 350.929 706.253, 349.623 706.434, 352.663 706.931 M 340.500 708.603 C 338.300 709.397, 335.375 710.918, 334 711.981 L 331.500 713.915 335 712.664 C 340.419 710.727, 347.673 707.068, 346 707.115 C 345.175 707.139, 342.700 707.808, 340.500 708.603 M 684.500 709.216 C 685.600 709.851, 687.095 710.962, 687.821 711.685 C 688.548 712.408, 689.448 713.034, 689.821 713.077 C 690.195 713.119, 691.288 713.304, 692.250 713.488 C 695.204 714.054, 694.222 713.146, 689.033 710.517 C 684.060 707.997, 680.737 707.043, 684.500 709.216 M 380.122 714 C 382.481 716.200, 384.734 718, 385.129 718 C 385.524 718, 387.344 719.208, 389.173 720.685 C 392.179 723.111, 392.114 722.956, 388.500 719.079 C 384.890 715.206, 377.972 710, 376.436 710 C 376.104 710, 377.763 711.800, 380.122 714 M 641.722 714.486 C 639.210 716.404, 636.116 719.441, 634.845 721.236 L 632.535 724.500 635.712 722 C 637.460 720.625, 638.914 718.938, 638.945 718.250 C 638.975 717.563, 639.422 717, 639.938 717 C 640.454 717, 642.355 715.650, 644.161 714 C 648.590 709.955, 647.326 710.207, 641.722 714.486 M 291.946 716.436 C 295.472 720.082, 297.642 721.472, 294.655 718.171 C 292.708 716.020, 292.429 713.553, 294.250 714.601 C 294.938 714.997, 295.145 714.931, 294.712 714.456 C 294.279 713.980, 292.704 713.429, 291.212 713.232 L 288.500 712.873 291.946 716.436 M 732.437 716.250 L 729.500 719.500 732.750 716.563 C 734.538 714.948, 736 713.485, 736 713.313 C 736 712.540, 735.175 713.221, 732.437 716.250 M 321.041 723.942 C 319.006 726.800, 316 733.193, 316 734.664 C 316 735.652, 321.242 727.174, 322.748 723.750 C 324.317 720.183, 323.666 720.256, 321.041 723.942 M 703.298 724.798 C 704.839 728.384, 709.277 734.301, 708.326 731.500 C 707.525 729.144, 703.171 722, 702.536 722 C 702.294 722, 702.637 723.259, 703.298 724.798 M 396.204 734.250 C 396.123 736.370, 396.533 738, 397.147 738 C 397.744 738, 397.998 738.900, 397.710 740 C 397.423 741.100, 397.568 742, 398.033 742 C 398.499 742, 399.075 743.462, 399.314 745.250 C 399.552 747.038, 399.588 745.931, 399.394 742.791 C 399.199 739.651, 398.434 735.601, 397.694 733.791 L 396.348 730.500 396.204 734.250 M 626.510 736.750 C 626.122 737.712, 625.657 742.325, 625.475 747 L 625.146 755.500 625.922 748 C 626.349 743.875, 627.040 739.263, 627.457 737.750 C 628.297 734.709, 627.619 733.993, 626.510 736.750 M 314.632 739.090 C 314.284 740.828, 314.053 743.431, 314.117 744.875 C 314.181 746.319, 314.637 745.069, 315.131 742.097 C 316.092 736.303, 315.683 733.835, 314.632 739.090 M 710.742 748.910 C 710.326 750.785, 710.214 752.548, 710.493 752.826 C 711.536 753.869, 712.131 752.084, 711.820 748.846 L 711.498 745.500 710.742 748.910 M 710.045 754.500 C 709.942 755.050, 709.693 757.300, 709.492 759.500 L 709.126 763.500 710.117 760.151 C 710.662 758.309, 710.911 756.059, 710.670 755.151 C 710.429 754.243, 710.148 753.950, 710.045 754.500 M 601.500 757.091 C 599.595 757.996, 599.603 758.022, 601.670 757.635 C 603.305 757.329, 603.991 757.828, 604.451 759.660 C 604.787 760.998, 604.796 762.521, 604.472 763.046 C 604.147 763.571, 604.359 764, 604.941 764 C 605.523 764, 606 764.750, 606 765.667 C 606 766.583, 606.233 767.101, 606.517 766.816 C 607.171 766.163, 604.859 755.975, 604.078 756.070 C 603.760 756.109, 602.600 756.568, 601.500 757.091 M 427 758.370 C 427 759.148, 441.928 763.997, 444.157 763.943 C 445.446 763.912, 442.225 762.576, 437 760.975 C 426.278 757.689, 427 757.877, 427 758.370 M 588 761.546 L 584.500 762.941 588.500 762.349 C 590.700 762.024, 592.928 761.362, 593.450 760.879 C 594.852 759.582, 592.078 759.922, 588 761.546 M 316 763.371 C 316 764.519, 320.204 773.008, 321.023 773.514 C 322.442 774.391, 320.713 769.666, 318.329 766.153 C 317.048 764.265, 316 763.014, 316 763.371 M 418.653 766.218 C 417.886 769.151, 418.578 769.658, 419.922 767.146 C 420.532 766.007, 420.617 764.881, 420.116 764.572 C 419.627 764.270, 418.969 765.010, 418.653 766.218 M 393.382 769.750 C 392.366 771.263, 390.961 773.570, 390.260 774.879 C 387.991 779.112, 391.304 775.584, 393.848 771.057 C 396.443 766.440, 396.153 765.626, 393.382 769.750 M 460.646 767.993 C 461.826 768.469, 466.101 769.101, 470.146 769.398 L 477.500 769.938 470 768.545 C 465.875 767.779, 461.600 767.147, 460.500 767.140 C 458.615 767.128, 458.623 767.176, 460.646 767.993 M 630.965 770.932 C 632.777 774.483, 635 777.020, 635 775.538 C 635 774.777, 629.850 767, 629.347 767 C 629.134 767, 629.862 768.769, 630.965 770.932 M 549 769.500 C 542.461 770.446, 541.538 770.750, 545 770.818 C 547.475 770.867, 552.425 770.306, 556 769.573 C 564.112 767.908, 560.284 767.868, 549 769.500 M 532.264 771.718 C 533.784 771.947, 536.034 771.941, 537.264 771.704 C 538.494 771.467, 537.250 771.279, 534.500 771.286 C 531.750 771.294, 530.744 771.488, 532.264 771.718 M 703.430 773.281 C 702.369 774.536, 700.825 776.449, 700 777.531 C 698.601 779.367, 698.621 779.405, 700.297 778.089 C 702.110 776.664, 706.467 771, 705.748 771 C 705.535 771, 704.492 772.027, 703.430 773.281 M 506.784 772.738 C 509.689 772.941, 514.189 772.939, 516.784 772.734 C 519.378 772.528, 517 772.363, 511.500 772.365 C 506 772.368, 503.878 772.536, 506.784 772.738 M 613.215 781.750 C 614.554 784.892, 617.121 788.213, 617.735 787.598 C 618.146 787.188, 613.054 779, 612.389 779 C 612.198 779, 612.570 780.237, 613.215 781.750 M 410.253 783.534 C 408.911 785.582, 408.565 786.720, 409.380 786.408 C 410.658 785.917, 413.412 781.079, 412.776 780.442 C 412.611 780.278, 411.476 781.669, 410.253 783.534 M 328.755 782.195 C 329.355 782.913, 331.225 784.310, 332.911 785.299 C 335.475 786.805, 335.878 786.847, 335.383 785.555 C 335.057 784.706, 334.388 784.260, 333.895 784.565 C 333.403 784.869, 333 784.714, 333 784.220 C 333 783.725, 331.799 782.774, 330.332 782.105 C 328.149 781.111, 327.862 781.127, 328.755 782.195 M 642 783.531 C 642 784.289, 652.451 789.981, 653.861 789.991 C 654.670 789.996, 654.265 789.189, 652.861 787.998 C 650.775 786.229, 650.733 786.063, 652.500 786.567 C 653.977 786.989, 653.847 786.737, 652 785.605 C 649.064 783.803, 647.618 783.573, 648.532 785.051 C 648.889 785.630, 647.566 785.428, 645.591 784.602 C 643.616 783.777, 642 783.295, 642 783.531 M 375.250 786.662 C 372.913 787.490, 371 788.585, 371 789.097 C 371 790.090, 377.861 787.534, 379.450 785.948 C 380.618 784.782, 380.508 784.801, 375.250 786.662 M 685.656 787.116 C 683.541 788.232, 682.030 789.363, 682.298 789.631 C 683.083 790.417, 690 787.202, 690 786.051 C 690 784.751, 690.262 784.687, 685.656 787.116 M 349 791.224 C 349 791.651, 350.800 792, 353 792 C 355.200 792, 357 791.822, 357 791.605 C 357 791.388, 355.200 791.038, 353 790.829 C 350.800 790.619, 349 790.797, 349 791.224 M 662.250 791.716 C 663.763 791.945, 666.237 791.945, 667.750 791.716 C 669.263 791.487, 668.025 791.300, 665 791.300 C 661.975 791.300, 660.737 791.487, 662.250 791.716 M 408.536 792.957 C 406.757 793.609, 406.818 793.738, 409.194 794.334 C 410.635 794.695, 412.531 795.267, 413.407 795.603 C 414.350 795.965, 415 795.695, 415 794.940 C 415 794.240, 414.699 793.968, 414.331 794.336 C 413.963 794.703, 412.951 794.382, 412.081 793.622 C 411.125 792.785, 409.724 792.523, 408.536 792.957 M 610.184 795.300 L 607.500 797.152 610 796.452 C 611.375 796.068, 613.850 795.168, 615.500 794.453 L 618.500 793.154 615.684 793.300 C 614.134 793.381, 611.659 794.281, 610.184 795.300 M 436 801.935 C 436 802.806, 446.091 805.242, 446.793 804.540 C 447.353 803.980, 446.265 803.590, 440.250 802.197 C 437.913 801.656, 436 801.538, 436 801.935 M 584.665 802.507 C 582.006 803.238, 579.531 804.154, 579.165 804.542 C 578.799 804.931, 579.400 804.992, 580.500 804.678 C 581.600 804.364, 584.188 803.808, 586.250 803.442 C 588.313 803.076, 590 802.377, 590 801.889 C 590 801.400, 589.888 801.040, 589.750 801.089 C 589.612 801.139, 587.324 801.777, 584.665 802.507 M 551.467 808.726 L 546.500 809.952 553.500 809.389 C 557.350 809.079, 560.815 808.527, 561.200 808.163 C 562.338 807.085, 556.818 807.405, 551.467 808.726 M 476.500 810.046 C 479.250 810.474, 483.300 810.808, 485.500 810.787 L 489.500 810.750 485 809.949 C 482.525 809.509, 478.475 809.175, 476 809.208 L 471.500 809.267 476.500 810.046 M 540.762 810.707 C 542.006 810.946, 543.806 810.937, 544.762 810.687 C 545.718 810.437, 544.700 810.241, 542.500 810.252 C 540.300 810.263, 539.518 810.468, 540.762 810.707 M 497.250 811.735 C 499.863 811.941, 504.137 811.941, 506.750 811.735 C 509.363 811.529, 507.225 811.360, 502 811.360 C 496.775 811.360, 494.637 811.529, 497.250 811.735" stroke="none" fill="currentColor" fill-rule="evenodd"/>
</svg>