<svg xmlns="http://www.w3.org/2000/svg" width="1024" height="1024" viewBox="0 0 1024 1024" version="1.1">
	<path fill-opacity="0.176" d="M 475 172.630 C 438.898 177.527, 404.046 190.726, 373.869 210.930 C 318.251 248.168, 282.572 303.013, 272.588 366.619 C 270.513 379.841, 270.574 382.574, 273 385 C 274.926 386.926, 276.333 387, 311 387 C 352.681 387, 349.979 387.684, 351.900 376.652 C 363.452 310.314, 420.873 257.627, 489.805 250.115 C 502.977 248.679, 502 251.848, 502 210.568 C 502 168.907, 502.506 170.944, 492.193 171.103 C 488.512 171.159, 480.775 171.847, 475 172.630 M 523.750 172.701 C 522.153 174.487, 522 177.765, 522 210.257 C 522 241.273, 522.202 246.059, 523.570 247.427 C 525.429 249.286, 527.142 249.686, 536.732 250.502 C 546.266 251.313, 561.867 255.147, 572.771 259.358 C 595.704 268.215, 611.697 278.619, 629.038 295.961 C 651.788 318.712, 664.935 342.693, 671.529 373.469 C 673.081 380.715, 674.474 384.873, 675.631 385.719 C 676.977 386.704, 685.632 387, 713.017 387 L 748.651 387 750.911 384.595 C 753.110 382.254, 753.140 381.939, 752.038 372.845 C 742.209 291.728, 685.202 219.331, 606.137 187.555 C 584.883 179.013, 556.744 172.506, 536 171.336 C 526.416 170.796, 525.347 170.915, 523.750 172.701 M 213.763 243.966 C 205.681 245.441, 199.434 247.931, 190.808 253.115 C 181.350 258.798, 178.775 261.048, 171.940 269.601 C 161.093 283.175, 156.387 298.193, 157.276 316.397 C 158.039 332.014, 161.529 341.326, 171.588 354.589 C 188.352 376.691, 216.158 385.931, 242.414 378.125 C 247.732 376.544, 252.250 375.082, 252.456 374.875 C 252.661 374.669, 253.974 367.975, 255.373 360 C 259.744 335.094, 265.936 316.183, 277.733 291.708 L 284.382 277.916 282.509 274.708 C 279.072 268.821, 274.568 264.020, 266.777 257.940 C 258.577 251.542, 251.088 247.645, 242.661 245.392 C 236.097 243.637, 219.934 242.839, 213.763 243.966 M 787.470 248.042 C 770.330 250.283, 752.220 261.132, 742.798 274.801 L 739.834 279.101 747.509 295.148 C 759.041 319.258, 765.945 342.030, 769.590 367.981 C 770.399 373.745, 771.385 378.780, 771.781 379.169 C 772.176 379.558, 776.550 381.070, 781.500 382.528 C 789.495 384.884, 791.673 385.124, 801.009 384.672 C 817.483 383.876, 832.228 377.486, 844.018 366.032 C 857.564 352.873, 864.863 337.633, 865.759 320.633 C 866.491 306.739, 864.867 298.584, 858.960 286.500 C 853.597 275.528, 847.849 268.306, 839.169 261.636 C 823.756 249.790, 807.264 245.454, 787.470 248.042 M 498.813 283.470 C 483.571 287.668, 470.496 299.354, 464.906 313.775 C 461.592 322.324, 461.113 336.727, 463.844 345.695 C 469.834 365.362, 486.752 379.088, 508 381.520 C 514.786 382.297, 526.413 380.011, 533.627 376.482 C 545.191 370.824, 555.017 359.952, 559.118 348.278 C 561.734 340.833, 562.586 329.124, 561.051 321.737 C 557.251 303.456, 541.612 287.142, 524 283.085 C 517.915 281.684, 504.557 281.888, 498.813 283.470 M 146.500 391.094 C 130.884 393.102, 118.253 401.333, 110.126 414.799 C 103.137 426.378, 102.884 428.791, 103.212 480.865 C 103.479 523.187, 103.636 526.798, 105.328 529.379 C 108.967 534.930, 109.667 535, 161.771 535 L 209.606 535 211.844 528.053 C 216.065 514.945, 225.558 503.960, 237.500 498.363 C 240.250 497.074, 243.287 496.015, 244.250 496.010 C 246.671 495.996, 246.458 494.775, 243.073 489.265 C 235.382 476.744, 232.172 457.316, 235.398 442.813 C 237.538 433.194, 242.439 422.994, 248.490 415.565 L 253.261 409.708 252.753 400.810 C 252.474 395.917, 251.928 391.595, 251.540 391.206 C 250.571 390.238, 153.965 390.134, 146.500 391.094 M 771.625 397.125 C 771.281 398.844, 771 402.564, 771 405.393 C 771 409.936, 771.476 411.112, 775.074 415.467 C 792.587 436.660, 794.742 465.778, 780.543 489.358 C 778.239 493.185, 777.490 495.241, 778.294 495.532 C 778.957 495.771, 781.506 496.662, 783.957 497.512 C 798.328 502.495, 810 516.326, 813.007 531.935 C 813.596 534.996, 814.272 538.424, 814.509 539.553 C 814.936 541.590, 815.311 541.605, 863.220 541.553 C 917.776 541.493, 916.306 541.690, 919.376 534.018 C 920.790 530.484, 920.997 524.244, 920.980 485.730 C 920.969 461.403, 920.558 438.721, 920.066 435.324 C 917.344 416.508, 899.462 397.937, 881.184 394.943 C 878.058 394.431, 852.269 394.009, 823.875 394.006 L 772.250 394 771.625 397.125 M 446.734 396.074 C 436.707 398.474, 427.728 405.849, 423.385 415.253 L 420.500 421.500 420.184 458.750 L 419.869 496 442.934 496 L 466 496 466 477.723 C 466 457.945, 466.694 455, 471.357 455 C 475.717 455, 476 456.323, 476 476.700 L 476 496 512 496 L 548 496 548 476.700 C 548 456.323, 548.283 455, 552.643 455 C 557.306 455, 558 457.945, 558 477.723 L 558 496 580.500 496 L 603 496 602.999 458.250 L 602.998 420.500 600.155 414.500 C 596.801 407.421, 590.962 401.812, 583.120 398.135 L 577.500 395.500 514 395.336 C 479.075 395.246, 448.806 395.578, 446.734 396.074 M 284.912 408.384 C 268.361 413.169, 253.738 428.161, 250.060 444.115 C 248.761 449.750, 248.761 462.250, 250.060 467.885 C 252.894 480.180, 263.139 493.209, 274.748 499.282 C 283.635 503.932, 288.676 505.179, 298.427 505.141 C 332.593 505.007, 355.967 472.093, 344.995 439.567 C 340.750 426.984, 329.873 415.609, 317.114 410.408 C 311.692 408.198, 308.608 407.653, 300 407.385 C 293.298 407.176, 287.840 407.537, 284.912 408.384 M 711 408.886 C 702.565 411.613, 697.701 414.456, 691.240 420.438 C 668.258 441.715, 671.782 479.976, 698.301 497.116 C 718.537 510.196, 743.616 507.569, 760.593 490.593 C 770.304 480.881, 775 469.606, 775 456 C 775 433.719, 760.793 414.977, 739.068 408.595 C 731.764 406.450, 718.097 406.591, 711 408.886 M 399.500 507.222 C 394.479 509.002, 391.274 511.803, 389.086 516.323 C 387.131 520.362, 387 522.308, 387 547.424 L 387 574.217 389.250 573.690 C 390.488 573.400, 395.663 572.590, 400.750 571.890 L 410 570.617 410.094 559.559 C 410.250 541.137, 411.304 530.051, 413 528.979 C 413.918 528.398, 452.344 528.025, 512.095 528.015 C 604.899 528.001, 609.770 528.089, 611.323 529.804 C 612.693 531.319, 612.999 534.729, 613.228 551.046 L 613.500 570.484 624 572.168 C 629.775 573.095, 635.083 573.886, 635.795 573.926 C 636.831 573.985, 637.030 568.460, 636.795 546.174 L 636.500 518.349 633.816 514.296 C 632.201 511.856, 629.387 509.398, 626.750 508.121 L 622.369 506 512.434 506.079 C 437.501 506.133, 401.545 506.497, 399.500 507.222 M 250.519 520.598 C 245.489 522.439, 240.295 527.338, 237.900 532.500 C 236.152 536.268, 236.043 540.344, 236.022 602.750 L 236 669 287 669.167 C 315.050 669.258, 338.788 669.371, 339.750 669.417 C 341.322 669.492, 341.528 668.117, 341.777 655.888 L 342.055 642.277 333.811 634.388 C 329.278 630.050, 317.453 618.602, 307.534 608.948 C 297.615 599.295, 286.462 588.536, 282.750 585.040 C 277.630 580.218, 276 578.026, 276 575.964 C 276 572.305, 278.410 570.380, 281.492 571.578 C 282.796 572.085, 297.873 586.097, 314.996 602.717 C 339.226 626.234, 346.834 633.062, 349.314 633.514 C 351.066 633.833, 366.831 632.048, 384.346 629.547 C 401.862 627.046, 417.499 625, 419.096 625 C 420.693 625, 422 624.607, 422 624.126 C 422 623.646, 420.226 621.312, 418.057 618.939 C 410.426 610.591, 406 599.156, 406 587.790 C 406 580.765, 407.675 581, 382.589 584.501 C 372.739 585.875, 364.097 587, 363.386 587 C 361.606 587, 312.202 540.210, 311.436 537.799 C 310.692 535.455, 313.508 532, 316.161 532 C 317.180 532, 323.522 537.158, 330.256 543.463 L 342.500 554.926 342.792 547.475 C 343.309 534.263, 339.361 526.352, 329.895 521.635 L 324.607 519 289.554 519.070 C 261.476 519.127, 253.708 519.431, 250.519 520.598 M 696.885 520.380 C 691.281 522.382, 687.258 525.703, 684.280 530.785 C 681.916 534.819, 681.500 536.771, 681.151 545.447 L 680.749 555.456 691.938 544.978 C 698.092 539.215, 703.992 533.887, 705.049 533.138 C 708.989 530.345, 714.543 534.420, 712.288 538.449 C 711.261 540.286, 665.449 583.660, 662.488 585.600 C 660.631 586.816, 657.844 586.672, 641.195 584.500 C 630.659 583.125, 621.130 582, 620.020 582 C 618.226 582, 618 582.648, 618 587.790 C 618 599.572, 613.337 611.328, 605.536 619.215 C 601.096 623.702, 600.983 623.953, 603.186 624.421 C 612.462 626.392, 673.328 633.956, 675.506 633.409 C 677.194 632.985, 690.096 621.138, 709.855 601.868 C 731.252 581, 742.189 571.005, 743.628 571.003 C 746.396 570.999, 748.228 573.277, 747.822 576.217 C 747.521 578.406, 741.747 584.234, 694.250 630.297 L 682 642.177 682 655.588 L 682 669 735 669 L 788 669 788 603.065 C 788 559.226, 787.646 536.187, 786.944 534.315 C 784.834 528.689, 780.756 524.057, 775.691 521.533 L 770.607 519 735.554 519.044 C 709.533 519.076, 699.568 519.421, 696.885 520.380 M 443.487 550.799 C 431.654 554.891, 424.537 561.296, 419.299 572.570 C 415.591 580.549, 415.462 592.462, 418.986 601.500 C 421.757 608.608, 430.941 618.392, 438.035 621.795 C 457.351 631.060, 480.882 622.592, 489.780 603.175 C 493.140 595.843, 493.966 583.833, 491.656 575.889 C 485.900 556.090, 462.873 544.095, 443.487 550.799 M 557.525 550.608 C 534.465 557.948, 523.873 583.900, 535.223 605.252 C 539.130 612.601, 545.376 618.337, 553.820 622.329 C 559.723 625.120, 561.488 625.482, 569 625.444 C 576.478 625.406, 578.370 624.999, 584.741 622.057 C 592.672 618.393, 600.247 611.357, 603.839 604.315 C 613.214 585.939, 604.607 561.651, 585.478 552.502 C 578.010 548.930, 565.467 548.080, 557.525 550.608 M 613.480 640.853 C 613.216 641.117, 613 644.376, 613 648.094 C 613 654.207, 612.747 655.054, 610.365 656.927 C 607.741 658.992, 607.340 659, 511.476 659 C 400.063 659, 411.103 660.179, 410.246 648.194 C 409.651 639.871, 410.682 640.296, 396 642.325 L 387.500 643.500 387 651 L 386.500 658.500 372.750 658.778 L 359 659.056 359 674.628 L 359 690.200 362.400 693.600 L 365.800 697 512 697 L 658.200 697 661.600 693.600 L 665 690.200 665 674.600 L 665 659 651 659 L 637 659 637 651.469 C 637 646.340, 636.601 643.800, 635.750 643.507 C 633.373 642.688, 613.959 640.375, 613.480 640.853 M 236 764.443 L 236 849.887 238.223 851.443 C 240.069 852.737, 244.131 853, 262.223 853 C 282.667 853, 284.122 852.878, 286 851 C 287.958 849.042, 288 847.667, 288 785.940 L 288 722.879 291.633 723.190 L 295.265 723.500 303.603 743.500 L 311.941 763.500 311.971 806.250 C 311.999 847.646, 312.063 849.063, 314 851 C 315.881 852.881, 317.333 853, 338.500 853 C 359.855 853, 361.104 852.896, 363.051 850.949 C 365.074 848.926, 365.099 848.186, 364.796 799.199 L 364.490 749.500 353.705 719 C 347.774 702.225, 342.651 686.362, 342.321 683.750 L 341.721 679 288.861 679 L 236 679 236 764.443 M 682 681.939 C 682 684.577, 678.301 695.740, 663.588 737.500 L 659.007 750.500 659.004 799.115 C 659 846.786, 659.040 847.781, 661.073 850.365 L 663.145 853 685.573 853 C 706.828 853, 708.107 852.893, 710.044 850.956 C 712.043 848.957, 712.085 847.971, 711.963 806.206 L 711.838 763.500 720.281 743 L 728.724 722.500 732.362 722.190 L 736 721.879 736 785.440 C 736 847.667, 736.042 849.042, 738 851 C 739.878 852.878, 741.333 853, 761.777 853 C 779.869 853, 783.931 852.737, 785.777 851.443 L 788 849.887 788 764.443 L 788 679 735 679 L 682 679 682 681.939 M 491.282 773.206 C 490.062 773.795, 488.572 775.766, 487.972 777.585 C 486.606 781.723, 486.802 843.051, 488.196 847.758 C 488.726 849.549, 489.995 851.462, 491.014 852.008 C 492.766 852.945, 581 853.527, 581 852.600 C 581 852.381, 579.478 849.939, 577.618 847.175 C 565.274 828.832, 574.870 802.411, 596.114 796.253 L 602.160 794.500 601.830 785.161 C 601.320 770.734, 606.745 771.987, 545.139 772.068 C 510.615 772.113, 492.765 772.490, 491.282 773.206 M 538.217 802.561 C 535.408 804.528, 533 809.116, 533 812.500 C 533 815.884, 535.408 820.472, 538.217 822.439 C 541.016 824.400, 547.226 824.451, 550.915 822.544 C 553.893 821.004, 557 815.645, 557 812.049 C 557 808.922, 554.479 804.544, 551.586 802.648 C 548.406 800.565, 541.134 800.517, 538.217 802.561 M 596.422 806.418 C 591.675 808.486, 585.879 814.058, 583.865 818.491 C 581.644 823.380, 581.450 832.440, 583.463 837.257 C 587.137 846.050, 596.108 851.972, 605.782 851.990 C 615.135 852.008, 622.606 847.189, 626.633 838.541 C 632.323 826.322, 626.648 811.531, 614.282 806.348 C 610.193 804.635, 600.430 804.673, 596.422 806.418 M 403 842 L 403 853 414 853 L 425 853 425 842 L 425 831 414 831 L 403 831 403 842 M 443 842 L 443 853 454 853 L 465 853 465 842 L 465 831 454 831 L 443 831 443 842" stroke="none" fill="currentColor" fill-rule="evenodd"/>
	<path fill-opacity="0.329" d="M 477.708 172.523 C 442.765 176.751, 404.973 190.575, 376 209.728 C 329.161 240.692, 295.571 284.542, 279.973 335.087 C 276.679 345.761, 272.658 365.183, 271.554 375.746 C 270.951 381.519, 271.091 382.182, 273.405 384.496 L 275.909 387 310.844 387 C 352.597 387, 349.382 388.017, 352.217 373.908 C 365.403 308.278, 421.288 257.408, 488.390 249.959 C 496.416 249.068, 498.861 248.418, 500.250 246.808 C 501.844 244.959, 502 241.677, 502 209.889 C 502 176.333, 501.924 174.924, 500 173 C 497.644 170.644, 493.897 170.564, 477.708 172.523 M 523.557 173.223 C 522.220 175.130, 522 180.354, 522 210.112 C 522 241.680, 522.156 244.962, 523.750 246.829 C 525.130 248.446, 527.510 249.108, 535 249.959 C 582.029 255.303, 624.786 281.657, 650.254 321 C 660.580 336.951, 667.639 354.013, 671.559 372.497 C 673.309 380.748, 674.431 383.931, 676.056 385.247 C 678.028 386.843, 681.349 387, 713.156 387 L 748.091 387 750.467 384.624 C 753.200 381.891, 753.181 381.209, 749.836 361 C 744.918 331.293, 731.749 299.583, 713.498 273.500 C 673.832 216.813, 614.343 180.948, 546.030 172.536 C 528.627 170.393, 525.471 170.489, 523.557 173.223 M 210.500 248.333 C 198.605 251.376, 185.291 259.490, 177.069 268.707 C 170.314 276.278, 163.238 290.346, 161.327 300 C 159.507 309.198, 160.221 322.312, 163.031 331.265 C 172.765 362.283, 204.903 382.652, 234.408 376.502 C 241.788 374.964, 253 371.331, 253 370.479 C 253 370.271, 254.353 363.292, 256.006 354.971 C 260.006 334.834, 266.656 314.725, 275.256 296.759 L 282.312 282.018 280.557 278.126 C 276.331 268.754, 257.735 253.927, 245.123 249.873 C 236.902 247.230, 218.081 246.393, 210.500 248.333 M 782.481 252.470 C 774.530 254.201, 770.398 255.999, 762.237 261.278 C 755.386 265.710, 747.083 273.675, 743.616 279.143 L 741.731 282.114 747.300 293.807 C 758.405 317.123, 764.551 336.245, 768.576 360 C 770.210 369.643, 771.552 374.888, 772.582 375.658 C 774.919 377.405, 789.825 381.226, 795.500 381.533 C 813.573 382.509, 835.698 372.153, 847.631 357.131 C 861.369 339.835, 866.044 317.305, 859.973 297.649 C 857.051 288.188, 849.014 275.437, 841.510 268.355 C 834.322 261.572, 822.458 255.094, 812.540 252.537 C 805.354 250.684, 790.830 250.652, 782.481 252.470 M 498.500 283.890 C 489.560 286.494, 484.237 289.606, 477.251 296.315 C 459.515 313.345, 457.068 339.826, 471.335 360.319 C 485.454 380.599, 512.500 386.892, 535.494 375.248 C 542.948 371.473, 553.465 360.456, 556.949 352.773 C 566.246 332.269, 561.751 310.026, 545.264 294.958 C 532.574 283.360, 514.779 279.149, 498.500 283.890 M 142.773 395.080 C 136.296 396.608, 126.448 401.601, 121.982 405.621 C 116.543 410.519, 111.949 417.669, 108.888 426 C 106.501 432.497, 106.500 432.518, 106.500 478 C 106.500 529.623, 106.407 528.955, 113.879 530.967 C 116.360 531.636, 134.130 531.917, 163.514 531.754 C 202.994 531.535, 209.394 531.294, 210.092 530 C 210.536 529.175, 212.272 525.512, 213.949 521.859 C 219.864 508.977, 229.911 500.285, 244.286 495.616 C 245.883 495.097, 245.646 494.260, 242.038 487.687 C 229.201 464.297, 231.923 434.272, 248.609 415.197 L 253.139 410.018 252.440 402.009 L 251.742 394 199.121 394.100 C 170.179 394.156, 144.823 394.597, 142.773 395.080 M 448.270 396.054 C 436.835 398.311, 426.885 406.347, 423.143 416.347 C 421.094 421.823, 421 423.700, 421 459.038 L 421 496 443.500 496 L 466 496 466 477.155 C 466 460.168, 466.180 458.147, 467.829 456.655 C 470.375 454.350, 473.600 454.591, 475.443 457.223 C 476.714 459.037, 477 462.798, 477 477.723 L 477 496 511.854 496 L 546.709 496 547.431 476.760 C 547.836 465.977, 548.613 456.966, 549.199 456.260 C 550.839 454.284, 555.776 454.713, 556.965 456.934 C 557.572 458.068, 558 466.549, 558 477.434 L 558 496 580.500 496 L 603 496 603 459.038 C 603 424.072, 602.888 421.775, 600.924 416.526 C 597.105 406.319, 586.961 398.268, 575.079 396.015 C 568.608 394.788, 454.507 394.823, 448.270 396.054 M 771.602 403.577 C 770.949 409.956, 771.024 410.263, 774.092 413.758 C 779.172 419.543, 783.525 426.951, 786.576 435 C 789.156 441.809, 789.422 443.697, 789.459 455.500 C 789.506 470.271, 787.509 478.450, 781.371 488.645 C 778.074 494.119, 777.832 496, 780.425 496 C 781.143 496, 784.905 497.588, 788.784 499.528 C 801.008 505.644, 810.142 517.617, 813.347 531.725 L 814.659 537.500 863.302 537.500 L 911.945 537.500 914.223 535.223 L 916.500 532.946 916.805 484.723 C 917.132 433.005, 917.166 433.443, 911.839 422.347 C 906.095 410.384, 891.566 399.941, 877.925 397.969 C 874.391 397.458, 849.175 397.031, 821.888 397.020 L 772.276 397 771.602 403.577 M 285.691 408.501 C 266.610 413.746, 252.421 429.490, 249.690 448.447 C 247.364 464.590, 252.140 479.204, 263.405 490.410 C 273.466 500.420, 284.493 505, 298.529 505 C 311.226 505, 322.699 500.289, 332.300 491.134 C 341.129 482.714, 344.967 475.229, 347.009 462.445 C 350.791 438.770, 334.544 414.805, 310.458 408.531 C 303.412 406.696, 292.307 406.682, 285.691 408.501 M 712.691 408.501 C 699.279 412.188, 686.807 422.329, 681.185 434.117 C 673.815 449.573, 674.831 468.187, 683.827 482.500 C 689.869 492.115, 702.891 501.356, 714 503.915 C 719.774 505.245, 731.226 505.245, 737 503.915 C 744.953 502.083, 754.003 496.886, 760.411 490.471 C 767.080 483.795, 771.110 476.717, 773.468 467.540 C 780.033 441.994, 764.018 415.413, 737.869 408.453 C 731.285 406.700, 719.156 406.724, 712.691 408.501 M 399.500 507.502 C 394.430 509.295, 389.433 514.677, 388.043 519.842 C 387.371 522.337, 387.066 533.197, 387.232 548.672 L 387.500 573.500 390 573.188 C 391.375 573.016, 396.325 572.319, 401 571.639 L 409.500 570.403 410 550.611 C 410.488 531.302, 410.558 530.772, 412.861 528.909 C 415.148 527.060, 418.230 527, 511.160 527 C 595.201 527, 607.465 527.189, 610.050 528.526 C 611.672 529.365, 613.079 530.152, 613.175 530.276 C 613.272 530.399, 613.610 539.485, 613.925 550.467 L 614.500 570.433 625.285 572.015 C 631.217 572.884, 636.280 573.387, 636.535 573.131 C 636.791 572.876, 636.990 561.154, 636.978 547.083 C 636.959 524.427, 636.746 521.038, 635.120 517.459 C 632.880 512.527, 628.193 508.426, 623.219 507.044 C 620.762 506.362, 582.841 506.024, 511.500 506.049 C 421.030 506.082, 402.851 506.317, 399.500 507.502 M 251.759 520.398 C 244.369 523.085, 239.466 527.947, 237.138 534.899 C 236.334 537.302, 236 557.453, 236 603.649 L 236 669 289 669 L 342 669 342 655.915 L 342 642.830 321.250 622.716 C 284.538 587.129, 275 577.449, 275 575.779 C 275 573.298, 277.967 570.854, 280.564 571.196 C 282.007 571.386, 294.559 582.772, 313.969 601.500 C 331.071 618, 346.287 632.041, 347.782 632.703 C 349.277 633.365, 351.850 633.713, 353.500 633.477 C 355.150 633.241, 369.775 631.230, 386 629.009 C 402.225 626.787, 417.020 624.720, 418.879 624.415 L 422.258 623.861 419.254 620.681 C 410.347 611.248, 406 600.824, 406 588.895 C 406 583.668, 405.663 582, 404.607 582 C 403.841 582, 394.953 583.123, 384.857 584.496 C 374.761 585.869, 365.465 586.994, 364.200 586.996 C 361.881 587, 347.623 574.273, 322.025 549.352 C 311.007 538.625, 310.590 538.068, 311.549 535.340 C 312.361 533.031, 313.138 532.500, 315.703 532.500 C 318.335 532.500, 320.764 534.283, 330.348 543.250 C 336.667 549.163, 342.154 554, 342.541 554 C 342.928 554, 343.045 550.063, 342.801 545.250 C 342.176 532.908, 338.398 526.370, 329 521.364 C 325.803 519.662, 322.467 519.480, 290.500 519.269 C 263.033 519.088, 254.695 519.331, 251.759 520.398 M 698.994 519.934 C 692.092 522.034, 686.722 526.544, 683.476 532.967 C 681.675 536.532, 680.017 554, 681.481 554 C 681.898 554, 685.448 550.921, 689.370 547.159 C 702.561 534.501, 705.662 532, 708.162 532 C 711.181 532, 713 533.720, 713 536.574 C 713 539.259, 662.999 587, 660.187 587 C 659.179 587, 649.734 585.875, 639.197 584.500 C 628.660 583.125, 619.580 582, 619.020 582 C 618.435 582, 618 584.683, 618 588.290 C 618 600.298, 613.896 610.818, 605.775 619.628 L 601.854 623.882 605.177 624.426 C 620.417 626.923, 667.758 633, 671.970 633 L 677.269 633 686.885 623.751 C 692.173 618.663, 703.475 607.723, 712 599.438 C 739.504 572.710, 741.446 571, 744.295 571 C 747.229 571, 749.448 574.012, 748.565 576.795 C 748.101 578.257, 705.534 620.232, 687.707 636.807 L 682 642.113 682 655.557 L 682 669 735 669 L 788 669 788 603.866 C 788 555.457, 787.686 537.675, 786.778 534.616 C 785.170 529.204, 777.796 521.830, 772.384 520.222 C 767.757 518.848, 703.394 518.596, 698.994 519.934 M 444.929 550.308 C 421.274 556.993, 409.724 583.692, 421.185 605.195 C 435.851 632.711, 475.895 631.553, 489.314 603.225 C 492.200 597.134, 492.500 595.605, 492.500 587 C 492.500 578.627, 492.156 576.755, 489.599 571.218 C 485.852 563.104, 477.346 555.040, 469.285 551.959 C 462.277 549.281, 451.216 548.532, 444.929 550.308 M 559 550.363 C 548.237 553.505, 538.934 561.405, 534.374 571.278 C 531.815 576.818, 531.500 578.596, 531.500 587.500 C 531.500 596.541, 531.782 598.074, 534.440 603.487 C 541.896 618.674, 558.209 627.381, 574.500 624.870 C 587.194 622.913, 598.489 614.677, 604.108 603.280 C 606.125 599.188, 606.467 596.988, 606.482 588 C 606.499 578.307, 606.262 577.001, 603.403 571 C 597.115 557.806, 585.687 550.139, 571.249 549.430 C 566.645 549.204, 561.674 549.583, 559 550.363 M 396.500 642.395 L 387.500 643.500 387.208 651.250 L 386.916 659 372.958 659 L 359 659 359 673.550 C 359 684.599, 359.365 688.805, 360.517 691.033 C 363.809 697.399, 353.620 697, 512.728 697 C 642.348 697, 657.789 696.836, 659.783 695.439 C 664.228 692.326, 665 689.087, 665 673.550 L 665 659 651 659 L 637 659 637 651.519 C 637 644.575, 636.839 644.002, 634.750 643.542 C 632.011 642.937, 617.369 641, 615.540 641 C 614.615 641, 614.107 643.108, 613.823 648.120 C 613.142 660.185, 624.293 659, 511.462 659 L 414.145 659 412.073 656.365 C 410.469 654.326, 410 652.290, 410 647.365 C 410 640.049, 411.401 640.565, 396.500 642.395 M 258.750 679.768 L 236 680.037 236 764.327 C 236 835.532, 236.220 848.919, 237.419 850.559 C 238.752 852.383, 240.225 852.500, 261.868 852.500 C 279.426 852.500, 285.207 852.191, 286.199 851.201 C 287.229 850.172, 287.604 836.630, 288 786.201 L 288.500 722.500 291.631 722.187 L 294.763 721.874 300.796 736.187 C 304.115 744.059, 308.218 753.999, 309.915 758.276 L 313 766.052 313 807.969 L 313 849.887 315.223 851.443 C 317.063 852.733, 321.062 853, 338.500 853 C 355.938 853, 359.937 852.733, 361.777 851.443 L 364 849.887 364 799.808 L 364 749.730 354.095 721.115 C 343.917 691.713, 342.216 686.318, 341.763 682 L 341.500 679.500 311.500 679.500 C 295 679.500, 271.262 679.621, 258.750 679.768 M 682.576 679.758 C 682.259 680.074, 682 681.517, 682 682.964 C 682 685.815, 678.187 697.444, 667.114 728.362 L 660 748.224 660 798.989 C 660 844.958, 660.156 849.885, 661.651 851.128 C 662.910 852.174, 668.397 852.573, 684.741 852.806 C 702.946 853.066, 706.544 852.873, 708.590 851.533 L 711 849.954 711 807.621 L 711 765.288 719.077 745.435 C 729.238 720.458, 728.352 722, 732.535 722 L 736 722 736 785.345 C 736 845.443, 736.094 848.775, 737.829 850.345 C 739.419 851.785, 742.669 852, 762.794 852 C 784.688 852, 785.986 851.896, 786.971 850.055 C 787.674 848.741, 787.928 820.870, 787.756 764.096 L 787.500 680.081 735.326 679.632 C 706.630 679.384, 682.892 679.441, 682.576 679.758 M 534.067 772.761 C 496.333 772.993, 491.432 773.204, 489.817 774.666 C 488.125 776.197, 488 778.798, 488 812.500 C 488 848.014, 488.039 848.726, 490.104 850.595 C 492.070 852.376, 494.431 852.521, 526.354 852.820 C 545.134 852.997, 565.148 852.839, 570.829 852.469 L 581.158 851.797 579.145 849.648 C 578.038 848.467, 575.982 845.025, 574.576 842 C 569.333 830.720, 571.824 815.861, 580.595 806.106 C 585.017 801.187, 595.360 795, 599.160 795 C 600.817 795, 601 794.061, 601 785.571 C 601 775.768, 600.049 773.251, 596.179 772.808 C 593.452 772.495, 579.024 772.484, 534.067 772.761 M 540.415 801.421 C 529.826 806.032, 530.772 820.754, 541.872 824.080 C 549.802 826.456, 557.540 819.727, 556.673 811.209 C 556.176 806.322, 553.930 803.329, 549.282 801.362 C 545.358 799.701, 544.351 799.708, 540.415 801.421 M 595.429 807.317 C 578.561 815.384, 577.444 838.579, 593.448 848.474 C 597.690 851.096, 599.288 851.500, 605.422 851.500 C 611.396 851.500, 613.253 851.057, 617.328 848.662 C 629.178 841.697, 632.311 826.359, 624.268 814.687 C 618.224 805.916, 605.277 802.607, 595.429 807.317 M 410.715 831.744 L 402.931 832.085 403.215 842.293 L 403.500 852.500 414.250 852.784 L 425 853.068 425 842.641 C 425 831.727, 424.554 830.672, 420.168 831.201 C 419.251 831.312, 414.997 831.556, 410.715 831.744 M 443.429 832.325 C 443.149 833.054, 443.051 837.891, 443.210 843.075 L 443.500 852.500 454.250 852.784 L 465 853.068 465 842.034 L 465 831 454.469 831 C 446.648 831, 443.806 831.341, 443.429 832.325" stroke="none" fill="currentColor" fill-rule="evenodd"/>
	<path fill-opacity="0.433" d="M 492 171.721 C 470.503 173.024, 451.340 176.833, 429.500 184.145 C 348.976 211.106, 288.083 280.695, 273.977 361.880 C 271.367 376.904, 271.354 383.584, 273.934 384.965 C 275.165 385.623, 288.948 386, 311.812 386 C 342.412 386, 347.939 385.779, 348.990 384.512 C 349.669 383.694, 350.850 379.422, 351.614 375.019 C 355.174 354.505, 365.747 330.457, 378.922 312.910 C 405.647 277.317, 448.526 252.889, 490.509 249.340 C 495.626 248.907, 498.432 248.180, 499.489 247.012 C 500.822 245.540, 500.991 240.565, 500.763 209.529 C 500.464 168.902, 500.992 171.177, 492 171.721 M 524.609 172.534 C 523.202 173.941, 522.977 178.366, 522.817 207.821 C 522.606 246.502, 522.592 245.992, 523.925 247.325 C 524.477 247.877, 529.815 248.922, 535.786 249.647 C 572.070 254.050, 603.918 269.678, 630.056 295.905 C 651.973 317.895, 666.059 343.847, 672.059 373.287 C 673.198 378.878, 674.606 384.025, 675.187 384.726 C 676.008 385.715, 684.342 386, 712.467 386 C 746.289 386, 748.800 385.879, 750.345 384.171 C 752.503 381.787, 752.432 377.736, 749.981 363.349 C 742.129 317.256, 720.165 275.469, 685.399 240.475 C 648.859 203.697, 598.366 179.045, 547.500 173.149 C 527.766 170.861, 526.320 170.822, 524.609 172.534 M 207.800 254.407 C 189.458 260.881, 179.062 270.275, 170.525 288.087 C 165.958 297.619, 164.656 304.477, 165.229 315.996 C 165.755 326.576, 168.555 335.110, 174.743 345 C 185.692 362.497, 209.297 374.686, 228 372.501 C 238.732 371.246, 251.659 366.979, 253.436 364.103 C 253.751 363.594, 254.699 359.425, 255.543 354.839 C 257.282 345.390, 263.054 324.780, 266.693 315.026 C 268.032 311.437, 271.632 303.242, 274.694 296.815 L 280.261 285.131 278.117 282.315 C 269.657 271.202, 266.661 268.053, 260.486 263.791 C 247.761 255.008, 238.378 252.025, 223.500 252.036 C 216.605 252.041, 212.933 252.595, 207.800 254.407 M 790 255.970 C 778.259 257.602, 767.058 262.627, 757.232 270.670 C 753.151 274.011, 745 284.809, 745 286.875 C 745 287.416, 747.037 292.247, 749.526 297.610 C 758.689 317.353, 764.955 337.291, 768.931 359.361 C 770.007 365.334, 771.026 370.336, 771.194 370.476 C 771.830 371.005, 781.716 373.883, 786.991 375.074 C 800.941 378.226, 816.786 374.907, 830.401 365.981 C 839.085 360.288, 844.503 354.503, 849.472 345.616 C 854.324 336.940, 856.792 328.928, 857.601 319.231 C 858.457 308.968, 856.874 301.702, 851.233 290 C 847.571 282.404, 845.235 279.097, 839.577 273.500 C 826.559 260.623, 806.797 253.635, 790 255.970 M 501.411 283.484 C 492.161 285.497, 483.314 290.443, 476.500 297.414 C 463.321 310.895, 459.242 328.592, 465.011 347.248 C 471.352 367.750, 493.029 382.265, 515 380.720 C 533.786 379.400, 551.374 366.575, 558.057 349.324 C 561.427 340.625, 561.902 326.329, 559.125 317.185 C 553.954 300.163, 539.706 287.165, 522.131 283.440 C 514.086 281.735, 509.403 281.745, 501.411 283.484 M 444.324 397.425 C 435.520 400.208, 427.641 407.147, 423.799 415.500 C 421.550 420.391, 421.494 421.314, 421.204 457.750 L 420.909 495 443.454 495 L 466 495 466 476.057 C 466 457.615, 466.059 457.072, 468.223 455.557 C 471.160 453.499, 472.593 453.593, 475 456 C 476.856 457.856, 477 459.333, 477 476.500 L 477 495 512 495 L 547 495 547 476.689 C 547 459.643, 547.141 458.226, 549.039 456.189 C 551.457 453.593, 552.795 453.467, 555.777 455.557 C 557.941 457.072, 558 457.615, 558 476.057 L 558 495 580.556 495 L 603.112 495 602.806 457.750 C 602.505 421.080, 602.463 420.419, 600.142 415.286 C 597.346 409.103, 589.843 401.740, 583.217 398.679 C 578.539 396.518, 577.966 396.498, 513.500 396.303 C 461.999 396.146, 447.633 396.379, 444.324 397.425 M 189 398.962 C 140.432 399.561, 141.928 399.409, 131.403 404.804 C 122.771 409.228, 114.625 421.099, 112.054 433 C 111.212 436.900, 110.959 450.780, 111.183 480.715 C 111.522 525.905, 111.492 525.649, 116.504 526.127 C 117.602 526.231, 139.425 526.234, 165 526.133 L 211.500 525.948 213.335 521.969 C 218.539 510.683, 229.705 500.318, 240.971 496.317 L 245.717 494.631 242.342 489.065 C 240.485 486.004, 237.787 479.900, 236.347 475.500 C 234.145 468.776, 233.723 465.665, 233.705 456 C 233.686 446.087, 234.055 443.411, 236.381 436.610 C 239.466 427.590, 242.550 421.973, 248.107 415.247 C 251.682 410.922, 251.999 410.044, 251.992 404.518 L 251.983 398.500 243.242 398.451 C 238.434 398.424, 214.025 398.654, 189 398.962 M 772 406.352 C 772 410.111, 772.671 411.585, 776.492 416.226 C 781.358 422.137, 787.026 433.611, 788.903 441.349 C 789.549 444.016, 790.100 450.316, 790.127 455.349 C 790.199 468.908, 787.226 479.867, 780.537 490.704 L 777.942 494.907 781.721 495.947 C 787.683 497.588, 795.944 502.809, 801.330 508.339 C 806.393 513.537, 812.468 524.649, 813.628 530.832 L 814.269 534.247 819.384 533.632 C 822.198 533.294, 843.238 533.013, 866.139 533.009 C 904.307 533.001, 907.957 532.854, 909.916 531.250 C 912.044 529.508, 912.054 529.291, 912.030 483.421 C 912.012 447.563, 911.707 436.361, 910.653 432.921 C 906.623 419.765, 900.486 412.477, 888.329 406.408 L 880.500 402.500 826.250 402.217 L 772 401.934 772 406.352 M 289 408.119 C 280.695 409.456, 270.398 414.976, 263.687 421.687 C 244.863 440.511, 244.573 470.232, 263.027 489.450 C 279.889 507.010, 305.236 509.762, 325.751 496.260 C 339.140 487.449, 347.014 472.546, 346.988 456.068 C 346.966 442.084, 342.384 431.085, 332.587 421.500 C 325.587 414.650, 317.804 410.490, 308.174 408.449 C 300.758 406.877, 297.104 406.815, 289 408.119 M 715.634 408.154 C 703.520 410.472, 689.398 420.350, 683.280 430.786 C 676.910 441.654, 675.059 458.585, 678.895 470.909 C 685.871 493.323, 709.776 507.972, 733.092 504.122 C 757.291 500.126, 774.194 480.303, 774.231 455.876 C 774.253 441.553, 769.360 430.252, 758.971 420.634 C 747.093 409.637, 731.444 405.130, 715.634 408.154 M 396.830 509.027 C 394.812 510.093, 392.112 512.436, 390.830 514.233 C 388.544 517.439, 388.494 518.019, 388.205 545.250 C 388.043 560.513, 388.268 572.992, 388.705 572.982 C 389.142 572.972, 393.775 572.305, 399 571.500 C 404.225 570.695, 408.837 570.028, 409.250 570.018 C 409.663 570.008, 410 561.303, 410 550.674 C 410 531.766, 410.050 531.302, 412.314 529.174 L 414.629 527 511.860 527 L 609.091 527 611.545 529.455 C 613.979 531.888, 614 532.070, 614 550.909 L 614 569.909 617.250 570.456 C 624.462 571.668, 633.575 572.985, 634.795 572.992 C 635.830 572.998, 636.030 567.447, 635.795 545.250 C 635.505 518.006, 635.457 517.440, 633.166 514.227 C 631.882 512.427, 629.087 510.065, 626.956 508.977 C 623.162 507.042, 620.727 507.001, 511.790 507.044 C 403.653 507.087, 400.396 507.143, 396.830 509.027 M 255 519.942 C 249.071 521.268, 246.371 522.718, 242.605 526.595 C 235.954 533.443, 236 532.901, 236 604.682 L 236 669 288.359 669 L 340.718 669 341.416 656.160 L 342.114 643.321 328.307 629.875 C 320.713 622.480, 306.400 608.616, 296.500 599.067 C 274.757 578.095, 275 578.363, 275 575.412 C 275 571.955, 279.127 569.467, 282.183 571.083 C 283.457 571.757, 297.775 585.207, 314 600.973 C 330.225 616.739, 344.613 630.394, 345.973 631.319 C 349.258 633.553, 353.126 633.446, 372.313 630.592 C 381.216 629.267, 396.041 627.181, 405.258 625.955 L 422.017 623.725 417.593 618.995 C 410.011 610.890, 405.066 598.023, 405.017 586.275 C 405.001 582.220, 404.889 582.069, 402.250 582.525 C 393.809 583.984, 368.984 587, 365.417 587 C 361.349 587, 360.636 586.423, 336.124 563.319 C 314.927 543.340, 311 539.202, 311 536.843 C 311 533.050, 314.927 530.355, 318.032 532.017 C 319.224 532.655, 324.991 537.664, 330.849 543.148 L 341.500 553.120 341.815 545.810 C 341.989 541.789, 341.664 536.925, 341.094 535 C 339.597 529.951, 334.724 524.535, 329.251 521.840 C 324.585 519.542, 323.907 519.497, 291.500 519.329 C 273.350 519.236, 256.925 519.511, 255 519.942 M 701.206 520.021 C 694.711 520.967, 688.916 524.660, 685.259 530.182 C 682.818 533.867, 682.461 535.452, 682.164 543.924 L 681.827 553.500 685.664 549.958 C 687.774 548.010, 693.208 542.948, 697.739 538.708 C 702.271 534.469, 706.813 531, 707.834 531 C 710.273 531, 713 534.091, 713 536.856 C 713 539.081, 706.148 546.019, 676 574.318 C 664.027 585.556, 662.104 586.990, 659 586.993 C 655.501 586.996, 625.865 583.446, 620.837 582.422 C 618.263 581.898, 618.191 582.007, 618.669 585.690 C 619.298 590.531, 616.723 602.868, 613.829 608.878 C 612.605 611.420, 609.428 615.809, 606.769 618.631 L 601.935 623.761 607.718 624.460 C 610.898 624.844, 625.993 626.923, 641.263 629.079 C 671.622 633.367, 674.091 633.555, 677.316 631.834 C 678.517 631.192, 693.126 617.355, 709.779 601.084 C 726.433 584.813, 740.930 571.101, 741.995 570.613 C 744.660 569.391, 749 572.318, 749 575.337 C 749 577.682, 737.830 589.095, 699.370 626.043 L 682.240 642.500 682.120 655.750 L 682 669 734.363 669 L 786.726 669 787.147 662.750 C 787.378 659.313, 787.552 629.500, 787.534 596.500 L 787.500 536.500 785.117 531.660 C 782.214 525.762, 776.640 521.517, 769.900 520.072 C 764.200 518.850, 709.524 518.809, 701.206 520.021 M 448.120 550.167 C 436.579 551.999, 425.392 560.665, 420.160 571.825 C 417.836 576.784, 417.500 578.761, 417.500 587.500 C 417.500 596.442, 417.799 598.107, 420.317 603.238 C 424.057 610.857, 431.029 617.642, 438.997 621.418 C 444.842 624.188, 446.462 624.500, 455 624.500 C 463.214 624.500, 465.274 624.137, 470.218 621.820 C 488.463 613.268, 497.411 591.869, 490.320 573.748 C 483.695 556.820, 466.552 547.240, 448.120 550.167 M 562.217 550.113 C 547.900 552.497, 536.131 563.522, 532.413 578.032 C 527.956 595.429, 536.326 613.112, 552.874 621.259 C 558.901 624.226, 560.263 624.500, 568.979 624.500 C 577.607 624.500, 579.131 624.201, 585.225 621.314 C 597.941 615.290, 605.898 603.885, 606.778 590.421 C 608.083 570.459, 595.104 553.709, 575.526 550.089 C 569.015 548.886, 569.597 548.885, 562.217 550.113 M 399 642.550 C 393.775 643.253, 389.182 643.867, 388.794 643.914 C 388.405 643.961, 387.955 647.263, 387.794 651.250 L 387.500 658.500 373.500 659 L 359.500 659.500 359.500 674.180 C 359.500 687.521, 359.691 689.117, 361.596 691.680 C 362.749 693.231, 364.774 695.056, 366.096 695.735 C 369.087 697.272, 653.317 697.591, 657.339 696.061 C 658.697 695.545, 660.751 694.110, 661.904 692.873 C 663.849 690.785, 664 689.482, 664 674.811 L 664 659 650 659 L 636 659 636 651.500 C 636 647.375, 635.663 643.992, 635.250 643.982 C 634.837 643.972, 630.225 643.305, 625 642.500 C 619.775 641.695, 615.163 641.028, 614.750 641.018 C 614.337 641.008, 614 643.864, 614 647.365 C 614 652.290, 613.531 654.326, 611.927 656.365 L 609.855 659 511.927 659 C 398.474 659, 410 660.244, 410 648 C 410 644.150, 409.663 641.061, 409.250 641.136 C 408.837 641.210, 404.225 641.847, 399 642.550 M 236 763.777 C 236 837.984, 236.178 847.809, 237.557 849.777 C 239.088 851.963, 239.488 852, 261.857 852 C 278.213 852, 284.937 851.663, 285.800 850.800 C 286.708 849.892, 287 834.076, 287 785.743 L 287 721.885 291.250 722.193 L 295.500 722.500 304 742.500 L 312.500 762.500 313 806 C 313.275 829.925, 313.864 850.063, 314.309 850.750 C 314.918 851.691, 320.897 852, 338.524 852 C 360.641 852, 361.987 851.894, 362.965 850.066 C 363.638 848.807, 363.995 831.080, 363.986 799.316 L 363.973 750.500 352.963 719 C 346.907 701.675, 341.681 685.813, 341.349 683.750 L 340.744 680 288.372 680 L 236 680 236 763.777 M 683 681.858 C 683 683.919, 676.768 702.521, 666.591 730.840 L 660 749.179 660 799.018 C 660 842.993, 660.185 849.042, 661.571 850.429 C 662.908 851.766, 666.557 852, 686.036 852 C 707.647 852, 708.988 851.892, 709.965 850.066 C 710.631 848.821, 711 833.195, 711 806.210 L 711 764.288 719.110 744.394 C 723.571 733.452, 727.444 723.938, 727.717 723.250 C 728.009 722.515, 730.024 722, 732.607 722 L 737 722 737 785.878 C 737 838.867, 737.234 849.950, 738.375 850.897 C 739.339 851.697, 746.585 851.958, 762.597 851.769 L 785.442 851.500 786.662 849.051 C 787.598 847.174, 787.838 827.223, 787.691 763.551 L 787.500 680.500 735.250 680.241 C 684.732 679.991, 683 680.044, 683 681.858 M 490 775 C 488.075 776.925, 488 778.333, 488 812.500 C 488 846.667, 488.075 848.075, 490 850 C 491.939 851.939, 493.333 852, 535.927 852 L 579.854 852 576.475 846.388 C 564.863 827.105, 573.786 803.173, 595.300 795.901 L 600.500 794.143 600.791 785.445 C 601.249 771.728, 606.967 773, 544.845 773 C 493.333 773, 491.950 773.050, 490 775 M 538.190 802.026 C 530.209 806.891, 530.730 819.223, 539.099 823.551 C 547.276 827.780, 557 821.802, 557 812.546 C 557 802.482, 546.799 796.777, 538.190 802.026 M 598.747 806.148 C 596.683 806.727, 592.746 809.221, 589.998 811.692 C 577.576 822.860, 580.558 841.673, 596 849.559 C 600.946 852.085, 610.343 851.941, 615.500 849.262 C 629.215 842.135, 632.538 825.081, 622.526 813.206 C 617.138 806.817, 607.048 803.822, 598.747 806.148 M 404 842 L 404 852 414.453 852 L 424.906 852 424.496 843.250 C 424.271 838.438, 424.068 833.938, 424.044 833.250 C 424.012 832.336, 421.310 832, 414 832 L 404 832 404 842 M 444 842 L 444 852 454.500 852 L 465 852 465 842 L 465 832 454.500 832 L 444 832 444 842" stroke="none" fill="currentColor" fill-rule="evenodd"/>
</svg>