<svg xmlns="http://www.w3.org/2000/svg" width="1024" height="1024" viewBox="0 0 1024 1024" version="1.1">
	<path fill-opacity="0.137" d="M 507.436 106.250 C 506.990 164.688, 506.541 212.838, 506.437 213.250 C 506.334 213.662, 506.194 254.217, 506.125 303.371 L 506 392.742 498.250 393.447 C 493.988 393.835, 486.450 395.187, 481.500 396.451 C 475.084 398.089, 472.296 398.428, 471.790 397.631 C 471.400 397.015, 469.668 392.459, 467.942 387.506 C 465.002 379.069, 445.241 324.095, 431.814 287 C 428.529 277.925, 420.295 254.750, 413.516 235.500 C 406.738 216.250, 399.564 196.032, 397.574 190.571 C 395.585 185.111, 394.304 180.329, 394.729 179.945 C 395.153 179.561, 398.650 178.232, 402.500 176.990 C 406.350 175.748, 409.788 174.571, 410.141 174.375 C 410.943 173.927, 404.192 146.833, 402.968 145.585 C 402.426 145.033, 398.444 145.758, 392.942 147.409 C 387.922 148.916, 383.662 149.995, 383.475 149.808 C 382.853 149.186, 375 126.684, 375 125.524 C 375 124.890, 385.103 121.558, 397.750 118.021 C 410.262 114.522, 420.662 111.536, 420.860 111.386 C 421.532 110.878, 411.838 72, 411.039 72 C 410.602 72, 399.952 74.994, 387.372 78.653 C 374.793 82.312, 363.431 85.349, 362.125 85.403 C 360.161 85.483, 359.428 84.637, 357.881 80.500 C 356.853 77.750, 351.986 64.700, 347.066 51.500 C 342.146 38.300, 337.756 27.575, 337.310 27.668 C 336.140 27.910, 257.842 64.824, 257.256 65.410 C 256.986 65.680, 264.197 79.536, 273.281 96.201 C 282.364 112.865, 299.571 144.500, 311.519 166.500 C 333.558 207.083, 340.179 219.099, 371.024 274.500 C 380.517 291.550, 390.625 309.775, 393.487 315 C 404.426 334.972, 429.405 378.881, 447.608 410.138 C 447.812 410.488, 445.396 412.707, 442.240 415.069 C 439.083 417.430, 433.120 422.630, 428.988 426.623 L 421.476 433.883 414.488 427.769 C 388.282 404.838, 326.754 351.523, 296.500 325.529 C 247.097 283.082, 245.545 281.730, 245.167 280.811 C 244.983 280.365, 247.557 277.164, 250.886 273.698 L 256.938 267.395 246.395 256.698 C 240.596 250.814, 235.472 246, 235.009 246 C 234.545 246, 231.247 249.230, 227.679 253.178 C 220.089 261.578, 221.545 261.846, 208.500 249.636 L 200.500 242.148 217.372 225.191 C 226.652 215.864, 234.077 207.767, 233.872 207.196 C 233.187 205.287, 208.692 179, 207.598 179 C 207.005 179, 198.110 187.400, 187.833 197.667 L 169.147 216.334 156.823 205.940 C 150.046 200.224, 139.369 191.149, 133.098 185.773 C 126.826 180.398, 121.201 176.018, 120.598 176.039 C 119.994 176.061, 113.875 184.496, 107 194.784 C 100.125 205.071, 88.499 221.980, 81.164 232.358 C 73.829 242.736, 68.204 251.581, 68.664 252.013 C 69.453 252.755, 86.409 263.089, 169.500 313.475 C 188.750 325.147, 227 348.406, 254.500 365.159 C 282 381.913, 326.550 408.814, 353.500 424.939 C 380.450 441.063, 403.487 454.867, 404.694 455.614 L 406.887 456.972 404.010 463.319 C 402.427 466.809, 399.922 473.903, 398.444 479.083 C 396.965 484.262, 395.651 488.622, 395.524 488.771 C 395.396 488.920, 389.039 487.934, 381.396 486.580 C 311.259 474.156, 167.740 448.073, 167.346 447.679 C 167.160 447.493, 167.739 443.691, 168.634 439.231 C 169.528 434.770, 170.013 430.476, 169.710 429.688 C 169.111 428.125, 143.793 421.482, 141.618 422.316 C 140.923 422.583, 139.539 426.783, 138.542 431.651 C 137.545 436.518, 136.385 440.883, 135.963 441.351 C 135.542 441.819, 129.513 441.163, 122.565 439.894 L 109.932 437.585 110.560 434.542 C 110.906 432.869, 113.437 421.904, 116.186 410.175 C 118.934 398.446, 121.029 388.702, 120.842 388.521 C 120.105 387.812, 82.012 377.656, 81.622 378.065 C 81.394 378.304, 78.672 389.525, 75.573 403 C 72.474 416.475, 69.615 428.220, 69.220 429.100 C 68.576 430.532, 65.709 430.243, 42 426.358 C 27.425 423.970, 13.025 421.900, 10 421.758 L 4.500 421.500 3.799 431.340 C 1.471 464.004, 0 491.462, 0 502.269 L 0 514.670 104.250 515.334 C 161.588 515.700, 250.217 515.999, 301.205 515.999 L 393.909 516 394.384 519.250 C 396.057 530.698, 397.486 538.285, 398.994 543.727 C 400.708 549.916, 400.706 549.958, 398.609 550.595 C 394.531 551.835, 280.246 594.343, 258.500 602.709 C 246.400 607.364, 225.475 615.370, 212 620.500 C 198.525 625.629, 186.278 630.298, 184.785 630.875 L 182.070 631.924 179.380 622.962 C 177.901 618.033, 176.323 614, 175.873 614 C 174.710 614, 147.736 621.930, 147.252 622.415 C 147.031 622.636, 148.216 627.226, 149.885 632.615 C 151.553 638.005, 152.825 642.481, 152.709 642.562 C 152.594 642.644, 150.475 643.402, 148 644.248 C 145.525 645.094, 139.868 647.143, 135.429 648.802 L 127.358 651.818 120.474 627.909 C 115.243 609.745, 113.211 604, 112.016 604 C 111.150 604, 105.280 605.352, 98.971 607.005 C 92.662 608.657, 84.463 610.718, 80.750 611.585 C 75.706 612.762, 74 613.587, 74 614.848 C 74 616.378, 81.882 643.948, 86.897 659.957 C 88.009 663.508, 88.825 666.478, 88.710 666.555 C 88.152 666.931, 45.270 683.302, 38.847 685.592 C 34.806 687.032, 31.147 688.539, 30.716 688.940 C 30.285 689.340, 33.944 697.955, 38.847 708.084 C 62.267 756.459, 70.918 774, 71.358 774 C 71.621 774, 76.486 771.250, 82.169 767.889 C 87.851 764.528, 99.250 757.925, 107.500 753.216 C 136.239 736.811, 185.638 708.213, 205.500 696.481 C 216.500 689.984, 234.500 679.409, 245.500 672.982 C 256.500 666.554, 274.500 655.970, 285.500 649.461 C 296.500 642.952, 314.050 632.612, 324.500 626.482 C 334.950 620.353, 358.658 606.262, 377.185 595.169 C 395.711 584.076, 411.327 575, 411.887 575 C 412.446 575, 414.374 577.137, 416.171 579.750 C 417.968 582.362, 422.997 588.208, 427.347 592.740 C 434.593 600.289, 435.141 601.143, 433.878 602.920 C 433.120 603.987, 424.625 614.397, 415 626.055 C 390.081 656.237, 364.940 687.127, 338.543 720 C 308.985 756.807, 290.823 779, 290.257 779 C 290.009 779, 286.859 776.299, 283.257 772.999 C 278.097 768.270, 276.418 767.238, 275.342 768.131 C 274.590 768.755, 269.821 773.771, 264.744 779.277 L 255.513 789.290 263.184 796.395 L 270.856 803.500 262.834 813.500 C 258.422 819, 254.698 823.619, 254.558 823.765 C 254.418 823.910, 246.136 816.592, 236.153 807.502 L 218.001 790.975 204.251 805.090 C 196.688 812.854, 190.367 819.558, 190.204 819.990 C 190.042 820.421, 196.319 826.562, 204.153 833.637 C 211.987 840.712, 220.845 848.788, 223.837 851.584 L 229.276 856.667 210.138 881.400 C 199.612 895.002, 191 906.555, 191 907.071 C 191 907.941, 221.062 928.259, 251.366 947.870 C 261.992 954.747, 264.449 955.962, 265.476 954.848 C 266.161 954.107, 272.917 942.700, 280.490 929.500 C 356.430 797.137, 394.801 729.535, 439.987 648.500 C 457.622 616.873, 458.117 616, 458.435 616 C 458.594 616, 461.718 617.358, 465.379 619.018 C 469.039 620.677, 476.189 623.214, 481.267 624.655 C 486.345 626.095, 490.621 627.370, 490.768 627.488 C 490.915 627.606, 488.126 644.532, 484.569 665.101 C 481.012 685.671, 474.912 721.380, 471.013 744.455 C 467.115 767.531, 461.507 800.156, 458.551 816.955 C 455.594 833.755, 452.861 849.633, 452.476 852.241 C 451.856 856.434, 451.529 856.922, 449.638 856.468 C 443.995 855.113, 433.550 853.116, 433.318 853.349 C 432.976 853.691, 426.808 880.071, 426.634 881.937 C 426.540 882.945, 428.883 883.912, 434.500 885.181 C 438.900 886.176, 443.427 887.204, 444.560 887.466 L 446.620 887.943 444.442 900.506 C 443.244 907.415, 442.089 913.244, 441.875 913.459 C 441.439 913.894, 421.972 909.586, 406.131 905.548 C 400.428 904.094, 395.537 903.130, 395.262 903.405 C 394.541 904.125, 385.009 939.186, 385.004 941.133 C 385.002 942.032, 386.012 942.977, 387.250 943.233 C 398.308 945.525, 434.678 954.431, 435.318 955.003 C 435.767 955.406, 434.494 965.132, 432.488 976.618 C 430.482 988.103, 428.013 1002.224, 427.002 1007.998 C 425.991 1013.773, 425.364 1018.698, 425.610 1018.944 C 426.306 1019.640, 475.397 1022.904, 496.131 1023.633 L 514.762 1024.288 515.351 989.894 C 516.143 943.600, 518.048 712.781, 518.021 666.250 C 518.005 637.116, 518.272 628.996, 519.250 628.980 C 522.842 628.923, 535.502 626.706, 542.793 624.856 C 547.354 623.699, 551.237 622.921, 551.421 623.126 C 551.606 623.332, 558.982 643.975, 567.813 669 C 576.645 694.025, 591.133 734.750, 600.010 759.500 C 618.391 810.747, 629 840.992, 629 842.145 C 629 842.580, 625.175 844.102, 620.500 845.528 C 615.825 846.954, 612.013 848.431, 612.028 848.811 C 612.104 850.693, 620.008 876.396, 620.700 877.011 C 621.140 877.402, 625.677 876.501, 630.782 875.008 C 635.887 873.515, 640.263 872.617, 640.507 873.012 C 641.654 874.867, 649.124 897.210, 648.729 897.604 C 648.483 897.850, 638.297 900.912, 626.093 904.407 C 613.890 907.902, 603.736 910.931, 603.530 911.137 C 603.077 911.590, 611.640 948.973, 612.362 949.696 C 612.641 949.975, 624.213 946.996, 638.077 943.077 C 651.941 939.158, 663.367 936.075, 663.467 936.226 C 663.568 936.376, 668.545 949.663, 674.527 965.750 C 680.510 981.838, 685.753 995, 686.180 995 C 686.607 995, 693.153 992.107, 700.728 988.570 C 749.926 965.601, 765.532 957.982, 765.768 956.819 C 765.916 956.094, 760.933 946.050, 754.694 934.500 C 748.456 922.950, 739.828 906.975, 735.520 899 C 731.213 891.025, 719.507 869.650, 709.506 851.500 C 699.505 833.350, 684.438 805.900, 676.022 790.500 C 646.352 736.205, 630.164 707.204, 592.013 640 C 579.547 618.040, 576 611.543, 576 610.670 C 576 610.434, 578.587 608.303, 581.750 605.936 C 584.913 603.568, 590.748 598.502, 594.719 594.677 L 601.938 587.722 611.719 596.676 C 617.098 601.600, 630.275 613.231, 641 622.521 C 651.725 631.812, 667.475 645.531, 676 653.009 C 684.525 660.487, 701.175 674.887, 713 685.009 C 747.131 714.226, 778 741.158, 778 741.718 C 778 742.001, 775.525 744.906, 772.500 748.173 C 769.475 751.441, 767 754.434, 767 754.825 C 767 755.216, 771.723 760.243, 777.496 765.996 L 787.993 776.457 795.318 769.181 L 802.643 761.905 812.321 770.622 C 817.645 775.416, 822 779.605, 822 779.930 C 822 780.256, 814.575 787.938, 805.500 797 C 796.425 806.062, 789 813.853, 789 814.312 C 789 815.498, 814.024 843.444, 815.378 843.770 C 815.995 843.918, 825.015 835.512, 835.422 825.089 L 854.343 806.137 857.544 808.819 C 859.305 810.293, 870.039 819.306, 881.398 828.847 C 892.757 838.388, 902.610 845.980, 903.295 845.717 C 903.979 845.455, 910.377 836.748, 917.512 826.370 C 924.647 815.991, 936.242 799.439, 943.279 789.587 C 950.316 779.735, 955.720 771.349, 955.287 770.953 C 953.152 768.996, 774.570 660.373, 687.500 608.070 C 659.450 591.221, 631.941 574.807, 626.368 571.595 L 616.237 565.754 619.005 559.627 C 622.273 552.394, 627 537.756, 627 534.869 C 627 533.183, 627.464 532.939, 629.750 533.419 C 639.315 535.429, 751.461 555.951, 780 560.914 C 846.613 572.497, 855.389 574.056, 855.690 574.356 C 855.856 574.523, 855.261 578.309, 854.366 582.769 C 853.472 587.230, 852.970 591.478, 853.251 592.211 C 853.782 593.596, 881.507 600.826, 882.496 599.837 C 882.798 599.535, 883.793 595.127, 884.707 590.042 C 885.650 584.795, 886.923 580.583, 887.651 580.304 C 888.915 579.818, 911.912 583.579, 912.739 584.406 C 913.284 584.951, 910.732 597.581, 906.400 615.780 C 904.530 623.633, 903 630.862, 903 631.844 C 903 633.637, 904.210 634.053, 935.185 642.910 L 941.869 644.821 946.360 626.161 C 948.829 615.897, 951.604 604.013, 952.525 599.750 C 953.571 594.913, 954.690 592, 955.502 592 C 956.217 592, 970.456 594.231, 987.143 596.958 C 1003.831 599.685, 1017.784 601.597, 1018.151 601.208 C 1019.498 599.778, 1023.998 531.749, 1024.349 507.500 C 1024.549 493.750, 1024.538 488.305, 1024.326 495.401 L 1023.940 508.301 933.220 507.652 C 883.324 507.295, 794.535 506.710, 735.910 506.351 L 629.320 505.699 628.174 497.091 C 627.544 492.357, 626.098 484.933, 624.962 480.594 C 623.825 476.255, 623.256 472.378, 623.698 471.979 C 624.139 471.580, 637.775 466.408, 654 460.486 C 690.785 447.060, 745.490 426.673, 797 407.195 C 818.725 398.979, 837.491 391.951, 838.701 391.577 C 840.731 390.949, 841.111 391.564, 843.569 399.448 C 845.283 404.946, 846.746 408, 847.663 408 C 849.043 408, 873.852 401.129, 875.131 400.392 C 875.479 400.192, 874.637 396.085, 873.261 391.264 C 871.885 386.444, 870.700 381.910, 870.629 381.190 C 870.550 380.386, 875.137 378.175, 882.500 375.469 C 889.100 373.043, 894.763 371.045, 895.085 371.029 C 895.407 371.013, 898.749 381.687, 902.512 394.750 C 906.274 407.813, 909.454 418.643, 909.578 418.819 C 909.799 419.130, 949.120 409.213, 949.611 408.722 C 949.748 408.586, 946.444 396.890, 942.269 382.731 C 938.094 368.573, 934.913 356.754, 935.200 356.467 C 935.487 356.180, 948.447 351.020, 964 345 C 979.553 338.980, 992.515 333.818, 992.804 333.529 C 993.398 332.935, 983.729 312.613, 964.830 274.731 L 951.974 248.962 949.024 250.487 C 947.402 251.326, 940.771 255.098, 934.287 258.869 C 927.804 262.640, 902.250 277.325, 877.500 291.503 C 837.540 314.393, 774.582 350.860, 742 369.987 C 735.675 373.700, 710.475 388.432, 686 402.725 C 661.525 417.018, 634.770 432.827, 626.545 437.856 C 618.320 442.885, 611.287 447, 610.916 447 C 610.544 447, 608.305 444.413, 605.939 441.250 C 603.573 438.087, 598.364 432.113, 594.363 427.973 L 587.088 420.447 595.857 409.973 C 600.680 404.213, 621.903 378.575, 643.018 353 C 664.134 327.425, 690.911 295.025, 702.524 281 C 714.136 266.975, 725.807 252.699, 728.458 249.277 L 733.280 243.053 736.890 246.013 C 738.875 247.642, 742.148 250.341, 744.162 252.013 L 747.823 255.052 758.007 243.846 L 768.191 232.639 760.557 225.570 L 752.924 218.500 761.098 208.288 L 769.271 198.076 772.995 201.288 C 775.043 203.055, 783.259 210.463, 791.252 217.750 C 799.245 225.038, 805.970 231, 806.196 231 C 806.422 231, 812.780 224.502, 820.324 216.559 L 834.041 202.119 818.270 187.729 C 809.597 179.814, 800.724 171.744, 798.553 169.795 C 793.791 165.519, 791.870 169.061, 815.453 138.624 C 830.062 119.769, 832.942 115.526, 831.839 114.482 C 828.832 111.637, 766.940 70.714, 760.137 67.073 C 758.592 66.246, 757.720 67.203, 754.004 73.805 C 742.233 94.713, 643.906 266.871, 638.521 276 C 635.114 281.775, 626.576 296.850, 619.547 309.500 C 603.636 338.136, 564.979 406, 564.578 406 C 564.415 406, 560.956 404.468, 556.891 402.595 C 552.826 400.723, 545.788 398.177, 541.250 396.938 C 531.814 394.362, 532.206 395.197, 534.451 382.500 C 535.229 378.100, 537.717 363.700, 539.980 350.500 C 542.243 337.300, 545.620 317.950, 547.486 307.500 C 550.689 289.565, 553.646 272.592, 561.515 227 C 570.401 175.505, 571.979 166.688, 572.377 166.290 C 572.613 166.054, 576.448 166.643, 580.900 167.600 C 585.352 168.557, 589.211 169.122, 589.476 168.857 C 590.590 167.744, 596.681 139.921, 595.915 139.448 C 595.454 139.163, 591.196 138.082, 586.452 137.045 C 581.708 136.008, 577.680 135.012, 577.500 134.830 C 577.097 134.423, 581.549 109.088, 582.102 108.641 C 582.321 108.464, 592.778 110.757, 605.340 113.736 C 617.902 116.716, 628.424 118.909, 628.723 118.611 C 629.502 117.831, 638.984 83.835, 638.993 81.789 C 638.998 80.653, 637.738 79.740, 635.250 79.076 C 625.509 76.476, 606.537 72.092, 597.650 70.389 L 587.801 68.500 588.379 64.500 C 590.439 50.254, 595.301 20.163, 596.675 13.155 C 598.527 3.709, 598.229 3.059, 592 2.994 C 590.075 2.973, 577.025 2.301, 563 1.500 C 548.975 0.699, 530.918 0.034, 522.873 0.022 L 508.246 -0 507.436 106.250 M 467.500 165.575 C 432.366 170.966, 429.762 171.456, 429.259 172.769 C 428.968 173.525, 429.961 180.074, 431.464 187.322 C 432.968 194.570, 438.169 220.075, 443.022 244 C 450.828 282.484, 452.057 287.489, 453.673 287.404 C 457.761 287.189, 490.550 281.699, 491.193 281.122 C 491.800 280.577, 490.546 265.507, 483.570 189.500 C 482.712 180.150, 481.755 170.588, 481.444 168.250 C 480.790 163.341, 481.353 163.449, 467.500 165.575 M 605.705 176.709 C 605.450 177.144, 601.992 187.625, 598.021 200 C 594.049 212.375, 586.101 236.844, 580.358 254.375 C 574.615 271.906, 570.069 286.706, 570.255 287.264 C 570.573 288.218, 602.938 301.024, 605.852 301.349 C 607.163 301.495, 615.477 283.786, 643.564 221.019 C 652.645 200.725, 654.714 195.285, 653.725 194.296 C 653.042 193.613, 643.037 189.500, 631.492 185.157 C 606.618 175.798, 606.300 175.694, 605.705 176.709 M 297 235.133 C 278.571 249.275, 272 254.849, 272 256.342 C 272 256.995, 277.213 263.598, 283.584 271.015 C 324.692 318.870, 348.520 345.999, 349.439 345.993 C 350.702 345.984, 380.018 322.142, 379.960 321.171 C 379.938 320.802, 374.426 312.518, 367.710 302.762 C 360.995 293.006, 346.110 271.293, 334.633 254.512 C 323.157 237.730, 313.257 224.002, 312.633 224.003 C 312.010 224.005, 304.975 229.014, 297 235.133 M 727.324 297.692 C 710.368 312.986, 691.208 330.205, 684.747 335.956 C 678.286 341.706, 673.012 346.881, 673.028 347.456 C 673.050 348.282, 694.493 374.856, 697.961 378.353 C 698.426 378.823, 703.238 375.873, 708.653 371.799 C 720.331 363.013, 733.757 353.294, 767.500 329.201 C 781.884 318.930, 792.500 310.686, 792.500 309.787 C 792.500 307.950, 761.368 270.644, 759.457 270.192 C 758.740 270.022, 744.281 282.397, 727.324 297.692 M 474.295 320.387 C 467.582 321.592, 461.824 322.843, 461.500 323.166 C 460.873 323.793, 470.907 370, 471.935 371.221 C 472.568 371.972, 494.998 368.163, 496.169 367.105 C 496.537 366.772, 495.537 356.150, 493.946 343.500 C 492.355 330.850, 491.041 319.938, 491.026 319.250 C 490.992 317.621, 488.931 317.761, 474.295 320.387 M 559.711 324.709 C 558.692 326.470, 545.785 371.119, 546.181 371.514 C 546.415 371.749, 551.671 373.687, 557.859 375.821 L 569.111 379.702 570.894 376.101 C 576.663 364.445, 588.184 334.784, 587.290 333.890 C 586.739 333.339, 581.387 331.171, 575.395 329.072 C 560.769 323.947, 560.238 323.799, 559.711 324.709 M 385.547 362.578 C 379.631 367.337, 375.021 371.772, 375.192 372.540 C 375.507 373.953, 399.162 400.905, 405.181 406.708 L 408.508 409.915 417.504 402.324 C 422.452 398.149, 426.649 394.347, 426.830 393.876 C 427.294 392.672, 398.752 354.102, 397.355 354.046 C 396.725 354.021, 391.412 357.860, 385.547 362.578 M 191.160 376.361 C 180.120 402.503, 176.819 411.219, 177.664 411.992 C 178.124 412.412, 186.600 415.484, 196.500 418.819 C 206.400 422.154, 231.127 430.542, 251.448 437.459 C 271.770 444.375, 288.808 449.897, 289.310 449.730 C 290.140 449.453, 305.282 412.866, 304.734 412.462 C 304.605 412.367, 296.175 408.343, 286 403.519 C 275.825 398.695, 252.117 387.380, 233.316 378.374 C 214.514 369.368, 198.702 362, 198.178 362 C 197.654 362, 194.496 368.463, 191.160 376.361 M 628.046 389.927 C 611.576 405.806, 610.674 406.867, 612.046 408.767 C 614.339 411.944, 626.252 425.468, 627.041 425.792 C 627.782 426.096, 664.542 398.550, 665.531 396.950 C 665.840 396.450, 665.659 395.245, 665.128 394.271 C 663.727 391.698, 647.681 373.697, 646.500 373.374 C 645.950 373.223, 637.646 380.672, 628.046 389.927 M 800.500 437.108 C 775.200 442.599, 749.775 448.119, 744 449.376 C 733.991 451.554, 733.515 451.774, 733.812 454.080 C 733.983 455.411, 735.342 464.375, 736.831 474 C 739.519 491.379, 739.556 491.502, 742.178 491.808 C 744.227 492.046, 813.336 485.516, 852.377 481.395 L 858.253 480.774 857.587 474.137 C 856.848 466.777, 851.272 431.506, 850.412 428.750 C 850.111 427.788, 849.108 427.028, 848.183 427.062 C 847.257 427.097, 825.800 431.617, 800.500 437.108 M 333.873 434.729 C 329.874 444.865, 324.988 459.464, 325.290 460.371 C 325.489 460.967, 335.967 464.644, 348.576 468.542 C 365.783 473.863, 371.689 475.321, 372.257 474.391 C 373.877 471.740, 380.032 452.861, 379.538 452.061 C 379.109 451.368, 352.312 439.207, 338.460 433.419 C 335.020 431.981, 334.949 432.002, 333.873 434.729 M 672 466.351 C 660.175 469.183, 650.507 471.950, 650.515 472.500 C 650.586 477.055, 654.441 497, 655.251 497 C 657.166 497, 699.476 491.943, 701.807 491.436 C 703.398 491.089, 703.967 490.401, 703.640 489.217 C 703.379 488.273, 702.164 481.538, 700.939 474.250 C 698.739 461.153, 698.683 461.001, 696.107 461.101 C 694.673 461.156, 683.825 463.518, 672 466.351 M 0.407 499 C 0.407 508.075, 0.559 511.788, 0.744 507.250 C 0.929 502.712, 0.929 495.288, 0.744 490.750 C 0.559 486.212, 0.407 489.925, 0.407 499 M 342.750 528.295 C 321.690 531.151, 320 531.529, 320 533.381 C 320 536.470, 324.213 560.411, 324.895 561.197 C 325.489 561.881, 371.598 550.735, 372.690 549.644 C 372.996 549.337, 372.202 543.667, 370.926 537.043 C 369.123 527.686, 368.259 525.023, 367.053 525.105 C 366.199 525.163, 355.262 526.599, 342.750 528.295 M 256.500 532.537 C 244.400 533.799, 219.309 536.308, 200.742 538.112 C 182.176 539.915, 166.462 541.714, 165.824 542.109 C 164.970 542.637, 165.780 549.660, 168.888 568.663 C 171.211 582.873, 173.432 594.822, 173.821 595.215 C 174.211 595.608, 189.373 592.569, 207.515 588.462 C 239.066 581.318, 278.298 572.835, 286.250 571.437 C 288.313 571.074, 289.987 570.490, 289.971 570.139 C 289.954 569.787, 288.477 560.725, 286.688 550 C 283.503 530.911, 283.382 530.497, 280.967 530.371 C 279.610 530.300, 268.600 531.274, 256.500 532.537 M 647.144 558.692 C 644.001 567.565, 643.304 570.572, 644.251 571.164 C 648.848 574.037, 687.357 590.038, 688.023 589.352 C 688.912 588.437, 694.071 575.823, 697.054 567.271 C 698.214 563.945, 698.513 561.817, 697.874 561.422 C 696.834 560.779, 652.967 547.031, 651.892 547.011 C 651.558 547.005, 649.421 552.261, 647.144 558.692 M 731.425 577.575 C 730.091 580.590, 729 583.277, 729 583.545 C 729 583.813, 726.750 589.418, 724 596 C 721.250 602.582, 719 608.540, 719 609.240 C 719 609.939, 720.362 611.115, 722.027 611.852 C 725.321 613.310, 768.743 633.723, 802.912 649.877 C 814.688 655.445, 824.876 660, 825.551 660 C 826.797 660, 844.747 616.235, 845.234 612.007 C 845.487 609.819, 842.738 608.775, 789.675 590.899 L 733.849 572.092 731.425 577.575 M 375.732 610.571 C 360.086 622.746, 357.158 625.426, 357.927 626.864 C 359.010 628.887, 372.919 644.892, 375.280 646.831 C 376.702 647.999, 379.064 646.103, 394.457 631.442 C 409.612 617.008, 411.842 614.500, 410.766 613.110 C 407.682 609.128, 395.652 596, 395.087 596 C 394.741 596, 386.032 602.557, 375.732 610.571 M 608.984 616.815 C 605.950 619.392, 601.731 622.924, 599.610 624.664 L 595.753 627.828 610.554 648.389 C 619.899 661.372, 625.750 668.657, 626.427 668.154 C 633.342 663.020, 648 650.316, 648 649.458 C 648 648.321, 616.515 612.652, 615.214 612.315 C 614.821 612.214, 612.018 614.239, 608.984 616.815 M 444.085 665.616 C 439.033 678.055, 435.051 688.384, 435.236 688.570 C 435.952 689.286, 463.310 699.024, 463.650 698.683 C 463.848 698.486, 467.114 687.648, 470.908 674.600 L 477.807 650.877 475.532 650.012 C 467.627 647.007, 455.641 643, 454.555 643 C 453.817 643, 449.361 652.625, 444.085 665.616 M 308.500 655.132 C 285.279 672.220, 248.393 698.992, 239.250 705.391 C 234.713 708.568, 231 711.745, 231 712.451 C 231 714.568, 263.544 752.998, 265.338 752.999 C 265.798 753, 269.848 749.587, 274.338 745.415 C 284.094 736.347, 333.411 691.205, 343.616 682 C 347.580 678.425, 350.862 675.135, 350.911 674.690 C 351.056 673.368, 325.868 643.996, 324.633 644.047 C 324.010 644.072, 316.750 649.061, 308.500 655.132 M 538.137 652.043 C 532.437 653.061, 527.528 654.139, 527.228 654.439 C 526.499 655.168, 531.928 702.296, 532.849 703.235 C 533.620 704.021, 560.544 699.789, 561.621 698.712 C 561.974 698.360, 559.841 687.374, 556.881 674.299 C 552.888 656.662, 551.112 650.484, 549.999 650.360 C 549.175 650.268, 543.836 651.026, 538.137 652.043 M 658.411 688.001 C 650.210 694.601, 643.551 700.606, 643.613 701.346 C 643.675 702.085, 650.449 712.322, 658.666 724.095 C 666.883 735.868, 681.611 757.313, 691.396 771.750 C 701.180 786.188, 709.707 797.996, 710.343 797.992 C 711.828 797.981, 748.947 769.053, 750.354 766.810 C 751.599 764.826, 753.233 766.878, 717.069 725 C 681.598 683.924, 674.621 676, 673.927 676 C 673.594 676, 666.612 681.400, 658.411 688.001 M 414.503 724.250 C 413.698 726.038, 403.090 749.977, 390.930 777.448 C 370.417 823.790, 368.950 827.490, 370.601 828.698 C 372.509 830.092, 386.956 835.859, 404 842.029 C 409.775 844.119, 415.223 846.117, 416.107 846.467 C 418.114 847.263, 417.330 849.339, 431.012 807 C 450.322 747.242, 452.158 741.577, 453.284 738.275 C 453.889 736.501, 454.168 734.835, 453.905 734.572 C 453.010 733.676, 418.977 721, 417.469 721 C 416.643 721, 415.309 722.462, 414.503 724.250 M 555 736.497 C 547.575 737.740, 539.311 739.073, 536.635 739.457 L 531.771 740.157 532.222 745.828 C 534.247 771.266, 542.559 856.286, 543.108 857.175 C 543.609 857.986, 549.902 857.409, 565.652 855.109 C 595.617 850.732, 594 851.087, 594 848.878 C 594 847.833, 589.298 823.245, 583.551 794.239 C 577.804 765.233, 572.804 739.813, 572.440 737.750 C 571.668 733.380, 573.029 733.478, 555 736.497" stroke="none" fill="currentColor" fill-rule="evenodd"/>
	<path fill-opacity="0.450" d="M 508.783 11.750 C 508.597 18.213, 508.328 41.731, 508.184 64.014 C 508.041 86.297, 507.503 143.222, 506.990 190.514 C 506.476 237.806, 506.043 302.631, 506.028 334.570 L 506 392.640 497.185 393.813 C 492.337 394.459, 484.826 395.894, 480.493 397.002 C 476.161 398.110, 472.308 398.675, 471.930 398.258 C 471.553 397.841, 467.320 386.478, 462.524 373.007 C 457.727 359.537, 448.178 332.987, 441.302 314.007 C 425.013 269.044, 421.957 260.475, 409.019 223.500 C 403.053 206.450, 397.233 190.121, 396.086 187.213 C 394.939 184.305, 394 181.333, 394 180.609 C 394 179.828, 397.260 178.314, 401.995 176.896 C 407.975 175.104, 409.991 174.064, 409.995 172.771 C 410.001 170.822, 403.409 146.076, 402.694 145.361 C 402.440 145.107, 398.134 146.126, 393.125 147.625 C 388.116 149.124, 383.745 150.078, 383.411 149.744 C 382.671 149.005, 373.867 124.772, 374.237 124.495 C 374.382 124.387, 384.625 121.456, 397 117.982 C 409.375 114.508, 419.787 111.404, 420.138 111.083 C 420.854 110.429, 412.317 73.888, 411.208 72.859 C 410.819 72.498, 399.161 75.461, 385.302 79.444 L 360.105 86.686 358.095 81.593 C 356.989 78.792, 352.186 65.925, 347.421 53 C 342.656 40.075, 338.408 29.119, 337.981 28.652 C 337.212 27.812, 260.573 63.119, 258.337 65.343 C 257.455 66.221, 260.358 72.283, 270.386 90.500 C 277.652 103.700, 294.338 134.300, 307.466 158.500 C 339.008 216.647, 411.613 347.315, 431.881 382.412 C 440.747 397.764, 447.988 410.589, 447.974 410.912 C 447.960 411.236, 445.621 413.075, 442.776 415 C 439.931 416.925, 434.020 421.983, 429.642 426.240 C 422.868 432.825, 421.443 433.795, 420.090 432.740 C 419.216 432.058, 403.200 418.189, 384.500 401.920 C 365.800 385.651, 327.100 352.222, 298.500 327.633 C 269.900 303.044, 246.077 282.307, 245.561 281.551 C 244.873 280.545, 246.148 278.527, 250.311 274.031 C 253.440 270.651, 256 267.566, 256 267.175 C 256 266.784, 251.378 261.858, 245.728 256.227 L 235.456 245.990 228.505 252.995 C 224.682 256.848, 221.164 260, 220.688 260 C 220.211 260, 215.359 256.070, 209.904 251.267 L 199.987 242.534 216.993 225.507 C 226.347 216.142, 234 208.193, 234 207.844 C 234 207.019, 209.132 179.595, 208.022 179.196 C 207.557 179.029, 198.587 187.297, 188.089 197.569 C 170.903 214.386, 168.827 216.110, 167.251 214.882 C 166.288 214.131, 155.680 205.188, 143.678 195.008 C 131.677 184.829, 121.484 176.365, 121.028 176.200 C 120.573 176.035, 113.562 185.710, 105.448 197.700 C 97.335 209.690, 85.775 226.384, 79.760 234.797 C 73.744 243.211, 69.047 250.681, 69.322 251.398 C 69.598 252.115, 100.575 271.377, 138.161 294.203 C 175.748 317.029, 226.300 347.753, 250.500 362.479 C 274.700 377.204, 319.700 404.351, 350.500 422.805 C 381.300 441.258, 406.682 456.496, 406.904 456.666 C 407.126 456.835, 405.924 460.018, 404.233 463.737 C 401.064 470.707, 397 483.434, 397 486.389 C 397 487.310, 396.357 488.309, 395.572 488.611 C 394.786 488.912, 380.048 486.628, 362.822 483.534 C 215.384 457.058, 168.036 448.369, 167.329 447.662 C 167 447.334, 167.545 443.188, 168.540 438.449 C 170.074 431.139, 170.136 429.702, 168.951 428.969 C 166.802 427.641, 141.922 421.745, 141.260 422.406 C 140.939 422.728, 139.707 427.380, 138.523 432.745 C 137.339 438.110, 135.949 442.441, 135.435 442.369 C 125.958 441.041, 110 437.546, 110 436.799 C 110 435.530, 117.554 402.233, 119.478 395.020 C 120.282 392.006, 120.616 389.233, 120.220 388.857 C 118.901 387.606, 82.545 378.054, 81.875 378.783 C 81.512 379.177, 78.609 390.975, 75.424 405 C 72.238 419.025, 69.554 430.622, 69.460 430.772 C 69.366 430.921, 59.662 429.481, 47.895 427.571 C 16.315 422.445, 7.125 421, 6.109 421 C 5.607 421, 4.916 423.587, 4.573 426.750 C 3.225 439.185, 0 493.035, 0 503.104 L 0 513.767 35.250 514.359 C 78.683 515.089, 241.879 515.998, 329.603 515.999 L 394.707 516 395.343 523.250 C 395.911 529.723, 398.829 543.836, 400.482 548.107 C 400.921 549.240, 400.278 550.039, 398.302 550.817 C 396.761 551.423, 369.400 561.585, 337.500 573.398 C 288.210 591.651, 192.899 627.716, 185.098 631.064 C 183.777 631.632, 182.367 631.737, 181.966 631.298 C 181.564 630.859, 180.212 626.995, 178.961 622.712 C 177.710 618.429, 176.393 614.743, 176.034 614.521 C 175.403 614.131, 149.752 621.417, 148.049 622.470 C 147.586 622.756, 148.544 627.309, 150.178 632.587 C 151.812 637.865, 153.003 642.325, 152.825 642.497 C 152.255 643.046, 127.662 651.995, 127.416 651.743 C 127.287 651.609, 124.157 641.150, 120.462 628.500 C 116.767 615.850, 113.400 605.122, 112.982 604.660 C 112.563 604.198, 106.658 605.273, 99.860 607.049 C 93.062 608.825, 84.800 610.921, 81.500 611.707 C 78.200 612.493, 75.134 613.494, 74.688 613.930 C 73.905 614.696, 78.305 631.160, 85.625 654.851 C 87.554 661.094, 88.960 666.374, 88.749 666.584 C 88.426 666.907, 49.724 681.825, 34.828 687.367 L 30.157 689.106 32.466 694.303 C 39.510 710.153, 71.010 773, 71.911 773 C 72.496 773, 77.818 770.137, 83.738 766.638 C 89.657 763.138, 104.175 754.752, 116 748.001 C 171.094 716.548, 315.600 631.798, 384.875 590.312 C 399.932 581.295, 412.325 574.049, 412.416 574.209 C 414.165 577.298, 422.665 587.660, 428.024 593.236 C 431.861 597.228, 435 600.852, 435 601.288 C 435 601.725, 427.913 610.686, 419.250 621.201 C 382.657 665.621, 317.453 746.031, 296.500 772.577 C 293.750 776.061, 291.100 778.932, 290.611 778.956 C 290.122 778.980, 286.860 776.487, 283.362 773.416 C 279.864 770.345, 276.521 767.993, 275.933 768.189 C 275.346 768.385, 270.642 773.235, 265.482 778.967 L 256.099 789.390 263.659 796.445 L 271.219 803.500 263.017 813.750 C 258.506 819.387, 254.595 824, 254.326 824 C 254.056 824, 247.092 817.812, 238.850 810.250 C 230.608 802.688, 222.520 795.410, 220.876 794.079 L 217.889 791.658 209.870 799.579 C 205.460 803.935, 199.192 810.478, 195.940 814.118 L 190.028 820.736 209.928 838.585 L 229.827 856.434 223.566 864.467 C 203.406 890.333, 191.010 906.580, 191.005 907.143 C 191 907.749, 258.063 952.376, 262.654 954.821 C 264.706 955.913, 265.658 954.499, 282.570 925.234 C 334.010 836.221, 403.603 713.594, 442.457 643.500 C 450.079 629.750, 456.837 617.923, 457.476 617.217 C 458.410 616.185, 460.011 616.519, 465.679 618.931 C 469.552 620.579, 476.694 623.079, 481.549 624.486 C 486.405 625.893, 490.576 627.242, 490.818 627.484 C 491.059 627.726, 488.473 644.028, 485.070 663.712 C 481.668 683.395, 474.634 724.475, 469.440 755 C 456.380 831.751, 452.101 856.232, 451.669 856.665 C 451.465 856.868, 448.052 856.352, 444.084 855.518 C 432.724 853.128, 433.652 852.431, 430.516 865.703 C 428.995 872.139, 427.694 878.773, 427.625 880.444 L 427.500 883.482 437 885.578 C 442.225 886.731, 446.500 888.085, 446.500 888.587 C 446.500 889.089, 445.611 895.035, 444.524 901.800 L 442.547 914.099 438.595 913.432 C 436.422 913.064, 425.836 910.606, 415.072 907.968 C 404.307 905.331, 395.431 903.246, 395.348 903.336 C 395.264 903.426, 392.867 912.002, 390.021 922.394 C 385.894 937.464, 385.116 941.455, 386.174 942.113 C 387.354 942.847, 415.036 949.720, 430.250 953.057 C 434.362 953.959, 436 954.779, 436 955.937 C 436 956.827, 433.750 970.536, 431 986.400 C 428.250 1002.265, 426 1016.044, 426 1017.021 C 426 1019.032, 427.685 1019.258, 456 1021.047 C 465.075 1021.620, 477.450 1022.515, 483.500 1023.036 C 489.550 1023.557, 499.113 1023.987, 504.750 1023.991 L 515 1024 515.011 990.250 C 515.017 971.688, 515.237 952.225, 515.499 947 C 516.256 931.916, 518.333 632.310, 517.692 630.639 C 517.059 628.989, 518.464 628.570, 528.237 627.492 C 531.393 627.144, 537.852 625.824, 542.592 624.558 L 551.209 622.257 552.503 625.378 C 553.214 627.095, 560.791 648.300, 569.339 672.500 C 577.888 696.700, 592.368 737.425, 601.518 763 C 610.667 788.575, 620.792 817.027, 624.016 826.226 L 629.879 842.951 622.690 845.084 C 611.071 848.531, 611.654 846.906, 616.270 862.971 C 618.658 871.282, 620.805 877, 621.539 877 C 622.219 877, 626.711 875.860, 631.521 874.466 C 636.330 873.072, 640.382 872.060, 640.524 872.216 C 641.441 873.223, 649.049 896.352, 648.754 897.237 C 648.554 897.839, 638.514 901.109, 626.445 904.504 C 611.653 908.664, 604.408 911.150, 604.217 912.131 C 603.985 913.320, 606.227 923.943, 611.548 946.870 C 612.042 948.999, 612.487 949.178, 615.921 948.629 C 618.023 948.292, 629.258 945.313, 640.887 942.009 C 652.516 938.704, 662.404 936, 662.860 936 C 663.316 936, 668.552 949.066, 674.496 965.035 C 680.440 981.004, 685.608 994.258, 685.981 994.488 C 686.568 994.851, 764.689 958.566, 765.983 957.329 C 766.249 957.075, 764.842 953.859, 762.856 950.183 C 743.408 914.182, 717.734 866.936, 709.230 851.500 C 699.114 833.137, 685.059 807.512, 655.756 754 C 648.076 739.975, 634.911 716.350, 626.501 701.500 C 588.104 633.699, 576.002 611.945, 576.026 610.768 C 576.040 610.071, 578.391 607.925, 581.249 606 C 584.108 604.075, 589.867 599.092, 594.046 594.928 L 601.645 587.355 606.572 591.848 C 609.283 594.319, 622.075 605.578, 635 616.868 C 647.925 628.159, 665.475 643.515, 674 650.993 C 682.525 658.471, 702.325 675.578, 718 689.009 C 759.598 724.652, 777.456 740.219, 777.834 741.165 C 778.017 741.625, 775.574 744.956, 772.404 748.566 L 766.642 755.130 777.311 765.800 L 787.981 776.469 795.400 769.100 L 802.819 761.730 812.659 770.579 C 818.072 775.446, 822.612 779.669, 822.750 779.964 C 822.887 780.259, 815.349 787.846, 806 796.825 C 796.650 805.804, 789 813.494, 789 813.913 C 789 814.911, 814.909 844, 815.798 844 C 816.174 844, 825.061 835.429, 835.547 824.953 L 854.612 805.907 859.056 809.761 C 872.658 821.559, 902.277 846, 902.973 846 C 903.420 846, 909.565 837.563, 916.628 827.250 C 923.691 816.938, 935.232 800.436, 942.276 790.580 C 949.320 780.724, 954.884 772.139, 954.639 771.502 C 954.395 770.865, 947.514 766.281, 939.347 761.316 C 931.181 756.350, 905.150 740.450, 881.500 725.982 C 793.196 671.962, 655.809 588.955, 626.750 572.064 C 620.837 568.628, 616 565.618, 616 565.375 C 616 565.132, 617.071 562.811, 618.381 560.217 C 620.896 555.234, 627 537.013, 627 534.488 C 627 533.670, 627.433 533, 627.963 533 C 628.492 533, 653.355 537.540, 683.213 543.089 C 713.071 548.638, 763.942 557.792, 796.259 563.432 C 828.577 569.071, 855.303 573.970, 855.651 574.318 C 855.999 574.666, 855.513 578.830, 854.571 583.571 C 853.630 588.313, 853.083 592.416, 853.356 592.689 C 854.512 593.845, 881.365 600.031, 882.055 599.301 C 882.471 598.860, 883.555 594.675, 884.462 590 C 885.369 585.325, 886.274 581, 886.472 580.388 C 886.786 579.416, 901.685 581.260, 911.652 583.504 C 914.111 584.058, 914.573 581.034, 906.859 614.898 C 904.679 624.466, 903.256 632.645, 903.698 633.072 C 904.501 633.849, 939.010 644, 940.850 644 C 941.720 644, 948.028 619.557, 952.516 598.793 L 954.182 591.086 957.341 591.720 C 959.078 592.068, 973.325 594.437, 989 596.984 L 1017.500 601.615 1018.225 599.057 C 1019.645 594.048, 1023.986 529.127, 1024.346 507.500 C 1024.548 495.400, 1024.539 490.725, 1024.327 497.112 L 1023.941 508.723 1003.220 508.348 C 991.824 508.142, 903.097 507.513, 806.049 506.952 C 709.001 506.390, 629.486 505.819, 629.349 505.682 C 629.212 505.546, 628.379 500.574, 627.497 494.635 C 626.615 488.696, 625.056 481.144, 624.032 477.854 C 622.685 473.528, 622.492 471.754, 623.335 471.447 C 623.976 471.213, 634.400 467.383, 646.500 462.936 C 658.600 458.489, 676.375 452.003, 686 448.523 C 703.494 442.198, 720.170 435.943, 797.901 406.555 C 820.671 397.945, 839.841 391.109, 840.500 391.362 C 841.159 391.614, 842.750 395.462, 844.036 399.911 C 845.321 404.360, 846.760 408, 847.232 408 C 848.987 408, 873.532 400.750, 874.350 399.989 C 874.818 399.555, 874.016 395.084, 872.569 390.054 C 871.122 385.024, 870.163 380.546, 870.437 380.102 C 871.069 379.079, 894.954 370.621, 895.544 371.211 C 896.049 371.715, 908 411.889, 908 413.080 C 908 413.515, 908.428 414.996, 908.951 416.372 L 909.902 418.874 928.946 413.937 C 939.421 411.222, 948.218 409, 948.495 409 C 949.601 409, 948.717 405.465, 941.608 381.460 C 936.461 364.080, 934.563 356.301, 935.358 355.844 C 935.986 355.483, 949.100 350.371, 964.500 344.485 C 979.900 338.598, 992.620 333.673, 992.767 333.540 C 993.139 333.204, 985.850 317.862, 967.641 280.651 L 952.055 248.803 948.778 250.761 C 942.295 254.635, 925.761 264.159, 881.500 289.514 C 836.231 315.447, 777.782 349.323, 718.500 383.987 C 700.900 394.278, 677.725 407.795, 667 414.025 C 656.275 420.255, 639.494 430.229, 629.709 436.190 C 619.925 442.150, 611.542 447.133, 611.082 447.264 C 610.622 447.394, 608.174 444.698, 605.642 441.273 C 603.110 437.848, 597.858 431.698, 593.970 427.605 L 586.902 420.165 592.733 413.332 C 595.940 409.575, 616.753 384.450, 638.984 357.500 C 661.215 330.550, 688.895 297.025, 700.495 283 C 712.095 268.975, 724.202 254.241, 727.400 250.257 C 730.863 245.943, 733.676 243.288, 734.357 243.692 C 734.986 244.065, 738.063 246.583, 741.195 249.287 C 744.327 251.991, 747.366 254.045, 747.949 253.850 C 749.491 253.336, 767.002 233.684, 766.973 232.500 C 766.959 231.950, 763.810 228.800, 759.975 225.500 C 756.140 222.200, 753.002 219.127, 753.001 218.672 C 752.999 216.920, 769.269 198.048, 770.256 198.658 C 770.829 199.013, 778.932 206.209, 788.263 214.651 C 797.593 223.093, 805.535 230, 805.911 230 C 807.049 230, 833 203.417, 833 202.252 C 833 201.657, 831.054 199.444, 828.675 197.335 C 811.122 181.771, 795 166.710, 795 165.877 C 795 164.808, 801.074 156.652, 818.304 134.587 C 832.428 116.498, 832.528 116.341, 831.049 114.559 C 828.654 111.673, 760.981 67, 759.005 67 C 758.533 67, 756.821 69.363, 755.201 72.250 C 742.161 95.492, 652.026 253.234, 638.490 276.500 C 634.010 284.200, 626.606 297.250, 622.037 305.500 C 605.868 334.690, 566.721 403.517, 565.590 404.742 C 564.687 405.722, 562.759 405.252, 556.479 402.522 C 552.099 400.618, 544.769 398.070, 540.191 396.861 C 532.730 394.890, 531.921 394.447, 532.381 392.581 C 532.663 391.436, 535.194 377, 538.006 360.500 C 540.818 344, 545.094 319.475, 547.508 306 C 549.923 292.525, 554.194 268, 557 251.500 C 562.391 219.801, 570.668 172.284, 571.565 167.890 L 572.098 165.279 579.799 167.105 C 584.034 168.110, 587.985 168.947, 588.578 168.966 C 589.492 168.995, 596.083 143.681, 596.021 140.377 C 596.009 139.760, 592.063 138.453, 587.250 137.473 C 582.438 136.493, 578.149 135.388, 577.720 135.016 C 576.913 134.317, 580.766 110.045, 581.882 108.794 C 582.376 108.240, 608.666 113.998, 626.250 118.511 C 627.763 118.899, 629 118.971, 629 118.671 C 629 118.372, 631.250 110.013, 634 100.098 C 636.750 90.183, 639 81.642, 639 81.120 C 639 80.167, 613.113 73.617, 596.750 70.430 C 589.551 69.028, 588 68.401, 588 66.893 C 588 64.692, 594.429 23.771, 596.531 12.592 C 597.349 8.243, 597.805 4.472, 597.546 4.212 C 596.780 3.446, 535.628 0.073, 521.811 0.035 L 509.121 0 508.783 11.750 M 473 165.105 C 469.975 165.577, 459.308 167.169, 449.297 168.644 C 439.285 170.118, 430.572 171.646, 429.935 172.040 C 429.094 172.560, 430.063 178.996, 433.487 195.628 C 436.077 208.207, 441.244 233.705, 444.970 252.288 C 448.695 270.872, 452.037 286.371, 452.397 286.730 C 453.064 287.397, 488.626 282.130, 490.563 281.078 C 491.294 280.681, 490.147 264.229, 486.896 228.500 C 481.650 170.826, 480.948 164.746, 479.500 164.450 C 478.950 164.338, 476.025 164.633, 473 165.105 M 605.673 177.750 C 605.428 178.162, 601.325 190.650, 596.554 205.500 C 591.783 220.350, 583.810 244.791, 578.836 259.813 C 573.862 274.835, 570.014 287.347, 570.286 287.619 C 570.558 287.891, 576.567 290.284, 583.640 292.938 C 590.713 295.591, 598.877 298.715, 601.782 299.879 C 606.732 301.863, 607.104 301.886, 607.692 300.248 C 608.037 299.287, 614.157 285.675, 621.292 270 C 640.984 226.737, 654 197.114, 654 195.557 C 654 194.187, 640.501 188.465, 618.631 180.565 C 608.479 176.898, 606.441 176.455, 605.673 177.750 M 303.315 230.669 C 287.178 242.877, 272 255.170, 272 256.034 C 272 257.061, 276.131 261.987, 308.451 299.500 C 339.258 335.257, 348.182 345.406, 349.185 345.827 C 349.797 346.084, 372.528 328.175, 378.834 322.468 C 379.921 321.484, 376.991 316.656, 363.005 296.380 C 353.566 282.696, 338.568 260.813, 329.677 247.750 C 320.785 234.688, 313.200 224, 312.821 224 C 312.441 224, 308.164 227.001, 303.315 230.669 M 734.500 291.637 C 721.300 303.525, 702.175 320.680, 692 329.760 C 681.825 338.839, 673.366 346.610, 673.202 347.029 C 673.037 347.448, 677.537 353.385, 683.202 360.223 C 688.866 367.061, 694.625 374.058, 696 375.771 L 698.500 378.885 713.500 367.865 C 729.242 356.300, 739.879 348.625, 772 325.655 C 782.725 317.985, 791.804 311.241, 792.175 310.667 C 792.546 310.094, 792.257 308.777, 791.531 307.741 C 788.513 303.432, 759.885 270.001, 759.222 270.011 C 758.825 270.017, 747.700 279.749, 734.500 291.637 M 475.201 320.434 C 468.437 321.679, 462.540 323.103, 462.095 323.599 C 460.961 324.864, 471.353 370.284, 472.894 370.798 C 473.979 371.160, 490.790 368.594, 495.063 367.415 C 496.452 367.032, 496.284 364.279, 493.563 342.752 C 491.131 323.512, 490.191 318.485, 489 318.345 C 488.175 318.249, 481.966 319.189, 475.201 320.434 M 557.077 333.801 C 552.077 350.086, 545.978 371.316, 546.246 371.500 C 546.967 371.993, 568.100 379, 568.868 379 C 569.363 379, 570.801 376.413, 572.065 373.250 C 573.328 370.087, 577.445 360.112, 581.212 351.081 C 584.980 342.051, 587.711 334.320, 587.281 333.901 C 586.852 333.482, 580.550 331.106, 573.277 328.621 L 560.054 324.103 557.077 333.801 M 385.750 362.593 C 379.837 367.314, 375 371.593, 375 372.101 C 375 373.848, 407.225 409.103, 408.546 408.802 C 409.274 408.636, 413.745 405.192, 418.483 401.148 C 427.039 393.845, 427.086 393.780, 425.488 391.341 C 421.409 385.116, 397.844 354, 397.212 354.004 C 396.820 354.007, 391.663 357.872, 385.750 362.593 M 194.866 368.634 C 187.264 385.402, 178.779 406.778, 178.646 409.500 L 178.500 412.500 200 419.729 C 211.825 423.705, 236.666 432.142, 255.202 438.479 C 273.738 444.815, 289.099 450, 289.337 450 C 289.850 450, 304 414.569, 304 413.284 C 304 412.799, 295.113 408.175, 284.250 403.008 C 273.387 397.840, 249.718 386.500, 231.650 377.806 C 213.583 369.113, 198.592 362, 198.338 362 C 198.083 362, 196.521 364.986, 194.866 368.634 M 629 389.441 C 619.375 398.466, 611.500 406.305, 611.500 406.861 C 611.500 407.416, 615.042 411.968, 619.371 416.977 C 626.429 425.144, 627.429 425.951, 629.060 424.792 C 637.519 418.784, 666 396.594, 666 396.012 C 666 395.334, 647.270 372.979, 646.733 373.016 C 646.605 373.025, 638.625 380.416, 629 389.441 M 815.500 434.075 C 797.900 437.883, 773.293 443.249, 760.817 445.999 C 748.342 448.750, 737.415 451, 736.536 451 C 735.657 451, 734.720 451.566, 734.454 452.259 C 733.942 453.594, 739.597 490.930, 740.439 491.772 C 740.711 492.044, 750.286 491.301, 761.717 490.121 C 773.148 488.941, 799.150 486.363, 819.500 484.392 C 839.850 482.421, 856.894 480.436, 857.375 479.980 C 858.274 479.127, 856.497 464.695, 852.945 444 C 850.139 427.655, 849.972 426.992, 848.671 427.076 C 848.027 427.117, 833.100 430.267, 815.500 434.075 M 333.564 436.250 C 330.221 444.395, 324.890 460.223, 325.338 460.672 C 326.200 461.533, 370.418 475.027, 371.356 474.715 C 372.640 474.287, 380.086 452.675, 379.223 451.881 C 378.117 450.865, 337.192 433, 335.970 433 C 335.381 433, 334.298 434.462, 333.564 436.250 M 672.756 466.363 C 647.634 472.298, 649.990 469.915, 652.847 486.500 L 654.569 496.500 659.035 496.181 C 668.142 495.529, 702.209 491.125, 702.813 490.521 C 703.409 489.924, 699.262 463.317, 698.329 461.750 C 697.633 460.582, 695.926 460.890, 672.756 466.363 M 0.397 500 C 0.397 507.975, 0.553 511.238, 0.743 507.250 C 0.932 503.262, 0.932 496.738, 0.743 492.750 C 0.553 488.762, 0.397 492.025, 0.397 500 M 366 525.618 C 365.175 525.768, 354.825 527.109, 343 528.597 C 331.175 530.086, 321.147 531.611, 320.716 531.986 C 319.855 532.735, 323.794 558.049, 325.101 560.163 C 325.746 561.208, 330.773 560.271, 349.509 555.614 L 373.104 549.750 372.590 547.125 C 372.308 545.681, 371.322 540.450, 370.399 535.500 C 368.600 525.857, 368.307 525.199, 366 525.618 M 258.500 532.612 C 245.850 533.918, 219.808 536.544, 200.629 538.447 C 181.449 540.351, 165.594 542.073, 165.394 542.273 C 165.004 542.663, 172.692 591.656, 173.472 593.750 C 173.728 594.438, 174.704 595, 175.641 595 C 176.577 595, 196.279 590.752, 219.422 585.559 C 242.565 580.367, 267.350 574.936, 274.500 573.490 C 281.650 572.045, 287.985 570.712, 288.579 570.528 C 289.302 570.304, 288.579 563.654, 286.383 550.347 C 284.582 539.431, 283.084 530.388, 283.054 530.250 C 283.024 530.112, 282.663 530.054, 282.250 530.119 C 281.837 530.185, 271.150 531.306, 258.500 532.612 M 650.971 549.338 C 645.679 561.967, 643.308 569.603, 644.353 570.657 C 646.303 572.623, 687.310 590.095, 688.048 589.274 C 689.084 588.121, 696.952 567.490, 697.609 564.203 C 698.165 561.424, 698.013 561.311, 690.839 559.173 C 686.803 557.971, 676.385 554.779, 667.688 552.081 C 651.917 547.189, 651.875 547.182, 650.971 549.338 M 726.205 591.174 C 722.192 601.149, 719.267 609.665, 719.705 610.099 C 720.142 610.533, 728.150 614.448, 737.500 618.800 C 746.850 623.151, 770.434 634.266, 789.909 643.499 C 821.416 658.437, 825.449 660.107, 826.510 658.655 C 828.763 655.574, 844.247 615.619, 844.373 612.560 L 844.500 609.500 790.500 591.326 C 760.800 581.331, 735.825 573.127, 735 573.096 C 733.973 573.056, 731.200 578.757, 726.205 591.174 M 376.290 610.287 C 366.275 618.104, 358.063 625.047, 358.040 625.716 C 358 626.931, 370.967 642.888, 374.778 646.312 C 376.759 648.092, 377.089 647.840, 393.647 631.918 C 402.916 623.005, 410.500 615.140, 410.500 614.441 C 410.500 613.092, 396.204 595.974, 395.131 596.037 C 394.784 596.058, 386.306 602.471, 376.290 610.287 M 605.623 620.070 C 600.880 623.958, 597.011 627.671, 597.025 628.320 C 597.056 629.775, 624.180 667.227, 625.529 667.676 C 626.820 668.106, 647.500 650.804, 647.500 649.294 C 647.500 647.893, 616.360 613, 615.109 613 C 614.634 613, 610.366 616.181, 605.623 620.070 M 452.721 644.750 C 452.439 645.712, 448.376 655.870, 443.691 667.323 L 435.173 688.145 439.337 689.906 C 447.525 693.370, 462.877 698.456, 463.441 697.892 C 464.469 696.864, 477.043 652.555, 476.620 651.452 C 476.277 650.558, 455.831 642.952, 453.867 642.988 C 453.518 642.995, 453.003 643.788, 452.721 644.750 M 313.500 651.654 C 302.170 660.175, 250.497 697.793, 238.774 706.055 C 234.525 709.050, 231.038 711.950, 231.026 712.500 C 231.002 713.579, 251.314 737.947, 260.155 747.445 L 265.562 753.254 281.031 738.856 C 289.539 730.938, 306.381 715.468, 318.459 704.479 C 330.536 693.491, 342.847 682.244, 345.816 679.487 L 351.216 674.474 338.554 659.487 C 331.589 651.244, 325.353 644.418, 324.696 644.317 C 324.038 644.216, 319 647.518, 313.500 651.654 M 539 652.278 C 532.675 653.344, 527.351 654.354, 527.169 654.523 C 526.829 654.837, 531.900 700.613, 532.495 702.604 C 532.725 703.372, 537.137 703.015, 547.001 701.432 C 554.798 700.180, 561.380 698.954, 561.627 698.707 C 561.874 698.459, 559.809 688.317, 557.038 676.167 C 554.267 664.017, 552 653.411, 552 652.597 C 552 651.784, 551.663 650.943, 551.250 650.728 C 550.837 650.514, 545.325 651.211, 539 652.278 M 658.278 688.283 C 649.905 695.002, 643.216 700.950, 643.413 701.500 C 643.610 702.050, 650.700 712.400, 659.169 724.500 C 667.639 736.600, 682.051 757.550, 691.197 771.056 C 700.344 784.561, 708.490 796.161, 709.299 796.834 C 710.517 797.844, 713.082 796.276, 724.136 787.760 C 744.295 772.230, 751 766.734, 751 765.741 C 751 764.657, 745.436 758.079, 705.549 712 C 688.647 692.475, 674.522 676.402, 674.159 676.283 C 673.797 676.163, 666.650 681.563, 658.278 688.283 M 394.229 770.753 C 382.061 798.117, 371.392 822.211, 370.521 824.296 L 368.938 828.085 373.219 829.978 C 382.722 834.181, 415.456 846.058, 416.794 845.789 C 418.564 845.432, 454.351 735.951, 453.105 734.705 C 452.228 733.828, 418.594 721, 417.171 721 C 416.722 721, 406.398 743.389, 394.229 770.753 M 548.500 737.764 C 539.700 739.146, 532.370 740.383, 532.211 740.511 C 532.052 740.639, 533.518 757.564, 535.468 778.122 C 537.418 798.680, 539.902 824.905, 540.989 836.399 C 542.076 847.894, 543.134 857.467, 543.339 857.672 C 543.959 858.292, 592.437 850.922, 593.304 850.077 C 593.746 849.645, 589.133 824.043, 583.054 793.183 C 576.974 762.323, 572 736.608, 572 736.037 C 572 734.530, 566.517 734.933, 548.500 737.764" stroke="none" fill="currentColor" fill-rule="evenodd"/>
	<path fill-opacity="0.380" d="M 508.688 57.250 C 508.336 88.737, 507.521 177.050, 506.876 253.500 C 506.231 329.950, 505.577 392.656, 505.422 392.846 C 505.267 393.037, 501.514 393.631, 497.082 394.167 C 492.650 394.703, 485.159 396.173, 480.435 397.435 L 471.847 399.728 471.060 397.614 C 470.627 396.451, 463.630 377.050, 455.510 354.500 C 447.391 331.950, 437.165 303.600, 432.786 291.500 C 428.407 279.400, 419.051 253.075, 411.995 233 C 404.938 212.925, 397.766 192.724, 396.056 188.110 C 394.346 183.495, 393.071 179.619, 393.223 179.496 C 393.376 179.373, 397.212 178.049, 401.750 176.554 C 406.288 175.059, 410 173.577, 410 173.261 C 410 172.945, 408.370 166.497, 406.377 158.933 L 402.754 145.181 398.127 146.559 C 395.582 147.317, 391.267 148.611, 388.538 149.434 C 384.803 150.562, 383.397 150.642, 382.851 149.759 C 381.457 147.504, 373.777 124.890, 374.245 124.421 C 374.506 124.161, 384.703 121.088, 396.907 117.593 C 409.110 114.098, 419.354 110.979, 419.672 110.662 C 420.399 109.935, 412.158 74.818, 410.975 73.600 C 410.461 73.071, 399.906 75.642, 385.344 79.844 C 371.727 83.772, 360.248 86.648, 359.833 86.233 C 359.250 85.650, 347.507 54.663, 338.790 30.705 C 338.230 29.167, 337.439 28.042, 337.032 28.205 C 329.747 31.110, 258 65.657, 258 66.259 C 258 66.723, 264.691 79.342, 272.869 94.301 C 281.047 109.261, 299.115 142.425, 313.021 168 C 355.674 246.447, 415.155 353.081, 443.881 402.600 C 446.147 406.505, 448 410.116, 448 410.624 C 448 411.133, 445.413 413.435, 442.250 415.741 C 439.087 418.048, 433.155 423.305, 429.066 427.426 L 421.633 434.917 414.566 428.634 C 402.545 417.946, 355.270 376.916, 316.500 343.523 C 296.150 325.996, 272.022 305.213, 262.882 297.339 C 253.742 289.465, 245.786 282.447, 245.202 281.743 C 244.404 280.782, 245.627 278.800, 250.115 273.779 L 256.090 267.094 246.349 257.047 C 240.991 251.521, 236.075 247, 235.425 247 C 234.774 247, 231.238 250.184, 227.567 254.076 L 220.892 261.152 216.696 257.657 C 214.388 255.735, 209.575 251.459, 206 248.156 L 199.500 242.150 216.702 224.825 L 233.904 207.500 220.781 193.180 L 207.659 178.860 188.427 198.072 L 169.196 217.285 144.922 196.619 C 131.571 185.252, 120.347 176.301, 119.980 176.726 C 119.613 177.152, 112.336 187.850, 103.809 200.500 C 95.282 213.150, 83.971 229.575, 78.673 237 C 73.374 244.425, 69.031 250.801, 69.020 251.168 C 69.009 251.536, 70.463 252.722, 72.250 253.804 C 111.952 277.828, 189.650 325.038, 241 356.337 C 259.975 367.903, 304.972 395.093, 340.993 416.759 C 377.014 438.426, 406.672 456.338, 406.898 456.565 C 407.125 456.791, 406.019 460.015, 404.441 463.728 C 402.862 467.442, 400.363 474.759, 398.887 479.990 C 396.418 488.741, 396.016 489.480, 393.852 489.243 C 390.459 488.873, 359.202 483.289, 221.500 458.450 C 191.800 453.093, 167.202 448.438, 166.837 448.105 C 166.473 447.772, 167.024 443.675, 168.063 439 C 169.102 434.325, 169.963 430.218, 169.976 429.874 C 169.989 429.529, 164.262 427.823, 157.250 426.083 C 150.237 424.342, 143.783 422.703, 142.906 422.441 C 141.610 422.053, 140.881 423.931, 139.004 432.482 C 137.734 438.267, 136.427 442.998, 136.098 442.996 C 135.092 442.990, 109.598 437.932, 109.358 437.691 C 109.234 437.567, 111.592 426.922, 114.598 414.037 C 117.604 401.151, 119.871 390.107, 119.637 389.495 C 119.128 388.171, 83.282 378.384, 82.351 379.316 C 81.734 379.933, 76.616 400.702, 72.018 421.250 C 70.357 428.672, 69.449 431, 68.216 431 C 66.908 431, 18.237 423.381, 7.750 421.534 C 5.477 421.134, 5 421.410, 5 423.127 C 5 425.234, 2.821 457.312, 0.998 482.034 C 0.449 489.477, 0 499.646, 0 504.631 L -0 513.695 84.750 514.373 C 131.362 514.745, 220.125 515.299, 282 515.603 L 394.500 516.156 395.757 524.828 C 396.448 529.598, 397.949 537.249, 399.092 541.832 C 400.235 546.414, 401.019 550.275, 400.835 550.412 C 400.651 550.549, 396.900 551.913, 392.500 553.443 C 374.855 559.580, 278.893 595.516, 219 618.415 C 199.475 625.880, 183.040 631.990, 182.479 631.994 C 181.917 631.997, 180.241 628.004, 178.754 623.121 L 176.051 614.241 162.775 618.224 C 155.474 620.415, 149.126 622.558, 148.668 622.986 C 148.211 623.414, 149.073 627.882, 150.583 632.917 C 152.202 638.309, 152.954 642.395, 152.415 642.861 C 150.384 644.616, 127.817 652.210, 127.086 651.384 C 126.656 650.898, 125.100 646.225, 123.629 641 C 118.925 624.298, 113.139 604.806, 112.778 604.445 C 112.433 604.100, 75.039 613.627, 74.459 614.208 C 74.295 614.371, 77.292 625.079, 81.119 638.003 C 84.947 650.926, 88.173 662.801, 88.289 664.391 L 88.500 667.282 59.738 678.317 C 33.206 688.497, 31.028 689.513, 31.632 691.426 C 32.287 693.499, 68.535 767.838, 70.613 771.369 C 71.629 773.095, 73.150 772.404, 90.606 762.284 C 100.998 756.260, 123.450 743.306, 140.500 733.497 C 192.688 703.472, 302.877 638.734, 371 598.075 C 392.725 585.109, 410.975 574.371, 411.555 574.214 C 412.135 574.057, 414.149 576.082, 416.031 578.714 C 417.913 581.346, 423.235 587.432, 427.857 592.238 L 436.261 600.975 432.395 605.738 C 430.269 608.357, 420.181 620.625, 409.978 633 C 388.062 659.581, 371.587 679.818, 348.515 708.500 C 292.649 777.951, 290.832 780.100, 289.125 778.785 C 288.231 778.097, 285.081 775.370, 282.124 772.726 C 275.831 767.097, 277.442 766.391, 264.654 780.387 L 256.534 789.273 263.767 796.049 C 267.745 799.775, 271 803.133, 271 803.510 C 271 803.886, 267.309 808.840, 262.798 814.516 L 254.596 824.838 251.582 822.302 C 249.925 820.907, 241.865 813.631, 233.671 806.133 C 225.478 798.635, 218.475 792.500, 218.110 792.500 C 217.745 792.500, 211.432 798.694, 204.082 806.265 C 190.757 819.990, 190.723 820.037, 192.609 822.139 C 193.649 823.299, 202.484 831.440, 212.243 840.231 C 222.977 849.901, 229.714 856.665, 229.297 857.357 C 228.918 857.986, 220.372 869.141, 210.304 882.146 C 200.237 895.151, 192 906.310, 192 906.942 C 192 907.575, 205.837 917.200, 222.750 928.332 C 264.256 955.651, 263.942 955.458, 265.114 954.286 C 266.155 953.245, 270.462 945.787, 322.159 855.500 C 369.536 772.759, 392.780 731.758, 424.489 675 C 440.314 646.675, 454.326 621.621, 455.628 619.325 L 457.996 615.151 465.748 618.509 C 470.012 620.356, 477.523 623.032, 482.439 624.456 C 487.355 625.880, 491.460 627.147, 491.559 627.272 C 491.659 627.398, 489.322 641.450, 486.366 658.500 C 483.411 675.550, 477.600 709.525, 473.453 734 C 465.072 783.462, 454.461 844.763, 452.926 852.581 L 451.928 857.662 443.304 855.791 C 438.560 854.763, 434.351 854.276, 433.950 854.711 C 433.549 855.145, 432.024 860.675, 430.562 867 C 429.099 873.325, 427.660 879.473, 427.364 880.663 C 426.865 882.673, 427.542 882.986, 436.913 885.079 C 442.461 886.317, 447 887.769, 447 888.304 C 447 890.095, 442.896 913.360, 442.453 914.075 C 442.214 914.463, 439.426 914.163, 436.259 913.407 C 433.091 912.652, 422.967 910.226, 413.760 908.017 C 404.553 905.808, 396.610 904, 396.110 904 C 395.609 904, 394.637 906.363, 393.949 909.250 C 393.261 912.138, 390.974 920.546, 388.867 927.935 C 386.760 935.324, 385.173 941.506, 385.340 941.673 C 385.638 941.971, 427.425 952.166, 433.711 953.474 C 436.532 954.061, 436.864 954.467, 436.447 956.821 C 431.714 983.542, 425.932 1018.257, 426.179 1018.474 C 426.355 1018.630, 434.825 1019.288, 445 1019.935 C 455.175 1020.583, 471.821 1021.763, 481.990 1022.556 C 492.160 1023.350, 503.676 1024, 507.582 1024 L 514.683 1024 515.345 941.250 C 515.708 895.737, 516.301 806.693, 516.661 743.374 L 517.316 628.247 524.714 627.577 C 528.783 627.208, 536.443 625.808, 541.735 624.465 C 547.028 623.123, 551.522 622.188, 551.722 622.388 C 551.922 622.589, 560.341 646.096, 570.430 674.626 C 580.519 703.157, 595.623 745.625, 603.995 769 C 626.229 831.086, 630.040 842.126, 629.527 842.956 C 629.273 843.367, 625.451 844.733, 621.033 845.991 C 616.615 847.249, 613 848.747, 613 849.320 C 613 851.038, 620.116 875.444, 620.835 876.190 C 621.201 876.570, 625.675 875.720, 630.777 874.301 C 635.880 872.882, 640.315 871.982, 640.635 872.301 C 641.958 873.625, 649.915 897.480, 649.237 898.093 C 648.832 898.461, 638.640 901.513, 626.588 904.875 C 614.537 908.238, 604.488 911.178, 604.258 911.409 C 603.429 912.238, 612.414 949, 613.445 948.996 C 614.563 948.991, 659.392 936.582, 662.079 935.534 C 663.366 935.031, 665.662 940.301, 674.504 964.057 C 680.470 980.084, 685.862 993.394, 686.488 993.634 C 687.339 993.960, 760.683 960.168, 765.253 957.344 C 765.702 957.066, 763.504 952.038, 760.370 946.170 C 754.271 934.754, 703.281 841.323, 685.509 809 C 679.612 798.275, 668.147 777.340, 660.032 762.477 C 651.917 747.614, 637.287 721.289, 627.522 703.977 C 617.757 686.665, 602.790 660.125, 594.263 645 C 585.735 629.875, 577.912 616.012, 576.879 614.193 C 575.846 612.374, 575 610.729, 575 610.537 C 575 610.345, 577.289 608.543, 580.086 606.533 C 582.884 604.524, 588.928 599.274, 593.518 594.867 L 601.864 586.855 609.406 593.849 C 617.356 601.220, 670.722 647.835, 703.888 676.379 C 755.295 720.622, 779 741.303, 779 741.907 C 779 742.271, 776.525 745.013, 773.500 748 C 770.475 750.987, 768 753.905, 768 754.485 C 768 755.064, 772.498 760.019, 777.996 765.496 L 787.992 775.454 794.771 768.727 C 798.500 765.027, 801.989 762.002, 802.525 762.005 C 803.328 762.010, 816.475 773.214, 821.977 778.584 C 823.272 779.848, 821.343 782.147, 806.311 797.263 L 789.168 814.500 802.322 829.253 L 815.475 844.006 834.497 825.003 C 844.959 814.551, 853.880 806, 854.321 806 C 854.762 806, 865.782 814.982, 878.811 825.959 C 901.003 844.657, 902.604 845.810, 904.143 844.209 C 905.046 843.269, 910.866 835.075, 917.076 826 C 923.287 816.925, 934.406 801.019, 941.787 790.653 C 949.167 780.287, 954.822 771.458, 954.353 771.033 C 953.884 770.607, 943.150 763.970, 930.500 756.283 C 917.850 748.596, 891.075 732.259, 871 719.980 C 785.538 667.704, 657.528 590.392, 627.753 573.072 C 621.843 569.633, 616.781 566.455, 616.506 566.009 C 616.230 565.563, 617.337 562.067, 618.966 558.239 C 620.595 554.411, 623.079 547.306, 624.486 542.451 C 625.893 537.595, 627.265 533.402, 627.534 533.133 C 628.055 532.612, 636.557 534.066, 679.500 542.021 C 730.079 551.390, 771.442 558.809, 813.500 566.054 C 836.600 570.033, 855.814 573.562, 856.198 573.895 C 856.582 574.228, 856.043 578.325, 855 583 C 853.957 587.675, 853.418 591.800, 853.802 592.166 C 855.207 593.506, 881.517 599.744, 882.070 598.868 C 882.383 598.371, 883.452 593.653, 884.445 588.382 C 886.228 578.912, 886.280 578.806, 888.875 579.312 C 890.319 579.594, 896.563 580.627, 902.750 581.606 C 908.938 582.586, 913.995 583.863, 913.990 584.444 C 913.984 585.025, 911.560 596.075, 908.602 609 C 905.644 621.925, 903.375 632.665, 903.561 632.866 C 904.057 633.403, 941.242 644.105, 941.475 643.778 C 941.873 643.219, 952.082 599.386, 952.666 595.726 C 952.998 593.650, 953.614 591.738, 954.036 591.478 C 954.457 591.217, 968.831 593.294, 985.978 596.092 C 1003.125 598.890, 1017.341 600.992, 1017.570 600.763 C 1017.994 600.340, 1019.746 580.373, 1022.492 544.667 C 1023.331 533.759, 1024.176 516.884, 1024.369 507.167 C 1024.563 497.450, 1024.543 493.930, 1024.325 499.344 L 1023.928 509.188 943.214 508.461 C 898.821 508.062, 809.850 507.457, 745.500 507.117 L 628.500 506.500 627.742 498.845 C 627.325 494.635, 625.868 486.792, 624.504 481.416 C 623.140 476.041, 622.131 471.561, 622.262 471.461 C 622.393 471.361, 628.800 468.993, 636.500 466.197 C 662.021 456.933, 718.328 436.227, 729.500 431.998 C 807.957 402.303, 837.824 391.122, 839.446 390.839 C 841.091 390.553, 841.809 391.818, 844.075 399 C 845.550 403.675, 847.149 407.448, 847.628 407.383 C 849.923 407.077, 872.930 400.662, 873.911 400.055 C 874.699 399.568, 874.171 396.468, 872.132 389.607 L 869.231 379.852 871.366 378.938 C 877.029 376.514, 895.459 370.126, 895.802 370.468 C 896.016 370.682, 899.201 381.218, 902.881 393.881 C 906.560 406.544, 909.853 417.187, 910.199 417.532 C 910.876 418.209, 947.031 409.293, 948.214 408.157 C 948.607 407.780, 945.538 396.057, 941.394 382.106 C 937.250 368.155, 934.229 356.385, 934.680 355.950 C 935.131 355.516, 948.100 350.350, 963.500 344.471 C 978.900 338.592, 991.673 333.620, 991.885 333.423 C 992.096 333.225, 991.677 331.587, 990.953 329.782 C 988.254 323.055, 952.131 250, 951.503 250 C 951.144 250, 938.846 256.917, 924.175 265.371 C 909.504 273.825, 877.925 291.997, 854 305.755 C 775.275 351.023, 650.580 423.790, 626.505 438.513 L 610.546 448.272 608.523 445.461 C 603.846 438.961, 591.554 424.754, 589.366 423.320 C 588.065 422.468, 587 421.354, 587 420.846 C 587 420.337, 600.612 403.438, 617.250 383.291 C 633.888 363.145, 657.400 334.657, 669.500 319.986 C 681.600 305.315, 699.825 283.223, 710 270.894 C 720.175 258.565, 729.465 247.245, 730.644 245.739 C 731.823 244.233, 733.122 243, 733.531 243 C 733.940 243, 737.195 245.493, 740.764 248.540 C 748.337 255.005, 746.481 255.693, 759.305 241.658 L 767.384 232.816 759.683 225.658 L 751.981 218.500 760.241 208.271 C 764.783 202.645, 769.030 198.145, 769.678 198.271 C 770.325 198.397, 778.584 205.475, 788.030 214 C 797.476 222.525, 805.536 229.626, 805.940 229.779 C 806.345 229.933, 812.686 223.701, 820.031 215.929 C 833.174 202.025, 833.353 201.774, 831.293 200.150 C 826.992 196.760, 794 166.596, 794.006 166.059 C 794.009 165.752, 799.227 158.750, 805.600 150.500 C 824.710 125.762, 832 116.124, 832 115.595 C 832 114.279, 759.330 66.309, 758.568 67.123 C 758.374 67.330, 754.168 74.700, 749.222 83.500 C 739.601 100.616, 661.509 237.299, 639.524 275.500 C 632.244 288.150, 621.655 306.825, 615.992 317 C 606.063 334.842, 576.830 386.438, 568.864 400.183 L 564.990 406.865 557.745 403.524 C 553.760 401.686, 546.495 399.024, 541.600 397.608 C 536.705 396.191, 532.508 394.841, 532.274 394.607 C 531.843 394.176, 539.037 351.399, 548.015 301 C 552.645 275.008, 563.116 214.462, 568.681 181.500 C 570.074 173.250, 571.503 166.186, 571.857 165.802 C 572.211 165.418, 576.243 165.938, 580.817 166.958 C 586.874 168.309, 589.247 168.499, 589.550 167.657 C 590.762 164.287, 595.835 140.541, 595.469 139.950 C 595.233 139.568, 590.981 138.468, 586.020 137.504 C 578.395 136.023, 577 135.455, 577 133.829 C 577 131.319, 581.055 108.629, 581.604 108.071 C 582.047 107.620, 621.892 116.679, 625.715 118.100 C 626.933 118.553, 628.152 118.563, 628.425 118.122 C 628.995 117.198, 637.712 85.462, 638.185 82.583 C 638.458 80.924, 637.022 80.289, 627.500 77.857 C 621.450 76.311, 609.975 73.644, 602 71.929 C 594.025 70.214, 587.410 68.725, 587.300 68.621 C 587.077 68.412, 591.658 38.821, 595.099 18.241 C 596.319 10.949, 597.128 4.795, 596.898 4.565 C 596.282 3.948, 527.940 -0.002, 517.913 -0.001 L 509.327 0 508.688 57.250 M 458 167.586 C 433.743 171.317, 429.471 172.285, 429.696 174.002 C 430.123 177.252, 452.235 286.522, 452.531 286.840 C 452.790 287.119, 464.269 285.363, 487.750 281.451 C 489.538 281.153, 491 280.330, 491 279.623 C 491 277.968, 485.672 218.887, 483.031 191.252 C 481.914 179.566, 481 168.879, 481 167.502 C 481 165.260, 480.611 165.010, 477.250 165.101 C 475.188 165.156, 466.525 166.274, 458 167.586 M 604.153 183.250 C 603.047 186.688, 595.135 210.943, 586.571 237.152 C 578.007 263.360, 571 285.468, 571 286.280 C 571 287.093, 572.237 288.237, 573.750 288.822 C 604.382 300.686, 606.315 301.290, 607.677 299.427 C 608.405 298.432, 609 297.249, 609 296.799 C 609 296.349, 615.808 281.022, 624.128 262.740 C 649.386 207.242, 654.236 195.836, 653.069 194.669 C 651.903 193.503, 650.105 192.778, 625.262 183.463 C 615.781 179.909, 607.605 177, 607.093 177 C 606.582 177, 605.258 179.813, 604.153 183.250 M 295.961 236.727 C 287.563 243.176, 278.711 250.264, 276.289 252.477 L 271.885 256.500 288.623 276 C 334.751 329.738, 349.280 346.015, 350.371 345.171 C 358.791 338.659, 379 321.657, 379 321.085 C 379 320.670, 373.712 312.610, 367.250 303.175 C 360.788 293.741, 346.110 272.291, 334.633 255.511 C 323.157 238.730, 313.195 225, 312.498 225 C 311.800 225, 304.358 230.277, 295.961 236.727 M 728.707 297.250 C 712.063 312.238, 692.727 329.614, 685.739 335.864 C 673.187 347.090, 673.055 347.254, 674.767 349.400 C 682.042 358.521, 698.338 378, 698.693 378 C 698.935 378, 708.520 371.137, 719.993 362.750 C 739.188 348.717, 750.559 340.522, 780.500 319.143 C 786.700 314.715, 791.500 310.585, 791.500 309.677 C 791.500 308.342, 760.397 270, 759.314 270 C 759.124 270, 745.351 282.262, 728.707 297.250 M 473.054 321.126 C 467.308 322.189, 462.384 323.283, 462.110 323.557 C 461.630 324.037, 471.624 369.957, 472.371 370.704 C 472.793 371.127, 495.126 367.208, 495.728 366.606 C 495.947 366.387, 494.838 355.698, 493.263 342.854 L 490.400 319.500 486.950 319.347 C 485.052 319.262, 478.799 320.063, 473.054 321.126 M 557.631 333.250 C 549.080 361.574, 547 368.785, 547 370.100 C 547 371.080, 550.439 372.729, 557.250 375.015 C 562.888 376.907, 567.945 378.465, 568.489 378.477 C 570.081 378.514, 587.903 334.609, 586.608 333.839 C 585.140 332.966, 562.015 325, 560.949 325 C 560.494 325, 559 328.712, 557.631 333.250 M 387.384 361.758 C 381.948 366.097, 376.949 370.322, 376.275 371.146 C 375.249 372.402, 377.672 375.561, 391.177 390.573 C 400.047 400.433, 407.700 408.500, 408.183 408.500 C 408.666 408.500, 413.076 405.156, 417.983 401.070 L 426.906 393.639 423.223 388.570 C 416.510 379.329, 398.803 355.514, 398.029 354.684 C 397.611 354.235, 392.820 357.418, 387.384 361.758 M 196.609 365.297 C 182.426 398.258, 177.466 410.799, 178.286 411.620 C 178.620 411.953, 184.655 414.164, 191.697 416.531 C 198.738 418.899, 223.175 427.173, 246 434.918 C 268.825 442.663, 288.010 449, 288.634 449 C 289.258 449, 293.020 440.845, 296.994 430.877 C 302.752 416.437, 303.944 412.579, 302.860 411.892 C 302.112 411.418, 301.212 411.024, 300.860 411.015 C 300.508 411.007, 282.733 402.621, 261.360 392.379 C 239.987 382.137, 216.985 371.134, 210.244 367.926 L 197.987 362.095 196.609 365.297 M 628.289 390.580 L 611.079 407.129 619.199 416.490 L 627.319 425.851 639.909 416.238 C 661.280 399.922, 665.001 396.868, 664.979 395.664 C 664.952 394.167, 648.170 374.576, 646.649 374.265 C 646.017 374.136, 637.755 381.478, 628.289 390.580 M 815.500 434.455 C 764.215 445.576, 734.544 452.122, 734.295 452.372 C 734.160 452.506, 734.915 457.765, 735.971 464.058 C 737.027 470.351, 738.413 479.186, 739.052 483.690 L 740.213 491.881 744.856 491.415 C 747.410 491.159, 762.325 489.632, 778 488.022 C 793.675 486.412, 816.625 484.173, 829 483.046 C 859.808 480.240, 858.188 480.601, 857.538 476.698 C 857.246 474.939, 855.898 466.216, 854.543 457.313 C 849.954 427.150, 850.166 427.988, 847.147 428.083 C 845.691 428.129, 831.450 430.997, 815.500 434.455 M 335 433.326 C 335 433.506, 332.739 439.645, 329.975 446.968 C 327.211 454.291, 325.074 460.389, 325.225 460.519 C 325.376 460.649, 335.400 463.799, 347.500 467.519 C 359.600 471.239, 370 474.468, 370.610 474.695 C 371.833 475.148, 379.387 454.450, 378.675 452.595 C 378.437 451.976, 368.779 447.313, 357.211 442.234 C 337.192 433.444, 335 432.565, 335 433.326 M 674.210 466.465 C 661.950 469.370, 651.694 471.973, 651.418 472.249 C 650.785 472.882, 654.469 494.803, 655.358 495.691 C 656.142 496.476, 703.001 490.983, 702.997 490.107 C 702.992 489.168, 700.065 472.124, 698.900 466.250 C 698.327 463.363, 697.553 461.041, 697.179 461.091 C 696.806 461.142, 686.469 463.560, 674.210 466.465 M 0.385 502 C 0.385 508.875, 0.545 511.688, 0.740 508.250 C 0.936 504.813, 0.936 499.188, 0.740 495.750 C 0.545 492.313, 0.385 495.125, 0.385 502 M 341.602 529.077 C 330.108 530.664, 320.585 532.083, 320.439 532.231 C 320.119 532.555, 324.917 560.250, 325.371 560.704 C 325.730 561.063, 370.812 550.234, 371.990 549.506 C 372.615 549.120, 370.797 538.077, 368.490 528.250 C 367.829 525.432, 368.056 525.425, 341.602 529.077 M 257.500 533.061 C 233.362 535.612, 168.741 542.018, 167.250 542.008 C 166.547 542.004, 166.007 543.203, 166.017 544.750 C 166.040 548.424, 173.581 593.914, 174.283 594.617 C 174.587 594.920, 187.134 592.389, 202.167 588.992 C 243.472 579.658, 283.853 571, 286.079 571 C 287.170 571, 288.294 570.396, 288.578 569.659 C 289.006 568.541, 287.679 559.366, 283.456 534.250 C 282.936 531.158, 282.705 531.006, 278.705 531.132 C 276.392 531.205, 266.850 532.073, 257.500 533.061 M 647.641 559.063 C 645.518 565.142, 643.957 570.290, 644.171 570.505 C 645.468 571.801, 686.454 589.037, 687.375 588.673 C 688.725 588.139, 698.488 563.155, 697.667 562.334 C 696.611 561.278, 654.553 547.991, 652.314 548.005 C 651.866 548.008, 649.763 552.984, 647.641 559.063 M 733.285 574.750 C 732.926 575.712, 729.597 583.925, 725.886 593 L 719.140 609.500 722.820 611.413 C 724.844 612.466, 736.850 618.157, 749.500 624.061 C 762.150 629.964, 783.075 639.833, 796 645.992 C 808.925 652.150, 820.924 657.811, 822.664 658.572 L 825.829 659.955 830.763 648.228 C 838.056 630.891, 845.421 611.087, 844.803 610.470 C 844.346 610.013, 735.138 573, 734.246 573 C 734.076 573, 733.644 573.788, 733.285 574.750 M 376.038 610.940 C 366.434 618.548, 358.444 625.167, 358.284 625.647 C 357.926 626.723, 374.799 646.405, 376.370 646.744 C 376.992 646.878, 385.138 639.639, 394.474 630.657 L 411.447 614.326 403.561 605.663 C 399.224 600.898, 395.186 597.024, 394.588 597.054 C 393.989 597.083, 385.642 603.332, 376.038 610.940 M 606 620.101 C 601.325 623.938, 597.556 627.695, 597.624 628.450 C 597.860 631.056, 625.179 668.006, 626.358 667.314 C 626.986 666.945, 632.100 662.845, 637.723 658.202 C 646.679 650.807, 647.794 649.547, 646.723 648.037 C 644.491 644.891, 615.610 612.999, 615.050 613.062 C 614.747 613.096, 610.675 616.263, 606 620.101 M 453.652 643.783 C 451.244 647.845, 436.118 687.518, 436.740 688.140 C 437.618 689.018, 461.526 698, 462.984 698 C 463.455 698, 464.147 696.609, 464.520 694.909 C 464.893 693.209, 467.846 682.775, 471.081 671.724 C 474.316 660.672, 476.788 651.455, 476.575 651.241 C 475.488 650.155, 454.017 643.168, 453.652 643.783 M 315.500 650.737 C 303.402 659.645, 250.683 698.004, 239.737 705.863 L 230.974 712.155 232.894 714.827 C 240.510 725.432, 264.446 752.359, 265.821 751.869 C 266.388 751.666, 276.899 742.239, 289.177 730.919 C 301.454 719.600, 320.050 702.558, 330.500 693.049 C 340.950 683.541, 349.618 675.252, 349.763 674.630 C 349.984 673.681, 331.602 651.194, 326.199 645.805 C 324.601 644.211, 323.963 644.505, 315.500 650.737 M 537.280 652.901 C 532.209 653.839, 527.874 654.808, 527.647 655.053 C 527.083 655.663, 532.623 701.957, 533.347 702.680 C 533.881 703.215, 559.740 699.279, 561.062 698.461 C 561.388 698.260, 559.262 687.611, 556.337 674.798 C 553.413 661.984, 551.016 651.388, 551.010 651.250 C 550.987 650.689, 545.994 651.290, 537.280 652.901 M 658.538 688.437 C 650.860 694.670, 644.413 700.262, 644.212 700.864 C 644.012 701.465, 651.451 712.880, 660.744 726.229 C 670.037 739.578, 684.741 760.962, 693.419 773.750 C 702.097 786.538, 709.716 797, 710.350 797 C 710.984 797, 718.066 791.938, 726.089 785.750 C 748.650 768.349, 750.912 766.543, 750.957 765.893 C 750.999 765.304, 721.461 730.751, 690.100 694.702 C 681.630 684.966, 674.205 677.023, 673.600 677.052 C 672.995 677.080, 666.217 682.204, 658.538 688.437 M 415.448 723.178 C 415.045 724.455, 404.654 748.155, 392.357 775.844 C 380.061 803.534, 370 826.621, 370 827.149 C 370 827.678, 372.363 829.139, 375.250 830.396 C 384.265 834.321, 417.035 846.299, 417.496 845.838 C 417.737 845.596, 421.056 835.747, 424.870 823.949 C 428.685 812.152, 436.574 787.838, 442.403 769.917 C 448.231 751.997, 453 736.690, 453 735.903 C 453 734.741, 435.554 727.576, 417.340 721.258 C 416.703 721.036, 415.851 721.900, 415.448 723.178 M 549.778 737.902 C 540.581 739.391, 532.849 740.817, 532.596 741.071 C 532.343 741.324, 532.542 744.899, 533.039 749.016 C 533.537 753.132, 536.020 779, 538.558 806.500 C 541.097 834, 543.387 856.715, 543.648 856.978 C 544.117 857.450, 587.410 851.490, 591.744 850.357 C 593.417 849.919, 593.854 849.233, 593.478 847.636 C 592.967 845.465, 573.825 748.235, 572.288 740 C 571.234 734.355, 571.519 734.382, 549.778 737.902" stroke="none" fill="currentColor" fill-rule="evenodd"/>
</svg>