<svg xmlns="http://www.w3.org/2000/svg" width="1024" height="1024" viewBox="0 0 1024 1024" version="1.1">
	<path fill-opacity="0.137" d="M 925.004 10.133 C 913.976 13.093, 906.509 17.473, 897.974 25.990 C 892.697 31.256, 889.196 35.890, 886.255 41.500 C 883.949 45.900, 882.048 48.907, 882.031 48.183 C 882.010 47.298, 881.302 47.087, 879.875 47.540 C 878.445 47.994, 877.973 47.852, 878.434 47.107 C 878.866 46.408, 878.175 46, 876.559 46 C 875.152 46, 874 46.450, 874 47 C 874 47.550, 873.325 48, 872.500 48 C 871.675 48, 871 48.450, 871 49 C 871 49.550, 873.526 50, 876.613 50 L 882.227 50 881.640 53.250 C 879.025 67.736, 880.100 83.363, 884.447 94.062 L 886.855 99.988 884.705 101.494 C 883.523 102.322, 881.315 103, 879.801 103 C 877.966 103, 876.499 103.835, 875.408 105.500 C 874.507 106.875, 873.147 108, 872.385 108 C 871.569 108, 871 109.043, 871 110.539 C 871 112.661, 871.229 112.867, 872.395 111.789 C 873.162 111.080, 873.540 110.050, 873.235 109.500 C 872.929 108.950, 873.058 108.844, 873.520 109.264 C 873.983 109.684, 875.720 108.784, 877.381 107.264 C 886.765 98.675, 858.290 128.412, 840.872 145.391 L 820.243 165.500 819.631 171.500 C 819.106 176.637, 819.211 177.251, 820.358 175.766 C 821.095 174.812, 822.052 174.362, 822.484 174.766 C 822.917 175.169, 822.723 174.449, 822.054 173.164 C 821.385 171.880, 820.994 170.673, 821.184 170.483 C 821.374 170.293, 827.658 176.181, 835.148 183.569 C 844.699 192.988, 849.456 197, 851.073 197 C 852.761 197, 859.692 190.568, 876.985 172.953 C 891.037 158.639, 901.180 149.061, 902.046 149.289 C 902.846 149.500, 903.135 149.474, 902.689 149.232 C 902.243 148.990, 902.640 147.950, 903.573 146.920 C 904.505 145.890, 905.668 145.295, 906.158 145.598 C 906.649 145.901, 906.926 145.553, 906.775 144.824 C 906.624 144.096, 907.096 143.624, 907.824 143.775 C 908.553 143.926, 908.912 143.666, 908.622 143.198 C 908.333 142.730, 910.950 139.519, 914.437 136.062 L 920.778 129.777 927.203 131.389 C 935.491 133.467, 951.312 133.486, 959.356 131.427 C 973.532 127.798, 987.525 118.364, 995.134 107.305 C 996.779 104.915, 998.434 103.150, 998.812 103.384 C 999.190 103.618, 999.576 102.839, 999.669 101.655 C 999.761 100.470, 1001.301 95.450, 1003.091 90.500 C 1006.006 82.437, 1006.348 80.355, 1006.378 70.500 C 1006.437 51.184, 1000.482 36.836, 987.202 24.297 C 975.614 13.355, 960.766 7.951, 942.590 8.061 C 935.800 8.101, 930.048 8.779, 925.004 10.133 M 62 21.698 C 61.175 21.995, 58.346 24.321, 55.713 26.868 C 51.715 30.735, 50.754 31.251, 49.887 29.999 C 48.981 28.692, 48.900 28.690, 49.252 29.985 C 49.784 31.936, 36.991 45.210, 35.230 44.535 C 34.475 44.245, 34.175 44.475, 34.540 45.065 C 34.894 45.637, 34.242 46.923, 33.092 47.920 C 31.736 49.096, 31 50.930, 31 53.133 C 31 56.079, 32.330 57.910, 41 66.901 L 51 77.271 51 85.694 C 51 90.327, 51.390 93.877, 51.866 93.583 C 52.342 93.289, 52.518 91.928, 52.256 90.559 C 51.994 89.190, 52.262 86.688, 52.850 85 C 53.479 83.197, 53.524 82.176, 52.960 82.525 C 52.432 82.851, 52 82.390, 52 81.500 C 52 80.469, 52.453 80.156, 53.250 80.639 C 53.938 81.055, 64.865 91.640, 77.534 104.161 L 100.567 126.927 100.534 139.714 C 100.502 152.354, 100.543 152.586, 104.088 160 C 107.560 167.261, 116.995 179, 119.358 179 C 119.995 179, 126.264 173.549, 133.290 166.888 L 146.064 154.775 158.282 167.409 C 171.083 180.646, 173.702 182.155, 177.421 178.436 C 178.281 177.576, 179.551 177.198, 180.242 177.597 C 180.934 177.995, 181.169 177.955, 180.764 177.507 C 180.359 177.060, 181.821 174.748, 184.014 172.369 C 189.065 166.889, 189.111 164.265, 184.250 158.753 C 182.188 156.414, 180.086 154.325, 179.581 154.110 C 177.916 153.404, 164.055 138.522, 164.110 137.500 C 164.139 136.950, 169.302 131.805, 175.582 126.067 C 182.144 120.071, 187 114.859, 187 113.811 C 187 112.809, 184.538 109.677, 181.530 106.851 C 178.521 104.026, 176.340 101.258, 176.684 100.702 C 177.044 100.120, 176.810 100, 176.132 100.418 C 175.485 100.818, 172.828 99.956, 170.228 98.502 C 163.789 94.901, 153.971 92.783, 145.378 93.142 L 138.241 93.439 120.357 75.470 C 109.875 64.937, 102.056 56.258, 101.466 54.500 C 100.855 52.677, 99.659 51.384, 98.418 51.205 C 97.295 51.043, 89.466 44.180, 81.020 35.955 C 72.574 27.730, 65.177 21.036, 64.582 21.079 C 63.987 21.122, 62.825 21.401, 62 21.698 M 487.500 105.145 C 463.546 106.203, 418.311 113.028, 409.500 116.914 C 408.400 117.399, 404.350 118.590, 400.500 119.559 C 393.327 121.365, 364.706 130.829, 352.904 135.297 C 344.326 138.545, 318.956 150.852, 312.328 154.980 C 309.484 156.752, 306.039 158.269, 304.674 158.351 C 303.309 158.433, 302.329 158.725, 302.496 159 C 302.663 159.275, 296.548 163.468, 288.906 168.318 C 274.839 177.246, 257.332 189.419, 255.500 191.546 C 254.950 192.184, 248.875 197.233, 242 202.765 C 222.521 218.439, 197.663 243.912, 181.542 264.723 C 178.830 268.223, 176.235 270.669, 175.611 270.313 C 175 269.964, 174.822 270.036, 175.215 270.471 C 176.272 271.642, 174.084 275.170, 172.795 274.373 C 172.109 273.949, 171.976 274.151, 172.443 274.909 C 172.857 275.578, 172.535 276.885, 171.728 277.813 C 162.332 288.610, 137.021 332.716, 128.292 353.500 C 117.210 379.889, 103.595 423.892, 101.839 439 C 101.359 443.125, 100.306 450.325, 99.498 455 C 93.298 490.897, 93.500 540.625, 100.004 580 C 105.692 614.432, 114.293 644.536, 126.675 673.345 C 140.750 706.092, 152.156 726.397, 171.899 753.851 C 177.180 761.194, 182.224 768.297, 183.108 769.637 C 185.432 773.157, 202.926 793.465, 209.711 800.520 C 221.021 812.280, 230.108 820.404, 254.500 840.560 C 267.653 851.428, 288.393 865.734, 300 871.943 C 302.475 873.267, 305.850 875.351, 307.500 876.575 C 310.214 878.588, 333.167 890.026, 347 896.261 C 354.524 899.651, 373.390 906.306, 392 912.134 C 400.525 914.804, 408.400 917.416, 409.500 917.939 C 412.054 919.155, 418.596 920.410, 438.500 923.503 C 447.300 924.870, 456.975 926.425, 460 926.959 C 491.598 932.528, 571.611 929.333, 597 921.488 C 599.475 920.723, 605.100 919.389, 609.500 918.523 C 646.311 911.276, 702.162 887.159, 738.300 862.907 C 781.272 834.068, 804.305 813.479, 836.086 775.500 C 849.853 759.047, 859.238 745.874, 868.500 730 C 870.586 726.425, 873.501 721.681, 874.979 719.459 C 877.303 715.962, 891.723 687.201, 896.266 677 C 899.703 669.284, 909.133 641.755, 913.050 628 C 914.695 622.225, 916.486 616.711, 917.031 615.747 C 918.114 613.828, 920.921 599.441, 923.419 583 C 924.296 577.225, 925.721 568.225, 926.584 563 C 928.754 549.881, 929.642 503.556, 928.085 484.809 C 927.431 476.939, 925.569 462.343, 923.948 452.374 C 922.327 442.405, 921 433.249, 921 432.029 C 921 430.809, 920.063 426.591, 918.919 422.655 C 917.774 418.720, 915.719 411.675, 914.353 407 C 912.016 399.007, 903.733 374.457, 899.107 361.811 C 895.081 350.809, 881.814 324.341, 872.886 309.500 C 867.923 301.250, 863.330 293.600, 862.681 292.500 C 862.031 291.400, 861.258 290.275, 860.961 290 C 860.665 289.725, 858.458 286.575, 856.057 283 C 853.656 279.425, 851.421 276.275, 851.090 276 C 850.760 275.725, 847.832 271.931, 844.585 267.569 C 835.341 255.153, 809.058 226.185, 798.278 216.531 C 792.900 211.715, 783.902 204.113, 778.282 199.637 C 772.504 195.035, 767.776 190.481, 767.400 189.155 C 766.979 187.667, 766.474 187.233, 766.020 187.968 C 765.522 188.774, 764.421 188.397, 762.402 186.731 C 760.806 185.413, 756.575 182.381, 753 179.993 C 749.425 177.604, 746.275 175.384, 746 175.060 C 744.955 173.826, 726.762 162.732, 719.787 159.076 C 715.779 156.975, 708.182 152.950, 702.904 150.132 C 684.494 140.302, 658.671 130.048, 633.500 122.572 C 626.900 120.612, 619.475 118.367, 617 117.582 C 588.577 108.573, 532.285 103.167, 487.500 105.145 M 599.500 112 C 600.600 112.473, 602.400 112.859, 603.500 112.859 L 605.500 112.859 603.500 112 C 602.400 111.527, 600.600 111.141, 599.500 111.141 L 597.500 111.141 599.500 112 M 919.122 132.914 C 918.364 133.388, 918.050 134.272, 918.424 134.877 C 918.838 135.547, 918.548 135.764, 917.681 135.431 C 916.898 135.131, 915.980 135.609, 915.640 136.494 C 915.301 137.380, 915.429 137.853, 915.926 137.546 C 916.423 137.239, 917.016 137.549, 917.245 138.235 C 917.546 139.137, 918.142 139.001, 919.400 137.743 C 921.482 135.661, 921.247 131.584, 919.122 132.914 M 182 155.167 C 182 155.808, 182.292 156.042, 182.648 155.685 C 183.005 155.328, 184.092 155.953, 185.064 157.073 C 186.825 159.104, 186.832 159.105, 187.466 157.108 C 187.957 155.560, 189.168 155.021, 192.801 154.733 C 196.043 154.476, 195.097 154.305, 189.750 154.180 C 184.409 154.056, 182 154.363, 182 155.167 M 299.264 154.718 C 300.784 154.947, 303.034 154.941, 304.264 154.704 C 305.494 154.467, 304.250 154.279, 301.500 154.286 C 298.750 154.294, 297.744 154.488, 299.264 154.718 M 100.272 160 C 100.272 162.475, 100.467 163.488, 100.706 162.250 C 100.944 161.012, 100.944 158.988, 100.706 157.750 C 100.467 156.512, 100.272 157.525, 100.272 160 M 482.500 161.069 C 446.135 164.455, 403.146 174.780, 372.500 187.487 C 359.410 192.915, 327.432 209.568, 317.106 216.333 C 300.696 227.085, 283.201 240.108, 276.010 246.925 C 275.183 247.709, 271.130 251.154, 267.003 254.581 C 262.876 258.007, 257.510 262.991, 255.078 265.655 C 252.646 268.320, 246.394 275, 241.183 280.500 C 235.973 286, 228.972 294.100, 225.625 298.500 C 222.278 302.900, 218.755 307.407, 217.794 308.515 C 215.610 311.035, 204 327.901, 204 328.553 C 204 328.818, 202.035 332.289, 199.634 336.267 C 197.233 340.245, 193.693 346.425, 191.766 350 C 189.839 353.575, 187.338 358.075, 186.208 360 C 185.078 361.925, 181.438 369.874, 178.119 377.664 C 158.794 423.026, 150.288 468.272, 150.700 523.500 C 150.954 557.501, 156.804 591.286, 168.447 625.984 C 171.864 636.168, 175.372 646.075, 176.241 648 C 177.111 649.925, 179.910 656.450, 182.461 662.500 C 194.392 690.790, 216.639 725.207, 240.086 751.649 C 275.620 791.722, 322.883 825.740, 371.500 846.235 C 400.221 858.343, 437.497 868.432, 461.500 870.595 C 465.350 870.942, 468.771 871.385, 469.102 871.580 C 470.925 872.655, 494.921 874.117, 510.570 874.108 C 565.882 874.074, 619.970 862.362, 665.500 840.560 C 690.274 828.697, 704.137 820.412, 725.964 804.426 C 751.941 785.401, 778.756 759.430, 798.681 734 C 808.922 720.929, 824.903 695.748, 832.748 680.321 C 857.491 631.662, 869.983 586.300, 873.123 533.701 C 875.220 498.572, 870.941 456.969, 861.631 421.954 C 859.520 414.018, 849.841 386.724, 846.044 378 C 828.469 337.629, 804.804 302.154, 775.106 271.665 C 756.398 252.459, 728.230 229.630, 705.500 215.253 C 693.552 207.695, 663.633 192.454, 649 186.470 C 630.702 178.987, 606.495 171.844, 586.500 168.027 C 580.450 166.872, 572.125 165.280, 568 164.491 C 563.875 163.701, 556.675 162.578, 552 161.995 C 540.322 160.539, 494.715 159.932, 482.500 161.069 M 154.252 191.500 C 154.263 193.700, 154.468 194.482, 154.707 193.238 C 154.946 191.994, 154.937 190.194, 154.687 189.238 C 154.437 188.282, 154.241 189.300, 154.252 191.500 M 490 215.600 C 488.075 215.823, 482 216.491, 476.500 217.083 C 460.840 218.770, 443.670 222.433, 422.500 228.605 C 394.975 236.630, 368.371 248.967, 345.500 264.312 C 333.513 272.355, 315.577 285.887, 310 291.095 C 287.296 312.300, 282.634 317.255, 269.281 334.373 C 253.999 353.963, 238.072 381.291, 228.613 404.155 C 219.444 426.315, 211.633 456.418, 208.414 482 C 206.964 493.526, 206.447 527.042, 207.523 539.844 C 209.667 565.367, 217.082 601.063, 223.030 614.500 C 223.516 615.600, 225.933 621.675, 228.399 628 C 239.074 655.378, 253.602 679.769, 275.342 706.815 C 289.360 724.252, 294.621 729.742, 310 742.974 C 330.781 760.855, 350.196 774.210, 370.500 784.590 C 380.400 789.651, 392.775 795.450, 398 797.476 C 403.225 799.502, 408.850 801.744, 410.500 802.460 C 421.403 807.187, 448.690 813.659, 470 816.572 C 485.187 818.649, 492.798 819.121, 512.500 819.208 C 539.487 819.329, 549.161 818.409, 573 813.459 C 609.555 805.867, 638.645 794.477, 670 775.478 C 690.596 762.999, 707.154 750.342, 724.799 733.590 C 743.312 716.014, 767.072 685.140, 778.738 663.500 C 798.057 627.665, 808.512 597.455, 814.039 561.500 C 816.764 543.769, 817.827 506.392, 816.079 489.787 C 813.857 468.691, 810.325 449.076, 806.393 436 C 791.706 387.161, 769.999 349.553, 733.555 309.806 C 708.200 282.155, 666.727 253.698, 628.500 237.724 C 622.333 235.147, 601.770 228.330, 592 225.625 C 585.252 223.756, 563.660 219.333, 551.500 217.329 C 542.895 215.911, 498.162 214.654, 490 215.600 M 480.853 263.571 C 467.936 265.057, 448.513 269.320, 434 273.854 C 402.788 283.604, 376.312 297.845, 349.500 319.306 C 308.058 352.476, 277.674 396.829, 263.541 444.785 C 254.801 474.438, 251.894 500.829, 253.933 532 C 255.575 557.108, 257.698 569.245, 264.167 590.500 C 276.263 630.247, 296.718 664.668, 325.871 694.334 C 337.045 705.704, 350.940 717.983, 352.671 718.016 C 353.127 718.025, 355.075 719.441, 357 721.164 C 362.988 726.522, 381.933 738.532, 395 745.253 C 416.642 756.386, 452.073 767.886, 471.500 770.083 C 492.847 772.497, 500.753 773.023, 516 773.044 C 542.482 773.081, 566.408 769.226, 591.377 760.899 C 599.560 758.171, 608.560 754.863, 611.377 753.549 C 614.195 752.235, 620.026 749.546, 624.335 747.574 C 634.418 742.960, 643.777 737.551, 657.589 728.355 C 709.841 693.564, 748.487 638.272, 763.933 576.204 C 769.626 553.327, 770.444 545.850, 770.411 517 C 770.379 489.824, 769.326 479.473, 764.403 458 C 759.182 435.222, 746.337 404.756, 733.277 384.173 C 707.784 343.996, 668.967 309.263, 626.224 288.381 C 595.754 273.495, 567.539 265.690, 534.500 263.006 C 518.336 261.693, 495.043 261.939, 480.853 263.571 M 492.500 350.093 C 454.423 354.741, 420.525 370.834, 391.627 397.982 C 380.098 408.812, 370.434 422.071, 360.271 441 C 340.229 478.331, 336.680 529.628, 351.348 570 C 356.566 584.363, 358.467 588.851, 362.569 596.500 C 378.912 626.970, 408.959 655, 440.500 669.200 C 464.600 680.051, 484.695 684.302, 512 684.326 C 550.939 684.361, 582.993 673.754, 614.770 650.318 C 646.158 627.168, 669.417 590.882, 677.868 551.877 C 682.352 531.181, 682.931 506.485, 679.376 487.597 C 675.388 466.409, 669.807 451.251, 659.360 433.237 C 642.540 404.233, 619.829 382.870, 589.054 367.105 C 575.431 360.127, 554.507 353.647, 537.270 351.069 C 526.797 349.503, 501.797 348.958, 492.500 350.093 M 136.159 821.137 C 134.972 821.576, 134.007 822.513, 134.015 823.218 C 134.026 824.109, 134.255 824.160, 134.765 823.386 C 135.179 822.759, 136.353 822.578, 137.453 822.971 C 139.074 823.550, 138.842 823.782, 136.087 824.333 C 130.810 825.388, 121.502 831.617, 116.034 837.752 C 113.265 840.858, 111 842.897, 111 842.283 C 111 841.669, 111.461 840.938, 112.025 840.658 C 112.589 840.379, 112.476 840.278, 111.775 840.435 C 111.074 840.592, 110.611 841.704, 110.746 842.907 C 110.882 844.110, 110.069 846.904, 108.940 849.118 C 106.082 854.719, 104.838 866.786, 106.229 875.402 L 107.343 882.305 102.596 886.664 C 99.985 889.062, 97.363 890.724, 96.770 890.358 C 96.176 889.991, 95.975 890.150, 96.322 890.712 C 97.028 891.854, 93.717 895.289, 92.669 894.502 C 92.301 894.226, 92.241 894.316, 92.535 894.701 C 93.253 895.644, 67.856 921.029, 66.829 920.395 C 66.386 920.120, 66.261 920.515, 66.551 921.272 C 66.879 922.128, 59.908 929.646, 48.145 941.124 C 37.732 951.286, 28.062 961.293, 26.658 963.363 C 21.498 970.966, 22.244 980.420, 28.589 987.833 C 32.910 992.882, 37.511 995, 44.154 995 C 51.552 995, 54.590 993.213, 65.571 982.403 C 71.104 976.956, 80.488 967.775, 86.425 962 C 92.361 956.225, 98.663 949.925, 100.427 948 C 110.302 937.230, 129.046 919.911, 130.114 920.571 C 130.855 921.028, 131.046 920.884, 130.618 920.191 C 130.234 919.569, 131.668 917.332, 133.851 915.149 C 137.721 911.279, 137.836 911.240, 142.288 912.259 C 149.557 913.922, 163.676 911.926, 171.345 908.151 C 186.821 900.532, 198.529 880.168, 196.411 864.551 C 195.606 858.623, 193.031 852, 191.530 852 C 190.813 852, 185.251 857.175, 179.171 863.500 C 173.090 869.825, 167.847 875, 167.518 875 C 167.190 875, 161.557 869.752, 155.002 863.337 L 143.082 851.673 154.591 839.736 C 160.921 833.171, 165.930 827.282, 165.723 826.649 C 165.059 824.620, 157.730 822.836, 149.362 822.666 C 144.887 822.574, 141.666 822.223, 142.204 821.884 C 143.767 820.902, 138.541 820.256, 136.159 821.137 M 858.219 837.996 C 856.964 838.526, 850.326 844.537, 843.469 851.355 C 831.759 862.997, 831 863.989, 831 867.653 C 831 872.627, 832.331 874.532, 843.474 885.500 C 848.503 890.450, 854.685 896.750, 857.211 899.500 L 861.805 904.500 837.682 904.858 C 824.415 905.056, 812.593 905.584, 811.411 906.034 C 810.230 906.483, 808.304 908.070, 807.131 909.560 C 805.193 912.025, 805.001 913.500, 805.006 925.885 C 805.012 941.952, 805.932 946.103, 810.148 949.106 C 813.110 951.214, 813.865 951.276, 830.113 950.726 C 839.401 950.412, 847 950.473, 847 950.862 C 847 951.826, 840.294 968.757, 838.402 972.569 C 835.082 979.262, 836.782 986.207, 842.487 989.261 C 846.532 991.425, 869.433 999, 871.929 998.999 C 876.004 998.997, 879.476 995.121, 882.228 987.500 C 883.618 983.650, 885.194 980.590, 885.730 980.701 C 886.265 980.811, 886.495 979.811, 886.241 978.478 C 885.969 977.059, 888.399 968.369, 892.104 957.508 L 898.432 938.962 910.216 950.715 C 921.433 961.903, 922 962.666, 922 966.568 C 922 971.235, 922.741 972.460, 924.621 970.900 C 925.684 970.018, 925.614 969.323, 924.247 967.158 C 922.172 963.871, 928.942 969.872, 944.844 985.413 C 955.678 996.001, 956.379 996.500, 960.427 996.500 C 965.079 996.500, 965.028 996.537, 981.264 981.665 C 995.379 968.737, 995.338 965.556, 980.878 951.443 C 976.545 947.214, 972.989 943.247, 972.976 942.627 C 972.963 942.007, 971.163 940.176, 968.976 938.558 C 964.455 935.213, 964.137 934.491, 967.086 934.269 C 968.527 934.160, 969 934.558, 968.617 935.556 C 968.312 936.350, 968.499 937, 969.031 937 C 969.564 937, 970 936.325, 970 935.500 C 970 934.675, 970.563 933.993, 971.250 933.985 C 972.131 933.974, 972.083 933.705, 971.085 933.074 C 970.307 932.581, 968.845 932.337, 967.835 932.532 C 966.781 932.735, 966 932.306, 966 931.524 C 966 930.776, 965.749 929.510, 965.443 928.711 C 965.127 927.890, 965.611 926.980, 966.554 926.618 C 967.754 926.157, 968.063 926.393, 967.655 927.457 C 967.343 928.270, 967.587 929.245, 968.198 929.622 C 968.871 930.038, 969.028 929.854, 968.595 929.155 C 968.177 928.478, 968.503 928, 969.382 928 C 970.207 928, 971.157 927.555, 971.493 927.011 C 971.854 926.427, 971.413 926.288, 970.415 926.671 C 969.230 927.126, 968.879 926.899, 969.239 925.909 C 969.520 925.134, 970.256 924.612, 970.875 924.750 C 971.494 924.887, 972 924.284, 972 923.409 C 972 922.037, 970.933 921.903, 964.292 922.436 C 959.947 922.784, 956.246 923.588, 955.808 924.277 C 955.211 925.216, 955.027 925.196, 955.015 924.191 C 955.007 923.471, 954.623 923.115, 954.163 923.399 C 953.703 923.684, 942.340 912.853, 928.913 899.331 C 907.886 878.156, 904.777 874.643, 906.500 873.998 C 907.600 873.587, 908.837 873.446, 909.250 873.684 C 909.663 873.923, 910 873.491, 910 872.726 C 910 871.739, 908.668 871.333, 905.428 871.333 L 900.855 871.333 884.138 854.638 C 870.139 840.657, 866.858 837.869, 863.961 837.488 C 862.057 837.238, 859.473 837.467, 858.219 837.996 M 99.344 884.508 C 98.406 886.530, 98.453 887, 99.594 887 C 100.427 887, 101 885.981, 101 884.500 C 101 881.387, 100.791 881.388, 99.344 884.508 M 48.818 923.250 C 48.601 923.938, 48.714 926.300, 49.069 928.500 C 49.710 932.462, 49.718 932.450, 49.858 927.250 C 49.996 922.141, 49.623 920.707, 48.818 923.250 M 93.453 957.071 C 91.279 959.310, 90.157 960.998, 90.961 960.821 C 92.988 960.376, 94.882 958.652, 94.336 957.750 C 94.086 957.337, 95.034 957, 96.441 957 C 98.333 957, 99 956.479, 99 955 C 99 952.090, 97.885 952.507, 93.453 957.071" stroke="none" fill="currentColor" fill-rule="evenodd"/>
	<path fill-opacity="0.441" d="M 927.233 9.933 C 907.497 14.781, 890.410 30.021, 883.881 48.598 C 879.218 61.866, 879.496 80.900, 884.538 93.502 L 886.965 99.569 853.982 132.551 C 835.842 150.692, 821 166.183, 821 166.977 C 821 167.771, 827.205 174.626, 834.789 182.211 C 845.047 192.468, 849.209 195.999, 851.039 195.997 C 852.937 195.995, 861.165 188.322, 886.982 162.479 C 910.302 139.137, 920.925 129.148, 921.982 129.568 C 931.452 133.337, 950.915 133.755, 962 130.428 C 983.010 124.121, 998.815 107.413, 1004.461 85.540 C 1007.777 72.696, 1005.722 53.239, 999.826 41.648 C 986.884 16.204, 956.225 2.810, 927.233 9.933 M 51.164 31.250 C 45.902 36.337, 39.466 42.561, 36.860 45.081 C 31.842 49.933, 30.184 53.720, 31.807 56.620 C 32.350 57.590, 48.338 73.935, 67.335 92.942 L 101.876 127.500 101.126 133.716 C 99.053 150.878, 105.397 167.540, 117.735 177.345 L 120.057 179.190 132.403 167.095 C 139.193 160.443, 145.162 155, 145.667 155 C 146.172 155, 151.928 160.400, 158.459 167 C 172.733 181.428, 173.357 181.613, 181.560 173.855 C 189.883 165.983, 189.657 165.199, 174.750 150.219 L 162.500 137.909 174.750 126.359 C 181.487 120.007, 187 114.219, 187 113.498 C 187 111.672, 177.555 103.364, 171.515 99.876 C 164.012 95.544, 157.574 93.950, 147.441 93.915 L 138.382 93.884 102.456 57.942 C 71.736 27.208, 66.110 22, 63.630 22 C 61.329 22, 58.756 23.909, 51.164 31.250 M 484 105.650 C 445.631 109.271, 431.792 111.628, 402.500 119.530 C 358.484 131.404, 322.222 147.471, 284.500 171.815 C 238.362 201.589, 198.266 240.326, 166.825 285.500 C 119.416 353.617, 93.057 441.223, 95.365 523 C 96.630 567.808, 103.476 606.804, 117.220 647.497 C 130.318 686.277, 148.056 720.257, 174.381 757 C 215.593 814.521, 277.382 864.683, 343 893.891 C 370.596 906.174, 407.918 917.761, 435 922.453 C 480.524 930.341, 509.087 931.545, 553.500 927.448 C 627.398 920.632, 698.339 893.040, 760.888 846.785 C 828.259 796.966, 880.038 726.496, 905.848 649.500 C 917.101 615.930, 920.220 602.594, 925.958 563.500 C 928.264 547.783, 929.361 512.476, 928.127 493.659 C 926.137 463.320, 921.705 435.820, 914.645 410 C 895.689 340.675, 860.738 280.192, 810.028 228.961 C 757.466 175.858, 694.303 139.127, 621.738 119.466 C 595.462 112.347, 577.779 109.310, 546.371 106.521 C 531.321 105.185, 494.398 104.669, 484 105.650 M 493.500 160.053 C 428.440 163.587, 365.174 184.184, 312.500 218.980 C 265.316 250.149, 225.352 291.515, 198.481 337 C 170.804 383.850, 156.166 430.058, 151.438 485.500 C 146.394 544.650, 155.146 598.496, 179.151 656 C 215.786 743.762, 293.134 817.694, 383.500 851.325 C 427.813 867.816, 464.675 874.430, 512 874.378 C 549.274 874.338, 576.332 870.736, 611.500 861.131 C 691.822 839.193, 765.739 785.177, 813.545 713.485 C 855.084 651.189, 875.767 579.672, 873.693 505.500 C 872.204 452.270, 861.914 409.380, 839.263 362 C 811.293 303.491, 760.264 247.957, 702 212.618 C 693.135 207.241, 662.506 191.554, 653.500 187.778 C 618.804 173.231, 571.245 162.183, 536.141 160.516 C 511.903 159.364, 507.125 159.312, 493.500 160.053 M 492.500 216.043 C 459.773 218.271, 426.923 225.865, 395.570 238.452 C 347.238 257.854, 299.664 294.601, 267.341 337.500 C 258.560 349.155, 249.137 364.044, 239.684 381.201 C 234.928 389.835, 226.318 410.364, 222.154 423 C 203.371 480.004, 202.029 538.989, 218.196 597 C 233.817 653.054, 266.849 705.026, 311.500 743.802 C 326.470 756.802, 346.430 771.358, 358 777.712 C 408.775 805.597, 451.607 817.530, 505.301 818.749 C 535.548 819.436, 557.513 817.157, 584.888 810.493 C 595.418 807.930, 618.010 800.881, 623.500 798.446 C 625.150 797.714, 631.225 795.027, 637 792.475 C 653.563 785.155, 678.377 770.668, 693.672 759.390 C 712.622 745.416, 735.845 722.962, 750.926 704.032 C 780.242 667.234, 802.309 620.401, 810.881 576.790 C 815.518 553.199, 816.438 543.378, 816.432 517.500 C 816.426 490.912, 815.317 479.324, 810.484 455.367 C 792.572 366.586, 728.729 286.081, 643.772 245.150 C 598.491 223.334, 542.802 212.618, 492.500 216.043 M 497 261.632 C 450.700 264.807, 407.634 279.036, 370.500 303.428 C 329.256 330.519, 298.046 365.702, 277.510 408.255 C 251.024 463.136, 245.633 522.256, 261.577 582.972 C 268.532 609.458, 279.552 633.668, 295.553 657.610 C 328.937 707.563, 376.209 742.883, 435 761.800 C 491.120 779.859, 553.981 777.508, 608 755.330 C 687.541 722.673, 744.553 656.954, 764.870 574.500 C 777.268 524.189, 771.998 464.715, 750.892 416.754 C 720.109 346.803, 656.407 291.644, 582.633 271.063 C 570.162 267.584, 554.499 264.558, 541.500 263.116 C 531.024 261.954, 504.970 261.085, 497 261.632 M 486 351.431 C 450.857 356.930, 419.669 372.297, 393.912 396.806 C 370.886 418.715, 355.515 444.740, 347.928 474.664 C 343.639 491.580, 342.697 501.072, 343.288 521.432 C 343.872 541.540, 345.648 551.894, 351.598 569.865 C 365.182 610.897, 396.023 646.387, 435.259 666.135 C 461.469 679.327, 487.244 684.775, 518.268 683.681 C 549.676 682.574, 572.359 676.086, 598.398 660.760 C 623.049 646.252, 643.907 625.339, 658.561 600.440 C 661.589 595.295, 664.773 589.379, 665.637 587.293 C 666.500 585.207, 668.008 581.700, 668.987 579.500 C 672.170 572.350, 675.750 560.601, 678.149 549.434 C 680.235 539.726, 680.496 535.921, 680.477 515.500 C 680.459 495.648, 680.162 491.200, 678.310 483 C 668.561 439.837, 644.731 403.958, 609.915 380.019 C 591.317 367.231, 568.440 357.470, 546.298 352.875 C 533.617 350.243, 498.903 349.411, 486 351.431 M 138 824.431 C 127.369 827.389, 116.668 835.682, 111.698 844.814 C 106.522 854.323, 104.628 867.665, 107.074 877.378 L 108.147 881.642 68.950 920.571 C 47.391 941.982, 28.458 961.501, 26.876 963.946 C 24.640 967.403, 24 969.557, 24 973.631 C 24 980.266, 25.026 982.916, 29.519 987.889 C 35.982 995.043, 45.186 996.754, 53.486 992.344 C 55.395 991.330, 74.854 972.716, 96.729 950.979 L 136.500 911.459 149.500 911.474 C 160.845 911.487, 163.244 911.189, 168.344 909.137 C 185.135 902.382, 196.944 884.126, 195.774 866.734 C 195.507 862.755, 194.533 857.722, 193.611 855.548 L 191.933 851.596 179.717 863.715 L 167.500 875.834 155.250 864.143 C 148.512 857.714, 143 852.037, 143 851.529 C 143 851.021, 147.995 845.542, 154.101 839.354 C 160.206 833.166, 165.010 827.518, 164.776 826.802 C 163.704 823.516, 146.699 822.010, 138 824.431 M 845.785 849.691 C 826.677 868.466, 826.668 868.328, 848.212 889.641 L 863.523 904.789 838.012 905.170 C 803.639 905.683, 804.309 905.167, 805.577 930.131 C 806.261 943.603, 806.428 944.447, 808.979 947.303 L 811.663 950.306 829.331 950.099 C 840.241 949.971, 847 950.264, 847 950.864 C 847 951.398, 844.925 957.160, 842.388 963.668 C 839.851 970.175, 837.552 977.205, 837.279 979.290 C 836.514 985.128, 840.624 988.275, 856 993.621 C 870.337 998.607, 874.109 998.983, 877.337 995.750 C 878.824 994.260, 882.576 984.545, 888.442 967 C 893.314 952.425, 897.513 939.919, 897.773 939.210 C 898.050 938.452, 910.230 949.906, 927.285 966.960 L 956.325 996 960.683 996 C 964.765 996, 965.657 995.440, 974.801 987.132 C 989.024 974.209, 991 971.738, 991 966.876 C 991 963.062, 990.328 962.129, 979.680 951.160 C 973.455 944.747, 945.552 916.775, 917.675 889 L 866.990 838.500 862.397 838.191 L 857.804 837.882 845.785 849.691" stroke="none" fill="currentColor" fill-rule="evenodd"/>
	<path fill-opacity="0.366" d="M 934.723 9.196 C 920.055 10.929, 908.036 17.086, 897.113 28.461 C 890.214 35.646, 883.689 47.926, 882.010 56.886 C 879.786 68.752, 881.390 84.877, 885.813 95.104 L 887.804 99.708 854.902 132.598 C 836.806 150.688, 822 166.204, 822 167.078 C 822 168.847, 846.886 193.964, 850.092 195.431 C 851.875 196.247, 856.358 192.148, 886.313 162.318 L 920.500 128.274 926.500 130.206 C 934.245 132.701, 949.881 132.863, 958.837 130.542 C 982.337 124.453, 999.003 107.165, 1004.379 83.303 C 1006.377 74.433, 1006.422 68.384, 1004.565 58.673 C 998.263 25.738, 969.168 5.127, 934.723 9.196 M 54.720 28.750 C 33.262 49.190, 32 50.578, 32 53.734 C 32 56.409, 36.334 61.147, 66.998 91.998 L 101.996 127.209 101.385 135.355 C 100.644 145.235, 102.033 153.348, 105.853 161.463 C 108.644 167.392, 117.206 178, 119.200 178 C 119.759 178, 125.835 172.600, 132.704 166 C 139.573 159.400, 145.523 154, 145.927 154 C 146.330 154, 151.953 159.402, 158.421 166.004 C 164.890 172.606, 171.247 178.275, 172.548 178.601 C 174.439 179.076, 176.019 178.149, 180.426 173.981 C 183.458 171.114, 186.215 167.898, 186.552 166.835 C 187.367 164.269, 186.046 162.532, 172.993 149 L 161.900 137.500 166.200 133.584 C 168.565 131.431, 174.261 126.038, 178.857 121.600 L 187.215 113.531 181.323 108.016 C 170.917 98.273, 159.826 94.057, 144.500 94.016 L 137.500 93.997 101.524 57.999 C 79.848 36.309, 64.804 22, 63.677 22 C 62.648 22, 58.617 25.038, 54.720 28.750 M 488.500 106.117 C 444.072 108.736, 406.151 116.835, 361.500 133.238 C 345.701 139.042, 306.595 158.419, 291.500 167.923 C 244.576 197.466, 202.795 236.329, 172.703 278.421 C 157.227 300.069, 149.520 313.083, 136.531 339.500 C 110.524 392.396, 97.661 445.512, 96.331 505.500 C 95.550 540.708, 97.363 562.708, 103.624 594 C 115.025 650.978, 136.302 701.414, 168.381 747.500 C 177.226 760.207, 191.516 778.990, 196.168 784.024 C 197.451 785.412, 202.405 790.841, 207.177 796.089 C 216.711 806.571, 237.724 825.991, 251 836.587 C 290.822 868.371, 332.083 891.058, 379.944 907.483 C 421.309 921.680, 466.136 929.013, 511.411 928.990 C 623.793 928.932, 727.545 885.683, 807.526 805.554 C 852.800 760.197, 886.865 705.630, 906.129 647.607 C 920.375 604.701, 926.544 570.023, 927.675 526.500 C 930.132 431.914, 901.923 345.040, 843.812 268.233 C 821.456 238.684, 788.599 206.933, 756.756 184.108 C 698.638 142.448, 631.072 116.324, 561.500 108.613 C 544.897 106.773, 516.938 104.945, 508.500 105.147 C 505.200 105.227, 496.200 105.663, 488.500 106.117 M 483.500 160.082 C 446.851 163.022, 405.631 172.853, 372.267 186.611 C 347.753 196.719, 313.167 216.519, 291.500 232.847 C 255.212 260.194, 219.838 299.519, 197.813 337 C 171.764 381.328, 157.508 424.336, 151.406 477 C 149.377 494.515, 149.079 535.482, 150.868 551 C 160.777 636.941, 197.655 712.738, 258.149 771.500 C 317.067 828.731, 385.952 862.103, 467 872.680 C 484.191 874.923, 536.654 875.213, 553.500 873.158 C 603.093 867.107, 651.250 851.585, 689.304 829.386 C 692.496 827.524, 695.322 826, 695.584 826 C 696.689 826, 719.412 810.548, 730.500 802.257 C 755.988 783.198, 782.187 757.099, 801.805 731.225 C 840.351 680.388, 865.635 617.024, 872.474 554.128 C 874.333 537.030, 874.616 497.710, 873.001 481 C 865.134 399.615, 832.303 329.316, 774.525 270.135 C 744.445 239.325, 716.206 218.524, 677 198.296 C 619.970 168.873, 548.895 154.836, 483.500 160.082 M 485.500 217.150 C 440.820 221.062, 392.073 236.743, 356 258.809 C 324.357 278.164, 291.769 306.857, 271.167 333.500 C 239.432 374.541, 220.191 418.060, 211.538 468.367 C 207.240 493.358, 206.295 513.370, 208.301 536.977 C 211.240 571.573, 219.881 608, 230.960 632.500 C 249.061 672.531, 266.982 698.866, 296 728.083 C 321.372 753.629, 344.909 770.968, 373.960 785.517 C 433.604 815.388, 497.990 825.269, 562.599 814.469 C 649.575 799.929, 726.646 747.589, 772.737 671.761 C 790.913 641.859, 805.789 603.107, 811.608 570.500 C 815.824 546.876, 817.280 510.950, 814.959 487.856 C 807.927 417.899, 778.411 356.300, 727.556 305.444 C 689.163 267.051, 639.914 238.813, 589 226 C 553.951 217.181, 519.149 214.205, 485.500 217.150 M 491 261.579 C 438.199 267.561, 400.240 281.346, 362 308.425 C 310.612 344.815, 274.629 396.285, 259.880 454.500 C 240.169 532.297, 258.364 613.927, 309.696 677.992 C 329.256 702.404, 358.415 726.389, 388.500 742.813 C 420.663 760.372, 459.664 771.798, 493.479 773.570 C 499.540 773.887, 505.850 774.317, 507.499 774.525 C 513.090 775.231, 542.312 772.994, 554.939 770.893 C 627.758 758.778, 694.720 713.918, 733.156 651.500 C 748.266 626.962, 758.594 602.455, 764.973 576 C 769.410 557.600, 771.027 544.802, 771.670 523 C 772.284 502.167, 770.892 485.546, 766.895 466 C 752.645 396.300, 708.660 335.429, 645 297.311 C 616.153 280.038, 584.887 268.946, 549.500 263.430 C 540.012 261.951, 499.133 260.657, 491 261.579 M 493.500 351.100 C 461.562 354.429, 429.076 367.922, 404.340 388.132 C 388.038 401.450, 376.891 414.218, 367.147 430.732 C 356.009 449.610, 350.479 463.754, 346.441 483.697 C 337.770 526.520, 346.856 571.994, 371.477 609 C 395.379 644.927, 434.375 671.347, 476.160 679.926 C 529.361 690.848, 581.737 677.560, 622.827 642.715 C 653.970 616.304, 675.338 575.545, 679.932 533.789 C 686.935 470.128, 655.900 407.654, 601 374.898 C 568.291 355.382, 531.198 347.170, 493.500 351.100 M 137.591 825.118 C 127.117 827.575, 114.267 838.992, 110.046 849.592 C 107.378 856.291, 106.026 873.769, 107.786 878.816 C 108.780 881.667, 108.160 882.349, 68.866 921.607 C 25.137 965.296, 23.122 967.777, 24.523 976.205 C 24.915 978.567, 25.820 981.625, 26.533 983 C 28.346 986.497, 33.964 991.675, 37.315 992.939 C 41.276 994.432, 48.482 994.257, 52.282 992.576 C 54.052 991.793, 73.881 972.941, 96.346 950.682 L 137.191 910.212 144.619 911.205 C 164.563 913.870, 182.682 904.287, 191.415 886.453 C 193.895 881.391, 194.394 879.004, 194.755 870.500 C 195.080 862.816, 194.807 859.632, 193.576 856.750 C 192.694 854.688, 191.732 853, 191.438 853 C 191.144 853, 185.881 858.175, 179.743 864.500 C 173.605 870.825, 168.108 876, 167.526 876 C 165.924 876, 142.703 852.381, 143.129 851.185 C 143.333 850.612, 148.157 845.152, 153.849 839.050 C 159.762 832.712, 163.978 827.386, 163.686 826.624 C 162.714 824.090, 146.066 823.130, 137.591 825.118 M 844.792 851.792 C 827.212 869.373, 827.036 867.366, 848 888.470 C 856.800 897.328, 864 904.897, 864 905.288 C 864 905.680, 852.638 906.002, 838.750 906.004 C 815.413 906.007, 813.256 906.156, 810.277 907.973 C 808.486 909.065, 806.754 911.130, 806.380 912.622 C 805.415 916.466, 806.815 942.499, 808.143 945.415 C 810.033 949.564, 813.520 950.245, 830.881 949.857 C 839.654 949.660, 847.097 949.764, 847.420 950.087 C 847.743 950.410, 845.915 956.035, 843.357 962.587 C 837.624 977.272, 836.902 982.202, 840.003 985.503 C 841.285 986.868, 846.914 989.548, 853.360 991.862 C 872.935 998.891, 871.354 998.561, 875.083 996.383 C 878.119 994.610, 878.874 993.054, 884.102 977.799 C 895.781 943.717, 897.283 939.482, 897.964 938.720 C 898.347 938.291, 911.153 950.499, 926.422 965.850 C 941.691 981.201, 955.232 994.321, 956.512 995.007 C 961.297 997.567, 964.804 995.628, 977.806 983.232 C 994.772 967.058, 994.714 967.727, 980.434 952.800 C 974.488 946.585, 946.595 918.438, 918.450 890.250 L 867.278 839 862.431 839 L 857.585 839 844.792 851.792" stroke="none" fill="currentColor" fill-rule="evenodd"/>
</svg>