<svg xmlns="http://www.w3.org/2000/svg" width="1024" height="1024" viewBox="0 0 1024 1024" version="1.1">
	<path fill-opacity="0.137" d="M 787.822 216.383 C 779.683 219.730, 774.805 224.013, 771.001 231.150 C 766.754 239.118, 765.778 249.161, 768.513 256.766 L 770.279 261.678 762.988 273.589 C 758.978 280.140, 747.814 298.100, 738.180 313.500 C 728.546 328.900, 714.301 351.686, 706.525 364.136 L 692.387 386.773 683.943 381.767 C 656.975 365.779, 639.254 355.565, 635.627 353.918 C 628.181 350.537, 619.739 352.030, 613.661 357.803 C 609.398 361.852, 607.738 365.804, 607.566 372.312 L 607.410 378.185 580.455 420.069 C 565.630 443.105, 553.158 461.849, 552.739 461.723 C 552.321 461.596, 536.445 448.444, 517.460 432.496 C 498.475 416.548, 480.592 402.228, 477.721 400.674 C 473.360 398.314, 471.700 397.937, 467.648 398.389 C 461.451 399.080, 454.795 402.978, 451.948 407.584 C 450.628 409.721, 449.460 413.689, 449.077 417.342 C 448.439 423.425, 448.039 424.082, 416.083 471.500 C 398.291 497.900, 383.428 519.844, 383.054 520.263 C 382.679 520.683, 373.177 513.693, 361.937 504.728 C 319.604 470.967, 319.117 470.696, 307.724 474.579 C 299.813 477.274, 294.023 485.626, 294.006 494.366 C 294.002 496.026, 292.586 499.183, 290.640 501.866 C 284.489 510.350, 209.353 620.461, 208.050 622.900 C 206.151 626.457, 206.456 634.386, 208.635 638.104 C 215.035 649.029, 229.536 651.336, 237.716 642.731 C 239.405 640.954, 256.075 617, 274.760 589.500 C 319.577 523.540, 320.954 521.542, 321.803 521.245 C 322.203 521.105, 335.124 530.937, 350.515 543.095 C 365.907 555.252, 380.300 566.045, 382.500 567.078 C 395.107 572.998, 410 563.518, 410 549.574 C 410 545.622, 410.843 543.866, 416.859 535.284 C 420.632 529.903, 435.496 507.950, 449.891 486.500 C 464.285 465.050, 476.446 447.368, 476.915 447.206 C 477.383 447.044, 482.431 450.890, 488.133 455.754 C 527.069 488.964, 550.021 507.603, 554.101 509.327 C 566.309 514.485, 581 504.514, 581 491.069 C 581 487.166, 583.057 483.580, 603.330 452.135 C 615.612 433.086, 628.061 413.675, 630.995 409 C 633.930 404.325, 636.845 399.927, 637.474 399.227 C 638.378 398.221, 644.364 401.375, 666.059 414.291 C 681.151 423.276, 694.968 431.218, 696.762 431.940 C 698.692 432.717, 702.087 433.054, 705.082 432.766 C 715.306 431.784, 723 422.956, 723 412.208 C 723 406.759, 723.162 406.471, 753.344 358.115 C 770.034 331.377, 787.894 302.637, 793.034 294.250 C 800.665 281.797, 802.796 279, 804.652 279 C 809.533 279, 818.394 274.701, 822.984 270.107 C 830.145 262.938, 832.500 257.219, 832.500 247 C 832.500 239.714, 832.100 237.685, 829.700 232.797 C 822.051 217.222, 803.479 209.943, 787.822 216.383 M 292 244.922 C 255.218 252.851, 227.961 278.330, 218.154 313.950 L 215.525 323.500 215.512 380 C 215.500 435.293, 215.548 436.688, 217.745 445.307 C 224.988 473.723, 242.670 496.635, 266.847 508.929 C 269.238 510.145, 271.308 510.996, 271.447 510.820 C 277.015 503.773, 282.436 493.755, 283.543 488.463 C 284.267 485.003, 285.592 480.757, 286.486 479.026 C 289.161 473.854, 295.049 468.014, 300.437 465.192 C 304.812 462.899, 306.722 462.536, 314.500 462.519 C 321.835 462.504, 324.332 462.914, 328 464.737 C 330.475 465.967, 342.973 475.305, 355.772 485.487 C 368.572 495.669, 379.406 504, 379.848 504 C 380.290 504, 393.269 485.212, 408.691 462.250 C 433.323 425.572, 436.816 419.893, 437.437 415.500 C 439.036 404.203, 445.863 394.857, 456 390.088 C 460.388 388.023, 463.016 387.500, 469 387.500 C 473.125 387.500, 477.400 387.725, 478.500 388 C 480.469 388.492, 480.499 388.011, 480.456 357 C 480.414 327.516, 480.266 324.937, 478.129 316.701 C 473.212 297.748, 464.804 282.934, 451.845 270.391 C 439.831 258.761, 427.668 251.733, 410 246.209 L 401.500 243.552 351 243.321 C 305.257 243.111, 299.699 243.262, 292 244.922 M 610.393 244.063 C 597.766 246.238, 582.285 252.432, 571.250 259.725 C 550.843 273.212, 535.302 297.102, 531.042 321.533 C 529.854 328.350, 528.785 419.510, 529.828 425.103 C 530.387 428.101, 532.147 430.100, 540.303 437 C 546 441.820, 550.471 444.918, 550.977 444.397 C 551.456 443.904, 561.635 428.425, 573.597 410 C 594.971 377.077, 595.358 376.386, 596.100 369.860 C 596.525 366.122, 597.940 361.079, 599.338 358.320 C 602.159 352.754, 609.511 345.520, 614.443 343.459 C 616.653 342.536, 617.994 341.159, 618.449 339.347 C 619.589 334.806, 623.067 330.863, 627.908 328.624 C 632.161 326.657, 634.473 326.476, 659.242 326.177 C 676.156 325.974, 687.939 326.261, 691.303 326.959 C 697.544 328.255, 702.977 332.325, 705.466 337.569 C 706.415 339.570, 707.537 340.823, 707.959 340.354 C 708.381 339.884, 717.257 325.775, 727.684 309 C 755.282 264.600, 756 263.419, 755.998 262.416 C 755.992 259.636, 735.835 249.188, 723.802 245.728 C 716.869 243.734, 713.946 243.617, 666 243.406 C 638.225 243.283, 613.202 243.579, 610.393 244.063 M 783.055 331.789 C 778.411 339.330, 765.841 359.450, 755.123 376.500 C 736.682 405.835, 735.593 407.841, 734.844 413.853 C 733.311 426.164, 726.613 436.062, 716.423 441.077 C 712.368 443.073, 709.980 443.500, 702.878 443.500 C 694.858 443.500, 693.756 443.238, 687.079 439.750 L 679.902 436 657.194 436 C 644.705 436, 633.114 435.606, 631.437 435.125 C 628.494 434.281, 628.252 434.464, 624.490 440.375 C 622.346 443.744, 614.459 455.960, 606.963 467.522 C 595.592 485.062, 593.224 489.368, 592.668 493.522 C 592.302 496.260, 590.708 501.128, 589.127 504.340 L 586.252 510.179 590.876 512.163 C 593.419 513.254, 599.100 515.096, 603.500 516.256 C 610.988 518.231, 614.556 518.390, 659.250 518.744 L 707 519.123 706.978 544.811 C 706.958 567.680, 706.753 570.939, 705.104 574.500 C 702.949 579.156, 698.687 583.424, 694.685 584.936 C 692.924 585.602, 680.642 586, 661.895 586 C 634.398 586, 631.614 585.843, 628.210 584.097 C 620.886 580.341, 617 573.331, 617 563.874 L 617 559 573.500 559 L 530 559 530 570.816 C 530 583.474, 530.939 590.396, 534.163 601.500 C 544.201 636.076, 575.684 662.816, 612.364 667.918 C 625.006 669.676, 704.755 669.346, 715.391 667.491 C 735.962 663.904, 753.295 654.953, 767.502 640.583 C 782.425 625.489, 791.180 607.587, 793.950 586.500 C 795.336 575.958, 795.005 324.037, 793.601 320.250 C 793.142 319.012, 792.482 318.017, 792.133 318.039 C 791.785 318.060, 787.700 324.247, 783.055 331.789 M 317.939 327.324 C 311.617 329.085, 307.537 332.259, 305.086 337.323 C 303.079 341.467, 303 343.134, 303 381.104 C 303 420.053, 303.030 420.635, 305.250 425.025 C 306.566 427.626, 309.301 430.724, 311.837 432.487 L 316.174 435.500 347.337 435.500 C 377.647 435.500, 378.614 435.439, 382.666 433.273 C 384.957 432.048, 387.719 429.798, 388.803 428.273 C 392.854 422.575, 393.129 419.187, 392.808 379 C 392.514 342.207, 392.407 340.323, 390.409 336.500 C 389.109 334.012, 386.493 331.366, 383.490 329.500 L 378.662 326.500 350.581 326.277 C 330.324 326.116, 321.229 326.408, 317.939 327.324 M 470.498 476.276 C 465.669 483.549, 452.856 502.550, 442.024 518.500 C 423.821 545.303, 422.235 547.992, 421.086 554 C 419.545 562.058, 416.410 567.589, 410.370 572.906 C 405.306 577.363, 398.270 580, 391.441 580 C 388.756 580, 386.751 580.596, 385.872 581.655 C 382.594 585.608, 379.178 586.001, 348.282 585.978 C 321.358 585.958, 318.105 585.777, 314.384 584.087 C 309.993 582.093, 306.036 577.615, 303.823 572.135 L 302.464 568.771 285.161 594.135 C 275.644 608.086, 263.767 625.441, 258.766 632.701 C 251.019 643.951, 249.866 646.133, 250.968 647.462 C 253.564 650.590, 266.258 658.272, 274.275 661.568 C 290.901 668.402, 291.931 668.500, 347.500 668.500 C 402.659 668.500, 404.388 668.346, 420.949 661.959 C 437.170 655.704, 454.554 641.529, 465.006 626.035 C 472.683 614.654, 477.887 600.010, 479.977 583.904 C 481.173 574.694, 481.320 464.316, 480.138 463.585 C 479.664 463.292, 475.326 469.003, 470.498 476.276 M 215.184 572.791 C 215.426 580.376, 215.977 587.154, 216.409 587.853 C 216.934 588.702, 220.460 584.383, 227.054 574.812 C 232.477 566.940, 236.934 560.163, 236.957 559.750 C 236.981 559.337, 231.992 559, 225.872 559 L 214.744 559 215.184 572.791 M 183.239 739.250 L 183.500 782.500 504 782.500 L 824.500 782.500 824.761 739.250 L 825.021 696 504 696 L 182.979 696 183.239 739.250 M 468.634 823.699 C 468.361 823.973, 465.744 824.351, 462.819 824.541 C 459.893 824.730, 457.500 824.925, 457.500 824.975 C 457.500 825.024, 449.175 825.274, 439 825.529 C 428.825 825.784, 417.575 826.269, 414 826.606 C 410.425 826.943, 404.575 827.324, 401 827.453 C 397.425 827.582, 391.800 827.995, 388.500 828.372 C 385.200 828.749, 380.097 829.268, 377.160 829.525 C 374.223 829.783, 371.442 830.227, 370.979 830.513 C 370.517 830.799, 369.851 830.568, 369.500 830 C 369.149 829.432, 368.445 829.225, 367.935 829.540 C 366.209 830.607, 362.523 831.145, 356.500 831.209 C 353.200 831.244, 349.825 831.617, 349 832.037 C 347.275 832.917, 342.471 833.823, 336 834.491 C 333.525 834.746, 329.700 835.216, 327.500 835.536 C 325.300 835.855, 322.825 836.118, 322 836.122 C 319.020 836.133, 315.928 837.075, 316.394 837.829 C 316.796 838.480, 313.797 839.012, 308.250 839.274 C 307.563 839.307, 307 839.684, 307 840.112 C 307 840.540, 304.863 841.028, 302.250 841.195 C 299.187 841.392, 297.585 841.931, 297.738 842.714 C 297.870 843.385, 297.351 843.688, 296.578 843.392 C 294.663 842.657, 288.768 845.834, 289.311 847.309 C 289.553 847.964, 290.290 848.376, 290.949 848.225 C 291.609 848.074, 291.839 848.451, 291.461 849.062 C 291.084 849.674, 289.925 849.952, 288.887 849.681 C 286.620 849.088, 286.495 849.949, 288.468 852.559 C 289.854 854.391, 289.938 854.397, 289.968 852.667 C 289.986 851.630, 290.543 851.033, 291.250 851.292 C 291.938 851.544, 292.387 852.256, 292.250 852.875 C 292.112 853.494, 292.450 854, 293 854 C 293.550 854, 294 854.408, 294 854.906 C 294 855.405, 292.988 855.617, 291.750 855.378 C 289.653 854.973, 289.665 855.016, 291.926 856.005 C 293.261 856.588, 295.061 856.993, 295.926 856.903 C 298.820 856.604, 304.226 858.242, 302.949 859.032 C 302.099 859.557, 302.314 859.965, 303.665 860.394 C 305.924 861.111, 316.281 862.193, 320.250 862.126 C 321.953 862.098, 323 862.610, 323 863.470 C 323 864.534, 323.692 864.662, 325.945 864.016 C 327.798 863.484, 329.015 863.546, 329.228 864.183 C 329.413 864.740, 331.220 865.306, 333.242 865.442 C 335.265 865.577, 337.699 866.321, 338.652 867.094 C 339.778 868.008, 340.121 868.062, 339.633 867.250 C 338.743 865.769, 340.173 865.573, 341.583 866.983 C 342.123 867.523, 345.363 868.086, 348.782 868.233 C 352.202 868.380, 354.999 868.820, 355 869.211 C 355 869.602, 356.688 869.839, 358.750 869.737 C 360.813 869.635, 363.063 869.904, 363.750 870.335 C 364.438 870.766, 365 870.716, 365 870.225 C 365 869.416, 369.465 869.762, 381.324 871.490 C 384.256 871.917, 384.969 871.750, 384.382 870.774 C 383.800 869.806, 383.963 869.760, 385.058 870.582 C 385.851 871.178, 388.746 871.781, 391.492 871.923 C 394.237 872.065, 396.742 872.341, 397.059 872.536 C 398.057 873.153, 427.853 874.349, 444.154 874.426 C 452.764 874.467, 459.600 874.837, 459.345 875.250 C 459.091 875.663, 459.359 876, 459.941 876 C 460.523 876, 461 875.575, 461 875.055 C 461 874.509, 464.057 874.296, 468.250 874.550 C 480.805 875.310, 582.392 874.515, 599 873.527 C 604.225 873.216, 614.575 872.769, 622 872.533 C 629.425 872.298, 635.500 872.059, 635.500 872.003 C 635.500 871.946, 639.550 871.703, 644.500 871.462 C 659.512 870.732, 663.618 870.354, 664.852 869.591 C 665.502 869.190, 667.038 868.942, 668.267 869.041 C 669.495 869.140, 670.725 869.135, 671 869.028 C 671.275 868.922, 672.850 868.634, 674.500 868.387 C 676.150 868.140, 678.175 867.663, 679 867.326 C 679.825 866.989, 681.641 866.801, 683.037 866.909 C 684.432 867.018, 687.582 866.617, 690.037 866.019 C 692.491 865.422, 696.300 864.690, 698.500 864.393 C 700.700 864.097, 703.392 863.099, 704.483 862.177 C 706.256 860.677, 706.332 860.673, 705.198 862.145 C 704.127 863.534, 704.207 863.767, 705.715 863.645 C 706.697 863.565, 707.795 863.093, 708.155 862.595 C 708.515 862.097, 710.195 861.730, 711.887 861.778 C 713.580 861.826, 715.187 861.506, 715.459 861.067 C 715.730 860.628, 717.088 860.485, 718.476 860.751 C 719.921 861.027, 721 860.769, 721 860.148 C 721 859.551, 721.675 859.322, 722.500 859.638 C 723.339 859.960, 724 859.665, 724 858.967 C 724 856.800, 727.264 855.071, 729.300 856.160 C 731.256 857.208, 734.433 855.510, 733.461 853.937 C 733.177 853.477, 734.644 852.816, 736.722 852.469 C 741.829 851.614, 742.947 851.174, 740.250 851.079 C 739.013 851.036, 738 850.625, 738 850.167 C 738 849.708, 737.306 849.333, 736.457 849.333 C 735.553 849.333, 735.134 849.907, 735.446 850.719 C 735.739 851.482, 735.530 851.828, 734.981 851.489 C 733.430 850.530, 730.854 845.046, 731.480 844.033 C 731.788 843.534, 730.918 843.329, 729.546 843.577 C 727.747 843.904, 727.196 843.654, 727.569 842.682 C 727.865 841.910, 727.427 841.333, 726.543 841.333 C 725.694 841.333, 725 841.633, 725 842 C 725 843.260, 720.904 842.362, 718.926 840.669 C 717.837 839.736, 715.720 838.926, 714.223 838.868 C 712.725 838.810, 710.600 838.401, 709.500 837.959 C 706.434 836.727, 701.643 835.651, 700.250 835.881 C 699.563 835.995, 699 835.632, 699 835.075 C 699 834.518, 698.360 834.308, 697.578 834.608 C 696.796 834.908, 695.319 834.706, 694.295 834.158 C 693.272 833.610, 689.074 832.860, 684.967 832.490 C 680.860 832.121, 675.925 831.637, 674 831.416 C 670.602 831.026, 664.705 830.427, 656.500 829.638 C 644.525 828.486, 638.083 827.811, 634.500 827.333 C 626.163 826.221, 622.991 826.035, 604.500 825.575 C 594.050 825.315, 580.550 824.794, 574.500 824.418 C 563.716 823.747, 554.712 823.665, 516.500 823.893 C 506.050 823.956, 491.117 823.826, 483.315 823.604 C 475.514 823.383, 468.907 823.426, 468.634 823.699" stroke="none" fill="currentColor" fill-rule="evenodd"/>
	<path fill-opacity="0.209" d="M 792.440 214.874 C 773.955 219.678, 762.871 238.997, 768.723 256.214 L 770.665 261.927 767.937 266.214 C 766.437 268.571, 748.922 296.600, 729.015 328.500 C 709.108 360.400, 692.688 386.635, 692.527 386.800 C 692.366 386.964, 688.244 384.683, 683.367 381.730 C 658.397 366.612, 636.026 354.082, 632.130 353.034 C 623.663 350.756, 613.371 355.483, 609.630 363.366 C 608.734 365.256, 608 369.273, 608 372.293 C 608 377.778, 607.976 377.820, 580.983 419.642 C 566.123 442.664, 553.593 461.627, 553.138 461.781 C 552.684 461.936, 537.121 449.336, 518.554 433.781 C 499.988 418.227, 483.065 404.199, 480.949 402.608 C 476.776 399.471, 469.949 398.224, 463.535 399.427 C 456.108 400.821, 449.067 410.141, 449.022 418.639 C 449.002 422.396, 446.042 427.187, 416.895 470.639 C 399.237 496.962, 384.207 519.114, 383.495 519.864 C 382.415 521.003, 379.744 519.259, 367.350 509.327 C 331.248 480.393, 324.841 475.666, 320.047 474.422 C 307.272 471.108, 295 479.753, 295 492.066 C 295 495.211, 294.175 497.368, 291.635 500.866 C 284.008 511.368, 210.125 619.857, 208.626 622.757 C 202.302 634.985, 214.418 650.208, 228.388 647.587 C 235.382 646.275, 237.800 643.344, 265.180 603 C 309.093 538.295, 321.099 521, 322.103 521 C 322.628 521, 335.423 530.788, 350.537 542.750 C 365.652 554.712, 379.545 565.309, 381.411 566.297 C 394.918 573.452, 409.968 563.944, 409.994 548.239 C 409.999 545.665, 413.758 539.448, 427.830 518.739 C 437.636 504.308, 452.548 482.150, 460.968 469.500 C 469.388 456.850, 476.402 446.350, 476.555 446.166 C 476.709 445.983, 483.959 451.853, 492.667 459.212 C 517.852 480.494, 546.212 504.330, 548.853 506.433 C 552.635 509.444, 559.951 510.981, 565.188 509.864 C 573.905 508.005, 580.931 499.325, 580.978 490.356 C 580.998 486.663, 583.583 482.213, 604.798 449.356 C 617.887 429.085, 630.599 409.239, 633.048 405.254 C 635.900 400.612, 638.039 398.129, 639 398.346 C 639.825 398.532, 652.991 406.141, 668.258 415.255 C 685.652 425.640, 697.464 432.072, 699.895 432.482 C 711.768 434.488, 722.923 424.276, 722.978 411.351 C 722.999 406.355, 723.837 404.863, 751.330 360.851 C 766.912 335.908, 784.598 307.439, 790.633 297.588 L 801.605 279.676 807.553 278.022 C 815.299 275.869, 818.674 274.020, 823.266 269.413 C 832.563 260.086, 835.256 245.610, 829.864 233.954 C 824.458 222.270, 814.444 215.208, 802.251 214.482 C 798.538 214.260, 794.123 214.437, 792.440 214.874 M 297.500 244.070 C 288.138 245.453, 275.281 249.753, 266.257 254.519 C 245.554 265.453, 229.959 282.565, 222.059 303.016 C 215.743 319.368, 215.500 322.197, 215.500 379.500 C 215.500 434.064, 215.780 438.416, 220.224 453 C 225.800 471.301, 238.520 489.195, 254.171 500.757 C 259.470 504.671, 269.066 510, 270.817 510 C 272.580 510, 283 493.055, 283 490.188 C 283 480.330, 293.499 466.985, 304 463.495 C 311.765 460.914, 320.647 461.222, 327.247 464.302 C 330.136 465.650, 339.925 472.651, 349 479.859 C 373.248 499.118, 380.031 504.309, 380.395 503.882 C 380.574 503.672, 393.239 484.858, 408.539 462.074 C 433.747 424.537, 436.439 420.129, 437.226 415.112 C 438.512 406.911, 441.505 401.067, 447.116 395.799 C 454.266 389.086, 461.156 386.687, 471.750 387.224 L 480 387.641 479.978 357.071 C 479.960 330.667, 479.695 325.317, 478.038 317.824 C 470.200 282.382, 444.390 256.126, 407.175 245.737 C 399.873 243.699, 397.164 243.585, 351.500 243.389 C 325.100 243.276, 300.800 243.582, 297.500 244.070 M 610.306 244.456 C 589.188 248.374, 571.675 257.358, 557.478 271.554 C 545.982 283.050, 538.577 295.617, 533.349 312.501 L 530.563 321.500 530.284 375 L 530.005 428.500 539.919 436.500 C 545.372 440.900, 550.208 444.290, 550.667 444.032 C 551.125 443.775, 561.513 428.097, 573.750 409.191 C 594.167 377.649, 596 374.455, 596 370.420 C 596 360.681, 602.549 349.965, 611.634 344.838 C 615.677 342.556, 617.446 340.798, 618.858 337.658 C 621.230 332.385, 624.406 329.474, 629.904 327.534 C 633.410 326.297, 639.596 326.001, 661.876 326.006 C 678.066 326.009, 691.064 326.445, 693.277 327.060 C 697.697 328.287, 703.454 333.043, 705.641 337.273 C 707.553 340.971, 707.508 341.016, 716.521 326.500 C 720.278 320.450, 730.745 303.584, 739.781 289.019 L 756.209 262.538 752.949 259.816 C 748.072 255.745, 734.661 249.371, 724.500 246.297 L 715.500 243.573 666.500 243.347 C 629.091 243.174, 615.798 243.437, 610.306 244.456 M 789.314 322.570 C 787.595 325.281, 774.743 345.737, 760.753 368.027 C 735.875 407.666, 735.306 408.692, 734.749 414.834 C 733.657 426.869, 726.673 436.513, 715.268 441.735 C 710.487 443.924, 708.767 444.186, 701.648 443.810 C 694.697 443.442, 692.472 442.844, 686.500 439.734 L 679.500 436.088 653.666 435.888 L 627.832 435.688 624.028 441.594 C 621.935 444.842, 614.242 456.725, 606.932 468 C 595.596 485.486, 593.517 489.309, 592.794 494 C 592.327 497.025, 590.859 501.723, 589.531 504.440 C 588.204 507.158, 587.324 509.716, 587.578 510.126 C 588.312 511.314, 598.025 514.699, 606.086 516.575 C 612.389 518.042, 620.590 518.364, 660.811 518.728 L 708.122 519.155 707.811 544.858 C 707.505 570.170, 707.461 570.638, 704.945 575.522 C 703.132 579.043, 700.978 581.355, 697.523 583.491 L 692.655 586.500 662.078 586.500 L 631.500 586.500 626.989 583.848 C 621.016 580.337, 617.796 574.557, 617.062 566.030 L 616.500 559.500 573.114 559.239 L 529.728 558.979 530.282 573.739 C 530.907 590.363, 533.399 601.501, 539.396 614.481 C 543.890 624.208, 547.843 629.810, 556.896 639.287 C 570.190 653.202, 585.579 661.796, 605.960 666.689 C 614.538 668.748, 694.049 669.787, 709.108 668.036 C 733.419 665.210, 752.079 656.043, 768.596 638.813 C 780.769 626.115, 787.606 613.523, 792.284 595.187 L 794.500 586.500 794.500 456 C 794.500 369.657, 794.151 324.170, 793.470 321.570 L 792.440 317.640 789.314 322.570 M 315.544 327.589 C 310.688 329.368, 307.400 332.340, 304.903 337.210 C 303.126 340.675, 303 343.569, 303 380.895 C 303 406.708, 303.377 421.867, 304.064 423.685 C 305.576 427.687, 309.844 431.949, 314.500 434.104 C 318.095 435.768, 321.387 435.958, 347 435.972 C 363.592 435.982, 377.054 435.557, 379.219 434.956 C 384.193 433.574, 388.880 429.473, 391.120 424.541 C 392.802 420.839, 392.956 417.188, 392.956 381 C 392.956 344.556, 392.811 341.182, 391.087 337.384 C 389.042 332.882, 384.398 328.912, 379.101 327.138 C 373.750 325.346, 320.640 325.723, 315.544 327.589 M 456.805 497.133 C 444.323 515.631, 431.386 534.661, 428.055 539.421 C 424.725 544.181, 422 549.102, 422 550.356 C 422 554.579, 418.803 563.447, 415.747 567.703 C 410.516 574.986, 401.486 580, 393.599 580 C 390.299 580, 387.769 580.849, 383.908 583.250 L 378.682 586.500 350.309 586.820 C 326.166 587.092, 321.205 586.897, 317.031 585.510 C 311.475 583.665, 305.944 578.251, 303.933 572.691 L 302.654 569.154 297.016 577.327 C 293.915 581.822, 281.995 599.177, 270.526 615.893 L 249.674 646.285 253.087 649.091 C 262.170 656.556, 277.632 663.622, 291.804 666.783 C 298.520 668.281, 305.806 668.496, 349 668.471 L 398.500 668.441 408.491 665.717 C 443.010 656.305, 467.415 632.399, 477.142 598.470 C 479.371 590.695, 479.435 589.204, 479.756 537.500 C 479.938 508.350, 479.954 479.775, 479.793 474 L 479.500 463.500 456.805 497.133 M 216.603 559.718 C 214.828 560.172, 214.743 560.999, 215.290 572.579 C 215.612 579.385, 216.263 585.648, 216.737 586.495 C 217.397 587.673, 219.857 584.754, 227.195 574.085 C 234.431 563.565, 236.428 559.994, 235.314 559.567 C 233.575 558.900, 219.351 559.014, 216.603 559.718 M 184 739 L 184 782 200.750 782.112 C 209.963 782.173, 353.962 782.286, 520.750 782.362 L 824 782.500 824 739.250 L 824 696 504 696 L 184 696 184 739" stroke="none" fill="currentColor" fill-rule="evenodd"/>
	<path fill-opacity="0.535" d="M 788.763 216.514 C 779.682 219.849, 772.721 226.885, 769.484 236 C 767.415 241.825, 767.442 252.564, 769.537 257.802 L 771.171 261.885 732.916 323.192 C 711.875 356.912, 694.093 385.127, 693.401 385.894 C 692.342 387.065, 689.285 385.606, 674.320 376.790 C 634.370 353.255, 635.101 353.635, 628.872 353.184 C 624.355 352.858, 622.114 353.251, 618.490 355.005 C 611.942 358.175, 609.036 362.987, 608.132 372.158 L 607.408 379.500 580.583 421 C 565.829 443.825, 553.612 462.662, 553.435 462.861 C 553.257 463.059, 536.774 449.572, 516.806 432.889 C 496.838 416.206, 478.942 401.756, 477.039 400.778 C 470.926 397.638, 460.921 399.048, 455.680 403.788 C 452.615 406.560, 449.986 412.642, 449.536 418.006 C 449.304 420.755, 448.791 423.566, 448.395 424.252 C 447.999 424.938, 433.055 447.195, 415.186 473.711 L 382.698 521.922 377.099 517.449 C 348.526 494.620, 326.146 477.349, 323.174 475.834 C 316.135 472.245, 306.622 474.080, 300.240 480.256 C 296.869 483.519, 295.015 488.239, 295.006 493.584 C 295.002 495.578, 293.532 498.760, 290.850 502.584 C 288.567 505.838, 277.166 522.450, 265.513 539.500 C 253.860 556.550, 236.302 582.198, 226.494 596.496 C 216.687 610.793, 208.203 623.987, 207.642 625.815 C 205.682 632.202, 210.022 641.747, 216.476 645.242 C 223.034 648.794, 232.113 647.659, 236.931 642.686 C 238.629 640.933, 247.041 629.150, 255.626 616.500 C 305.090 543.615, 321.417 519.974, 322.118 520.222 C 322.549 520.375, 335.761 530.625, 351.477 543 C 367.193 555.375, 381.278 566.042, 382.776 566.705 C 387.105 568.620, 394.845 568.253, 399.698 565.904 C 405.341 563.173, 408.990 557.126, 409.428 549.785 C 409.712 545.017, 410.508 543.339, 416.690 534.465 C 420.508 528.984, 435.477 506.821, 449.954 485.212 C 464.430 463.604, 476.645 446.054, 477.098 446.212 C 477.896 446.492, 509.150 472.498, 537.115 496.155 C 544.812 502.665, 552.513 508.344, 554.563 509.021 C 563.162 511.859, 574.038 507.766, 577.873 500.248 C 578.925 498.186, 580.206 493.799, 580.720 490.499 C 581.573 485.015, 583.540 481.580, 603.617 450.500 C 615.697 431.800, 628.218 412.322, 631.442 407.215 C 634.667 402.108, 637.596 397.750, 637.951 397.530 C 638.307 397.310, 650.276 404.120, 664.549 412.664 C 697.066 432.128, 696.812 432, 703 432 C 714.342 432, 722.286 423.814, 722.286 412.127 C 722.286 406.762, 722.577 406.239, 750.443 361.603 C 765.930 336.796, 783.918 307.837, 790.418 297.250 C 801.820 278.677, 802.348 278, 805.458 278 C 809.957 278, 820.251 272.618, 824.069 268.269 C 832.589 258.564, 834.578 244.872, 829.118 233.500 C 823.388 221.565, 812.971 214.975, 800 215.080 C 795.875 215.114, 790.818 215.759, 788.763 216.514 M 301 244.074 C 268.057 248.034, 239.206 268.017, 225.533 296.347 C 216.588 314.878, 216.690 314.002, 216.266 376.579 C 215.907 429.496, 215.975 432.067, 218.006 442.079 C 222.156 462.538, 231.520 479.720, 245.832 493.132 C 252.753 499.618, 268.247 510.115, 270.636 509.935 C 272.747 509.776, 281.549 494.289, 282.747 488.626 C 285.227 476.905, 290.732 469.574, 301 464.322 C 305.684 461.925, 307.686 461.510, 314.500 461.519 C 320.482 461.527, 323.649 462.058, 327.053 463.622 C 331.253 465.551, 346.038 476.713, 370.192 496.189 L 379.884 504.005 408.442 461.456 C 431.379 427.281, 437 418.262, 437 415.632 C 437 407.426, 443.627 396.786, 452.048 391.470 C 459.796 386.578, 471.350 384.864, 478.335 387.569 C 480.097 388.251, 480.153 386.993, 479.741 355.890 C 479.354 326.718, 479.096 322.666, 477.137 315.107 C 468.355 281.218, 442.535 255.720, 407.491 246.330 L 397.500 243.653 353 243.413 C 328.525 243.281, 305.125 243.579, 301 244.074 M 616 244.032 C 574.587 248.930, 542.070 277.587, 532.330 317.767 C 530.961 323.416, 530.631 332.799, 530.285 376.034 L 529.872 427.569 539.669 435.784 C 545.057 440.303, 549.750 444, 550.096 444 C 550.764 444, 555.704 436.569, 579.744 399.402 C 593.898 377.517, 594.717 375.978, 595.330 370.114 C 596.516 358.770, 603.892 347.880, 613.490 343.303 C 615.421 342.383, 617 341.126, 617 340.511 C 617 337.372, 623.006 330.217, 627.358 328.172 C 631.782 326.092, 633.265 326, 662.277 326 C 691.710 326, 692.704 326.064, 697.038 328.250 C 699.866 329.676, 702.644 332.212, 704.625 335.176 L 707.750 339.852 725.579 311.176 C 735.385 295.404, 746.220 278, 749.658 272.500 L 755.908 262.500 753.722 260.821 C 742.141 251.923, 726.379 245.993, 709 243.994 C 699.156 242.862, 625.639 242.892, 616 244.032 M 763.261 364.750 C 735.807 408.615, 735.245 409.619, 734.830 415.514 C 734.049 426.612, 726.833 436.712, 716 441.869 C 711.579 443.973, 709.018 444.488, 702.948 444.493 C 696.260 444.499, 694.544 444.080, 687.948 440.826 L 680.500 437.152 656.500 436.732 C 643.300 436.500, 631.600 435.999, 630.500 435.618 C 628.871 435.054, 627.954 435.813, 625.557 439.713 C 623.938 442.346, 616.315 454.175, 608.618 466 C 596.680 484.338, 594.426 488.431, 593.288 493.829 C 592.554 497.310, 590.828 502.380, 589.452 505.095 L 586.951 510.031 589.725 511.042 C 591.251 511.598, 593.625 512.473, 595 512.985 C 606.425 517.240, 607.814 517.344, 658.750 517.738 L 708 518.120 707.994 543.310 C 707.991 557.982, 707.546 570.095, 706.928 572.321 C 705.512 577.421, 699.844 583.512, 694.679 585.485 C 691.101 586.851, 686.063 587.043, 660.327 586.793 L 630.168 586.500 625.834 583.487 C 620.541 579.806, 617.296 573.740, 616.404 565.856 L 615.742 560 572.871 560 L 530 560 530 567.276 C 530 618.454, 560.666 657.461, 607.951 666.431 C 614.718 667.715, 624.605 667.999, 662.360 667.992 C 689.369 667.988, 711.195 667.554, 715 666.947 C 745.490 662.077, 772.685 641.444, 785.678 613.320 C 787.565 609.237, 790.093 602.433, 791.297 598.198 L 793.485 590.500 793.797 460.500 C 793.969 389, 793.827 328.137, 793.483 325.250 C 793.138 322.363, 792.499 320, 792.063 320 C 791.627 320, 778.666 340.137, 763.261 364.750 M 312.907 328.328 C 310.012 329.857, 307.471 332.318, 305.500 335.500 L 302.500 340.344 302.500 381.586 L 302.500 422.829 305.544 427.164 C 307.219 429.549, 310.594 432.625, 313.044 434 C 317.395 436.441, 318.006 436.502, 339 436.593 C 350.825 436.645, 365.050 436.411, 370.612 436.075 C 379.457 435.540, 381.220 435.120, 384.685 432.718 C 386.864 431.208, 389.739 428.066, 391.074 425.736 L 393.500 421.500 393.795 383.143 C 394.123 340.469, 393.868 338.326, 387.724 332.015 C 382.006 326.144, 381.050 326, 347.689 326 C 317.818 326, 317.241 326.039, 312.907 328.328 M 470.610 477.099 C 465.720 484.470, 452.854 503.550, 442.018 519.500 C 424.224 545.693, 422.259 549.001, 421.715 553.672 C 420.062 567.872, 408.035 579.267, 393.175 580.712 C 390.054 581.016, 386.742 581.922, 385.816 582.727 C 381.566 586.420, 377.158 586.911, 347.872 586.956 C 317.414 587.003, 315.819 586.793, 309.625 581.920 C 308.043 580.676, 305.762 577.527, 304.555 574.922 L 302.361 570.186 276.681 607.556 C 262.556 628.110, 251 645.378, 251 645.931 C 251 649.526, 272.771 661.316, 286.716 665.273 C 294.307 667.427, 295.829 667.482, 348 667.482 C 409.337 667.482, 408.248 667.611, 427.500 658.071 C 446.600 648.606, 460.886 634.294, 469.997 615.500 C 479.372 596.162, 479.344 596.395, 479.751 534 C 479.947 504.025, 479.971 475.945, 479.804 471.599 L 479.500 463.699 470.610 477.099 M 216 570.875 C 216 576.856, 216.282 583.160, 216.627 584.883 C 217.240 587.948, 217.439 587.747, 225.698 575.758 C 230.342 569.016, 234.576 562.712, 235.106 561.750 C 235.996 560.136, 235.293 560, 226.035 560 L 216 560 216 570.875 M 184 739 L 184 782 504 782 L 824 782 824 739 L 824 696 504 696 L 184 696 184 739" stroke="none" fill="currentColor" fill-rule="evenodd"/>
</svg>