<svg xmlns="http://www.w3.org/2000/svg" width="1024" height="1024" viewBox="0 0 1024 1024" version="1.1">
	<path fill-opacity="0.137" d="M 319 261.500 L 319 291 348.500 291 L 378 291 378 261.500 L 378 232 348.500 232 L 319 232 319 261.500 M 189 269.058 C 164.415 275.445, 144.097 295.501, 137.394 320 C 134.960 328.898, 134.953 348.057, 137.381 357 C 145.993 388.720, 173.946 410, 207 410 C 226.680 410, 242.763 403.263, 257.068 389.027 C 266.847 379.294, 272.434 369.720, 276.083 356.443 C 278.719 346.851, 278.934 332.835, 276.599 322.770 C 270.575 296.800, 249.895 275.495, 224.377 268.968 C 214.167 266.357, 199.253 266.395, 189 269.058 M 287.567 304 C 295.571 324.383, 296.573 341.198, 291.027 362.055 C 289.938 366.150, 289.036 369.836, 289.024 370.247 C 289.011 370.658, 362.833 371.108, 453.073 371.247 L 617.145 371.500 588.573 396.866 C 572.858 410.817, 560 422.346, 560 422.486 C 560 422.627, 562.911 424.235, 566.470 426.060 C 582.768 434.419, 596.078 448.004, 603.846 464.209 C 606.406 469.549, 608.806 473.824, 609.179 473.709 C 610.347 473.350, 666.885 420.244, 679.597 407.565 C 692.663 394.535, 697.244 387.292, 700.485 374.540 C 706.776 349.792, 694.137 321.663, 671.376 309.751 C 656.924 302.189, 672.542 302.740, 469.239 302.614 C 307.603 302.513, 287.045 302.670, 287.567 304 M 508.427 434.901 C 483.425 441.683, 465.189 458.647, 457.281 482.479 C 454.933 489.553, 454.617 492.093, 454.597 504 C 454.577 516.193, 454.843 518.274, 457.345 525.500 C 461.293 536.899, 467.226 546.416, 475.491 554.603 C 488.974 567.960, 502.825 573.934, 522.243 574.769 C 536.628 575.388, 544.506 573.765, 557.500 567.510 C 581.505 555.952, 597 531.141, 597 504.259 C 597 488.827, 593.768 477.674, 585.664 465.148 C 577.075 451.870, 563.785 441.598, 548.500 436.424 C 537.565 432.722, 519.054 432.019, 508.427 434.901 M 394.932 469.072 C 384.618 470.675, 374.675 478.251, 370.088 488 C 367.937 492.571, 367.500 494.939, 367.500 502.021 C 367.500 509.633, 367.851 511.254, 370.787 517.218 C 376.799 529.431, 387.366 536, 401 536 C 410.598 536, 418.017 533.078, 424.253 526.843 C 431.210 519.885, 434.351 512.500, 434.383 503.020 C 434.422 491.844, 432.041 485.864, 424.589 478.411 C 416.353 470.176, 406.929 467.208, 394.932 469.072 M 641.734 473.024 C 626.983 476.749, 616.949 489.308, 616.189 505 C 615.728 514.495, 618.307 521.901, 624.455 528.739 C 641.012 547.154, 670.533 543.152, 680.879 521.089 C 683.131 516.287, 683.500 514.162, 683.500 506 C 683.500 497.934, 683.129 495.745, 681.043 491.500 C 677.881 485.065, 670.830 478.059, 664.567 475.127 C 658.986 472.514, 647.826 471.487, 641.734 473.024 M 428.887 541.809 C 421.524 548.304, 404.025 563.427, 390 575.417 C 375.975 587.406, 358.741 602.159, 351.701 608.199 C 337.433 620.443, 332.059 626.609, 327.831 635.588 C 312.691 667.733, 328.741 704.557, 363 716.276 L 369.500 718.500 535.872 718.770 C 694.659 719.028, 702.217 718.959, 701.663 717.270 C 696.369 701.124, 695.721 698.001, 695.278 686.500 C 694.841 675.158, 696.211 664.528, 699.563 653.253 L 700.232 651.007 553.516 650.753 L 406.800 650.500 425.066 635 C 441.782 620.815, 455.766 608.757, 477.679 589.637 C 482.177 585.711, 485.889 582.222, 485.929 581.882 C 485.968 581.542, 482.977 579.517, 479.283 577.382 C 470.689 572.416, 459.186 561.554, 453.571 553.103 C 451.158 549.471, 447.905 542.788, 446.342 538.250 C 444.779 533.713, 443.224 530.001, 442.887 530 C 442.550 530, 436.250 535.314, 428.887 541.809 M 765.072 613.553 C 746.039 617.681, 727.445 632.237, 718.489 650.022 C 713.078 660.766, 711 669.734, 711 682.336 C 711 695.570, 712.592 702.333, 718.671 714.933 C 722.438 722.740, 724.638 725.780, 731.437 732.580 C 738.411 739.554, 741.225 741.560, 750.076 745.868 C 771.947 756.515, 792.434 756.417, 814.500 745.560 C 832.744 736.584, 846.096 719.854, 851.423 699.298 C 853.489 691.325, 853.509 673.393, 851.461 665.460 C 844.729 639.379, 823.651 618.832, 798.185 613.525 C 789.244 611.661, 773.734 611.675, 765.072 613.553 M 847.300 624.250 C 852.349 630.201, 858.008 638.931, 859.940 643.750 L 861.243 647 884.621 647 L 908 647 908 633 L 908 619 875.423 619 L 842.845 619 847.300 624.250 M 886.629 659.676 L 866.759 660.043 867.499 663.272 C 867.907 665.047, 868.523 671.225, 868.870 677 L 869.500 687.500 905.500 687.534 C 925.300 687.553, 946.337 687.412, 952.250 687.220 L 963 686.871 963 673.436 L 963 660 950.250 659.997 C 943.237 659.995, 930.525 659.839, 922 659.651 C 913.475 659.463, 897.558 659.475, 886.629 659.676 M 867.549 701.250 C 867.335 701.938, 866.194 705.611, 865.014 709.414 C 863.834 713.216, 861.663 718.616, 860.190 721.414 C 858.717 724.211, 857.359 726.837, 857.172 727.250 C 856.986 727.663, 872.846 728, 892.417 728 L 928 728 928 714 L 928 700 897.969 700 C 874.817 700, 867.848 700.286, 867.549 701.250 M 518 760.500 L 518 790 547.500 790 L 577 790 577 760.500 L 577 731 547.500 731 L 518 731 518 760.500" stroke="none" fill="currentColor" fill-rule="evenodd"/>
	<path fill-opacity="0.259" d="M 319.235 261.250 L 319.500 290.500 348.750 290.765 L 378 291.030 378 261.515 L 378 232 348.485 232 L 318.970 232 319.235 261.250 M 194.363 268.027 C 187.172 269.321, 177.047 273.141, 170.258 277.123 C 162.892 281.443, 149.470 294.846, 145.179 302.165 C 130.227 327.675, 132.998 362.075, 151.790 384.236 C 158.727 392.415, 165.400 397.565, 175.500 402.531 C 221.574 425.184, 275.580 393.211, 277.741 342 C 278.295 328.889, 276.441 319.475, 271.146 308.500 C 261.560 288.633, 245.413 274.829, 225.500 269.478 C 218.267 267.534, 201.453 266.751, 194.363 268.027 M 288.444 305.891 C 292.511 313.757, 294.443 324.189, 294.390 338 C 294.339 351.299, 294.136 352.560, 289.423 368.747 L 288.768 370.994 453.074 371.247 L 617.380 371.500 599.424 387.500 C 589.548 396.300, 576.641 407.740, 570.740 412.921 L 560.012 422.342 567.256 426.271 C 577.243 431.688, 582.650 435.825, 590.196 443.825 C 597.190 451.238, 603.108 460.255, 606.568 468.769 L 608.754 474.147 635.127 449.411 C 649.632 435.806, 667.176 419.368, 674.113 412.882 C 681.215 406.242, 688.762 398.110, 691.384 394.272 C 712.841 362.870, 700.031 321.167, 664.500 306.747 L 656.500 303.500 471.716 303.234 L 286.933 302.969 288.444 305.891 M 513.763 434.033 C 490.469 437.955, 471.042 452.849, 460.977 474.500 C 454.884 487.607, 453.092 499.140, 454.995 512.992 C 459.765 547.715, 487.234 573.018, 522 574.715 C 545.280 575.851, 566.845 566.198, 581.129 548.247 C 592.437 534.036, 596.541 521.890, 596.419 503 C 596.350 492.308, 595.956 489.343, 593.695 482.500 C 587.033 462.339, 570.951 445.044, 552.304 437.988 C 540.854 433.655, 525.416 432.071, 513.763 434.033 M 390.324 470.381 C 371.138 476.648, 361.879 498.185, 370.519 516.449 C 373.729 523.234, 379.433 529.143, 386.216 532.711 C 390.918 535.184, 392.546 535.490, 401 535.490 C 409.346 535.490, 411.107 535.169, 415.500 532.845 C 422.489 529.147, 427.767 523.570, 431.254 516.201 C 434.038 510.317, 434.206 509.296, 433.802 500.701 C 433.476 493.747, 432.826 490.451, 431.142 487.205 C 425.196 475.745, 415.735 469.815, 402.608 469.322 C 397.646 469.135, 392.880 469.546, 390.324 470.381 M 641.081 473.529 C 634.147 475.470, 630.272 477.896, 625.032 483.581 C 618.625 490.532, 616.594 495.896, 616.543 506 C 616.507 513.178, 616.915 515.386, 619.170 520.196 C 624.815 532.239, 634.984 539.021, 648.500 539.758 C 659.557 540.360, 666.400 537.760, 674.149 530.011 C 678.826 525.334, 680.177 523.167, 681.906 517.569 C 685.508 505.908, 684.132 495.764, 677.681 486.401 C 669.919 475.139, 654.592 469.749, 641.081 473.529 M 434 537.687 C 429.325 541.794, 411.325 557.329, 394 572.210 C 331.098 626.238, 334.591 622.903, 328.720 634.543 C 322.892 646.096, 320.987 661.999, 323.933 674.500 C 328.395 693.433, 343.084 709.153, 362.500 715.772 L 370.500 718.500 533 718.796 C 622.375 718.959, 696.906 718.837, 698.623 718.525 L 701.747 717.957 698.911 709.728 C 695.212 698.996, 693.649 685.299, 694.945 674.969 C 695.907 667.291, 698.193 656.235, 699.537 652.753 C 700.177 651.097, 692.645 650.994, 553.388 650.753 L 406.565 650.500 424.033 635.628 C 444.290 618.381, 467.177 598.520, 478.209 588.614 L 485.918 581.693 477.709 576.685 C 462.867 567.629, 450.741 552.905, 445.890 538.046 C 444.714 534.446, 443.471 531.212, 443.126 530.860 C 442.782 530.508, 438.675 533.580, 434 537.687 M 766.500 613.468 C 743.609 618.460, 724.262 634.896, 715.886 656.468 C 704.011 687.051, 714.745 722.592, 741.396 740.928 C 754.545 749.975, 767.276 753.413, 785 752.705 C 798.719 752.157, 807.205 749.890, 817.423 744.044 C 834.427 734.315, 847.249 716.754, 851.588 697.250 C 853.965 686.567, 853.120 670.169, 849.680 660.193 C 842.992 640.799, 828.050 624.756, 809.749 617.320 C 797.253 612.242, 779.406 610.653, 766.500 613.468 M 847.190 623.789 C 851.710 628.792, 856.120 635.290, 859.392 641.769 L 862.053 647.037 884.776 646.769 L 907.500 646.500 907.779 633.250 L 908.058 620 875.913 620 L 843.767 620 847.190 623.789 M 867.395 661.750 C 868.522 665.474, 869.985 676.744, 869.992 681.750 L 870 687 916 687 L 962 687 962 673.500 L 962 660 914.433 660 C 869.595 660, 866.896 660.100, 867.395 661.750 M 867.610 701.235 C 865.148 710.437, 862.265 718.479, 859.895 722.750 L 856.983 728 892.520 728 L 928.056 728 927.778 714.250 L 927.500 700.500 897.724 700.235 C 874.383 700.027, 867.876 700.243, 867.610 701.235 M 518 759.985 L 518 789 547.515 789 L 577.031 789 576.765 760.250 L 576.500 731.500 547.250 731.235 L 518 730.970 518 759.985" stroke="none" fill="currentColor" fill-rule="evenodd"/>
	<path fill-opacity="0.577" d="M 319 261 L 319 290 348 290 L 377 290 377 261 L 377 232 348 232 L 319 232 319 261 M 197.161 268.103 C 162.913 272.399, 136 302.805, 136 337.202 C 136 357.552, 142.729 374.754, 155.870 387.997 C 175.056 407.331, 200.171 414.090, 226.116 406.901 C 238.275 403.531, 246.420 398.617, 256.577 388.522 C 264.036 381.108, 266.387 377.985, 269.769 371 C 276.875 356.322, 279.271 342.248, 277.043 328.282 C 270.843 289.427, 236.062 263.224, 197.161 268.103 M 288.512 304.732 C 293.581 316.838, 294.400 321.386, 294.413 337.500 C 294.425 351.882, 294.168 354.334, 291.863 361.750 L 289.300 370 453.733 370 C 559.624 370, 618.048 370.346, 617.833 370.971 C 617.500 371.942, 607.537 380.916, 577.500 407.301 C 568.700 415.031, 561.275 421.562, 561 421.814 C 560.725 422.067, 561.019 422.460, 561.653 422.688 C 562.286 422.915, 566.738 425.441, 571.546 428.301 C 586.422 437.150, 599.713 452.057, 606.590 467.609 L 609.042 473.153 614.948 467.826 C 628.225 455.852, 666.355 419.760, 678.623 407.555 C 689.921 396.315, 692.235 393.457, 695.264 387 C 699.872 377.176, 701.394 370.373, 701.305 360 C 701.093 335.329, 685.345 314.128, 661 305.740 L 654.500 303.500 471.136 303.232 C 296.112 302.976, 287.806 303.044, 288.512 304.732 M 506.500 436.123 C 493.595 439.775, 485.339 444.607, 476 453.974 C 461.492 468.527, 456.066 480.603, 455.248 500.161 C 454.630 514.919, 456.457 523.711, 462.759 536.312 C 466.495 543.784, 468.955 547.093, 475.927 554.028 C 490.110 568.137, 504.767 574.191, 525 574.297 C 537.938 574.365, 546.521 572.402, 558 566.752 C 564.779 563.415, 568.221 560.840, 575 554.034 C 587.854 541.129, 593.794 529.278, 596.137 511.867 C 600.674 478.157, 577.724 444.497, 544.391 435.972 C 533.867 433.281, 516.297 433.351, 506.500 436.123 M 392.734 470.025 C 382.492 472.609, 373.496 480.414, 369.965 489.779 C 366.786 498.210, 367.458 510.410, 371.511 517.848 C 377.634 529.086, 388.278 535.433, 401 535.433 C 414.015 535.433, 424.682 528.902, 430.536 517.350 C 433.204 512.083, 433.500 510.553, 433.495 502 C 433.491 493.579, 433.179 491.907, 430.745 487.283 C 424.997 476.359, 415.523 470.217, 403.290 469.483 C 399.556 469.259, 394.806 469.503, 392.734 470.025 M 637.357 475.025 C 614.888 483.917, 609.397 513.938, 627.195 530.586 C 638.906 541.540, 655.757 542.895, 669.236 533.967 C 675.521 529.804, 679.647 523.948, 682.194 515.575 C 684.047 509.486, 684.173 507.824, 683.242 501.806 C 681.433 490.119, 675.345 481.344, 665.500 476.230 C 658.535 472.613, 644.924 472.030, 637.357 475.025 M 429.852 541.719 C 418.441 551.740, 403.052 564.987, 358.415 603.210 C 349.018 611.256, 339.240 620.164, 336.686 623.005 C 327.898 632.779, 323 646.311, 323 660.816 C 323 685.792, 337.348 706, 361.664 715.274 L 367.500 717.500 534.785 717.767 L 702.069 718.034 700.557 715.110 C 699.725 713.502, 698.037 708.657, 696.805 704.343 C 693.661 693.338, 693.659 674.266, 696.799 661.671 C 698.009 656.815, 699 652.540, 699 652.171 C 699 651.802, 637.238 651.623, 561.750 651.773 C 486.263 651.923, 420.302 651.698, 415.171 651.273 L 405.843 650.500 423.585 635.500 C 451.016 612.308, 484.817 582.821, 484.912 582 C 484.944 581.725, 481.333 579.250, 476.888 576.500 C 462.781 567.772, 450.416 552.784, 445.651 538.635 C 444.445 535.054, 443.176 531.843, 442.832 531.498 C 442.487 531.153, 436.646 535.753, 429.852 541.719 M 771.315 612.945 C 740.012 617.898, 716.511 641.623, 711.955 672.873 C 709.860 687.242, 712.144 700.410, 719.264 715 C 722.577 721.788, 725.142 725.238, 732.005 732.130 C 739.234 739.390, 742.097 741.484, 750.049 745.325 C 794.275 766.691, 844.672 740.565, 852.014 692.466 C 856.567 662.635, 841.005 633.234, 813.169 619.079 C 803.328 614.075, 783.003 611.096, 771.315 612.945 M 847.141 623.250 C 850.961 627.350, 857.064 636.212, 859.880 641.750 L 862.041 646 884.520 646 L 907 646 907 633 L 907 620 875.556 620 L 844.113 620 847.141 623.250 M 868.380 663.250 C 868.713 665.038, 869.279 671.112, 869.637 676.750 L 870.287 687 916.144 687 L 962 687 962 673.500 L 962 660 914.887 660 L 867.773 660 868.380 663.250 M 867.627 702.750 C 867.348 703.712, 866.599 706.525, 865.963 709 C 865.328 711.475, 863.288 716.538, 861.431 720.250 L 858.055 727 892.528 727 L 927 727 927 714 L 927 701 897.567 701 C 870.396 701, 868.096 701.134, 867.627 702.750 M 518.654 743.157 C 518.294 749.843, 518 762.893, 518 772.157 L 518 789 547 789 L 576 789 576 760 L 576 731 547.654 731 L 519.307 731 518.654 743.157" stroke="none" fill="currentColor" fill-rule="evenodd"/>
	<path fill-opacity="0.217" d="M 578.762 369.707 C 580.006 369.946, 581.806 369.937, 582.762 369.687 C 583.718 369.437, 582.700 369.241, 580.500 369.252 C 578.300 369.263, 577.518 369.468, 578.762 369.707 M 422.264 652.718 C 423.784 652.947, 426.034 652.941, 427.264 652.704 C 428.494 652.467, 427.250 652.279, 424.500 652.286 C 421.750 652.294, 420.744 652.488, 422.264 652.718 M 680.750 717.723 C 682.538 717.945, 685.462 717.945, 687.250 717.723 C 689.038 717.502, 687.575 717.320, 684 717.320 C 680.425 717.320, 678.962 717.502, 680.750 717.723" stroke="none" fill="currentColor" fill-rule="evenodd"/>
</svg>