<svg xmlns="http://www.w3.org/2000/svg" width="1024" height="1024" viewBox="0 0 1024 1024" version="1.1">
	<path fill-opacity="0.255" d="M 162.500 176.072 C 158.442 177.278, 153.155 182.447, 150.899 187.416 C 149.125 191.322, 149.044 196.815, 149.044 313.500 C 149.044 429.721, 149.131 435.689, 150.879 439.500 C 151.888 441.700, 153.998 444.771, 155.568 446.325 C 161.692 452.385, 148.605 452, 348.410 452 L 531.576 452 536.038 449.750 C 538.922 448.296, 541.649 445.780, 543.750 442.637 L 547 437.774 547.132 347.637 C 547.362 189.846, 547.370 190.582, 545.451 186.538 C 543.517 182.463, 538.967 178.312, 534.282 176.348 C 531.620 175.233, 499.522 175.016, 348.282 175.090 C 244.455 175.141, 164.204 175.566, 162.500 176.072 M 590.324 197.638 C 584.629 199.655, 578.031 205.700, 574.489 212.145 C 571.910 216.835, 571.549 218.493, 571.575 225.500 C 571.598 231.659, 572.142 234.715, 573.938 238.779 C 576.895 245.469, 584.281 252.213, 591.684 254.983 C 597.158 257.031, 598.490 257.068, 657.386 256.787 L 717.500 256.500 723.226 253.689 C 747.089 241.973, 746.176 207.760, 721.736 197.832 C 717.886 196.269, 711.896 196.114, 656 196.135 C 604.300 196.154, 593.835 196.394, 590.324 197.638 M 583.500 283.553 C 579.580 285.609, 575.177 289.819, 573.411 293.200 C 571.615 296.637, 571.586 307.085, 573.360 311.282 C 575.170 315.566, 579.596 319.871, 584.500 322.121 C 588.176 323.807, 591.865 323.956, 630 323.956 C 676.291 323.956, 675.946 324.002, 682.689 316.872 C 686.733 312.595, 688 309.201, 688 302.647 C 688 296.090, 684.893 289.724, 679.658 285.558 L 675.816 282.500 631.158 282.240 C 592.136 282.013, 586.121 282.178, 583.500 283.553 M 583.500 350.452 C 580.460 352.002, 577.324 354.667, 575.500 357.250 L 572.500 361.500 572.240 399 L 571.980 436.500 575.005 441.741 C 577.330 445.769, 579.200 447.574, 583.089 449.545 L 588.148 452.109 617.903 451.804 L 647.659 451.500 656.200 447.266 C 674.686 438.102, 685 421.254, 685 400.224 C 685 378.623, 674.150 361.643, 654.325 352.219 L 646.500 348.500 617.500 348.202 L 588.500 347.903 583.500 350.452 M 768.447 360.403 C 755.489 364.462, 744.244 374.041, 738.701 385.741 C 735.509 392.481, 735.500 392.545, 735.500 408.719 L 735.500 424.939 713.828 446.719 C 690.055 470.612, 690.277 470.270, 691.214 481.563 C 692.294 494.595, 705.954 503.728, 718.040 499.499 C 721.660 498.232, 726.784 493.662, 745.238 475.239 L 767.977 452.540 780.860 451.970 C 792.883 451.439, 794.200 451.176, 800.563 448.043 C 805.033 445.843, 809.642 442.415, 813.941 438.093 C 824.346 427.634, 828.724 416.209, 827.730 402.110 C 826.343 382.440, 813.737 366.690, 794.762 360.920 C 787.489 358.708, 774.664 358.456, 768.447 360.403 M 222.500 477.973 C 211.521 480.471, 209.660 481.132, 200.500 485.787 C 138.046 517.525, 132.605 603.139, 190.500 643.131 C 214.644 659.809, 248.814 663.636, 277.586 652.885 C 298.543 645.053, 317.853 627.346, 327.623 607 C 338.157 585.065, 339.705 563.162, 332.431 539.002 C 326.070 517.876, 308.256 496.674, 288.500 486.715 C 279.167 482.010, 276.512 481.014, 266.622 478.505 C 254.125 475.336, 235.100 475.106, 222.500 477.973 M 376.092 477.160 C 371.077 478.601, 366.670 482.367, 364.191 487.333 C 362.031 491.657, 362 492.372, 362 538.209 L 362 584.700 364.879 588.600 C 366.463 590.745, 373.101 597.685, 379.629 604.023 C 400.428 624.214, 399.174 623.340, 414.104 628.033 L 427.418 632.217 435.966 640.859 C 440.668 645.611, 446.135 651.413, 448.114 653.750 L 451.714 658 491.897 658 C 529.806 658, 532.297 657.889, 535.914 656.044 C 540.717 653.594, 544.625 649.016, 546.023 644.205 C 546.761 641.663, 547.005 616.793, 546.800 565 L 546.500 489.500 543.640 485.285 C 541.801 482.574, 538.964 480.164, 535.694 478.535 L 530.607 476 455.054 476.090 C 409.024 476.145, 378.168 476.563, 376.092 477.160 M 585.625 477.469 C 583.493 478.229, 580.248 480.306, 578.413 482.084 C 571.646 488.643, 572 483.947, 572 567.244 L 572 642.685 574.289 647.014 C 575.548 649.395, 578.197 652.653, 580.176 654.255 C 583.353 656.826, 584.926 657.270, 593.637 658.048 C 607.901 659.322, 687.798 659.237, 693.840 657.941 C 696.930 657.278, 700.268 655.606, 702.759 653.474 C 710.259 647.055, 710.004 649.178, 709.965 593.349 C 709.938 556.143, 709.621 542.957, 708.715 541.360 C 707.301 538.870, 702.184 533.298, 678.079 508 C 668.383 497.825, 658.212 487.078, 655.475 484.118 C 652.739 481.158, 649.052 478.121, 647.282 477.368 C 642.652 475.400, 591.194 475.484, 585.625 477.469 M 750.345 513.420 C 744.305 516.232, 739.875 520.562, 737.035 526.427 C 735.064 530.498, 735.001 532.340, 735.022 584.566 C 735.042 634.916, 735.167 638.771, 736.897 642.581 C 739.281 647.830, 745.285 653.708, 751 656.389 C 755.361 658.435, 757.030 658.509, 805.118 658.785 C 852.790 659.059, 854.948 658.991, 860.118 657.055 C 867.687 654.222, 872.412 649.940, 875.989 642.674 L 879.068 636.419 878.784 583.460 C 878.501 530.669, 878.493 530.487, 876.243 526.277 C 873.149 520.487, 867.632 515.200, 862.297 512.913 C 858.095 511.112, 854.847 511.001, 806.667 511.010 L 755.500 511.020 750.345 513.420 M 354.289 630.474 C 352.523 631.242, 339.910 643.150, 326.261 656.935 L 301.444 682 292.972 682.036 C 277.296 682.102, 266.879 686.170, 256.722 696.194 C 246.782 706.003, 242.954 717.255, 244.030 733.500 C 244.759 744.521, 248.781 752.966, 257.407 761.593 C 266.726 770.912, 274.396 774.311, 287.293 774.837 C 303.112 775.482, 312.257 771.950, 323.261 760.946 C 335.626 748.581, 339.378 733.910, 335.064 714.785 C 334.601 712.733, 334.683 710.483, 335.261 709.384 C 335.805 708.348, 346.278 697.375, 358.533 685 C 373.446 669.941, 381.342 661.219, 382.407 658.628 C 385.471 651.178, 383.681 642.404, 377.743 635.768 C 372.449 629.851, 361.438 627.366, 354.289 630.474 M 439.164 683.057 C 408.045 688.607, 380.249 711.485, 368.923 740.869 C 362.365 757.886, 361.224 779.135, 365.935 796.500 C 373.770 825.376, 394.176 847.882, 422.230 858.588 C 457.875 872.190, 496.947 863.286, 523.302 835.553 C 547.178 810.429, 554.563 773.144, 541.955 741.382 C 532.953 718.702, 515.226 699.781, 494 690.196 C 480.987 684.320, 474.337 682.851, 459 682.468 C 451.025 682.268, 442.099 682.533, 439.164 683.057 M 599.929 684.354 C 589.095 687.307, 577.848 697.452, 573.988 707.753 C 570.990 715.753, 571.405 730.276, 574.830 737.231 C 578.532 744.747, 585.310 751.535, 592.794 755.219 L 599.458 758.500 671.979 758.500 L 744.500 758.500 750.259 755.672 C 757.367 752.182, 764.229 745.268, 767.797 738.003 C 770.237 733.036, 770.500 731.429, 770.500 721.500 C 770.500 712.268, 770.145 709.732, 768.294 705.721 C 764.999 698.587, 756.082 689.774, 748.712 686.369 L 742.500 683.500 673.500 683.304 C 621.019 683.155, 603.406 683.406, 599.929 684.354 M 585 785.594 C 580.418 787.579, 576.301 791.559, 573.803 796.418 C 572.230 799.476, 571.876 801.719, 572.190 806.647 C 572.689 814.481, 576.349 820.243, 583 823.662 L 587.500 825.976 631.653 825.738 L 675.805 825.500 680.120 822.373 C 693.213 812.886, 691.324 793.176, 676.640 786.068 C 672.526 784.076, 670.826 784.001, 630.434 784.039 C 595.230 784.072, 587.938 784.322, 585 785.594" stroke="none" fill="currentColor" fill-rule="evenodd"/>
	<path fill-opacity="0.295" d="M 159.695 178.092 C 157.517 179.244, 154.630 182.090, 152.945 184.748 L 150 189.392 150.022 312.946 C 150.043 431.457, 150.120 436.668, 151.913 440.616 C 153.958 445.118, 158.602 449.088, 163.899 450.862 C 166.390 451.696, 215.578 452, 348.023 452 C 547.412 452, 533.858 452.438, 540.734 445.773 C 547.446 439.268, 547.079 447.431, 546.775 311.343 L 546.500 188.185 543.442 184.407 C 541.760 182.329, 539.140 179.700, 537.619 178.565 L 534.854 176.500 349.177 176.290 C 164.843 176.081, 163.472 176.094, 159.695 178.092 M 592.713 197.403 C 584.436 199.662, 575.166 208.976, 572.916 217.292 C 571.288 223.312, 572.240 234.634, 574.792 239.613 C 575.952 241.874, 579.224 245.814, 582.064 248.368 C 590.849 256.266, 589.142 256.100, 658.110 255.780 L 718.500 255.500 723.764 252.726 C 734.349 247.148, 739.973 238.205, 739.990 226.928 C 740.004 217.540, 737.640 211.510, 731.565 205.435 C 722.340 196.210, 725.222 196.562, 657 196.314 C 610.596 196.145, 596.446 196.385, 592.713 197.403 M 584.500 283.886 C 576.179 287.719, 572 294.028, 572 302.756 C 572 309.292, 575.382 315.696, 580.836 319.487 L 585.172 322.500 629.999 322.500 L 674.827 322.500 679.074 319.500 C 689.195 312.352, 690.744 298.257, 682.423 289.046 C 675.912 281.839, 677.084 281.997, 630.349 282.022 C 591.834 282.042, 588.181 282.191, 584.500 283.886 M 586.748 349.427 C 581.667 351.240, 576.368 355.427, 574.249 359.302 C 572.695 362.143, 572.467 366.426, 572.202 397.717 C 571.998 421.905, 572.264 434.275, 573.050 437.217 C 574.485 442.582, 581.009 449.087, 586.651 450.777 C 593.124 452.717, 638.497 452.442, 646.356 450.416 C 668.602 444.680, 684.945 423.908, 684.988 401.312 C 685.036 376.313, 668.636 355.133, 644.897 349.537 C 636.274 347.505, 592.367 347.421, 586.748 349.427 M 771.500 360.383 C 759.063 363.030, 749.714 369.184, 743.113 379.069 C 736.863 388.428, 734.647 396.882, 735.316 408.805 C 735.616 414.137, 736.183 419.806, 736.576 421.401 C 737.254 424.151, 736.148 425.428, 715.361 445.901 C 692.041 468.868, 690.970 470.353, 691.022 479.616 C 691.081 489.980, 701.022 500.012, 711.218 499.994 C 719.907 499.980, 721.370 498.910, 745.546 474.894 L 768.592 452 778.639 452 C 797.097 452, 810.896 444.637, 820.380 429.725 C 825.902 421.043, 827.273 415.386, 826.818 403.167 C 826.461 393.594, 826.083 391.802, 823.134 385.698 C 819.403 377.975, 810.633 368.368, 804.498 365.284 C 794.180 360.097, 781.614 358.231, 771.500 360.383 M 224.500 478.005 C 214.164 480.114, 209.035 481.838, 201.122 485.859 C 186.403 493.340, 171.279 507.342, 163.177 520.988 C 157.870 529.927, 152.424 545.886, 151.151 556.229 C 149.721 567.838, 151.328 584.200, 154.963 595.050 C 159.030 607.187, 162.838 614.407, 169.767 623.120 C 193.357 652.780, 232.279 665.298, 269 655.035 C 288.773 649.509, 304.188 639.344, 316.602 623.645 C 329.871 606.864, 336.005 588.984, 335.993 567.122 C 335.982 547.502, 331.813 533.214, 321.459 517.314 C 301.140 486.110, 262.181 470.316, 224.500 478.005 M 373.500 478.573 C 368.851 480.990, 365.930 484.106, 363.879 488.833 C 362.132 492.861, 362 496.331, 362 538.133 C 362 574.771, 362.260 583.599, 363.403 585.800 C 365.294 589.438, 397.789 621.332, 401.530 623.220 C 403.163 624.045, 407.200 625.509, 410.500 626.474 C 426.421 631.128, 429.384 632.704, 436.616 640.359 C 440.402 644.367, 445.544 649.975, 448.042 652.823 L 452.585 658 491.542 657.978 C 527.113 657.958, 530.850 657.797, 534.523 656.128 C 539.407 653.910, 544.075 649.145, 545.668 644.753 C 546.532 642.371, 546.868 621.619, 546.924 567.218 C 546.990 502.317, 546.805 492.468, 545.452 489.232 C 543.482 484.517, 540.481 481.308, 535.790 478.903 C 532.236 477.080, 528.793 477, 454.290 477.006 C 385.764 477.012, 376.143 477.198, 373.500 478.573 M 583.056 479.252 C 580.713 480.491, 577.380 483.460, 575.648 485.850 L 572.500 490.196 572.218 565.348 C 571.907 648.141, 571.712 645.257, 578.077 651.768 C 584.316 658.149, 583.837 658.104, 643.079 657.787 L 696.658 657.500 700.300 654.721 C 702.303 653.193, 705.193 650.303, 706.721 648.300 L 709.500 644.658 709.785 594.848 C 710.041 550.286, 709.898 544.704, 708.431 541.867 C 707.530 540.124, 702.901 534.624, 698.146 529.646 C 693.391 524.668, 685.688 516.524, 681.029 511.548 C 676.370 506.571, 666.901 496.762, 659.987 489.750 L 647.415 477 617.365 477 C 588.120 477, 587.200 477.060, 583.056 479.252 M 754.757 512.083 C 746.539 514.021, 739.841 520.259, 736.597 529 C 735.099 533.034, 734.956 538.993, 735.213 586.500 C 735.495 638.620, 735.536 639.566, 737.658 643.500 C 740.363 648.512, 744.218 652.154, 750 655.160 L 754.500 657.500 804.794 657.777 C 837.771 657.958, 856.435 657.691, 859.002 657 C 864.165 655.609, 870.761 650.480, 874.492 644.955 L 877.500 640.500 877.500 584.922 L 877.500 529.344 874.479 524.456 C 870.954 518.755, 864.513 513.514, 859.225 512.046 C 854.624 510.768, 760.192 510.802, 754.757 512.083 M 358 629.941 C 356.075 630.320, 353.600 631.125, 352.500 631.729 C 351.400 632.334, 340.036 643.388, 327.247 656.295 C 314.458 669.201, 303.302 680.335, 302.455 681.037 C 301.520 681.813, 296.230 682.584, 288.964 683.002 C 277.946 683.636, 276.439 683.973, 269.695 687.306 C 260.418 691.891, 252.177 700.292, 247.715 709.712 C 244.651 716.182, 244.500 717.062, 244.500 728.500 C 244.500 740.237, 244.580 740.667, 248.136 748.115 C 256.594 765.825, 274.263 776.185, 293.500 774.712 C 312.003 773.296, 328.285 760.673, 334.083 743.251 C 335.999 737.493, 336.190 735.378, 335.633 726.092 C 335.284 720.266, 334.750 714.150, 334.446 712.500 C 333.928 709.689, 335.308 708.080, 356.330 686.967 C 368.669 674.574, 379.717 662.874, 380.879 660.967 C 383.729 656.293, 383.802 646.493, 381.029 641.057 C 378.480 636.061, 372.498 631.165, 368.026 630.416 C 366.087 630.091, 363.825 629.697, 363 629.539 C 362.175 629.382, 359.925 629.563, 358 629.941 M 442.500 682.923 C 408.207 688.510, 378.986 712.256, 368.460 743.090 C 363.975 756.228, 362.764 766.223, 363.970 780.123 C 365.839 801.645, 373.460 819.618, 386.887 834.172 C 398.820 847.105, 410.274 854.375, 427.719 860.090 C 436.506 862.969, 439.025 863.341, 452.500 863.752 C 466.111 864.167, 468.448 863.974, 477.743 861.670 C 509.852 853.711, 535.474 829.210, 544.324 798 C 545.182 794.975, 546.411 788.494, 547.056 783.598 C 551.827 747.366, 530.251 708.008, 497.028 692.339 C 492.888 690.387, 488.729 688.393, 487.788 687.909 C 479.714 683.763, 454.432 680.980, 442.500 682.923 M 598.500 685.386 C 588.467 688.592, 580.413 695.798, 575.669 705.811 C 572.841 711.781, 572.500 713.467, 572.500 721.500 C 572.500 729.172, 572.895 731.344, 575.180 736.218 C 580.508 747.586, 590.304 755.257, 602.867 757.900 C 609.588 759.314, 733.845 759.357, 741.276 757.948 C 752.277 755.861, 762.052 748.186, 767.559 737.308 C 770.202 732.088, 770.499 730.538, 770.493 722 C 770.486 713.478, 770.169 711.830, 767.411 705.997 C 763.646 698.033, 756.865 691.063, 749.239 687.318 L 743.500 684.500 673 684.304 C 618.076 684.151, 601.616 684.390, 598.500 685.386 M 582.500 787.420 C 567.246 796.576, 569.261 818.594, 585.890 824.461 C 592.399 826.758, 670.270 826.750, 675.768 824.452 C 684.015 821.007, 688.239 814.531, 688.187 805.416 C 688.139 797.215, 684.939 791.221, 678.636 787.527 L 674.324 785 630.412 785.009 L 586.500 785.019 582.500 787.420" stroke="none" fill="currentColor" fill-rule="evenodd"/>
	<path fill-opacity="0.418" d="M 162.637 177.465 C 157.539 179.282, 153.574 183.209, 151.590 188.404 C 150.132 192.222, 150.002 204.432, 150.238 315.228 L 150.500 437.828 153.513 442.164 C 155.275 444.699, 158.375 447.435, 160.975 448.750 L 165.424 451 347.087 451 C 447.002 451, 530.157 450.719, 531.877 450.375 C 536.166 449.517, 543.579 442.748, 545.180 438.226 C 546.246 435.218, 546.500 410.991, 546.500 312.500 C 546.500 197.914, 546.393 190.304, 544.739 187.279 C 542.368 182.941, 539.299 180.130, 534.500 177.902 C 530.648 176.113, 523.778 176.045, 348.500 176.066 C 196.524 176.084, 165.863 176.315, 162.637 177.465 M 586.353 283.628 C 576.795 287.016, 570.871 297.450, 573.155 306.874 C 574.537 312.579, 577.781 317.079, 582.729 320.155 L 586.500 322.500 630 322.500 L 673.500 322.500 677.271 320.155 C 683.289 316.414, 686.103 311.953, 686.717 305.181 C 687.387 297.798, 685.878 293.078, 681.424 288.624 C 675.020 282.220, 673.205 281.991, 629.572 282.079 C 597.894 282.143, 589.715 282.436, 586.353 283.628 M 588 349.669 C 580.339 352.277, 575.814 356.508, 573.962 362.795 C 573.234 365.265, 572.975 378.554, 573.185 402.659 L 573.500 438.817 576.606 442.659 C 582.834 450.361, 583.282 450.462, 612.699 450.810 C 628.231 450.994, 641.259 450.690, 644.699 450.064 C 659.147 447.432, 671.961 437.160, 679.040 422.535 C 682.799 414.770, 683.242 413.038, 683.728 404.212 C 684.380 392.386, 683.147 385.987, 678.344 376.256 C 672.057 363.522, 657.771 352.612, 643.951 349.991 C 638.691 348.993, 590.794 348.717, 588 349.669 M 770.773 361.080 C 763.024 362.908, 754.011 367.859, 748.727 373.189 C 739.812 382.183, 733.880 398.030, 735.423 408.730 C 735.801 411.353, 736.371 416.174, 736.689 419.442 L 737.268 425.385 716.176 445.942 C 693.645 467.901, 692 470.152, 692 479.018 C 692 492.095, 704.246 501.960, 716.646 498.873 C 721.095 497.765, 723.479 495.708, 745.243 474.192 L 768.986 450.721 775.149 451.280 C 794.147 453.003, 811.521 444.068, 820.838 427.783 C 838.396 397.094, 815.808 359.473, 780.201 360.100 C 777.065 360.156, 772.823 360.597, 770.773 361.080 M 228.500 477.668 C 200.050 482.271, 174.816 500.273, 161.451 525.500 C 156.527 534.793, 155.221 538.624, 152.930 550.498 C 150.597 562.584, 150.498 570.848, 152.543 582.619 C 158.817 618.722, 183.551 645.021, 220.825 655.220 C 227.047 656.923, 231.435 657.327, 244 657.356 C 258.087 657.388, 260.320 657.142, 268.500 654.656 C 280.906 650.885, 290.083 646.350, 299.500 639.336 C 318.608 625.104, 330.143 605.898, 334.874 580.440 C 337.105 568.431, 335.760 553.675, 331.040 538.394 C 325.225 519.568, 310.986 501.550, 293.552 490.958 C 277.278 481.072, 265.820 477.817, 246 477.451 C 238.025 477.303, 230.150 477.401, 228.500 477.668 M 375.259 478.659 C 370.320 480.408, 364.523 486.637, 363.616 491.169 C 362.756 495.469, 362.979 583.090, 363.856 585.313 C 365.191 588.701, 397.017 619.692, 401.812 622.275 C 404.391 623.663, 410.100 625.798, 414.500 627.017 C 418.900 628.237, 424.365 630.110, 426.644 631.178 C 430.673 633.067, 438.720 640.888, 448.103 652.033 L 452.705 657.500 489.955 657.796 C 531.342 658.126, 533.715 657.841, 539.898 651.795 C 546.856 644.993, 546.499 649.554, 546.499 567.500 C 546.500 494.090, 546.483 493.463, 544.369 488.892 C 542.076 483.933, 537.544 479.961, 532.101 478.138 C 529.672 477.325, 507.404 477.023, 454.101 477.079 C 390.452 477.146, 378.877 477.378, 375.259 478.659 M 584.314 479.434 C 580.723 481.106, 578.263 483.156, 576.314 486.101 L 573.500 490.354 573.500 567.513 L 573.500 644.671 576.362 648.800 C 578.073 651.269, 581.088 653.849, 583.862 655.215 C 588.484 657.492, 588.672 657.501, 639.411 657.777 C 695.667 658.083, 696.565 657.999, 702.993 651.857 C 709.078 646.041, 709 646.808, 709 592.667 C 709 535.784, 710.504 543.705, 697.010 529.500 C 692.831 525.100, 685.606 517.452, 680.956 512.504 C 662.516 492.886, 649.370 479.767, 646.800 478.418 C 644.659 477.294, 638.439 477.002, 616.800 477.010 C 590.047 477.019, 589.396 477.068, 584.314 479.434 M 788.970 511.993 L 754.440 512.500 749.479 515.055 C 743.797 517.981, 738.634 524.174, 736.777 530.292 C 734.868 536.583, 734.948 632.601, 736.868 639.208 C 738.424 644.562, 743.696 651.241, 748.350 653.752 C 755.887 657.820, 757.935 657.969, 806.568 657.985 C 861.388 658.003, 860.892 658.068, 869.502 649.685 C 878.251 641.167, 878.136 642.107, 877.793 581.847 C 877.505 531.395, 877.462 530.430, 875.338 526.500 C 872.384 521.037, 867.470 516.541, 861.500 513.841 C 855.741 511.237, 850.123 511.094, 788.970 511.993 M 354.500 631.908 C 351.933 633.103, 341.793 642.547, 326.203 658.259 L 301.906 682.747 291.203 683.267 C 274.696 684.069, 267.304 687.158, 256.720 697.678 C 239.893 714.404, 240.395 743.117, 257.826 760.890 C 266.072 769.297, 274.647 773.156, 286.458 773.773 C 302.068 774.588, 312.422 770.663, 322.999 759.921 C 331.988 750.791, 336.997 737.256, 335.633 725.781 C 335.288 722.876, 334.714 717.886, 334.358 714.692 L 333.712 708.884 356.298 686.160 C 379.845 662.469, 383 658.256, 383 650.500 C 383 646.018, 379.877 639.110, 376.351 635.789 C 373.046 632.677, 366.184 629.990, 361.624 630.022 C 359.906 630.034, 356.700 630.883, 354.500 631.908 M 438.500 684.477 C 417.819 688.894, 404.476 696.239, 389.500 711.450 C 364.143 737.204, 357.342 772.584, 370.975 807.809 C 383.102 839.143, 415.104 861.533, 450.823 863.672 C 462.739 864.386, 472.314 862.976, 485.500 858.564 C 513.777 849.103, 534.845 826.989, 543.675 797.500 C 546.047 789.577, 546.375 786.765, 546.420 774 C 546.475 758.004, 545.279 751.599, 539.839 738.738 C 528.068 710.913, 501.237 689.429, 471.566 684.071 C 463.725 682.656, 446.012 682.873, 438.500 684.477 M 586.685 785.996 C 572.885 790.240, 568.478 809.908, 579.132 819.702 C 584.783 824.897, 585.787 825, 631 825 C 677.233 825, 676.896 825.040, 682.631 818.869 C 686.687 814.505, 688.401 809.030, 687.662 802.793 C 686.886 796.246, 683.840 791.578, 678.163 788.241 L 673.500 785.500 631.500 785.315 C 608.400 785.214, 588.233 785.520, 586.685 785.996" stroke="none" fill="currentColor" fill-rule="evenodd"/>
</svg>