<svg xmlns="http://www.w3.org/2000/svg" width="1024" height="1024" viewBox="0 0 1024 1024" version="1.1">
	<path fill-opacity="0.165" d="M 225 91.134 C 204.423 94.487, 186.812 98.962, 171.500 104.729 C 160.678 108.804, 137.297 121.052, 127.937 127.549 C 94.652 150.652, 70.394 178.488, 53.182 213.328 C 40.651 238.692, 34.374 261.326, 30.854 293.836 C 28.832 312.512, 31.776 344.353, 37.598 366.775 C 53.867 429.429, 98.164 483.254, 156.107 510.772 C 174.947 519.720, 189.604 524.532, 212.098 529.158 C 226.925 532.207, 228.452 532.328, 253 532.413 C 280.913 532.508, 288.753 531.627, 311 525.889 C 378.397 508.508, 434.207 459.409, 461.484 393.500 C 472.585 366.676, 478.948 332.476, 477.577 307 C 475.850 274.915, 472.295 256.932, 462.800 232.260 C 444.477 184.645, 408.741 143.277, 364.269 118.201 C 340.482 104.788, 312.638 95.613, 283.161 91.475 C 271.484 89.836, 234.303 89.618, 225 91.134 M 685.212 254.711 C 683.852 254.971, 655.345 282.572, 614.863 322.824 C 577.429 360.046, 546.423 390.641, 545.961 390.813 C 545.498 390.986, 544.981 382.436, 544.810 371.813 C 544.529 354.336, 544.310 352.247, 542.500 349.834 C 536.962 342.454, 526.254 341.825, 519.408 348.480 C 516.197 351.601, 516 354.119, 516 391.984 C 516 432.202, 516.105 433.217, 520.671 437.026 C 525.323 440.906, 527.430 441.079, 566.542 440.785 C 609.425 440.463, 607.865 440.752, 612.016 432.370 C 614.906 426.536, 613.902 421.032, 609.009 415.889 L 605.310 412 586.405 411.975 L 567.500 411.950 634.521 345.149 C 671.382 308.409, 702.320 277.161, 703.271 275.709 C 705.940 271.636, 705.553 264.414, 702.448 260.343 C 698.203 254.777, 693.273 253.166, 685.212 254.711 M 494 495.992 C 481.117 496.680, 475.336 498.239, 467 503.271 C 457.391 509.071, 447.875 519.459, 444.097 528.274 C 438.729 540.796, 438.915 533.716, 439.219 714 L 439.500 880.500 441.854 886.993 C 445.739 897.712, 447.925 901.146, 455.890 909.053 C 464.620 917.717, 471.762 921.615, 485 924.939 C 488.296 925.767, 550.488 925.993, 717.500 925.784 L 945.500 925.500 951.943 923.105 C 970.994 916.025, 984.201 902.010, 989.326 883.434 C 990.860 877.876, 991 863.524, 991 711.734 C 991 594.396, 990.677 544.553, 989.892 540.799 C 989.282 537.885, 986.955 531.725, 984.720 527.112 C 977.699 512.623, 966.484 503.283, 949 497.362 C 943.705 495.569, 935.353 495.497, 725 495.412 C 604.825 495.363, 500.875 495.624, 494 495.992 M 290.500 567.496 C 278.357 571.772, 276.796 588.284, 287.994 593.997 C 291.468 595.769, 293.885 596, 308.960 596 C 318.332 596, 326 596.206, 326 596.457 C 326 596.709, 295.389 627.421, 257.976 664.707 L 189.951 732.500 189.976 738.300 C 190.005 745.202, 191.924 749.373, 196.299 752.040 C 200.428 754.558, 207.522 754.600, 211.500 752.129 C 213.150 751.105, 244.875 720.104, 282 683.238 L 349.500 616.210 350 636.088 L 350.500 655.967 353.588 659.052 C 361.028 666.486, 372.805 664.190, 377.878 654.316 C 379.408 651.337, 379.420 584.054, 377.891 578.547 C 376.488 573.492, 371.508 568.512, 366.453 567.109 C 360.190 565.370, 295.603 565.699, 290.500 567.496" stroke="none" fill="currentColor" fill-rule="evenodd"/>
	<path fill-opacity="0.183" d="M 230 91.100 C 202.758 94.153, 179.128 100.923, 155.500 112.444 C 88.764 144.986, 44.190 205.713, 32.880 279.500 C 31.038 291.512, 31.037 329.476, 32.878 341.500 C 38.829 380.381, 52.575 413.652, 74.989 443.424 C 87.463 459.993, 95.280 468.286, 110.055 480.623 C 142.261 507.515, 179.575 523.961, 223.500 530.624 C 239.774 533.093, 270.043 533.114, 286 530.669 C 374.067 517.172, 443.439 456.532, 468.844 370.842 C 475.099 349.743, 476.477 339.115, 476.476 312 C 476.475 288.103, 476.100 283.763, 472.460 265.500 C 466.360 234.888, 449.585 199.795, 428.006 172.500 C 413.667 154.364, 388.363 132.495, 368.500 121.072 C 340.907 105.204, 310.803 95.124, 280 91.438 C 267.466 89.939, 241.906 89.766, 230 91.100 M 687.466 255.015 C 685.797 255.369, 683.699 256.073, 682.803 256.580 C 681.907 257.086, 650.648 287.875, 613.337 325 L 545.500 392.500 545 372.952 C 544.575 356.346, 544.228 352.989, 542.696 350.654 C 536.799 341.669, 523.640 341.982, 517.995 351.241 C 516.106 354.339, 516.007 356.344, 516.004 391.800 C 516 431.735, 516.023 431.939, 521.155 436.655 C 525.669 440.804, 529.505 441.147, 567.546 440.815 C 600.285 440.529, 603.845 440.334, 606.344 438.696 C 610.386 436.045, 612.992 431.151, 612.996 426.200 C 613.001 420.693, 610.929 416.737, 606.656 414.097 C 603.540 412.171, 601.795 412, 585.224 412 L 567.183 412 634.716 344.750 C 674.469 305.163, 702.814 276.176, 703.624 274.282 C 705.440 270.035, 705.361 266.563, 703.351 262.326 C 700.684 256.707, 693.996 253.629, 687.466 255.015 M 479.500 498.017 C 465.607 502.439, 454.956 510.961, 446.812 524.174 C 439.599 535.876, 440 524.880, 440 711.053 C 440 895.722, 439.590 883.718, 446.334 896.500 C 450.690 904.756, 460.883 914.722, 469.072 918.732 C 482.924 925.515, 463.640 925.048, 718.065 924.761 L 948.500 924.500 958.474 919.619 C 970.791 913.591, 979.025 905.877, 984.262 895.462 C 991.486 881.092, 991.094 892.388, 990.781 708 C 990.514 550.603, 990.410 542.236, 988.668 537.104 C 981.661 516.466, 966.600 502.073, 947.144 497.421 C 942.491 496.308, 901.462 496.074, 713.500 496.089 C 491.888 496.107, 485.332 496.161, 479.500 498.017 M 288.241 568.995 C 283.032 572.170, 280.820 576.566, 281.282 582.819 C 281.605 587.176, 282.251 588.713, 284.855 591.319 L 288.034 594.500 307.517 594.809 C 318.233 594.980, 327 595.453, 327 595.862 C 327 596.271, 296.391 627.141, 258.979 664.462 C 219.740 703.606, 190.703 733.334, 190.356 734.719 C 188.330 742.790, 192.774 751.054, 200.217 753.058 C 209.303 755.505, 205.248 759, 280.750 683.654 L 350 614.547 350 633.905 C 350 651.816, 350.157 653.518, 352.097 656.656 C 357.380 665.205, 370.840 665.230, 376.040 656.701 C 377.884 653.677, 377.993 651.430, 377.996 616.151 C 378 573.833, 378.002 573.844, 370.532 569.466 L 366.324 567 328.912 567.004 C 293.345 567.007, 291.339 567.105, 288.241 568.995" stroke="none" fill="currentColor" fill-rule="evenodd"/>
	<path fill-opacity="0.649" d="M 233.500 91.522 C 217.059 93.005, 210.852 94.058, 198 97.546 C 192.775 98.964, 187.150 100.485, 185.500 100.925 C 178.734 102.731, 161.844 109.582, 151.973 114.523 C 130.854 125.096, 112.231 138.901, 94.462 157.159 C 82.173 169.785, 77.653 175.102, 70.913 184.860 C 49.074 216.478, 37.066 248.987, 32.447 289 C 30.610 304.917, 30.934 320.856, 33.494 340.500 C 34.844 350.857, 40.033 374.105, 41.976 378.500 C 42.463 379.600, 43.403 382.300, 44.065 384.500 C 47.452 395.747, 55.291 412.233, 64.228 426.904 C 102.551 489.816, 171.339 529.368, 246.521 531.720 C 296.293 533.277, 338.685 521.166, 379.157 493.826 C 411.579 471.925, 438.432 440.594, 455.415 404.852 C 474.668 364.332, 481.055 318.417, 473.547 274.500 C 462.965 212.596, 425.595 157.131, 371.991 123.767 C 357.277 114.609, 335.102 104.843, 318 99.988 C 297.622 94.204, 287.897 92.475, 267.500 91.012 C 251.416 89.859, 252.035 89.849, 233.500 91.522 M 684.830 256.295 C 683.361 256.958, 651.541 287.869, 614.118 324.987 C 576.696 362.105, 545.636 392.621, 545.096 392.801 C 544.483 393.006, 544 385.448, 543.808 372.627 L 543.500 352.127 540.657 349.161 C 535.013 343.275, 526.030 343.229, 520.443 349.058 L 517.500 352.129 517.190 390.815 C 516.842 434.241, 516.782 433.823, 523.970 437.863 C 527.665 439.940, 528.822 440, 565.136 439.996 C 600.407 439.993, 602.679 439.883, 605.696 438.044 C 612.373 433.972, 614.515 426.889, 611.094 420.185 C 607.707 413.544, 605.733 413, 585.050 413 C 575.122 413, 567 412.664, 567 412.253 C 567 411.842, 597.672 380.831, 635.161 343.339 L 703.321 275.173 703.779 269.657 C 704.159 265.070, 703.854 263.604, 701.969 260.957 C 698.190 255.649, 690.748 253.625, 684.830 256.295 M 483.512 497.614 C 469.975 500.887, 456.975 509.806, 449.231 521.134 C 447.489 523.682, 444.812 529.307, 443.282 533.634 L 440.500 541.500 440.236 707.745 C 439.944 890.888, 439.641 881.307, 446.152 894.781 C 450.383 903.538, 461.124 914.251, 470.126 918.692 C 483.908 925.492, 466.379 925.062, 718 924.767 L 945.500 924.500 953 921.624 C 969.966 915.118, 979.675 905.538, 987.205 887.875 L 989.496 882.500 989.765 714.229 C 990.064 527.482, 990.466 539.388, 983.406 525.954 C 978.934 517.443, 968.742 507.413, 960.167 503.084 C 956.701 501.335, 950.408 499.032, 946.182 497.967 C 938.694 496.080, 932.838 496.032, 714 496.099 C 521.652 496.157, 488.642 496.374, 483.512 497.614 M 322 567.916 C 285.656 568.569, 286.443 568.411, 282.867 575.783 C 280.458 580.749, 280.874 585.299, 284.115 589.419 C 288.113 594.502, 290.418 595, 309.950 595 C 319.878 595, 328 595.401, 328 595.891 C 328 596.381, 297.207 627.318, 259.572 664.641 C 198.535 725.171, 191.069 732.910, 190.453 736.293 C 189.499 741.524, 192.071 747.872, 196.310 750.750 C 200.068 753.302, 207.045 753.737, 210.798 751.654 C 212.062 750.952, 243.873 719.623, 281.489 682.033 L 349.881 613.689 350.190 633.675 C 350.498 653.559, 350.514 653.680, 353.159 657.146 C 359.699 665.711, 373.117 663.758, 376.933 653.685 C 377.615 651.885, 378 638.169, 378 615.647 C 378 581.091, 377.957 580.340, 375.750 576.020 C 372.944 570.527, 368.125 567.900, 360.257 567.572 C 357.091 567.440, 339.875 567.595, 322 567.916" stroke="none" fill="currentColor" fill-rule="evenodd"/>
	<path fill-opacity="0.116" d="M 233 92.237 C 221.551 93.357, 208.762 95.671, 195.500 99.023 C 175.300 104.129, 164.944 108.321, 165.839 111.029 C 166.249 112.270, 166.073 112.292, 164.715 111.171 C 163.622 110.269, 162.565 110.144, 161.424 110.783 C 160.282 111.422, 160.105 111.947, 160.872 112.421 C 161.492 112.804, 162 112.615, 162 112 C 162 111.385, 162.498 111.190, 163.107 111.566 C 164.805 112.616, 161.901 114.044, 160.108 113.041 C 158.419 112.095, 151.785 114.844, 152.595 116.153 C 152.875 116.606, 152.482 116.738, 151.722 116.447 C 148.955 115.385, 116.975 135.649, 117.015 138.438 C 117.024 139.022, 117.417 138.889, 117.890 138.143 C 118.490 137.197, 118.957 137.122, 119.434 137.893 C 120.110 138.987, 118.983 139.370, 115.932 139.083 C 115.070 139.002, 109.529 143.519, 103.618 149.120 C 95.555 156.761, 93.200 159.538, 94.186 160.246 C 95.174 160.955, 95.089 161.058, 93.844 160.662 C 91.969 160.065, 88.595 163.220, 89.748 164.491 C 90.162 164.948, 89.988 165.028, 89.363 164.671 C 87.954 163.866, 85.593 166.533, 86.466 167.945 C 86.860 168.583, 86.445 168.724, 85.378 168.315 C 84.041 167.802, 83.802 168.041, 84.315 169.378 C 84.679 170.327, 84.573 170.854, 84.080 170.549 C 83.586 170.244, 81.985 171.458, 80.522 173.247 C 79.058 175.036, 77.169 177.350, 76.322 178.388 C 71.484 184.323, 65.961 193.716, 66.374 195.307 C 66.653 196.384, 66.376 196.959, 65.688 196.729 C 63.793 196.098, 59.080 204.497, 47.787 228.631 C 47.238 229.803, 47.091 231.828, 47.460 233.131 C 47.962 234.902, 47.876 235.129, 47.119 234.028 C 46.059 232.485, 46.088 232.446, 44.578 237.378 C 44.346 238.136, 44.618 239.218, 45.182 239.782 C 45.882 240.482, 45.843 241.392, 45.056 242.654 C 44.017 244.320, 43.964 244.281, 44.520 242.250 C 44.858 241.012, 44.757 240, 44.296 240 C 43.062 240, 37.145 261.733, 35.927 270.739 C 35.349 275.008, 34.471 280.750, 33.975 283.500 C 32.993 288.946, 31.643 307.388, 31.815 313 C 32.364 330.871, 35.734 354.574, 39.564 367.500 C 41.031 372.450, 42.558 377.857, 42.957 379.515 C 43.357 381.174, 44.375 384.099, 45.220 386.015 C 46.065 387.932, 47.566 391.750, 48.556 394.500 C 52.164 404.521, 62.677 424.250, 65.467 426.235 C 66.035 426.639, 66.156 426.976, 65.736 426.985 C 65.083 426.998, 68.825 433.400, 71.297 436.500 C 71.736 437.050, 73.908 439.975, 76.123 443 C 82.393 451.560, 88.219 457.983, 89.178 457.390 C 89.657 457.094, 89.926 457.447, 89.775 458.176 C 89.624 458.904, 90.096 459.376, 90.824 459.225 C 91.553 459.074, 91.851 459.432, 91.488 460.020 C 90.229 462.057, 121.363 490, 124.892 490 C 125.501 490, 126 490.353, 126 490.784 C 126 491.661, 131.566 495.158, 132.635 494.952 C 133.012 494.880, 133.721 495.536, 134.210 496.410 C 134.699 497.285, 135.752 498, 136.550 498 C 137.347 498, 138 498.502, 138 499.117 C 138 499.758, 138.892 500, 140.099 499.684 C 141.253 499.383, 141.912 499.421, 141.563 499.771 C 140.763 500.571, 146.387 504.051, 155.722 508.533 C 163.279 512.161, 165.600 512.780, 164.405 510.845 C 163.959 510.124, 164.131 509.963, 164.862 510.415 C 165.506 510.813, 165.793 511.526, 165.500 512 C 165.207 512.474, 165.425 513.144, 165.984 513.490 C 166.543 513.835, 167 513.669, 167 513.121 C 167 512.573, 167.900 512.192, 169 512.275 C 171.253 512.445, 171.632 513.533, 169.750 514.428 C 169.063 514.755, 169.497 514.838, 170.716 514.614 C 171.948 514.387, 172.836 514.680, 172.716 515.275 C 172.597 515.863, 174.075 516.830, 176 517.422 C 177.925 518.015, 179.950 518.773, 180.500 519.108 C 183.134 520.708, 195.222 523.265, 195.835 522.352 C 196.207 521.798, 197.603 521.678, 199 522.081 L 201.500 522.801 199 522.964 L 196.500 523.127 198.892 524.084 C 201.618 525.174, 211.226 527.253, 221.500 528.976 C 253.177 534.288, 291.949 531.035, 323.732 520.399 C 334.373 516.838, 351.324 509.609, 358.154 505.720 C 373.466 497.001, 375.109 495.837, 373.998 494.498 C 373.166 493.495, 373.623 492.836, 375.956 491.672 C 377.630 490.837, 379 490.560, 379 491.058 C 379 491.555, 377.842 492.253, 376.427 492.608 C 374.700 493.041, 374.185 493.585, 374.860 494.260 C 375.536 494.936, 377.945 493.848, 382.183 490.955 C 385.657 488.584, 388.982 486.162, 389.573 485.572 C 390.164 484.982, 392.722 482.925, 395.257 481 C 409.729 470.014, 440.489 434.218, 438.384 430.813 C 437.988 430.171, 438.138 429.968, 438.736 430.337 C 440.383 431.355, 445.264 423.332, 454.547 404.347 C 460.072 393.047, 460.802 390.614, 459 389.500 C 458.450 389.160, 458 388.373, 458 387.750 C 458 387.127, 458.643 387.491, 459.429 388.559 C 460.839 390.476, 460.866 390.475, 461.526 388.500 C 461.894 387.400, 462.879 384.700, 463.715 382.500 C 466.721 374.589, 469.739 363.842, 471.016 356.500 C 471.495 353.750, 472.649 347.450, 473.582 342.500 C 475.847 330.488, 475.859 294.922, 473.604 280.500 C 471.444 266.690, 469.310 256.409, 467.376 250.500 C 463.803 239.583, 461.600 233.476, 461.063 233 C 460.753 232.725, 460.430 231.825, 460.345 231 C 460.185 229.439, 453.884 214.876, 452.990 214 C 452.709 213.725, 451.161 210.849, 449.549 207.608 C 447.937 204.367, 445.579 200.185, 444.309 198.314 C 443.039 196.442, 442 194.729, 442 194.506 C 442 193.891, 435.743 184.676, 434.358 183.250 C 433.689 182.563, 432.859 182, 432.512 182 C 432.166 182, 432.220 182.563, 432.633 183.250 C 433.085 184.003, 432.668 183.918, 431.582 183.037 C 430.504 182.161, 430.226 181.425, 430.890 181.203 C 431.501 181, 432 180.435, 432 179.948 C 432 179.461, 431.320 179.324, 430.489 179.643 C 429.398 180.061, 429.153 179.765, 429.609 178.577 C 430.033 177.472, 428.513 174.889, 424.982 170.716 C 418.823 163.436, 400.049 144.904, 395.001 141.122 C 393.076 139.680, 390.634 137.717, 389.574 136.761 C 388.513 135.804, 387.388 135.303, 387.073 135.647 C 386.758 135.992, 387.037 136.466, 387.694 136.702 C 388.350 136.937, 388.607 137.861, 388.263 138.756 C 387.798 139.968, 387.322 139.505, 386.396 136.942 C 385.712 135.049, 385.118 134.063, 385.076 134.750 C 385.034 135.438, 384.520 136, 383.933 136 C 383.320 136, 383.136 135.147, 383.500 134 C 383.849 132.900, 383.687 132, 383.139 132 C 382.591 132, 381.548 131.424, 380.821 130.719 C 377.769 127.760, 365.842 120.980, 364.811 121.617 C 364.095 122.059, 363.973 121.853, 364.471 121.047 C 365.051 120.108, 364.643 119.958, 362.875 120.458 C 361.250 120.919, 360.928 120.834, 361.857 120.191 C 362.734 119.582, 362.847 119.024, 362.176 118.609 C 361.605 118.256, 360.856 118.425, 360.510 118.984 C 360.165 119.543, 359.346 119.993, 358.691 119.985 C 357.964 119.975, 358.073 119.607, 358.971 119.039 C 359.780 118.527, 360.230 117.972, 359.971 117.804 C 356.661 115.666, 352.931 114.302, 352.463 115.059 C 352.144 115.577, 351.178 116, 350.319 116 C 349.042 116, 348.984 115.725, 350 114.500 C 351.503 112.689, 349.950 112.490, 348.053 114.250 C 346.954 115.270, 346.818 115.180, 347.317 113.763 C 348.047 111.685, 343.048 109.200, 327 103.664 C 307.617 96.978, 294.879 94.393, 272 92.502 C 253.349 90.961, 246.518 90.915, 233 92.237 M 200.250 99.031 C 199.012 99.529, 198 100.202, 198 100.527 C 198 100.852, 198.443 100.844, 198.985 100.509 C 199.526 100.175, 201.889 99.523, 204.235 99.060 C 207.671 98.383, 207.917 98.210, 205.500 98.173 C 203.850 98.148, 201.488 98.534, 200.250 99.031 M 306.143 100.110 C 307.909 101.229, 310 101.237, 310 100.125 C 310 99.644, 308.827 99.250, 307.393 99.250 C 305.554 99.250, 305.186 99.503, 306.143 100.110 M 311 101.594 C 311 103.139, 313.557 103.526, 314.430 102.114 C 314.731 101.626, 314.083 100.993, 312.989 100.707 C 311.700 100.370, 311 100.682, 311 101.594 M 316 103.059 C 316 103.641, 315.581 103.859, 315.069 103.543 C 314.557 103.226, 313.856 103.425, 313.510 103.984 C 312.515 105.594, 315.619 105.164, 317 103.500 C 317.860 102.464, 317.898 102, 317.122 102 C 316.505 102, 316 102.477, 316 103.059 M 156 115.059 C 156 115.641, 155.550 115.840, 155 115.500 C 154.450 115.160, 154 115.359, 154 115.941 C 154 117.410, 155.269 117.264, 157.559 115.532 C 159.315 114.203, 159.333 114.061, 157.750 114.032 C 156.787 114.014, 156 114.477, 156 115.059 M 352 116.875 C 352 117.356, 353.173 117.750, 354.607 117.750 C 356.446 117.750, 356.814 117.497, 355.857 116.890 C 354.091 115.771, 352 115.763, 352 116.875 M 63.609 199.576 C 62.779 201.740, 63.170 202.131, 65.021 200.987 C 66.091 200.325, 66.186 199.786, 65.374 198.974 C 64.563 198.163, 64.090 198.324, 63.609 199.576 M 684.265 257.313 C 680.310 259.510, 576.982 363.162, 577.658 364.255 C 578.043 364.879, 577.829 365.013, 577.134 364.583 C 575.761 363.734, 552.999 385.583, 553.409 387.357 C 553.554 387.986, 553.470 388.121, 553.222 387.658 C 552.975 387.195, 551.032 388.516, 548.904 390.593 C 546.777 392.671, 544.714 394.048, 544.321 393.654 C 543.927 393.260, 543.502 384.514, 543.377 374.219 C 543.252 363.923, 542.700 354.322, 542.149 352.881 C 540.902 349.615, 536.830 346.341, 532.957 345.490 C 529.642 344.762, 522.678 346.670, 523.543 348.069 C 523.851 348.569, 523.354 348.689, 522.437 348.337 C 521.095 347.823, 520.902 348.117, 521.450 349.842 C 521.974 351.494, 521.786 351.855, 520.630 351.412 C 517.434 350.185, 516.871 357.239, 517.191 394.525 L 517.500 430.550 520.427 433.525 C 522.038 435.161, 522.720 435.600, 521.945 434.500 C 520.553 432.526, 520.563 432.524, 522.744 434.384 C 523.959 435.420, 524.742 436.609, 524.483 437.027 C 523.445 438.708, 530.608 439.040, 566.433 438.976 C 602.540 438.911, 603.937 438.838, 606.443 436.866 C 614.420 430.592, 613.506 418.841, 604.717 414.670 C 601.844 413.307, 597.967 413, 583.599 413 C 565.155 413, 563.807 412.637, 568.178 408.845 C 569.850 407.396, 570.082 406.682, 569.178 405.778 C 567.423 404.023, 567.747 403, 570.059 403 C 571.199 403, 571.838 403.454, 571.490 404.016 C 571.144 404.575, 570.330 404.734, 569.681 404.370 C 568.777 403.862, 568.775 404.004, 569.673 404.976 C 570.608 405.989, 571.367 405.724, 573.423 403.668 C 575.965 401.126, 576.882 399.337, 575.069 400.457 C 574.557 400.774, 573.812 400.504, 573.413 399.859 C 572.902 399.032, 573.385 398.867, 575.049 399.303 C 577.126 399.846, 584.910 392.435, 639.562 337.882 C 686.522 291.008, 701.971 275.003, 702.769 272.400 C 704.589 266.472, 701.860 260.018, 696.316 257.136 C 693.459 255.650, 687.089 255.744, 684.265 257.313 M 600.173 371.291 C 599.365 372.265, 599.567 372.617, 600.994 372.725 C 602.256 372.820, 602.703 372.390, 602.336 371.434 C 601.663 369.679, 601.519 369.669, 600.173 371.291 M 540.790 373.977 C 540.550 375.614, 540.717 377.526, 541.161 378.227 C 541.646 378.990, 541.976 377.799, 541.985 375.250 C 542.002 370.314, 541.419 369.692, 540.790 373.977 M 44 375.559 C 44 376.966, 44.408 377.866, 44.906 377.558 C 45.404 377.250, 45.577 376.098, 45.289 374.999 C 44.570 372.247, 44 372.495, 44 375.559 M 594.071 378.415 C 593.325 379.313, 593.012 380.345, 593.374 380.707 C 594.308 381.641, 596.306 379.417, 595.826 377.978 C 595.550 377.150, 595.008 377.285, 594.071 378.415 M 456.667 392.667 C 456.300 393.033, 456 393.965, 456 394.738 C 456 395.902, 456.257 395.886, 457.500 394.643 C 458.325 393.818, 459 392.886, 459 392.571 C 459 391.789, 457.483 391.851, 456.667 392.667 M 435 433 C 435 434.165, 434.550 434.840, 434 434.500 C 433.450 434.160, 433 434.359, 433 434.941 C 433 436.688, 434.856 436.137, 435.968 434.061 C 436.658 432.771, 436.670 431.914, 436.003 431.502 C 435.451 431.161, 435 431.835, 435 433 M 486.500 497.696 C 481.022 498.449, 467.716 503.825, 466 505.978 C 465.725 506.323, 463.813 507.631, 461.750 508.884 C 457.016 511.761, 450.573 519.500, 451.569 521.112 C 452.015 521.834, 451.885 522.047, 451.243 521.650 C 450.639 521.277, 449.114 522.890, 447.731 525.365 C 444.365 531.387, 442.907 535.825, 444.060 536.537 C 444.577 536.857, 444.964 537.879, 444.921 538.809 C 444.872 539.850, 444.648 540.020, 444.338 539.250 C 443.172 536.362, 442.237 538.445, 441.644 545.250 C 440.536 557.982, 440.835 871.905, 441.963 878.500 C 442.527 881.800, 442.991 884.864, 442.994 885.309 C 442.997 885.754, 443.468 885.829, 444.040 885.475 C 444.698 885.069, 444.878 885.691, 444.530 887.166 C 443.760 890.433, 445.374 892.764, 447.299 891.167 C 448.504 890.166, 448.750 890.407, 448.750 892.588 C 448.750 894.438, 448.496 894.813, 447.890 893.857 C 447.171 892.721, 447.028 892.725, 447.015 893.882 C 446.976 897.409, 459.241 912.587, 461.168 911.396 C 461.626 911.113, 462 911.407, 462 912.048 C 462 912.704, 462.697 912.947, 463.593 912.603 C 464.659 912.194, 465.361 912.663, 465.717 914.024 C 466.094 915.469, 466.788 915.885, 468.118 915.463 C 469.586 914.997, 469.844 915.243, 469.320 916.608 C 468.817 917.918, 469.045 918.197, 470.244 917.737 C 471.119 917.401, 472.050 917.687, 472.313 918.373 C 472.873 919.833, 482.393 922.668, 489.342 923.445 C 496.347 924.229, 932.013 924.148, 941.283 923.361 C 945.564 922.998, 949.303 922.318, 949.592 921.850 C 949.882 921.383, 951.216 921, 952.559 921 C 954.869 921, 955.877 919.657, 954.250 918.747 C 953.837 918.517, 954.121 918.487, 954.879 918.682 C 957.292 919.302, 963.096 916.692, 962.538 915.238 C 962.255 914.500, 962.476 914.176, 963.030 914.518 C 966.300 916.540, 978.720 903.823, 983.556 893.500 C 990.351 878.997, 990.002 888.941, 989.985 710.627 C 989.970 553.255, 989.923 549.316, 987.985 541.623 C 986.893 537.291, 986 533.552, 986 533.314 C 986 533.077, 985.592 533.134, 985.093 533.442 C 984.595 533.751, 984.403 533.175, 984.667 532.164 C 985.470 529.093, 977.879 517.417, 971.035 511.196 C 966.858 507.399, 956.687 501.731, 953.837 501.611 C 952.373 501.550, 951.365 501.308, 951.597 501.074 C 951.828 500.840, 950.327 499.949, 948.259 499.093 C 944.899 497.703, 920.335 497.525, 717 497.411 C 591.875 497.340, 488.150 497.469, 486.500 497.696 M 945 501 C 945 501.550, 945.675 502, 946.500 502 C 947.325 502, 948 501.550, 948 501 C 948 500.450, 947.325 500, 946.500 500 C 945.675 500, 945 500.450, 945 501 M 326.087 568.763 C 290.806 569.017, 285.918 569.441, 287.563 572.102 C 287.860 572.583, 287.482 572.739, 286.723 572.447 C 285.826 572.103, 284.707 573.324, 283.534 575.924 C 281.436 580.578, 281.926 586.156, 284.705 589.226 C 288.604 593.535, 291.058 594, 309.891 594 C 322.202 594, 328.103 594.357, 328.581 595.132 C 329.001 595.811, 317.038 608.461, 298.645 626.785 C 272.253 653.080, 268.182 657.528, 269.255 658.904 C 270.327 660.278, 270.281 660.329, 268.925 659.273 C 267.579 658.224, 261.866 663.474, 229.561 695.446 C 192.873 731.755, 191.759 732.972, 191.331 737.173 C 190.741 742.973, 193.351 747.908, 198.381 750.500 C 201.270 751.989, 202.377 752.181, 202.714 751.250 C 202.963 750.563, 203.831 750, 204.642 750 C 205.454 750, 205.840 750.450, 205.500 751 C 205.149 751.568, 205.997 752, 207.464 752 C 210.646 752, 227.387 736.451, 226.551 734.272 C 226.233 733.443, 226.461 733.167, 227.126 733.578 C 228.532 734.447, 287.107 676.014, 286.283 674.563 C 285.951 673.978, 286.069 673.855, 286.544 674.288 C 287.020 674.721, 298.098 664.394, 311.162 651.339 C 329.695 632.817, 334.673 627.311, 333.816 626.278 C 332.962 625.249, 333.085 625.096, 334.371 625.589 C 336.329 626.340, 339.259 624.228, 338.334 622.732 C 337.981 622.160, 338.139 621.968, 338.686 622.306 C 339.233 622.644, 341.665 620.923, 344.091 618.481 C 346.516 616.038, 349.063 614.031, 349.750 614.020 C 350.706 614.005, 351 618.343, 351 632.435 C 351 642.574, 351.402 651.912, 351.894 653.185 C 353.917 658.421, 358.832 662, 364 662 C 367.560 662, 371.312 660.314, 370.539 659.063 C 370.254 658.602, 370.739 658.288, 371.615 658.363 C 372.492 658.438, 374.062 656.932, 375.104 655.016 C 376.866 651.778, 377 648.977, 377 615.500 C 377 582.265, 376.855 579.198, 375.137 575.984 C 373.167 572.301, 369.152 569.483, 365 568.869 C 363.625 568.666, 346.114 568.618, 326.087 568.763 M 445.476 887.039 C 444.518 888.589, 446.214 890.104, 447.806 889.120 C 448.837 888.483, 448.803 888.082, 447.636 887.113 C 446.559 886.219, 445.995 886.200, 445.476 887.039" stroke="none" fill="currentColor" fill-rule="evenodd"/>
</svg>