<svg xmlns="http://www.w3.org/2000/svg" width="1024" height="1024" viewBox="0 0 1024 1024" version="1.1">
	<path fill-opacity="0.165" d="M 356.500 191.930 C 339.331 194.162, 322.751 203.592, 312.272 217.085 C 305.923 225.262, 303.715 229.368, 300.409 239.147 C 297.919 246.514, 297.596 248.875, 297.670 259.151 C 297.766 272.603, 298.972 278.700, 303.498 288.617 C 308.458 299.484, 313.882 306.580, 323.426 314.689 C 328.302 318.832, 341.842 325.405, 349.644 327.416 C 357.714 329.496, 375.229 329.505, 383.356 327.433 C 414.960 319.375, 437.461 288.858, 435.484 256.735 C 434.789 245.453, 434.117 242.459, 430.158 233 C 422.392 214.449, 405.468 199.427, 386.085 193.882 C 378.544 191.725, 364.969 190.829, 356.500 191.930 M 120.248 519.750 L 120.500 847.500 183 847.500 L 245.500 847.500 245.752 519.750 L 246.003 192 183 192 L 119.997 192 120.248 519.750 M 661.750 219.753 L 499 220.006 499 261.503 L 499 303 663 303 L 827 303 827 261.607 C 827 229.350, 826.724 220.135, 825.750 219.857 C 825.063 219.661, 751.263 219.614, 661.750 219.753 M 348.358 366.018 C 325.186 372.009, 305.416 392.166, 299.336 416 C 294.868 433.518, 298.288 454.852, 307.964 469.823 C 321.267 490.405, 342.380 501.873, 367.138 501.964 C 393.049 502.060, 417.387 486.642, 428.647 463 C 433.431 452.955, 433.851 451.635, 435.169 442.516 C 438.312 420.781, 431.017 399.895, 414.549 383.475 C 406.270 375.221, 397.382 369.722, 388 367.049 C 385.525 366.344, 382.195 365.369, 380.601 364.883 C 375.496 363.328, 356.126 364.010, 348.358 366.018 M 498.988 392.998 C 498.982 393.549, 498.976 411.775, 498.976 433.500 C 498.976 455.225, 498.982 473.450, 498.988 474 C 498.996 474.663, 567.178 475, 701.511 475 L 904.022 475 903.761 433.750 L 903.500 392.500 701.250 392.248 C 566.595 392.080, 498.996 392.330, 498.988 392.998 M 348.621 539.103 C 322.686 546.495, 303.802 566.521, 298.740 592 C 296.835 601.585, 297.889 619.801, 300.831 628.149 C 310.805 656.445, 336.848 675, 366.587 675 C 377.091 675, 385.537 673.276, 393.777 669.450 C 396.680 668.103, 399.287 667, 399.570 667 C 401.017 667, 412.158 657.995, 416.770 653.097 C 431.139 637.839, 436.900 620.386, 434.952 598.015 C 433.634 582.871, 427.970 570.597, 416.700 558.458 C 408.509 549.635, 397.555 542.965, 385.638 539.544 C 374.280 536.283, 359.145 536.103, 348.621 539.103 M 699.772 564.750 L 499.045 565.005 498.772 605.252 C 498.623 627.389, 498.661 646.063, 498.857 646.750 C 499.141 647.745, 540.550 648, 701.607 648 L 904 648 904 606.607 C 904 569.784, 903.825 565.147, 902.418 564.607 C 901.548 564.273, 900.761 564.111, 900.668 564.248 C 900.576 564.384, 810.173 564.610, 699.772 564.750 M 348.498 711.807 C 325.315 718.662, 307.525 736.023, 300.303 758.840 C 298.087 765.840, 297.915 767.749, 298.302 781 C 298.691 794.332, 298.966 796.078, 301.721 802.671 C 303.369 806.615, 305.991 812.015, 307.547 814.671 C 310.561 819.815, 324.758 835, 326.552 835 C 327.141 835, 328.495 835.801, 329.561 836.781 C 332.377 839.368, 341.503 843.420, 349.063 845.441 C 354.312 846.844, 358.516 847.116, 370.063 846.798 C 383.223 846.436, 385.117 846.144, 391.475 843.504 C 419.975 831.668, 437.459 804.498, 435.736 774.725 C 434.761 757.886, 428.519 743.912, 416.070 730.700 C 408.788 722.971, 399.884 717.270, 388.967 713.346 C 382.532 711.033, 379.634 710.619, 368 710.347 C 357.298 710.097, 353.256 710.400, 348.498 711.807 M 500.002 736.833 C 499.354 737.049, 499 751.818, 499 778.583 L 499 820 658.011 820 L 817.022 820 816.761 778.417 L 816.500 736.834 658.752 736.667 C 571.990 736.575, 500.552 736.650, 500.002 736.833" stroke="none" fill="currentColor" fill-rule="evenodd"/>
	<path fill-opacity="0.385" d="M 120.574 192.759 C 120.258 193.075, 120 340.408, 120 520.167 L 120 847 183.002 847 L 246.003 847 245.752 519.952 L 245.500 192.904 183.324 192.545 C 149.127 192.347, 120.890 192.443, 120.574 192.759 M 344 195.313 C 332.696 199.235, 328.354 201.866, 319.460 210.186 C 303.655 224.971, 297.216 241.388, 298.263 264.232 C 298.900 278.109, 301.985 287.819, 309.172 298.565 C 322.045 317.811, 343.003 328.873, 366.768 328.964 C 397.261 329.082, 423.587 309.050, 432.900 278.645 C 435.528 270.067, 435.793 252.915, 433.442 243.644 C 428.265 223.230, 411.753 204.011, 393 196.572 C 384.051 193.022, 377.936 192, 365.701 192.009 C 354.502 192.017, 352.720 192.289, 344 195.313 M 499.239 261.247 L 499.500 302.500 660 302.783 C 748.275 302.939, 821.968 302.805, 823.761 302.486 L 827.022 301.905 826.761 261.203 L 826.500 220.500 662.739 220.247 L 498.978 219.994 499.239 261.247 M 351 365.615 C 332.660 369.605, 314.188 383.994, 305.573 401 C 299.260 413.461, 298.495 417.001, 298.550 433.500 C 298.596 447.130, 298.835 449.116, 301.173 455.242 C 309.609 477.349, 326.704 493.186, 349 499.550 C 357.412 501.951, 374.899 502.036, 383.655 499.719 C 395.966 496.461, 404.739 491.289, 414.532 481.514 C 424.360 471.705, 429.139 463.934, 432.901 451.645 C 435.791 442.205, 435.826 425.440, 432.977 415.159 C 423.008 379.185, 387.437 357.687, 351 365.615 M 499 434 L 499 475 701.500 475 L 904 475 904 434 L 904 393 701.500 393 L 499 393 499 434 M 351.500 538.590 C 332.074 542.920, 313.364 557.573, 304.869 575.109 C 298.264 588.744, 296.009 608.678, 299.502 622.540 C 303.259 637.445, 315.062 654.214, 327.965 662.976 C 341.775 672.355, 358.262 676.187, 375.473 674.019 C 402.399 670.627, 425.024 651.076, 432.902 624.392 C 435.535 615.473, 435.780 598.811, 433.414 589.644 C 426.921 564.494, 409.332 546.451, 384.500 539.466 C 376.009 537.077, 360.173 536.657, 351.500 538.590 M 499 606.502 L 499 648.005 701.250 647.752 L 903.500 647.500 903.761 606.250 L 904.022 565 701.511 565 L 499 565 499 606.502 M 352 711.359 C 320.553 718.172, 298 746.094, 298 778.213 C 298 810.107, 317.876 836.242, 348.872 845.106 C 359.101 848.032, 377.380 847.772, 387.213 844.562 C 398.104 841.007, 406.442 835.726, 415.597 826.585 C 421.989 820.202, 424.567 816.710, 427.837 810 C 433.574 798.229, 435 791.804, 435 777.716 C 435 767.792, 434.603 764.679, 432.572 758.676 C 426.204 739.857, 413.641 725.019, 397.350 717.075 C 384.297 710.711, 365.770 708.376, 352 711.359 M 499 778.500 L 499 820.006 657.750 819.753 L 816.500 819.500 816.500 778.500 L 816.500 737.500 657.750 737.247 L 499 736.994 499 778.500" stroke="none" fill="currentColor" fill-rule="evenodd"/>
	<path fill-opacity="0.366" d="M 353 192.898 C 351.625 193.360, 347.880 194.505, 344.677 195.443 C 324.703 201.293, 307.835 218.720, 300.748 240.829 C 297.825 249.946, 297.644 270.766, 300.416 279 C 304.715 291.769, 309.222 299.219, 318 308.068 C 330.215 320.380, 343.980 326.904, 361.574 328.720 C 367.538 329.335, 381.348 327.581, 387.979 325.365 C 408.066 318.653, 424.513 302.040, 431.718 281.184 C 434.047 274.443, 434.378 271.904, 434.416 260.500 C 434.454 248.954, 434.157 246.603, 431.758 239.479 C 424.319 217.383, 409.227 202.431, 386.618 194.755 C 382.020 193.194, 377.395 192.601, 368 192.369 C 361.125 192.198, 354.375 192.437, 353 192.898 M 120 520 L 120 847 182.500 847 L 245 847 245.214 527.250 C 245.332 351.387, 245.486 205.640, 245.558 203.366 C 245.629 201.093, 245.482 197.830, 245.230 196.116 L 244.773 193 182.387 193 L 120 193 120 520 M 499 261 L 499 302 662.500 302 L 826 302 826 261 L 826 220 662.500 220 L 499 220 499 261 M 357.982 365.124 C 343.122 366.587, 329.947 373.136, 317.997 385 C 309.859 393.080, 303.836 403.184, 300.413 414.500 C 297.595 423.819, 297.808 443.321, 300.829 452.402 C 309.326 477.948, 327.570 494.592, 353.050 500.042 C 361.482 501.845, 380.003 500.801, 388 498.071 C 408.214 491.171, 424.639 474.649, 431.755 454.059 C 433.770 448.227, 434.461 443.987, 434.780 435.500 C 435.282 422.111, 433.808 415.494, 427.329 402.067 C 423.556 394.248, 421.386 391.251, 414.639 384.543 C 399.277 369.269, 380.669 362.892, 357.982 365.124 M 499.239 433.750 L 499.500 474.500 701.500 474.500 L 903.500 474.500 903.809 444 C 903.978 427.225, 903.823 408.887, 903.462 403.250 L 902.808 393 700.893 393 L 498.978 393 499.239 433.750 M 358.500 538.106 C 343.315 539.660, 329.989 546.090, 318.621 557.348 C 310.321 565.567, 304.999 574.028, 301.284 584.910 C 299.046 591.464, 298.680 594.274, 298.604 605.500 C 298.529 616.592, 298.857 619.527, 300.844 625.500 C 308.167 647.519, 323.621 663.484, 345.029 671.146 C 350.690 673.172, 353.377 673.464, 366.500 673.481 C 379.802 673.498, 382.236 673.232, 388 671.135 C 411.221 662.685, 427.981 644.146, 433.478 620.832 C 440.365 591.618, 424.755 558.376, 398 545.278 C 384.637 538.735, 372.999 536.623, 358.500 538.106 M 499 606 L 499 647 701 647 L 903 647 903 606 L 903 565 701 565 L 499 565 499 606 M 355.705 711.027 C 334.652 714.340, 315.176 728.548, 305.627 747.561 C 292.903 772.894, 297 803.795, 315.772 824.071 C 330.058 839.501, 347.247 847.059, 367.838 846.965 C 382.225 846.899, 394.730 842.650, 407.633 833.443 C 419.606 824.898, 429.791 809.099, 433.556 793.228 C 437.144 778.103, 434.092 758.643, 425.880 744.290 C 419.533 733.196, 405.219 720.461, 393.677 715.639 C 383.336 711.317, 366.700 709.297, 355.705 711.027 M 499 777.857 L 499 818.714 508.885 819.395 C 520.661 820.206, 711.198 820.118, 772.750 819.273 L 816 818.679 816 777.840 L 816 737 657.500 737 L 499 737 499 777.857" stroke="none" fill="currentColor" fill-rule="evenodd"/>
	<path fill-opacity="0.976" d="M 356.500 192.876 C 354.850 193.335, 351.025 194.280, 348 194.977 C 326.880 199.838, 307.212 219.562, 300.825 242.287 C 296.850 256.427, 298.418 274.883, 304.792 289 C 324.098 331.755, 382.797 341.587, 415.397 307.526 C 429.308 292.991, 436.722 271.143, 434.101 252.407 C 430.114 223.909, 411.615 202.308, 384.841 194.889 C 376.993 192.714, 361.134 191.588, 356.500 192.876 M 120.760 519.750 L 121.020 846.500 183.010 846.758 L 245 847.015 245 520.008 L 245 193 182.750 193 L 120.500 193 120.760 519.750 M 499.289 261.250 L 499.686 301.500 662.843 301.753 L 826 302.006 826 261.503 L 826 221 662.446 221 L 498.891 221 499.289 261.250 M 349.681 366.997 C 336.829 370.422, 329.036 374.792, 319.630 383.848 C 305.889 397.079, 298.631 414.137, 298.716 433 C 298.770 444.960, 300.439 452.065, 305.761 463 C 309.651 470.992, 311.749 473.849, 318.974 481 C 327.928 489.861, 334.436 493.827, 347.245 498.230 C 352.286 499.963, 355.926 500.392, 366 500.440 C 383.197 500.523, 393.344 497.382, 406.502 487.906 C 417.309 480.123, 427.119 466.732, 431.356 453.979 C 434.571 444.306, 435.475 434.662, 434.095 424.762 C 430.052 395.758, 408.852 372.312, 381.412 366.499 C 372.096 364.525, 358.136 364.745, 349.681 366.997 M 499.667 393.667 C 499.300 394.033, 499 412.258, 499 434.167 L 499 474 701 474 L 903 474 903 433.500 L 903 393 701.667 393 C 590.933 393, 500.033 393.300, 499.667 393.667 M 350 539.826 C 336.326 543.567, 325.904 549.986, 315.819 560.878 C 302.134 575.660, 296.356 595.386, 299.526 616.505 C 301.790 631.591, 307.518 642.692, 318.870 653.995 C 325.732 660.828, 329.254 663.452, 336.062 666.806 C 355.430 676.348, 377.286 676.313, 397 666.707 C 403.786 663.400, 407.241 660.834, 414.130 653.984 C 421.396 646.759, 423.496 643.889, 427.418 635.826 C 433.825 622.656, 435.794 611.429, 434.044 598.048 C 430.419 570.345, 413.235 549.599, 386.638 540.819 C 377.832 537.912, 358.873 537.398, 350 539.826 M 699.750 565.752 L 499 566.005 499 606.502 L 499 647 701.011 647 L 903.022 647 902.761 606.333 C 902.593 580.133, 902.144 565.637, 901.500 565.583 C 900.950 565.537, 810.163 565.614, 699.750 565.752 M 349.191 712.877 C 335.170 717.039, 326.558 722.397, 316.425 733.263 C 308.766 741.476, 303.429 751.187, 300.492 762.258 C 297.760 772.554, 298.862 791.728, 302.775 802 C 312.042 826.322, 332.705 842.701, 358.066 845.828 C 394.633 850.336, 426.693 826.825, 433.542 790.478 C 436.297 775.852, 434.597 763.403, 427.944 749.500 C 419.666 732.202, 405.308 719.643, 387.332 713.978 C 377.429 710.857, 357.895 710.293, 349.191 712.877 M 499.404 738.391 C 499.110 739.156, 499.034 757.493, 499.235 779.141 L 499.601 818.500 657.801 818.753 L 816 819.006 816 778.003 L 816 737 657.969 737 C 523.932 737, 499.856 737.211, 499.404 738.391" stroke="none" fill="currentColor" fill-rule="evenodd"/>
</svg>